<?xml version="1.0" encoding="utf-8" standalone="no"?>
<!DOCTYPE svg PUBLIC "-//W3C//DTD SVG 1.1//EN"
  "http://www.w3.org/Graphics/SVG/1.1/DTD/svg11.dtd">
<svg xmlns:xlink="http://www.w3.org/1999/xlink" width="460.8pt" height="345.6pt" viewBox="0 0 460.8 345.6" xmlns="http://www.w3.org/2000/svg" version="1.1">
 <metadata>
  <rdf:RDF xmlns:dc="http://purl.org/dc/elements/1.1/" xmlns:cc="http://creativecommons.org/ns#" xmlns:rdf="http://www.w3.org/1999/02/22-rdf-syntax-ns#">
   <cc:Work>
    <dc:type rdf:resource="http://purl.org/dc/dcmitype/StillImage"/>
    <dc:date>2023-05-03T18:35:08.543550</dc:date>
    <dc:format>image/svg+xml</dc:format>
    <dc:creator>
     <cc:Agent>
      <dc:title>Matplotlib v3.6.2, https://matplotlib.org/</dc:title>
     </cc:Agent>
    </dc:creator>
   </cc:Work>
  </rdf:RDF>
 </metadata>
 <defs>
  <style type="text/css">*{stroke-linejoin: round; stroke-linecap: butt}</style>
 </defs>
 <g id="figure_1">
  <g id="patch_1">
   <path d="M 0 345.6 
L 460.8 345.6 
L 460.8 0 
L 0 0 
z
" style="fill: #ffffff"/>
  </g>
  <g id="axes_1">
   <g id="patch_2">
    <path d="M 57.6 307.584 
L 414.72 307.584 
L 414.72 41.472 
L 57.6 41.472 
z
" style="fill: #ffffff"/>
   </g>
   <g id="matplotlib.axis_1">
    <g id="xtick_1">
     <g id="line2d_1">
      <defs>
       <path id="mdc64ecff32" d="M 0 0 
L 0 3.5 
" style="stroke: #000000; stroke-width: 0.8"/>
      </defs>
      <g>
       <use xlink:href="#mdc64ecff32" x="73.832727" y="307.584" style="stroke: #000000; stroke-width: 0.8"/>
      </g>
     </g>
     <g id="text_1">
      <!-- 0 -->
      <g transform="translate(70.651477 322.182437) scale(0.1 -0.1)">
       <defs>
        <path id="DejaVuSans-30" d="M 2034 4250 
Q 1547 4250 1301 3770 
Q 1056 3291 1056 2328 
Q 1056 1369 1301 889 
Q 1547 409 2034 409 
Q 2525 409 2770 889 
Q 3016 1369 3016 2328 
Q 3016 3291 2770 3770 
Q 2525 4250 2034 4250 
z
M 2034 4750 
Q 2819 4750 3233 4129 
Q 3647 3509 3647 2328 
Q 3647 1150 3233 529 
Q 2819 -91 2034 -91 
Q 1250 -91 836 529 
Q 422 1150 422 2328 
Q 422 3509 836 4129 
Q 1250 4750 2034 4750 
z
" transform="scale(0.015625)"/>
       </defs>
       <use xlink:href="#DejaVuSans-30"/>
      </g>
     </g>
    </g>
    <g id="xtick_2">
     <g id="line2d_2">
      <g>
       <use xlink:href="#mdc64ecff32" x="114.424693" y="307.584" style="stroke: #000000; stroke-width: 0.8"/>
      </g>
     </g>
     <g id="text_2">
      <!-- 500 -->
      <g transform="translate(104.880943 322.182437) scale(0.1 -0.1)">
       <defs>
        <path id="DejaVuSans-35" d="M 691 4666 
L 3169 4666 
L 3169 4134 
L 1269 4134 
L 1269 2991 
Q 1406 3038 1543 3061 
Q 1681 3084 1819 3084 
Q 2600 3084 3056 2656 
Q 3513 2228 3513 1497 
Q 3513 744 3044 326 
Q 2575 -91 1722 -91 
Q 1428 -91 1123 -41 
Q 819 9 494 109 
L 494 744 
Q 775 591 1075 516 
Q 1375 441 1709 441 
Q 2250 441 2565 725 
Q 2881 1009 2881 1497 
Q 2881 1984 2565 2268 
Q 2250 2553 1709 2553 
Q 1456 2553 1204 2497 
Q 953 2441 691 2322 
L 691 4666 
z
" transform="scale(0.015625)"/>
       </defs>
       <use xlink:href="#DejaVuSans-35"/>
       <use xlink:href="#DejaVuSans-30" x="63.623047"/>
       <use xlink:href="#DejaVuSans-30" x="127.246094"/>
      </g>
     </g>
    </g>
    <g id="xtick_3">
     <g id="line2d_3">
      <g>
       <use xlink:href="#mdc64ecff32" x="155.01666" y="307.584" style="stroke: #000000; stroke-width: 0.8"/>
      </g>
     </g>
     <g id="text_3">
      <!-- 1000 -->
      <g transform="translate(142.29166 322.182437) scale(0.1 -0.1)">
       <defs>
        <path id="DejaVuSans-31" d="M 794 531 
L 1825 531 
L 1825 4091 
L 703 3866 
L 703 4441 
L 1819 4666 
L 2450 4666 
L 2450 531 
L 3481 531 
L 3481 0 
L 794 0 
L 794 531 
z
" transform="scale(0.015625)"/>
       </defs>
       <use xlink:href="#DejaVuSans-31"/>
       <use xlink:href="#DejaVuSans-30" x="63.623047"/>
       <use xlink:href="#DejaVuSans-30" x="127.246094"/>
       <use xlink:href="#DejaVuSans-30" x="190.869141"/>
      </g>
     </g>
    </g>
    <g id="xtick_4">
     <g id="line2d_4">
      <g>
       <use xlink:href="#mdc64ecff32" x="195.608626" y="307.584" style="stroke: #000000; stroke-width: 0.8"/>
      </g>
     </g>
     <g id="text_4">
      <!-- 1500 -->
      <g transform="translate(182.883626 322.182437) scale(0.1 -0.1)">
       <use xlink:href="#DejaVuSans-31"/>
       <use xlink:href="#DejaVuSans-35" x="63.623047"/>
       <use xlink:href="#DejaVuSans-30" x="127.246094"/>
       <use xlink:href="#DejaVuSans-30" x="190.869141"/>
      </g>
     </g>
    </g>
    <g id="xtick_5">
     <g id="line2d_5">
      <g>
       <use xlink:href="#mdc64ecff32" x="236.200592" y="307.584" style="stroke: #000000; stroke-width: 0.8"/>
      </g>
     </g>
     <g id="text_5">
      <!-- 2000 -->
      <g transform="translate(223.475592 322.182437) scale(0.1 -0.1)">
       <defs>
        <path id="DejaVuSans-32" d="M 1228 531 
L 3431 531 
L 3431 0 
L 469 0 
L 469 531 
Q 828 903 1448 1529 
Q 2069 2156 2228 2338 
Q 2531 2678 2651 2914 
Q 2772 3150 2772 3378 
Q 2772 3750 2511 3984 
Q 2250 4219 1831 4219 
Q 1534 4219 1204 4116 
Q 875 4013 500 3803 
L 500 4441 
Q 881 4594 1212 4672 
Q 1544 4750 1819 4750 
Q 2544 4750 2975 4387 
Q 3406 4025 3406 3419 
Q 3406 3131 3298 2873 
Q 3191 2616 2906 2266 
Q 2828 2175 2409 1742 
Q 1991 1309 1228 531 
z
" transform="scale(0.015625)"/>
       </defs>
       <use xlink:href="#DejaVuSans-32"/>
       <use xlink:href="#DejaVuSans-30" x="63.623047"/>
       <use xlink:href="#DejaVuSans-30" x="127.246094"/>
       <use xlink:href="#DejaVuSans-30" x="190.869141"/>
      </g>
     </g>
    </g>
    <g id="xtick_6">
     <g id="line2d_6">
      <g>
       <use xlink:href="#mdc64ecff32" x="276.792558" y="307.584" style="stroke: #000000; stroke-width: 0.8"/>
      </g>
     </g>
     <g id="text_6">
      <!-- 2500 -->
      <g transform="translate(264.067558 322.182437) scale(0.1 -0.1)">
       <use xlink:href="#DejaVuSans-32"/>
       <use xlink:href="#DejaVuSans-35" x="63.623047"/>
       <use xlink:href="#DejaVuSans-30" x="127.246094"/>
       <use xlink:href="#DejaVuSans-30" x="190.869141"/>
      </g>
     </g>
    </g>
    <g id="xtick_7">
     <g id="line2d_7">
      <g>
       <use xlink:href="#mdc64ecff32" x="317.384524" y="307.584" style="stroke: #000000; stroke-width: 0.8"/>
      </g>
     </g>
     <g id="text_7">
      <!-- 3000 -->
      <g transform="translate(304.659524 322.182437) scale(0.1 -0.1)">
       <defs>
        <path id="DejaVuSans-33" d="M 2597 2516 
Q 3050 2419 3304 2112 
Q 3559 1806 3559 1356 
Q 3559 666 3084 287 
Q 2609 -91 1734 -91 
Q 1441 -91 1130 -33 
Q 819 25 488 141 
L 488 750 
Q 750 597 1062 519 
Q 1375 441 1716 441 
Q 2309 441 2620 675 
Q 2931 909 2931 1356 
Q 2931 1769 2642 2001 
Q 2353 2234 1838 2234 
L 1294 2234 
L 1294 2753 
L 1863 2753 
Q 2328 2753 2575 2939 
Q 2822 3125 2822 3475 
Q 2822 3834 2567 4026 
Q 2313 4219 1838 4219 
Q 1578 4219 1281 4162 
Q 984 4106 628 3988 
L 628 4550 
Q 988 4650 1302 4700 
Q 1616 4750 1894 4750 
Q 2613 4750 3031 4423 
Q 3450 4097 3450 3541 
Q 3450 3153 3228 2886 
Q 3006 2619 2597 2516 
z
" transform="scale(0.015625)"/>
       </defs>
       <use xlink:href="#DejaVuSans-33"/>
       <use xlink:href="#DejaVuSans-30" x="63.623047"/>
       <use xlink:href="#DejaVuSans-30" x="127.246094"/>
       <use xlink:href="#DejaVuSans-30" x="190.869141"/>
      </g>
     </g>
    </g>
    <g id="xtick_8">
     <g id="line2d_8">
      <g>
       <use xlink:href="#mdc64ecff32" x="357.97649" y="307.584" style="stroke: #000000; stroke-width: 0.8"/>
      </g>
     </g>
     <g id="text_8">
      <!-- 3500 -->
      <g transform="translate(345.25149 322.182437) scale(0.1 -0.1)">
       <use xlink:href="#DejaVuSans-33"/>
       <use xlink:href="#DejaVuSans-35" x="63.623047"/>
       <use xlink:href="#DejaVuSans-30" x="127.246094"/>
       <use xlink:href="#DejaVuSans-30" x="190.869141"/>
      </g>
     </g>
    </g>
    <g id="xtick_9">
     <g id="line2d_9">
      <g>
       <use xlink:href="#mdc64ecff32" x="398.568457" y="307.584" style="stroke: #000000; stroke-width: 0.8"/>
      </g>
     </g>
     <g id="text_9">
      <!-- 4000 -->
      <g transform="translate(385.843457 322.182437) scale(0.1 -0.1)">
       <defs>
        <path id="DejaVuSans-34" d="M 2419 4116 
L 825 1625 
L 2419 1625 
L 2419 4116 
z
M 2253 4666 
L 3047 4666 
L 3047 1625 
L 3713 1625 
L 3713 1100 
L 3047 1100 
L 3047 0 
L 2419 0 
L 2419 1100 
L 313 1100 
L 313 1709 
L 2253 4666 
z
" transform="scale(0.015625)"/>
       </defs>
       <use xlink:href="#DejaVuSans-34"/>
       <use xlink:href="#DejaVuSans-30" x="63.623047"/>
       <use xlink:href="#DejaVuSans-30" x="127.246094"/>
       <use xlink:href="#DejaVuSans-30" x="190.869141"/>
      </g>
     </g>
    </g>
    <g id="text_10">
     <!-- Image shown -->
     <g transform="translate(202.820156 335.860562) scale(0.1 -0.1)">
      <defs>
       <path id="DejaVuSans-49" d="M 628 4666 
L 1259 4666 
L 1259 0 
L 628 0 
L 628 4666 
z
" transform="scale(0.015625)"/>
       <path id="DejaVuSans-6d" d="M 3328 2828 
Q 3544 3216 3844 3400 
Q 4144 3584 4550 3584 
Q 5097 3584 5394 3201 
Q 5691 2819 5691 2113 
L 5691 0 
L 5113 0 
L 5113 2094 
Q 5113 2597 4934 2840 
Q 4756 3084 4391 3084 
Q 3944 3084 3684 2787 
Q 3425 2491 3425 1978 
L 3425 0 
L 2847 0 
L 2847 2094 
Q 2847 2600 2669 2842 
Q 2491 3084 2119 3084 
Q 1678 3084 1418 2786 
Q 1159 2488 1159 1978 
L 1159 0 
L 581 0 
L 581 3500 
L 1159 3500 
L 1159 2956 
Q 1356 3278 1631 3431 
Q 1906 3584 2284 3584 
Q 2666 3584 2933 3390 
Q 3200 3197 3328 2828 
z
" transform="scale(0.015625)"/>
       <path id="DejaVuSans-61" d="M 2194 1759 
Q 1497 1759 1228 1600 
Q 959 1441 959 1056 
Q 959 750 1161 570 
Q 1363 391 1709 391 
Q 2188 391 2477 730 
Q 2766 1069 2766 1631 
L 2766 1759 
L 2194 1759 
z
M 3341 1997 
L 3341 0 
L 2766 0 
L 2766 531 
Q 2569 213 2275 61 
Q 1981 -91 1556 -91 
Q 1019 -91 701 211 
Q 384 513 384 1019 
Q 384 1609 779 1909 
Q 1175 2209 1959 2209 
L 2766 2209 
L 2766 2266 
Q 2766 2663 2505 2880 
Q 2244 3097 1772 3097 
Q 1472 3097 1187 3025 
Q 903 2953 641 2809 
L 641 3341 
Q 956 3463 1253 3523 
Q 1550 3584 1831 3584 
Q 2591 3584 2966 3190 
Q 3341 2797 3341 1997 
z
" transform="scale(0.015625)"/>
       <path id="DejaVuSans-67" d="M 2906 1791 
Q 2906 2416 2648 2759 
Q 2391 3103 1925 3103 
Q 1463 3103 1205 2759 
Q 947 2416 947 1791 
Q 947 1169 1205 825 
Q 1463 481 1925 481 
Q 2391 481 2648 825 
Q 2906 1169 2906 1791 
z
M 3481 434 
Q 3481 -459 3084 -895 
Q 2688 -1331 1869 -1331 
Q 1566 -1331 1297 -1286 
Q 1028 -1241 775 -1147 
L 775 -588 
Q 1028 -725 1275 -790 
Q 1522 -856 1778 -856 
Q 2344 -856 2625 -561 
Q 2906 -266 2906 331 
L 2906 616 
Q 2728 306 2450 153 
Q 2172 0 1784 0 
Q 1141 0 747 490 
Q 353 981 353 1791 
Q 353 2603 747 3093 
Q 1141 3584 1784 3584 
Q 2172 3584 2450 3431 
Q 2728 3278 2906 2969 
L 2906 3500 
L 3481 3500 
L 3481 434 
z
" transform="scale(0.015625)"/>
       <path id="DejaVuSans-65" d="M 3597 1894 
L 3597 1613 
L 953 1613 
Q 991 1019 1311 708 
Q 1631 397 2203 397 
Q 2534 397 2845 478 
Q 3156 559 3463 722 
L 3463 178 
Q 3153 47 2828 -22 
Q 2503 -91 2169 -91 
Q 1331 -91 842 396 
Q 353 884 353 1716 
Q 353 2575 817 3079 
Q 1281 3584 2069 3584 
Q 2775 3584 3186 3129 
Q 3597 2675 3597 1894 
z
M 3022 2063 
Q 3016 2534 2758 2815 
Q 2500 3097 2075 3097 
Q 1594 3097 1305 2825 
Q 1016 2553 972 2059 
L 3022 2063 
z
" transform="scale(0.015625)"/>
       <path id="DejaVuSans-20" transform="scale(0.015625)"/>
       <path id="DejaVuSans-73" d="M 2834 3397 
L 2834 2853 
Q 2591 2978 2328 3040 
Q 2066 3103 1784 3103 
Q 1356 3103 1142 2972 
Q 928 2841 928 2578 
Q 928 2378 1081 2264 
Q 1234 2150 1697 2047 
L 1894 2003 
Q 2506 1872 2764 1633 
Q 3022 1394 3022 966 
Q 3022 478 2636 193 
Q 2250 -91 1575 -91 
Q 1294 -91 989 -36 
Q 684 19 347 128 
L 347 722 
Q 666 556 975 473 
Q 1284 391 1588 391 
Q 1994 391 2212 530 
Q 2431 669 2431 922 
Q 2431 1156 2273 1281 
Q 2116 1406 1581 1522 
L 1381 1569 
Q 847 1681 609 1914 
Q 372 2147 372 2553 
Q 372 3047 722 3315 
Q 1072 3584 1716 3584 
Q 2034 3584 2315 3537 
Q 2597 3491 2834 3397 
z
" transform="scale(0.015625)"/>
       <path id="DejaVuSans-68" d="M 3513 2113 
L 3513 0 
L 2938 0 
L 2938 2094 
Q 2938 2591 2744 2837 
Q 2550 3084 2163 3084 
Q 1697 3084 1428 2787 
Q 1159 2491 1159 1978 
L 1159 0 
L 581 0 
L 581 4863 
L 1159 4863 
L 1159 2956 
Q 1366 3272 1645 3428 
Q 1925 3584 2291 3584 
Q 2894 3584 3203 3211 
Q 3513 2838 3513 2113 
z
" transform="scale(0.015625)"/>
       <path id="DejaVuSans-6f" d="M 1959 3097 
Q 1497 3097 1228 2736 
Q 959 2375 959 1747 
Q 959 1119 1226 758 
Q 1494 397 1959 397 
Q 2419 397 2687 759 
Q 2956 1122 2956 1747 
Q 2956 2369 2687 2733 
Q 2419 3097 1959 3097 
z
M 1959 3584 
Q 2709 3584 3137 3096 
Q 3566 2609 3566 1747 
Q 3566 888 3137 398 
Q 2709 -91 1959 -91 
Q 1206 -91 779 398 
Q 353 888 353 1747 
Q 353 2609 779 3096 
Q 1206 3584 1959 3584 
z
" transform="scale(0.015625)"/>
       <path id="DejaVuSans-77" d="M 269 3500 
L 844 3500 
L 1563 769 
L 2278 3500 
L 2956 3500 
L 3675 769 
L 4391 3500 
L 4966 3500 
L 4050 0 
L 3372 0 
L 2619 2869 
L 1863 0 
L 1184 0 
L 269 3500 
z
" transform="scale(0.015625)"/>
       <path id="DejaVuSans-6e" d="M 3513 2113 
L 3513 0 
L 2938 0 
L 2938 2094 
Q 2938 2591 2744 2837 
Q 2550 3084 2163 3084 
Q 1697 3084 1428 2787 
Q 1159 2491 1159 1978 
L 1159 0 
L 581 0 
L 581 3500 
L 1159 3500 
L 1159 2956 
Q 1366 3272 1645 3428 
Q 1925 3584 2291 3584 
Q 2894 3584 3203 3211 
Q 3513 2838 3513 2113 
z
" transform="scale(0.015625)"/>
      </defs>
      <use xlink:href="#DejaVuSans-49"/>
      <use xlink:href="#DejaVuSans-6d" x="29.492188"/>
      <use xlink:href="#DejaVuSans-61" x="126.904297"/>
      <use xlink:href="#DejaVuSans-67" x="188.183594"/>
      <use xlink:href="#DejaVuSans-65" x="251.660156"/>
      <use xlink:href="#DejaVuSans-20" x="313.183594"/>
      <use xlink:href="#DejaVuSans-73" x="344.970703"/>
      <use xlink:href="#DejaVuSans-68" x="397.070312"/>
      <use xlink:href="#DejaVuSans-6f" x="460.449219"/>
      <use xlink:href="#DejaVuSans-77" x="521.630859"/>
      <use xlink:href="#DejaVuSans-6e" x="603.417969"/>
     </g>
    </g>
   </g>
   <g id="matplotlib.axis_2">
    <g id="ytick_1">
     <g id="line2d_10">
      <defs>
       <path id="m884d8fb517" d="M 0 0 
L -3.5 0 
" style="stroke: #000000; stroke-width: 0.8"/>
      </defs>
      <g>
       <use xlink:href="#m884d8fb517" x="57.6" y="307.288976" style="stroke: #000000; stroke-width: 0.8"/>
      </g>
     </g>
     <g id="text_11">
      <!-- 100 -->
      <g transform="translate(31.5125 311.088194) scale(0.1 -0.1)">
       <use xlink:href="#DejaVuSans-31"/>
       <use xlink:href="#DejaVuSans-30" x="63.623047"/>
       <use xlink:href="#DejaVuSans-30" x="127.246094"/>
      </g>
     </g>
    </g>
    <g id="ytick_2">
     <g id="line2d_11">
      <g>
       <use xlink:href="#m884d8fb517" x="57.6" y="248.284098" style="stroke: #000000; stroke-width: 0.8"/>
      </g>
     </g>
     <g id="text_12">
      <!-- 150 -->
      <g transform="translate(31.5125 252.083316) scale(0.1 -0.1)">
       <use xlink:href="#DejaVuSans-31"/>
       <use xlink:href="#DejaVuSans-35" x="63.623047"/>
       <use xlink:href="#DejaVuSans-30" x="127.246094"/>
      </g>
     </g>
    </g>
    <g id="ytick_3">
     <g id="line2d_12">
      <g>
       <use xlink:href="#m884d8fb517" x="57.6" y="189.27922" style="stroke: #000000; stroke-width: 0.8"/>
      </g>
     </g>
     <g id="text_13">
      <!-- 200 -->
      <g transform="translate(31.5125 193.078438) scale(0.1 -0.1)">
       <use xlink:href="#DejaVuSans-32"/>
       <use xlink:href="#DejaVuSans-30" x="63.623047"/>
       <use xlink:href="#DejaVuSans-30" x="127.246094"/>
      </g>
     </g>
    </g>
    <g id="ytick_4">
     <g id="line2d_13">
      <g>
       <use xlink:href="#m884d8fb517" x="57.6" y="130.274341" style="stroke: #000000; stroke-width: 0.8"/>
      </g>
     </g>
     <g id="text_14">
      <!-- 250 -->
      <g transform="translate(31.5125 134.07356) scale(0.1 -0.1)">
       <use xlink:href="#DejaVuSans-32"/>
       <use xlink:href="#DejaVuSans-35" x="63.623047"/>
       <use xlink:href="#DejaVuSans-30" x="127.246094"/>
      </g>
     </g>
    </g>
    <g id="ytick_5">
     <g id="line2d_14">
      <g>
       <use xlink:href="#m884d8fb517" x="57.6" y="71.269463" style="stroke: #000000; stroke-width: 0.8"/>
      </g>
     </g>
     <g id="text_15">
      <!-- 300 -->
      <g transform="translate(31.5125 75.068682) scale(0.1 -0.1)">
       <use xlink:href="#DejaVuSans-33"/>
       <use xlink:href="#DejaVuSans-30" x="63.623047"/>
       <use xlink:href="#DejaVuSans-30" x="127.246094"/>
      </g>
     </g>
    </g>
    <g id="text_16">
     <!-- Firing rate [Hz] -->
     <g transform="translate(25.432812 211.838156) rotate(-90) scale(0.1 -0.1)">
      <defs>
       <path id="DejaVuSans-46" d="M 628 4666 
L 3309 4666 
L 3309 4134 
L 1259 4134 
L 1259 2759 
L 3109 2759 
L 3109 2228 
L 1259 2228 
L 1259 0 
L 628 0 
L 628 4666 
z
" transform="scale(0.015625)"/>
       <path id="DejaVuSans-69" d="M 603 3500 
L 1178 3500 
L 1178 0 
L 603 0 
L 603 3500 
z
M 603 4863 
L 1178 4863 
L 1178 4134 
L 603 4134 
L 603 4863 
z
" transform="scale(0.015625)"/>
       <path id="DejaVuSans-72" d="M 2631 2963 
Q 2534 3019 2420 3045 
Q 2306 3072 2169 3072 
Q 1681 3072 1420 2755 
Q 1159 2438 1159 1844 
L 1159 0 
L 581 0 
L 581 3500 
L 1159 3500 
L 1159 2956 
Q 1341 3275 1631 3429 
Q 1922 3584 2338 3584 
Q 2397 3584 2469 3576 
Q 2541 3569 2628 3553 
L 2631 2963 
z
" transform="scale(0.015625)"/>
       <path id="DejaVuSans-74" d="M 1172 4494 
L 1172 3500 
L 2356 3500 
L 2356 3053 
L 1172 3053 
L 1172 1153 
Q 1172 725 1289 603 
Q 1406 481 1766 481 
L 2356 481 
L 2356 0 
L 1766 0 
Q 1100 0 847 248 
Q 594 497 594 1153 
L 594 3053 
L 172 3053 
L 172 3500 
L 594 3500 
L 594 4494 
L 1172 4494 
z
" transform="scale(0.015625)"/>
       <path id="DejaVuSans-5b" d="M 550 4863 
L 1875 4863 
L 1875 4416 
L 1125 4416 
L 1125 -397 
L 1875 -397 
L 1875 -844 
L 550 -844 
L 550 4863 
z
" transform="scale(0.015625)"/>
       <path id="DejaVuSans-48" d="M 628 4666 
L 1259 4666 
L 1259 2753 
L 3553 2753 
L 3553 4666 
L 4184 4666 
L 4184 0 
L 3553 0 
L 3553 2222 
L 1259 2222 
L 1259 0 
L 628 0 
L 628 4666 
z
" transform="scale(0.015625)"/>
       <path id="DejaVuSans-7a" d="M 353 3500 
L 3084 3500 
L 3084 2975 
L 922 459 
L 3084 459 
L 3084 0 
L 275 0 
L 275 525 
L 2438 3041 
L 353 3041 
L 353 3500 
z
" transform="scale(0.015625)"/>
       <path id="DejaVuSans-5d" d="M 1947 4863 
L 1947 -844 
L 622 -844 
L 622 -397 
L 1369 -397 
L 1369 4416 
L 622 4416 
L 622 4863 
L 1947 4863 
z
" transform="scale(0.015625)"/>
      </defs>
      <use xlink:href="#DejaVuSans-46"/>
      <use xlink:href="#DejaVuSans-69" x="50.269531"/>
      <use xlink:href="#DejaVuSans-72" x="78.052734"/>
      <use xlink:href="#DejaVuSans-69" x="119.166016"/>
      <use xlink:href="#DejaVuSans-6e" x="146.949219"/>
      <use xlink:href="#DejaVuSans-67" x="210.328125"/>
      <use xlink:href="#DejaVuSans-20" x="273.804688"/>
      <use xlink:href="#DejaVuSans-72" x="305.591797"/>
      <use xlink:href="#DejaVuSans-61" x="346.705078"/>
      <use xlink:href="#DejaVuSans-74" x="407.984375"/>
      <use xlink:href="#DejaVuSans-65" x="447.193359"/>
      <use xlink:href="#DejaVuSans-20" x="508.716797"/>
      <use xlink:href="#DejaVuSans-5b" x="540.503906"/>
      <use xlink:href="#DejaVuSans-48" x="579.517578"/>
      <use xlink:href="#DejaVuSans-7a" x="654.712891"/>
      <use xlink:href="#DejaVuSans-5d" x="707.203125"/>
     </g>
    </g>
   </g>
   <g id="line2d_15">
    <path d="M 73.832727 142.075317 
L 73.913911 130.274341 
L 74.157463 254.184585 
L 74.238647 248.284098 
L 74.319831 201.080195 
L 74.401015 230.582634 
L 74.482199 153.876293 
L 74.563383 224.682146 
L 74.644567 53.568 
L 74.725751 195.179707 
L 74.806934 177.478244 
L 74.888118 177.478244 
L 74.969302 189.27922 
L 75.050486 165.677268 
L 75.13167 260.085073 
L 75.456406 159.77678 
L 75.53759 254.184585 
L 75.618774 236.483122 
L 75.699958 242.38361 
L 75.781142 201.080195 
L 75.862326 230.582634 
L 75.94351 177.478244 
L 76.024693 206.980683 
L 76.187061 159.77678 
L 76.349429 254.184585 
L 76.430613 177.478244 
L 76.511797 189.27922 
L 76.592981 189.27922 
L 76.755349 224.682146 
L 76.917717 171.577756 
L 76.998901 159.77678 
L 77.080085 165.677268 
L 77.161268 224.682146 
L 77.242452 212.881171 
L 77.323636 189.27922 
L 77.40482 124.373854 
L 77.567188 230.582634 
L 77.81074 136.174829 
L 77.891924 224.682146 
L 77.973108 183.378732 
L 78.054292 242.38361 
L 78.297844 136.174829 
L 78.460211 177.478244 
L 78.541395 153.876293 
L 78.622579 224.682146 
L 78.703763 136.174829 
L 78.784947 201.080195 
L 78.866131 195.179707 
L 78.947315 130.274341 
L 79.109683 242.38361 
L 79.272051 165.677268 
L 79.353235 147.975805 
L 79.596786 201.080195 
L 79.67797 224.682146 
L 79.759154 218.781659 
L 80.002706 183.378732 
L 80.08389 236.483122 
L 80.165074 165.677268 
L 80.327442 212.881171 
L 80.408626 171.577756 
L 80.570994 236.483122 
L 80.733362 189.27922 
L 80.895729 189.27922 
L 80.976913 177.478244 
L 81.058097 142.075317 
L 81.139281 265.985561 
L 81.220465 153.876293 
L 81.301649 260.085073 
L 81.382833 147.975805 
L 81.464017 230.582634 
L 81.545201 212.881171 
L 81.626385 242.38361 
L 81.707569 153.876293 
L 81.869937 201.080195 
L 81.951121 177.478244 
L 82.032304 201.080195 
L 82.113488 165.677268 
L 82.194672 230.582634 
L 82.438224 153.876293 
L 82.519408 236.483122 
L 82.681776 165.677268 
L 82.76296 230.582634 
L 82.844144 218.781659 
L 82.925328 230.582634 
L 83.006512 136.174829 
L 83.087696 147.975805 
L 83.250063 254.184585 
L 83.331247 159.77678 
L 83.412431 224.682146 
L 83.574799 153.876293 
L 83.655983 236.483122 
L 83.737167 183.378732 
L 83.818351 218.781659 
L 83.899535 118.473366 
L 84.061903 183.378732 
L 84.143087 177.478244 
L 84.224271 248.284098 
L 84.305455 230.582634 
L 84.386638 159.77678 
L 84.467822 224.682146 
L 84.549006 183.378732 
L 84.63019 201.080195 
L 84.711374 183.378732 
L 84.873742 236.483122 
L 85.03611 183.378732 
L 85.117294 177.478244 
L 85.198478 236.483122 
L 85.44203 177.478244 
L 85.604397 159.77678 
L 85.766765 218.781659 
L 85.847949 206.980683 
L 85.929133 218.781659 
L 86.010317 212.881171 
L 86.091501 236.483122 
L 86.253869 124.373854 
L 86.335053 147.975805 
L 86.416237 236.483122 
L 86.659789 171.577756 
L 86.740973 195.179707 
L 86.822156 183.378732 
L 86.90334 224.682146 
L 87.146892 142.075317 
L 87.390444 201.080195 
L 87.471628 171.577756 
L 87.552812 236.483122 
L 87.633996 212.881171 
L 87.71518 118.473366 
L 87.877548 254.184585 
L 88.039915 136.174829 
L 88.202283 218.781659 
L 88.283467 195.179707 
L 88.364651 201.080195 
L 88.445835 177.478244 
L 88.527019 118.473366 
L 88.608203 183.378732 
L 88.689387 147.975805 
L 88.770571 159.77678 
L 88.851755 218.781659 
L 88.932939 206.980683 
L 89.014123 195.179707 
L 89.17649 212.881171 
L 89.257674 171.577756 
L 89.338858 248.284098 
L 89.501226 189.27922 
L 89.58241 201.080195 
L 89.744778 124.373854 
L 89.825962 230.582634 
L 89.907146 218.781659 
L 89.98833 183.378732 
L 90.069514 218.781659 
L 90.150698 212.881171 
L 90.313066 224.682146 
L 90.394249 171.577756 
L 90.475433 212.881171 
L 90.556617 177.478244 
L 90.718985 265.985561 
L 90.962537 177.478244 
L 91.043721 142.075317 
L 91.124905 230.582634 
L 91.287273 112.572878 
L 91.530825 218.781659 
L 91.612008 236.483122 
L 91.693192 212.881171 
L 91.774376 153.876293 
L 91.85556 201.080195 
L 91.936744 195.179707 
L 92.017928 159.77678 
L 92.099112 177.478244 
L 92.180296 159.77678 
L 92.26148 165.677268 
L 92.342664 242.38361 
L 92.423848 171.577756 
L 92.505032 236.483122 
L 92.586216 230.582634 
L 92.6674 165.677268 
L 92.748584 177.478244 
L 92.829767 248.284098 
L 92.910951 230.582634 
L 92.992135 159.77678 
L 93.154503 212.881171 
L 93.235687 159.77678 
L 93.316871 212.881171 
L 93.479239 159.77678 
L 93.560423 242.38361 
L 93.641607 206.980683 
L 93.722791 230.582634 
L 93.803975 177.478244 
L 93.885159 212.881171 
L 93.966342 165.677268 
L 94.047526 218.781659 
L 94.12871 201.080195 
L 94.209894 183.378732 
L 94.453446 224.682146 
L 94.53463 183.378732 
L 94.615814 236.483122 
L 94.778182 147.975805 
L 94.94055 236.483122 
L 95.021734 136.174829 
L 95.184101 206.980683 
L 95.265285 212.881171 
L 95.427653 130.274341 
L 95.508837 177.478244 
L 95.590021 153.876293 
L 95.671205 189.27922 
L 95.833573 142.075317 
L 95.995941 218.781659 
L 96.077125 189.27922 
L 96.158309 224.682146 
L 96.239493 206.980683 
L 96.320677 153.876293 
L 96.40186 201.080195 
L 96.483044 147.975805 
L 96.564228 201.080195 
L 96.645412 159.77678 
L 96.80778 230.582634 
L 96.888964 177.478244 
L 96.970148 242.38361 
L 97.132516 171.577756 
L 97.2137 230.582634 
L 97.294884 165.677268 
L 97.376068 177.478244 
L 97.538436 224.682146 
L 97.619619 183.378732 
L 97.700803 201.080195 
L 97.781987 165.677268 
L 97.863171 171.577756 
L 98.025539 177.478244 
L 98.106723 177.478244 
L 98.187907 195.179707 
L 98.269091 242.38361 
L 98.350275 183.378732 
L 98.431459 218.781659 
L 98.512643 153.876293 
L 98.593827 212.881171 
L 98.675011 195.179707 
L 98.756195 183.378732 
L 98.837378 189.27922 
L 98.918562 130.274341 
L 98.999746 242.38361 
L 99.162114 177.478244 
L 99.243298 201.080195 
L 99.405666 177.478244 
L 99.48685 183.378732 
L 99.649218 206.980683 
L 99.730402 153.876293 
L 100.055137 242.38361 
L 100.136321 153.876293 
L 100.217505 224.682146 
L 100.298689 206.980683 
L 100.379873 218.781659 
L 100.461057 130.274341 
L 100.542241 224.682146 
L 100.623425 171.577756 
L 100.785793 224.682146 
L 100.866977 183.378732 
L 100.948161 212.881171 
L 101.191712 142.075317 
L 101.272896 195.179707 
L 101.35408 153.876293 
L 101.516448 212.881171 
L 101.678816 177.478244 
L 101.76 177.478244 
L 101.841184 195.179707 
L 101.922368 248.284098 
L 102.003552 230.582634 
L 102.084736 189.27922 
L 102.16592 206.980683 
L 102.328288 142.075317 
L 102.571839 230.582634 
L 102.734207 177.478244 
L 102.815391 254.184585 
L 102.896575 153.876293 
L 103.058943 236.483122 
L 103.140127 112.572878 
L 103.302495 189.27922 
L 103.383679 183.378732 
L 103.464863 230.582634 
L 103.546047 183.378732 
L 103.62723 218.781659 
L 103.708414 165.677268 
L 103.870782 218.781659 
L 103.951966 201.080195 
L 104.114334 136.174829 
L 104.195518 206.980683 
L 104.276702 153.876293 
L 104.43907 230.582634 
L 104.520254 177.478244 
L 104.601438 254.184585 
L 104.682622 147.975805 
L 104.763805 206.980683 
L 104.844989 147.975805 
L 104.926173 224.682146 
L 105.007357 124.373854 
L 105.088541 242.38361 
L 105.250909 195.179707 
L 105.332093 206.980683 
L 105.413277 201.080195 
L 105.494461 183.378732 
L 105.575645 195.179707 
L 105.656829 289.587512 
L 105.738013 189.27922 
L 105.819197 201.080195 
L 105.900381 236.483122 
L 106.062748 171.577756 
L 106.143932 224.682146 
L 106.225116 212.881171 
L 106.3063 136.174829 
L 106.468668 230.582634 
L 106.549852 206.980683 
L 106.631036 183.378732 
L 106.793404 236.483122 
L 106.874588 136.174829 
L 106.955772 206.980683 
L 107.036956 136.174829 
L 107.11814 254.184585 
L 107.199323 177.478244 
L 107.280507 224.682146 
L 107.361691 218.781659 
L 107.442875 183.378732 
L 107.524059 189.27922 
L 107.605243 230.582634 
L 107.686427 177.478244 
L 107.929979 224.682146 
L 108.092347 201.080195 
L 108.173531 212.881171 
L 108.335899 177.478244 
L 108.417082 171.577756 
L 108.498266 201.080195 
L 108.57945 165.677268 
L 108.660634 171.577756 
L 108.741818 159.77678 
L 108.823002 165.677268 
L 108.904186 242.38361 
L 108.98537 218.781659 
L 109.066554 189.27922 
L 109.147738 201.080195 
L 109.228922 153.876293 
L 109.310106 218.781659 
L 109.39129 183.378732 
L 109.472474 195.179707 
L 109.553658 236.483122 
L 109.634841 206.980683 
L 109.716025 230.582634 
L 109.878393 165.677268 
L 109.959577 212.881171 
L 110.040761 112.572878 
L 110.121945 142.075317 
L 110.284313 230.582634 
L 110.365497 171.577756 
L 110.446681 183.378732 
L 110.527865 183.378732 
L 110.609049 177.478244 
L 110.690233 147.975805 
L 110.771416 265.985561 
L 110.933784 159.77678 
L 111.014968 142.075317 
L 111.096152 224.682146 
L 111.177336 147.975805 
L 111.25852 206.980683 
L 111.339704 201.080195 
L 111.502072 236.483122 
L 111.583256 159.77678 
L 111.66444 183.378732 
L 111.745624 206.980683 
L 111.826808 159.77678 
L 111.989175 206.980683 
L 112.151543 206.980683 
L 112.232727 124.373854 
L 112.395095 236.483122 
L 112.476279 224.682146 
L 112.638647 171.577756 
L 112.719831 206.980683 
L 112.801015 183.378732 
L 112.882199 106.67239 
L 113.044567 201.080195 
L 113.125751 136.174829 
L 113.206934 218.781659 
L 113.369302 153.876293 
L 113.450486 195.179707 
L 113.53167 136.174829 
L 113.694038 236.483122 
L 113.856406 136.174829 
L 114.099958 218.781659 
L 114.34351 136.174829 
L 114.587061 218.781659 
L 114.668245 171.577756 
L 114.749429 177.478244 
L 114.830613 212.881171 
L 114.911797 142.075317 
L 115.155349 242.38361 
L 115.236533 195.179707 
L 115.317717 218.781659 
L 115.480085 147.975805 
L 115.561268 212.881171 
L 115.642452 195.179707 
L 115.723636 230.582634 
L 115.80482 177.478244 
L 115.886004 206.980683 
L 115.967188 124.373854 
L 116.129556 212.881171 
L 116.21074 147.975805 
L 116.373108 218.781659 
L 116.454292 177.478244 
L 116.61666 218.781659 
L 116.697844 183.378732 
L 116.779027 189.27922 
L 116.860211 195.179707 
L 117.022579 177.478244 
L 117.103763 183.378732 
L 117.266131 189.27922 
L 117.428499 159.77678 
L 117.509683 183.378732 
L 117.672051 142.075317 
L 117.753235 153.876293 
L 117.834419 242.38361 
L 117.915603 153.876293 
L 117.996786 212.881171 
L 118.07797 201.080195 
L 118.159154 230.582634 
L 118.240338 177.478244 
L 118.321522 195.179707 
L 118.402706 165.677268 
L 118.48389 265.985561 
L 118.646258 153.876293 
L 118.727442 165.677268 
L 118.808626 189.27922 
L 118.88981 183.378732 
L 118.970994 142.075317 
L 119.052178 218.781659 
L 119.133362 212.881171 
L 119.214545 159.77678 
L 119.376913 195.179707 
L 119.458097 118.473366 
L 119.620465 248.284098 
L 119.782833 212.881171 
L 119.864017 230.582634 
L 119.945201 189.27922 
L 120.107569 224.682146 
L 120.269937 147.975805 
L 120.351121 236.483122 
L 120.432304 130.274341 
L 120.594672 206.980683 
L 120.675856 201.080195 
L 120.75704 206.980683 
L 120.838224 165.677268 
L 120.919408 206.980683 
L 121.000592 165.677268 
L 121.081776 254.184585 
L 121.16296 136.174829 
L 121.325328 224.682146 
L 121.487696 201.080195 
L 121.568879 212.881171 
L 121.650063 201.080195 
L 121.731247 153.876293 
L 121.812431 159.77678 
L 121.893615 136.174829 
L 121.974799 236.483122 
L 122.137167 147.975805 
L 122.218351 136.174829 
L 122.299535 218.781659 
L 122.380719 189.27922 
L 122.461903 236.483122 
L 122.624271 147.975805 
L 122.705455 248.284098 
L 122.867822 171.577756 
L 122.949006 230.582634 
L 123.03019 195.179707 
L 123.111374 212.881171 
L 123.192558 195.179707 
L 123.273742 242.38361 
L 123.43611 165.677268 
L 123.517294 212.881171 
L 123.598478 130.274341 
L 123.760846 242.38361 
L 124.004397 171.577756 
L 124.085581 189.27922 
L 124.166765 236.483122 
L 124.247949 212.881171 
L 124.410317 242.38361 
L 124.491501 218.781659 
L 124.572685 153.876293 
L 124.653869 171.577756 
L 124.735053 283.687024 
L 124.897421 171.577756 
L 124.978605 206.980683 
L 125.140973 136.174829 
L 125.222156 224.682146 
L 125.465708 124.373854 
L 125.546892 224.682146 
L 125.70926 171.577756 
L 125.871628 218.781659 
L 125.952812 159.77678 
L 126.033996 224.682146 
L 126.11518 142.075317 
L 126.196364 206.980683 
L 126.277548 195.179707 
L 126.358732 153.876293 
L 126.439915 201.080195 
L 126.602283 159.77678 
L 126.683467 242.38361 
L 126.764651 165.677268 
L 126.845835 177.478244 
L 126.927019 206.980683 
L 127.008203 153.876293 
L 127.089387 159.77678 
L 127.170571 236.483122 
L 127.332939 142.075317 
L 127.414123 171.577756 
L 127.57649 189.27922 
L 127.657674 189.27922 
L 127.738858 195.179707 
L 127.820042 248.284098 
L 127.901226 171.577756 
L 127.98241 195.179707 
L 128.063594 195.179707 
L 128.144778 212.881171 
L 128.225962 195.179707 
L 128.469514 265.985561 
L 128.550698 165.677268 
L 128.631882 206.980683 
L 128.713066 195.179707 
L 128.794249 189.27922 
L 128.875433 118.473366 
L 129.037801 206.980683 
L 129.118985 230.582634 
L 129.362537 159.77678 
L 129.524905 201.080195 
L 129.606089 142.075317 
L 129.768457 242.38361 
L 130.093192 159.77678 
L 130.25556 260.085073 
L 130.336744 165.677268 
L 130.417928 195.179707 
L 130.499112 242.38361 
L 130.66148 106.67239 
L 130.742664 212.881171 
L 130.823848 165.677268 
L 130.905032 189.27922 
L 130.986216 248.284098 
L 131.0674 153.876293 
L 131.148584 189.27922 
L 131.229767 177.478244 
L 131.310951 206.980683 
L 131.392135 112.572878 
L 131.473319 224.682146 
L 131.554503 218.781659 
L 131.635687 106.67239 
L 131.716871 189.27922 
L 131.798055 130.274341 
L 132.041607 189.27922 
L 132.203975 183.378732 
L 132.285159 189.27922 
L 132.366342 177.478244 
L 132.447526 206.980683 
L 132.52871 147.975805 
L 132.609894 159.77678 
L 132.772262 171.577756 
L 132.853446 201.080195 
L 133.096998 177.478244 
L 133.178182 212.881171 
L 133.34055 159.77678 
L 133.502918 254.184585 
L 133.584101 236.483122 
L 133.665285 242.38361 
L 133.746469 218.781659 
L 133.827653 159.77678 
L 133.908837 177.478244 
L 133.990021 147.975805 
L 134.152389 248.284098 
L 134.233573 136.174829 
L 134.395941 218.781659 
L 134.477125 189.27922 
L 134.558309 206.980683 
L 134.639493 201.080195 
L 134.883044 224.682146 
L 135.126596 153.876293 
L 135.20778 248.284098 
L 135.370148 183.378732 
L 135.451332 224.682146 
L 135.532516 212.881171 
L 135.6137 136.174829 
L 135.857252 206.980683 
L 135.938436 177.478244 
L 136.019619 195.179707 
L 136.100803 183.378732 
L 136.344355 260.085073 
L 136.425539 195.179707 
L 136.506723 201.080195 
L 136.587907 201.080195 
L 136.750275 212.881171 
L 136.831459 112.572878 
L 136.912643 147.975805 
L 137.075011 183.378732 
L 137.156195 130.274341 
L 137.237378 248.284098 
L 137.399746 136.174829 
L 137.48093 206.980683 
L 137.562114 195.179707 
L 137.643298 201.080195 
L 137.724482 142.075317 
L 137.805666 248.284098 
L 137.88685 230.582634 
L 138.049218 147.975805 
L 138.211586 206.980683 
L 138.29277 147.975805 
L 138.455137 201.080195 
L 138.536321 230.582634 
L 138.617505 206.980683 
L 138.698689 248.284098 
L 138.942241 147.975805 
L 139.023425 118.473366 
L 139.104609 165.677268 
L 139.185793 159.77678 
L 139.266977 165.677268 
L 139.348161 201.080195 
L 139.510529 165.677268 
L 139.591712 265.985561 
L 139.672896 171.577756 
L 139.75408 212.881171 
L 139.916448 124.373854 
L 139.997632 206.980683 
L 140.078816 195.179707 
L 140.322368 100.771902 
L 140.484736 177.478244 
L 140.56592 177.478244 
L 140.647104 218.781659 
L 140.728288 171.577756 
L 140.809471 201.080195 
L 140.971839 106.67239 
L 141.134207 206.980683 
L 141.215391 165.677268 
L 141.296575 189.27922 
L 141.377759 165.677268 
L 141.458943 212.881171 
L 141.540127 206.980683 
L 141.621311 201.080195 
L 141.702495 236.483122 
L 141.783679 224.682146 
L 141.864863 218.781659 
L 142.02723 147.975805 
L 142.108414 242.38361 
L 142.189598 124.373854 
L 142.270782 165.677268 
L 142.351966 100.771902 
L 142.43315 195.179707 
L 142.514334 165.677268 
L 142.595518 201.080195 
L 142.676702 177.478244 
L 142.757886 183.378732 
L 142.83907 218.781659 
L 142.920254 165.677268 
L 143.001438 189.27922 
L 143.082622 254.184585 
L 143.163805 171.577756 
L 143.326173 236.483122 
L 143.407357 159.77678 
L 143.488541 177.478244 
L 143.569725 171.577756 
L 143.650909 189.27922 
L 143.732093 159.77678 
L 143.813277 183.378732 
L 143.894461 165.677268 
L 143.975645 212.881171 
L 144.056829 159.77678 
L 144.138013 177.478244 
L 144.219197 224.682146 
L 144.381564 189.27922 
L 144.543932 224.682146 
L 144.625116 147.975805 
L 144.7063 218.781659 
L 144.787484 189.27922 
L 144.949852 206.980683 
L 145.11222 206.980683 
L 145.193404 201.080195 
L 145.274588 165.677268 
L 145.599323 271.886049 
L 145.761691 171.577756 
L 145.842875 177.478244 
L 145.924059 206.980683 
L 146.005243 183.378732 
L 146.086427 212.881171 
L 146.167611 201.080195 
L 146.329979 153.876293 
L 146.411163 224.682146 
L 146.492347 177.478244 
L 146.573531 236.483122 
L 146.735899 118.473366 
L 146.97945 201.080195 
L 147.141818 159.77678 
L 147.304186 201.080195 
L 147.38537 183.378732 
L 147.466554 218.781659 
L 147.628922 183.378732 
L 147.710106 106.67239 
L 147.79129 189.27922 
L 147.872474 142.075317 
L 148.034841 224.682146 
L 148.116025 165.677268 
L 148.278393 218.781659 
L 148.440761 159.77678 
L 148.521945 153.876293 
L 148.684313 224.682146 
L 148.765497 212.881171 
L 149.009049 136.174829 
L 149.090233 195.179707 
L 149.171416 124.373854 
L 149.2526 248.284098 
L 149.333784 177.478244 
L 149.414968 195.179707 
L 149.496152 183.378732 
L 149.577336 218.781659 
L 149.65852 136.174829 
L 149.739704 218.781659 
L 149.820888 206.980683 
L 149.902072 171.577756 
L 149.983256 242.38361 
L 150.145624 177.478244 
L 150.226808 224.682146 
L 150.307992 177.478244 
L 150.470359 201.080195 
L 150.551543 189.27922 
L 150.632727 212.881171 
L 150.713911 206.980683 
L 150.795095 130.274341 
L 150.957463 230.582634 
L 151.038647 118.473366 
L 151.119831 130.274341 
L 151.201015 236.483122 
L 151.363383 159.77678 
L 151.444567 206.980683 
L 151.525751 177.478244 
L 151.606934 242.38361 
L 151.688118 159.77678 
L 151.769302 183.378732 
L 151.850486 212.881171 
L 151.93167 195.179707 
L 152.012854 130.274341 
L 152.094038 254.184585 
L 152.256406 206.980683 
L 152.418774 218.781659 
L 152.499958 212.881171 
L 152.581142 136.174829 
L 152.662326 189.27922 
L 152.74351 183.378732 
L 152.824693 177.478244 
L 152.905877 136.174829 
L 153.068245 242.38361 
L 153.149429 236.483122 
L 153.230613 206.980683 
L 153.311797 236.483122 
L 153.474165 130.274341 
L 153.636533 206.980683 
L 153.717717 165.677268 
L 153.798901 218.781659 
L 153.880085 183.378732 
L 153.961268 212.881171 
L 154.286004 159.77678 
L 154.448372 183.378732 
L 154.61074 142.075317 
L 154.691924 201.080195 
L 154.773108 195.179707 
L 154.854292 136.174829 
L 154.935476 147.975805 
L 155.01666 142.075317 
L 155.097844 224.682146 
L 155.179027 159.77678 
L 155.260211 224.682146 
L 155.341395 183.378732 
L 155.422579 189.27922 
L 155.503763 189.27922 
L 155.584947 159.77678 
L 155.747315 212.881171 
L 155.909683 183.378732 
L 155.990867 212.881171 
L 156.153235 165.677268 
L 156.234419 212.881171 
L 156.396786 142.075317 
L 156.559154 177.478244 
L 156.640338 177.478244 
L 156.721522 147.975805 
L 156.802706 218.781659 
L 156.88389 206.980683 
L 156.965074 136.174829 
L 157.046258 153.876293 
L 157.208626 242.38361 
L 157.452178 189.27922 
L 157.533362 195.179707 
L 157.695729 147.975805 
L 157.858097 189.27922 
L 158.020465 159.77678 
L 158.101649 230.582634 
L 158.182833 171.577756 
L 158.345201 218.781659 
L 158.507569 183.378732 
L 158.588753 218.781659 
L 158.669937 206.980683 
L 158.751121 177.478244 
L 158.913488 248.284098 
L 158.994672 236.483122 
L 159.075856 159.77678 
L 159.15704 218.781659 
L 159.319408 189.27922 
L 159.481776 159.77678 
L 159.56296 212.881171 
L 159.644144 171.577756 
L 159.725328 212.881171 
L 159.806512 195.179707 
L 159.968879 218.781659 
L 160.050063 171.577756 
L 160.131247 195.179707 
L 160.212431 153.876293 
L 160.293615 289.587512 
L 160.455983 165.677268 
L 160.537167 159.77678 
L 160.618351 201.080195 
L 160.699535 183.378732 
L 160.780719 248.284098 
L 160.861903 130.274341 
L 160.943087 147.975805 
L 161.024271 206.980683 
L 161.105455 177.478244 
L 161.267822 271.886049 
L 161.349006 153.876293 
L 161.43019 189.27922 
L 161.511374 189.27922 
L 161.592558 206.980683 
L 161.754926 147.975805 
L 161.917294 206.980683 
L 161.998478 159.77678 
L 162.079662 218.781659 
L 162.24203 165.677268 
L 162.323214 159.77678 
L 162.485581 195.179707 
L 162.566765 171.577756 
L 162.647949 236.483122 
L 162.891501 118.473366 
L 163.135053 230.582634 
L 163.216237 147.975805 
L 163.297421 206.980683 
L 163.378605 177.478244 
L 163.459789 195.179707 
L 163.540973 171.577756 
L 163.622156 212.881171 
L 163.70334 195.179707 
L 163.784524 277.786537 
L 163.865708 159.77678 
L 163.946892 183.378732 
L 164.028076 206.980683 
L 164.10926 177.478244 
L 164.271628 230.582634 
L 164.352812 230.582634 
L 164.433996 254.184585 
L 164.51518 118.473366 
L 164.596364 289.587512 
L 164.677548 136.174829 
L 164.758732 189.27922 
L 164.839915 177.478244 
L 165.002283 224.682146 
L 165.164651 189.27922 
L 165.245835 201.080195 
L 165.327019 177.478244 
L 165.408203 201.080195 
L 165.570571 77.169951 
L 165.651755 206.980683 
L 165.732939 177.478244 
L 165.814123 218.781659 
L 165.97649 130.274341 
L 166.057674 224.682146 
L 166.138858 195.179707 
L 166.220042 201.080195 
L 166.301226 189.27922 
L 166.38241 195.179707 
L 166.544778 130.274341 
L 166.625962 248.284098 
L 166.78833 147.975805 
L 166.869514 206.980683 
L 166.950698 159.77678 
L 167.031882 165.677268 
L 167.113066 165.677268 
L 167.194249 136.174829 
L 167.275433 159.77678 
L 167.356617 218.781659 
L 167.518985 142.075317 
L 167.600169 153.876293 
L 167.681353 142.075317 
L 167.762537 189.27922 
L 167.843721 177.478244 
L 167.924905 206.980683 
L 168.006089 171.577756 
L 168.087273 230.582634 
L 168.168457 142.075317 
L 168.249641 153.876293 
L 168.412008 242.38361 
L 168.493192 189.27922 
L 168.574376 195.179707 
L 168.65556 189.27922 
L 168.736744 171.577756 
L 168.817928 201.080195 
L 168.899112 189.27922 
L 169.06148 230.582634 
L 169.223848 153.876293 
L 169.4674 242.38361 
L 169.548584 224.682146 
L 169.629767 142.075317 
L 169.710951 236.483122 
L 169.792135 171.577756 
L 169.954503 212.881171 
L 170.035687 147.975805 
L 170.116871 224.682146 
L 170.279239 136.174829 
L 170.360423 236.483122 
L 170.522791 106.67239 
L 170.603975 218.781659 
L 170.685159 201.080195 
L 170.766342 201.080195 
L 170.847526 224.682146 
L 171.009894 165.677268 
L 171.091078 248.284098 
L 171.172262 212.881171 
L 171.253446 230.582634 
L 171.415814 159.77678 
L 171.496998 218.781659 
L 171.578182 212.881171 
L 171.659366 230.582634 
L 171.74055 165.677268 
L 171.821734 254.184585 
L 171.984101 130.274341 
L 172.227653 218.781659 
L 172.471205 147.975805 
L 172.633573 206.980683 
L 172.714757 171.577756 
L 172.958309 236.483122 
L 173.120677 206.980683 
L 173.20186 236.483122 
L 173.364228 159.77678 
L 173.526596 236.483122 
L 173.60778 165.677268 
L 173.688964 171.577756 
L 173.770148 195.179707 
L 173.851332 159.77678 
L 173.932516 189.27922 
L 174.0137 177.478244 
L 174.094884 183.378732 
L 174.176068 147.975805 
L 174.257252 201.080195 
L 174.338436 189.27922 
L 174.419619 206.980683 
L 174.500803 153.876293 
L 174.663171 212.881171 
L 174.744355 118.473366 
L 174.906723 201.080195 
L 174.987907 147.975805 
L 175.231459 236.483122 
L 175.312643 118.473366 
L 175.475011 277.786537 
L 175.718562 124.373854 
L 175.799746 206.980683 
L 175.88093 165.677268 
L 176.043298 254.184585 
L 176.205666 165.677268 
L 176.28685 153.876293 
L 176.368034 218.781659 
L 176.449218 212.881171 
L 176.611586 195.179707 
L 176.69277 212.881171 
L 176.773953 159.77678 
L 176.855137 165.677268 
L 176.936321 171.577756 
L 177.098689 230.582634 
L 177.261057 153.876293 
L 177.342241 230.582634 
L 177.423425 201.080195 
L 177.504609 206.980683 
L 177.585793 224.682146 
L 177.748161 136.174829 
L 177.829345 212.881171 
L 177.910529 189.27922 
L 178.072896 177.478244 
L 178.15408 130.274341 
L 178.235264 177.478244 
L 178.316448 124.373854 
L 178.397632 142.075317 
L 178.641184 230.582634 
L 178.722368 218.781659 
L 178.803552 165.677268 
L 178.884736 212.881171 
L 178.96592 189.27922 
L 179.128288 248.284098 
L 179.209471 242.38361 
L 179.371839 159.77678 
L 179.453023 230.582634 
L 179.534207 212.881171 
L 179.615391 201.080195 
L 179.696575 130.274341 
L 179.777759 153.876293 
L 179.858943 142.075317 
L 179.940127 206.980683 
L 180.021311 189.27922 
L 180.102495 177.478244 
L 180.183679 230.582634 
L 180.264863 165.677268 
L 180.346047 254.184585 
L 180.508414 136.174829 
L 180.751966 195.179707 
L 180.83315 183.378732 
L 180.995518 260.085073 
L 181.157886 159.77678 
L 181.23907 254.184585 
L 181.320254 189.27922 
L 181.401438 212.881171 
L 181.563805 189.27922 
L 181.644989 206.980683 
L 181.807357 112.572878 
L 181.969725 183.378732 
L 182.050909 189.27922 
L 182.132093 165.677268 
L 182.294461 212.881171 
L 182.456829 177.478244 
L 182.538013 177.478244 
L 182.619197 248.284098 
L 182.700381 183.378732 
L 182.781564 260.085073 
L 182.943932 183.378732 
L 183.025116 189.27922 
L 183.1063 171.577756 
L 183.187484 124.373854 
L 183.268668 224.682146 
L 183.349852 159.77678 
L 183.51222 206.980683 
L 183.593404 159.77678 
L 183.674588 177.478244 
L 183.836956 242.38361 
L 183.91814 201.080195 
L 183.999323 236.483122 
L 184.080507 136.174829 
L 184.161691 201.080195 
L 184.242875 183.378732 
L 184.405243 165.677268 
L 184.567611 248.284098 
L 184.648795 165.677268 
L 184.729979 171.577756 
L 184.811163 218.781659 
L 184.892347 171.577756 
L 185.054715 230.582634 
L 185.135899 165.677268 
L 185.217082 171.577756 
L 185.298266 206.980683 
L 185.37945 177.478244 
L 185.460634 201.080195 
L 185.541818 147.975805 
L 185.623002 260.085073 
L 185.78537 189.27922 
L 185.866554 189.27922 
L 185.947738 165.677268 
L 186.028922 212.881171 
L 186.110106 189.27922 
L 186.19129 236.483122 
L 186.272474 159.77678 
L 186.353658 218.781659 
L 186.434841 195.179707 
L 186.516025 206.980683 
L 186.597209 254.184585 
L 186.759577 177.478244 
L 186.840761 224.682146 
L 186.921945 212.881171 
L 187.003129 171.577756 
L 187.084313 248.284098 
L 187.165497 236.483122 
L 187.327865 147.975805 
L 187.409049 201.080195 
L 187.490233 195.179707 
L 187.571416 171.577756 
L 187.6526 177.478244 
L 187.814968 236.483122 
L 187.896152 195.179707 
L 187.977336 248.284098 
L 188.05852 165.677268 
L 188.139704 206.980683 
L 188.220888 201.080195 
L 188.302072 195.179707 
L 188.46444 236.483122 
L 188.545624 224.682146 
L 188.626808 230.582634 
L 188.707992 189.27922 
L 188.789175 218.781659 
L 188.870359 136.174829 
L 188.951543 171.577756 
L 189.032727 153.876293 
L 189.195095 242.38361 
L 189.276279 183.378732 
L 189.357463 230.582634 
L 189.519831 159.77678 
L 189.601015 183.378732 
L 189.682199 159.77678 
L 189.763383 248.284098 
L 189.925751 130.274341 
L 190.006934 230.582634 
L 190.088118 153.876293 
L 190.169302 224.682146 
L 190.250486 159.77678 
L 190.33167 242.38361 
L 190.412854 201.080195 
L 190.494038 224.682146 
L 190.575222 195.179707 
L 190.656406 254.184585 
L 190.899958 124.373854 
L 190.981142 189.27922 
L 191.062326 171.577756 
L 191.14351 212.881171 
L 191.305877 118.473366 
L 191.468245 195.179707 
L 191.549429 124.373854 
L 191.792981 195.179707 
L 191.874165 201.080195 
L 191.955349 218.781659 
L 192.036533 136.174829 
L 192.117717 265.985561 
L 192.198901 224.682146 
L 192.280085 218.781659 
L 192.361268 153.876293 
L 192.442452 212.881171 
L 192.523636 153.876293 
L 192.686004 195.179707 
L 192.767188 147.975805 
L 192.848372 165.677268 
L 192.929556 242.38361 
L 193.091924 130.274341 
L 193.173108 224.682146 
L 193.254292 142.075317 
L 193.335476 153.876293 
L 193.41666 142.075317 
L 193.660211 218.781659 
L 193.741395 177.478244 
L 193.822579 230.582634 
L 193.903763 112.572878 
L 193.984947 218.781659 
L 194.066131 201.080195 
L 194.147315 159.77678 
L 194.228499 171.577756 
L 194.309683 236.483122 
L 194.390867 130.274341 
L 194.472051 177.478244 
L 194.553235 153.876293 
L 194.634419 165.677268 
L 194.87797 224.682146 
L 195.040338 171.577756 
L 195.121522 248.284098 
L 195.202706 177.478244 
L 195.365074 236.483122 
L 195.446258 136.174829 
L 195.608626 260.085073 
L 195.770994 165.677268 
L 195.852178 171.577756 
L 195.933362 224.682146 
L 196.014545 171.577756 
L 196.095729 183.378732 
L 196.176913 254.184585 
L 196.339281 177.478244 
L 196.420465 165.677268 
L 196.501649 189.27922 
L 196.582833 112.572878 
L 196.826385 230.582634 
L 196.907569 195.179707 
L 196.988753 242.38361 
L 197.069937 136.174829 
L 197.151121 224.682146 
L 197.232304 183.378732 
L 197.313488 224.682146 
L 197.394672 159.77678 
L 197.475856 171.577756 
L 197.55704 206.980683 
L 197.638224 153.876293 
L 197.800592 206.980683 
L 197.881776 183.378732 
L 197.96296 230.582634 
L 198.287696 165.677268 
L 198.368879 265.985561 
L 198.450063 254.184585 
L 198.531247 248.284098 
L 198.612431 130.274341 
L 198.774799 254.184585 
L 198.937167 183.378732 
L 199.099535 206.980683 
L 199.180719 212.881171 
L 199.261903 177.478244 
L 199.343087 189.27922 
L 199.424271 177.478244 
L 199.505455 206.980683 
L 199.586638 165.677268 
L 199.667822 189.27922 
L 199.749006 171.577756 
L 199.83019 248.284098 
L 199.911374 189.27922 
L 199.992558 242.38361 
L 200.073742 189.27922 
L 200.154926 201.080195 
L 200.23611 224.682146 
L 200.398478 171.577756 
L 200.560846 254.184585 
L 200.64203 136.174829 
L 200.804397 189.27922 
L 201.047949 218.781659 
L 201.129133 201.080195 
L 201.210317 230.582634 
L 201.372685 142.075317 
L 201.453869 201.080195 
L 201.535053 159.77678 
L 201.616237 218.781659 
L 201.697421 159.77678 
L 201.778605 212.881171 
L 201.859789 159.77678 
L 201.940973 171.577756 
L 202.10334 183.378732 
L 202.184524 254.184585 
L 202.265708 142.075317 
L 202.346892 195.179707 
L 202.50926 106.67239 
L 202.671628 201.080195 
L 202.752812 153.876293 
L 203.077548 218.781659 
L 203.158732 201.080195 
L 203.239915 212.881171 
L 203.321099 265.985561 
L 203.483467 201.080195 
L 203.564651 218.781659 
L 203.727019 147.975805 
L 203.889387 218.781659 
L 203.970571 212.881171 
L 204.051755 177.478244 
L 204.132939 254.184585 
L 204.214123 171.577756 
L 204.295307 236.483122 
L 204.620042 142.075317 
L 204.78241 212.881171 
L 204.863594 183.378732 
L 205.025962 218.781659 
L 205.107146 206.980683 
L 205.18833 283.687024 
L 205.350698 153.876293 
L 205.594249 212.881171 
L 205.756617 248.284098 
L 205.837801 94.871415 
L 205.918985 206.980683 
L 206.000169 189.27922 
L 206.081353 195.179707 
L 206.162537 153.876293 
L 206.243721 242.38361 
L 206.324905 147.975805 
L 206.406089 189.27922 
L 206.568457 159.77678 
L 206.649641 212.881171 
L 206.730825 159.77678 
L 206.893192 206.980683 
L 206.974376 183.378732 
L 207.05556 230.582634 
L 207.217928 183.378732 
L 207.299112 147.975805 
L 207.380296 242.38361 
L 207.542664 177.478244 
L 207.705032 212.881171 
L 207.786216 189.27922 
L 207.8674 112.572878 
L 207.948584 201.080195 
L 208.029767 165.677268 
L 208.110951 201.080195 
L 208.192135 112.572878 
L 208.354503 224.682146 
L 208.435687 159.77678 
L 208.516871 195.179707 
L 208.598055 183.378732 
L 208.679239 183.378732 
L 208.760423 165.677268 
L 208.841607 206.980683 
L 208.922791 171.577756 
L 209.003975 218.781659 
L 209.085159 147.975805 
L 209.166342 195.179707 
L 209.247526 189.27922 
L 209.409894 136.174829 
L 209.572262 201.080195 
L 209.653446 136.174829 
L 209.73463 236.483122 
L 209.815814 177.478244 
L 209.896998 195.179707 
L 209.978182 183.378732 
L 210.14055 248.284098 
L 210.221734 183.378732 
L 210.384101 265.985561 
L 210.546469 195.179707 
L 210.627653 218.781659 
L 210.790021 142.075317 
L 210.871205 189.27922 
L 210.952389 165.677268 
L 211.114757 189.27922 
L 211.195941 171.577756 
L 211.277125 218.781659 
L 211.358309 159.77678 
L 211.439493 230.582634 
L 211.60186 136.174829 
L 211.764228 201.080195 
L 211.926596 159.77678 
L 212.00778 171.577756 
L 212.251332 230.582634 
L 212.332516 171.577756 
L 212.4137 189.27922 
L 212.494884 236.483122 
L 212.738436 177.478244 
L 212.900803 236.483122 
L 212.981987 230.582634 
L 213.063171 153.876293 
L 213.225539 224.682146 
L 213.306723 212.881171 
L 213.387907 218.781659 
L 213.631459 159.77678 
L 213.793827 218.781659 
L 214.037378 171.577756 
L 214.118562 189.27922 
L 214.199746 177.478244 
L 214.28093 236.483122 
L 214.443298 136.174829 
L 214.524482 224.682146 
L 214.605666 171.577756 
L 214.68685 212.881171 
L 214.768034 201.080195 
L 214.930402 177.478244 
L 215.011586 230.582634 
L 215.255137 171.577756 
L 215.336321 212.881171 
L 215.417505 142.075317 
L 215.498689 201.080195 
L 215.742241 142.075317 
L 215.823425 201.080195 
L 215.904609 183.378732 
L 215.985793 130.274341 
L 216.066977 136.174829 
L 216.148161 206.980683 
L 216.229345 183.378732 
L 216.310529 236.483122 
L 216.391712 171.577756 
L 216.472896 189.27922 
L 216.55408 236.483122 
L 216.635264 171.577756 
L 216.716448 230.582634 
L 216.878816 136.174829 
L 217.041184 189.27922 
L 217.122368 165.677268 
L 217.203552 77.169951 
L 217.284736 201.080195 
L 217.36592 171.577756 
L 217.447104 171.577756 
L 217.528288 195.179707 
L 217.690655 177.478244 
L 217.771839 206.980683 
L 217.853023 171.577756 
L 217.934207 212.881171 
L 218.015391 183.378732 
L 218.096575 206.980683 
L 218.177759 183.378732 
L 218.258943 236.483122 
L 218.340127 165.677268 
L 218.421311 218.781659 
L 218.502495 201.080195 
L 218.583679 171.577756 
L 218.664863 177.478244 
L 218.746047 165.677268 
L 218.82723 218.781659 
L 218.989598 124.373854 
L 219.070782 230.582634 
L 219.151966 142.075317 
L 219.23315 218.781659 
L 219.476702 106.67239 
L 219.557886 201.080195 
L 219.63907 195.179707 
L 219.720254 236.483122 
L 219.801438 159.77678 
L 219.882622 183.378732 
L 219.963805 177.478244 
L 220.044989 183.378732 
L 220.126173 201.080195 
L 220.207357 189.27922 
L 220.288541 159.77678 
L 220.369725 236.483122 
L 220.450909 218.781659 
L 220.532093 189.27922 
L 220.613277 195.179707 
L 220.694461 265.985561 
L 220.856829 171.577756 
L 221.019197 224.682146 
L 221.100381 124.373854 
L 221.262748 224.682146 
L 221.343932 171.577756 
L 221.5063 212.881171 
L 221.587484 189.27922 
L 221.668668 195.179707 
L 221.749852 212.881171 
L 221.831036 206.980683 
L 221.91222 183.378732 
L 221.993404 254.184585 
L 222.155772 147.975805 
L 222.236956 124.373854 
L 222.480507 271.886049 
L 222.642875 142.075317 
L 222.724059 206.980683 
L 222.805243 142.075317 
L 222.886427 230.582634 
L 223.048795 136.174829 
L 223.129979 189.27922 
L 223.211163 100.771902 
L 223.454715 236.483122 
L 223.617082 136.174829 
L 223.698266 201.080195 
L 223.77945 177.478244 
L 223.860634 165.677268 
L 223.941818 218.781659 
L 224.023002 177.478244 
L 224.18537 224.682146 
L 224.266554 147.975805 
L 224.428922 206.980683 
L 224.510106 195.179707 
L 224.672474 147.975805 
L 224.753658 165.677268 
L 224.834841 147.975805 
L 224.916025 212.881171 
L 224.997209 206.980683 
L 225.078393 183.378732 
L 225.159577 218.781659 
L 225.321945 171.577756 
L 225.403129 189.27922 
L 225.484313 124.373854 
L 225.565497 218.781659 
L 225.646681 124.373854 
L 225.727865 147.975805 
L 225.809049 189.27922 
L 225.971416 147.975805 
L 226.0526 153.876293 
L 226.133784 189.27922 
L 226.214968 183.378732 
L 226.377336 165.677268 
L 226.620888 201.080195 
L 226.702072 195.179707 
L 226.783256 212.881171 
L 226.86444 206.980683 
L 226.945624 189.27922 
L 227.026808 254.184585 
L 227.107992 230.582634 
L 227.189175 183.378732 
L 227.270359 189.27922 
L 227.351543 183.378732 
L 227.595095 118.473366 
L 227.757463 218.781659 
L 227.838647 206.980683 
L 227.919831 142.075317 
L 228.001015 201.080195 
L 228.082199 183.378732 
L 228.163383 195.179707 
L 228.244567 189.27922 
L 228.325751 201.080195 
L 228.406934 183.378732 
L 228.488118 224.682146 
L 228.569302 147.975805 
L 228.650486 254.184585 
L 228.812854 153.876293 
L 228.894038 142.075317 
L 228.975222 218.781659 
L 229.056406 153.876293 
L 229.13759 159.77678 
L 229.299958 112.572878 
L 229.54351 218.781659 
L 229.624693 230.582634 
L 229.787061 177.478244 
L 229.868245 242.38361 
L 229.949429 236.483122 
L 230.030613 165.677268 
L 230.192981 224.682146 
L 230.274165 177.478244 
L 230.355349 201.080195 
L 230.517717 183.378732 
L 230.598901 230.582634 
L 230.680085 171.577756 
L 230.761268 230.582634 
L 230.923636 159.77678 
L 231.00482 189.27922 
L 231.086004 171.577756 
L 231.248372 212.881171 
L 231.329556 159.77678 
L 231.41074 206.980683 
L 231.491924 165.677268 
L 231.573108 201.080195 
L 231.654292 136.174829 
L 231.735476 212.881171 
L 231.81666 189.27922 
L 231.897844 177.478244 
L 232.060211 242.38361 
L 232.141395 153.876293 
L 232.222579 177.478244 
L 232.303763 142.075317 
L 232.384947 206.980683 
L 232.466131 177.478244 
L 232.547315 195.179707 
L 232.709683 171.577756 
L 232.790867 165.677268 
L 232.872051 218.781659 
L 232.953235 153.876293 
L 233.034419 218.781659 
L 233.115603 147.975805 
L 233.196786 165.677268 
L 233.359154 171.577756 
L 233.440338 206.980683 
L 233.521522 165.677268 
L 233.68389 224.682146 
L 233.765074 159.77678 
L 233.846258 201.080195 
L 233.927442 159.77678 
L 234.008626 224.682146 
L 234.08981 130.274341 
L 234.252178 248.284098 
L 234.414545 165.677268 
L 234.495729 218.781659 
L 234.576913 212.881171 
L 234.658097 212.881171 
L 234.739281 177.478244 
L 234.820465 183.378732 
L 234.901649 201.080195 
L 234.982833 142.075317 
L 235.064017 212.881171 
L 235.145201 165.677268 
L 235.226385 242.38361 
L 235.307569 201.080195 
L 235.388753 218.781659 
L 235.469937 177.478244 
L 235.632304 206.980683 
L 235.713488 130.274341 
L 235.95704 260.085073 
L 236.119408 201.080195 
L 236.200592 171.577756 
L 236.444144 206.980683 
L 236.525328 236.483122 
L 236.687696 153.876293 
L 236.768879 189.27922 
L 236.850063 165.677268 
L 237.012431 201.080195 
L 237.093615 165.677268 
L 237.174799 177.478244 
L 237.255983 212.881171 
L 237.337167 171.577756 
L 237.418351 236.483122 
L 237.499535 183.378732 
L 237.661903 236.483122 
L 237.743087 165.677268 
L 237.824271 201.080195 
L 237.905455 195.179707 
L 237.986638 195.179707 
L 238.067822 206.980683 
L 238.149006 171.577756 
L 238.23019 206.980683 
L 238.311374 165.677268 
L 238.392558 218.781659 
L 238.473742 124.373854 
L 238.63611 206.980683 
L 238.717294 159.77678 
L 238.798478 230.582634 
L 238.960846 183.378732 
L 239.04203 212.881171 
L 239.123214 165.677268 
L 239.204397 248.284098 
L 239.366765 165.677268 
L 239.447949 236.483122 
L 239.529133 147.975805 
L 239.691501 230.582634 
L 239.772685 118.473366 
L 239.935053 236.483122 
L 240.016237 224.682146 
L 240.097421 183.378732 
L 240.259789 201.080195 
L 240.340973 183.378732 
L 240.422156 189.27922 
L 240.665708 218.781659 
L 240.746892 230.582634 
L 240.90926 189.27922 
L 241.071628 206.980683 
L 241.152812 201.080195 
L 241.233996 230.582634 
L 241.396364 177.478244 
L 241.477548 224.682146 
L 241.558732 212.881171 
L 241.639915 171.577756 
L 241.721099 195.179707 
L 241.802283 147.975805 
L 241.883467 159.77678 
L 242.127019 236.483122 
L 242.208203 130.274341 
L 242.289387 189.27922 
L 242.451755 136.174829 
L 242.532939 260.085073 
L 242.614123 218.781659 
L 242.695307 147.975805 
L 242.77649 218.781659 
L 242.857674 206.980683 
L 242.938858 206.980683 
L 243.020042 195.179707 
L 243.18241 218.781659 
L 243.344778 165.677268 
L 243.507146 230.582634 
L 243.58833 230.582634 
L 243.669514 224.682146 
L 243.831882 171.577756 
L 243.913066 165.677268 
L 243.994249 230.582634 
L 244.156617 177.478244 
L 244.237801 260.085073 
L 244.318985 195.179707 
L 244.400169 206.980683 
L 244.481353 165.677268 
L 244.562537 236.483122 
L 244.643721 224.682146 
L 244.724905 206.980683 
L 244.806089 260.085073 
L 244.968457 177.478244 
L 245.049641 218.781659 
L 245.130825 142.075317 
L 245.293192 218.781659 
L 245.45556 142.075317 
L 245.536744 236.483122 
L 245.617928 165.677268 
L 245.699112 177.478244 
L 245.86148 153.876293 
L 245.942664 212.881171 
L 246.023848 201.080195 
L 246.105032 201.080195 
L 246.186216 118.473366 
L 246.2674 230.582634 
L 246.429767 118.473366 
L 246.592135 230.582634 
L 246.754503 147.975805 
L 246.835687 171.577756 
L 246.998055 254.184585 
L 247.160423 165.677268 
L 247.241607 189.27922 
L 247.322791 183.378732 
L 247.403975 183.378732 
L 247.485159 189.27922 
L 247.566342 159.77678 
L 247.647526 195.179707 
L 247.72871 171.577756 
L 247.809894 183.378732 
L 247.891078 224.682146 
L 247.972262 159.77678 
L 248.053446 201.080195 
L 248.13463 142.075317 
L 248.215814 177.478244 
L 248.296998 165.677268 
L 248.378182 189.27922 
L 248.459366 248.284098 
L 248.54055 147.975805 
L 248.621734 195.179707 
L 248.702918 177.478244 
L 248.784101 201.080195 
L 248.865285 106.67239 
L 249.027653 224.682146 
L 249.108837 165.677268 
L 249.271205 212.881171 
L 249.352389 189.27922 
L 249.433573 242.38361 
L 249.514757 153.876293 
L 249.595941 165.677268 
L 249.758309 236.483122 
L 249.839493 165.677268 
L 249.920677 189.27922 
L 250.00186 177.478244 
L 250.164228 218.781659 
L 250.245412 212.881171 
L 250.40778 130.274341 
L 250.488964 183.378732 
L 250.570148 142.075317 
L 250.651332 171.577756 
L 250.732516 153.876293 
L 250.8137 224.682146 
L 250.894884 142.075317 
L 250.976068 212.881171 
L 251.057252 159.77678 
L 251.138436 206.980683 
L 251.219619 201.080195 
L 251.300803 177.478244 
L 251.463171 212.881171 
L 251.625539 130.274341 
L 251.706723 265.985561 
L 251.787907 153.876293 
L 251.869091 195.179707 
L 252.031459 218.781659 
L 252.112643 106.67239 
L 252.193827 201.080195 
L 252.275011 159.77678 
L 252.437378 189.27922 
L 252.518562 195.179707 
L 252.599746 171.577756 
L 252.68093 212.881171 
L 252.762114 159.77678 
L 252.924482 230.582634 
L 253.08685 195.179707 
L 253.249218 189.27922 
L 253.330402 195.179707 
L 253.411586 189.27922 
L 253.49277 201.080195 
L 253.573953 153.876293 
L 253.736321 218.781659 
L 253.817505 171.577756 
L 253.898689 242.38361 
L 253.979873 189.27922 
L 254.061057 201.080195 
L 254.142241 230.582634 
L 254.304609 136.174829 
L 254.385793 206.980683 
L 254.466977 183.378732 
L 254.629345 159.77678 
L 254.710529 189.27922 
L 254.791712 260.085073 
L 254.872896 183.378732 
L 254.95408 283.687024 
L 255.035264 189.27922 
L 255.116448 206.980683 
L 255.197632 171.577756 
L 255.278816 206.980683 
L 255.36 171.577756 
L 255.522368 218.781659 
L 255.603552 206.980683 
L 255.684736 159.77678 
L 255.847104 195.179707 
L 256.090655 183.378732 
L 256.171839 230.582634 
L 256.253023 165.677268 
L 256.415391 224.682146 
L 256.496575 177.478244 
L 256.577759 189.27922 
L 256.658943 195.179707 
L 256.740127 224.682146 
L 256.821311 171.577756 
L 256.902495 206.980683 
L 257.146047 136.174829 
L 257.22723 206.980683 
L 257.308414 189.27922 
L 257.389598 136.174829 
L 257.470782 218.781659 
L 257.551966 189.27922 
L 257.63315 153.876293 
L 257.714334 212.881171 
L 257.795518 189.27922 
L 257.957886 254.184585 
L 258.03907 153.876293 
L 258.120254 212.881171 
L 258.201438 206.980683 
L 258.363805 242.38361 
L 258.444989 230.582634 
L 258.607357 147.975805 
L 258.688541 153.876293 
L 258.769725 112.572878 
L 258.932093 242.38361 
L 259.013277 206.980683 
L 259.094461 224.682146 
L 259.256829 195.179707 
L 259.338013 201.080195 
L 259.419197 206.980683 
L 259.662748 118.473366 
L 259.743932 224.682146 
L 259.825116 147.975805 
L 259.9063 195.179707 
L 259.987484 153.876293 
L 260.149852 195.179707 
L 260.231036 189.27922 
L 260.31222 212.881171 
L 260.393404 147.975805 
L 260.474588 230.582634 
L 260.555772 201.080195 
L 260.636956 218.781659 
L 260.799323 112.572878 
L 260.961691 195.179707 
L 261.042875 212.881171 
L 261.124059 171.577756 
L 261.205243 277.786537 
L 261.286427 171.577756 
L 261.367611 212.881171 
L 261.448795 159.77678 
L 261.529979 177.478244 
L 261.611163 189.27922 
L 261.692347 159.77678 
L 261.854715 218.781659 
L 261.935899 159.77678 
L 262.098266 236.483122 
L 262.260634 183.378732 
L 262.423002 224.682146 
L 262.504186 159.77678 
L 262.666554 212.881171 
L 262.747738 195.179707 
L 262.828922 118.473366 
L 262.910106 230.582634 
L 262.99129 224.682146 
L 263.153658 124.373854 
L 263.234841 248.284098 
L 263.316025 142.075317 
L 263.397209 218.781659 
L 263.478393 212.881171 
L 263.640761 124.373854 
L 263.803129 206.980683 
L 263.884313 165.677268 
L 263.965497 206.980683 
L 264.127865 100.771902 
L 264.290233 218.781659 
L 264.371416 177.478244 
L 264.4526 230.582634 
L 264.614968 142.075317 
L 264.777336 195.179707 
L 264.85852 183.378732 
L 265.020888 260.085073 
L 265.102072 171.577756 
L 265.183256 277.786537 
L 265.345624 142.075317 
L 265.507992 195.179707 
L 265.589175 212.881171 
L 265.670359 130.274341 
L 265.913911 254.184585 
L 265.995095 147.975805 
L 266.076279 242.38361 
L 266.157463 206.980683 
L 266.319831 277.786537 
L 266.401015 171.577756 
L 266.482199 177.478244 
L 266.644567 147.975805 
L 266.725751 224.682146 
L 266.806934 218.781659 
L 266.888118 218.781659 
L 266.969302 271.886049 
L 267.050486 136.174829 
L 267.13167 159.77678 
L 267.294038 218.781659 
L 267.375222 124.373854 
L 267.456406 242.38361 
L 267.53759 224.682146 
L 267.618774 159.77678 
L 267.699958 236.483122 
L 267.781142 159.77678 
L 267.862326 171.577756 
L 268.105877 201.080195 
L 268.187061 195.179707 
L 268.268245 130.274341 
L 268.430613 236.483122 
L 268.755349 177.478244 
L 268.836533 201.080195 
L 268.917717 147.975805 
L 269.080085 230.582634 
L 269.161268 224.682146 
L 269.323636 201.080195 
L 269.486004 212.881171 
L 269.567188 159.77678 
L 269.729556 230.582634 
L 269.81074 147.975805 
L 269.891924 224.682146 
L 269.973108 142.075317 
L 270.054292 183.378732 
L 270.135476 177.478244 
L 270.297844 212.881171 
L 270.379027 206.980683 
L 270.460211 136.174829 
L 270.541395 189.27922 
L 270.622579 165.677268 
L 270.703763 177.478244 
L 270.784947 254.184585 
L 270.866131 165.677268 
L 270.947315 195.179707 
L 271.028499 212.881171 
L 271.109683 183.378732 
L 271.190867 212.881171 
L 271.353235 165.677268 
L 271.515603 212.881171 
L 271.596786 189.27922 
L 271.67797 201.080195 
L 271.759154 242.38361 
L 271.840338 224.682146 
L 272.002706 142.075317 
L 272.165074 189.27922 
L 272.246258 183.378732 
L 272.408626 130.274341 
L 272.48981 224.682146 
L 272.570994 201.080195 
L 272.652178 153.876293 
L 272.733362 201.080195 
L 272.814545 171.577756 
L 272.895729 177.478244 
L 272.976913 171.577756 
L 273.058097 242.38361 
L 273.139281 177.478244 
L 273.220465 212.881171 
L 273.382833 159.77678 
L 273.545201 236.483122 
L 273.626385 195.179707 
L 273.707569 206.980683 
L 273.788753 206.980683 
L 273.869937 189.27922 
L 274.032304 230.582634 
L 274.194672 189.27922 
L 274.275856 124.373854 
L 274.438224 242.38361 
L 274.519408 183.378732 
L 274.600592 189.27922 
L 274.681776 159.77678 
L 274.844144 248.284098 
L 274.925328 153.876293 
L 275.006512 183.378732 
L 275.087696 183.378732 
L 275.168879 230.582634 
L 275.412431 177.478244 
L 275.574799 195.179707 
L 275.655983 177.478244 
L 275.737167 230.582634 
L 275.818351 224.682146 
L 275.899535 130.274341 
L 275.980719 189.27922 
L 276.061903 177.478244 
L 276.143087 153.876293 
L 276.224271 201.080195 
L 276.386638 100.771902 
L 276.63019 218.781659 
L 276.711374 177.478244 
L 276.792558 277.786537 
L 276.873742 130.274341 
L 276.954926 159.77678 
L 277.198478 254.184585 
L 277.279662 142.075317 
L 277.360846 177.478244 
L 277.44203 230.582634 
L 277.523214 142.075317 
L 277.604397 224.682146 
L 277.685581 206.980683 
L 277.766765 183.378732 
L 277.847949 201.080195 
L 277.929133 189.27922 
L 278.010317 242.38361 
L 278.172685 195.179707 
L 278.253869 254.184585 
L 278.335053 189.27922 
L 278.416237 195.179707 
L 278.497421 206.980683 
L 278.578605 201.080195 
L 278.740973 177.478244 
L 278.90334 236.483122 
L 278.984524 171.577756 
L 279.065708 177.478244 
L 279.228076 248.284098 
L 279.390444 189.27922 
L 279.471628 224.682146 
L 279.552812 177.478244 
L 279.796364 218.781659 
L 279.877548 183.378732 
L 279.958732 206.980683 
L 280.039915 153.876293 
L 280.121099 165.677268 
L 280.202283 171.577756 
L 280.283467 153.876293 
L 280.364651 177.478244 
L 280.527019 136.174829 
L 280.689387 212.881171 
L 280.770571 177.478244 
L 281.014123 265.985561 
L 281.095307 248.284098 
L 281.338858 147.975805 
L 281.420042 183.378732 
L 281.501226 94.871415 
L 281.744778 224.682146 
L 281.825962 218.781659 
L 281.907146 230.582634 
L 281.98833 142.075317 
L 282.069514 206.980683 
L 282.150698 195.179707 
L 282.231882 212.881171 
L 282.313066 206.980683 
L 282.475433 212.881171 
L 282.556617 212.881171 
L 282.637801 177.478244 
L 282.718985 201.080195 
L 282.800169 177.478244 
L 282.962537 265.985561 
L 283.124905 142.075317 
L 283.206089 224.682146 
L 283.287273 177.478244 
L 283.368457 189.27922 
L 283.530825 130.274341 
L 283.693192 236.483122 
L 283.774376 189.27922 
L 283.85556 212.881171 
L 284.017928 153.876293 
L 284.099112 201.080195 
L 284.180296 171.577756 
L 284.423848 254.184585 
L 284.505032 189.27922 
L 284.6674 218.781659 
L 284.748584 171.577756 
L 284.829767 183.378732 
L 284.910951 212.881171 
L 284.992135 147.975805 
L 285.073319 224.682146 
L 285.154503 147.975805 
L 285.235687 224.682146 
L 285.398055 159.77678 
L 285.560423 177.478244 
L 285.641607 159.77678 
L 285.803975 230.582634 
L 285.885159 171.577756 
L 286.047526 236.483122 
L 286.12871 230.582634 
L 286.209894 183.378732 
L 286.372262 265.985561 
L 286.53463 147.975805 
L 286.696998 218.781659 
L 286.859366 147.975805 
L 287.021734 195.179707 
L 287.184101 183.378732 
L 287.265285 271.886049 
L 287.346469 165.677268 
L 287.508837 254.184585 
L 287.671205 171.577756 
L 287.752389 218.781659 
L 287.833573 171.577756 
L 287.914757 212.881171 
L 288.077125 165.677268 
L 288.158309 201.080195 
L 288.239493 142.075317 
L 288.40186 201.080195 
L 288.564228 147.975805 
L 288.645412 201.080195 
L 288.726596 195.179707 
L 288.80778 153.876293 
L 289.051332 218.781659 
L 289.294884 195.179707 
L 289.457252 177.478244 
L 289.538436 195.179707 
L 289.619619 165.677268 
L 289.700803 201.080195 
L 289.863171 159.77678 
L 290.106723 212.881171 
L 290.187907 177.478244 
L 290.269091 189.27922 
L 290.350275 189.27922 
L 290.431459 271.886049 
L 290.593827 142.075317 
L 290.675011 248.284098 
L 290.756195 124.373854 
L 290.837378 130.274341 
L 290.918562 153.876293 
L 290.999746 142.075317 
L 291.324482 218.781659 
L 291.48685 142.075317 
L 291.568034 189.27922 
L 291.649218 147.975805 
L 291.730402 195.179707 
L 291.811586 142.075317 
L 291.973953 248.284098 
L 292.055137 242.38361 
L 292.217505 260.085073 
L 292.298689 248.284098 
L 292.461057 147.975805 
L 292.542241 171.577756 
L 292.623425 130.274341 
L 292.704609 136.174829 
L 292.785793 195.179707 
L 292.866977 177.478244 
L 292.948161 230.582634 
L 293.191712 130.274341 
L 293.272896 159.77678 
L 293.435264 130.274341 
L 293.516448 218.781659 
L 293.597632 183.378732 
L 293.678816 242.38361 
L 293.76 206.980683 
L 293.841184 242.38361 
L 294.003552 171.577756 
L 294.084736 212.881171 
L 294.247104 171.577756 
L 294.328288 236.483122 
L 294.490655 124.373854 
L 294.571839 142.075317 
L 294.815391 218.781659 
L 294.977759 159.77678 
L 295.058943 195.179707 
L 295.221311 165.677268 
L 295.302495 147.975805 
L 295.464863 165.677268 
L 295.62723 183.378732 
L 295.708414 159.77678 
L 295.789598 212.881171 
L 295.870782 159.77678 
L 295.951966 177.478244 
L 296.03315 153.876293 
L 296.114334 159.77678 
L 296.195518 165.677268 
L 296.357886 206.980683 
L 296.43907 147.975805 
L 296.601438 224.682146 
L 296.682622 165.677268 
L 296.844989 189.27922 
L 296.926173 171.577756 
L 297.007357 88.970927 
L 297.088541 236.483122 
L 297.169725 171.577756 
L 297.250909 212.881171 
L 297.413277 171.577756 
L 297.494461 248.284098 
L 297.656829 106.67239 
L 297.738013 130.274341 
L 297.819197 224.682146 
L 297.981564 124.373854 
L 298.225116 230.582634 
L 298.387484 153.876293 
L 298.468668 230.582634 
L 298.549852 206.980683 
L 298.631036 153.876293 
L 298.71222 201.080195 
L 298.874588 142.075317 
L 298.955772 195.179707 
L 299.036956 177.478244 
L 299.11814 189.27922 
L 299.199323 136.174829 
L 299.280507 153.876293 
L 299.361691 260.085073 
L 299.442875 242.38361 
L 299.524059 130.274341 
L 299.605243 195.179707 
L 299.686427 165.677268 
L 299.767611 212.881171 
L 299.848795 189.27922 
L 299.929979 206.980683 
L 300.173531 147.975805 
L 300.254715 242.38361 
L 300.417082 165.677268 
L 300.498266 242.38361 
L 300.660634 171.577756 
L 300.741818 224.682146 
L 300.823002 206.980683 
L 300.904186 159.77678 
L 300.98537 236.483122 
L 301.147738 165.677268 
L 301.228922 183.378732 
L 301.310106 260.085073 
L 301.39129 142.075317 
L 301.472474 165.677268 
L 301.553658 248.284098 
L 301.634841 142.075317 
L 301.716025 159.77678 
L 301.797209 195.179707 
L 301.878393 165.677268 
L 301.959577 183.378732 
L 302.040761 147.975805 
L 302.121945 159.77678 
L 302.203129 171.577756 
L 302.284313 136.174829 
L 302.365497 230.582634 
L 302.446681 201.080195 
L 302.527865 159.77678 
L 302.609049 183.378732 
L 302.690233 171.577756 
L 302.933784 230.582634 
L 303.096152 183.378732 
L 303.177336 159.77678 
L 303.339704 224.682146 
L 303.420888 100.771902 
L 303.583256 242.38361 
L 303.66444 254.184585 
L 303.826808 171.577756 
L 303.907992 171.577756 
L 304.151543 224.682146 
L 304.313911 171.577756 
L 304.395095 224.682146 
L 304.557463 130.274341 
L 304.719831 212.881171 
L 304.801015 112.572878 
L 304.882199 212.881171 
L 304.963383 195.179707 
L 305.125751 136.174829 
L 305.288118 212.881171 
L 305.450486 195.179707 
L 305.53167 165.677268 
L 305.612854 224.682146 
L 305.694038 159.77678 
L 305.775222 177.478244 
L 305.856406 195.179707 
L 305.93759 136.174829 
L 306.099958 201.080195 
L 306.262326 153.876293 
L 306.34351 206.980683 
L 306.424693 195.179707 
L 306.505877 206.980683 
L 306.587061 142.075317 
L 306.668245 195.179707 
L 306.749429 177.478244 
L 306.830613 224.682146 
L 306.911797 142.075317 
L 307.074165 242.38361 
L 307.155349 142.075317 
L 307.236533 171.577756 
L 307.317717 165.677268 
L 307.398901 171.577756 
L 307.561268 212.881171 
L 307.642452 147.975805 
L 307.723636 189.27922 
L 307.80482 153.876293 
L 307.886004 195.179707 
L 307.967188 183.378732 
L 308.048372 183.378732 
L 308.129556 189.27922 
L 308.21074 165.677268 
L 308.291924 224.682146 
L 308.373108 136.174829 
L 308.454292 195.179707 
L 308.535476 165.677268 
L 308.697844 212.881171 
L 308.860211 177.478244 
L 308.941395 242.38361 
L 309.022579 224.682146 
L 309.103763 189.27922 
L 309.184947 212.881171 
L 309.266131 189.27922 
L 309.347315 271.886049 
L 309.590867 142.075317 
L 309.672051 201.080195 
L 309.753235 177.478244 
L 309.915603 224.682146 
L 309.996786 224.682146 
L 310.321522 118.473366 
L 310.402706 248.284098 
L 310.48389 159.77678 
L 310.565074 171.577756 
L 310.727442 206.980683 
L 310.970994 159.77678 
L 311.052178 218.781659 
L 311.133362 195.179707 
L 311.214545 224.682146 
L 311.295729 195.179707 
L 311.376913 206.980683 
L 311.458097 236.483122 
L 311.701649 177.478244 
L 311.782833 183.378732 
L 311.864017 242.38361 
L 312.026385 177.478244 
L 312.107569 165.677268 
L 312.269937 212.881171 
L 312.351121 201.080195 
L 312.432304 136.174829 
L 312.513488 159.77678 
L 312.594672 183.378732 
L 312.675856 171.577756 
L 312.75704 130.274341 
L 312.838224 183.378732 
L 312.919408 159.77678 
L 313.000592 100.771902 
L 313.081776 206.980683 
L 313.16296 171.577756 
L 313.244144 195.179707 
L 313.325328 136.174829 
L 313.568879 201.080195 
L 313.650063 147.975805 
L 313.812431 265.985561 
L 313.893615 159.77678 
L 313.974799 254.184585 
L 314.055983 142.075317 
L 314.137167 177.478244 
L 314.218351 171.577756 
L 314.299535 201.080195 
L 314.380719 183.378732 
L 314.461903 248.284098 
L 314.543087 206.980683 
L 314.624271 224.682146 
L 314.705455 195.179707 
L 314.786638 206.980683 
L 314.949006 195.179707 
L 315.03019 147.975805 
L 315.192558 206.980683 
L 315.273742 171.577756 
L 315.354926 177.478244 
L 315.43611 230.582634 
L 315.517294 224.682146 
L 315.598478 136.174829 
L 315.679662 177.478244 
L 315.760846 147.975805 
L 315.923214 195.179707 
L 316.004397 165.677268 
L 316.085581 171.577756 
L 316.166765 183.378732 
L 316.247949 177.478244 
L 316.410317 212.881171 
L 316.572685 130.274341 
L 316.653869 201.080195 
L 316.735053 177.478244 
L 316.816237 236.483122 
L 316.897421 153.876293 
L 316.978605 218.781659 
L 317.059789 212.881171 
L 317.140973 177.478244 
L 317.222156 183.378732 
L 317.30334 218.781659 
L 317.384524 159.77678 
L 317.465708 236.483122 
L 317.628076 171.577756 
L 317.70926 224.682146 
L 317.790444 212.881171 
L 317.871628 171.577756 
L 317.952812 183.378732 
L 318.11518 159.77678 
L 318.358732 230.582634 
L 318.439915 189.27922 
L 318.521099 242.38361 
L 318.602283 165.677268 
L 318.683467 189.27922 
L 318.764651 206.980683 
L 318.927019 94.871415 
L 319.008203 218.781659 
L 319.089387 159.77678 
L 319.332939 248.284098 
L 319.414123 171.577756 
L 319.57649 224.682146 
L 319.820042 147.975805 
L 319.901226 142.075317 
L 320.063594 224.682146 
L 320.144778 165.677268 
L 320.307146 224.682146 
L 320.469514 195.179707 
L 320.631882 230.582634 
L 320.713066 177.478244 
L 320.794249 201.080195 
L 320.875433 171.577756 
L 320.956617 242.38361 
L 321.037801 189.27922 
L 321.118985 201.080195 
L 321.200169 171.577756 
L 321.281353 224.682146 
L 321.362537 206.980683 
L 321.443721 183.378732 
L 321.524905 230.582634 
L 321.606089 153.876293 
L 321.687273 206.980683 
L 321.768457 177.478244 
L 321.930825 224.682146 
L 322.093192 183.378732 
L 322.174376 212.881171 
L 322.25556 201.080195 
L 322.336744 206.980683 
L 322.417928 147.975805 
L 322.580296 248.284098 
L 322.66148 118.473366 
L 322.742664 153.876293 
L 322.823848 142.075317 
L 322.905032 248.284098 
L 323.0674 124.373854 
L 323.148584 212.881171 
L 323.229767 195.179707 
L 323.310951 171.577756 
L 323.392135 212.881171 
L 323.473319 183.378732 
L 323.554503 224.682146 
L 323.879239 142.075317 
L 324.041607 183.378732 
L 324.122791 183.378732 
L 324.203975 189.27922 
L 324.285159 171.577756 
L 324.366342 260.085073 
L 324.447526 242.38361 
L 324.609894 177.478244 
L 324.691078 206.980683 
L 324.93463 130.274341 
L 325.096998 271.886049 
L 325.178182 136.174829 
L 325.259366 201.080195 
L 325.34055 195.179707 
L 325.421734 177.478244 
L 325.502918 212.881171 
L 325.584101 183.378732 
L 325.665285 230.582634 
L 325.827653 147.975805 
L 325.908837 159.77678 
L 326.071205 230.582634 
L 326.233573 147.975805 
L 326.395941 189.27922 
L 326.477125 183.378732 
L 326.558309 189.27922 
L 326.639493 159.77678 
L 326.883044 260.085073 
L 327.126596 201.080195 
L 327.20778 201.080195 
L 327.288964 153.876293 
L 327.370148 248.284098 
L 327.451332 206.980683 
L 327.532516 242.38361 
L 327.6137 136.174829 
L 327.694884 153.876293 
L 327.776068 130.274341 
L 327.857252 165.677268 
L 327.938436 118.473366 
L 328.019619 224.682146 
L 328.100803 177.478244 
L 328.181987 260.085073 
L 328.344355 165.677268 
L 328.425539 230.582634 
L 328.587907 195.179707 
L 328.669091 224.682146 
L 328.831459 183.378732 
L 328.912643 159.77678 
L 329.075011 236.483122 
L 329.156195 218.781659 
L 329.237378 171.577756 
L 329.318562 189.27922 
L 329.399746 236.483122 
L 329.48093 183.378732 
L 329.562114 212.881171 
L 329.724482 159.77678 
L 329.88685 224.682146 
L 330.049218 153.876293 
L 330.130402 159.77678 
L 330.211586 171.577756 
L 330.29277 153.876293 
L 330.373953 248.284098 
L 330.455137 147.975805 
L 330.617505 212.881171 
L 330.698689 218.781659 
L 330.779873 159.77678 
L 330.861057 201.080195 
L 331.023425 142.075317 
L 331.185793 230.582634 
L 331.266977 242.38361 
L 331.348161 124.373854 
L 331.429345 254.184585 
L 331.510529 147.975805 
L 331.672896 265.985561 
L 331.75408 177.478244 
L 331.835264 236.483122 
L 331.916448 183.378732 
L 331.997632 206.980683 
L 332.16 177.478244 
L 332.241184 230.582634 
L 332.322368 159.77678 
L 332.484736 218.781659 
L 332.647104 177.478244 
L 332.728288 218.781659 
L 332.809471 189.27922 
L 332.890655 212.881171 
L 333.134207 183.378732 
L 333.215391 277.786537 
L 333.296575 230.582634 
L 333.377759 254.184585 
L 333.458943 189.27922 
L 333.540127 218.781659 
L 333.621311 106.67239 
L 333.702495 206.980683 
L 333.783679 171.577756 
L 333.864863 159.77678 
L 333.946047 177.478244 
L 334.02723 147.975805 
L 334.108414 189.27922 
L 334.189598 177.478244 
L 334.270782 136.174829 
L 334.351966 206.980683 
L 334.43315 177.478244 
L 334.595518 218.781659 
L 334.676702 171.577756 
L 334.757886 224.682146 
L 334.920254 147.975805 
L 335.082622 212.881171 
L 335.163805 177.478244 
L 335.244989 230.582634 
L 335.326173 165.677268 
L 335.407357 171.577756 
L 335.488541 147.975805 
L 335.650909 212.881171 
L 335.732093 171.577756 
L 335.813277 183.378732 
L 335.894461 183.378732 
L 336.056829 230.582634 
L 336.138013 130.274341 
L 336.219197 212.881171 
L 336.300381 206.980683 
L 336.543932 130.274341 
L 336.625116 136.174829 
L 336.787484 230.582634 
L 336.949852 118.473366 
L 337.11222 195.179707 
L 337.274588 224.682146 
L 337.355772 159.77678 
L 337.436956 183.378732 
L 337.51814 201.080195 
L 337.599323 189.27922 
L 337.680507 230.582634 
L 337.761691 206.980683 
L 338.005243 242.38361 
L 338.167611 177.478244 
L 338.248795 206.980683 
L 338.329979 153.876293 
L 338.411163 189.27922 
L 338.492347 159.77678 
L 338.573531 189.27922 
L 338.654715 136.174829 
L 338.735899 224.682146 
L 338.817082 218.781659 
L 339.060634 159.77678 
L 339.141818 206.980683 
L 339.223002 177.478244 
L 339.304186 212.881171 
L 339.38537 201.080195 
L 339.466554 147.975805 
L 339.628922 236.483122 
L 339.710106 236.483122 
L 339.872474 142.075317 
L 340.034841 230.582634 
L 340.116025 201.080195 
L 340.197209 218.781659 
L 340.440761 124.373854 
L 340.521945 230.582634 
L 340.603129 142.075317 
L 340.684313 183.378732 
L 340.765497 165.677268 
L 340.846681 212.881171 
L 340.927865 201.080195 
L 341.009049 171.577756 
L 341.090233 183.378732 
L 341.171416 159.77678 
L 341.2526 242.38361 
L 341.414968 183.378732 
L 341.496152 212.881171 
L 341.577336 159.77678 
L 341.65852 218.781659 
L 341.739704 159.77678 
L 341.820888 206.980683 
L 341.902072 142.075317 
L 342.06444 224.682146 
L 342.145624 159.77678 
L 342.226808 248.284098 
L 342.470359 106.67239 
L 342.795095 212.881171 
L 342.876279 136.174829 
L 343.038647 206.980683 
L 343.201015 136.174829 
L 343.282199 242.38361 
L 343.363383 142.075317 
L 343.444567 183.378732 
L 343.525751 171.577756 
L 343.688118 236.483122 
L 343.769302 171.577756 
L 343.850486 195.179707 
L 344.012854 177.478244 
L 344.094038 224.682146 
L 344.175222 136.174829 
L 344.256406 201.080195 
L 344.33759 153.876293 
L 344.418774 165.677268 
L 344.499958 136.174829 
L 344.581142 147.975805 
L 344.74351 189.27922 
L 344.824693 165.677268 
L 344.987061 242.38361 
L 345.068245 147.975805 
L 345.149429 177.478244 
L 345.230613 206.980683 
L 345.311797 153.876293 
L 345.474165 242.38361 
L 345.636533 159.77678 
L 345.717717 147.975805 
L 345.961268 230.582634 
L 346.123636 189.27922 
L 346.20482 177.478244 
L 346.286004 195.179707 
L 346.367188 183.378732 
L 346.529556 212.881171 
L 346.61074 118.473366 
L 346.854292 224.682146 
L 347.01666 206.980683 
L 347.097844 224.682146 
L 347.179027 159.77678 
L 347.260211 189.27922 
L 347.341395 130.274341 
L 347.422579 136.174829 
L 347.584947 242.38361 
L 347.666131 201.080195 
L 347.747315 147.975805 
L 347.828499 230.582634 
L 347.909683 201.080195 
L 347.990867 224.682146 
L 348.072051 130.274341 
L 348.153235 212.881171 
L 348.234419 106.67239 
L 348.396786 218.781659 
L 348.47797 189.27922 
L 348.559154 206.980683 
L 348.640338 201.080195 
L 348.721522 165.677268 
L 348.965074 260.085073 
L 349.046258 147.975805 
L 349.208626 201.080195 
L 349.28981 206.980683 
L 349.370994 195.179707 
L 349.452178 218.781659 
L 349.614545 171.577756 
L 349.695729 171.577756 
L 349.776913 183.378732 
L 349.858097 130.274341 
L 350.101649 206.980683 
L 350.182833 195.179707 
L 350.264017 201.080195 
L 350.345201 171.577756 
L 350.426385 177.478244 
L 350.507569 201.080195 
L 350.751121 147.975805 
L 350.832304 147.975805 
L 350.913488 212.881171 
L 351.075856 153.876293 
L 351.238224 218.781659 
L 351.319408 183.378732 
L 351.400592 254.184585 
L 351.644144 153.876293 
L 351.725328 136.174829 
L 351.887696 201.080195 
L 352.050063 224.682146 
L 352.131247 147.975805 
L 352.212431 165.677268 
L 352.293615 147.975805 
L 352.374799 224.682146 
L 352.537167 142.075317 
L 352.699535 206.980683 
L 352.780719 183.378732 
L 352.861903 189.27922 
L 352.943087 224.682146 
L 353.024271 206.980683 
L 353.105455 124.373854 
L 353.267822 206.980683 
L 353.349006 159.77678 
L 353.43019 212.881171 
L 353.511374 118.473366 
L 353.754926 248.284098 
L 353.917294 147.975805 
L 354.160846 230.582634 
L 354.24203 183.378732 
L 354.323214 224.682146 
L 354.404397 183.378732 
L 354.485581 206.980683 
L 354.647949 142.075317 
L 354.729133 236.483122 
L 354.891501 183.378732 
L 355.053869 224.682146 
L 355.297421 165.677268 
L 355.378605 212.881171 
L 355.459789 153.876293 
L 355.540973 224.682146 
L 355.622156 159.77678 
L 355.70334 195.179707 
L 355.865708 165.677268 
L 356.028076 212.881171 
L 356.190444 177.478244 
L 356.271628 224.682146 
L 356.433996 165.677268 
L 356.51518 183.378732 
L 356.596364 224.682146 
L 356.839915 177.478244 
L 356.921099 201.080195 
L 357.002283 130.274341 
L 357.164651 195.179707 
L 357.245835 153.876293 
L 357.327019 224.682146 
L 357.408203 206.980683 
L 357.489387 159.77678 
L 357.570571 165.677268 
L 357.651755 201.080195 
L 357.814123 112.572878 
L 357.97649 189.27922 
L 358.057674 171.577756 
L 358.138858 212.881171 
L 358.220042 201.080195 
L 358.38241 195.179707 
L 358.463594 112.572878 
L 358.544778 124.373854 
L 358.707146 212.881171 
L 358.78833 171.577756 
L 358.950698 224.682146 
L 359.113066 206.980683 
L 359.275433 124.373854 
L 359.356617 183.378732 
L 359.437801 177.478244 
L 359.681353 224.682146 
L 359.762537 165.677268 
L 359.924905 212.881171 
L 360.087273 224.682146 
L 360.168457 183.378732 
L 360.249641 206.980683 
L 360.493192 142.075317 
L 360.574376 236.483122 
L 360.65556 230.582634 
L 360.817928 171.577756 
L 360.899112 212.881171 
L 360.980296 195.179707 
L 361.06148 242.38361 
L 361.142664 171.577756 
L 361.223848 183.378732 
L 361.305032 195.179707 
L 361.386216 260.085073 
L 361.4674 195.179707 
L 361.548584 201.080195 
L 361.629767 177.478244 
L 361.710951 206.980683 
L 361.792135 201.080195 
L 361.873319 189.27922 
L 361.954503 206.980683 
L 362.035687 165.677268 
L 362.116871 218.781659 
L 362.198055 147.975805 
L 362.279239 218.781659 
L 362.360423 165.677268 
L 362.522791 218.781659 
L 362.603975 195.179707 
L 362.685159 236.483122 
L 362.847526 189.27922 
L 362.92871 218.781659 
L 363.172262 171.577756 
L 363.415814 254.184585 
L 363.659366 177.478244 
L 363.821734 206.980683 
L 363.902918 118.473366 
L 363.984101 165.677268 
L 364.065285 142.075317 
L 364.146469 159.77678 
L 364.308837 230.582634 
L 364.471205 183.378732 
L 364.552389 195.179707 
L 364.633573 165.677268 
L 364.795941 230.582634 
L 364.877125 130.274341 
L 365.039493 248.284098 
L 365.120677 206.980683 
L 365.20186 224.682146 
L 365.283044 212.881171 
L 365.364228 230.582634 
L 365.445412 147.975805 
L 365.526596 201.080195 
L 365.60778 165.677268 
L 365.688964 183.378732 
L 365.770148 177.478244 
L 365.851332 171.577756 
L 365.932516 136.174829 
L 366.176068 212.881171 
L 366.257252 242.38361 
L 366.419619 177.478244 
L 366.581987 248.284098 
L 366.663171 224.682146 
L 366.744355 183.378732 
L 366.825539 212.881171 
L 366.987907 195.179707 
L 367.069091 242.38361 
L 367.231459 147.975805 
L 367.312643 236.483122 
L 367.475011 142.075317 
L 367.556195 171.577756 
L 367.637378 142.075317 
L 367.718562 212.881171 
L 367.799746 177.478244 
L 367.88093 189.27922 
L 367.962114 201.080195 
L 368.043298 147.975805 
L 368.124482 165.677268 
L 368.205666 171.577756 
L 368.28685 218.781659 
L 368.368034 147.975805 
L 368.530402 189.27922 
L 368.611586 189.27922 
L 368.69277 159.77678 
L 368.773953 183.378732 
L 368.855137 153.876293 
L 369.017505 206.980683 
L 369.098689 153.876293 
L 369.179873 195.179707 
L 369.261057 177.478244 
L 369.504609 236.483122 
L 369.585793 165.677268 
L 369.748161 212.881171 
L 369.829345 165.677268 
L 369.910529 201.080195 
L 369.991712 136.174829 
L 370.15408 236.483122 
L 370.316448 165.677268 
L 370.478816 224.682146 
L 370.722368 53.568 
L 370.884736 206.980683 
L 370.96592 189.27922 
L 371.047104 206.980683 
L 371.128288 177.478244 
L 371.209471 212.881171 
L 371.290655 171.577756 
L 371.371839 224.682146 
L 371.615391 142.075317 
L 371.777759 230.582634 
L 371.858943 124.373854 
L 371.940127 224.682146 
L 372.021311 189.27922 
L 372.102495 171.577756 
L 372.183679 230.582634 
L 372.264863 212.881171 
L 372.42723 242.38361 
L 372.508414 183.378732 
L 372.589598 218.781659 
L 372.670782 165.677268 
L 372.751966 201.080195 
L 372.83315 295.488 
L 372.995518 165.677268 
L 373.076702 177.478244 
L 373.23907 142.075317 
L 373.320254 130.274341 
L 373.401438 212.881171 
L 373.482622 201.080195 
L 373.563805 171.577756 
L 373.807357 212.881171 
L 373.888541 206.980683 
L 373.969725 183.378732 
L 374.050909 206.980683 
L 374.132093 183.378732 
L 374.213277 224.682146 
L 374.294461 177.478244 
L 374.375645 212.881171 
L 374.538013 183.378732 
L 374.619197 195.179707 
L 374.700381 189.27922 
L 374.781564 165.677268 
L 374.862748 83.070439 
L 374.943932 177.478244 
L 375.025116 142.075317 
L 375.187484 206.980683 
L 375.268668 224.682146 
L 375.349852 218.781659 
L 375.431036 201.080195 
L 375.51222 248.284098 
L 375.593404 183.378732 
L 375.674588 195.179707 
L 375.755772 183.378732 
L 375.836956 206.980683 
L 375.91814 136.174829 
L 375.999323 189.27922 
L 376.080507 177.478244 
L 376.161691 218.781659 
L 376.324059 142.075317 
L 376.405243 236.483122 
L 376.486427 136.174829 
L 376.648795 195.179707 
L 376.729979 177.478244 
L 376.811163 112.572878 
L 376.892347 195.179707 
L 376.973531 159.77678 
L 377.217082 242.38361 
L 377.298266 147.975805 
L 377.37945 189.27922 
L 377.460634 177.478244 
L 377.541818 153.876293 
L 377.623002 218.781659 
L 377.78537 130.274341 
L 377.866554 206.980683 
L 377.947738 112.572878 
L 378.19129 224.682146 
L 378.272474 206.980683 
L 378.353658 254.184585 
L 378.434841 171.577756 
L 378.516025 201.080195 
L 378.597209 171.577756 
L 378.678393 230.582634 
L 378.759577 189.27922 
L 378.840761 201.080195 
L 378.921945 171.577756 
L 379.246681 236.483122 
L 379.327865 147.975805 
L 379.490233 212.881171 
L 379.6526 171.577756 
L 379.814968 183.378732 
L 379.896152 248.284098 
L 380.05852 153.876293 
L 380.220888 183.378732 
L 380.302072 183.378732 
L 380.383256 189.27922 
L 380.46444 230.582634 
L 380.545624 212.881171 
L 380.707992 236.483122 
L 380.789175 212.881171 
L 380.870359 136.174829 
L 381.113911 206.980683 
L 381.195095 147.975805 
L 381.357463 248.284098 
L 381.519831 159.77678 
L 381.682199 177.478244 
L 381.763383 147.975805 
L 381.844567 195.179707 
L 381.925751 189.27922 
L 382.006934 171.577756 
L 382.088118 206.980683 
L 382.169302 165.677268 
L 382.250486 177.478244 
L 382.33167 224.682146 
L 382.494038 195.179707 
L 382.656406 212.881171 
L 382.73759 206.980683 
L 382.818774 230.582634 
L 382.899958 153.876293 
L 382.981142 195.179707 
L 383.062326 183.378732 
L 383.14351 124.373854 
L 383.305877 218.781659 
L 383.549429 189.27922 
L 383.630613 201.080195 
L 383.711797 195.179707 
L 383.792981 165.677268 
L 383.874165 171.577756 
L 384.036533 165.677268 
L 384.117717 195.179707 
L 384.198901 142.075317 
L 384.280085 201.080195 
L 384.361268 171.577756 
L 384.523636 218.781659 
L 384.60482 118.473366 
L 384.767188 171.577756 
L 384.848372 171.577756 
L 384.929556 230.582634 
L 385.01074 142.075317 
L 385.091924 165.677268 
L 385.173108 218.781659 
L 385.254292 142.075317 
L 385.335476 230.582634 
L 385.41666 171.577756 
L 385.497844 218.781659 
L 385.579027 147.975805 
L 385.660211 212.881171 
L 385.741395 189.27922 
L 385.903763 224.682146 
L 385.984947 171.577756 
L 386.066131 242.38361 
L 386.147315 136.174829 
L 386.309683 242.38361 
L 386.472051 195.179707 
L 386.553235 230.582634 
L 386.634419 106.67239 
L 386.715603 147.975805 
L 386.796786 195.179707 
L 386.87797 165.677268 
L 387.121522 224.682146 
L 387.28389 206.980683 
L 387.365074 254.184585 
L 387.527442 159.77678 
L 387.608626 183.378732 
L 387.852178 248.284098 
L 387.933362 177.478244 
L 388.014545 254.184585 
L 388.258097 118.473366 
L 388.339281 147.975805 
L 388.420465 94.871415 
L 388.582833 212.881171 
L 388.745201 153.876293 
L 388.907569 201.080195 
L 388.988753 189.27922 
L 389.069937 236.483122 
L 389.151121 177.478244 
L 389.232304 189.27922 
L 389.313488 189.27922 
L 389.394672 147.975805 
L 389.55704 201.080195 
L 389.638224 201.080195 
L 389.719408 195.179707 
L 389.800592 159.77678 
L 389.881776 260.085073 
L 390.044144 142.075317 
L 390.125328 147.975805 
L 390.206512 224.682146 
L 390.287696 147.975805 
L 390.450063 206.980683 
L 390.531247 195.179707 
L 390.612431 206.980683 
L 390.693615 159.77678 
L 390.774799 195.179707 
L 390.855983 124.373854 
L 390.937167 218.781659 
L 391.018351 195.179707 
L 391.099535 195.179707 
L 391.261903 136.174829 
L 391.343087 183.378732 
L 391.424271 124.373854 
L 391.505455 248.284098 
L 391.586638 212.881171 
L 391.749006 230.582634 
L 391.83019 171.577756 
L 392.073742 224.682146 
L 392.154926 183.378732 
L 392.23611 242.38361 
L 392.317294 183.378732 
L 392.479662 224.682146 
L 392.560846 153.876293 
L 392.64203 177.478244 
L 392.723214 171.577756 
L 392.804397 248.284098 
L 392.966765 159.77678 
L 393.129133 230.582634 
L 393.291501 153.876293 
L 393.372685 171.577756 
L 393.697421 236.483122 
L 393.778605 195.179707 
L 394.022156 236.483122 
L 394.184524 159.77678 
L 394.265708 218.781659 
L 394.346892 88.970927 
L 394.428076 206.980683 
L 394.50926 171.577756 
L 394.590444 165.677268 
L 394.671628 224.682146 
L 394.752812 165.677268 
L 394.91518 212.881171 
L 395.077548 183.378732 
L 395.158732 183.378732 
L 395.239915 201.080195 
L 395.321099 189.27922 
L 395.402283 147.975805 
L 395.645835 206.980683 
L 395.808203 112.572878 
L 395.889387 171.577756 
L 395.970571 147.975805 
L 396.051755 265.985561 
L 396.214123 124.373854 
L 396.37649 183.378732 
L 396.538858 124.373854 
L 396.620042 136.174829 
L 396.863594 254.184585 
L 397.107146 136.174829 
L 397.350698 212.881171 
L 397.513066 171.577756 
L 397.594249 201.080195 
L 397.675433 195.179707 
L 397.756617 142.075317 
L 397.837801 265.985561 
L 397.918985 236.483122 
L 398.081353 147.975805 
L 398.162537 212.881171 
L 398.243721 159.77678 
L 398.324905 230.582634 
L 398.487273 153.876293 
L 398.487273 153.876293 
" clip-path="url(#pf318d140e3)" style="fill: none; stroke: #1f77b4; stroke-width: 1.5; stroke-linecap: square"/>
   </g>
   <g id="patch_3">
    <path d="M 57.6 307.584 
L 57.6 41.472 
" style="fill: none; stroke: #000000; stroke-width: 0.8; stroke-linejoin: miter; stroke-linecap: square"/>
   </g>
   <g id="patch_4">
    <path d="M 414.72 307.584 
L 414.72 41.472 
" style="fill: none; stroke: #000000; stroke-width: 0.8; stroke-linejoin: miter; stroke-linecap: square"/>
   </g>
   <g id="patch_5">
    <path d="M 57.6 307.584 
L 414.72 307.584 
" style="fill: none; stroke: #000000; stroke-width: 0.8; stroke-linejoin: miter; stroke-linecap: square"/>
   </g>
   <g id="patch_6">
    <path d="M 57.6 41.472 
L 414.72 41.472 
" style="fill: none; stroke: #000000; stroke-width: 0.8; stroke-linejoin: miter; stroke-linecap: square"/>
   </g>
   <g id="text_17">
    <!-- Output firing rate -->
    <g transform="translate(183.793125 35.472) scale(0.12 -0.12)">
     <defs>
      <path id="DejaVuSans-4f" d="M 2522 4238 
Q 1834 4238 1429 3725 
Q 1025 3213 1025 2328 
Q 1025 1447 1429 934 
Q 1834 422 2522 422 
Q 3209 422 3611 934 
Q 4013 1447 4013 2328 
Q 4013 3213 3611 3725 
Q 3209 4238 2522 4238 
z
M 2522 4750 
Q 3503 4750 4090 4092 
Q 4678 3434 4678 2328 
Q 4678 1225 4090 567 
Q 3503 -91 2522 -91 
Q 1538 -91 948 565 
Q 359 1222 359 2328 
Q 359 3434 948 4092 
Q 1538 4750 2522 4750 
z
" transform="scale(0.015625)"/>
      <path id="DejaVuSans-75" d="M 544 1381 
L 544 3500 
L 1119 3500 
L 1119 1403 
Q 1119 906 1312 657 
Q 1506 409 1894 409 
Q 2359 409 2629 706 
Q 2900 1003 2900 1516 
L 2900 3500 
L 3475 3500 
L 3475 0 
L 2900 0 
L 2900 538 
Q 2691 219 2414 64 
Q 2138 -91 1772 -91 
Q 1169 -91 856 284 
Q 544 659 544 1381 
z
M 1991 3584 
L 1991 3584 
z
" transform="scale(0.015625)"/>
      <path id="DejaVuSans-70" d="M 1159 525 
L 1159 -1331 
L 581 -1331 
L 581 3500 
L 1159 3500 
L 1159 2969 
Q 1341 3281 1617 3432 
Q 1894 3584 2278 3584 
Q 2916 3584 3314 3078 
Q 3713 2572 3713 1747 
Q 3713 922 3314 415 
Q 2916 -91 2278 -91 
Q 1894 -91 1617 61 
Q 1341 213 1159 525 
z
M 3116 1747 
Q 3116 2381 2855 2742 
Q 2594 3103 2138 3103 
Q 1681 3103 1420 2742 
Q 1159 2381 1159 1747 
Q 1159 1113 1420 752 
Q 1681 391 2138 391 
Q 2594 391 2855 752 
Q 3116 1113 3116 1747 
z
" transform="scale(0.015625)"/>
      <path id="DejaVuSans-66" d="M 2375 4863 
L 2375 4384 
L 1825 4384 
Q 1516 4384 1395 4259 
Q 1275 4134 1275 3809 
L 1275 3500 
L 2222 3500 
L 2222 3053 
L 1275 3053 
L 1275 0 
L 697 0 
L 697 3053 
L 147 3053 
L 147 3500 
L 697 3500 
L 697 3744 
Q 697 4328 969 4595 
Q 1241 4863 1831 4863 
L 2375 4863 
z
" transform="scale(0.015625)"/>
     </defs>
     <use xlink:href="#DejaVuSans-4f"/>
     <use xlink:href="#DejaVuSans-75" x="78.710938"/>
     <use xlink:href="#DejaVuSans-74" x="142.089844"/>
     <use xlink:href="#DejaVuSans-70" x="181.298828"/>
     <use xlink:href="#DejaVuSans-75" x="244.775391"/>
     <use xlink:href="#DejaVuSans-74" x="308.154297"/>
     <use xlink:href="#DejaVuSans-20" x="347.363281"/>
     <use xlink:href="#DejaVuSans-66" x="379.150391"/>
     <use xlink:href="#DejaVuSans-69" x="414.355469"/>
     <use xlink:href="#DejaVuSans-72" x="442.138672"/>
     <use xlink:href="#DejaVuSans-69" x="483.251953"/>
     <use xlink:href="#DejaVuSans-6e" x="511.035156"/>
     <use xlink:href="#DejaVuSans-67" x="574.414062"/>
     <use xlink:href="#DejaVuSans-20" x="637.890625"/>
     <use xlink:href="#DejaVuSans-72" x="669.677734"/>
     <use xlink:href="#DejaVuSans-61" x="710.791016"/>
     <use xlink:href="#DejaVuSans-74" x="772.070312"/>
     <use xlink:href="#DejaVuSans-65" x="811.279297"/>
    </g>
   </g>
  </g>
 </g>
 <defs>
  <clipPath id="pf318d140e3">
   <rect x="57.6" y="41.472" width="357.12" height="266.112"/>
  </clipPath>
 </defs>
</svg>
