<?xml version="1.0" encoding="utf-8" standalone="no"?>
<!DOCTYPE svg PUBLIC "-//W3C//DTD SVG 1.1//EN"
  "http://www.w3.org/Graphics/SVG/1.1/DTD/svg11.dtd">
<svg xmlns:xlink="http://www.w3.org/1999/xlink" width="460.8pt" height="345.6pt" viewBox="0 0 460.8 345.6" xmlns="http://www.w3.org/2000/svg" version="1.1">
 <metadata>
  <rdf:RDF xmlns:dc="http://purl.org/dc/elements/1.1/" xmlns:cc="http://creativecommons.org/ns#" xmlns:rdf="http://www.w3.org/1999/02/22-rdf-syntax-ns#">
   <cc:Work>
    <dc:type rdf:resource="http://purl.org/dc/dcmitype/StillImage"/>
    <dc:date>2023-05-03T18:29:35.088955</dc:date>
    <dc:format>image/svg+xml</dc:format>
    <dc:creator>
     <cc:Agent>
      <dc:title>Matplotlib v3.6.2, https://matplotlib.org/</dc:title>
     </cc:Agent>
    </dc:creator>
   </cc:Work>
  </rdf:RDF>
 </metadata>
 <defs>
  <style type="text/css">*{stroke-linejoin: round; stroke-linecap: butt}</style>
 </defs>
 <g id="figure_1">
  <g id="patch_1">
   <path d="M 0 345.6 
L 460.8 345.6 
L 460.8 0 
L 0 0 
z
" style="fill: #ffffff"/>
  </g>
  <g id="axes_1">
   <g id="patch_2">
    <path d="M 57.6 307.584 
L 414.72 307.584 
L 414.72 41.472 
L 57.6 41.472 
z
" style="fill: #ffffff"/>
   </g>
   <g id="matplotlib.axis_1">
    <g id="xtick_1">
     <g id="line2d_1">
      <defs>
       <path id="m0075cf23f8" d="M 0 0 
L 0 3.5 
" style="stroke: #000000; stroke-width: 0.8"/>
      </defs>
      <g>
       <use xlink:href="#m0075cf23f8" x="73.832727" y="307.584" style="stroke: #000000; stroke-width: 0.8"/>
      </g>
     </g>
     <g id="text_1">
      <!-- 0 -->
      <g transform="translate(70.651477 322.182437) scale(0.1 -0.1)">
       <defs>
        <path id="DejaVuSans-30" d="M 2034 4250 
Q 1547 4250 1301 3770 
Q 1056 3291 1056 2328 
Q 1056 1369 1301 889 
Q 1547 409 2034 409 
Q 2525 409 2770 889 
Q 3016 1369 3016 2328 
Q 3016 3291 2770 3770 
Q 2525 4250 2034 4250 
z
M 2034 4750 
Q 2819 4750 3233 4129 
Q 3647 3509 3647 2328 
Q 3647 1150 3233 529 
Q 2819 -91 2034 -91 
Q 1250 -91 836 529 
Q 422 1150 422 2328 
Q 422 3509 836 4129 
Q 1250 4750 2034 4750 
z
" transform="scale(0.015625)"/>
       </defs>
       <use xlink:href="#DejaVuSans-30"/>
      </g>
     </g>
    </g>
    <g id="xtick_2">
     <g id="line2d_2">
      <g>
       <use xlink:href="#m0075cf23f8" x="123.933737" y="307.584" style="stroke: #000000; stroke-width: 0.8"/>
      </g>
     </g>
     <g id="text_2">
      <!-- 100 -->
      <g transform="translate(114.389987 322.182437) scale(0.1 -0.1)">
       <defs>
        <path id="DejaVuSans-31" d="M 794 531 
L 1825 531 
L 1825 4091 
L 703 3866 
L 703 4441 
L 1819 4666 
L 2450 4666 
L 2450 531 
L 3481 531 
L 3481 0 
L 794 0 
L 794 531 
z
" transform="scale(0.015625)"/>
       </defs>
       <use xlink:href="#DejaVuSans-31"/>
       <use xlink:href="#DejaVuSans-30" x="63.623047"/>
       <use xlink:href="#DejaVuSans-30" x="127.246094"/>
      </g>
     </g>
    </g>
    <g id="xtick_3">
     <g id="line2d_3">
      <g>
       <use xlink:href="#m0075cf23f8" x="174.034747" y="307.584" style="stroke: #000000; stroke-width: 0.8"/>
      </g>
     </g>
     <g id="text_3">
      <!-- 200 -->
      <g transform="translate(164.490997 322.182437) scale(0.1 -0.1)">
       <defs>
        <path id="DejaVuSans-32" d="M 1228 531 
L 3431 531 
L 3431 0 
L 469 0 
L 469 531 
Q 828 903 1448 1529 
Q 2069 2156 2228 2338 
Q 2531 2678 2651 2914 
Q 2772 3150 2772 3378 
Q 2772 3750 2511 3984 
Q 2250 4219 1831 4219 
Q 1534 4219 1204 4116 
Q 875 4013 500 3803 
L 500 4441 
Q 881 4594 1212 4672 
Q 1544 4750 1819 4750 
Q 2544 4750 2975 4387 
Q 3406 4025 3406 3419 
Q 3406 3131 3298 2873 
Q 3191 2616 2906 2266 
Q 2828 2175 2409 1742 
Q 1991 1309 1228 531 
z
" transform="scale(0.015625)"/>
       </defs>
       <use xlink:href="#DejaVuSans-32"/>
       <use xlink:href="#DejaVuSans-30" x="63.623047"/>
       <use xlink:href="#DejaVuSans-30" x="127.246094"/>
      </g>
     </g>
    </g>
    <g id="xtick_4">
     <g id="line2d_4">
      <g>
       <use xlink:href="#m0075cf23f8" x="224.135758" y="307.584" style="stroke: #000000; stroke-width: 0.8"/>
      </g>
     </g>
     <g id="text_4">
      <!-- 300 -->
      <g transform="translate(214.592008 322.182437) scale(0.1 -0.1)">
       <defs>
        <path id="DejaVuSans-33" d="M 2597 2516 
Q 3050 2419 3304 2112 
Q 3559 1806 3559 1356 
Q 3559 666 3084 287 
Q 2609 -91 1734 -91 
Q 1441 -91 1130 -33 
Q 819 25 488 141 
L 488 750 
Q 750 597 1062 519 
Q 1375 441 1716 441 
Q 2309 441 2620 675 
Q 2931 909 2931 1356 
Q 2931 1769 2642 2001 
Q 2353 2234 1838 2234 
L 1294 2234 
L 1294 2753 
L 1863 2753 
Q 2328 2753 2575 2939 
Q 2822 3125 2822 3475 
Q 2822 3834 2567 4026 
Q 2313 4219 1838 4219 
Q 1578 4219 1281 4162 
Q 984 4106 628 3988 
L 628 4550 
Q 988 4650 1302 4700 
Q 1616 4750 1894 4750 
Q 2613 4750 3031 4423 
Q 3450 4097 3450 3541 
Q 3450 3153 3228 2886 
Q 3006 2619 2597 2516 
z
" transform="scale(0.015625)"/>
       </defs>
       <use xlink:href="#DejaVuSans-33"/>
       <use xlink:href="#DejaVuSans-30" x="63.623047"/>
       <use xlink:href="#DejaVuSans-30" x="127.246094"/>
      </g>
     </g>
    </g>
    <g id="xtick_5">
     <g id="line2d_5">
      <g>
       <use xlink:href="#m0075cf23f8" x="274.236768" y="307.584" style="stroke: #000000; stroke-width: 0.8"/>
      </g>
     </g>
     <g id="text_5">
      <!-- 400 -->
      <g transform="translate(264.693018 322.182437) scale(0.1 -0.1)">
       <defs>
        <path id="DejaVuSans-34" d="M 2419 4116 
L 825 1625 
L 2419 1625 
L 2419 4116 
z
M 2253 4666 
L 3047 4666 
L 3047 1625 
L 3713 1625 
L 3713 1100 
L 3047 1100 
L 3047 0 
L 2419 0 
L 2419 1100 
L 313 1100 
L 313 1709 
L 2253 4666 
z
" transform="scale(0.015625)"/>
       </defs>
       <use xlink:href="#DejaVuSans-34"/>
       <use xlink:href="#DejaVuSans-30" x="63.623047"/>
       <use xlink:href="#DejaVuSans-30" x="127.246094"/>
      </g>
     </g>
    </g>
    <g id="xtick_6">
     <g id="line2d_6">
      <g>
       <use xlink:href="#m0075cf23f8" x="324.337778" y="307.584" style="stroke: #000000; stroke-width: 0.8"/>
      </g>
     </g>
     <g id="text_6">
      <!-- 500 -->
      <g transform="translate(314.794028 322.182437) scale(0.1 -0.1)">
       <defs>
        <path id="DejaVuSans-35" d="M 691 4666 
L 3169 4666 
L 3169 4134 
L 1269 4134 
L 1269 2991 
Q 1406 3038 1543 3061 
Q 1681 3084 1819 3084 
Q 2600 3084 3056 2656 
Q 3513 2228 3513 1497 
Q 3513 744 3044 326 
Q 2575 -91 1722 -91 
Q 1428 -91 1123 -41 
Q 819 9 494 109 
L 494 744 
Q 775 591 1075 516 
Q 1375 441 1709 441 
Q 2250 441 2565 725 
Q 2881 1009 2881 1497 
Q 2881 1984 2565 2268 
Q 2250 2553 1709 2553 
Q 1456 2553 1204 2497 
Q 953 2441 691 2322 
L 691 4666 
z
" transform="scale(0.015625)"/>
       </defs>
       <use xlink:href="#DejaVuSans-35"/>
       <use xlink:href="#DejaVuSans-30" x="63.623047"/>
       <use xlink:href="#DejaVuSans-30" x="127.246094"/>
      </g>
     </g>
    </g>
    <g id="xtick_7">
     <g id="line2d_7">
      <g>
       <use xlink:href="#m0075cf23f8" x="374.438788" y="307.584" style="stroke: #000000; stroke-width: 0.8"/>
      </g>
     </g>
     <g id="text_7">
      <!-- 600 -->
      <g transform="translate(364.895038 322.182437) scale(0.1 -0.1)">
       <defs>
        <path id="DejaVuSans-36" d="M 2113 2584 
Q 1688 2584 1439 2293 
Q 1191 2003 1191 1497 
Q 1191 994 1439 701 
Q 1688 409 2113 409 
Q 2538 409 2786 701 
Q 3034 994 3034 1497 
Q 3034 2003 2786 2293 
Q 2538 2584 2113 2584 
z
M 3366 4563 
L 3366 3988 
Q 3128 4100 2886 4159 
Q 2644 4219 2406 4219 
Q 1781 4219 1451 3797 
Q 1122 3375 1075 2522 
Q 1259 2794 1537 2939 
Q 1816 3084 2150 3084 
Q 2853 3084 3261 2657 
Q 3669 2231 3669 1497 
Q 3669 778 3244 343 
Q 2819 -91 2113 -91 
Q 1303 -91 875 529 
Q 447 1150 447 2328 
Q 447 3434 972 4092 
Q 1497 4750 2381 4750 
Q 2619 4750 2861 4703 
Q 3103 4656 3366 4563 
z
" transform="scale(0.015625)"/>
       </defs>
       <use xlink:href="#DejaVuSans-36"/>
       <use xlink:href="#DejaVuSans-30" x="63.623047"/>
       <use xlink:href="#DejaVuSans-30" x="127.246094"/>
      </g>
     </g>
    </g>
    <g id="text_8">
     <!-- Image shown -->
     <g transform="translate(202.820156 335.860562) scale(0.1 -0.1)">
      <defs>
       <path id="DejaVuSans-49" d="M 628 4666 
L 1259 4666 
L 1259 0 
L 628 0 
L 628 4666 
z
" transform="scale(0.015625)"/>
       <path id="DejaVuSans-6d" d="M 3328 2828 
Q 3544 3216 3844 3400 
Q 4144 3584 4550 3584 
Q 5097 3584 5394 3201 
Q 5691 2819 5691 2113 
L 5691 0 
L 5113 0 
L 5113 2094 
Q 5113 2597 4934 2840 
Q 4756 3084 4391 3084 
Q 3944 3084 3684 2787 
Q 3425 2491 3425 1978 
L 3425 0 
L 2847 0 
L 2847 2094 
Q 2847 2600 2669 2842 
Q 2491 3084 2119 3084 
Q 1678 3084 1418 2786 
Q 1159 2488 1159 1978 
L 1159 0 
L 581 0 
L 581 3500 
L 1159 3500 
L 1159 2956 
Q 1356 3278 1631 3431 
Q 1906 3584 2284 3584 
Q 2666 3584 2933 3390 
Q 3200 3197 3328 2828 
z
" transform="scale(0.015625)"/>
       <path id="DejaVuSans-61" d="M 2194 1759 
Q 1497 1759 1228 1600 
Q 959 1441 959 1056 
Q 959 750 1161 570 
Q 1363 391 1709 391 
Q 2188 391 2477 730 
Q 2766 1069 2766 1631 
L 2766 1759 
L 2194 1759 
z
M 3341 1997 
L 3341 0 
L 2766 0 
L 2766 531 
Q 2569 213 2275 61 
Q 1981 -91 1556 -91 
Q 1019 -91 701 211 
Q 384 513 384 1019 
Q 384 1609 779 1909 
Q 1175 2209 1959 2209 
L 2766 2209 
L 2766 2266 
Q 2766 2663 2505 2880 
Q 2244 3097 1772 3097 
Q 1472 3097 1187 3025 
Q 903 2953 641 2809 
L 641 3341 
Q 956 3463 1253 3523 
Q 1550 3584 1831 3584 
Q 2591 3584 2966 3190 
Q 3341 2797 3341 1997 
z
" transform="scale(0.015625)"/>
       <path id="DejaVuSans-67" d="M 2906 1791 
Q 2906 2416 2648 2759 
Q 2391 3103 1925 3103 
Q 1463 3103 1205 2759 
Q 947 2416 947 1791 
Q 947 1169 1205 825 
Q 1463 481 1925 481 
Q 2391 481 2648 825 
Q 2906 1169 2906 1791 
z
M 3481 434 
Q 3481 -459 3084 -895 
Q 2688 -1331 1869 -1331 
Q 1566 -1331 1297 -1286 
Q 1028 -1241 775 -1147 
L 775 -588 
Q 1028 -725 1275 -790 
Q 1522 -856 1778 -856 
Q 2344 -856 2625 -561 
Q 2906 -266 2906 331 
L 2906 616 
Q 2728 306 2450 153 
Q 2172 0 1784 0 
Q 1141 0 747 490 
Q 353 981 353 1791 
Q 353 2603 747 3093 
Q 1141 3584 1784 3584 
Q 2172 3584 2450 3431 
Q 2728 3278 2906 2969 
L 2906 3500 
L 3481 3500 
L 3481 434 
z
" transform="scale(0.015625)"/>
       <path id="DejaVuSans-65" d="M 3597 1894 
L 3597 1613 
L 953 1613 
Q 991 1019 1311 708 
Q 1631 397 2203 397 
Q 2534 397 2845 478 
Q 3156 559 3463 722 
L 3463 178 
Q 3153 47 2828 -22 
Q 2503 -91 2169 -91 
Q 1331 -91 842 396 
Q 353 884 353 1716 
Q 353 2575 817 3079 
Q 1281 3584 2069 3584 
Q 2775 3584 3186 3129 
Q 3597 2675 3597 1894 
z
M 3022 2063 
Q 3016 2534 2758 2815 
Q 2500 3097 2075 3097 
Q 1594 3097 1305 2825 
Q 1016 2553 972 2059 
L 3022 2063 
z
" transform="scale(0.015625)"/>
       <path id="DejaVuSans-20" transform="scale(0.015625)"/>
       <path id="DejaVuSans-73" d="M 2834 3397 
L 2834 2853 
Q 2591 2978 2328 3040 
Q 2066 3103 1784 3103 
Q 1356 3103 1142 2972 
Q 928 2841 928 2578 
Q 928 2378 1081 2264 
Q 1234 2150 1697 2047 
L 1894 2003 
Q 2506 1872 2764 1633 
Q 3022 1394 3022 966 
Q 3022 478 2636 193 
Q 2250 -91 1575 -91 
Q 1294 -91 989 -36 
Q 684 19 347 128 
L 347 722 
Q 666 556 975 473 
Q 1284 391 1588 391 
Q 1994 391 2212 530 
Q 2431 669 2431 922 
Q 2431 1156 2273 1281 
Q 2116 1406 1581 1522 
L 1381 1569 
Q 847 1681 609 1914 
Q 372 2147 372 2553 
Q 372 3047 722 3315 
Q 1072 3584 1716 3584 
Q 2034 3584 2315 3537 
Q 2597 3491 2834 3397 
z
" transform="scale(0.015625)"/>
       <path id="DejaVuSans-68" d="M 3513 2113 
L 3513 0 
L 2938 0 
L 2938 2094 
Q 2938 2591 2744 2837 
Q 2550 3084 2163 3084 
Q 1697 3084 1428 2787 
Q 1159 2491 1159 1978 
L 1159 0 
L 581 0 
L 581 4863 
L 1159 4863 
L 1159 2956 
Q 1366 3272 1645 3428 
Q 1925 3584 2291 3584 
Q 2894 3584 3203 3211 
Q 3513 2838 3513 2113 
z
" transform="scale(0.015625)"/>
       <path id="DejaVuSans-6f" d="M 1959 3097 
Q 1497 3097 1228 2736 
Q 959 2375 959 1747 
Q 959 1119 1226 758 
Q 1494 397 1959 397 
Q 2419 397 2687 759 
Q 2956 1122 2956 1747 
Q 2956 2369 2687 2733 
Q 2419 3097 1959 3097 
z
M 1959 3584 
Q 2709 3584 3137 3096 
Q 3566 2609 3566 1747 
Q 3566 888 3137 398 
Q 2709 -91 1959 -91 
Q 1206 -91 779 398 
Q 353 888 353 1747 
Q 353 2609 779 3096 
Q 1206 3584 1959 3584 
z
" transform="scale(0.015625)"/>
       <path id="DejaVuSans-77" d="M 269 3500 
L 844 3500 
L 1563 769 
L 2278 3500 
L 2956 3500 
L 3675 769 
L 4391 3500 
L 4966 3500 
L 4050 0 
L 3372 0 
L 2619 2869 
L 1863 0 
L 1184 0 
L 269 3500 
z
" transform="scale(0.015625)"/>
       <path id="DejaVuSans-6e" d="M 3513 2113 
L 3513 0 
L 2938 0 
L 2938 2094 
Q 2938 2591 2744 2837 
Q 2550 3084 2163 3084 
Q 1697 3084 1428 2787 
Q 1159 2491 1159 1978 
L 1159 0 
L 581 0 
L 581 3500 
L 1159 3500 
L 1159 2956 
Q 1366 3272 1645 3428 
Q 1925 3584 2291 3584 
Q 2894 3584 3203 3211 
Q 3513 2838 3513 2113 
z
" transform="scale(0.015625)"/>
      </defs>
      <use xlink:href="#DejaVuSans-49"/>
      <use xlink:href="#DejaVuSans-6d" x="29.492188"/>
      <use xlink:href="#DejaVuSans-61" x="126.904297"/>
      <use xlink:href="#DejaVuSans-67" x="188.183594"/>
      <use xlink:href="#DejaVuSans-65" x="251.660156"/>
      <use xlink:href="#DejaVuSans-20" x="313.183594"/>
      <use xlink:href="#DejaVuSans-73" x="344.970703"/>
      <use xlink:href="#DejaVuSans-68" x="397.070312"/>
      <use xlink:href="#DejaVuSans-6f" x="460.449219"/>
      <use xlink:href="#DejaVuSans-77" x="521.630859"/>
      <use xlink:href="#DejaVuSans-6e" x="603.417969"/>
     </g>
    </g>
   </g>
   <g id="matplotlib.axis_2">
    <g id="ytick_1">
     <g id="line2d_8">
      <defs>
       <path id="m92bdb86d41" d="M 0 0 
L -3.5 0 
" style="stroke: #000000; stroke-width: 0.8"/>
      </defs>
      <g>
       <use xlink:href="#m92bdb86d41" x="57.6" y="272.076387" style="stroke: #000000; stroke-width: 0.8"/>
      </g>
     </g>
     <g id="text_9">
      <!-- 0.2 -->
      <g transform="translate(34.696875 275.875606) scale(0.1 -0.1)">
       <defs>
        <path id="DejaVuSans-2e" d="M 684 794 
L 1344 794 
L 1344 0 
L 684 0 
L 684 794 
z
" transform="scale(0.015625)"/>
       </defs>
       <use xlink:href="#DejaVuSans-30"/>
       <use xlink:href="#DejaVuSans-2e" x="63.623047"/>
       <use xlink:href="#DejaVuSans-32" x="95.410156"/>
      </g>
     </g>
    </g>
    <g id="ytick_2">
     <g id="line2d_9">
      <g>
       <use xlink:href="#m92bdb86d41" x="57.6" y="217.44929" style="stroke: #000000; stroke-width: 0.8"/>
      </g>
     </g>
     <g id="text_10">
      <!-- 0.4 -->
      <g transform="translate(34.696875 221.248509) scale(0.1 -0.1)">
       <use xlink:href="#DejaVuSans-30"/>
       <use xlink:href="#DejaVuSans-2e" x="63.623047"/>
       <use xlink:href="#DejaVuSans-34" x="95.410156"/>
      </g>
     </g>
    </g>
    <g id="ytick_3">
     <g id="line2d_10">
      <g>
       <use xlink:href="#m92bdb86d41" x="57.6" y="162.822194" style="stroke: #000000; stroke-width: 0.8"/>
      </g>
     </g>
     <g id="text_11">
      <!-- 0.6 -->
      <g transform="translate(34.696875 166.621412) scale(0.1 -0.1)">
       <use xlink:href="#DejaVuSans-30"/>
       <use xlink:href="#DejaVuSans-2e" x="63.623047"/>
       <use xlink:href="#DejaVuSans-36" x="95.410156"/>
      </g>
     </g>
    </g>
    <g id="ytick_4">
     <g id="line2d_11">
      <g>
       <use xlink:href="#m92bdb86d41" x="57.6" y="108.195097" style="stroke: #000000; stroke-width: 0.8"/>
      </g>
     </g>
     <g id="text_12">
      <!-- 0.8 -->
      <g transform="translate(34.696875 111.994316) scale(0.1 -0.1)">
       <defs>
        <path id="DejaVuSans-38" d="M 2034 2216 
Q 1584 2216 1326 1975 
Q 1069 1734 1069 1313 
Q 1069 891 1326 650 
Q 1584 409 2034 409 
Q 2484 409 2743 651 
Q 3003 894 3003 1313 
Q 3003 1734 2745 1975 
Q 2488 2216 2034 2216 
z
M 1403 2484 
Q 997 2584 770 2862 
Q 544 3141 544 3541 
Q 544 4100 942 4425 
Q 1341 4750 2034 4750 
Q 2731 4750 3128 4425 
Q 3525 4100 3525 3541 
Q 3525 3141 3298 2862 
Q 3072 2584 2669 2484 
Q 3125 2378 3379 2068 
Q 3634 1759 3634 1313 
Q 3634 634 3220 271 
Q 2806 -91 2034 -91 
Q 1263 -91 848 271 
Q 434 634 434 1313 
Q 434 1759 690 2068 
Q 947 2378 1403 2484 
z
M 1172 3481 
Q 1172 3119 1398 2916 
Q 1625 2713 2034 2713 
Q 2441 2713 2670 2916 
Q 2900 3119 2900 3481 
Q 2900 3844 2670 4047 
Q 2441 4250 2034 4250 
Q 1625 4250 1398 4047 
Q 1172 3844 1172 3481 
z
" transform="scale(0.015625)"/>
       </defs>
       <use xlink:href="#DejaVuSans-30"/>
       <use xlink:href="#DejaVuSans-2e" x="63.623047"/>
       <use xlink:href="#DejaVuSans-38" x="95.410156"/>
      </g>
     </g>
    </g>
    <g id="ytick_5">
     <g id="line2d_12">
      <g>
       <use xlink:href="#m92bdb86d41" x="57.6" y="53.568" style="stroke: #000000; stroke-width: 0.8"/>
      </g>
     </g>
     <g id="text_13">
      <!-- 1.0 -->
      <g transform="translate(34.696875 57.367219) scale(0.1 -0.1)">
       <use xlink:href="#DejaVuSans-31"/>
       <use xlink:href="#DejaVuSans-2e" x="63.623047"/>
       <use xlink:href="#DejaVuSans-30" x="95.410156"/>
      </g>
     </g>
    </g>
    <g id="text_14">
     <!-- Homogeneity of output spikes -->
     <g transform="translate(28.617187 249.723312) rotate(-90) scale(0.1 -0.1)">
      <defs>
       <path id="DejaVuSans-48" d="M 628 4666 
L 1259 4666 
L 1259 2753 
L 3553 2753 
L 3553 4666 
L 4184 4666 
L 4184 0 
L 3553 0 
L 3553 2222 
L 1259 2222 
L 1259 0 
L 628 0 
L 628 4666 
z
" transform="scale(0.015625)"/>
       <path id="DejaVuSans-69" d="M 603 3500 
L 1178 3500 
L 1178 0 
L 603 0 
L 603 3500 
z
M 603 4863 
L 1178 4863 
L 1178 4134 
L 603 4134 
L 603 4863 
z
" transform="scale(0.015625)"/>
       <path id="DejaVuSans-74" d="M 1172 4494 
L 1172 3500 
L 2356 3500 
L 2356 3053 
L 1172 3053 
L 1172 1153 
Q 1172 725 1289 603 
Q 1406 481 1766 481 
L 2356 481 
L 2356 0 
L 1766 0 
Q 1100 0 847 248 
Q 594 497 594 1153 
L 594 3053 
L 172 3053 
L 172 3500 
L 594 3500 
L 594 4494 
L 1172 4494 
z
" transform="scale(0.015625)"/>
       <path id="DejaVuSans-79" d="M 2059 -325 
Q 1816 -950 1584 -1140 
Q 1353 -1331 966 -1331 
L 506 -1331 
L 506 -850 
L 844 -850 
Q 1081 -850 1212 -737 
Q 1344 -625 1503 -206 
L 1606 56 
L 191 3500 
L 800 3500 
L 1894 763 
L 2988 3500 
L 3597 3500 
L 2059 -325 
z
" transform="scale(0.015625)"/>
       <path id="DejaVuSans-66" d="M 2375 4863 
L 2375 4384 
L 1825 4384 
Q 1516 4384 1395 4259 
Q 1275 4134 1275 3809 
L 1275 3500 
L 2222 3500 
L 2222 3053 
L 1275 3053 
L 1275 0 
L 697 0 
L 697 3053 
L 147 3053 
L 147 3500 
L 697 3500 
L 697 3744 
Q 697 4328 969 4595 
Q 1241 4863 1831 4863 
L 2375 4863 
z
" transform="scale(0.015625)"/>
       <path id="DejaVuSans-75" d="M 544 1381 
L 544 3500 
L 1119 3500 
L 1119 1403 
Q 1119 906 1312 657 
Q 1506 409 1894 409 
Q 2359 409 2629 706 
Q 2900 1003 2900 1516 
L 2900 3500 
L 3475 3500 
L 3475 0 
L 2900 0 
L 2900 538 
Q 2691 219 2414 64 
Q 2138 -91 1772 -91 
Q 1169 -91 856 284 
Q 544 659 544 1381 
z
M 1991 3584 
L 1991 3584 
z
" transform="scale(0.015625)"/>
       <path id="DejaVuSans-70" d="M 1159 525 
L 1159 -1331 
L 581 -1331 
L 581 3500 
L 1159 3500 
L 1159 2969 
Q 1341 3281 1617 3432 
Q 1894 3584 2278 3584 
Q 2916 3584 3314 3078 
Q 3713 2572 3713 1747 
Q 3713 922 3314 415 
Q 2916 -91 2278 -91 
Q 1894 -91 1617 61 
Q 1341 213 1159 525 
z
M 3116 1747 
Q 3116 2381 2855 2742 
Q 2594 3103 2138 3103 
Q 1681 3103 1420 2742 
Q 1159 2381 1159 1747 
Q 1159 1113 1420 752 
Q 1681 391 2138 391 
Q 2594 391 2855 752 
Q 3116 1113 3116 1747 
z
" transform="scale(0.015625)"/>
       <path id="DejaVuSans-6b" d="M 581 4863 
L 1159 4863 
L 1159 1991 
L 2875 3500 
L 3609 3500 
L 1753 1863 
L 3688 0 
L 2938 0 
L 1159 1709 
L 1159 0 
L 581 0 
L 581 4863 
z
" transform="scale(0.015625)"/>
      </defs>
      <use xlink:href="#DejaVuSans-48"/>
      <use xlink:href="#DejaVuSans-6f" x="75.195312"/>
      <use xlink:href="#DejaVuSans-6d" x="136.376953"/>
      <use xlink:href="#DejaVuSans-6f" x="233.789062"/>
      <use xlink:href="#DejaVuSans-67" x="294.970703"/>
      <use xlink:href="#DejaVuSans-65" x="358.447266"/>
      <use xlink:href="#DejaVuSans-6e" x="419.970703"/>
      <use xlink:href="#DejaVuSans-65" x="483.349609"/>
      <use xlink:href="#DejaVuSans-69" x="544.873047"/>
      <use xlink:href="#DejaVuSans-74" x="572.65625"/>
      <use xlink:href="#DejaVuSans-79" x="611.865234"/>
      <use xlink:href="#DejaVuSans-20" x="671.044922"/>
      <use xlink:href="#DejaVuSans-6f" x="702.832031"/>
      <use xlink:href="#DejaVuSans-66" x="764.013672"/>
      <use xlink:href="#DejaVuSans-20" x="799.21875"/>
      <use xlink:href="#DejaVuSans-6f" x="831.005859"/>
      <use xlink:href="#DejaVuSans-75" x="892.1875"/>
      <use xlink:href="#DejaVuSans-74" x="955.566406"/>
      <use xlink:href="#DejaVuSans-70" x="994.775391"/>
      <use xlink:href="#DejaVuSans-75" x="1058.251953"/>
      <use xlink:href="#DejaVuSans-74" x="1121.630859"/>
      <use xlink:href="#DejaVuSans-20" x="1160.839844"/>
      <use xlink:href="#DejaVuSans-73" x="1192.626953"/>
      <use xlink:href="#DejaVuSans-70" x="1244.726562"/>
      <use xlink:href="#DejaVuSans-69" x="1308.203125"/>
      <use xlink:href="#DejaVuSans-6b" x="1335.986328"/>
      <use xlink:href="#DejaVuSans-65" x="1390.271484"/>
      <use xlink:href="#DejaVuSans-73" x="1451.794922"/>
     </g>
    </g>
   </g>
   <g id="line2d_13">
    <path d="M 73.832727 273.838552 
L 74.333737 278.904774 
L 74.834747 280.070596 
L 75.335758 278.503104 
L 75.836768 284.68264 
L 76.337778 279.201661 
L 76.838788 289.793283 
L 77.339798 290.764604 
L 77.840808 277.92929 
L 78.341818 286.536501 
L 79.343838 272.076387 
L 79.844848 278.503104 
L 80.345859 283.250111 
L 80.846869 277.679166 
L 81.347879 278.503104 
L 81.848889 283.576829 
L 82.349899 275.490581 
L 82.850909 287.684129 
L 83.351919 290.628986 
L 83.852929 270.675692 
L 84.353939 284.215742 
L 84.854949 278.503104 
L 85.35596 286.536501 
L 85.85697 285.733161 
L 86.35798 277.679166 
L 86.85899 278.904774 
L 87.36 291.460196 
L 87.86101 283.250111 
L 88.36202 280.070596 
L 88.86303 272.076387 
L 89.36404 287.684129 
L 89.865051 284.68264 
L 90.366061 275.490581 
L 90.867071 273.593806 
L 91.368081 275.029203 
L 91.869091 275.88758 
L 92.370101 279.880258 
L 92.871111 278.904774 
L 93.372121 280.070596 
L 93.873131 280.070596 
L 94.374141 287.684129 
L 94.875152 288.768 
L 95.376162 284.026065 
L 95.877172 270.469708 
L 96.378182 279.611159 
L 96.879192 284.68264 
L 97.380202 285.733161 
L 97.881212 278.503104 
L 98.382222 284.026065 
L 98.883232 284.68264 
L 99.384242 269.201277 
L 99.885253 272.076387 
L 100.887273 288.591556 
L 101.388283 283.576829 
L 101.889293 284.68264 
L 102.390303 242.661797 
L 102.891313 290.285419 
L 103.392323 272.076387 
L 103.893333 272.076387 
L 104.394343 287.684129 
L 104.895354 263.672218 
L 105.396364 284.68264 
L 105.897374 279.201661 
L 106.398384 280.070596 
L 106.899394 276.389053 
L 107.400404 286.536501 
L 107.901414 282.649374 
L 108.402424 284.026065 
L 108.903434 286.732437 
L 109.404444 288.768 
L 109.905455 274.677677 
L 110.406465 279.611159 
L 110.907475 282.239568 
L 111.408485 281.180903 
L 111.909495 277.92929 
L 112.410505 275.88758 
L 112.911515 286.536501 
L 113.412525 272.076387 
L 113.913535 284.026065 
L 114.414545 289.457736 
L 114.915556 278.146065 
L 115.416566 286.732437 
L 115.917576 258.419613 
L 116.418586 260.488821 
L 116.919596 281.180903 
L 117.420606 287.684129 
L 117.921616 281.180903 
L 118.422626 272.076387 
L 118.923636 270.469708 
L 119.424646 275.029203 
L 119.925657 289.793283 
L 120.927677 268.765654 
L 121.428687 273.838552 
L 121.929697 282.411243 
L 122.430707 281.180903 
L 122.931717 288.768 
L 123.432727 284.68264 
L 123.933737 283.250111 
L 124.434747 273.263933 
L 124.935758 281.180903 
L 125.436768 280.070596 
L 125.937778 280.070596 
L 126.438788 266.746914 
L 126.939798 289.793283 
L 127.440808 283.001806 
L 127.941818 279.880258 
L 128.442828 268.174452 
L 128.943838 285.31932 
L 129.945859 273.408755 
L 130.446869 272.076387 
L 130.947879 291.835124 
L 131.448889 264.272516 
L 131.949899 286.871226 
L 132.450909 267.326205 
L 132.951919 275.490581 
L 133.452929 267.647163 
L 133.953939 280.070596 
L 134.454949 273.593806 
L 134.95596 277.92929 
L 135.95798 289.457736 
L 136.45899 278.503104 
L 136.96 286.732437 
L 137.46101 283.576829 
L 137.96202 275.029203 
L 138.46303 287.684129 
L 138.96404 258.419613 
L 139.465051 281.180903 
L 139.966061 281.180903 
L 140.467071 276.389053 
L 140.968081 270.192694 
L 141.469091 288.768 
L 141.970101 270.469708 
L 142.471111 288.768 
L 142.972121 288.768 
L 143.473131 283.250111 
L 143.974141 282.411243 
L 144.475152 276.122839 
L 144.976162 281.180903 
L 145.477172 273.838552 
L 145.978182 282.649374 
L 146.479192 282.649374 
L 146.980202 284.68264 
L 147.982222 267.647163 
L 148.483232 283.250111 
L 148.984242 268.174452 
L 149.485253 278.904774 
L 149.986263 282.411243 
L 150.487273 291.686114 
L 150.988283 279.611159 
L 151.489293 290.764604 
L 151.990303 278.904774 
L 152.491313 285.31932 
L 152.992323 281.180903 
L 153.493333 262.971871 
L 153.994343 284.68264 
L 154.495354 275.029203 
L 154.996364 283.250111 
L 155.497374 273.593806 
L 155.998384 272.076387 
L 156.499394 260.488821 
L 157.000404 290.285419 
L 157.501414 277.679166 
L 158.002424 272.076387 
L 158.503434 282.649374 
L 159.004444 286.536501 
L 159.505455 285.31932 
L 160.006465 289.793283 
L 160.507475 272.076387 
L 161.008485 285.31932 
L 161.509495 277.679166 
L 162.010505 260.774229 
L 162.511515 294.569898 
L 163.012525 273.838552 
L 163.513535 286.238968 
L 164.014545 287.684129 
L 164.515556 281.180903 
L 165.016566 278.503104 
L 165.517576 267.326205 
L 166.018586 286.732437 
L 166.519596 279.880258 
L 167.020606 284.68264 
L 167.521616 275.029203 
L 168.022626 291.686114 
L 168.523636 279.880258 
L 169.024646 275.029203 
L 169.525657 275.029203 
L 170.026667 278.503104 
L 170.527677 286.732437 
L 171.028687 267.326205 
L 171.529697 285.733161 
L 172.531717 289.793283 
L 173.032727 278.503104 
L 173.533737 281.180903 
L 174.034747 268.765654 
L 174.535758 278.904774 
L 175.036768 283.858702 
L 175.537778 279.880258 
L 176.038788 291.686114 
L 176.539798 281.180903 
L 177.040808 280.212338 
L 177.541818 266.00671 
L 178.042828 272.076387 
L 178.543838 273.593806 
L 179.545859 290.285419 
L 180.046869 266.955097 
L 180.547879 266.00671 
L 181.048889 287.684129 
L 182.050909 268.765654 
L 182.551919 284.68264 
L 183.052929 276.389053 
L 183.553939 285.733161 
L 184.054949 273.838552 
L 184.55596 277.679166 
L 185.05697 288.591556 
L 185.55798 288.768 
L 186.05899 275.490581 
L 186.56 286.536501 
L 187.06101 273.408755 
L 187.56202 277.679166 
L 188.06303 275.490581 
L 188.56404 270.469708 
L 189.065051 287.684129 
L 189.566061 281.180903 
L 190.067071 278.503104 
L 190.568081 268.765654 
L 191.069091 287.684129 
L 191.570101 288.591556 
L 192.071111 291.460196 
L 192.572121 268.174452 
L 193.073131 286.238968 
L 193.574141 273.593806 
L 194.075152 285.733161 
L 194.576162 278.503104 
L 195.077172 273.593806 
L 195.578182 284.215742 
L 196.079192 280.070596 
L 196.580202 282.411243 
L 197.081212 282.411243 
L 197.582222 281.180903 
L 198.083232 282.649374 
L 198.584242 276.389053 
L 199.085253 278.904774 
L 199.586263 284.026065 
L 200.087273 287.684129 
L 200.588283 277.042487 
L 201.089293 281.180903 
L 201.590303 287.684129 
L 202.091313 279.611159 
L 202.592323 274.677677 
L 203.093333 283.576829 
L 204.095354 272.076387 
L 204.596364 283.576829 
L 205.097374 273.838552 
L 205.598384 273.593806 
L 206.099394 275.029203 
L 206.600404 283.576829 
L 207.101414 275.029203 
L 207.602424 285.733161 
L 208.103434 273.838552 
L 208.604444 266.00671 
L 209.105455 282.411243 
L 209.606465 273.408755 
L 210.107475 281.180903 
L 211.109495 278.904774 
L 211.610505 278.503104 
L 212.111515 258.419613 
L 212.612525 276.389053 
L 213.113535 273.838552 
L 213.614545 281.180903 
L 214.115556 290.285419 
L 214.616566 287.684129 
L 215.117576 277.042487 
L 215.618586 277.679166 
L 216.119596 281.180903 
L 216.620606 288.591556 
L 217.121616 270.192694 
L 217.622626 288.591556 
L 219.125657 276.389053 
L 219.626667 282.649374 
L 220.127677 275.490581 
L 220.628687 277.679166 
L 221.129697 292.561548 
L 221.630707 277.679166 
L 222.131717 284.68264 
L 222.632727 287.684129 
L 223.133737 285.31932 
L 223.634747 260.774229 
L 224.135758 263.672218 
L 224.636768 282.411243 
L 225.137778 289.029624 
L 225.638788 285.31932 
L 226.139798 290.285419 
L 227.141818 281.180903 
L 227.642828 289.029624 
L 228.143838 293.596152 
L 228.644848 266.00671 
L 229.145859 285.733161 
L 229.646869 283.576829 
L 230.147879 283.576829 
L 230.648889 287.684129 
L 231.149899 285.733161 
L 231.650909 284.68264 
L 232.151919 266.955097 
L 232.652929 279.880258 
L 233.153939 282.239568 
L 233.654949 282.109935 
L 234.15596 278.503104 
L 234.65697 270.469708 
L 235.15798 284.68264 
L 236.16 282.411243 
L 236.66101 278.503104 
L 237.16202 282.649374 
L 237.66303 269.201277 
L 238.16404 273.838552 
L 238.665051 279.611159 
L 239.166061 283.576829 
L 239.667071 285.31932 
L 240.168081 281.180903 
L 240.669091 284.026065 
L 241.170101 284.68264 
L 241.671111 279.201661 
L 242.172121 290.764604 
L 242.673131 289.793283 
L 243.174141 282.411243 
L 243.675152 288.768 
L 244.176162 263.672218 
L 244.677172 285.733161 
L 245.178182 281.180903 
L 245.679192 281.180903 
L 246.180202 282.649374 
L 246.681212 290.285419 
L 247.182222 284.215742 
L 247.683232 272.076387 
L 248.184242 288.768 
L 248.685253 282.411243 
L 249.186263 282.411243 
L 249.687273 278.503104 
L 250.188283 281.180903 
L 250.689293 289.457736 
L 251.190303 291.686114 
L 251.691313 284.68264 
L 252.192323 286.871226 
L 252.693333 281.180903 
L 253.194343 282.411243 
L 253.695354 284.026065 
L 254.196364 288.768 
L 254.697374 277.92929 
L 255.198384 284.68264 
L 255.699394 277.679166 
L 256.200404 284.026065 
L 256.701414 275.029203 
L 257.202424 273.838552 
L 257.703434 292.561548 
L 258.204444 275.490581 
L 258.705455 289.2143 
L 259.206465 291.686114 
L 259.707475 285.31932 
L 260.208485 287.684129 
L 260.709495 262.971871 
L 261.210505 281.180903 
L 261.711515 285.31932 
L 262.212525 285.31932 
L 262.713535 273.593806 
L 263.214545 269.201277 
L 263.715556 284.026065 
L 264.216566 274.177429 
L 264.717576 281.180903 
L 265.218586 286.023731 
L 265.719596 287.684129 
L 266.220606 287.684129 
L 266.721616 278.904774 
L 267.222626 272.076387 
L 267.723636 258.419613 
L 268.224646 263.672218 
L 268.725657 275.490581 
L 269.226667 277.92929 
L 269.727677 282.411243 
L 270.228687 279.880258 
L 270.729697 286.536501 
L 271.230707 284.68264 
L 271.731717 283.576829 
L 272.232727 273.838552 
L 272.733737 278.503104 
L 273.234747 284.215742 
L 273.735758 287.684129 
L 274.236768 275.029203 
L 274.737778 277.042487 
L 275.238788 268.589551 
L 275.739798 274.177429 
L 276.240808 268.765654 
L 276.741818 278.904774 
L 277.743838 281.180903 
L 278.745859 281.180903 
L 279.246869 287.684129 
L 279.747879 287.684129 
L 280.248889 281.180903 
L 280.749899 272.076387 
L 281.751919 291.686114 
L 282.252929 270.675692 
L 282.753939 283.001806 
L 283.254949 282.649374 
L 283.75596 279.880258 
L 284.25697 286.732437 
L 284.75798 289.793283 
L 285.25899 282.649374 
L 285.76 289.029624 
L 286.26101 282.411243 
L 286.76202 286.732437 
L 287.26303 277.679166 
L 287.76404 283.250111 
L 288.265051 282.239568 
L 288.766061 285.733161 
L 289.267071 266.955097 
L 289.768081 283.576829 
L 290.269091 285.733161 
L 290.770101 284.68264 
L 291.271111 286.732437 
L 291.772121 277.92929 
L 292.273131 282.649374 
L 292.774141 281.180903 
L 293.776162 286.238968 
L 294.277172 277.679166 
L 294.778182 284.026065 
L 295.279192 281.180903 
L 295.780202 282.649374 
L 296.281212 275.490581 
L 296.782222 284.026065 
L 297.283232 285.733161 
L 297.784242 267.326205 
L 298.285253 274.677677 
L 298.786263 285.31932 
L 299.287273 282.411243 
L 299.788283 286.732437 
L 300.289293 282.411243 
L 300.790303 279.880258 
L 301.291313 285.733161 
L 302.293333 278.503104 
L 303.796364 286.732437 
L 304.297374 277.92929 
L 304.798384 285.31932 
L 305.299394 289.793283 
L 305.800404 282.411243 
L 306.301414 278.146065 
L 306.802424 286.536501 
L 307.303434 283.576829 
L 307.804444 287.684129 
L 308.305455 279.611159 
L 308.806465 284.026065 
L 309.307475 285.733161 
L 309.808485 282.411243 
L 310.309495 295.488 
L 310.810505 285.31932 
L 311.311515 285.31932 
L 311.812525 285.733161 
L 312.313535 292.561548 
L 313.315556 272.076387 
L 313.816566 273.838552 
L 314.317576 289.793283 
L 314.818586 290.764604 
L 315.319596 289.457736 
L 315.820606 289.793283 
L 316.321616 284.026065 
L 316.822626 289.029624 
L 317.323636 260.488821 
L 317.824646 285.31932 
L 318.325657 284.68264 
L 318.826667 273.593806 
L 319.327677 285.733161 
L 319.828687 284.026065 
L 320.329697 287.684129 
L 320.830707 286.732437 
L 321.331717 294.569898 
L 321.832727 287.684129 
L 322.333737 284.026065 
L 322.834747 283.001806 
L 323.335758 288.768 
L 323.836768 283.250111 
L 324.337778 286.871226 
L 324.838788 279.880258 
L 325.339798 270.675692 
L 325.840808 284.026065 
L 326.341818 263.672218 
L 326.842828 286.536501 
L 327.343838 287.684129 
L 327.844848 282.411243 
L 328.345859 290.764604 
L 328.846869 286.732437 
L 329.347879 284.68264 
L 329.848889 291.835124 
L 330.349899 282.411243 
L 330.850909 279.880258 
L 331.351919 282.411243 
L 331.852929 281.180903 
L 332.353939 285.31932 
L 333.35596 270.469708 
L 333.85697 275.490581 
L 334.35798 282.649374 
L 334.85899 275.490581 
L 335.36 286.238968 
L 335.86101 284.68264 
L 337.36404 235.658323 
L 337.865051 263.672218 
L 338.366061 258.419613 
L 338.867071 235.658323 
L 339.368081 252.211988 
L 339.869091 235.658323 
L 340.370101 53.568 
L 340.871111 235.658323 
L 341.873131 144.613161 
L 342.374141 53.568 
L 342.875152 258.419613 
L 343.376162 190.135742 
L 343.877172 53.568 
L 344.879192 53.568 
L 345.380202 190.135742 
L 345.881212 190.135742 
L 346.382222 53.568 
L 346.883232 258.419613 
L 347.384242 190.135742 
L 347.885253 190.135742 
L 348.386263 235.658323 
L 348.887273 190.135742 
L 349.889293 190.135742 
L 350.390303 53.568 
L 350.891313 144.613161 
L 351.392323 53.568 
L 351.893333 53.568 
L 352.394343 190.135742 
L 352.895354 53.568 
L 354.899394 53.568 
L 355.400404 190.135742 
L 355.901414 53.568 
L 356.402424 144.613161 
L 356.903434 53.568 
L 361.913535 53.568 
L 362.414545 190.135742 
L 363.416566 190.135742 
L 363.917576 144.613161 
L 364.418586 190.135742 
L 364.919596 53.568 
L 365.420606 190.135742 
L 365.921616 190.135742 
L 366.422626 53.568 
L 366.923636 190.135742 
L 367.424646 53.568 
L 367.925657 190.135742 
L 368.426667 53.568 
L 372.434747 53.568 
L 372.935758 190.135742 
L 373.436768 53.568 
L 377.444848 53.568 
L 377.945859 190.135742 
L 378.446869 53.568 
L 382.454949 53.568 
L 382.95596 190.135742 
L 383.45697 53.568 
L 383.95798 190.135742 
L 384.45899 53.568 
L 384.96 190.135742 
L 385.46101 190.135742 
L 385.96202 53.568 
L 390.972121 53.568 
L 391.473131 144.613161 
L 391.974141 53.568 
L 393.978182 53.568 
L 394.479192 190.135742 
L 394.980202 53.568 
L 398.487273 53.568 
L 398.487273 53.568 
" clip-path="url(#p1d45855b97)" style="fill: none; stroke: #1f77b4; stroke-width: 1.5; stroke-linecap: square"/>
   </g>
   <g id="patch_3">
    <path d="M 57.6 307.584 
L 57.6 41.472 
" style="fill: none; stroke: #000000; stroke-width: 0.8; stroke-linejoin: miter; stroke-linecap: square"/>
   </g>
   <g id="patch_4">
    <path d="M 414.72 307.584 
L 414.72 41.472 
" style="fill: none; stroke: #000000; stroke-width: 0.8; stroke-linejoin: miter; stroke-linecap: square"/>
   </g>
   <g id="patch_5">
    <path d="M 57.6 307.584 
L 414.72 307.584 
" style="fill: none; stroke: #000000; stroke-width: 0.8; stroke-linejoin: miter; stroke-linecap: square"/>
   </g>
   <g id="patch_6">
    <path d="M 57.6 41.472 
L 414.72 41.472 
" style="fill: none; stroke: #000000; stroke-width: 0.8; stroke-linejoin: miter; stroke-linecap: square"/>
   </g>
   <g id="text_15">
    <!-- Certainty of network -->
    <g transform="translate(174.447187 35.472) scale(0.12 -0.12)">
     <defs>
      <path id="DejaVuSans-43" d="M 4122 4306 
L 4122 3641 
Q 3803 3938 3442 4084 
Q 3081 4231 2675 4231 
Q 1875 4231 1450 3742 
Q 1025 3253 1025 2328 
Q 1025 1406 1450 917 
Q 1875 428 2675 428 
Q 3081 428 3442 575 
Q 3803 722 4122 1019 
L 4122 359 
Q 3791 134 3420 21 
Q 3050 -91 2638 -91 
Q 1578 -91 968 557 
Q 359 1206 359 2328 
Q 359 3453 968 4101 
Q 1578 4750 2638 4750 
Q 3056 4750 3426 4639 
Q 3797 4528 4122 4306 
z
" transform="scale(0.015625)"/>
      <path id="DejaVuSans-72" d="M 2631 2963 
Q 2534 3019 2420 3045 
Q 2306 3072 2169 3072 
Q 1681 3072 1420 2755 
Q 1159 2438 1159 1844 
L 1159 0 
L 581 0 
L 581 3500 
L 1159 3500 
L 1159 2956 
Q 1341 3275 1631 3429 
Q 1922 3584 2338 3584 
Q 2397 3584 2469 3576 
Q 2541 3569 2628 3553 
L 2631 2963 
z
" transform="scale(0.015625)"/>
     </defs>
     <use xlink:href="#DejaVuSans-43"/>
     <use xlink:href="#DejaVuSans-65" x="69.824219"/>
     <use xlink:href="#DejaVuSans-72" x="131.347656"/>
     <use xlink:href="#DejaVuSans-74" x="172.460938"/>
     <use xlink:href="#DejaVuSans-61" x="211.669922"/>
     <use xlink:href="#DejaVuSans-69" x="272.949219"/>
     <use xlink:href="#DejaVuSans-6e" x="300.732422"/>
     <use xlink:href="#DejaVuSans-74" x="364.111328"/>
     <use xlink:href="#DejaVuSans-79" x="403.320312"/>
     <use xlink:href="#DejaVuSans-20" x="462.5"/>
     <use xlink:href="#DejaVuSans-6f" x="494.287109"/>
     <use xlink:href="#DejaVuSans-66" x="555.46875"/>
     <use xlink:href="#DejaVuSans-20" x="590.673828"/>
     <use xlink:href="#DejaVuSans-6e" x="622.460938"/>
     <use xlink:href="#DejaVuSans-65" x="685.839844"/>
     <use xlink:href="#DejaVuSans-74" x="747.363281"/>
     <use xlink:href="#DejaVuSans-77" x="786.572266"/>
     <use xlink:href="#DejaVuSans-6f" x="868.359375"/>
     <use xlink:href="#DejaVuSans-72" x="929.541016"/>
     <use xlink:href="#DejaVuSans-6b" x="970.654297"/>
    </g>
   </g>
  </g>
 </g>
 <defs>
  <clipPath id="p1d45855b97">
   <rect x="57.6" y="41.472" width="357.12" height="266.112"/>
  </clipPath>
 </defs>
</svg>
