<?xml version="1.0" encoding="utf-8" standalone="no"?>
<!DOCTYPE svg PUBLIC "-//W3C//DTD SVG 1.1//EN"
  "http://www.w3.org/Graphics/SVG/1.1/DTD/svg11.dtd">
<svg xmlns:xlink="http://www.w3.org/1999/xlink" width="460.8pt" height="345.6pt" viewBox="0 0 460.8 345.6" xmlns="http://www.w3.org/2000/svg" version="1.1">
 <metadata>
  <rdf:RDF xmlns:dc="http://purl.org/dc/elements/1.1/" xmlns:cc="http://creativecommons.org/ns#" xmlns:rdf="http://www.w3.org/1999/02/22-rdf-syntax-ns#">
   <cc:Work>
    <dc:type rdf:resource="http://purl.org/dc/dcmitype/StillImage"/>
    <dc:date>2023-05-03T18:29:56.579917</dc:date>
    <dc:format>image/svg+xml</dc:format>
    <dc:creator>
     <cc:Agent>
      <dc:title>Matplotlib v3.6.2, https://matplotlib.org/</dc:title>
     </cc:Agent>
    </dc:creator>
   </cc:Work>
  </rdf:RDF>
 </metadata>
 <defs>
  <style type="text/css">*{stroke-linejoin: round; stroke-linecap: butt}</style>
 </defs>
 <g id="figure_1">
  <g id="patch_1">
   <path d="M 0 345.6 
L 460.8 345.6 
L 460.8 0 
L 0 0 
z
" style="fill: #ffffff"/>
  </g>
  <g id="axes_1">
   <g id="patch_2">
    <path d="M 57.6 307.584 
L 414.72 307.584 
L 414.72 41.472 
L 57.6 41.472 
z
" style="fill: #ffffff"/>
   </g>
   <g id="matplotlib.axis_1">
    <g id="xtick_1">
     <g id="line2d_1">
      <defs>
       <path id="mac4da6deb5" d="M 0 0 
L 0 3.5 
" style="stroke: #000000; stroke-width: 0.8"/>
      </defs>
      <g>
       <use xlink:href="#mac4da6deb5" x="73.832727" y="307.584" style="stroke: #000000; stroke-width: 0.8"/>
      </g>
     </g>
     <g id="text_1">
      <!-- 0 -->
      <g transform="translate(70.651477 322.182437) scale(0.1 -0.1)">
       <defs>
        <path id="DejaVuSans-30" d="M 2034 4250 
Q 1547 4250 1301 3770 
Q 1056 3291 1056 2328 
Q 1056 1369 1301 889 
Q 1547 409 2034 409 
Q 2525 409 2770 889 
Q 3016 1369 3016 2328 
Q 3016 3291 2770 3770 
Q 2525 4250 2034 4250 
z
M 2034 4750 
Q 2819 4750 3233 4129 
Q 3647 3509 3647 2328 
Q 3647 1150 3233 529 
Q 2819 -91 2034 -91 
Q 1250 -91 836 529 
Q 422 1150 422 2328 
Q 422 3509 836 4129 
Q 1250 4750 2034 4750 
z
" transform="scale(0.015625)"/>
       </defs>
       <use xlink:href="#DejaVuSans-30"/>
      </g>
     </g>
    </g>
    <g id="xtick_2">
     <g id="line2d_2">
      <g>
       <use xlink:href="#mac4da6deb5" x="114.424693" y="307.584" style="stroke: #000000; stroke-width: 0.8"/>
      </g>
     </g>
     <g id="text_2">
      <!-- 500 -->
      <g transform="translate(104.880943 322.182437) scale(0.1 -0.1)">
       <defs>
        <path id="DejaVuSans-35" d="M 691 4666 
L 3169 4666 
L 3169 4134 
L 1269 4134 
L 1269 2991 
Q 1406 3038 1543 3061 
Q 1681 3084 1819 3084 
Q 2600 3084 3056 2656 
Q 3513 2228 3513 1497 
Q 3513 744 3044 326 
Q 2575 -91 1722 -91 
Q 1428 -91 1123 -41 
Q 819 9 494 109 
L 494 744 
Q 775 591 1075 516 
Q 1375 441 1709 441 
Q 2250 441 2565 725 
Q 2881 1009 2881 1497 
Q 2881 1984 2565 2268 
Q 2250 2553 1709 2553 
Q 1456 2553 1204 2497 
Q 953 2441 691 2322 
L 691 4666 
z
" transform="scale(0.015625)"/>
       </defs>
       <use xlink:href="#DejaVuSans-35"/>
       <use xlink:href="#DejaVuSans-30" x="63.623047"/>
       <use xlink:href="#DejaVuSans-30" x="127.246094"/>
      </g>
     </g>
    </g>
    <g id="xtick_3">
     <g id="line2d_3">
      <g>
       <use xlink:href="#mac4da6deb5" x="155.01666" y="307.584" style="stroke: #000000; stroke-width: 0.8"/>
      </g>
     </g>
     <g id="text_3">
      <!-- 1000 -->
      <g transform="translate(142.29166 322.182437) scale(0.1 -0.1)">
       <defs>
        <path id="DejaVuSans-31" d="M 794 531 
L 1825 531 
L 1825 4091 
L 703 3866 
L 703 4441 
L 1819 4666 
L 2450 4666 
L 2450 531 
L 3481 531 
L 3481 0 
L 794 0 
L 794 531 
z
" transform="scale(0.015625)"/>
       </defs>
       <use xlink:href="#DejaVuSans-31"/>
       <use xlink:href="#DejaVuSans-30" x="63.623047"/>
       <use xlink:href="#DejaVuSans-30" x="127.246094"/>
       <use xlink:href="#DejaVuSans-30" x="190.869141"/>
      </g>
     </g>
    </g>
    <g id="xtick_4">
     <g id="line2d_4">
      <g>
       <use xlink:href="#mac4da6deb5" x="195.608626" y="307.584" style="stroke: #000000; stroke-width: 0.8"/>
      </g>
     </g>
     <g id="text_4">
      <!-- 1500 -->
      <g transform="translate(182.883626 322.182437) scale(0.1 -0.1)">
       <use xlink:href="#DejaVuSans-31"/>
       <use xlink:href="#DejaVuSans-35" x="63.623047"/>
       <use xlink:href="#DejaVuSans-30" x="127.246094"/>
       <use xlink:href="#DejaVuSans-30" x="190.869141"/>
      </g>
     </g>
    </g>
    <g id="xtick_5">
     <g id="line2d_5">
      <g>
       <use xlink:href="#mac4da6deb5" x="236.200592" y="307.584" style="stroke: #000000; stroke-width: 0.8"/>
      </g>
     </g>
     <g id="text_5">
      <!-- 2000 -->
      <g transform="translate(223.475592 322.182437) scale(0.1 -0.1)">
       <defs>
        <path id="DejaVuSans-32" d="M 1228 531 
L 3431 531 
L 3431 0 
L 469 0 
L 469 531 
Q 828 903 1448 1529 
Q 2069 2156 2228 2338 
Q 2531 2678 2651 2914 
Q 2772 3150 2772 3378 
Q 2772 3750 2511 3984 
Q 2250 4219 1831 4219 
Q 1534 4219 1204 4116 
Q 875 4013 500 3803 
L 500 4441 
Q 881 4594 1212 4672 
Q 1544 4750 1819 4750 
Q 2544 4750 2975 4387 
Q 3406 4025 3406 3419 
Q 3406 3131 3298 2873 
Q 3191 2616 2906 2266 
Q 2828 2175 2409 1742 
Q 1991 1309 1228 531 
z
" transform="scale(0.015625)"/>
       </defs>
       <use xlink:href="#DejaVuSans-32"/>
       <use xlink:href="#DejaVuSans-30" x="63.623047"/>
       <use xlink:href="#DejaVuSans-30" x="127.246094"/>
       <use xlink:href="#DejaVuSans-30" x="190.869141"/>
      </g>
     </g>
    </g>
    <g id="xtick_6">
     <g id="line2d_6">
      <g>
       <use xlink:href="#mac4da6deb5" x="276.792558" y="307.584" style="stroke: #000000; stroke-width: 0.8"/>
      </g>
     </g>
     <g id="text_6">
      <!-- 2500 -->
      <g transform="translate(264.067558 322.182437) scale(0.1 -0.1)">
       <use xlink:href="#DejaVuSans-32"/>
       <use xlink:href="#DejaVuSans-35" x="63.623047"/>
       <use xlink:href="#DejaVuSans-30" x="127.246094"/>
       <use xlink:href="#DejaVuSans-30" x="190.869141"/>
      </g>
     </g>
    </g>
    <g id="xtick_7">
     <g id="line2d_7">
      <g>
       <use xlink:href="#mac4da6deb5" x="317.384524" y="307.584" style="stroke: #000000; stroke-width: 0.8"/>
      </g>
     </g>
     <g id="text_7">
      <!-- 3000 -->
      <g transform="translate(304.659524 322.182437) scale(0.1 -0.1)">
       <defs>
        <path id="DejaVuSans-33" d="M 2597 2516 
Q 3050 2419 3304 2112 
Q 3559 1806 3559 1356 
Q 3559 666 3084 287 
Q 2609 -91 1734 -91 
Q 1441 -91 1130 -33 
Q 819 25 488 141 
L 488 750 
Q 750 597 1062 519 
Q 1375 441 1716 441 
Q 2309 441 2620 675 
Q 2931 909 2931 1356 
Q 2931 1769 2642 2001 
Q 2353 2234 1838 2234 
L 1294 2234 
L 1294 2753 
L 1863 2753 
Q 2328 2753 2575 2939 
Q 2822 3125 2822 3475 
Q 2822 3834 2567 4026 
Q 2313 4219 1838 4219 
Q 1578 4219 1281 4162 
Q 984 4106 628 3988 
L 628 4550 
Q 988 4650 1302 4700 
Q 1616 4750 1894 4750 
Q 2613 4750 3031 4423 
Q 3450 4097 3450 3541 
Q 3450 3153 3228 2886 
Q 3006 2619 2597 2516 
z
" transform="scale(0.015625)"/>
       </defs>
       <use xlink:href="#DejaVuSans-33"/>
       <use xlink:href="#DejaVuSans-30" x="63.623047"/>
       <use xlink:href="#DejaVuSans-30" x="127.246094"/>
       <use xlink:href="#DejaVuSans-30" x="190.869141"/>
      </g>
     </g>
    </g>
    <g id="xtick_8">
     <g id="line2d_8">
      <g>
       <use xlink:href="#mac4da6deb5" x="357.97649" y="307.584" style="stroke: #000000; stroke-width: 0.8"/>
      </g>
     </g>
     <g id="text_8">
      <!-- 3500 -->
      <g transform="translate(345.25149 322.182437) scale(0.1 -0.1)">
       <use xlink:href="#DejaVuSans-33"/>
       <use xlink:href="#DejaVuSans-35" x="63.623047"/>
       <use xlink:href="#DejaVuSans-30" x="127.246094"/>
       <use xlink:href="#DejaVuSans-30" x="190.869141"/>
      </g>
     </g>
    </g>
    <g id="xtick_9">
     <g id="line2d_9">
      <g>
       <use xlink:href="#mac4da6deb5" x="398.568457" y="307.584" style="stroke: #000000; stroke-width: 0.8"/>
      </g>
     </g>
     <g id="text_9">
      <!-- 4000 -->
      <g transform="translate(385.843457 322.182437) scale(0.1 -0.1)">
       <defs>
        <path id="DejaVuSans-34" d="M 2419 4116 
L 825 1625 
L 2419 1625 
L 2419 4116 
z
M 2253 4666 
L 3047 4666 
L 3047 1625 
L 3713 1625 
L 3713 1100 
L 3047 1100 
L 3047 0 
L 2419 0 
L 2419 1100 
L 313 1100 
L 313 1709 
L 2253 4666 
z
" transform="scale(0.015625)"/>
       </defs>
       <use xlink:href="#DejaVuSans-34"/>
       <use xlink:href="#DejaVuSans-30" x="63.623047"/>
       <use xlink:href="#DejaVuSans-30" x="127.246094"/>
       <use xlink:href="#DejaVuSans-30" x="190.869141"/>
      </g>
     </g>
    </g>
    <g id="text_10">
     <!-- Image shown -->
     <g transform="translate(202.820156 335.860562) scale(0.1 -0.1)">
      <defs>
       <path id="DejaVuSans-49" d="M 628 4666 
L 1259 4666 
L 1259 0 
L 628 0 
L 628 4666 
z
" transform="scale(0.015625)"/>
       <path id="DejaVuSans-6d" d="M 3328 2828 
Q 3544 3216 3844 3400 
Q 4144 3584 4550 3584 
Q 5097 3584 5394 3201 
Q 5691 2819 5691 2113 
L 5691 0 
L 5113 0 
L 5113 2094 
Q 5113 2597 4934 2840 
Q 4756 3084 4391 3084 
Q 3944 3084 3684 2787 
Q 3425 2491 3425 1978 
L 3425 0 
L 2847 0 
L 2847 2094 
Q 2847 2600 2669 2842 
Q 2491 3084 2119 3084 
Q 1678 3084 1418 2786 
Q 1159 2488 1159 1978 
L 1159 0 
L 581 0 
L 581 3500 
L 1159 3500 
L 1159 2956 
Q 1356 3278 1631 3431 
Q 1906 3584 2284 3584 
Q 2666 3584 2933 3390 
Q 3200 3197 3328 2828 
z
" transform="scale(0.015625)"/>
       <path id="DejaVuSans-61" d="M 2194 1759 
Q 1497 1759 1228 1600 
Q 959 1441 959 1056 
Q 959 750 1161 570 
Q 1363 391 1709 391 
Q 2188 391 2477 730 
Q 2766 1069 2766 1631 
L 2766 1759 
L 2194 1759 
z
M 3341 1997 
L 3341 0 
L 2766 0 
L 2766 531 
Q 2569 213 2275 61 
Q 1981 -91 1556 -91 
Q 1019 -91 701 211 
Q 384 513 384 1019 
Q 384 1609 779 1909 
Q 1175 2209 1959 2209 
L 2766 2209 
L 2766 2266 
Q 2766 2663 2505 2880 
Q 2244 3097 1772 3097 
Q 1472 3097 1187 3025 
Q 903 2953 641 2809 
L 641 3341 
Q 956 3463 1253 3523 
Q 1550 3584 1831 3584 
Q 2591 3584 2966 3190 
Q 3341 2797 3341 1997 
z
" transform="scale(0.015625)"/>
       <path id="DejaVuSans-67" d="M 2906 1791 
Q 2906 2416 2648 2759 
Q 2391 3103 1925 3103 
Q 1463 3103 1205 2759 
Q 947 2416 947 1791 
Q 947 1169 1205 825 
Q 1463 481 1925 481 
Q 2391 481 2648 825 
Q 2906 1169 2906 1791 
z
M 3481 434 
Q 3481 -459 3084 -895 
Q 2688 -1331 1869 -1331 
Q 1566 -1331 1297 -1286 
Q 1028 -1241 775 -1147 
L 775 -588 
Q 1028 -725 1275 -790 
Q 1522 -856 1778 -856 
Q 2344 -856 2625 -561 
Q 2906 -266 2906 331 
L 2906 616 
Q 2728 306 2450 153 
Q 2172 0 1784 0 
Q 1141 0 747 490 
Q 353 981 353 1791 
Q 353 2603 747 3093 
Q 1141 3584 1784 3584 
Q 2172 3584 2450 3431 
Q 2728 3278 2906 2969 
L 2906 3500 
L 3481 3500 
L 3481 434 
z
" transform="scale(0.015625)"/>
       <path id="DejaVuSans-65" d="M 3597 1894 
L 3597 1613 
L 953 1613 
Q 991 1019 1311 708 
Q 1631 397 2203 397 
Q 2534 397 2845 478 
Q 3156 559 3463 722 
L 3463 178 
Q 3153 47 2828 -22 
Q 2503 -91 2169 -91 
Q 1331 -91 842 396 
Q 353 884 353 1716 
Q 353 2575 817 3079 
Q 1281 3584 2069 3584 
Q 2775 3584 3186 3129 
Q 3597 2675 3597 1894 
z
M 3022 2063 
Q 3016 2534 2758 2815 
Q 2500 3097 2075 3097 
Q 1594 3097 1305 2825 
Q 1016 2553 972 2059 
L 3022 2063 
z
" transform="scale(0.015625)"/>
       <path id="DejaVuSans-20" transform="scale(0.015625)"/>
       <path id="DejaVuSans-73" d="M 2834 3397 
L 2834 2853 
Q 2591 2978 2328 3040 
Q 2066 3103 1784 3103 
Q 1356 3103 1142 2972 
Q 928 2841 928 2578 
Q 928 2378 1081 2264 
Q 1234 2150 1697 2047 
L 1894 2003 
Q 2506 1872 2764 1633 
Q 3022 1394 3022 966 
Q 3022 478 2636 193 
Q 2250 -91 1575 -91 
Q 1294 -91 989 -36 
Q 684 19 347 128 
L 347 722 
Q 666 556 975 473 
Q 1284 391 1588 391 
Q 1994 391 2212 530 
Q 2431 669 2431 922 
Q 2431 1156 2273 1281 
Q 2116 1406 1581 1522 
L 1381 1569 
Q 847 1681 609 1914 
Q 372 2147 372 2553 
Q 372 3047 722 3315 
Q 1072 3584 1716 3584 
Q 2034 3584 2315 3537 
Q 2597 3491 2834 3397 
z
" transform="scale(0.015625)"/>
       <path id="DejaVuSans-68" d="M 3513 2113 
L 3513 0 
L 2938 0 
L 2938 2094 
Q 2938 2591 2744 2837 
Q 2550 3084 2163 3084 
Q 1697 3084 1428 2787 
Q 1159 2491 1159 1978 
L 1159 0 
L 581 0 
L 581 4863 
L 1159 4863 
L 1159 2956 
Q 1366 3272 1645 3428 
Q 1925 3584 2291 3584 
Q 2894 3584 3203 3211 
Q 3513 2838 3513 2113 
z
" transform="scale(0.015625)"/>
       <path id="DejaVuSans-6f" d="M 1959 3097 
Q 1497 3097 1228 2736 
Q 959 2375 959 1747 
Q 959 1119 1226 758 
Q 1494 397 1959 397 
Q 2419 397 2687 759 
Q 2956 1122 2956 1747 
Q 2956 2369 2687 2733 
Q 2419 3097 1959 3097 
z
M 1959 3584 
Q 2709 3584 3137 3096 
Q 3566 2609 3566 1747 
Q 3566 888 3137 398 
Q 2709 -91 1959 -91 
Q 1206 -91 779 398 
Q 353 888 353 1747 
Q 353 2609 779 3096 
Q 1206 3584 1959 3584 
z
" transform="scale(0.015625)"/>
       <path id="DejaVuSans-77" d="M 269 3500 
L 844 3500 
L 1563 769 
L 2278 3500 
L 2956 3500 
L 3675 769 
L 4391 3500 
L 4966 3500 
L 4050 0 
L 3372 0 
L 2619 2869 
L 1863 0 
L 1184 0 
L 269 3500 
z
" transform="scale(0.015625)"/>
       <path id="DejaVuSans-6e" d="M 3513 2113 
L 3513 0 
L 2938 0 
L 2938 2094 
Q 2938 2591 2744 2837 
Q 2550 3084 2163 3084 
Q 1697 3084 1428 2787 
Q 1159 2491 1159 1978 
L 1159 0 
L 581 0 
L 581 3500 
L 1159 3500 
L 1159 2956 
Q 1366 3272 1645 3428 
Q 1925 3584 2291 3584 
Q 2894 3584 3203 3211 
Q 3513 2838 3513 2113 
z
" transform="scale(0.015625)"/>
      </defs>
      <use xlink:href="#DejaVuSans-49"/>
      <use xlink:href="#DejaVuSans-6d" x="29.492188"/>
      <use xlink:href="#DejaVuSans-61" x="126.904297"/>
      <use xlink:href="#DejaVuSans-67" x="188.183594"/>
      <use xlink:href="#DejaVuSans-65" x="251.660156"/>
      <use xlink:href="#DejaVuSans-20" x="313.183594"/>
      <use xlink:href="#DejaVuSans-73" x="344.970703"/>
      <use xlink:href="#DejaVuSans-68" x="397.070312"/>
      <use xlink:href="#DejaVuSans-6f" x="460.449219"/>
      <use xlink:href="#DejaVuSans-77" x="521.630859"/>
      <use xlink:href="#DejaVuSans-6e" x="603.417969"/>
     </g>
    </g>
   </g>
   <g id="matplotlib.axis_2">
    <g id="ytick_1">
     <g id="line2d_10">
      <defs>
       <path id="md1ba901094" d="M 0 0 
L -3.5 0 
" style="stroke: #000000; stroke-width: 0.8"/>
      </defs>
      <g>
       <use xlink:href="#md1ba901094" x="57.6" y="295.488" style="stroke: #000000; stroke-width: 0.8"/>
      </g>
     </g>
     <g id="text_11">
      <!-- 0 -->
      <g transform="translate(44.2375 299.287219) scale(0.1 -0.1)">
       <use xlink:href="#DejaVuSans-30"/>
      </g>
     </g>
    </g>
    <g id="ytick_2">
     <g id="line2d_11">
      <g>
       <use xlink:href="#md1ba901094" x="57.6" y="255.168" style="stroke: #000000; stroke-width: 0.8"/>
      </g>
     </g>
     <g id="text_12">
      <!-- 50 -->
      <g transform="translate(37.875 258.967219) scale(0.1 -0.1)">
       <use xlink:href="#DejaVuSans-35"/>
       <use xlink:href="#DejaVuSans-30" x="63.623047"/>
      </g>
     </g>
    </g>
    <g id="ytick_3">
     <g id="line2d_12">
      <g>
       <use xlink:href="#md1ba901094" x="57.6" y="214.848" style="stroke: #000000; stroke-width: 0.8"/>
      </g>
     </g>
     <g id="text_13">
      <!-- 100 -->
      <g transform="translate(31.5125 218.647219) scale(0.1 -0.1)">
       <use xlink:href="#DejaVuSans-31"/>
       <use xlink:href="#DejaVuSans-30" x="63.623047"/>
       <use xlink:href="#DejaVuSans-30" x="127.246094"/>
      </g>
     </g>
    </g>
    <g id="ytick_4">
     <g id="line2d_13">
      <g>
       <use xlink:href="#md1ba901094" x="57.6" y="174.528" style="stroke: #000000; stroke-width: 0.8"/>
      </g>
     </g>
     <g id="text_14">
      <!-- 150 -->
      <g transform="translate(31.5125 178.327219) scale(0.1 -0.1)">
       <use xlink:href="#DejaVuSans-31"/>
       <use xlink:href="#DejaVuSans-35" x="63.623047"/>
       <use xlink:href="#DejaVuSans-30" x="127.246094"/>
      </g>
     </g>
    </g>
    <g id="ytick_5">
     <g id="line2d_14">
      <g>
       <use xlink:href="#md1ba901094" x="57.6" y="134.208" style="stroke: #000000; stroke-width: 0.8"/>
      </g>
     </g>
     <g id="text_15">
      <!-- 200 -->
      <g transform="translate(31.5125 138.007219) scale(0.1 -0.1)">
       <use xlink:href="#DejaVuSans-32"/>
       <use xlink:href="#DejaVuSans-30" x="63.623047"/>
       <use xlink:href="#DejaVuSans-30" x="127.246094"/>
      </g>
     </g>
    </g>
    <g id="ytick_6">
     <g id="line2d_15">
      <g>
       <use xlink:href="#md1ba901094" x="57.6" y="93.888" style="stroke: #000000; stroke-width: 0.8"/>
      </g>
     </g>
     <g id="text_16">
      <!-- 250 -->
      <g transform="translate(31.5125 97.687219) scale(0.1 -0.1)">
       <use xlink:href="#DejaVuSans-32"/>
       <use xlink:href="#DejaVuSans-35" x="63.623047"/>
       <use xlink:href="#DejaVuSans-30" x="127.246094"/>
      </g>
     </g>
    </g>
    <g id="ytick_7">
     <g id="line2d_16">
      <g>
       <use xlink:href="#md1ba901094" x="57.6" y="53.568" style="stroke: #000000; stroke-width: 0.8"/>
      </g>
     </g>
     <g id="text_17">
      <!-- 300 -->
      <g transform="translate(31.5125 57.367219) scale(0.1 -0.1)">
       <use xlink:href="#DejaVuSans-33"/>
       <use xlink:href="#DejaVuSans-30" x="63.623047"/>
       <use xlink:href="#DejaVuSans-30" x="127.246094"/>
      </g>
     </g>
    </g>
    <g id="text_18">
     <!-- Firing rate [Hz] -->
     <g transform="translate(25.432812 211.838156) rotate(-90) scale(0.1 -0.1)">
      <defs>
       <path id="DejaVuSans-46" d="M 628 4666 
L 3309 4666 
L 3309 4134 
L 1259 4134 
L 1259 2759 
L 3109 2759 
L 3109 2228 
L 1259 2228 
L 1259 0 
L 628 0 
L 628 4666 
z
" transform="scale(0.015625)"/>
       <path id="DejaVuSans-69" d="M 603 3500 
L 1178 3500 
L 1178 0 
L 603 0 
L 603 3500 
z
M 603 4863 
L 1178 4863 
L 1178 4134 
L 603 4134 
L 603 4863 
z
" transform="scale(0.015625)"/>
       <path id="DejaVuSans-72" d="M 2631 2963 
Q 2534 3019 2420 3045 
Q 2306 3072 2169 3072 
Q 1681 3072 1420 2755 
Q 1159 2438 1159 1844 
L 1159 0 
L 581 0 
L 581 3500 
L 1159 3500 
L 1159 2956 
Q 1341 3275 1631 3429 
Q 1922 3584 2338 3584 
Q 2397 3584 2469 3576 
Q 2541 3569 2628 3553 
L 2631 2963 
z
" transform="scale(0.015625)"/>
       <path id="DejaVuSans-74" d="M 1172 4494 
L 1172 3500 
L 2356 3500 
L 2356 3053 
L 1172 3053 
L 1172 1153 
Q 1172 725 1289 603 
Q 1406 481 1766 481 
L 2356 481 
L 2356 0 
L 1766 0 
Q 1100 0 847 248 
Q 594 497 594 1153 
L 594 3053 
L 172 3053 
L 172 3500 
L 594 3500 
L 594 4494 
L 1172 4494 
z
" transform="scale(0.015625)"/>
       <path id="DejaVuSans-5b" d="M 550 4863 
L 1875 4863 
L 1875 4416 
L 1125 4416 
L 1125 -397 
L 1875 -397 
L 1875 -844 
L 550 -844 
L 550 4863 
z
" transform="scale(0.015625)"/>
       <path id="DejaVuSans-48" d="M 628 4666 
L 1259 4666 
L 1259 2753 
L 3553 2753 
L 3553 4666 
L 4184 4666 
L 4184 0 
L 3553 0 
L 3553 2222 
L 1259 2222 
L 1259 0 
L 628 0 
L 628 4666 
z
" transform="scale(0.015625)"/>
       <path id="DejaVuSans-7a" d="M 353 3500 
L 3084 3500 
L 3084 2975 
L 922 459 
L 3084 459 
L 3084 0 
L 275 0 
L 275 525 
L 2438 3041 
L 353 3041 
L 353 3500 
z
" transform="scale(0.015625)"/>
       <path id="DejaVuSans-5d" d="M 1947 4863 
L 1947 -844 
L 622 -844 
L 622 -397 
L 1369 -397 
L 1369 4416 
L 622 4416 
L 622 4863 
L 1947 4863 
z
" transform="scale(0.015625)"/>
      </defs>
      <use xlink:href="#DejaVuSans-46"/>
      <use xlink:href="#DejaVuSans-69" x="50.269531"/>
      <use xlink:href="#DejaVuSans-72" x="78.052734"/>
      <use xlink:href="#DejaVuSans-69" x="119.166016"/>
      <use xlink:href="#DejaVuSans-6e" x="146.949219"/>
      <use xlink:href="#DejaVuSans-67" x="210.328125"/>
      <use xlink:href="#DejaVuSans-20" x="273.804688"/>
      <use xlink:href="#DejaVuSans-72" x="305.591797"/>
      <use xlink:href="#DejaVuSans-61" x="346.705078"/>
      <use xlink:href="#DejaVuSans-74" x="407.984375"/>
      <use xlink:href="#DejaVuSans-65" x="447.193359"/>
      <use xlink:href="#DejaVuSans-20" x="508.716797"/>
      <use xlink:href="#DejaVuSans-5b" x="540.503906"/>
      <use xlink:href="#DejaVuSans-48" x="579.517578"/>
      <use xlink:href="#DejaVuSans-7a" x="654.712891"/>
      <use xlink:href="#DejaVuSans-5d" x="707.203125"/>
     </g>
    </g>
   </g>
   <g id="line2d_17">
    <path d="M 73.832727 174.528 
L 73.995095 130.176 
L 74.076279 158.4 
L 74.157463 138.24 
L 74.238647 202.752 
L 74.401015 142.272 
L 74.482199 182.592 
L 74.725751 93.888 
L 74.806934 158.4 
L 74.888118 118.08 
L 75.050486 158.4 
L 75.13167 142.272 
L 75.212854 166.464 
L 75.294038 154.368 
L 75.375222 81.792 
L 75.456406 138.24 
L 75.53759 114.048 
L 75.618774 158.4 
L 75.699958 154.368 
L 75.862326 138.24 
L 75.94351 134.208 
L 76.024693 170.496 
L 76.105877 118.08 
L 76.187061 130.176 
L 76.268245 174.528 
L 76.430613 138.24 
L 76.511797 166.464 
L 76.755349 122.112 
L 76.836533 154.368 
L 76.998901 130.176 
L 77.080085 130.176 
L 77.161268 126.144 
L 77.323636 166.464 
L 77.40482 158.4 
L 77.486004 178.56 
L 77.648372 134.208 
L 77.81074 166.464 
L 77.891924 138.24 
L 77.973108 142.272 
L 78.054292 154.368 
L 78.21666 126.144 
L 78.460211 190.656 
L 78.541395 53.568 
L 78.703763 154.368 
L 78.784947 126.144 
L 78.866131 190.656 
L 79.028499 110.016 
L 79.353235 170.496 
L 79.434419 166.464 
L 79.515603 134.208 
L 79.596786 150.336 
L 79.67797 126.144 
L 79.759154 178.56 
L 79.840338 122.112 
L 79.921522 198.72 
L 80.002706 182.592 
L 80.08389 122.112 
L 80.165074 158.4 
L 80.246258 154.368 
L 80.327442 170.496 
L 80.48981 114.048 
L 80.814545 174.528 
L 80.895729 130.176 
L 81.058097 154.368 
L 81.139281 158.4 
L 81.301649 146.304 
L 81.382833 114.048 
L 81.545201 170.496 
L 81.626385 146.304 
L 81.707569 174.528 
L 81.788753 150.336 
L 81.869937 190.656 
L 82.032304 110.016 
L 82.113488 174.528 
L 82.275856 130.176 
L 82.35704 130.176 
L 82.438224 146.304 
L 82.519408 194.688 
L 82.681776 126.144 
L 82.844144 182.592 
L 82.925328 130.176 
L 83.006512 138.24 
L 83.087696 105.984 
L 83.168879 154.368 
L 83.250063 101.952 
L 83.331247 202.752 
L 83.412431 170.496 
L 83.574799 130.176 
L 83.737167 182.592 
L 83.818351 166.464 
L 83.899535 118.08 
L 83.980719 158.4 
L 84.061903 134.208 
L 84.143087 142.272 
L 84.224271 146.304 
L 84.305455 126.144 
L 84.386638 182.592 
L 84.549006 77.76 
L 84.711374 178.56 
L 84.792558 150.336 
L 84.873742 158.4 
L 85.03611 150.336 
L 85.117294 118.08 
L 85.279662 186.624 
L 85.360846 154.368 
L 85.44203 174.528 
L 85.523214 170.496 
L 85.604397 170.496 
L 85.685581 138.24 
L 85.766765 146.304 
L 85.847949 146.304 
L 85.929133 118.08 
L 86.010317 182.592 
L 86.091501 134.208 
L 86.172685 150.336 
L 86.253869 138.24 
L 86.335053 178.56 
L 86.497421 138.24 
L 86.578605 162.432 
L 86.659789 150.336 
L 86.740973 174.528 
L 86.822156 138.24 
L 86.90334 146.304 
L 86.984524 118.08 
L 87.146892 150.336 
L 87.30926 174.528 
L 87.390444 138.24 
L 87.552812 170.496 
L 87.796364 146.304 
L 87.877548 194.688 
L 88.039915 138.24 
L 88.121099 178.56 
L 88.202283 158.4 
L 88.364651 182.592 
L 88.527019 101.952 
L 88.689387 202.752 
L 88.770571 130.176 
L 88.851755 154.368 
L 88.932939 138.24 
L 89.014123 146.304 
L 89.095307 138.24 
L 89.17649 154.368 
L 89.257674 146.304 
L 89.420042 154.368 
L 89.58241 114.048 
L 89.744778 154.368 
L 89.825962 146.304 
L 89.98833 174.528 
L 90.150698 134.208 
L 90.231882 89.856 
L 90.313066 154.368 
L 90.394249 138.24 
L 90.556617 105.984 
L 90.718985 174.528 
L 90.881353 146.304 
L 90.962537 174.528 
L 91.043721 170.496 
L 91.124905 186.624 
L 91.206089 126.144 
L 91.287273 182.592 
L 91.368457 162.432 
L 91.449641 138.24 
L 91.530825 142.272 
L 91.612008 134.208 
L 91.693192 170.496 
L 91.85556 122.112 
L 92.017928 166.464 
L 92.099112 158.4 
L 92.180296 134.208 
L 92.26148 138.24 
L 92.342664 166.464 
L 92.423848 162.432 
L 92.505032 126.144 
L 92.6674 158.4 
L 92.748584 162.432 
L 92.910951 122.112 
L 92.992135 166.464 
L 93.073319 130.176 
L 93.154503 186.624 
L 93.316871 134.208 
L 93.398055 162.432 
L 93.479239 150.336 
L 93.560423 114.048 
L 93.641607 126.144 
L 93.722791 150.336 
L 93.803975 146.304 
L 93.885159 150.336 
L 93.966342 170.496 
L 94.12871 134.208 
L 94.291078 182.592 
L 94.372262 118.08 
L 94.453446 170.496 
L 94.53463 158.4 
L 94.615814 182.592 
L 94.696998 126.144 
L 94.778182 142.272 
L 94.94055 134.208 
L 95.021734 142.272 
L 95.102918 170.496 
L 95.265285 146.304 
L 95.346469 142.272 
L 95.427653 146.304 
L 95.508837 130.176 
L 95.590021 174.528 
L 95.833573 130.176 
L 95.914757 170.496 
L 96.077125 134.208 
L 96.158309 158.4 
L 96.239493 150.336 
L 96.320677 142.272 
L 96.40186 170.496 
L 96.483044 150.336 
L 96.564228 174.528 
L 96.645412 154.368 
L 96.726596 158.4 
L 96.80778 142.272 
L 96.888964 150.336 
L 96.970148 126.144 
L 97.051332 182.592 
L 97.132516 122.112 
L 97.2137 138.24 
L 97.294884 134.208 
L 97.376068 142.272 
L 97.538436 166.464 
L 97.619619 142.272 
L 97.700803 162.432 
L 97.944355 126.144 
L 98.106723 182.592 
L 98.187907 190.656 
L 98.269091 146.304 
L 98.350275 178.56 
L 98.431459 162.432 
L 98.512643 174.528 
L 98.593827 134.208 
L 98.756195 178.56 
L 98.837378 162.432 
L 98.999746 138.24 
L 99.243298 154.368 
L 99.324482 134.208 
L 99.405666 138.24 
L 99.48685 162.432 
L 99.568034 158.4 
L 99.730402 97.92 
L 99.89277 158.4 
L 99.973953 138.24 
L 100.055137 142.272 
L 100.136321 146.304 
L 100.298689 170.496 
L 100.379873 146.304 
L 100.542241 178.56 
L 100.623425 142.272 
L 100.704609 162.432 
L 100.785793 150.336 
L 100.866977 166.464 
L 101.029345 110.016 
L 101.191712 146.304 
L 101.35408 150.336 
L 101.516448 134.208 
L 101.678816 174.528 
L 101.76 170.496 
L 101.841184 174.528 
L 101.922368 114.048 
L 102.084736 154.368 
L 102.16592 146.304 
L 102.328288 158.4 
L 102.409471 174.528 
L 102.490655 118.08 
L 102.571839 138.24 
L 102.653023 138.24 
L 102.734207 101.952 
L 102.815391 150.336 
L 102.896575 142.272 
L 102.977759 170.496 
L 103.058943 154.368 
L 103.140127 182.592 
L 103.302495 138.24 
L 103.383679 166.464 
L 103.464863 146.304 
L 103.546047 170.496 
L 103.62723 105.984 
L 103.708414 162.432 
L 103.789598 93.888 
L 103.951966 162.432 
L 104.03315 158.4 
L 104.195518 174.528 
L 104.520254 142.272 
L 104.682622 194.688 
L 104.844989 105.984 
L 104.926173 126.144 
L 105.007357 182.592 
L 105.088541 134.208 
L 105.169725 154.368 
L 105.250909 214.848 
L 105.332093 186.624 
L 105.413277 105.984 
L 105.494461 182.592 
L 105.575645 146.304 
L 105.656829 154.368 
L 105.738013 154.368 
L 105.900381 142.272 
L 105.981564 170.496 
L 106.062748 158.4 
L 106.143932 118.08 
L 106.225116 178.56 
L 106.3063 150.336 
L 106.387484 162.432 
L 106.468668 110.016 
L 106.549852 190.656 
L 106.631036 162.432 
L 106.793404 134.208 
L 106.874588 150.336 
L 106.955772 126.144 
L 107.036956 174.528 
L 107.11814 126.144 
L 107.199323 154.368 
L 107.280507 130.176 
L 107.361691 174.528 
L 107.442875 170.496 
L 107.605243 138.24 
L 107.686427 194.688 
L 107.929979 130.176 
L 108.173531 178.56 
L 108.335899 130.176 
L 108.417082 138.24 
L 108.57945 122.112 
L 108.660634 134.208 
L 108.741818 166.464 
L 108.904186 134.208 
L 108.98537 138.24 
L 109.066554 130.176 
L 109.147738 182.592 
L 109.228922 170.496 
L 109.310106 150.336 
L 109.472474 186.624 
L 109.553658 138.24 
L 109.634841 166.464 
L 109.716025 126.144 
L 109.878393 230.976 
L 110.040761 134.208 
L 110.121945 202.752 
L 110.203129 130.176 
L 110.284313 162.432 
L 110.446681 130.176 
L 110.609049 154.368 
L 110.690233 134.208 
L 110.8526 158.4 
L 110.933784 150.336 
L 111.014968 166.464 
L 111.096152 130.176 
L 111.177336 182.592 
L 111.502072 114.048 
L 111.583256 158.4 
L 111.66444 142.272 
L 111.745624 101.952 
L 111.826808 178.56 
L 111.907992 166.464 
L 111.989175 134.208 
L 112.232727 162.432 
L 112.313911 162.432 
L 112.395095 134.208 
L 112.557463 170.496 
L 112.638647 174.528 
L 112.719831 170.496 
L 112.963383 118.08 
L 113.206934 178.56 
L 113.450486 138.24 
L 113.53167 150.336 
L 113.612854 134.208 
L 113.694038 166.464 
L 113.856406 130.176 
L 113.93759 158.4 
L 114.018774 126.144 
L 114.181142 194.688 
L 114.424693 101.952 
L 114.505877 154.368 
L 114.587061 138.24 
L 114.749429 190.656 
L 114.911797 126.144 
L 114.992981 146.304 
L 115.074165 142.272 
L 115.155349 130.176 
L 115.236533 138.24 
L 115.317717 105.984 
L 115.480085 154.368 
L 115.561268 146.304 
L 115.642452 174.528 
L 115.80482 158.4 
L 115.886004 162.432 
L 115.967188 226.944 
L 116.048372 174.528 
L 116.129556 230.976 
L 116.21074 190.656 
L 116.291924 243.072 
L 116.373108 239.04 
L 116.454292 239.04 
L 116.535476 251.136 
L 116.61666 243.072 
L 116.779027 271.296 
L 116.860211 251.136 
L 117.022579 291.456 
L 117.103763 283.392 
L 117.184947 287.424 
L 117.266131 283.392 
L 117.347315 291.456 
L 117.428499 279.36 
L 117.672051 295.488 
L 117.834419 295.488 
L 117.915603 291.456 
L 117.996786 295.488 
L 118.240338 287.424 
L 118.48389 295.488 
L 118.565074 295.488 
L 118.646258 279.36 
L 118.88981 295.488 
L 118.970994 283.392 
L 119.052178 295.488 
L 119.133362 287.424 
L 119.295729 295.488 
L 119.376913 287.424 
L 119.539281 295.488 
L 119.620465 287.424 
L 119.782833 295.488 
L 119.864017 295.488 
L 120.026385 283.392 
L 120.188753 295.488 
L 120.269937 291.456 
L 120.432304 295.488 
L 120.838224 295.488 
L 120.919408 287.424 
L 121.16296 295.488 
L 121.812431 295.488 
L 121.893615 291.456 
L 121.974799 295.488 
L 122.055983 291.456 
L 122.137167 295.488 
L 122.218351 291.456 
L 122.380719 295.488 
L 122.461903 291.456 
L 122.543087 295.488 
L 122.624271 287.424 
L 122.786638 295.488 
L 122.867822 295.488 
L 122.949006 291.456 
L 123.111374 295.488 
L 123.43611 295.488 
L 123.517294 283.392 
L 123.679662 295.488 
L 123.84203 295.488 
L 123.923214 291.456 
L 124.085581 295.488 
L 124.329133 295.488 
L 124.410317 291.456 
L 124.572685 295.488 
L 124.735053 291.456 
L 124.816237 291.456 
L 124.978605 295.488 
L 125.222156 295.488 
L 125.30334 291.456 
L 125.465708 295.488 
L 125.70926 295.488 
L 125.871628 291.456 
L 126.033996 295.488 
L 126.683467 295.488 
L 126.764651 291.456 
L 126.845835 295.488 
L 126.927019 291.456 
L 127.089387 295.488 
L 127.170571 291.456 
L 127.332939 295.488 
L 127.820042 295.488 
L 127.901226 287.424 
L 128.063594 295.488 
L 128.144778 287.424 
L 128.225962 295.488 
L 128.307146 287.424 
L 128.469514 295.488 
L 128.875433 295.488 
L 128.956617 283.392 
L 129.118985 295.488 
L 129.606089 295.488 
L 129.687273 287.424 
L 129.849641 295.488 
L 130.012008 287.424 
L 130.174376 295.488 
L 130.417928 295.488 
L 130.499112 287.424 
L 130.66148 295.488 
L 131.148584 295.488 
L 131.229767 291.456 
L 131.392135 295.488 
L 132.285159 295.488 
L 132.366342 287.424 
L 132.52871 295.488 
L 133.259366 295.488 
L 133.34055 291.456 
L 133.502918 295.488 
L 134.071205 295.488 
L 134.152389 287.424 
L 134.233573 295.488 
L 134.314757 291.456 
L 134.477125 295.488 
L 135.938436 295.488 
L 136.019619 291.456 
L 136.181987 295.488 
L 136.263171 295.488 
L 136.344355 291.456 
L 136.506723 295.488 
L 138.049218 295.488 
L 138.130402 291.456 
L 138.29277 295.488 
L 139.266977 295.488 
L 139.348161 291.456 
L 139.510529 295.488 
L 140.971839 295.488 
L 141.053023 291.456 
L 141.215391 295.488 
L 142.83907 295.488 
L 142.920254 291.456 
L 143.082622 295.488 
L 145.842875 295.488 
L 145.924059 291.456 
L 146.086427 295.488 
L 146.248795 295.488 
L 146.329979 291.456 
L 146.492347 295.488 
L 146.654715 295.488 
L 146.735899 287.424 
L 146.898266 295.488 
L 148.684313 295.488 
L 148.765497 291.456 
L 148.927865 295.488 
L 150.795095 295.488 
L 150.876279 291.456 
L 151.038647 295.488 
L 152.094038 295.488 
L 152.175222 291.456 
L 152.33759 295.488 
L 152.418774 295.488 
L 152.499958 291.456 
L 152.662326 295.488 
L 153.230613 295.488 
L 153.311797 291.456 
L 153.474165 295.488 
L 154.367188 295.488 
L 154.448372 291.456 
L 154.61074 295.488 
L 155.909683 295.488 
L 155.990867 291.456 
L 156.153235 295.488 
L 156.88389 295.488 
L 156.965074 291.456 
L 157.127442 295.488 
L 158.020465 295.488 
L 158.101649 291.456 
L 158.264017 295.488 
L 162.24203 295.488 
L 162.323214 287.424 
L 162.485581 295.488 
L 163.053869 295.488 
L 163.135053 291.456 
L 163.297421 295.488 
L 163.378605 295.488 
L 163.459789 291.456 
L 163.622156 295.488 
L 164.190444 295.488 
L 164.271628 291.456 
L 164.433996 295.488 
L 164.51518 291.456 
L 164.677548 295.488 
L 165.164651 295.488 
L 165.245835 291.456 
L 165.408203 295.488 
L 167.681353 295.488 
L 167.762537 291.456 
L 167.924905 295.488 
L 176.28685 295.488 
L 176.368034 291.456 
L 176.530402 295.488 
L 181.726173 295.488 
L 181.807357 291.456 
L 181.969725 295.488 
L 185.78537 295.488 
L 185.866554 291.456 
L 186.028922 295.488 
L 186.678393 295.488 
L 186.759577 287.424 
L 186.921945 295.488 
L 197.475856 295.488 
L 197.55704 291.456 
L 197.719408 295.488 
L 204.051755 295.488 
L 204.132939 287.424 
L 204.214123 295.488 
L 204.295307 291.456 
L 204.457674 295.488 
L 207.542664 295.488 
L 207.623848 287.424 
L 207.786216 295.488 
L 208.192135 295.488 
L 208.273319 287.424 
L 208.435687 295.488 
L 209.73463 295.488 
L 209.815814 291.456 
L 209.978182 295.488 
L 210.952389 295.488 
L 211.033573 291.456 
L 211.195941 295.488 
L 211.60186 295.488 
L 211.683044 291.456 
L 211.845412 295.488 
L 223.535899 295.488 
L 223.617082 291.456 
L 223.77945 295.488 
L 227.189175 295.488 
L 227.270359 291.456 
L 227.432727 295.488 
L 233.927442 295.488 
L 234.008626 291.456 
L 234.170994 295.488 
L 236.606512 295.488 
L 236.687696 291.456 
L 236.850063 295.488 
L 246.754503 295.488 
L 246.835687 291.456 
L 246.998055 295.488 
L 251.381987 295.488 
L 251.463171 291.456 
L 251.625539 295.488 
L 253.330402 295.488 
L 253.411586 291.456 
L 253.573953 295.488 
L 264.85852 295.488 
L 264.939704 291.456 
L 265.102072 295.488 
L 267.699958 295.488 
L 267.781142 283.392 
L 267.94351 295.488 
L 273.382833 295.488 
L 273.464017 291.456 
L 273.626385 295.488 
L 276.386638 295.488 
L 276.467822 291.456 
L 276.63019 295.488 
L 280.364651 295.488 
L 280.445835 291.456 
L 280.608203 295.488 
L 288.888964 295.488 
L 288.970148 291.456 
L 289.132516 295.488 
L 303.177336 295.488 
L 303.25852 291.456 
L 303.420888 295.488 
L 303.583256 295.488 
L 303.66444 287.424 
L 303.826808 295.488 
L 319.008203 295.488 
L 319.089387 291.456 
L 319.251755 295.488 
L 320.875433 295.488 
L 320.956617 291.456 
L 321.118985 295.488 
L 326.152389 295.488 
L 326.233573 291.456 
L 326.395941 295.488 
L 328.587907 295.488 
L 328.669091 291.456 
L 328.831459 295.488 
L 338.411163 295.488 
L 338.492347 291.456 
L 338.654715 295.488 
L 354.160846 295.488 
L 354.24203 291.456 
L 354.404397 295.488 
L 360.006089 295.488 
L 360.087273 291.456 
L 360.249641 295.488 
L 377.135899 295.488 
L 377.217082 291.456 
L 377.37945 295.488 
L 398.487273 295.488 
L 398.487273 295.488 
" clip-path="url(#p7541a797e2)" style="fill: none; stroke: #1f77b4; stroke-width: 1.5; stroke-linecap: square"/>
   </g>
   <g id="patch_3">
    <path d="M 57.6 307.584 
L 57.6 41.472 
" style="fill: none; stroke: #000000; stroke-width: 0.8; stroke-linejoin: miter; stroke-linecap: square"/>
   </g>
   <g id="patch_4">
    <path d="M 414.72 307.584 
L 414.72 41.472 
" style="fill: none; stroke: #000000; stroke-width: 0.8; stroke-linejoin: miter; stroke-linecap: square"/>
   </g>
   <g id="patch_5">
    <path d="M 57.6 307.584 
L 414.72 307.584 
" style="fill: none; stroke: #000000; stroke-width: 0.8; stroke-linejoin: miter; stroke-linecap: square"/>
   </g>
   <g id="patch_6">
    <path d="M 57.6 41.472 
L 414.72 41.472 
" style="fill: none; stroke: #000000; stroke-width: 0.8; stroke-linejoin: miter; stroke-linecap: square"/>
   </g>
   <g id="text_19">
    <!-- Output firing rate -->
    <g transform="translate(183.793125 35.472) scale(0.12 -0.12)">
     <defs>
      <path id="DejaVuSans-4f" d="M 2522 4238 
Q 1834 4238 1429 3725 
Q 1025 3213 1025 2328 
Q 1025 1447 1429 934 
Q 1834 422 2522 422 
Q 3209 422 3611 934 
Q 4013 1447 4013 2328 
Q 4013 3213 3611 3725 
Q 3209 4238 2522 4238 
z
M 2522 4750 
Q 3503 4750 4090 4092 
Q 4678 3434 4678 2328 
Q 4678 1225 4090 567 
Q 3503 -91 2522 -91 
Q 1538 -91 948 565 
Q 359 1222 359 2328 
Q 359 3434 948 4092 
Q 1538 4750 2522 4750 
z
" transform="scale(0.015625)"/>
      <path id="DejaVuSans-75" d="M 544 1381 
L 544 3500 
L 1119 3500 
L 1119 1403 
Q 1119 906 1312 657 
Q 1506 409 1894 409 
Q 2359 409 2629 706 
Q 2900 1003 2900 1516 
L 2900 3500 
L 3475 3500 
L 3475 0 
L 2900 0 
L 2900 538 
Q 2691 219 2414 64 
Q 2138 -91 1772 -91 
Q 1169 -91 856 284 
Q 544 659 544 1381 
z
M 1991 3584 
L 1991 3584 
z
" transform="scale(0.015625)"/>
      <path id="DejaVuSans-70" d="M 1159 525 
L 1159 -1331 
L 581 -1331 
L 581 3500 
L 1159 3500 
L 1159 2969 
Q 1341 3281 1617 3432 
Q 1894 3584 2278 3584 
Q 2916 3584 3314 3078 
Q 3713 2572 3713 1747 
Q 3713 922 3314 415 
Q 2916 -91 2278 -91 
Q 1894 -91 1617 61 
Q 1341 213 1159 525 
z
M 3116 1747 
Q 3116 2381 2855 2742 
Q 2594 3103 2138 3103 
Q 1681 3103 1420 2742 
Q 1159 2381 1159 1747 
Q 1159 1113 1420 752 
Q 1681 391 2138 391 
Q 2594 391 2855 752 
Q 3116 1113 3116 1747 
z
" transform="scale(0.015625)"/>
      <path id="DejaVuSans-66" d="M 2375 4863 
L 2375 4384 
L 1825 4384 
Q 1516 4384 1395 4259 
Q 1275 4134 1275 3809 
L 1275 3500 
L 2222 3500 
L 2222 3053 
L 1275 3053 
L 1275 0 
L 697 0 
L 697 3053 
L 147 3053 
L 147 3500 
L 697 3500 
L 697 3744 
Q 697 4328 969 4595 
Q 1241 4863 1831 4863 
L 2375 4863 
z
" transform="scale(0.015625)"/>
     </defs>
     <use xlink:href="#DejaVuSans-4f"/>
     <use xlink:href="#DejaVuSans-75" x="78.710938"/>
     <use xlink:href="#DejaVuSans-74" x="142.089844"/>
     <use xlink:href="#DejaVuSans-70" x="181.298828"/>
     <use xlink:href="#DejaVuSans-75" x="244.775391"/>
     <use xlink:href="#DejaVuSans-74" x="308.154297"/>
     <use xlink:href="#DejaVuSans-20" x="347.363281"/>
     <use xlink:href="#DejaVuSans-66" x="379.150391"/>
     <use xlink:href="#DejaVuSans-69" x="414.355469"/>
     <use xlink:href="#DejaVuSans-72" x="442.138672"/>
     <use xlink:href="#DejaVuSans-69" x="483.251953"/>
     <use xlink:href="#DejaVuSans-6e" x="511.035156"/>
     <use xlink:href="#DejaVuSans-67" x="574.414062"/>
     <use xlink:href="#DejaVuSans-20" x="637.890625"/>
     <use xlink:href="#DejaVuSans-72" x="669.677734"/>
     <use xlink:href="#DejaVuSans-61" x="710.791016"/>
     <use xlink:href="#DejaVuSans-74" x="772.070312"/>
     <use xlink:href="#DejaVuSans-65" x="811.279297"/>
    </g>
   </g>
  </g>
 </g>
 <defs>
  <clipPath id="p7541a797e2">
   <rect x="57.6" y="41.472" width="357.12" height="266.112"/>
  </clipPath>
 </defs>
</svg>
