<?xml version="1.0" encoding="utf-8" standalone="no"?>
<!DOCTYPE svg PUBLIC "-//W3C//DTD SVG 1.1//EN"
  "http://www.w3.org/Graphics/SVG/1.1/DTD/svg11.dtd">
<svg xmlns:xlink="http://www.w3.org/1999/xlink" width="460.8pt" height="345.6pt" viewBox="0 0 460.8 345.6" xmlns="http://www.w3.org/2000/svg" version="1.1">
 <metadata>
  <rdf:RDF xmlns:dc="http://purl.org/dc/elements/1.1/" xmlns:cc="http://creativecommons.org/ns#" xmlns:rdf="http://www.w3.org/1999/02/22-rdf-syntax-ns#">
   <cc:Work>
    <dc:type rdf:resource="http://purl.org/dc/dcmitype/StillImage"/>
    <dc:date>2023-05-03T18:30:48.868506</dc:date>
    <dc:format>image/svg+xml</dc:format>
    <dc:creator>
     <cc:Agent>
      <dc:title>Matplotlib v3.6.2, https://matplotlib.org/</dc:title>
     </cc:Agent>
    </dc:creator>
   </cc:Work>
  </rdf:RDF>
 </metadata>
 <defs>
  <style type="text/css">*{stroke-linejoin: round; stroke-linecap: butt}</style>
 </defs>
 <g id="figure_1">
  <g id="patch_1">
   <path d="M 0 345.6 
L 460.8 345.6 
L 460.8 0 
L 0 0 
z
" style="fill: #ffffff"/>
  </g>
  <g id="axes_1">
   <g id="patch_2">
    <path d="M 57.6 307.584 
L 414.72 307.584 
L 414.72 41.472 
L 57.6 41.472 
z
" style="fill: #ffffff"/>
   </g>
   <g id="matplotlib.axis_1">
    <g id="xtick_1">
     <g id="line2d_1">
      <defs>
       <path id="m36982410bf" d="M 0 0 
L 0 3.5 
" style="stroke: #000000; stroke-width: 0.8"/>
      </defs>
      <g>
       <use xlink:href="#m36982410bf" x="73.832727" y="307.584" style="stroke: #000000; stroke-width: 0.8"/>
      </g>
     </g>
     <g id="text_1">
      <!-- 0 -->
      <g transform="translate(70.651477 322.182437) scale(0.1 -0.1)">
       <defs>
        <path id="DejaVuSans-30" d="M 2034 4250 
Q 1547 4250 1301 3770 
Q 1056 3291 1056 2328 
Q 1056 1369 1301 889 
Q 1547 409 2034 409 
Q 2525 409 2770 889 
Q 3016 1369 3016 2328 
Q 3016 3291 2770 3770 
Q 2525 4250 2034 4250 
z
M 2034 4750 
Q 2819 4750 3233 4129 
Q 3647 3509 3647 2328 
Q 3647 1150 3233 529 
Q 2819 -91 2034 -91 
Q 1250 -91 836 529 
Q 422 1150 422 2328 
Q 422 3509 836 4129 
Q 1250 4750 2034 4750 
z
" transform="scale(0.015625)"/>
       </defs>
       <use xlink:href="#DejaVuSans-30"/>
      </g>
     </g>
    </g>
    <g id="xtick_2">
     <g id="line2d_2">
      <g>
       <use xlink:href="#m36982410bf" x="114.434847" y="307.584" style="stroke: #000000; stroke-width: 0.8"/>
      </g>
     </g>
     <g id="text_2">
      <!-- 500 -->
      <g transform="translate(104.891097 322.182437) scale(0.1 -0.1)">
       <defs>
        <path id="DejaVuSans-35" d="M 691 4666 
L 3169 4666 
L 3169 4134 
L 1269 4134 
L 1269 2991 
Q 1406 3038 1543 3061 
Q 1681 3084 1819 3084 
Q 2600 3084 3056 2656 
Q 3513 2228 3513 1497 
Q 3513 744 3044 326 
Q 2575 -91 1722 -91 
Q 1428 -91 1123 -41 
Q 819 9 494 109 
L 494 744 
Q 775 591 1075 516 
Q 1375 441 1709 441 
Q 2250 441 2565 725 
Q 2881 1009 2881 1497 
Q 2881 1984 2565 2268 
Q 2250 2553 1709 2553 
Q 1456 2553 1204 2497 
Q 953 2441 691 2322 
L 691 4666 
z
" transform="scale(0.015625)"/>
       </defs>
       <use xlink:href="#DejaVuSans-35"/>
       <use xlink:href="#DejaVuSans-30" x="63.623047"/>
       <use xlink:href="#DejaVuSans-30" x="127.246094"/>
      </g>
     </g>
    </g>
    <g id="xtick_3">
     <g id="line2d_3">
      <g>
       <use xlink:href="#m36982410bf" x="155.036966" y="307.584" style="stroke: #000000; stroke-width: 0.8"/>
      </g>
     </g>
     <g id="text_3">
      <!-- 1000 -->
      <g transform="translate(142.311966 322.182437) scale(0.1 -0.1)">
       <defs>
        <path id="DejaVuSans-31" d="M 794 531 
L 1825 531 
L 1825 4091 
L 703 3866 
L 703 4441 
L 1819 4666 
L 2450 4666 
L 2450 531 
L 3481 531 
L 3481 0 
L 794 0 
L 794 531 
z
" transform="scale(0.015625)"/>
       </defs>
       <use xlink:href="#DejaVuSans-31"/>
       <use xlink:href="#DejaVuSans-30" x="63.623047"/>
       <use xlink:href="#DejaVuSans-30" x="127.246094"/>
       <use xlink:href="#DejaVuSans-30" x="190.869141"/>
      </g>
     </g>
    </g>
    <g id="xtick_4">
     <g id="line2d_4">
      <g>
       <use xlink:href="#m36982410bf" x="195.639085" y="307.584" style="stroke: #000000; stroke-width: 0.8"/>
      </g>
     </g>
     <g id="text_4">
      <!-- 1500 -->
      <g transform="translate(182.914085 322.182437) scale(0.1 -0.1)">
       <use xlink:href="#DejaVuSans-31"/>
       <use xlink:href="#DejaVuSans-35" x="63.623047"/>
       <use xlink:href="#DejaVuSans-30" x="127.246094"/>
       <use xlink:href="#DejaVuSans-30" x="190.869141"/>
      </g>
     </g>
    </g>
    <g id="xtick_5">
     <g id="line2d_5">
      <g>
       <use xlink:href="#m36982410bf" x="236.241204" y="307.584" style="stroke: #000000; stroke-width: 0.8"/>
      </g>
     </g>
     <g id="text_5">
      <!-- 2000 -->
      <g transform="translate(223.516204 322.182437) scale(0.1 -0.1)">
       <defs>
        <path id="DejaVuSans-32" d="M 1228 531 
L 3431 531 
L 3431 0 
L 469 0 
L 469 531 
Q 828 903 1448 1529 
Q 2069 2156 2228 2338 
Q 2531 2678 2651 2914 
Q 2772 3150 2772 3378 
Q 2772 3750 2511 3984 
Q 2250 4219 1831 4219 
Q 1534 4219 1204 4116 
Q 875 4013 500 3803 
L 500 4441 
Q 881 4594 1212 4672 
Q 1544 4750 1819 4750 
Q 2544 4750 2975 4387 
Q 3406 4025 3406 3419 
Q 3406 3131 3298 2873 
Q 3191 2616 2906 2266 
Q 2828 2175 2409 1742 
Q 1991 1309 1228 531 
z
" transform="scale(0.015625)"/>
       </defs>
       <use xlink:href="#DejaVuSans-32"/>
       <use xlink:href="#DejaVuSans-30" x="63.623047"/>
       <use xlink:href="#DejaVuSans-30" x="127.246094"/>
       <use xlink:href="#DejaVuSans-30" x="190.869141"/>
      </g>
     </g>
    </g>
    <g id="xtick_6">
     <g id="line2d_6">
      <g>
       <use xlink:href="#m36982410bf" x="276.843323" y="307.584" style="stroke: #000000; stroke-width: 0.8"/>
      </g>
     </g>
     <g id="text_6">
      <!-- 2500 -->
      <g transform="translate(264.118323 322.182437) scale(0.1 -0.1)">
       <use xlink:href="#DejaVuSans-32"/>
       <use xlink:href="#DejaVuSans-35" x="63.623047"/>
       <use xlink:href="#DejaVuSans-30" x="127.246094"/>
       <use xlink:href="#DejaVuSans-30" x="190.869141"/>
      </g>
     </g>
    </g>
    <g id="xtick_7">
     <g id="line2d_7">
      <g>
       <use xlink:href="#m36982410bf" x="317.445443" y="307.584" style="stroke: #000000; stroke-width: 0.8"/>
      </g>
     </g>
     <g id="text_7">
      <!-- 3000 -->
      <g transform="translate(304.720443 322.182437) scale(0.1 -0.1)">
       <defs>
        <path id="DejaVuSans-33" d="M 2597 2516 
Q 3050 2419 3304 2112 
Q 3559 1806 3559 1356 
Q 3559 666 3084 287 
Q 2609 -91 1734 -91 
Q 1441 -91 1130 -33 
Q 819 25 488 141 
L 488 750 
Q 750 597 1062 519 
Q 1375 441 1716 441 
Q 2309 441 2620 675 
Q 2931 909 2931 1356 
Q 2931 1769 2642 2001 
Q 2353 2234 1838 2234 
L 1294 2234 
L 1294 2753 
L 1863 2753 
Q 2328 2753 2575 2939 
Q 2822 3125 2822 3475 
Q 2822 3834 2567 4026 
Q 2313 4219 1838 4219 
Q 1578 4219 1281 4162 
Q 984 4106 628 3988 
L 628 4550 
Q 988 4650 1302 4700 
Q 1616 4750 1894 4750 
Q 2613 4750 3031 4423 
Q 3450 4097 3450 3541 
Q 3450 3153 3228 2886 
Q 3006 2619 2597 2516 
z
" transform="scale(0.015625)"/>
       </defs>
       <use xlink:href="#DejaVuSans-33"/>
       <use xlink:href="#DejaVuSans-30" x="63.623047"/>
       <use xlink:href="#DejaVuSans-30" x="127.246094"/>
       <use xlink:href="#DejaVuSans-30" x="190.869141"/>
      </g>
     </g>
    </g>
    <g id="xtick_8">
     <g id="line2d_8">
      <g>
       <use xlink:href="#m36982410bf" x="358.047562" y="307.584" style="stroke: #000000; stroke-width: 0.8"/>
      </g>
     </g>
     <g id="text_8">
      <!-- 3500 -->
      <g transform="translate(345.322562 322.182437) scale(0.1 -0.1)">
       <use xlink:href="#DejaVuSans-33"/>
       <use xlink:href="#DejaVuSans-35" x="63.623047"/>
       <use xlink:href="#DejaVuSans-30" x="127.246094"/>
       <use xlink:href="#DejaVuSans-30" x="190.869141"/>
      </g>
     </g>
    </g>
    <g id="xtick_9">
     <g id="line2d_9">
      <g>
       <use xlink:href="#m36982410bf" x="398.649681" y="307.584" style="stroke: #000000; stroke-width: 0.8"/>
      </g>
     </g>
     <g id="text_9">
      <!-- 4000 -->
      <g transform="translate(385.924681 322.182437) scale(0.1 -0.1)">
       <defs>
        <path id="DejaVuSans-34" d="M 2419 4116 
L 825 1625 
L 2419 1625 
L 2419 4116 
z
M 2253 4666 
L 3047 4666 
L 3047 1625 
L 3713 1625 
L 3713 1100 
L 3047 1100 
L 3047 0 
L 2419 0 
L 2419 1100 
L 313 1100 
L 313 1709 
L 2253 4666 
z
" transform="scale(0.015625)"/>
       </defs>
       <use xlink:href="#DejaVuSans-34"/>
       <use xlink:href="#DejaVuSans-30" x="63.623047"/>
       <use xlink:href="#DejaVuSans-30" x="127.246094"/>
       <use xlink:href="#DejaVuSans-30" x="190.869141"/>
      </g>
     </g>
    </g>
    <g id="text_10">
     <!-- Image shown -->
     <g transform="translate(202.820156 335.860562) scale(0.1 -0.1)">
      <defs>
       <path id="DejaVuSans-49" d="M 628 4666 
L 1259 4666 
L 1259 0 
L 628 0 
L 628 4666 
z
" transform="scale(0.015625)"/>
       <path id="DejaVuSans-6d" d="M 3328 2828 
Q 3544 3216 3844 3400 
Q 4144 3584 4550 3584 
Q 5097 3584 5394 3201 
Q 5691 2819 5691 2113 
L 5691 0 
L 5113 0 
L 5113 2094 
Q 5113 2597 4934 2840 
Q 4756 3084 4391 3084 
Q 3944 3084 3684 2787 
Q 3425 2491 3425 1978 
L 3425 0 
L 2847 0 
L 2847 2094 
Q 2847 2600 2669 2842 
Q 2491 3084 2119 3084 
Q 1678 3084 1418 2786 
Q 1159 2488 1159 1978 
L 1159 0 
L 581 0 
L 581 3500 
L 1159 3500 
L 1159 2956 
Q 1356 3278 1631 3431 
Q 1906 3584 2284 3584 
Q 2666 3584 2933 3390 
Q 3200 3197 3328 2828 
z
" transform="scale(0.015625)"/>
       <path id="DejaVuSans-61" d="M 2194 1759 
Q 1497 1759 1228 1600 
Q 959 1441 959 1056 
Q 959 750 1161 570 
Q 1363 391 1709 391 
Q 2188 391 2477 730 
Q 2766 1069 2766 1631 
L 2766 1759 
L 2194 1759 
z
M 3341 1997 
L 3341 0 
L 2766 0 
L 2766 531 
Q 2569 213 2275 61 
Q 1981 -91 1556 -91 
Q 1019 -91 701 211 
Q 384 513 384 1019 
Q 384 1609 779 1909 
Q 1175 2209 1959 2209 
L 2766 2209 
L 2766 2266 
Q 2766 2663 2505 2880 
Q 2244 3097 1772 3097 
Q 1472 3097 1187 3025 
Q 903 2953 641 2809 
L 641 3341 
Q 956 3463 1253 3523 
Q 1550 3584 1831 3584 
Q 2591 3584 2966 3190 
Q 3341 2797 3341 1997 
z
" transform="scale(0.015625)"/>
       <path id="DejaVuSans-67" d="M 2906 1791 
Q 2906 2416 2648 2759 
Q 2391 3103 1925 3103 
Q 1463 3103 1205 2759 
Q 947 2416 947 1791 
Q 947 1169 1205 825 
Q 1463 481 1925 481 
Q 2391 481 2648 825 
Q 2906 1169 2906 1791 
z
M 3481 434 
Q 3481 -459 3084 -895 
Q 2688 -1331 1869 -1331 
Q 1566 -1331 1297 -1286 
Q 1028 -1241 775 -1147 
L 775 -588 
Q 1028 -725 1275 -790 
Q 1522 -856 1778 -856 
Q 2344 -856 2625 -561 
Q 2906 -266 2906 331 
L 2906 616 
Q 2728 306 2450 153 
Q 2172 0 1784 0 
Q 1141 0 747 490 
Q 353 981 353 1791 
Q 353 2603 747 3093 
Q 1141 3584 1784 3584 
Q 2172 3584 2450 3431 
Q 2728 3278 2906 2969 
L 2906 3500 
L 3481 3500 
L 3481 434 
z
" transform="scale(0.015625)"/>
       <path id="DejaVuSans-65" d="M 3597 1894 
L 3597 1613 
L 953 1613 
Q 991 1019 1311 708 
Q 1631 397 2203 397 
Q 2534 397 2845 478 
Q 3156 559 3463 722 
L 3463 178 
Q 3153 47 2828 -22 
Q 2503 -91 2169 -91 
Q 1331 -91 842 396 
Q 353 884 353 1716 
Q 353 2575 817 3079 
Q 1281 3584 2069 3584 
Q 2775 3584 3186 3129 
Q 3597 2675 3597 1894 
z
M 3022 2063 
Q 3016 2534 2758 2815 
Q 2500 3097 2075 3097 
Q 1594 3097 1305 2825 
Q 1016 2553 972 2059 
L 3022 2063 
z
" transform="scale(0.015625)"/>
       <path id="DejaVuSans-20" transform="scale(0.015625)"/>
       <path id="DejaVuSans-73" d="M 2834 3397 
L 2834 2853 
Q 2591 2978 2328 3040 
Q 2066 3103 1784 3103 
Q 1356 3103 1142 2972 
Q 928 2841 928 2578 
Q 928 2378 1081 2264 
Q 1234 2150 1697 2047 
L 1894 2003 
Q 2506 1872 2764 1633 
Q 3022 1394 3022 966 
Q 3022 478 2636 193 
Q 2250 -91 1575 -91 
Q 1294 -91 989 -36 
Q 684 19 347 128 
L 347 722 
Q 666 556 975 473 
Q 1284 391 1588 391 
Q 1994 391 2212 530 
Q 2431 669 2431 922 
Q 2431 1156 2273 1281 
Q 2116 1406 1581 1522 
L 1381 1569 
Q 847 1681 609 1914 
Q 372 2147 372 2553 
Q 372 3047 722 3315 
Q 1072 3584 1716 3584 
Q 2034 3584 2315 3537 
Q 2597 3491 2834 3397 
z
" transform="scale(0.015625)"/>
       <path id="DejaVuSans-68" d="M 3513 2113 
L 3513 0 
L 2938 0 
L 2938 2094 
Q 2938 2591 2744 2837 
Q 2550 3084 2163 3084 
Q 1697 3084 1428 2787 
Q 1159 2491 1159 1978 
L 1159 0 
L 581 0 
L 581 4863 
L 1159 4863 
L 1159 2956 
Q 1366 3272 1645 3428 
Q 1925 3584 2291 3584 
Q 2894 3584 3203 3211 
Q 3513 2838 3513 2113 
z
" transform="scale(0.015625)"/>
       <path id="DejaVuSans-6f" d="M 1959 3097 
Q 1497 3097 1228 2736 
Q 959 2375 959 1747 
Q 959 1119 1226 758 
Q 1494 397 1959 397 
Q 2419 397 2687 759 
Q 2956 1122 2956 1747 
Q 2956 2369 2687 2733 
Q 2419 3097 1959 3097 
z
M 1959 3584 
Q 2709 3584 3137 3096 
Q 3566 2609 3566 1747 
Q 3566 888 3137 398 
Q 2709 -91 1959 -91 
Q 1206 -91 779 398 
Q 353 888 353 1747 
Q 353 2609 779 3096 
Q 1206 3584 1959 3584 
z
" transform="scale(0.015625)"/>
       <path id="DejaVuSans-77" d="M 269 3500 
L 844 3500 
L 1563 769 
L 2278 3500 
L 2956 3500 
L 3675 769 
L 4391 3500 
L 4966 3500 
L 4050 0 
L 3372 0 
L 2619 2869 
L 1863 0 
L 1184 0 
L 269 3500 
z
" transform="scale(0.015625)"/>
       <path id="DejaVuSans-6e" d="M 3513 2113 
L 3513 0 
L 2938 0 
L 2938 2094 
Q 2938 2591 2744 2837 
Q 2550 3084 2163 3084 
Q 1697 3084 1428 2787 
Q 1159 2491 1159 1978 
L 1159 0 
L 581 0 
L 581 3500 
L 1159 3500 
L 1159 2956 
Q 1366 3272 1645 3428 
Q 1925 3584 2291 3584 
Q 2894 3584 3203 3211 
Q 3513 2838 3513 2113 
z
" transform="scale(0.015625)"/>
      </defs>
      <use xlink:href="#DejaVuSans-49"/>
      <use xlink:href="#DejaVuSans-6d" x="29.492188"/>
      <use xlink:href="#DejaVuSans-61" x="126.904297"/>
      <use xlink:href="#DejaVuSans-67" x="188.183594"/>
      <use xlink:href="#DejaVuSans-65" x="251.660156"/>
      <use xlink:href="#DejaVuSans-20" x="313.183594"/>
      <use xlink:href="#DejaVuSans-73" x="344.970703"/>
      <use xlink:href="#DejaVuSans-68" x="397.070312"/>
      <use xlink:href="#DejaVuSans-6f" x="460.449219"/>
      <use xlink:href="#DejaVuSans-77" x="521.630859"/>
      <use xlink:href="#DejaVuSans-6e" x="603.417969"/>
     </g>
    </g>
   </g>
   <g id="matplotlib.axis_2">
    <g id="ytick_1">
     <g id="line2d_10">
      <defs>
       <path id="m05ccfc6a6d" d="M 0 0 
L -3.5 0 
" style="stroke: #000000; stroke-width: 0.8"/>
      </defs>
      <g>
       <use xlink:href="#m05ccfc6a6d" x="57.6" y="281.664" style="stroke: #000000; stroke-width: 0.8"/>
      </g>
     </g>
     <g id="text_11">
      <!-- 0.2 -->
      <g transform="translate(34.696875 285.463219) scale(0.1 -0.1)">
       <defs>
        <path id="DejaVuSans-2e" d="M 684 794 
L 1344 794 
L 1344 0 
L 684 0 
L 684 794 
z
" transform="scale(0.015625)"/>
       </defs>
       <use xlink:href="#DejaVuSans-30"/>
       <use xlink:href="#DejaVuSans-2e" x="63.623047"/>
       <use xlink:href="#DejaVuSans-32" x="95.410156"/>
      </g>
     </g>
    </g>
    <g id="ytick_2">
     <g id="line2d_11">
      <g>
       <use xlink:href="#m05ccfc6a6d" x="57.6" y="224.64" style="stroke: #000000; stroke-width: 0.8"/>
      </g>
     </g>
     <g id="text_12">
      <!-- 0.4 -->
      <g transform="translate(34.696875 228.439219) scale(0.1 -0.1)">
       <use xlink:href="#DejaVuSans-30"/>
       <use xlink:href="#DejaVuSans-2e" x="63.623047"/>
       <use xlink:href="#DejaVuSans-34" x="95.410156"/>
      </g>
     </g>
    </g>
    <g id="ytick_3">
     <g id="line2d_12">
      <g>
       <use xlink:href="#m05ccfc6a6d" x="57.6" y="167.616" style="stroke: #000000; stroke-width: 0.8"/>
      </g>
     </g>
     <g id="text_13">
      <!-- 0.6 -->
      <g transform="translate(34.696875 171.415219) scale(0.1 -0.1)">
       <defs>
        <path id="DejaVuSans-36" d="M 2113 2584 
Q 1688 2584 1439 2293 
Q 1191 2003 1191 1497 
Q 1191 994 1439 701 
Q 1688 409 2113 409 
Q 2538 409 2786 701 
Q 3034 994 3034 1497 
Q 3034 2003 2786 2293 
Q 2538 2584 2113 2584 
z
M 3366 4563 
L 3366 3988 
Q 3128 4100 2886 4159 
Q 2644 4219 2406 4219 
Q 1781 4219 1451 3797 
Q 1122 3375 1075 2522 
Q 1259 2794 1537 2939 
Q 1816 3084 2150 3084 
Q 2853 3084 3261 2657 
Q 3669 2231 3669 1497 
Q 3669 778 3244 343 
Q 2819 -91 2113 -91 
Q 1303 -91 875 529 
Q 447 1150 447 2328 
Q 447 3434 972 4092 
Q 1497 4750 2381 4750 
Q 2619 4750 2861 4703 
Q 3103 4656 3366 4563 
z
" transform="scale(0.015625)"/>
       </defs>
       <use xlink:href="#DejaVuSans-30"/>
       <use xlink:href="#DejaVuSans-2e" x="63.623047"/>
       <use xlink:href="#DejaVuSans-36" x="95.410156"/>
      </g>
     </g>
    </g>
    <g id="ytick_4">
     <g id="line2d_13">
      <g>
       <use xlink:href="#m05ccfc6a6d" x="57.6" y="110.592" style="stroke: #000000; stroke-width: 0.8"/>
      </g>
     </g>
     <g id="text_14">
      <!-- 0.8 -->
      <g transform="translate(34.696875 114.391219) scale(0.1 -0.1)">
       <defs>
        <path id="DejaVuSans-38" d="M 2034 2216 
Q 1584 2216 1326 1975 
Q 1069 1734 1069 1313 
Q 1069 891 1326 650 
Q 1584 409 2034 409 
Q 2484 409 2743 651 
Q 3003 894 3003 1313 
Q 3003 1734 2745 1975 
Q 2488 2216 2034 2216 
z
M 1403 2484 
Q 997 2584 770 2862 
Q 544 3141 544 3541 
Q 544 4100 942 4425 
Q 1341 4750 2034 4750 
Q 2731 4750 3128 4425 
Q 3525 4100 3525 3541 
Q 3525 3141 3298 2862 
Q 3072 2584 2669 2484 
Q 3125 2378 3379 2068 
Q 3634 1759 3634 1313 
Q 3634 634 3220 271 
Q 2806 -91 2034 -91 
Q 1263 -91 848 271 
Q 434 634 434 1313 
Q 434 1759 690 2068 
Q 947 2378 1403 2484 
z
M 1172 3481 
Q 1172 3119 1398 2916 
Q 1625 2713 2034 2713 
Q 2441 2713 2670 2916 
Q 2900 3119 2900 3481 
Q 2900 3844 2670 4047 
Q 2441 4250 2034 4250 
Q 1625 4250 1398 4047 
Q 1172 3844 1172 3481 
z
" transform="scale(0.015625)"/>
       </defs>
       <use xlink:href="#DejaVuSans-30"/>
       <use xlink:href="#DejaVuSans-2e" x="63.623047"/>
       <use xlink:href="#DejaVuSans-38" x="95.410156"/>
      </g>
     </g>
    </g>
    <g id="ytick_5">
     <g id="line2d_14">
      <g>
       <use xlink:href="#m05ccfc6a6d" x="57.6" y="53.568" style="stroke: #000000; stroke-width: 0.8"/>
      </g>
     </g>
     <g id="text_15">
      <!-- 1.0 -->
      <g transform="translate(34.696875 57.367219) scale(0.1 -0.1)">
       <use xlink:href="#DejaVuSans-31"/>
       <use xlink:href="#DejaVuSans-2e" x="63.623047"/>
       <use xlink:href="#DejaVuSans-30" x="95.410156"/>
      </g>
     </g>
    </g>
    <g id="text_16">
     <!-- Homogeneity of output spikes -->
     <g transform="translate(28.617187 249.723312) rotate(-90) scale(0.1 -0.1)">
      <defs>
       <path id="DejaVuSans-48" d="M 628 4666 
L 1259 4666 
L 1259 2753 
L 3553 2753 
L 3553 4666 
L 4184 4666 
L 4184 0 
L 3553 0 
L 3553 2222 
L 1259 2222 
L 1259 0 
L 628 0 
L 628 4666 
z
" transform="scale(0.015625)"/>
       <path id="DejaVuSans-69" d="M 603 3500 
L 1178 3500 
L 1178 0 
L 603 0 
L 603 3500 
z
M 603 4863 
L 1178 4863 
L 1178 4134 
L 603 4134 
L 603 4863 
z
" transform="scale(0.015625)"/>
       <path id="DejaVuSans-74" d="M 1172 4494 
L 1172 3500 
L 2356 3500 
L 2356 3053 
L 1172 3053 
L 1172 1153 
Q 1172 725 1289 603 
Q 1406 481 1766 481 
L 2356 481 
L 2356 0 
L 1766 0 
Q 1100 0 847 248 
Q 594 497 594 1153 
L 594 3053 
L 172 3053 
L 172 3500 
L 594 3500 
L 594 4494 
L 1172 4494 
z
" transform="scale(0.015625)"/>
       <path id="DejaVuSans-79" d="M 2059 -325 
Q 1816 -950 1584 -1140 
Q 1353 -1331 966 -1331 
L 506 -1331 
L 506 -850 
L 844 -850 
Q 1081 -850 1212 -737 
Q 1344 -625 1503 -206 
L 1606 56 
L 191 3500 
L 800 3500 
L 1894 763 
L 2988 3500 
L 3597 3500 
L 2059 -325 
z
" transform="scale(0.015625)"/>
       <path id="DejaVuSans-66" d="M 2375 4863 
L 2375 4384 
L 1825 4384 
Q 1516 4384 1395 4259 
Q 1275 4134 1275 3809 
L 1275 3500 
L 2222 3500 
L 2222 3053 
L 1275 3053 
L 1275 0 
L 697 0 
L 697 3053 
L 147 3053 
L 147 3500 
L 697 3500 
L 697 3744 
Q 697 4328 969 4595 
Q 1241 4863 1831 4863 
L 2375 4863 
z
" transform="scale(0.015625)"/>
       <path id="DejaVuSans-75" d="M 544 1381 
L 544 3500 
L 1119 3500 
L 1119 1403 
Q 1119 906 1312 657 
Q 1506 409 1894 409 
Q 2359 409 2629 706 
Q 2900 1003 2900 1516 
L 2900 3500 
L 3475 3500 
L 3475 0 
L 2900 0 
L 2900 538 
Q 2691 219 2414 64 
Q 2138 -91 1772 -91 
Q 1169 -91 856 284 
Q 544 659 544 1381 
z
M 1991 3584 
L 1991 3584 
z
" transform="scale(0.015625)"/>
       <path id="DejaVuSans-70" d="M 1159 525 
L 1159 -1331 
L 581 -1331 
L 581 3500 
L 1159 3500 
L 1159 2969 
Q 1341 3281 1617 3432 
Q 1894 3584 2278 3584 
Q 2916 3584 3314 3078 
Q 3713 2572 3713 1747 
Q 3713 922 3314 415 
Q 2916 -91 2278 -91 
Q 1894 -91 1617 61 
Q 1341 213 1159 525 
z
M 3116 1747 
Q 3116 2381 2855 2742 
Q 2594 3103 2138 3103 
Q 1681 3103 1420 2742 
Q 1159 2381 1159 1747 
Q 1159 1113 1420 752 
Q 1681 391 2138 391 
Q 2594 391 2855 752 
Q 3116 1113 3116 1747 
z
" transform="scale(0.015625)"/>
       <path id="DejaVuSans-6b" d="M 581 4863 
L 1159 4863 
L 1159 1991 
L 2875 3500 
L 3609 3500 
L 1753 1863 
L 3688 0 
L 2938 0 
L 1159 1709 
L 1159 0 
L 581 0 
L 581 4863 
z
" transform="scale(0.015625)"/>
      </defs>
      <use xlink:href="#DejaVuSans-48"/>
      <use xlink:href="#DejaVuSans-6f" x="75.195312"/>
      <use xlink:href="#DejaVuSans-6d" x="136.376953"/>
      <use xlink:href="#DejaVuSans-6f" x="233.789062"/>
      <use xlink:href="#DejaVuSans-67" x="294.970703"/>
      <use xlink:href="#DejaVuSans-65" x="358.447266"/>
      <use xlink:href="#DejaVuSans-6e" x="419.970703"/>
      <use xlink:href="#DejaVuSans-65" x="483.349609"/>
      <use xlink:href="#DejaVuSans-69" x="544.873047"/>
      <use xlink:href="#DejaVuSans-74" x="572.65625"/>
      <use xlink:href="#DejaVuSans-79" x="611.865234"/>
      <use xlink:href="#DejaVuSans-20" x="671.044922"/>
      <use xlink:href="#DejaVuSans-6f" x="702.832031"/>
      <use xlink:href="#DejaVuSans-66" x="764.013672"/>
      <use xlink:href="#DejaVuSans-20" x="799.21875"/>
      <use xlink:href="#DejaVuSans-6f" x="831.005859"/>
      <use xlink:href="#DejaVuSans-75" x="892.1875"/>
      <use xlink:href="#DejaVuSans-74" x="955.566406"/>
      <use xlink:href="#DejaVuSans-70" x="994.775391"/>
      <use xlink:href="#DejaVuSans-75" x="1058.251953"/>
      <use xlink:href="#DejaVuSans-74" x="1121.630859"/>
      <use xlink:href="#DejaVuSans-20" x="1160.839844"/>
      <use xlink:href="#DejaVuSans-73" x="1192.626953"/>
      <use xlink:href="#DejaVuSans-70" x="1244.726562"/>
      <use xlink:href="#DejaVuSans-69" x="1308.203125"/>
      <use xlink:href="#DejaVuSans-6b" x="1335.986328"/>
      <use xlink:href="#DejaVuSans-65" x="1390.271484"/>
      <use xlink:href="#DejaVuSans-73" x="1451.794922"/>
     </g>
    </g>
   </g>
   <g id="line2d_15">
    <path d="M 73.832727 289.810286 
L 73.995136 276.705391 
L 74.07634 261.628541 
L 74.319953 295.488 
L 74.401157 294.336 
L 75.050791 243.648 
L 75.131995 291.168 
L 75.294404 248.650105 
L 75.375608 280.368 
L 75.456812 269.568 
L 75.538016 271.159579 
L 75.781629 80.722286 
L 75.862833 272.381023 
L 75.944037 116.928 
L 76.025242 131.328 
L 76.268854 278.208 
L 76.512467 53.568 
L 76.593671 53.568 
L 76.837284 185.161846 
L 76.918488 146.541913 
L 76.999693 166.428 
L 77.080897 53.568 
L 77.162101 121.453714 
L 77.32451 53.568 
L 77.405714 277.040432 
L 77.568122 53.568 
L 77.649326 53.568 
L 77.730531 166.115368 
L 77.892939 53.568 
L 78.055348 53.568 
L 78.217756 67.824 
L 78.29896 53.568 
L 78.380165 185.69678 
L 78.461369 60.356571 
L 78.542573 188.624842 
L 78.704982 53.568 
L 78.948594 53.568 
L 79.029799 61.953882 
L 79.111003 53.568 
L 79.192207 246.024 
L 79.354615 53.568 
L 79.760637 53.568 
L 79.841841 70.848 
L 79.923045 53.568 
L 80.004249 95.292878 
L 80.085454 60.048 
L 80.166658 62.765419 
L 80.329066 69.860571 
L 80.410271 59.634383 
L 80.491475 61.273946 
L 80.653883 73.933714 
L 80.816292 53.568 
L 80.897496 53.568 
L 80.9787 139.968 
L 81.141109 58.947623 
L 81.303517 53.568 
L 81.384721 68.979892 
L 81.54713 53.568 
L 81.628334 60.198698 
L 81.790743 53.568 
L 81.953151 70.339765 
L 82.11556 53.568 
L 82.196764 77.328 
L 82.277968 69.860571 
L 82.440377 53.568 
L 82.683989 53.568 
L 82.765194 87.510857 
L 82.846398 74.952 
L 82.927602 117.72 
L 83.09001 53.568 
L 83.171215 53.568 
L 83.252419 183.908571 
L 83.333623 53.568 
L 83.414827 181.581061 
L 83.496032 115.215568 
L 83.577236 119.874977 
L 83.739644 53.568 
L 83.820849 71.767149 
L 83.902053 148.608 
L 83.983257 53.568 
L 84.064461 66.24 
L 84.145666 86.153143 
L 84.389278 53.568 
L 84.551687 66.24 
L 84.632891 162.762894 
L 84.714095 53.568 
L 84.795299 86.153143 
L 84.876504 60.878769 
L 84.957708 63.750857 
L 85.038912 53.568 
L 85.120116 61.071158 
L 85.201321 53.568 
L 85.363729 106.368 
L 85.444933 86.721488 
L 85.526138 60.048 
L 85.607342 60.696 
L 85.688546 53.568 
L 85.76975 124.848 
L 85.932159 53.568 
L 86.013363 53.568 
L 86.094567 61.488 
L 86.175772 53.568 
L 86.256976 61.953882 
L 86.33818 61.071158 
L 86.419384 109.201171 
L 86.581793 53.568 
L 86.825405 53.568 
L 86.90661 208.347429 
L 87.069018 53.568 
L 87.150222 67.476293 
L 87.312631 53.568 
L 87.393835 53.568 
L 87.475039 62.208 
L 87.637448 121.9968 
L 87.718652 53.568 
L 87.799856 58.947623 
L 87.881061 53.568 
L 87.962265 102.247024 
L 88.043469 60.356571 
L 88.205877 188.624842 
L 88.368286 53.568 
L 88.611899 53.568 
L 88.693103 145.542194 
L 88.774307 53.568 
L 88.855511 62.208 
L 88.936716 148.608 
L 89.01792 66.829395 
L 89.099124 67.824 
L 89.180328 53.568 
L 89.261533 188.208 
L 89.423941 60.198698 
L 89.505145 53.568 
L 89.58635 71.767149 
L 89.748758 60.048 
L 89.829962 62.478 
L 89.911166 61.488 
L 89.992371 78.725647 
L 90.073575 53.568 
L 90.154779 60.198698 
L 90.317188 53.568 
L 90.398392 68.189538 
L 90.479596 53.568 
L 90.5608 60.356571 
L 90.723209 53.568 
L 90.885617 53.568 
L 90.966822 74.952 
L 91.12923 53.568 
L 91.291639 95.497412 
L 91.372843 53.568 
L 91.454047 61.488 
L 91.535251 60.048 
L 91.616456 53.568 
L 91.69766 81.384585 
L 91.778864 53.568 
L 91.860068 59.508 
L 92.022477 53.568 
L 92.103681 53.568 
L 92.184885 67.476293 
L 92.347294 53.568 
L 92.509702 96.336 
L 92.672111 53.568 
L 92.996928 53.568 
L 93.078132 65.448 
L 93.24054 53.568 
L 93.321745 53.568 
L 93.402949 61.953882 
L 93.484153 53.568 
L 93.646561 61.071158 
L 93.727766 61.714286 
L 93.890174 53.568 
L 93.971378 53.568 
L 94.052583 62.765419 
L 94.214991 53.568 
L 94.296195 188.208 
L 94.3774 53.568 
L 94.458604 61.273946 
L 94.539808 60.878769 
L 94.702217 53.568 
L 94.783421 53.568 
L 94.864625 81.160258 
L 95.027034 53.568 
L 95.108238 53.568 
L 95.189442 68.189538 
L 95.270646 53.568 
L 95.35185 86.721488 
L 95.514259 53.568 
L 95.595463 53.568 
L 95.757872 146.232 
L 95.839076 61.488 
L 95.92028 70.339765 
L 96.001484 61.071158 
L 96.082689 126.505674 
L 96.245097 53.568 
L 96.569914 53.568 
L 96.651118 59.2704 
L 96.732323 53.568 
L 96.894731 61.071158 
L 96.975935 80.722286 
L 97.057139 144.288 
L 97.138344 53.568 
L 97.219548 82.811077 
L 97.381956 53.568 
L 97.463161 66.829395 
L 97.544365 53.568 
L 97.625569 184.569081 
L 97.787978 76.077474 
L 97.869182 58.947623 
L 97.950386 63.072 
L 98.03159 60.356571 
L 98.112795 53.568 
L 98.275203 71.388 
L 98.437612 53.568 
L 98.518816 93.4848 
L 98.681224 53.568 
L 98.762428 87.7824 
L 98.924837 53.568 
L 99.006041 64.327245 
L 99.087245 60.878769 
L 99.16845 120.655059 
L 99.249654 53.568 
L 99.330858 87.7824 
L 99.493267 53.568 
L 99.574471 53.568 
L 99.655675 107.509622 
L 99.736879 53.568 
L 99.818084 121.453714 
L 99.980492 53.568 
L 100.142901 73.933714 
L 100.224105 53.568 
L 100.305309 154.198588 
L 100.467717 53.568 
L 100.548922 60.696 
L 100.630126 60.198698 
L 100.71133 53.568 
L 100.792534 68.189538 
L 101.036147 53.568 
L 101.27976 53.568 
L 101.360964 64.534154 
L 101.442168 60.522146 
L 101.523373 192.054857 
L 101.685781 53.568 
L 101.766985 69.408 
L 101.84819 109.008 
L 102.010598 72.162783 
L 102.091802 211.968 
L 102.254211 73.460093 
L 102.416619 53.568 
L 102.497823 53.568 
L 102.579028 141.297231 
L 102.741436 53.568 
L 102.82264 61.071158 
L 102.903845 53.568 
L 102.985049 128.242286 
L 103.147457 60.198698 
L 103.228662 110.592 
L 103.39107 53.568 
L 103.472274 69.860571 
L 103.553479 53.568 
L 103.634683 83.063172 
L 103.878296 53.568 
L 103.9595 53.568 
L 104.121908 87.510857 
L 104.284317 53.568 
L 104.365521 59.634383 
L 104.527929 89.208 
L 104.609134 61.714286 
L 104.690338 69.860571 
L 104.771542 53.568 
L 104.852746 184.569081 
L 104.933951 53.568 
L 105.015155 60.198698 
L 105.096359 66.24 
L 105.258768 53.568 
L 105.339972 53.568 
L 105.50238 72.576 
L 105.583585 53.568 
L 105.664789 60.522146 
L 105.745993 72.162783 
L 105.827197 59.634383 
L 105.908401 60.356571 
L 105.989606 67.476293 
L 106.07081 66.528 
L 106.233218 53.568 
L 106.476831 90.757565 
L 106.558035 83.063172 
L 106.720444 53.568 
L 106.801648 53.568 
L 106.882852 93.4848 
L 107.045261 53.568 
L 107.207669 81.160258 
L 107.370078 53.568 
L 107.532486 53.568 
L 107.61369 66.829395 
L 107.694895 53.568 
L 107.776099 144.563745 
L 107.857303 53.568 
L 107.938507 65.448 
L 108.100916 53.568 
L 108.18212 106.613581 
L 108.344529 53.568 
L 108.425733 71.767149 
L 108.588141 53.568 
L 108.669346 78.725647 
L 108.831754 53.568 
L 108.994163 53.568 
L 109.075367 60.198698 
L 109.156571 53.568 
L 109.318979 69.860571 
L 109.562592 53.568 
L 109.643796 53.568 
L 109.725001 161.28 
L 109.806205 61.953882 
L 109.887409 67.824 
L 109.968613 53.568 
L 110.049818 71.024327 
L 110.212226 53.568 
L 110.29343 68.979892 
L 110.374635 61.714286 
L 110.455839 65.700766 
L 110.618247 53.568 
L 110.699452 87.510857 
L 110.86186 53.568 
L 111.105473 53.568 
L 111.186677 160.488 
L 111.267881 53.568 
L 111.349085 60.048 
L 111.43029 59.051077 
L 111.511494 53.568 
L 111.592698 80.090791 
L 111.673902 215.695059 
L 111.836311 53.568 
L 111.917515 153.028465 
L 112.079924 53.568 
L 112.161128 53.568 
L 112.242332 70.339765 
L 112.404741 53.568 
L 112.567149 69.408 
L 112.648353 53.568 
L 112.729558 126.675692 
L 112.891966 53.568 
L 112.97317 77.328 
L 113.054374 60.696 
L 113.135579 118.368 
L 113.216783 53.568 
L 113.297987 60.198698 
L 113.379191 53.568 
L 113.460396 60.356571 
L 113.5416 136.102737 
L 113.622804 53.568 
L 113.704008 146.039351 
L 113.866417 60.048 
L 113.947621 53.568 
L 114.028825 60.048 
L 114.191234 53.568 
L 114.272438 131.976 
L 114.434847 53.568 
L 114.516051 67.476293 
L 114.597255 213.513366 
L 114.759663 53.568 
L 114.922072 53.568 
L 115.003276 60.198698 
L 115.165685 148.608 
L 115.328093 60.696 
L 115.409297 53.568 
L 115.490502 73.933714 
L 115.571706 53.568 
L 115.65291 112.054154 
L 115.815319 67.476293 
L 115.896523 70.339765 
L 115.977727 53.568 
L 116.058931 60.356571 
L 116.22134 53.568 
L 116.464952 53.568 
L 116.546157 61.488 
L 116.627361 53.568 
L 116.708565 65.205551 
L 116.789769 61.714286 
L 116.870974 53.568 
L 116.952178 135.030857 
L 117.033382 98.586947 
L 117.114586 120.655059 
L 117.195791 53.568 
L 117.276995 88.128 
L 117.358199 53.568 
L 117.439403 87.510857 
L 117.520608 53.568 
L 117.601812 67.824 
L 117.683016 53.568 
L 117.76422 66.829395 
L 117.845425 53.568 
L 117.926629 146.397767 
L 118.007833 61.071158 
L 118.089037 73.231448 
L 118.170241 66.829395 
L 118.251446 69.860571 
L 118.33265 65.700766 
L 118.495058 53.568 
L 118.576263 61.071158 
L 118.657467 53.568 
L 118.819875 60.522146 
L 118.90108 140.688 
L 118.982284 53.568 
L 119.063488 181.872 
L 119.144692 53.568 
L 119.225897 90.121846 
L 119.307101 53.568 
L 119.388305 63.072 
L 119.469509 53.568 
L 119.631918 144.288 
L 119.713122 53.568 
L 119.794326 60.356571 
L 119.87553 105.408 
L 120.037939 60.696 
L 120.119143 71.388 
L 120.200347 140.688 
L 120.362756 53.568 
L 120.44396 53.568 
L 120.525164 68.979892 
L 120.606369 60.356571 
L 120.768777 124.848 
L 120.849981 53.568 
L 120.931186 124.848 
L 121.093594 53.568 
L 121.174798 63.072 
L 121.256003 177.12 
L 121.418411 53.568 
L 121.499615 53.568 
L 121.58082 71.962839 
L 121.662024 68.979892 
L 121.824432 53.568 
L 121.986841 53.568 
L 122.068045 85.248 
L 122.149249 72.162783 
L 122.311658 161.451243 
L 122.392862 53.568 
L 122.474066 86.153143 
L 122.55527 73.008 
L 122.636475 107.509622 
L 122.717679 53.568 
L 122.798883 70.848 
L 122.880087 53.568 
L 122.961292 68.979892 
L 123.042496 53.568 
L 123.1237 67.476293 
L 123.367313 53.568 
L 123.529721 69.860571 
L 123.610925 53.568 
L 123.69213 214.722783 
L 123.773334 60.356571 
L 123.854538 119.874977 
L 124.016947 61.071158 
L 124.098151 53.568 
L 124.179355 146.232 
L 124.260559 53.568 
L 124.341764 60.696 
L 124.422968 81.384585 
L 124.585376 53.568 
L 124.666581 165.579429 
L 124.828989 53.568 
L 124.910193 102.247024 
L 124.991398 98.928 
L 125.153806 53.568 
L 125.23501 81.520941 
L 125.316214 60.356571 
L 125.397419 62.208 
L 125.559827 53.568 
L 125.641031 61.714286 
L 125.80344 53.568 
L 125.884644 74.952 
L 125.965848 53.568 
L 126.047053 61.273946 
L 126.209461 53.568 
L 126.290665 75.500308 
L 126.37187 146.039351 
L 126.453074 53.568 
L 126.534278 189 
L 126.615482 150.926049 
L 126.777891 53.568 
L 126.859095 61.071158 
L 126.940299 53.568 
L 127.021503 59.386776 
L 127.183912 158.112 
L 127.265116 53.568 
L 127.34632 88.338732 
L 127.427525 53.568 
L 127.508729 63.399724 
L 127.589933 53.568 
L 127.671137 116.155317 
L 127.752342 53.568 
L 127.833546 68.189538 
L 127.91475 53.568 
L 127.995954 78.361043 
L 128.158363 59.904 
L 128.239567 182.550857 
L 128.401976 53.568 
L 128.726792 53.568 
L 128.807997 211.968 
L 128.889201 53.568 
L 128.970405 67.824 
L 129.051609 53.568 
L 129.132814 67.476293 
L 129.214018 53.568 
L 129.295222 60.878769 
L 129.376426 53.568 
L 129.457631 67.824 
L 129.538835 53.568 
L 129.620039 67.476293 
L 129.701243 53.568 
L 129.782448 151.323429 
L 129.863652 53.568 
L 129.944856 187.218 
L 130.107265 53.568 
L 130.188469 53.568 
L 130.269673 124.848 
L 130.350877 53.568 
L 130.513286 176.688 
L 130.675694 53.568 
L 130.756898 61.071158 
L 130.838103 113.244279 
L 130.919307 94.299429 
L 131.000511 53.568 
L 131.081715 58.947623 
L 131.16292 71.388 
L 131.244124 53.568 
L 131.325328 196.128 
L 131.487737 71.388 
L 131.568941 68.189538 
L 131.650145 53.568 
L 131.731349 61.488 
L 131.812554 53.568 
L 131.893758 61.273946 
L 131.974962 188.624842 
L 132.137371 53.568 
L 132.218575 73.933714 
L 132.299779 179.356235 
L 132.462187 53.568 
L 132.787004 53.568 
L 132.868209 203.631158 
L 132.949413 53.568 
L 133.030617 60.696 
L 133.111821 60.878769 
L 133.193026 66.829395 
L 133.27423 63.072 
L 133.355434 53.568 
L 133.436638 83.899915 
L 133.599047 53.568 
L 133.761455 73.933714 
L 133.923864 53.568 
L 134.167476 53.568 
L 134.329885 162.762894 
L 134.411089 53.568 
L 134.492293 63.750857 
L 134.573498 53.568 
L 134.654702 60.878769 
L 134.735906 78.361043 
L 134.81711 61.953882 
L 134.898315 105.408 
L 135.060723 53.568 
L 135.223132 53.568 
L 135.304336 59.158588 
L 135.38554 126.884571 
L 135.547949 53.568 
L 135.710357 53.568 
L 135.95397 99.803676 
L 136.035174 67.476293 
L 136.116378 181.872 
L 136.278787 53.568 
L 136.522399 53.568 
L 136.603604 62.478 
L 136.766012 53.568 
L 136.847216 180.288 
L 137.009625 53.568 
L 137.090829 62.208 
L 137.172033 59.508 
L 137.253238 53.568 
L 137.49685 78.006857 
L 137.659259 53.568 
L 137.740463 53.568 
L 137.821667 170.540308 
L 137.902871 53.568 
L 137.984076 78.361043 
L 138.06528 53.568 
L 138.227688 69.860571 
L 138.308893 53.568 
L 138.390097 96.336 
L 138.552505 53.568 
L 138.63371 96.768 
L 138.796118 59.508 
L 138.877322 60.878769 
L 138.958527 60.522146 
L 139.039731 59.904 
L 139.120935 65.205551 
L 139.202139 59.634383 
L 139.283343 61.273946 
L 139.364548 66.24 
L 139.526956 53.568 
L 139.60816 68.574316 
L 139.689365 126.884571 
L 139.851773 53.568 
L 139.932977 76.077474 
L 140.095386 53.568 
L 140.17659 53.568 
L 140.338999 163.229538 
L 140.501407 53.568 
L 140.663816 53.568 
L 140.74502 145.812706 
L 140.907428 53.568 
L 140.988632 135.030857 
L 141.151041 59.634383 
L 141.232245 151.109053 
L 141.313449 53.568 
L 141.394654 87.510857 
L 141.475858 63.750857 
L 141.557062 70.848 
L 141.638266 162.584471 
L 141.719471 53.568 
L 141.800675 68.189538 
L 141.881879 94.299429 
L 141.963083 60.356571 
L 142.044288 152.740174 
L 142.125492 124.848 
L 142.206696 53.568 
L 142.2879 59.508 
L 142.369105 160.488 
L 142.450309 148.608 
L 142.612717 53.568 
L 142.693922 53.568 
L 142.775126 71.962839 
L 142.937534 53.568 
L 143.018738 61.071158 
L 143.181147 146.232 
L 143.262351 53.568 
L 143.343555 61.273946 
L 143.505964 53.568 
L 143.587168 87.510857 
L 143.749577 53.568 
L 143.911985 70.848 
L 144.074394 53.568 
L 144.155598 68.979892 
L 144.236802 192.812651 
L 144.318006 183.908571 
L 144.480415 53.568 
L 144.561619 59.634383 
L 144.642823 138.048 
L 144.805232 59.158588 
L 144.886436 60.356571 
L 145.048844 53.568 
L 145.130049 76.685838 
L 145.292457 53.568 
L 145.373661 53.568 
L 145.617274 93.168 
L 145.698478 67.476293 
L 145.779683 82.811077 
L 145.860887 143.605895 
L 146.1045 53.568 
L 146.185704 53.568 
L 146.266908 60.198698 
L 146.348112 122.921514 
L 146.510521 69.408 
L 146.591725 53.568 
L 146.672929 60.356571 
L 146.754133 115.215568 
L 146.916542 59.508 
L 146.997746 171.54869 
L 147.07895 137.017756 
L 147.160155 53.568 
L 147.241359 65.448 
L 147.322563 78.725647 
L 147.484972 60.878769 
L 147.64738 71.388 
L 147.728584 192.472615 
L 147.890993 65.448 
L 148.134605 53.568 
L 148.297014 68.574316 
L 148.378218 164.124735 
L 148.459422 61.273946 
L 148.540627 107.509622 
L 148.621831 61.273946 
L 148.703035 74.952 
L 148.865444 53.568 
L 148.946648 100.118204 
L 149.027852 58.947623 
L 149.109056 67.145143 
L 149.190261 61.488 
L 149.271465 69.408 
L 149.352669 53.568 
L 149.515078 82.08 
L 149.596282 53.568 
L 149.677486 62.478 
L 149.75869 53.568 
L 149.839894 60.356571 
L 149.921099 139.104 
L 150.002303 60.696 
L 150.083507 71.388 
L 150.164711 53.568 
L 150.32712 64.128 
L 150.408324 53.568 
L 150.489528 68.189538 
L 150.570733 60.356571 
L 150.651937 165.136696 
L 150.814345 53.568 
L 150.89555 60.696 
L 150.976754 79.488 
L 151.057958 53.568 
L 151.139162 70.339765 
L 151.220367 60.878769 
L 151.301571 89.208 
L 151.382775 60.356571 
L 151.463979 133.758 
L 151.545184 118.738286 
L 151.626388 53.568 
L 151.707592 61.071158 
L 151.788796 60.696 
L 151.87 82.08 
L 151.951205 53.568 
L 152.032409 60.522146 
L 152.113613 77.328 
L 152.276022 53.568 
L 152.357226 53.568 
L 152.519634 67.824 
L 152.600839 61.953882 
L 152.682043 67.824 
L 152.763247 116.928 
L 152.844451 71.388 
L 152.925656 78.006857 
L 153.00686 110.592 
L 153.169268 53.568 
L 153.331677 73.933714 
L 153.575289 53.568 
L 153.656494 73.008 
L 153.737698 61.488 
L 153.900106 148.608 
L 153.981311 78.006857 
L 154.062515 120.655059 
L 154.143719 53.568 
L 154.224923 61.953882 
L 154.306128 67.476293 
L 154.387332 60.878769 
L 154.468536 71.388 
L 154.630945 53.568 
L 154.874557 78.725647 
L 154.955762 158.938435 
L 155.036966 69.860571 
L 155.11817 153.745297 
L 155.199374 53.568 
L 155.280578 66.528 
L 155.361783 60.198698 
L 155.442987 73.231448 
L 155.605395 53.568 
L 155.6866 53.568 
L 155.767804 59.904 
L 155.930212 53.568 
L 156.011417 59.634383 
L 156.092621 53.568 
L 156.173825 66.829395 
L 156.255029 65.700766 
L 156.336234 53.568 
L 156.417438 60.198698 
L 156.498642 193.094809 
L 156.579846 53.568 
L 156.661051 61.273946 
L 156.823459 53.568 
L 156.904663 67.476293 
L 156.985867 61.714286 
L 157.067072 73.933714 
L 157.148276 53.568 
L 157.22948 69.408 
L 157.310684 53.568 
L 157.391889 62.765419 
L 157.473093 53.568 
L 157.635501 65.448 
L 157.716706 53.568 
L 157.960318 68.574316 
L 158.122727 53.568 
L 158.285135 60.356571 
L 158.36634 61.488 
L 158.447544 60.696 
L 158.528748 61.273946 
L 158.609952 53.568 
L 158.691156 66.24 
L 158.772361 53.568 
L 158.934769 69.860571 
L 159.178382 53.568 
L 159.259586 75.500308 
L 159.34079 53.568 
L 159.503199 80.722286 
L 159.665607 53.568 
L 159.746812 60.356571 
L 159.828016 163.728 
L 159.990424 53.568 
L 160.315241 53.568 
L 160.47765 138.333405 
L 160.558854 53.568 
L 160.640058 183.731478 
L 160.721262 53.568 
L 160.802467 65.205551 
L 160.883671 142.668 
L 160.964875 60.878769 
L 161.046079 179.0208 
L 161.208488 60.522146 
L 161.289692 62.208 
L 161.370896 108.752516 
L 161.452101 97.432615 
L 161.533305 61.714286 
L 161.614509 83.580632 
L 161.695713 67.476293 
L 161.776918 102.247024 
L 162.02053 59.904 
L 162.101735 68.574316 
L 162.182939 104.743385 
L 162.264143 53.568 
L 162.507756 123.109463 
L 162.58896 61.071158 
L 162.670164 192.275027 
L 162.832573 53.568 
L 162.994981 53.568 
L 163.076185 182.550857 
L 163.238594 53.568 
L 163.401002 183.168 
L 163.563411 53.568 
L 163.644615 53.568 
L 163.725819 59.904 
L 163.807024 112.269176 
L 163.969432 61.488 
L 164.050636 53.568 
L 164.213045 61.488 
L 164.294249 59.766261 
L 164.375453 53.568 
L 164.456657 65.700766 
L 164.537862 53.568 
L 164.619066 74.952 
L 164.781474 53.568 
L 164.862679 130.627459 
L 164.943883 60.356571 
L 165.025087 61.953882 
L 165.106291 167.616 
L 165.2687 53.568 
L 165.349904 53.568 
L 165.512313 67.824 
L 165.593517 53.568 
L 165.674721 58.659429 
L 165.755925 93.168 
L 165.837129 53.568 
L 165.918334 60.696 
L 165.999538 53.568 
L 166.080742 63.072 
L 166.161946 60.696 
L 166.243151 53.568 
L 166.405559 68.574316 
L 166.567968 53.568 
L 166.649172 62.478 
L 166.730376 53.568 
L 166.81158 71.767149 
L 166.892785 53.568 
L 167.055193 62.208 
L 167.136397 112.054154 
L 167.298806 59.766261 
L 167.38001 59.508 
L 167.461214 81.384585 
L 167.623623 67.476293 
L 167.704827 67.824 
L 167.786031 61.273946 
L 167.94844 121.453714 
L 168.029644 60.356571 
L 168.110848 73.460093 
L 168.192052 83.580632 
L 168.435665 53.568 
L 168.516869 68.979892 
L 168.598074 53.568 
L 168.679278 60.878769 
L 168.841686 53.568 
L 168.922891 69.408 
L 169.085299 53.568 
L 169.166503 170.208 
L 169.328912 53.568 
L 169.410116 61.273946 
L 169.49132 115.938 
L 169.572524 61.488 
L 169.653729 79.488 
L 169.734933 53.568 
L 169.816137 70.339765 
L 169.897341 53.568 
L 169.978546 74.952 
L 170.140954 53.568 
L 170.222158 53.568 
L 170.303363 71.388 
L 170.465771 53.568 
L 170.546975 53.568 
L 170.62818 70.339765 
L 170.709384 68.574316 
L 170.790588 74.304 
L 170.952996 60.198698 
L 171.034201 91.584 
L 171.115405 60.356571 
L 171.196609 157.248 
L 171.277813 53.568 
L 171.359018 68.189538 
L 171.440222 173.618526 
L 171.60263 53.568 
L 171.683835 60.878769 
L 171.765039 59.634383 
L 171.846243 53.568 
L 171.927447 132.768 
L 172.089856 71.388 
L 172.17106 59.508 
L 172.252264 61.714286 
L 172.414673 61.714286 
L 172.495877 60.198698 
L 172.577081 61.714286 
L 172.658286 80.983385 
L 172.73949 53.568 
L 172.820694 156.528 
L 172.983102 53.568 
L 173.064307 76.685838 
L 173.226715 53.568 
L 173.307919 67.824 
L 173.389124 53.568 
L 173.470328 78.361043 
L 173.551532 53.568 
L 173.632736 60.048 
L 173.713941 53.568 
L 173.795145 63.072 
L 173.876349 61.071158 
L 173.957553 59.766261 
L 174.038758 60.048 
L 174.119962 76.685838 
L 174.28237 53.568 
L 174.363575 83.580632 
L 174.525983 53.568 
L 174.607187 58.848 
L 174.769596 53.568 
L 174.8508 53.568 
L 174.932004 60.696 
L 175.013208 59.2704 
L 175.094413 167.616 
L 175.175617 59.508 
L 175.256821 71.388 
L 175.338025 80.298 
L 175.41923 61.273946 
L 175.581638 79.488 
L 175.662842 74.952 
L 175.825251 53.568 
L 175.906455 53.568 
L 175.987659 66.528 
L 176.068864 65.964522 
L 176.150068 153.36 
L 176.312476 53.568 
L 176.39368 53.568 
L 176.474885 76.3776 
L 176.718497 53.568 
L 176.799702 161.451243 
L 176.96211 53.568 
L 177.043314 164.448 
L 177.124519 53.568 
L 177.205723 66.528 
L 177.286927 159.469714 
L 177.449336 53.568 
L 177.53054 90.121846 
L 177.692948 65.448 
L 177.774153 53.568 
L 177.855357 73.460093 
L 177.936561 170.970353 
L 178.098969 53.568 
L 178.261378 53.568 
L 178.342582 66.829395 
L 178.586195 53.568 
L 178.667399 53.568 
L 178.748603 68.189538 
L 178.829808 53.568 
L 178.911012 62.208 
L 178.992216 60.878769 
L 179.07342 65.964522 
L 179.235829 59.766261 
L 179.317033 60.198698 
L 179.398237 53.568 
L 179.479442 73.460093 
L 179.560646 199.296 
L 179.723054 53.568 
L 179.885463 66.528 
L 179.966667 65.448 
L 180.047871 132.768 
L 180.129075 66.528 
L 180.21028 69.860571 
L 180.372688 53.568 
L 180.453892 59.904 
L 180.535097 104.743385 
L 180.616301 53.568 
L 180.697505 60.522146 
L 180.778709 65.448 
L 180.859914 59.766261 
L 180.941118 65.964522 
L 181.022322 102.099064 
L 181.184731 53.568 
L 181.265935 154.198588 
L 181.428343 53.568 
L 181.509548 74.952 
L 181.671956 53.568 
L 181.75316 67.824 
L 181.834364 53.568 
L 181.915569 121.096421 
L 182.077977 68.979892 
L 182.159181 124.848 
L 182.32159 53.568 
L 182.402794 67.476293 
L 182.483998 53.568 
L 182.646407 200.448 
L 182.808815 53.568 
L 182.89002 53.568 
L 182.971224 70.6752 
L 183.133632 53.568 
L 183.214837 77.328 
L 183.296041 53.568 
L 183.377245 131.976 
L 183.458449 128.242286 
L 183.539653 53.568 
L 183.620858 65.964522 
L 183.702062 53.568 
L 183.86447 73.460093 
L 183.945675 157.880195 
L 184.108083 53.568 
L 184.189287 53.568 
L 184.270492 113.593263 
L 184.4329 59.904 
L 184.514104 83.268 
L 184.595309 178.742634 
L 184.757717 53.568 
L 184.838921 60.878769 
L 184.920126 92.448 
L 185.082534 53.568 
L 185.163738 53.568 
L 185.244942 61.953882 
L 185.326147 110.592 
L 185.488555 53.568 
L 185.650964 53.568 
L 185.732168 170.970353 
L 185.813372 71.388 
L 185.894576 131.976 
L 186.056985 65.700766 
L 186.138189 192.472615 
L 186.219393 53.568 
L 186.300598 67.145143 
L 186.381802 68.979892 
L 186.54421 53.568 
L 186.625415 69.860571 
L 186.706619 53.568 
L 186.787823 61.273946 
L 186.869027 60.878769 
L 186.950231 59.2704 
L 187.11264 67.476293 
L 187.356253 53.568 
L 187.437457 64.9728 
L 187.518661 53.568 
L 187.599865 68.574316 
L 187.762274 61.273946 
L 187.843478 60.522146 
L 187.924682 77.328 
L 188.087091 53.568 
L 188.168295 76.077474 
L 188.249499 59.634383 
L 188.411908 87.510857 
L 188.574316 61.714286 
L 188.65552 53.568 
L 188.736725 73.460093 
L 188.899133 53.568 
L 189.142746 128.599579 
L 189.22395 53.568 
L 189.305154 68.574316 
L 189.386359 53.568 
L 189.548767 60.522146 
L 189.711176 53.568 
L 190.035993 80.090791 
L 190.117197 53.568 
L 190.198401 61.714286 
L 190.279605 68.574316 
L 190.360809 60.522146 
L 190.442014 92.448 
L 190.523218 85.968 
L 190.766831 53.568 
L 190.929239 61.071158 
L 191.010443 123.393306 
L 191.172852 53.568 
L 191.254056 53.568 
L 191.33526 72.162783 
L 191.497669 53.568 
L 191.578873 53.568 
L 191.660077 61.953882 
L 191.741282 61.714286 
L 191.822486 61.071158 
L 191.90369 59.386776 
L 191.984894 60.198698 
L 192.066099 53.568 
L 192.147303 59.051077 
L 192.228507 74.952 
L 192.309711 70.848 
L 192.390915 53.568 
L 192.553324 75.500308 
L 192.634528 53.568 
L 192.715732 70.339765 
L 192.796937 53.568 
L 192.878141 59.386776 
L 192.959345 196.128 
L 193.040549 158.112 
L 193.284162 53.568 
L 193.365366 182.331871 
L 193.527775 53.568 
L 193.608979 72.162783 
L 193.771388 53.568 
L 193.933796 53.568 
L 194.015 82.08 
L 194.096204 53.568 
L 194.177409 60.048 
L 194.339817 53.568 
L 194.421021 69.408 
L 194.58343 53.568 
L 194.664634 60.878769 
L 194.745838 60.048 
L 194.827043 59.158588 
L 194.908247 53.568 
L 194.989451 61.953882 
L 195.070655 53.568 
L 195.15186 73.933714 
L 195.395472 53.568 
L 195.476677 68.574316 
L 195.557881 53.568 
L 195.639085 71.388 
L 195.720289 61.488 
L 195.801493 126.675692 
L 195.882698 60.878769 
L 195.963902 61.488 
L 196.045106 59.386776 
L 196.12631 176.688 
L 196.288719 53.568 
L 196.369923 105.408 
L 196.451127 53.568 
L 196.532332 68.574316 
L 196.613536 53.568 
L 196.69474 60.878769 
L 196.775944 85.968 
L 196.857149 83.580632 
L 197.019557 53.568 
L 197.100761 92.448 
L 197.181966 65.700766 
L 197.26317 67.145143 
L 197.425578 53.568 
L 197.506782 183.908571 
L 197.587987 53.568 
L 197.669191 65.448 
L 197.750395 71.962839 
L 197.831599 53.568 
L 198.075212 83.899915 
L 198.156416 77.328 
L 198.237621 67.145143 
L 198.318825 83.899915 
L 198.400029 59.766261 
L 198.481233 70.339765 
L 198.643642 53.568 
L 198.724846 95.148 
L 198.887255 60.522146 
L 198.968459 60.198698 
L 199.049663 73.933714 
L 199.212071 53.568 
L 199.293276 53.568 
L 199.37448 68.189538 
L 199.536888 53.568 
L 199.618093 84.391784 
L 199.699297 53.568 
L 199.780501 63.072 
L 199.861705 68.979892 
L 200.024114 53.568 
L 200.105318 126.884571 
L 200.186522 53.568 
L 200.267727 61.953882 
L 200.348931 60.878769 
L 200.430135 78.006857 
L 200.592544 53.568 
L 200.673748 165.888 
L 200.91736 53.568 
L 201.079769 53.568 
L 201.160973 79.488 
L 201.242177 74.430439 
L 201.323382 53.568 
L 201.404586 59.766261 
L 201.48579 69.408 
L 201.566994 61.071158 
L 201.729403 75.500308 
L 201.810607 61.071158 
L 201.891811 161.28 
L 201.973016 53.568 
L 202.05422 60.878769 
L 202.135424 53.568 
L 202.216628 65.448 
L 202.379037 53.568 
L 202.541445 76.077474 
L 202.62265 77.328 
L 202.703854 53.568 
L 202.785058 67.145143 
L 202.866262 53.568 
L 203.191079 91.584 
L 203.353488 53.568 
L 203.515896 53.568 
L 203.5971 78.006857 
L 203.759509 53.568 
L 203.840713 78.006857 
L 203.921917 70.339765 
L 204.084326 53.568 
L 204.16553 53.568 
L 204.246734 71.388 
L 204.327939 53.568 
L 204.409143 62.765419 
L 204.490347 53.568 
L 204.571551 77.328 
L 204.652755 53.568 
L 204.73396 74.430439 
L 204.815164 53.568 
L 204.896368 87.111529 
L 205.058777 53.568 
L 205.139981 53.568 
L 205.302389 77.833532 
L 205.383594 53.568 
L 205.464798 73.933714 
L 205.546002 53.568 
L 205.627206 63.072 
L 205.708411 61.714286 
L 205.789615 53.568 
L 205.870819 66.24 
L 205.952023 53.568 
L 206.033228 65.448 
L 206.195636 53.568 
L 206.27684 63.072 
L 206.358044 53.568 
L 206.439249 59.766261 
L 206.520453 53.568 
L 206.601657 65.964522 
L 206.84527 53.568 
L 207.332495 53.568 
L 207.4137 67.824 
L 207.494904 139.104 
L 207.576108 53.568 
L 207.657312 61.273946 
L 207.819721 67.145143 
L 207.900925 113.593263 
L 207.982129 59.386776 
L 208.063333 192.275027 
L 208.144538 53.568 
L 208.225742 71.024327 
L 208.38815 53.568 
L 208.469355 53.568 
L 208.631763 68.189538 
L 208.875376 53.568 
L 208.95658 62.208 
L 209.037784 166.115368 
L 209.200193 61.714286 
L 209.281397 177.851077 
L 209.443806 53.568 
L 209.52501 60.696 
L 209.606214 82.811077 
L 209.687418 53.568 
L 209.849827 81.384585 
L 209.931031 53.568 
L 210.012235 68.574316 
L 210.093439 53.568 
L 210.255848 69.408 
L 210.337052 53.568 
L 210.418256 59.634383 
L 210.499461 102.445714 
L 210.661869 61.714286 
L 210.743073 135.030857 
L 210.824278 67.476293 
L 210.905482 78.725647 
L 211.149095 53.568 
L 211.311503 60.522146 
L 211.392707 53.568 
L 211.473912 64.9728 
L 211.555116 59.508 
L 211.63632 68.574316 
L 211.717524 196.128 
L 211.879933 53.568 
L 211.961137 159.469714 
L 212.123545 53.568 
L 212.20475 61.488 
L 212.285954 61.071158 
L 212.367158 59.766261 
L 212.529567 109.473882 
L 212.691975 53.568 
L 212.773179 61.488 
L 212.854384 53.568 
L 212.935588 139.641962 
L 213.016792 53.568 
L 213.097996 60.048 
L 213.260405 62.208 
L 213.341609 61.953882 
L 213.422813 67.476293 
L 213.504017 59.386776 
L 213.585222 69.860571 
L 213.666426 106.090105 
L 213.74763 60.696 
L 213.828834 60.878769 
L 213.910039 53.568 
L 213.991243 169.398 
L 214.072447 53.568 
L 214.153651 59.634383 
L 214.234856 98.292706 
L 214.31606 53.568 
L 214.397264 62.208 
L 214.478468 62.765419 
L 214.559673 53.568 
L 214.722081 62.208 
L 214.803285 53.568 
L 214.88449 88.128 
L 214.965694 53.568 
L 215.046898 60.522146 
L 215.128102 68.189538 
L 215.209306 60.198698 
L 215.290511 62.478 
L 215.371715 63.750857 
L 215.615328 53.568 
L 215.696532 74.952 
L 215.777736 53.568 
L 215.940145 87.510857 
L 216.102553 53.568 
L 216.346166 124.848 
L 216.42737 53.568 
L 216.508574 69.408 
L 216.589779 67.476293 
L 216.752187 53.568 
L 216.833391 53.568 
L 216.9958 68.189538 
L 217.077004 66.24 
L 217.158208 177.984 
L 217.239412 53.568 
L 217.320617 62.208 
L 217.401821 53.568 
L 217.483025 60.696 
L 217.726638 133.4016 
L 217.889046 60.198698 
L 217.970251 65.964522 
L 218.132659 53.568 
L 218.213863 53.568 
L 218.295068 67.476293 
L 218.457476 53.568 
L 218.619884 53.568 
L 218.701089 61.273946 
L 218.782293 60.356571 
L 218.863497 181.121684 
L 218.944701 58.483862 
L 219.025906 75.500308 
L 219.10711 60.048 
L 219.188314 106.368 
L 219.269518 53.568 
L 219.350723 61.953882 
L 219.431927 65.205551 
L 219.513131 53.568 
L 219.594335 104.743385 
L 219.756744 53.568 
L 219.837948 59.634383 
L 219.919152 53.568 
L 220.000357 121.096421 
L 220.081561 65.964522 
L 220.162765 138.333405 
L 220.243969 66.24 
L 220.325173 76.843102 
L 220.487582 65.205551 
L 220.568786 130.627459 
L 220.812399 53.568 
L 221.056012 73.933714 
L 221.137216 53.568 
L 221.21842 74.430439 
L 221.299624 53.568 
L 221.380829 88.480653 
L 221.462033 77.328 
L 221.543237 53.568 
L 221.624441 66.829395 
L 221.705646 53.568 
L 221.868054 150.768 
L 221.949258 53.568 
L 222.030463 60.198698 
L 222.111667 62.765419 
L 222.192871 53.568 
L 222.274075 71.388 
L 222.355279 61.071158 
L 222.517688 72.162783 
L 222.598892 61.714286 
L 222.761301 142.272 
L 222.842505 53.568 
L 222.923709 167.616 
L 223.086118 53.568 
L 223.167322 53.568 
L 223.248526 75.500308 
L 223.410935 53.568 
L 223.573343 70.848 
L 223.654547 53.568 
L 223.735752 116.155317 
L 223.89816 53.568 
L 223.979364 68.979892 
L 224.060568 59.634383 
L 224.141773 61.488 
L 224.222977 60.696 
L 224.385385 53.568 
L 224.46659 62.478 
L 224.547794 60.696 
L 224.628998 53.568 
L 224.710202 74.952 
L 224.791407 62.478 
L 224.872611 83.899915 
L 225.035019 53.568 
L 225.116224 66.528 
L 225.197428 124.848 
L 225.359836 53.568 
L 225.441041 173.618526 
L 225.522245 59.766261 
L 225.603449 62.208 
L 225.684653 53.568 
L 225.765857 67.145143 
L 225.847062 62.208 
L 225.928266 60.878769 
L 226.00947 53.568 
L 226.090674 60.356571 
L 226.171879 53.568 
L 226.334287 74.430439 
L 226.415491 143.177143 
L 226.496696 53.568 
L 226.5779 81.384585 
L 226.740308 53.568 
L 226.821513 60.356571 
L 226.983921 53.568 
L 227.065125 59.386776 
L 227.14633 53.568 
L 227.308738 62.478 
L 227.471146 53.568 
L 227.552351 59.904 
L 227.633555 53.568 
L 227.714759 69.860571 
L 227.877168 53.568 
L 227.958372 115.938 
L 228.12078 53.568 
L 228.201985 53.568 
L 228.283189 104.256 
L 228.364393 53.568 
L 228.445597 61.953882 
L 228.526802 65.964522 
L 228.68921 60.356571 
L 228.770414 61.488 
L 228.851619 65.448 
L 229.014027 53.568 
L 229.095231 67.824 
L 229.176435 183.168 
L 229.25764 53.568 
L 229.338844 65.964522 
L 229.420048 53.568 
L 229.501252 73.008 
L 229.582457 65.700766 
L 229.663661 137.808 
L 229.826069 53.568 
L 229.907274 60.696 
L 229.988478 161.28 
L 230.150886 53.568 
L 230.232091 53.568 
L 230.313295 60.048 
L 230.394499 53.568 
L 230.475703 61.071158 
L 230.556908 96.604981 
L 230.638112 53.568 
L 230.719316 70.848 
L 230.881724 53.568 
L 230.962929 66.829395 
L 231.044133 53.568 
L 231.125337 61.714286 
L 231.287746 53.568 
L 231.450154 75.500308 
L 231.531358 70.6752 
L 231.612563 70.339765 
L 231.693767 86.153143 
L 231.856175 53.568 
L 231.93738 53.568 
L 232.018584 60.696 
L 232.099788 53.568 
L 232.180992 91.083789 
L 232.262197 78.912 
L 232.343401 71.388 
L 232.424605 53.568 
L 232.505809 110.592 
L 232.587014 53.568 
L 232.668218 78.912 
L 232.749422 168.973714 
L 232.91183 53.568 
L 232.993035 60.198698 
L 233.074239 53.568 
L 233.155443 71.388 
L 233.236647 53.568 
L 233.399056 73.933714 
L 233.48026 53.568 
L 233.561464 87.111529 
L 233.723873 53.568 
L 233.967486 53.568 
L 234.04869 60.696 
L 234.211098 53.568 
L 234.292303 68.189538 
L 234.535915 53.568 
L 234.617119 53.568 
L 234.698324 60.696 
L 234.860732 187.742118 
L 235.023141 53.568 
L 235.104345 53.568 
L 235.266753 71.388 
L 235.429162 53.568 
L 235.59157 67.824 
L 235.672775 53.568 
L 235.753979 67.145143 
L 235.916387 53.568 
L 236.078796 80.722286 
L 236.241204 58.947623 
L 236.322408 77.833532 
L 236.403613 53.568 
L 236.484817 81.384585 
L 236.566021 74.304 
L 236.647225 53.568 
L 236.72843 60.356571 
L 236.809634 72.162783 
L 236.972042 53.568 
L 237.296859 53.568 
L 237.378064 65.964522 
L 237.459268 61.071158 
L 237.540472 61.273946 
L 237.702881 71.388 
L 237.784085 67.824 
L 237.865289 140.688 
L 238.027697 75.500308 
L 238.108902 53.568 
L 238.27131 93.168 
L 238.433719 53.568 
L 238.596127 71.388 
L 238.758536 60.048 
L 238.83974 78.725647 
L 238.920944 72.576 
L 239.002148 60.696 
L 239.083353 61.953882 
L 239.164557 53.568 
L 239.245761 99.803676 
L 239.326965 82.811077 
L 239.40817 76.077474 
L 239.489374 53.568 
L 239.570578 70.339765 
L 239.732986 53.568 
L 239.895395 66.528 
L 239.976599 103.883294 
L 240.139008 53.568 
L 240.301416 53.568 
L 240.38262 62.478 
L 240.545029 53.568 
L 240.626233 53.568 
L 240.707437 61.273946 
L 240.869846 53.568 
L 240.95105 53.568 
L 241.113459 67.824 
L 241.194663 157.248 
L 241.275867 60.696 
L 241.357071 153.36 
L 241.438276 53.568 
L 241.600684 103.154087 
L 241.681888 53.568 
L 241.763092 94.299429 
L 241.844297 61.071158 
L 241.925501 65.700766 
L 242.006705 78.912 
L 242.087909 53.568 
L 242.169114 62.765419 
L 242.250318 68.979892 
L 242.493931 53.568 
L 242.575135 192.650927 
L 242.737543 59.508 
L 242.818748 53.568 
L 242.899952 181.872 
L 243.06236 53.568 
L 243.143565 53.568 
L 243.224769 69.408 
L 243.305973 53.568 
L 243.387177 98.586947 
L 243.468381 61.953882 
L 243.549586 65.448 
L 243.63079 53.568 
L 243.711994 60.198698 
L 243.793198 53.568 
L 243.874403 67.476293 
L 244.036811 53.568 
L 244.118015 60.696 
L 244.280424 53.568 
L 244.361628 157.880195 
L 244.442832 66.528 
L 244.524037 81.384585 
L 244.686445 53.568 
L 244.767649 59.051077 
L 244.848854 78.006857 
L 244.930058 140.849633 
L 245.092466 53.568 
L 245.254875 53.568 
L 245.336079 105.93698 
L 245.417283 98.586947 
L 245.498487 119.874977 
L 245.660896 65.448 
L 245.7421 69.408 
L 245.823304 60.696 
L 245.904509 76.685838 
L 245.985713 53.568 
L 246.148121 175.762286 
L 246.31053 53.568 
L 246.391734 60.696 
L 246.554143 53.568 
L 246.635347 61.714286 
L 246.716551 202.326261 
L 246.878959 53.568 
L 246.960164 60.878769 
L 247.041368 53.568 
L 247.122572 60.878769 
L 247.284981 53.568 
L 247.366185 59.904 
L 247.447389 53.568 
L 247.609798 74.952 
L 247.691002 76.077474 
L 247.85341 53.568 
L 247.934615 60.878769 
L 248.015819 53.568 
L 248.097023 76.685838 
L 248.178227 60.198698 
L 248.259432 133.136372 
L 248.340636 53.568 
L 248.42184 64.128 
L 248.503044 53.568 
L 248.584248 68.189538 
L 248.665453 130.788 
L 248.746657 53.568 
L 248.827861 60.696 
L 248.909065 60.522146 
L 248.99027 53.568 
L 249.071474 66.24 
L 249.152678 53.568 
L 249.233882 72.576 
L 249.315087 126.884571 
L 249.558699 53.568 
L 249.639904 61.273946 
L 249.721108 53.568 
L 249.883516 61.071158 
L 250.045925 53.568 
L 250.127129 53.568 
L 250.208333 92.09773 
L 250.289537 53.568 
L 250.370742 60.356571 
L 250.451946 66.829395 
L 250.53315 61.071158 
L 250.614354 192.472615 
L 250.695559 69.408 
L 250.776763 78.361043 
L 250.939171 53.568 
L 251.020376 64.327245 
L 251.182784 53.568 
L 251.263988 81.384585 
L 251.345193 73.460093 
L 251.426397 60.522146 
L 251.507601 89.208 
L 251.588805 53.568 
L 251.67001 62.478 
L 251.832418 53.568 
L 251.913622 61.953882 
L 251.994827 53.568 
L 252.076031 76.077474 
L 252.157235 53.568 
L 252.238439 70.339765 
L 252.319643 59.158588 
L 252.482052 192.054857 
L 252.64446 53.568 
L 252.725665 53.568 
L 252.806869 69.408 
L 252.888073 53.568 
L 253.050482 64.534154 
L 253.131686 61.273946 
L 253.21289 92.09773 
L 253.294094 53.568 
L 253.375299 68.979892 
L 253.537707 53.568 
L 253.618911 61.273946 
L 253.78132 53.568 
L 253.862524 53.568 
L 253.943728 59.386776 
L 254.024932 53.568 
L 254.106137 62.208 
L 254.187341 59.904 
L 254.268545 124.848 
L 254.430954 65.205551 
L 254.512158 157.248 
L 254.674566 53.568 
L 254.755771 60.878769 
L 254.918179 121.096421 
L 254.999383 61.953882 
L 255.080588 81.160258 
L 255.161792 78.725647 
L 255.3242 53.568 
L 255.567813 53.568 
L 255.649017 111.888 
L 255.730221 53.568 
L 255.811426 65.700766 
L 255.89263 65.700766 
L 255.973834 61.714286 
L 256.055038 68.979892 
L 256.298651 53.568 
L 256.379855 66.528 
L 256.46106 59.508 
L 256.542264 76.685838 
L 256.785877 53.568 
L 256.867081 53.568 
L 256.948285 61.273946 
L 257.029489 61.071158 
L 257.110694 61.071158 
L 257.273102 80.722286 
L 257.354306 62.208 
L 257.43551 62.765419 
L 257.516715 70.339765 
L 257.679123 53.568 
L 257.760327 60.198698 
L 257.841532 60.048 
L 257.922736 59.508 
L 258.00394 66.528 
L 258.085144 60.356571 
L 258.166349 82.08 
L 258.247553 59.634383 
L 258.328757 61.714286 
L 258.409961 94.299429 
L 258.491166 53.568 
L 258.57237 62.478 
L 258.653574 67.824 
L 258.734778 61.273946 
L 258.815983 72.162783 
L 258.978391 53.568 
L 259.140799 53.568 
L 259.303208 60.696 
L 259.384412 59.508 
L 259.465616 61.953882 
L 259.628025 53.568 
L 259.790433 53.568 
L 259.871638 68.979892 
L 259.952842 113.593263 
L 260.11525 60.522146 
L 260.196455 53.568 
L 260.277659 61.714286 
L 260.358863 53.568 
L 260.440067 171.788488 
L 260.602476 53.568 
L 260.68368 53.568 
L 260.764884 94.299429 
L 260.927293 66.829395 
L 261.008497 71.962839 
L 261.089701 53.568 
L 261.170905 122.921514 
L 261.333314 53.568 
L 261.414518 152.487184 
L 261.495722 130.627459 
L 261.576927 114.665143 
L 261.739335 53.568 
L 261.982948 53.568 
L 262.145356 61.953882 
L 262.388969 60.696 
L 262.470173 64.128 
L 262.551378 80.090791 
L 262.713786 53.568 
L 262.79499 61.273946 
L 262.876194 60.048 
L 262.957399 53.568 
L 263.201011 68.979892 
L 263.36342 53.568 
L 263.444624 71.388 
L 263.525828 53.568 
L 263.607033 61.953882 
L 263.688237 53.568 
L 263.850645 71.024327 
L 264.013054 53.568 
L 264.094258 53.568 
L 264.175462 67.824 
L 264.256667 53.568 
L 264.337871 126.364596 
L 264.500279 60.048 
L 264.662688 67.476293 
L 264.743892 53.568 
L 264.987505 118.368 
L 265.068709 71.388 
L 265.149913 91.083789 
L 265.393526 53.568 
L 265.555934 53.568 
L 265.637139 65.964522 
L 265.718343 141.297231 
L 265.880751 53.568 
L 265.961956 179.356235 
L 266.124364 70.339765 
L 266.286772 53.568 
L 266.367977 61.714286 
L 266.449181 53.568 
L 266.530385 79.488 
L 266.611589 72.162783 
L 266.692794 67.145143 
L 266.773998 101.088 
L 266.936406 53.568 
L 267.017611 53.568 
L 267.098815 66.528 
L 267.261223 53.568 
L 267.423632 59.386776 
L 267.58604 53.568 
L 267.910857 53.568 
L 267.992061 145.812706 
L 268.073266 53.568 
L 268.15447 60.522146 
L 268.316878 53.568 
L 268.398083 53.568 
L 268.479287 73.008 
L 268.641695 53.568 
L 268.7229 59.904 
L 268.885308 53.568 
L 268.966512 53.568 
L 269.128921 79.488 
L 269.210125 53.568 
L 269.291329 59.766261 
L 269.453738 53.568 
L 269.534942 61.071158 
L 269.616146 60.878769 
L 269.69735 61.071158 
L 269.778555 53.568 
L 269.859759 92.09773 
L 270.022167 53.568 
L 270.103372 61.273946 
L 270.26578 53.568 
L 270.346984 53.568 
L 270.428189 122.390069 
L 270.509393 60.356571 
L 270.590597 66.829395 
L 270.83421 53.568 
L 271.077823 53.568 
L 271.159027 67.145143 
L 271.240231 53.568 
L 271.40264 63.399724 
L 271.483844 53.568 
L 271.565048 60.356571 
L 271.646252 90.121846 
L 271.727456 59.158588 
L 271.808661 62.765419 
L 271.889865 67.145143 
L 272.133478 53.568 
L 272.214682 53.568 
L 272.295886 60.696 
L 272.37709 53.568 
L 272.539499 77.328 
L 272.701907 53.568 
L 272.864316 53.568 
L 272.94552 133.758 
L 273.026724 60.522146 
L 273.107929 62.208 
L 273.189133 60.356571 
L 273.270337 62.478 
L 273.351541 53.568 
L 273.432745 60.696 
L 273.595154 53.568 
L 273.757562 73.933714 
L 273.838767 68.189538 
L 273.919971 53.568 
L 274.001175 60.048 
L 274.082379 53.568 
L 274.163584 116.928 
L 274.325992 59.508 
L 274.407196 60.696 
L 274.488401 84.391784 
L 274.569605 53.568 
L 274.650809 60.522146 
L 274.732013 74.430439 
L 274.813218 156.696511 
L 274.975626 53.568 
L 275.05683 72.162783 
L 275.138034 60.878769 
L 275.219239 113.244279 
L 275.381647 53.568 
L 275.544056 182.550857 
L 275.706464 53.568 
L 275.787668 53.568 
L 275.868873 77.328 
L 275.950077 69.408 
L 276.031281 72.162783 
L 276.112485 53.568 
L 276.274894 94.299429 
L 276.356098 53.568 
L 276.437302 67.476293 
L 276.518507 53.568 
L 276.599711 104.256 
L 276.680915 53.568 
L 276.762119 61.071158 
L 276.843323 53.568 
L 276.924528 62.765419 
L 277.005732 60.356571 
L 277.086936 53.568 
L 277.16814 68.574316 
L 277.249345 59.508 
L 277.330549 64.128 
L 277.411753 62.765419 
L 277.492957 60.696 
L 277.655366 86.721488 
L 277.73657 183.168 
L 277.817774 68.574316 
L 277.898979 69.860571 
L 277.980183 67.145143 
L 278.061387 53.568 
L 278.305 78.725647 
L 278.386204 73.933714 
L 278.467408 53.568 
L 278.548612 59.051077 
L 278.629817 83.580632 
L 278.711021 60.878769 
L 278.792225 61.953882 
L 278.954634 53.568 
L 279.035838 107.028 
L 279.117042 53.568 
L 279.198246 89.208 
L 279.279451 60.198698 
L 279.360655 132.768 
L 279.523063 53.568 
L 279.766676 74.952 
L 279.84788 59.634383 
L 279.929085 61.714286 
L 280.010289 61.488 
L 280.172697 53.568 
L 280.335106 73.460093 
L 280.41631 53.568 
L 280.578718 68.189538 
L 280.822331 53.568 
L 280.98474 65.448 
L 281.065944 53.568 
L 281.309557 116.155317 
L 281.390761 67.476293 
L 281.471965 83.580632 
L 281.553169 80.298 
L 281.634374 53.568 
L 281.715578 72.162783 
L 281.796782 69.860571 
L 281.877986 187.742118 
L 281.959191 53.568 
L 282.040395 86.721488 
L 282.121599 66.528 
L 282.202803 69.860571 
L 282.284007 79.488 
L 282.365212 53.568 
L 282.446416 66.829395 
L 282.52762 53.568 
L 282.690029 87.7824 
L 282.852437 53.568 
L 282.933641 53.568 
L 283.258458 77.328 
L 283.420867 53.568 
L 283.502071 53.568 
L 283.66448 60.198698 
L 283.745684 191.212138 
L 283.826888 53.568 
L 283.908092 60.522146 
L 283.989296 65.205551 
L 284.151705 159.789176 
L 284.232909 53.568 
L 284.314113 74.430439 
L 284.476522 53.568 
L 284.63893 80.090791 
L 284.801339 53.568 
L 284.882543 161.451243 
L 285.044952 53.568 
L 285.126156 95.292878 
L 285.20736 61.953882 
L 285.288564 67.145143 
L 285.369769 65.700766 
L 285.532177 53.568 
L 285.77579 82.08 
L 285.856994 184.248 
L 285.938198 53.568 
L 286.019402 64.534154 
L 286.100607 83.899915 
L 286.263015 53.568 
L 286.506628 73.460093 
L 286.669036 53.568 
L 286.750241 53.568 
L 286.912649 65.964522 
L 287.075058 53.568 
L 287.156262 61.488 
L 287.237466 59.2704 
L 287.31867 60.198698 
L 287.399874 53.568 
L 287.643487 84.391784 
L 287.724691 63.072 
L 287.805896 65.205551 
L 287.8871 53.568 
L 287.968304 88.128 
L 288.049508 78.725647 
L 288.211917 53.568 
L 288.293121 78.006857 
L 288.374325 70.339765 
L 288.536734 53.568 
L 288.617938 53.568 
L 288.699142 158.938435 
L 288.780347 67.145143 
L 288.861551 67.824 
L 289.023959 53.568 
L 289.186368 66.24 
L 289.267572 53.568 
L 289.348776 71.388 
L 289.592389 53.568 
L 289.754797 60.356571 
L 289.836002 53.568 
L 289.99841 74.952 
L 290.160819 53.568 
L 290.242023 160.488 
L 290.404431 53.568 
L 290.485636 53.568 
L 290.56684 184.569081 
L 290.729248 59.508 
L 290.891657 61.071158 
L 290.972861 108.398769 
L 291.054065 60.356571 
L 291.135269 64.9728 
L 291.216474 53.568 
L 291.378882 176.863135 
L 291.541291 60.198698 
L 291.622495 75.500308 
L 291.703699 59.766261 
L 291.784903 62.208 
L 291.866108 72.576 
L 291.947312 66.829395 
L 292.028516 94.299429 
L 292.10972 53.568 
L 292.190925 64.534154 
L 292.272129 59.386776 
L 292.434537 69.408 
L 292.67815 53.568 
L 292.840558 119.874977 
L 293.002967 61.714286 
L 293.084171 72.162783 
L 293.165375 53.568 
L 293.24658 187.742118 
L 293.327784 64.749176 
L 293.408988 141.819429 
L 293.571397 53.568 
L 293.652601 70.339765 
L 293.733805 59.634383 
L 293.815009 84.391784 
L 293.977418 53.568 
L 294.221031 53.568 
L 294.302235 65.700766 
L 294.383439 59.766261 
L 294.464643 64.9728 
L 294.627052 53.568 
L 294.708256 189.339429 
L 294.870664 53.568 
L 295.033073 53.568 
L 295.114277 85.248 
L 295.195481 60.878769 
L 295.276686 67.145143 
L 295.35789 68.979892 
L 295.520298 53.568 
L 295.682707 65.964522 
L 295.763911 53.568 
L 295.845115 66.24 
L 295.92632 59.634383 
L 296.007524 199.783385 
L 296.169932 53.568 
L 296.251136 90.357677 
L 296.332341 53.568 
L 296.413545 60.696 
L 296.494749 53.568 
L 296.575953 67.476293 
L 296.657158 116.155317 
L 296.738362 53.568 
L 296.819566 60.356571 
L 296.90077 67.145143 
L 296.981975 61.071158 
L 297.063179 67.145143 
L 297.144383 60.878769 
L 297.225587 112.968 
L 297.387996 61.273946 
L 297.4692 53.568 
L 297.631609 61.488 
L 297.712813 53.568 
L 297.794017 66.829395 
L 298.03763 53.568 
L 298.118834 61.488 
L 298.200038 143.177143 
L 298.524855 53.568 
L 298.606059 111.888 
L 298.768468 53.568 
L 298.849672 53.568 
L 298.930876 68.574316 
L 299.012081 53.568 
L 299.174489 71.388 
L 299.336898 60.356571 
L 299.499306 72.162783 
L 299.58051 53.568 
L 299.661714 67.145143 
L 299.742919 63.072 
L 299.824123 59.508 
L 299.986531 73.933714 
L 300.14894 60.048 
L 300.230144 71.388 
L 300.392553 53.568 
L 300.554961 74.952 
L 300.636165 53.568 
L 300.879778 69.860571 
L 300.960982 53.568 
L 301.042187 92.448 
L 301.123391 53.568 
L 301.204595 79.488 
L 301.367004 53.568 
L 301.448208 53.568 
L 301.529412 72.576 
L 301.610616 70.848 
L 301.773025 53.568 
L 301.854229 60.522146 
L 301.935433 81.384585 
L 302.016637 77.328 
L 302.097842 53.568 
L 302.179046 60.198698 
L 302.26025 146.039351 
L 302.422659 53.568 
L 302.585067 67.476293 
L 302.666271 138.497362 
L 302.82868 53.568 
L 302.909884 53.568 
L 302.991088 60.878769 
L 303.153497 53.568 
L 303.234701 82.08 
L 303.397109 53.568 
L 303.478314 59.904 
L 303.559518 53.568 
L 303.640722 77.328 
L 303.721926 53.568 
L 303.884335 64.9728 
L 303.965539 53.568 
L 304.046743 73.460093 
L 304.127948 53.568 
L 304.209152 68.574316 
L 304.37156 53.568 
L 304.452765 170.970353 
L 304.533969 61.273946 
L 304.615173 76.077474 
L 304.696377 80.090791 
L 304.777582 53.568 
L 304.858786 62.208 
L 304.93999 77.328 
L 305.021194 53.568 
L 305.102398 76.077474 
L 305.346011 53.568 
L 305.427215 53.568 
L 305.589624 67.824 
L 305.670828 60.522146 
L 305.752032 61.273946 
L 305.914441 67.476293 
L 306.076849 102.099064 
L 306.158054 60.048 
L 306.239258 60.878769 
L 306.320462 62.208 
L 306.401666 61.488 
L 306.482871 71.388 
L 306.564075 71.024327 
L 306.645279 175.762286 
L 306.726483 60.696 
L 306.807687 66.528 
L 306.970096 53.568 
L 307.0513 61.714286 
L 307.132504 172.920558 
L 307.213709 66.829395 
L 307.294913 178.742634 
L 307.376117 60.878769 
L 307.457321 66.528 
L 307.538526 165.888 
L 307.700934 60.198698 
L 307.782138 112.054154 
L 307.863343 53.568 
L 307.944547 63.399724 
L 308.025751 53.568 
L 308.106955 66.528 
L 308.350568 53.568 
L 308.431772 67.145143 
L 308.512976 60.696 
L 308.675385 83.580632 
L 308.837793 53.568 
L 309.000202 66.24 
L 309.081406 62.765419 
L 309.16261 160.488 
L 309.325019 62.765419 
L 309.406223 60.356571 
L 309.487427 109.008 
L 309.568632 65.448 
L 309.649836 69.408 
L 309.73104 203.256 
L 309.893449 59.634383 
L 309.974653 59.508 
L 310.055857 131.328 
L 310.218265 61.953882 
L 310.380674 53.568 
L 310.461878 53.568 
L 310.543082 68.979892 
L 310.624287 53.568 
L 310.705491 80.090791 
L 310.786695 73.933714 
L 310.867899 53.568 
L 310.949104 64.9728 
L 311.030308 53.568 
L 311.111512 61.488 
L 311.273921 53.568 
L 311.355125 53.568 
L 311.517533 66.24 
L 311.598738 53.568 
L 311.679942 61.953882 
L 311.84235 53.568 
L 311.923555 62.765419 
L 312.085963 157.248 
L 312.248371 53.568 
L 312.329576 68.979892 
L 312.41078 163.229538 
L 312.573188 53.568 
L 312.654393 53.568 
L 312.735597 68.189538 
L 312.816801 59.051077 
L 312.97921 71.024327 
L 313.141618 53.568 
L 313.304027 60.522146 
L 313.466435 61.714286 
L 313.547639 60.356571 
L 313.710048 53.568 
L 313.791252 61.488 
L 313.95366 53.568 
L 314.034865 70.848 
L 314.116069 53.568 
L 314.278477 68.189538 
L 314.440886 53.568 
L 314.52209 73.933714 
L 314.603294 53.568 
L 314.684499 60.356571 
L 314.765703 60.356571 
L 314.846907 53.568 
L 314.928111 77.833532 
L 315.009316 61.273946 
L 315.09052 63.072 
L 315.171724 60.696 
L 315.252928 61.953882 
L 315.334133 53.568 
L 315.496541 61.273946 
L 315.577745 53.568 
L 315.658949 157.248 
L 315.821358 53.568 
L 315.983766 53.568 
L 316.064971 66.829395 
L 316.146175 98.586947 
L 316.308583 62.478 
L 316.389788 74.952 
L 316.552196 53.568 
L 316.714605 53.568 
L 316.795809 96.955826 
L 316.958217 53.568 
L 317.120626 53.568 
L 317.20183 60.878769 
L 317.364238 53.568 
L 317.445443 53.568 
L 317.526647 60.878769 
L 317.607851 53.568 
L 317.689055 60.696 
L 317.851464 53.568 
L 317.932668 68.574316 
L 318.013872 65.964522 
L 318.095077 53.568 
L 318.176281 76.077474 
L 318.257485 131.328 
L 318.338689 53.568 
L 318.419894 59.2704 
L 318.501098 71.388 
L 318.582302 177.851077 
L 318.825915 53.568 
L 318.988323 65.448 
L 319.150732 53.568 
L 319.31314 53.568 
L 319.394344 65.964522 
L 319.637957 53.568 
L 319.800366 53.568 
L 319.962774 62.765419 
L 320.043978 53.568 
L 320.206387 71.388 
L 320.287591 131.328 
L 320.368795 53.568 
L 320.45 65.205551 
L 320.531204 63.750857 
L 320.612408 90.121846 
L 320.693612 61.071158 
L 320.774816 72.576 
L 320.856021 59.904 
L 320.937225 60.522146 
L 321.099633 53.568 
L 321.180838 69.860571 
L 321.262042 67.476293 
L 321.42445 53.568 
L 321.505655 65.700766 
L 321.586859 63.750857 
L 321.668063 70.848 
L 321.749267 68.574316 
L 321.830472 53.568 
L 321.911676 59.386776 
L 321.99288 53.568 
L 322.074084 65.964522 
L 322.155289 148.608 
L 322.317697 53.568 
L 322.398901 66.829395 
L 322.480106 61.488 
L 322.642514 67.145143 
L 322.804922 53.568 
L 322.886127 60.198698 
L 322.967331 53.568 
L 323.048535 65.448 
L 323.129739 64.534154 
L 323.210944 53.568 
L 323.292148 67.476293 
L 323.373352 53.568 
L 323.454556 111.888 
L 323.616965 53.568 
L 323.698169 65.964522 
L 323.860578 53.568 
L 324.10419 71.388 
L 324.185395 67.824 
L 324.266599 53.568 
L 324.429007 74.952 
L 324.510211 53.568 
L 324.591416 73.933714 
L 324.753824 53.568 
L 324.997437 80.090791 
L 325.078641 73.460093 
L 325.322254 53.568 
L 325.565867 53.568 
L 325.728275 60.048 
L 325.890684 53.568 
L 326.053092 66.829395 
L 326.134296 131.976 
L 326.296705 53.568 
L 326.459113 70.848 
L 326.540317 59.766261 
L 326.621522 61.488 
L 326.702726 168.712615 
L 326.78393 53.568 
L 326.865134 85.968 
L 326.946339 61.488 
L 327.027543 80.983385 
L 327.108747 72.576 
L 327.189951 183.168 
L 327.35236 53.568 
L 327.433564 81.520941 
L 327.595973 53.568 
L 327.677177 122.390069 
L 327.758381 53.568 
L 327.839585 60.048 
L 327.920789 70.339765 
L 328.083198 53.568 
L 328.164402 53.568 
L 328.245606 63.399724 
L 328.408015 53.568 
L 328.489219 53.568 
L 328.570423 61.714286 
L 328.651628 189.339429 
L 328.732832 64.749176 
L 328.814036 73.460093 
L 328.89524 116.928 
L 328.976445 66.24 
L 329.057649 136.344774 
L 329.220057 61.273946 
L 329.301262 76.685838 
L 329.382466 53.568 
L 329.46367 61.714286 
L 329.544874 136.344774 
L 329.626078 53.568 
L 329.707283 65.448 
L 329.788487 135.030857 
L 329.869691 53.568 
L 329.950895 60.878769 
L 330.0321 63.072 
L 330.113304 61.273946 
L 330.194508 62.765419 
L 330.275712 104.8896 
L 330.356917 96.336 
L 330.519325 53.568 
L 330.600529 60.696 
L 330.762938 53.568 
L 330.844142 71.388 
L 331.006551 53.568 
L 331.087755 60.356571 
L 331.168959 53.568 
L 331.250163 64.327245 
L 331.331368 53.568 
L 331.412572 86.153143 
L 331.57498 53.568 
L 331.656184 74.430439 
L 331.737389 68.189538 
L 331.899797 53.568 
L 331.981001 73.460093 
L 332.062206 53.568 
L 332.224614 71.388 
L 332.305818 67.476293 
L 332.468227 53.568 
L 332.549431 53.568 
L 332.630635 156.696511 
L 332.71184 53.568 
L 332.793044 59.904 
L 332.874248 113.593263 
L 332.955452 71.767149 
L 333.036657 76.685838 
L 333.199065 60.356571 
L 333.280269 53.568 
L 333.361473 60.198698 
L 333.442678 53.568 
L 333.605086 161.28 
L 333.767495 60.048 
L 333.848699 53.568 
L 334.011107 85.248 
L 334.092312 60.198698 
L 334.173516 62.478 
L 334.25472 87.510857 
L 334.335924 59.766261 
L 334.417129 168.829277 
L 334.498333 53.568 
L 334.579537 138.333405 
L 334.660741 61.071158 
L 334.741946 89.208 
L 334.904354 53.568 
L 334.985558 68.189538 
L 335.066762 53.568 
L 335.147967 70.017231 
L 335.229171 53.568 
L 335.310375 67.824 
L 335.391579 60.878769 
L 335.472784 70.339765 
L 335.716396 53.568 
L 335.797601 75.500308 
L 336.041213 59.2704 
L 336.122418 65.700766 
L 336.284826 53.568 
L 336.36603 103.883294 
L 336.528439 53.568 
L 336.690847 60.878769 
L 336.853256 53.568 
L 336.93446 60.878769 
L 337.096868 53.568 
L 337.178073 53.568 
L 337.259277 73.460093 
L 337.340481 59.386776 
L 337.421685 60.522146 
L 337.50289 66.24 
L 337.584094 53.568 
L 337.746502 66.24 
L 337.827707 53.568 
L 337.990115 73.933714 
L 338.071319 53.568 
L 338.152524 60.048 
L 338.233728 59.766261 
L 338.314932 65.964522 
L 338.396136 53.568 
L 338.639749 67.824 
L 338.720953 53.568 
L 338.802157 132.768 
L 338.883362 53.568 
L 338.964566 61.071158 
L 339.04577 53.568 
L 339.126974 203.631158 
L 339.289383 53.568 
L 339.370587 130.627459 
L 339.451791 53.568 
L 339.532996 175.762286 
L 339.695404 53.568 
L 339.776608 61.714286 
L 339.857813 161.28 
L 340.020221 60.696 
L 340.101425 91.083789 
L 340.182629 86.153143 
L 340.263834 53.568 
L 340.345038 65.964522 
L 340.507446 53.568 
L 340.669855 75.500308 
L 340.751059 53.568 
L 340.832263 59.508 
L 340.913468 155.918769 
L 340.994672 53.568 
L 341.075876 65.448 
L 341.15708 59.904 
L 341.238285 70.339765 
L 341.400693 53.568 
L 341.644306 67.145143 
L 341.72551 53.568 
L 341.806714 175.762286 
L 341.887919 59.634383 
L 341.969123 61.953882 
L 342.050327 80.090791 
L 342.212735 53.568 
L 342.29394 61.714286 
L 342.456348 53.568 
L 342.537552 60.522146 
L 342.699961 136.344774 
L 342.862369 53.568 
L 342.943574 61.071158 
L 343.024778 99.803676 
L 343.105982 206.310857 
L 343.187186 61.273946 
L 343.268391 68.574316 
L 343.430799 53.568 
L 343.512003 101.088 
L 343.674412 53.568 
L 343.755616 87.510857 
L 343.918024 53.568 
L 343.999229 73.008 
L 344.161637 53.568 
L 344.242841 74.430439 
L 344.40525 53.568 
L 344.567658 93.168 
L 344.730067 53.568 
L 344.811271 53.568 
L 344.892475 70.848 
L 345.054884 53.568 
L 345.136088 59.158588 
L 345.217292 53.568 
L 345.298497 61.273946 
L 345.379701 58.752 
L 345.542109 53.568 
L 345.623313 60.696 
L 345.704518 60.048 
L 345.785722 202.916571 
L 345.94813 53.568 
L 346.029335 68.979892 
L 346.110539 53.568 
L 346.191743 59.904 
L 346.354152 53.568 
L 346.435356 103.883294 
L 346.597764 53.568 
L 346.678969 53.568 
L 346.841377 92.09773 
L 346.922581 81.384585 
L 347.003786 53.568 
L 347.08499 83.580632 
L 347.166194 73.231448 
L 347.247398 59.904 
L 347.328602 131.328 
L 347.409807 59.904 
L 347.491011 107.028 
L 347.653419 53.568 
L 347.734624 69.408 
L 347.897032 53.568 
L 347.978236 53.568 
L 348.059441 60.522146 
L 348.140645 148.608 
L 348.221849 53.568 
L 348.303053 61.273946 
L 348.384258 67.824 
L 348.546666 59.386776 
L 348.62787 65.205551 
L 348.709075 53.568 
L 348.871483 126.505674 
L 348.952687 53.568 
L 349.033891 68.189538 
L 349.115096 74.430439 
L 349.1963 53.568 
L 349.277504 59.634383 
L 349.358708 66.528 
L 349.439913 187.742118 
L 349.76473 53.568 
L 350.008342 53.568 
L 350.089547 68.189538 
L 350.251955 60.048 
L 350.333159 183.168 
L 350.495568 53.568 
L 350.576772 60.696 
L 350.657976 53.568 
L 350.73918 110.592 
L 350.820385 53.568 
L 350.901589 65.448 
L 350.982793 78.725647 
L 351.063997 53.568 
L 351.145202 62.765419 
L 351.226406 161.716966 
L 351.30761 53.568 
L 351.388814 61.488 
L 351.470019 60.696 
L 351.551223 133.136372 
L 351.632427 53.568 
L 351.713631 60.878769 
L 351.794836 175.762286 
L 351.957244 53.568 
L 352.119653 53.568 
L 352.200857 174.744 
L 352.282061 59.766261 
L 352.363265 176.863135 
L 352.525674 53.568 
L 352.606878 53.568 
L 352.688082 146.232 
L 352.769286 53.568 
L 352.850491 59.766261 
L 352.931695 59.766261 
L 353.012899 61.714286 
L 353.094103 61.071158 
L 353.175308 53.568 
L 353.256512 67.476293 
L 353.337716 53.568 
L 353.500125 68.574316 
L 353.662533 53.568 
L 353.743737 65.964522 
L 353.824942 53.568 
L 353.906146 82.08 
L 353.98735 53.568 
L 354.068554 67.476293 
L 354.230963 53.568 
L 354.312167 68.189538 
L 354.474575 53.568 
L 354.55578 130.788 
L 354.718188 53.568 
L 354.880597 53.568 
L 354.961801 67.145143 
L 355.043005 60.522146 
L 355.124209 64.327245 
L 355.205414 53.568 
L 355.449026 72.162783 
L 355.530231 59.766261 
L 355.611435 60.198698 
L 355.692639 67.145143 
L 355.773843 174.528 
L 355.855048 59.766261 
L 355.936252 60.696 
L 356.017456 130.06361 
L 356.179864 53.568 
L 356.261069 53.568 
L 356.342273 90.121846 
L 356.423477 53.568 
L 356.504681 98.586947 
L 356.585886 53.568 
L 356.829498 107.509622 
L 356.910703 115.215568 
L 357.073111 53.568 
L 357.154315 60.696 
L 357.23552 70.848 
L 357.316724 60.356571 
L 357.479132 76.077474 
L 357.560337 60.522146 
L 357.722745 116.928 
L 357.803949 64.749176 
L 357.885153 73.460093 
L 358.047562 53.568 
L 358.128766 59.904 
L 358.20997 81.384585 
L 358.372379 53.568 
L 358.453583 102.726621 
L 358.534787 67.824 
L 358.615992 68.189538 
L 358.697196 148.608 
L 358.7784 53.568 
L 358.859604 110.592 
L 358.940809 53.568 
L 359.022013 92.448 
L 359.184421 53.568 
L 359.265626 154.739613 
L 359.428034 59.634383 
L 359.509238 53.568 
L 359.590442 65.964522 
L 359.671647 53.568 
L 359.752851 66.528 
L 359.915259 53.568 
L 359.996464 59.766261 
L 360.077668 53.568 
L 360.158872 62.478 
L 360.240076 53.568 
L 360.321281 66.24 
L 360.402485 168.973714 
L 360.564893 53.568 
L 360.727302 64.9728 
L 360.808506 143.605895 
L 360.970915 61.071158 
L 361.052119 88.338732 
L 361.214527 53.568 
L 361.295732 61.953882 
L 361.376936 59.508 
L 361.539344 67.476293 
L 361.620548 65.205551 
L 361.701753 71.767149 
L 361.864161 53.568 
L 361.945365 53.568 
L 362.02657 67.824 
L 362.107774 66.528 
L 362.188978 63.750857 
L 362.270182 53.568 
L 362.432591 83.580632 
L 362.594999 60.356571 
L 362.676204 143.971902 
L 362.838612 53.568 
L 362.919816 196.128 
L 363.082225 53.568 
L 363.163429 66.829395 
L 363.325837 53.568 
L 363.407042 151.109053 
L 363.488246 53.568 
L 363.56945 61.071158 
L 363.650654 192.054857 
L 363.731859 59.904 
L 363.813063 61.071158 
L 363.894267 80.722286 
L 364.056676 53.568 
L 364.13788 53.568 
L 364.300288 87.510857 
L 364.381493 53.568 
L 364.462697 122.921514 
L 364.625105 53.568 
L 364.70631 65.700766 
L 364.787514 61.953882 
L 364.949922 53.568 
L 365.031126 61.488 
L 365.193535 53.568 
L 365.274739 79.488 
L 365.355943 53.568 
L 365.437148 164.124735 
L 365.599556 59.508 
L 365.761965 53.568 
L 365.843169 53.568 
L 366.086782 67.824 
L 366.167986 67.824 
L 366.24919 182.331871 
L 366.330394 53.568 
L 366.411599 61.488 
L 366.492803 82.811077 
L 366.655211 53.568 
L 366.736415 59.766261 
L 366.898824 53.568 
L 366.980028 183.168 
L 367.061232 53.568 
L 367.142437 60.356571 
L 367.223641 53.568 
L 367.304845 60.878769 
L 367.467254 53.568 
L 367.548458 69.408 
L 367.629662 53.568 
L 367.710866 60.198698 
L 367.792071 53.568 
L 367.873275 67.476293 
L 367.954479 61.488 
L 368.116888 68.979892 
L 368.198092 90.121846 
L 368.3605 65.205551 
L 368.441704 53.568 
L 368.522909 60.696 
L 368.604113 53.568 
L 368.685317 196.128 
L 368.766521 53.568 
L 368.847726 85.248 
L 368.92893 53.568 
L 369.010134 60.522146 
L 369.091338 65.700766 
L 369.172543 53.568 
L 369.253747 59.508 
L 369.334951 53.568 
L 369.416155 61.071158 
L 369.49736 97.432615 
L 369.659768 59.904 
L 369.740972 65.205551 
L 369.822177 136.102737 
L 369.984585 53.568 
L 370.146993 67.476293 
L 370.309402 150.926049 
L 370.634219 53.568 
L 370.715423 81.520941 
L 370.877832 53.568 
L 371.04024 109.201171 
L 371.121444 59.766261 
L 371.202649 77.328 
L 371.283853 129.212082 
L 371.446261 53.568 
L 371.527466 73.933714 
L 371.689874 53.568 
L 371.852283 95.148 
L 372.014691 53.568 
L 372.177099 74.952 
L 372.339508 53.568 
L 372.420712 53.568 
L 372.501916 75.086491 
L 372.664325 53.568 
L 372.745529 53.568 
L 372.826733 67.145143 
L 372.989142 53.568 
L 373.070346 67.824 
L 373.15155 53.568 
L 373.232755 72.576 
L 373.313959 53.568 
L 373.395163 61.488 
L 373.476367 60.878769 
L 373.557572 59.634383 
L 373.638776 60.696 
L 373.71998 138.333405 
L 373.801184 53.568 
L 373.963593 164.448 
L 374.044797 69.408 
L 374.126001 73.933714 
L 374.207205 53.568 
L 374.28841 59.158588 
L 374.450818 53.568 
L 374.532022 53.568 
L 374.775635 86.721488 
L 374.938044 53.568 
L 375.019248 53.568 
L 375.100452 68.979892 
L 375.181656 53.568 
L 375.262861 60.878769 
L 375.344065 89.966298 
L 375.425269 53.568 
L 375.587677 88.338732 
L 375.668882 53.568 
L 375.750086 74.430439 
L 375.912494 53.568 
L 375.993699 61.714286 
L 376.074903 61.071158 
L 376.156107 101.088 
L 376.237311 53.568 
L 376.318516 67.476293 
L 376.39972 53.568 
L 376.480924 60.878769 
L 376.562128 53.568 
L 376.643333 123.109463 
L 376.886945 53.568 
L 376.96815 53.568 
L 377.049354 66.24 
L 377.292966 53.568 
L 377.455375 68.574316 
L 377.617783 53.568 
L 377.698988 75.500308 
L 377.861396 53.568 
L 377.9426 85.968 
L 378.023805 80.722286 
L 378.105009 94.299429 
L 378.267417 53.568 
L 378.348622 76.077474 
L 378.51103 53.568 
L 378.592234 82.811077 
L 378.754643 53.568 
L 378.835847 66.528 
L 378.917051 53.568 
L 379.160664 83.063172 
L 379.241868 81.384585 
L 379.323072 59.386776 
L 379.404277 153.36 
L 379.485481 67.145143 
L 379.566685 68.189538 
L 379.729094 53.568 
L 379.810298 67.476293 
L 380.053911 53.568 
L 380.216319 91.584 
L 380.297523 82.811077 
L 380.378728 53.568 
L 380.459932 66.829395 
L 380.62234 53.568 
L 380.784749 53.568 
L 380.865953 60.522146 
L 381.028361 53.568 
L 381.109566 60.696 
L 381.19077 53.568 
L 381.271974 67.824 
L 381.434383 53.568 
L 381.515587 61.071158 
L 381.596791 97.432615 
L 381.677995 53.568 
L 381.7592 87.7824 
L 381.921608 53.568 
L 382.002812 79.488 
L 382.084017 53.568 
L 382.165221 82.08 
L 382.327629 53.568 
L 382.571242 79.488 
L 382.73365 53.568 
L 382.814855 62.478 
L 382.896059 53.568 
L 382.977263 63.072 
L 383.058467 139.968 
L 383.139672 53.568 
L 383.220876 67.476293 
L 383.30208 66.829395 
L 383.383284 53.568 
L 383.464489 73.008 
L 383.545693 66.829395 
L 383.626897 165.579429 
L 383.789306 53.568 
L 384.032918 68.574316 
L 384.114123 53.568 
L 384.276531 76.843102 
L 384.438939 53.568 
L 384.520144 53.568 
L 384.601348 60.198698 
L 384.682552 53.568 
L 384.763756 67.824 
L 384.844961 60.522146 
L 384.926165 66.829395 
L 385.007369 53.568 
L 385.169778 85.968 
L 385.250982 67.145143 
L 385.332186 128.242286 
L 385.494595 66.528 
L 385.575799 60.522146 
L 385.657003 78.006857 
L 385.819412 53.568 
L 385.900616 53.568 
L 385.98182 196.128 
L 386.144228 53.568 
L 386.225433 53.568 
L 386.306637 124.848 
L 386.387841 60.048 
L 386.469045 69.408 
L 386.631454 53.568 
L 386.712658 61.953882 
L 386.793862 127.94713 
L 386.956271 61.273946 
L 387.037475 65.448 
L 387.199884 53.568 
L 387.362292 65.700766 
L 387.443496 53.568 
L 387.524701 60.878769 
L 387.687109 53.568 
L 387.849517 139.104 
L 387.930722 61.953882 
L 388.011926 64.534154 
L 388.09313 65.964522 
L 388.174334 132.221793 
L 388.336743 61.488 
L 388.417947 85.248 
L 388.499151 78.725647 
L 388.66156 53.568 
L 388.742764 53.568 
L 388.823968 70.848 
L 388.986377 53.568 
L 389.067581 63.072 
L 389.148785 53.568 
L 389.22999 62.765419 
L 389.311194 53.568 
L 389.392398 72.162783 
L 389.473602 131.976 
L 389.636011 53.568 
L 389.879623 85.968 
L 389.960828 77.328 
L 390.042032 53.568 
L 390.123236 67.145143 
L 390.20444 63.399724 
L 390.285645 68.574316 
L 390.366849 53.568 
L 390.448053 62.478 
L 390.610462 53.568 
L 390.691666 62.765419 
L 390.854074 53.568 
L 390.935279 84.391784 
L 391.016483 53.568 
L 391.097687 65.964522 
L 391.3413 53.568 
L 391.422504 65.448 
L 391.584912 53.568 
L 391.747321 53.568 
L 391.828525 67.476293 
L 391.909729 64.749176 
L 391.990934 76.077474 
L 392.153342 59.158588 
L 392.234546 59.158588 
L 392.315751 53.568 
L 392.396955 60.356571 
L 392.478159 196.128 
L 392.559363 53.568 
L 392.640568 161.28 
L 392.802976 53.568 
L 392.965385 60.878769 
L 393.046589 53.568 
L 393.127793 62.765419 
L 393.208997 60.522146 
L 393.290201 53.568 
L 393.371406 62.208 
L 393.533814 53.568 
L 393.615018 61.071158 
L 393.696223 181.121684 
L 393.858631 53.568 
L 393.939835 68.574316 
L 394.02104 59.2704 
L 394.102244 68.979892 
L 394.183448 53.568 
L 394.264652 67.824 
L 394.345857 61.488 
L 394.427061 156.2112 
L 394.508265 53.568 
L 394.589469 65.964522 
L 394.751878 53.568 
L 394.833082 67.824 
L 394.99549 53.568 
L 395.076695 77.328 
L 395.239103 53.568 
L 395.320307 132.768 
L 395.482716 59.508 
L 395.56392 76.685838 
L 395.645124 64.534154 
L 395.807533 106.613581 
L 395.888737 53.568 
L 395.969941 64.327245 
L 396.051146 60.356571 
L 396.13235 66.528 
L 396.213554 53.568 
L 396.294758 63.572211 
L 396.375963 199.980973 
L 396.457167 53.568 
L 396.538371 60.878769 
L 396.619575 61.488 
L 396.700779 53.568 
L 396.781984 148.608 
L 396.863188 53.568 
L 396.944392 173.3184 
L 397.106801 53.568 
L 397.188005 107.509622 
L 397.269209 60.522146 
L 397.350413 68.189538 
L 397.431618 83.268 
L 397.512822 133.986462 
L 397.594026 53.568 
L 397.67523 67.476293 
L 397.756435 65.448 
L 397.918843 53.568 
L 398.000047 66.528 
L 398.162456 53.568 
L 398.24366 65.700766 
L 398.324864 53.568 
L 398.406068 67.824 
L 398.487273 60.356571 
L 398.487273 60.356571 
" clip-path="url(#p2d1ab3bce3)" style="fill: none; stroke: #1f77b4; stroke-width: 1.5; stroke-linecap: square"/>
   </g>
   <g id="patch_3">
    <path d="M 57.6 307.584 
L 57.6 41.472 
" style="fill: none; stroke: #000000; stroke-width: 0.8; stroke-linejoin: miter; stroke-linecap: square"/>
   </g>
   <g id="patch_4">
    <path d="M 414.72 307.584 
L 414.72 41.472 
" style="fill: none; stroke: #000000; stroke-width: 0.8; stroke-linejoin: miter; stroke-linecap: square"/>
   </g>
   <g id="patch_5">
    <path d="M 57.6 307.584 
L 414.72 307.584 
" style="fill: none; stroke: #000000; stroke-width: 0.8; stroke-linejoin: miter; stroke-linecap: square"/>
   </g>
   <g id="patch_6">
    <path d="M 57.6 41.472 
L 414.72 41.472 
" style="fill: none; stroke: #000000; stroke-width: 0.8; stroke-linejoin: miter; stroke-linecap: square"/>
   </g>
   <g id="text_17">
    <!-- Certainty of network -->
    <g transform="translate(174.447187 35.472) scale(0.12 -0.12)">
     <defs>
      <path id="DejaVuSans-43" d="M 4122 4306 
L 4122 3641 
Q 3803 3938 3442 4084 
Q 3081 4231 2675 4231 
Q 1875 4231 1450 3742 
Q 1025 3253 1025 2328 
Q 1025 1406 1450 917 
Q 1875 428 2675 428 
Q 3081 428 3442 575 
Q 3803 722 4122 1019 
L 4122 359 
Q 3791 134 3420 21 
Q 3050 -91 2638 -91 
Q 1578 -91 968 557 
Q 359 1206 359 2328 
Q 359 3453 968 4101 
Q 1578 4750 2638 4750 
Q 3056 4750 3426 4639 
Q 3797 4528 4122 4306 
z
" transform="scale(0.015625)"/>
      <path id="DejaVuSans-72" d="M 2631 2963 
Q 2534 3019 2420 3045 
Q 2306 3072 2169 3072 
Q 1681 3072 1420 2755 
Q 1159 2438 1159 1844 
L 1159 0 
L 581 0 
L 581 3500 
L 1159 3500 
L 1159 2956 
Q 1341 3275 1631 3429 
Q 1922 3584 2338 3584 
Q 2397 3584 2469 3576 
Q 2541 3569 2628 3553 
L 2631 2963 
z
" transform="scale(0.015625)"/>
     </defs>
     <use xlink:href="#DejaVuSans-43"/>
     <use xlink:href="#DejaVuSans-65" x="69.824219"/>
     <use xlink:href="#DejaVuSans-72" x="131.347656"/>
     <use xlink:href="#DejaVuSans-74" x="172.460938"/>
     <use xlink:href="#DejaVuSans-61" x="211.669922"/>
     <use xlink:href="#DejaVuSans-69" x="272.949219"/>
     <use xlink:href="#DejaVuSans-6e" x="300.732422"/>
     <use xlink:href="#DejaVuSans-74" x="364.111328"/>
     <use xlink:href="#DejaVuSans-79" x="403.320312"/>
     <use xlink:href="#DejaVuSans-20" x="462.5"/>
     <use xlink:href="#DejaVuSans-6f" x="494.287109"/>
     <use xlink:href="#DejaVuSans-66" x="555.46875"/>
     <use xlink:href="#DejaVuSans-20" x="590.673828"/>
     <use xlink:href="#DejaVuSans-6e" x="622.460938"/>
     <use xlink:href="#DejaVuSans-65" x="685.839844"/>
     <use xlink:href="#DejaVuSans-74" x="747.363281"/>
     <use xlink:href="#DejaVuSans-77" x="786.572266"/>
     <use xlink:href="#DejaVuSans-6f" x="868.359375"/>
     <use xlink:href="#DejaVuSans-72" x="929.541016"/>
     <use xlink:href="#DejaVuSans-6b" x="970.654297"/>
    </g>
   </g>
  </g>
 </g>
 <defs>
  <clipPath id="p2d1ab3bce3">
   <rect x="57.6" y="41.472" width="357.12" height="266.112"/>
  </clipPath>
 </defs>
</svg>
