<?xml version="1.0" encoding="utf-8" standalone="no"?>
<!DOCTYPE svg PUBLIC "-//W3C//DTD SVG 1.1//EN"
  "http://www.w3.org/Graphics/SVG/1.1/DTD/svg11.dtd">
<svg xmlns:xlink="http://www.w3.org/1999/xlink" width="460.8pt" height="345.6pt" viewBox="0 0 460.8 345.6" xmlns="http://www.w3.org/2000/svg" version="1.1">
 <metadata>
  <rdf:RDF xmlns:dc="http://purl.org/dc/elements/1.1/" xmlns:cc="http://creativecommons.org/ns#" xmlns:rdf="http://www.w3.org/1999/02/22-rdf-syntax-ns#">
   <cc:Work>
    <dc:type rdf:resource="http://purl.org/dc/dcmitype/StillImage"/>
    <dc:date>2023-05-03T18:30:48.501886</dc:date>
    <dc:format>image/svg+xml</dc:format>
    <dc:creator>
     <cc:Agent>
      <dc:title>Matplotlib v3.6.2, https://matplotlib.org/</dc:title>
     </cc:Agent>
    </dc:creator>
   </cc:Work>
  </rdf:RDF>
 </metadata>
 <defs>
  <style type="text/css">*{stroke-linejoin: round; stroke-linecap: butt}</style>
 </defs>
 <g id="figure_1">
  <g id="patch_1">
   <path d="M 0 345.6 
L 460.8 345.6 
L 460.8 0 
L 0 0 
z
" style="fill: #ffffff"/>
  </g>
  <g id="axes_1">
   <g id="patch_2">
    <path d="M 57.6 307.584 
L 414.72 307.584 
L 414.72 41.472 
L 57.6 41.472 
z
" style="fill: #ffffff"/>
   </g>
   <g id="matplotlib.axis_1">
    <g id="xtick_1">
     <g id="line2d_1">
      <defs>
       <path id="m7124bb7cc9" d="M 0 0 
L 0 3.5 
" style="stroke: #000000; stroke-width: 0.8"/>
      </defs>
      <g>
       <use xlink:href="#m7124bb7cc9" x="73.832727" y="307.584" style="stroke: #000000; stroke-width: 0.8"/>
      </g>
     </g>
     <g id="text_1">
      <!-- 0 -->
      <g transform="translate(70.651477 322.182437) scale(0.1 -0.1)">
       <defs>
        <path id="DejaVuSans-30" d="M 2034 4250 
Q 1547 4250 1301 3770 
Q 1056 3291 1056 2328 
Q 1056 1369 1301 889 
Q 1547 409 2034 409 
Q 2525 409 2770 889 
Q 3016 1369 3016 2328 
Q 3016 3291 2770 3770 
Q 2525 4250 2034 4250 
z
M 2034 4750 
Q 2819 4750 3233 4129 
Q 3647 3509 3647 2328 
Q 3647 1150 3233 529 
Q 2819 -91 2034 -91 
Q 1250 -91 836 529 
Q 422 1150 422 2328 
Q 422 3509 836 4129 
Q 1250 4750 2034 4750 
z
" transform="scale(0.015625)"/>
       </defs>
       <use xlink:href="#DejaVuSans-30"/>
      </g>
     </g>
    </g>
    <g id="xtick_2">
     <g id="line2d_2">
      <g>
       <use xlink:href="#m7124bb7cc9" x="114.434847" y="307.584" style="stroke: #000000; stroke-width: 0.8"/>
      </g>
     </g>
     <g id="text_2">
      <!-- 500 -->
      <g transform="translate(104.891097 322.182437) scale(0.1 -0.1)">
       <defs>
        <path id="DejaVuSans-35" d="M 691 4666 
L 3169 4666 
L 3169 4134 
L 1269 4134 
L 1269 2991 
Q 1406 3038 1543 3061 
Q 1681 3084 1819 3084 
Q 2600 3084 3056 2656 
Q 3513 2228 3513 1497 
Q 3513 744 3044 326 
Q 2575 -91 1722 -91 
Q 1428 -91 1123 -41 
Q 819 9 494 109 
L 494 744 
Q 775 591 1075 516 
Q 1375 441 1709 441 
Q 2250 441 2565 725 
Q 2881 1009 2881 1497 
Q 2881 1984 2565 2268 
Q 2250 2553 1709 2553 
Q 1456 2553 1204 2497 
Q 953 2441 691 2322 
L 691 4666 
z
" transform="scale(0.015625)"/>
       </defs>
       <use xlink:href="#DejaVuSans-35"/>
       <use xlink:href="#DejaVuSans-30" x="63.623047"/>
       <use xlink:href="#DejaVuSans-30" x="127.246094"/>
      </g>
     </g>
    </g>
    <g id="xtick_3">
     <g id="line2d_3">
      <g>
       <use xlink:href="#m7124bb7cc9" x="155.036966" y="307.584" style="stroke: #000000; stroke-width: 0.8"/>
      </g>
     </g>
     <g id="text_3">
      <!-- 1000 -->
      <g transform="translate(142.311966 322.182437) scale(0.1 -0.1)">
       <defs>
        <path id="DejaVuSans-31" d="M 794 531 
L 1825 531 
L 1825 4091 
L 703 3866 
L 703 4441 
L 1819 4666 
L 2450 4666 
L 2450 531 
L 3481 531 
L 3481 0 
L 794 0 
L 794 531 
z
" transform="scale(0.015625)"/>
       </defs>
       <use xlink:href="#DejaVuSans-31"/>
       <use xlink:href="#DejaVuSans-30" x="63.623047"/>
       <use xlink:href="#DejaVuSans-30" x="127.246094"/>
       <use xlink:href="#DejaVuSans-30" x="190.869141"/>
      </g>
     </g>
    </g>
    <g id="xtick_4">
     <g id="line2d_4">
      <g>
       <use xlink:href="#m7124bb7cc9" x="195.639085" y="307.584" style="stroke: #000000; stroke-width: 0.8"/>
      </g>
     </g>
     <g id="text_4">
      <!-- 1500 -->
      <g transform="translate(182.914085 322.182437) scale(0.1 -0.1)">
       <use xlink:href="#DejaVuSans-31"/>
       <use xlink:href="#DejaVuSans-35" x="63.623047"/>
       <use xlink:href="#DejaVuSans-30" x="127.246094"/>
       <use xlink:href="#DejaVuSans-30" x="190.869141"/>
      </g>
     </g>
    </g>
    <g id="xtick_5">
     <g id="line2d_5">
      <g>
       <use xlink:href="#m7124bb7cc9" x="236.241204" y="307.584" style="stroke: #000000; stroke-width: 0.8"/>
      </g>
     </g>
     <g id="text_5">
      <!-- 2000 -->
      <g transform="translate(223.516204 322.182437) scale(0.1 -0.1)">
       <defs>
        <path id="DejaVuSans-32" d="M 1228 531 
L 3431 531 
L 3431 0 
L 469 0 
L 469 531 
Q 828 903 1448 1529 
Q 2069 2156 2228 2338 
Q 2531 2678 2651 2914 
Q 2772 3150 2772 3378 
Q 2772 3750 2511 3984 
Q 2250 4219 1831 4219 
Q 1534 4219 1204 4116 
Q 875 4013 500 3803 
L 500 4441 
Q 881 4594 1212 4672 
Q 1544 4750 1819 4750 
Q 2544 4750 2975 4387 
Q 3406 4025 3406 3419 
Q 3406 3131 3298 2873 
Q 3191 2616 2906 2266 
Q 2828 2175 2409 1742 
Q 1991 1309 1228 531 
z
" transform="scale(0.015625)"/>
       </defs>
       <use xlink:href="#DejaVuSans-32"/>
       <use xlink:href="#DejaVuSans-30" x="63.623047"/>
       <use xlink:href="#DejaVuSans-30" x="127.246094"/>
       <use xlink:href="#DejaVuSans-30" x="190.869141"/>
      </g>
     </g>
    </g>
    <g id="xtick_6">
     <g id="line2d_6">
      <g>
       <use xlink:href="#m7124bb7cc9" x="276.843323" y="307.584" style="stroke: #000000; stroke-width: 0.8"/>
      </g>
     </g>
     <g id="text_6">
      <!-- 2500 -->
      <g transform="translate(264.118323 322.182437) scale(0.1 -0.1)">
       <use xlink:href="#DejaVuSans-32"/>
       <use xlink:href="#DejaVuSans-35" x="63.623047"/>
       <use xlink:href="#DejaVuSans-30" x="127.246094"/>
       <use xlink:href="#DejaVuSans-30" x="190.869141"/>
      </g>
     </g>
    </g>
    <g id="xtick_7">
     <g id="line2d_7">
      <g>
       <use xlink:href="#m7124bb7cc9" x="317.445443" y="307.584" style="stroke: #000000; stroke-width: 0.8"/>
      </g>
     </g>
     <g id="text_7">
      <!-- 3000 -->
      <g transform="translate(304.720443 322.182437) scale(0.1 -0.1)">
       <defs>
        <path id="DejaVuSans-33" d="M 2597 2516 
Q 3050 2419 3304 2112 
Q 3559 1806 3559 1356 
Q 3559 666 3084 287 
Q 2609 -91 1734 -91 
Q 1441 -91 1130 -33 
Q 819 25 488 141 
L 488 750 
Q 750 597 1062 519 
Q 1375 441 1716 441 
Q 2309 441 2620 675 
Q 2931 909 2931 1356 
Q 2931 1769 2642 2001 
Q 2353 2234 1838 2234 
L 1294 2234 
L 1294 2753 
L 1863 2753 
Q 2328 2753 2575 2939 
Q 2822 3125 2822 3475 
Q 2822 3834 2567 4026 
Q 2313 4219 1838 4219 
Q 1578 4219 1281 4162 
Q 984 4106 628 3988 
L 628 4550 
Q 988 4650 1302 4700 
Q 1616 4750 1894 4750 
Q 2613 4750 3031 4423 
Q 3450 4097 3450 3541 
Q 3450 3153 3228 2886 
Q 3006 2619 2597 2516 
z
" transform="scale(0.015625)"/>
       </defs>
       <use xlink:href="#DejaVuSans-33"/>
       <use xlink:href="#DejaVuSans-30" x="63.623047"/>
       <use xlink:href="#DejaVuSans-30" x="127.246094"/>
       <use xlink:href="#DejaVuSans-30" x="190.869141"/>
      </g>
     </g>
    </g>
    <g id="xtick_8">
     <g id="line2d_8">
      <g>
       <use xlink:href="#m7124bb7cc9" x="358.047562" y="307.584" style="stroke: #000000; stroke-width: 0.8"/>
      </g>
     </g>
     <g id="text_8">
      <!-- 3500 -->
      <g transform="translate(345.322562 322.182437) scale(0.1 -0.1)">
       <use xlink:href="#DejaVuSans-33"/>
       <use xlink:href="#DejaVuSans-35" x="63.623047"/>
       <use xlink:href="#DejaVuSans-30" x="127.246094"/>
       <use xlink:href="#DejaVuSans-30" x="190.869141"/>
      </g>
     </g>
    </g>
    <g id="xtick_9">
     <g id="line2d_9">
      <g>
       <use xlink:href="#m7124bb7cc9" x="398.649681" y="307.584" style="stroke: #000000; stroke-width: 0.8"/>
      </g>
     </g>
     <g id="text_9">
      <!-- 4000 -->
      <g transform="translate(385.924681 322.182437) scale(0.1 -0.1)">
       <defs>
        <path id="DejaVuSans-34" d="M 2419 4116 
L 825 1625 
L 2419 1625 
L 2419 4116 
z
M 2253 4666 
L 3047 4666 
L 3047 1625 
L 3713 1625 
L 3713 1100 
L 3047 1100 
L 3047 0 
L 2419 0 
L 2419 1100 
L 313 1100 
L 313 1709 
L 2253 4666 
z
" transform="scale(0.015625)"/>
       </defs>
       <use xlink:href="#DejaVuSans-34"/>
       <use xlink:href="#DejaVuSans-30" x="63.623047"/>
       <use xlink:href="#DejaVuSans-30" x="127.246094"/>
       <use xlink:href="#DejaVuSans-30" x="190.869141"/>
      </g>
     </g>
    </g>
    <g id="text_10">
     <!-- Image shown -->
     <g transform="translate(202.820156 335.860562) scale(0.1 -0.1)">
      <defs>
       <path id="DejaVuSans-49" d="M 628 4666 
L 1259 4666 
L 1259 0 
L 628 0 
L 628 4666 
z
" transform="scale(0.015625)"/>
       <path id="DejaVuSans-6d" d="M 3328 2828 
Q 3544 3216 3844 3400 
Q 4144 3584 4550 3584 
Q 5097 3584 5394 3201 
Q 5691 2819 5691 2113 
L 5691 0 
L 5113 0 
L 5113 2094 
Q 5113 2597 4934 2840 
Q 4756 3084 4391 3084 
Q 3944 3084 3684 2787 
Q 3425 2491 3425 1978 
L 3425 0 
L 2847 0 
L 2847 2094 
Q 2847 2600 2669 2842 
Q 2491 3084 2119 3084 
Q 1678 3084 1418 2786 
Q 1159 2488 1159 1978 
L 1159 0 
L 581 0 
L 581 3500 
L 1159 3500 
L 1159 2956 
Q 1356 3278 1631 3431 
Q 1906 3584 2284 3584 
Q 2666 3584 2933 3390 
Q 3200 3197 3328 2828 
z
" transform="scale(0.015625)"/>
       <path id="DejaVuSans-61" d="M 2194 1759 
Q 1497 1759 1228 1600 
Q 959 1441 959 1056 
Q 959 750 1161 570 
Q 1363 391 1709 391 
Q 2188 391 2477 730 
Q 2766 1069 2766 1631 
L 2766 1759 
L 2194 1759 
z
M 3341 1997 
L 3341 0 
L 2766 0 
L 2766 531 
Q 2569 213 2275 61 
Q 1981 -91 1556 -91 
Q 1019 -91 701 211 
Q 384 513 384 1019 
Q 384 1609 779 1909 
Q 1175 2209 1959 2209 
L 2766 2209 
L 2766 2266 
Q 2766 2663 2505 2880 
Q 2244 3097 1772 3097 
Q 1472 3097 1187 3025 
Q 903 2953 641 2809 
L 641 3341 
Q 956 3463 1253 3523 
Q 1550 3584 1831 3584 
Q 2591 3584 2966 3190 
Q 3341 2797 3341 1997 
z
" transform="scale(0.015625)"/>
       <path id="DejaVuSans-67" d="M 2906 1791 
Q 2906 2416 2648 2759 
Q 2391 3103 1925 3103 
Q 1463 3103 1205 2759 
Q 947 2416 947 1791 
Q 947 1169 1205 825 
Q 1463 481 1925 481 
Q 2391 481 2648 825 
Q 2906 1169 2906 1791 
z
M 3481 434 
Q 3481 -459 3084 -895 
Q 2688 -1331 1869 -1331 
Q 1566 -1331 1297 -1286 
Q 1028 -1241 775 -1147 
L 775 -588 
Q 1028 -725 1275 -790 
Q 1522 -856 1778 -856 
Q 2344 -856 2625 -561 
Q 2906 -266 2906 331 
L 2906 616 
Q 2728 306 2450 153 
Q 2172 0 1784 0 
Q 1141 0 747 490 
Q 353 981 353 1791 
Q 353 2603 747 3093 
Q 1141 3584 1784 3584 
Q 2172 3584 2450 3431 
Q 2728 3278 2906 2969 
L 2906 3500 
L 3481 3500 
L 3481 434 
z
" transform="scale(0.015625)"/>
       <path id="DejaVuSans-65" d="M 3597 1894 
L 3597 1613 
L 953 1613 
Q 991 1019 1311 708 
Q 1631 397 2203 397 
Q 2534 397 2845 478 
Q 3156 559 3463 722 
L 3463 178 
Q 3153 47 2828 -22 
Q 2503 -91 2169 -91 
Q 1331 -91 842 396 
Q 353 884 353 1716 
Q 353 2575 817 3079 
Q 1281 3584 2069 3584 
Q 2775 3584 3186 3129 
Q 3597 2675 3597 1894 
z
M 3022 2063 
Q 3016 2534 2758 2815 
Q 2500 3097 2075 3097 
Q 1594 3097 1305 2825 
Q 1016 2553 972 2059 
L 3022 2063 
z
" transform="scale(0.015625)"/>
       <path id="DejaVuSans-20" transform="scale(0.015625)"/>
       <path id="DejaVuSans-73" d="M 2834 3397 
L 2834 2853 
Q 2591 2978 2328 3040 
Q 2066 3103 1784 3103 
Q 1356 3103 1142 2972 
Q 928 2841 928 2578 
Q 928 2378 1081 2264 
Q 1234 2150 1697 2047 
L 1894 2003 
Q 2506 1872 2764 1633 
Q 3022 1394 3022 966 
Q 3022 478 2636 193 
Q 2250 -91 1575 -91 
Q 1294 -91 989 -36 
Q 684 19 347 128 
L 347 722 
Q 666 556 975 473 
Q 1284 391 1588 391 
Q 1994 391 2212 530 
Q 2431 669 2431 922 
Q 2431 1156 2273 1281 
Q 2116 1406 1581 1522 
L 1381 1569 
Q 847 1681 609 1914 
Q 372 2147 372 2553 
Q 372 3047 722 3315 
Q 1072 3584 1716 3584 
Q 2034 3584 2315 3537 
Q 2597 3491 2834 3397 
z
" transform="scale(0.015625)"/>
       <path id="DejaVuSans-68" d="M 3513 2113 
L 3513 0 
L 2938 0 
L 2938 2094 
Q 2938 2591 2744 2837 
Q 2550 3084 2163 3084 
Q 1697 3084 1428 2787 
Q 1159 2491 1159 1978 
L 1159 0 
L 581 0 
L 581 4863 
L 1159 4863 
L 1159 2956 
Q 1366 3272 1645 3428 
Q 1925 3584 2291 3584 
Q 2894 3584 3203 3211 
Q 3513 2838 3513 2113 
z
" transform="scale(0.015625)"/>
       <path id="DejaVuSans-6f" d="M 1959 3097 
Q 1497 3097 1228 2736 
Q 959 2375 959 1747 
Q 959 1119 1226 758 
Q 1494 397 1959 397 
Q 2419 397 2687 759 
Q 2956 1122 2956 1747 
Q 2956 2369 2687 2733 
Q 2419 3097 1959 3097 
z
M 1959 3584 
Q 2709 3584 3137 3096 
Q 3566 2609 3566 1747 
Q 3566 888 3137 398 
Q 2709 -91 1959 -91 
Q 1206 -91 779 398 
Q 353 888 353 1747 
Q 353 2609 779 3096 
Q 1206 3584 1959 3584 
z
" transform="scale(0.015625)"/>
       <path id="DejaVuSans-77" d="M 269 3500 
L 844 3500 
L 1563 769 
L 2278 3500 
L 2956 3500 
L 3675 769 
L 4391 3500 
L 4966 3500 
L 4050 0 
L 3372 0 
L 2619 2869 
L 1863 0 
L 1184 0 
L 269 3500 
z
" transform="scale(0.015625)"/>
       <path id="DejaVuSans-6e" d="M 3513 2113 
L 3513 0 
L 2938 0 
L 2938 2094 
Q 2938 2591 2744 2837 
Q 2550 3084 2163 3084 
Q 1697 3084 1428 2787 
Q 1159 2491 1159 1978 
L 1159 0 
L 581 0 
L 581 3500 
L 1159 3500 
L 1159 2956 
Q 1366 3272 1645 3428 
Q 1925 3584 2291 3584 
Q 2894 3584 3203 3211 
Q 3513 2838 3513 2113 
z
" transform="scale(0.015625)"/>
      </defs>
      <use xlink:href="#DejaVuSans-49"/>
      <use xlink:href="#DejaVuSans-6d" x="29.492188"/>
      <use xlink:href="#DejaVuSans-61" x="126.904297"/>
      <use xlink:href="#DejaVuSans-67" x="188.183594"/>
      <use xlink:href="#DejaVuSans-65" x="251.660156"/>
      <use xlink:href="#DejaVuSans-20" x="313.183594"/>
      <use xlink:href="#DejaVuSans-73" x="344.970703"/>
      <use xlink:href="#DejaVuSans-68" x="397.070312"/>
      <use xlink:href="#DejaVuSans-6f" x="460.449219"/>
      <use xlink:href="#DejaVuSans-77" x="521.630859"/>
      <use xlink:href="#DejaVuSans-6e" x="603.417969"/>
     </g>
    </g>
   </g>
   <g id="matplotlib.axis_2">
    <g id="ytick_1">
     <g id="line2d_10">
      <defs>
       <path id="m9e09997767" d="M 0 0 
L -3.5 0 
" style="stroke: #000000; stroke-width: 0.8"/>
      </defs>
      <g>
       <use xlink:href="#m9e09997767" x="57.6" y="268.608" style="stroke: #000000; stroke-width: 0.8"/>
      </g>
     </g>
     <g id="text_11">
      <!-- 2 -->
      <g transform="translate(44.2375 272.407219) scale(0.1 -0.1)">
       <use xlink:href="#DejaVuSans-32"/>
      </g>
     </g>
    </g>
    <g id="ytick_2">
     <g id="line2d_11">
      <g>
       <use xlink:href="#m9e09997767" x="57.6" y="214.848" style="stroke: #000000; stroke-width: 0.8"/>
      </g>
     </g>
     <g id="text_12">
      <!-- 4 -->
      <g transform="translate(44.2375 218.647219) scale(0.1 -0.1)">
       <use xlink:href="#DejaVuSans-34"/>
      </g>
     </g>
    </g>
    <g id="ytick_3">
     <g id="line2d_12">
      <g>
       <use xlink:href="#m9e09997767" x="57.6" y="161.088" style="stroke: #000000; stroke-width: 0.8"/>
      </g>
     </g>
     <g id="text_13">
      <!-- 6 -->
      <g transform="translate(44.2375 164.887219) scale(0.1 -0.1)">
       <defs>
        <path id="DejaVuSans-36" d="M 2113 2584 
Q 1688 2584 1439 2293 
Q 1191 2003 1191 1497 
Q 1191 994 1439 701 
Q 1688 409 2113 409 
Q 2538 409 2786 701 
Q 3034 994 3034 1497 
Q 3034 2003 2786 2293 
Q 2538 2584 2113 2584 
z
M 3366 4563 
L 3366 3988 
Q 3128 4100 2886 4159 
Q 2644 4219 2406 4219 
Q 1781 4219 1451 3797 
Q 1122 3375 1075 2522 
Q 1259 2794 1537 2939 
Q 1816 3084 2150 3084 
Q 2853 3084 3261 2657 
Q 3669 2231 3669 1497 
Q 3669 778 3244 343 
Q 2819 -91 2113 -91 
Q 1303 -91 875 529 
Q 447 1150 447 2328 
Q 447 3434 972 4092 
Q 1497 4750 2381 4750 
Q 2619 4750 2861 4703 
Q 3103 4656 3366 4563 
z
" transform="scale(0.015625)"/>
       </defs>
       <use xlink:href="#DejaVuSans-36"/>
      </g>
     </g>
    </g>
    <g id="ytick_4">
     <g id="line2d_13">
      <g>
       <use xlink:href="#m9e09997767" x="57.6" y="107.328" style="stroke: #000000; stroke-width: 0.8"/>
      </g>
     </g>
     <g id="text_14">
      <!-- 8 -->
      <g transform="translate(44.2375 111.127219) scale(0.1 -0.1)">
       <defs>
        <path id="DejaVuSans-38" d="M 2034 2216 
Q 1584 2216 1326 1975 
Q 1069 1734 1069 1313 
Q 1069 891 1326 650 
Q 1584 409 2034 409 
Q 2484 409 2743 651 
Q 3003 894 3003 1313 
Q 3003 1734 2745 1975 
Q 2488 2216 2034 2216 
z
M 1403 2484 
Q 997 2584 770 2862 
Q 544 3141 544 3541 
Q 544 4100 942 4425 
Q 1341 4750 2034 4750 
Q 2731 4750 3128 4425 
Q 3525 4100 3525 3541 
Q 3525 3141 3298 2862 
Q 3072 2584 2669 2484 
Q 3125 2378 3379 2068 
Q 3634 1759 3634 1313 
Q 3634 634 3220 271 
Q 2806 -91 2034 -91 
Q 1263 -91 848 271 
Q 434 634 434 1313 
Q 434 1759 690 2068 
Q 947 2378 1403 2484 
z
M 1172 3481 
Q 1172 3119 1398 2916 
Q 1625 2713 2034 2713 
Q 2441 2713 2670 2916 
Q 2900 3119 2900 3481 
Q 2900 3844 2670 4047 
Q 2441 4250 2034 4250 
Q 1625 4250 1398 4047 
Q 1172 3844 1172 3481 
z
" transform="scale(0.015625)"/>
       </defs>
       <use xlink:href="#DejaVuSans-38"/>
      </g>
     </g>
    </g>
    <g id="ytick_5">
     <g id="line2d_14">
      <g>
       <use xlink:href="#m9e09997767" x="57.6" y="53.568" style="stroke: #000000; stroke-width: 0.8"/>
      </g>
     </g>
     <g id="text_15">
      <!-- 10 -->
      <g transform="translate(37.875 57.367219) scale(0.1 -0.1)">
       <use xlink:href="#DejaVuSans-31"/>
       <use xlink:href="#DejaVuSans-30" x="63.623047"/>
      </g>
     </g>
    </g>
    <g id="text_16">
     <!-- Number of distinct output neurons spiking -->
     <g transform="translate(31.795312 280.250656) rotate(-90) scale(0.1 -0.1)">
      <defs>
       <path id="DejaVuSans-4e" d="M 628 4666 
L 1478 4666 
L 3547 763 
L 3547 4666 
L 4159 4666 
L 4159 0 
L 3309 0 
L 1241 3903 
L 1241 0 
L 628 0 
L 628 4666 
z
" transform="scale(0.015625)"/>
       <path id="DejaVuSans-75" d="M 544 1381 
L 544 3500 
L 1119 3500 
L 1119 1403 
Q 1119 906 1312 657 
Q 1506 409 1894 409 
Q 2359 409 2629 706 
Q 2900 1003 2900 1516 
L 2900 3500 
L 3475 3500 
L 3475 0 
L 2900 0 
L 2900 538 
Q 2691 219 2414 64 
Q 2138 -91 1772 -91 
Q 1169 -91 856 284 
Q 544 659 544 1381 
z
M 1991 3584 
L 1991 3584 
z
" transform="scale(0.015625)"/>
       <path id="DejaVuSans-62" d="M 3116 1747 
Q 3116 2381 2855 2742 
Q 2594 3103 2138 3103 
Q 1681 3103 1420 2742 
Q 1159 2381 1159 1747 
Q 1159 1113 1420 752 
Q 1681 391 2138 391 
Q 2594 391 2855 752 
Q 3116 1113 3116 1747 
z
M 1159 2969 
Q 1341 3281 1617 3432 
Q 1894 3584 2278 3584 
Q 2916 3584 3314 3078 
Q 3713 2572 3713 1747 
Q 3713 922 3314 415 
Q 2916 -91 2278 -91 
Q 1894 -91 1617 61 
Q 1341 213 1159 525 
L 1159 0 
L 581 0 
L 581 4863 
L 1159 4863 
L 1159 2969 
z
" transform="scale(0.015625)"/>
       <path id="DejaVuSans-72" d="M 2631 2963 
Q 2534 3019 2420 3045 
Q 2306 3072 2169 3072 
Q 1681 3072 1420 2755 
Q 1159 2438 1159 1844 
L 1159 0 
L 581 0 
L 581 3500 
L 1159 3500 
L 1159 2956 
Q 1341 3275 1631 3429 
Q 1922 3584 2338 3584 
Q 2397 3584 2469 3576 
Q 2541 3569 2628 3553 
L 2631 2963 
z
" transform="scale(0.015625)"/>
       <path id="DejaVuSans-66" d="M 2375 4863 
L 2375 4384 
L 1825 4384 
Q 1516 4384 1395 4259 
Q 1275 4134 1275 3809 
L 1275 3500 
L 2222 3500 
L 2222 3053 
L 1275 3053 
L 1275 0 
L 697 0 
L 697 3053 
L 147 3053 
L 147 3500 
L 697 3500 
L 697 3744 
Q 697 4328 969 4595 
Q 1241 4863 1831 4863 
L 2375 4863 
z
" transform="scale(0.015625)"/>
       <path id="DejaVuSans-64" d="M 2906 2969 
L 2906 4863 
L 3481 4863 
L 3481 0 
L 2906 0 
L 2906 525 
Q 2725 213 2448 61 
Q 2172 -91 1784 -91 
Q 1150 -91 751 415 
Q 353 922 353 1747 
Q 353 2572 751 3078 
Q 1150 3584 1784 3584 
Q 2172 3584 2448 3432 
Q 2725 3281 2906 2969 
z
M 947 1747 
Q 947 1113 1208 752 
Q 1469 391 1925 391 
Q 2381 391 2643 752 
Q 2906 1113 2906 1747 
Q 2906 2381 2643 2742 
Q 2381 3103 1925 3103 
Q 1469 3103 1208 2742 
Q 947 2381 947 1747 
z
" transform="scale(0.015625)"/>
       <path id="DejaVuSans-69" d="M 603 3500 
L 1178 3500 
L 1178 0 
L 603 0 
L 603 3500 
z
M 603 4863 
L 1178 4863 
L 1178 4134 
L 603 4134 
L 603 4863 
z
" transform="scale(0.015625)"/>
       <path id="DejaVuSans-74" d="M 1172 4494 
L 1172 3500 
L 2356 3500 
L 2356 3053 
L 1172 3053 
L 1172 1153 
Q 1172 725 1289 603 
Q 1406 481 1766 481 
L 2356 481 
L 2356 0 
L 1766 0 
Q 1100 0 847 248 
Q 594 497 594 1153 
L 594 3053 
L 172 3053 
L 172 3500 
L 594 3500 
L 594 4494 
L 1172 4494 
z
" transform="scale(0.015625)"/>
       <path id="DejaVuSans-63" d="M 3122 3366 
L 3122 2828 
Q 2878 2963 2633 3030 
Q 2388 3097 2138 3097 
Q 1578 3097 1268 2742 
Q 959 2388 959 1747 
Q 959 1106 1268 751 
Q 1578 397 2138 397 
Q 2388 397 2633 464 
Q 2878 531 3122 666 
L 3122 134 
Q 2881 22 2623 -34 
Q 2366 -91 2075 -91 
Q 1284 -91 818 406 
Q 353 903 353 1747 
Q 353 2603 823 3093 
Q 1294 3584 2113 3584 
Q 2378 3584 2631 3529 
Q 2884 3475 3122 3366 
z
" transform="scale(0.015625)"/>
       <path id="DejaVuSans-70" d="M 1159 525 
L 1159 -1331 
L 581 -1331 
L 581 3500 
L 1159 3500 
L 1159 2969 
Q 1341 3281 1617 3432 
Q 1894 3584 2278 3584 
Q 2916 3584 3314 3078 
Q 3713 2572 3713 1747 
Q 3713 922 3314 415 
Q 2916 -91 2278 -91 
Q 1894 -91 1617 61 
Q 1341 213 1159 525 
z
M 3116 1747 
Q 3116 2381 2855 2742 
Q 2594 3103 2138 3103 
Q 1681 3103 1420 2742 
Q 1159 2381 1159 1747 
Q 1159 1113 1420 752 
Q 1681 391 2138 391 
Q 2594 391 2855 752 
Q 3116 1113 3116 1747 
z
" transform="scale(0.015625)"/>
       <path id="DejaVuSans-6b" d="M 581 4863 
L 1159 4863 
L 1159 1991 
L 2875 3500 
L 3609 3500 
L 1753 1863 
L 3688 0 
L 2938 0 
L 1159 1709 
L 1159 0 
L 581 0 
L 581 4863 
z
" transform="scale(0.015625)"/>
      </defs>
      <use xlink:href="#DejaVuSans-4e"/>
      <use xlink:href="#DejaVuSans-75" x="74.804688"/>
      <use xlink:href="#DejaVuSans-6d" x="138.183594"/>
      <use xlink:href="#DejaVuSans-62" x="235.595703"/>
      <use xlink:href="#DejaVuSans-65" x="299.072266"/>
      <use xlink:href="#DejaVuSans-72" x="360.595703"/>
      <use xlink:href="#DejaVuSans-20" x="401.708984"/>
      <use xlink:href="#DejaVuSans-6f" x="433.496094"/>
      <use xlink:href="#DejaVuSans-66" x="494.677734"/>
      <use xlink:href="#DejaVuSans-20" x="529.882812"/>
      <use xlink:href="#DejaVuSans-64" x="561.669922"/>
      <use xlink:href="#DejaVuSans-69" x="625.146484"/>
      <use xlink:href="#DejaVuSans-73" x="652.929688"/>
      <use xlink:href="#DejaVuSans-74" x="705.029297"/>
      <use xlink:href="#DejaVuSans-69" x="744.238281"/>
      <use xlink:href="#DejaVuSans-6e" x="772.021484"/>
      <use xlink:href="#DejaVuSans-63" x="835.400391"/>
      <use xlink:href="#DejaVuSans-74" x="890.380859"/>
      <use xlink:href="#DejaVuSans-20" x="929.589844"/>
      <use xlink:href="#DejaVuSans-6f" x="961.376953"/>
      <use xlink:href="#DejaVuSans-75" x="1022.558594"/>
      <use xlink:href="#DejaVuSans-74" x="1085.9375"/>
      <use xlink:href="#DejaVuSans-70" x="1125.146484"/>
      <use xlink:href="#DejaVuSans-75" x="1188.623047"/>
      <use xlink:href="#DejaVuSans-74" x="1252.001953"/>
      <use xlink:href="#DejaVuSans-20" x="1291.210938"/>
      <use xlink:href="#DejaVuSans-6e" x="1322.998047"/>
      <use xlink:href="#DejaVuSans-65" x="1386.376953"/>
      <use xlink:href="#DejaVuSans-75" x="1447.900391"/>
      <use xlink:href="#DejaVuSans-72" x="1511.279297"/>
      <use xlink:href="#DejaVuSans-6f" x="1550.142578"/>
      <use xlink:href="#DejaVuSans-6e" x="1611.324219"/>
      <use xlink:href="#DejaVuSans-73" x="1674.703125"/>
      <use xlink:href="#DejaVuSans-20" x="1726.802734"/>
      <use xlink:href="#DejaVuSans-73" x="1758.589844"/>
      <use xlink:href="#DejaVuSans-70" x="1810.689453"/>
      <use xlink:href="#DejaVuSans-69" x="1874.166016"/>
      <use xlink:href="#DejaVuSans-6b" x="1901.949219"/>
      <use xlink:href="#DejaVuSans-69" x="1959.859375"/>
      <use xlink:href="#DejaVuSans-6e" x="1987.642578"/>
      <use xlink:href="#DejaVuSans-67" x="2051.021484"/>
     </g>
    </g>
   </g>
   <g id="line2d_15">
    <path d="M 73.832727 53.568 
L 73.913932 80.448 
L 74.07634 53.568 
L 74.157544 53.568 
L 74.238748 107.328 
L 74.401157 53.568 
L 74.64477 53.568 
L 74.807178 80.448 
L 74.888382 53.568 
L 75.050791 107.328 
L 75.213199 80.448 
L 75.294404 80.448 
L 75.375608 53.568 
L 75.456812 80.448 
L 75.538016 53.568 
L 75.781629 187.968 
L 75.862833 53.568 
L 76.025242 187.968 
L 76.106446 80.448 
L 76.18765 107.328 
L 76.268854 53.568 
L 76.350059 80.448 
L 76.512467 295.488 
L 76.593671 295.488 
L 76.837284 80.448 
L 76.918488 134.208 
L 76.999693 107.328 
L 77.080897 295.488 
L 77.162101 214.848 
L 77.32451 295.488 
L 77.405714 107.328 
L 77.568122 295.488 
L 77.649326 295.488 
L 77.730531 107.328 
L 77.892939 295.488 
L 78.055348 295.488 
L 78.217756 241.728 
L 78.29896 295.488 
L 78.380165 161.088 
L 78.461369 268.608 
L 78.542573 241.728 
L 78.704982 295.488 
L 78.948594 295.488 
L 79.029799 268.608 
L 79.111003 295.488 
L 79.192207 107.328 
L 79.354615 295.488 
L 79.760637 295.488 
L 79.841841 268.608 
L 79.923045 295.488 
L 80.004249 241.728 
L 80.166658 268.608 
L 80.653883 268.608 
L 80.816292 295.488 
L 80.897496 295.488 
L 80.9787 214.848 
L 81.141109 268.608 
L 81.303517 295.488 
L 81.465926 268.608 
L 81.54713 295.488 
L 81.628334 268.608 
L 81.790743 295.488 
L 81.953151 241.728 
L 82.11556 295.488 
L 82.277968 268.608 
L 82.440377 295.488 
L 82.683989 295.488 
L 82.765194 187.968 
L 82.846398 214.848 
L 83.171215 295.488 
L 83.252419 161.088 
L 83.333623 295.488 
L 83.496032 214.848 
L 83.65844 268.608 
L 83.739644 295.488 
L 83.902053 134.208 
L 83.983257 295.488 
L 84.064461 268.608 
L 84.22687 241.728 
L 84.389278 295.488 
L 84.632891 241.728 
L 84.714095 295.488 
L 84.795299 214.848 
L 84.957708 268.608 
L 85.038912 295.488 
L 85.120116 268.608 
L 85.201321 295.488 
L 85.282525 268.608 
L 85.363729 187.968 
L 85.526138 268.608 
L 85.607342 268.608 
L 85.688546 295.488 
L 85.76975 187.968 
L 85.932159 295.488 
L 86.013363 295.488 
L 86.094567 268.608 
L 86.175772 295.488 
L 86.419384 241.728 
L 86.581793 295.488 
L 86.825405 295.488 
L 86.90661 161.088 
L 87.069018 295.488 
L 87.150222 268.608 
L 87.312631 295.488 
L 87.393835 295.488 
L 87.637448 241.728 
L 87.718652 295.488 
L 87.799856 268.608 
L 87.881061 295.488 
L 87.962265 241.728 
L 88.043469 268.608 
L 88.124673 241.728 
L 88.368286 295.488 
L 88.611899 295.488 
L 88.693103 268.608 
L 88.774307 295.488 
L 88.936716 268.608 
L 89.01792 268.608 
L 89.099124 241.728 
L 89.180328 295.488 
L 89.261533 214.848 
L 89.423941 268.608 
L 89.505145 295.488 
L 89.58635 241.728 
L 89.748758 268.608 
L 89.992371 268.608 
L 90.073575 295.488 
L 90.154779 268.608 
L 90.317188 295.488 
L 90.398392 268.608 
L 90.479596 295.488 
L 90.5608 268.608 
L 90.723209 295.488 
L 90.885617 295.488 
L 90.966822 268.608 
L 91.12923 295.488 
L 91.210434 241.728 
L 91.372843 295.488 
L 91.535251 268.608 
L 91.616456 295.488 
L 91.69766 214.848 
L 91.778864 295.488 
L 91.860068 268.608 
L 92.022477 295.488 
L 92.103681 295.488 
L 92.184885 268.608 
L 92.347294 295.488 
L 92.509702 268.608 
L 92.590906 268.608 
L 92.753315 295.488 
L 92.996928 295.488 
L 93.078132 241.728 
L 93.24054 295.488 
L 93.321745 295.488 
L 93.402949 268.608 
L 93.484153 295.488 
L 93.646561 268.608 
L 93.727766 268.608 
L 93.890174 295.488 
L 93.971378 295.488 
L 94.052583 268.608 
L 94.214991 295.488 
L 94.296195 268.608 
L 94.3774 295.488 
L 94.539808 268.608 
L 94.702217 295.488 
L 94.783421 295.488 
L 94.864625 214.848 
L 95.027034 295.488 
L 95.108238 295.488 
L 95.189442 268.608 
L 95.270646 295.488 
L 95.35185 241.728 
L 95.514259 295.488 
L 95.595463 295.488 
L 95.757872 187.968 
L 95.839076 268.608 
L 95.92028 241.728 
L 96.001484 268.608 
L 96.082689 161.088 
L 96.245097 295.488 
L 96.569914 295.488 
L 96.651118 268.608 
L 96.732323 295.488 
L 97.057139 161.088 
L 97.138344 295.488 
L 97.219548 241.728 
L 97.381956 295.488 
L 97.463161 241.728 
L 97.544365 295.488 
L 97.625569 161.088 
L 97.787978 241.728 
L 97.950386 268.608 
L 98.03159 268.608 
L 98.112795 295.488 
L 98.193999 241.728 
L 98.437612 295.488 
L 98.518816 268.608 
L 98.681224 295.488 
L 98.843633 241.728 
L 98.924837 295.488 
L 99.16845 187.968 
L 99.249654 295.488 
L 99.330858 187.968 
L 99.493267 295.488 
L 99.574471 295.488 
L 99.655675 187.968 
L 99.736879 295.488 
L 99.818084 161.088 
L 99.980492 295.488 
L 100.142901 268.608 
L 100.224105 295.488 
L 100.305309 241.728 
L 100.467717 295.488 
L 100.630126 268.608 
L 100.71133 295.488 
L 100.873739 268.608 
L 100.954943 268.608 
L 101.117351 295.488 
L 101.27976 295.488 
L 101.360964 241.728 
L 101.442168 268.608 
L 101.523373 161.088 
L 101.685781 295.488 
L 101.766985 268.608 
L 101.84819 187.968 
L 102.010598 241.728 
L 102.091802 134.208 
L 102.416619 295.488 
L 102.497823 295.488 
L 102.660232 268.608 
L 102.741436 295.488 
L 102.82264 268.608 
L 102.903845 295.488 
L 102.985049 187.968 
L 103.147457 268.608 
L 103.228662 268.608 
L 103.39107 295.488 
L 103.472274 268.608 
L 103.553479 295.488 
L 103.715887 268.608 
L 103.878296 295.488 
L 103.9595 295.488 
L 104.121908 268.608 
L 104.284317 295.488 
L 104.527929 214.848 
L 104.690338 268.608 
L 104.771542 295.488 
L 104.852746 161.088 
L 104.933951 295.488 
L 105.015155 268.608 
L 105.096359 268.608 
L 105.258768 295.488 
L 105.339972 295.488 
L 105.50238 241.728 
L 105.583585 295.488 
L 105.745993 214.848 
L 105.908401 268.608 
L 105.989606 268.608 
L 106.07081 241.728 
L 106.233218 295.488 
L 106.476831 214.848 
L 106.801648 295.488 
L 106.882852 187.968 
L 107.045261 295.488 
L 107.207669 268.608 
L 107.370078 295.488 
L 107.532486 295.488 
L 107.61369 241.728 
L 107.694895 295.488 
L 107.776099 187.968 
L 107.857303 295.488 
L 107.938507 268.608 
L 108.100916 295.488 
L 108.18212 214.848 
L 108.344529 295.488 
L 108.425733 268.608 
L 108.588141 295.488 
L 108.669346 268.608 
L 108.831754 295.488 
L 108.994163 295.488 
L 109.075367 268.608 
L 109.156571 295.488 
L 109.318979 268.608 
L 109.481388 268.608 
L 109.643796 295.488 
L 109.725001 134.208 
L 109.806205 268.608 
L 109.887409 241.728 
L 109.968613 295.488 
L 110.049818 214.848 
L 110.212226 295.488 
L 110.374635 268.608 
L 110.537043 268.608 
L 110.618247 295.488 
L 110.699452 268.608 
L 110.86186 295.488 
L 111.105473 295.488 
L 111.186677 268.608 
L 111.267881 295.488 
L 111.43029 268.608 
L 111.511494 295.488 
L 111.592698 268.608 
L 111.673902 161.088 
L 111.836311 295.488 
L 111.917515 161.088 
L 112.079924 295.488 
L 112.161128 295.488 
L 112.242332 268.608 
L 112.404741 295.488 
L 112.567149 241.728 
L 112.648353 295.488 
L 112.729558 161.088 
L 112.891966 295.488 
L 112.97317 241.728 
L 113.054374 268.608 
L 113.135579 187.968 
L 113.216783 295.488 
L 113.297987 268.608 
L 113.379191 295.488 
L 113.460396 268.608 
L 113.5416 107.328 
L 113.622804 295.488 
L 113.704008 241.728 
L 113.947621 295.488 
L 114.028825 268.608 
L 114.191234 295.488 
L 114.353642 268.608 
L 114.434847 295.488 
L 114.516051 268.608 
L 114.597255 187.968 
L 114.759663 295.488 
L 114.922072 295.488 
L 115.08448 214.848 
L 115.165685 241.728 
L 115.409297 295.488 
L 115.490502 268.608 
L 115.571706 295.488 
L 115.734114 241.728 
L 115.896523 241.728 
L 115.977727 295.488 
L 116.058931 268.608 
L 116.22134 295.488 
L 116.464952 295.488 
L 116.546157 268.608 
L 116.627361 295.488 
L 116.789769 268.608 
L 116.870974 295.488 
L 117.033382 214.848 
L 117.195791 295.488 
L 117.276995 241.728 
L 117.358199 295.488 
L 117.439403 268.608 
L 117.520608 295.488 
L 117.601812 268.608 
L 117.683016 295.488 
L 117.76422 241.728 
L 117.845425 295.488 
L 117.926629 214.848 
L 118.007833 268.608 
L 118.089037 241.728 
L 118.251446 268.608 
L 118.33265 268.608 
L 118.495058 295.488 
L 118.576263 268.608 
L 118.657467 295.488 
L 118.90108 214.848 
L 118.982284 295.488 
L 119.063488 241.728 
L 119.144692 295.488 
L 119.225897 241.728 
L 119.307101 295.488 
L 119.388305 268.608 
L 119.469509 295.488 
L 119.550714 187.968 
L 119.631918 214.848 
L 119.713122 295.488 
L 119.794326 268.608 
L 119.87553 214.848 
L 120.037939 268.608 
L 120.200347 241.728 
L 120.44396 295.488 
L 120.525164 241.728 
L 120.606369 268.608 
L 120.768777 214.848 
L 120.849981 295.488 
L 120.931186 214.848 
L 121.093594 295.488 
L 121.337207 241.728 
L 121.499615 295.488 
L 121.662024 268.608 
L 121.824432 295.488 
L 121.986841 295.488 
L 122.149249 214.848 
L 122.230453 268.608 
L 122.311658 187.968 
L 122.392862 295.488 
L 122.55527 241.728 
L 122.636475 241.728 
L 122.717679 295.488 
L 122.798883 241.728 
L 122.880087 295.488 
L 122.961292 268.608 
L 123.042496 295.488 
L 123.204904 268.608 
L 123.367313 295.488 
L 123.529721 241.728 
L 123.610925 295.488 
L 123.69213 241.728 
L 123.773334 268.608 
L 123.854538 214.848 
L 124.016947 268.608 
L 124.098151 295.488 
L 124.179355 187.968 
L 124.260559 295.488 
L 124.341764 268.608 
L 124.422968 268.608 
L 124.585376 295.488 
L 124.747785 268.608 
L 124.828989 295.488 
L 124.991398 241.728 
L 125.153806 295.488 
L 125.23501 187.968 
L 125.397419 268.608 
L 125.559827 295.488 
L 125.641031 268.608 
L 125.80344 295.488 
L 125.884644 214.848 
L 125.965848 295.488 
L 126.047053 268.608 
L 126.209461 295.488 
L 126.37187 241.728 
L 126.453074 295.488 
L 126.615482 214.848 
L 126.777891 295.488 
L 126.859095 268.608 
L 126.940299 295.488 
L 127.102708 214.848 
L 127.265116 295.488 
L 127.34632 241.728 
L 127.427525 295.488 
L 127.508729 268.608 
L 127.589933 295.488 
L 127.671137 268.608 
L 127.752342 295.488 
L 127.833546 268.608 
L 127.91475 295.488 
L 128.077159 241.728 
L 128.239567 268.608 
L 128.320771 268.608 
L 128.48318 295.488 
L 128.726792 295.488 
L 128.807997 214.848 
L 128.889201 295.488 
L 128.970405 268.608 
L 129.051609 295.488 
L 129.132814 268.608 
L 129.214018 295.488 
L 129.295222 268.608 
L 129.376426 295.488 
L 129.457631 268.608 
L 129.538835 295.488 
L 129.620039 241.728 
L 129.701243 295.488 
L 129.782448 268.608 
L 129.863652 295.488 
L 130.02606 241.728 
L 130.188469 295.488 
L 130.269673 241.728 
L 130.350877 295.488 
L 130.432081 268.608 
L 130.513286 161.088 
L 130.675694 295.488 
L 130.919307 214.848 
L 131.000511 295.488 
L 131.081715 268.608 
L 131.16292 268.608 
L 131.244124 295.488 
L 131.406532 214.848 
L 131.568941 268.608 
L 131.650145 295.488 
L 131.731349 268.608 
L 131.812554 295.488 
L 131.974962 268.608 
L 132.056166 268.608 
L 132.137371 295.488 
L 132.299779 161.088 
L 132.462187 295.488 
L 132.787004 295.488 
L 132.868209 241.728 
L 132.949413 295.488 
L 133.111821 268.608 
L 133.27423 268.608 
L 133.355434 295.488 
L 133.436638 268.608 
L 133.599047 295.488 
L 133.761455 241.728 
L 134.005068 295.488 
L 134.167476 295.488 
L 134.329885 268.608 
L 134.411089 295.488 
L 134.492293 268.608 
L 134.573498 295.488 
L 134.735906 241.728 
L 134.81711 268.608 
L 134.898315 214.848 
L 135.060723 295.488 
L 135.223132 295.488 
L 135.38554 268.608 
L 135.466744 268.608 
L 135.629153 295.488 
L 135.710357 295.488 
L 135.872765 241.728 
L 136.035174 268.608 
L 136.116378 214.848 
L 136.441195 295.488 
L 136.522399 295.488 
L 136.603604 268.608 
L 136.766012 295.488 
L 136.928421 268.608 
L 137.009625 295.488 
L 137.172033 268.608 
L 137.253238 295.488 
L 137.49685 241.728 
L 137.659259 295.488 
L 137.740463 295.488 
L 137.821667 241.728 
L 137.902871 295.488 
L 137.984076 187.968 
L 138.06528 295.488 
L 138.146484 268.608 
L 138.227688 241.728 
L 138.308893 295.488 
L 138.390097 268.608 
L 138.552505 295.488 
L 138.714914 241.728 
L 138.877322 268.608 
L 139.039731 268.608 
L 139.120935 241.728 
L 139.283343 268.608 
L 139.364548 241.728 
L 139.526956 295.488 
L 139.60816 268.608 
L 139.689365 161.088 
L 139.851773 295.488 
L 139.932977 268.608 
L 140.095386 295.488 
L 140.17659 295.488 
L 140.257794 241.728 
L 140.501407 295.488 
L 140.663816 295.488 
L 140.826224 268.608 
L 140.907428 295.488 
L 141.069837 268.608 
L 141.151041 268.608 
L 141.232245 241.728 
L 141.313449 295.488 
L 141.475858 268.608 
L 141.557062 268.608 
L 141.638266 241.728 
L 141.719471 295.488 
L 141.881879 268.608 
L 142.125492 268.608 
L 142.206696 295.488 
L 142.450309 241.728 
L 142.693922 295.488 
L 142.775126 268.608 
L 142.937534 295.488 
L 143.181147 214.848 
L 143.262351 295.488 
L 143.343555 268.608 
L 143.505964 295.488 
L 143.668372 268.608 
L 143.749577 295.488 
L 143.830781 241.728 
L 144.074394 295.488 
L 144.318006 241.728 
L 144.480415 295.488 
L 144.642823 268.608 
L 144.886436 268.608 
L 145.048844 295.488 
L 145.211253 268.608 
L 145.373661 295.488 
L 145.53607 268.608 
L 145.698478 268.608 
L 145.860887 214.848 
L 146.023295 268.608 
L 146.185704 295.488 
L 146.429316 241.728 
L 146.591725 295.488 
L 146.754133 268.608 
L 147.07895 268.608 
L 147.160155 295.488 
L 147.322563 241.728 
L 147.484972 268.608 
L 147.64738 268.608 
L 147.728584 187.968 
L 147.890993 268.608 
L 147.972197 268.608 
L 148.134605 295.488 
L 148.297014 241.728 
L 148.459422 268.608 
L 148.703035 268.608 
L 148.865444 295.488 
L 149.109056 241.728 
L 149.352669 295.488 
L 149.515078 268.608 
L 149.596282 295.488 
L 149.677486 268.608 
L 149.75869 295.488 
L 149.921099 241.728 
L 150.164711 295.488 
L 150.32712 268.608 
L 150.408324 295.488 
L 150.489528 241.728 
L 150.733141 295.488 
L 150.814345 295.488 
L 150.976754 268.608 
L 151.057958 295.488 
L 151.220367 268.608 
L 151.545184 268.608 
L 151.626388 295.488 
L 151.788796 268.608 
L 151.87 268.608 
L 151.951205 295.488 
L 152.113613 268.608 
L 152.276022 295.488 
L 152.357226 295.488 
L 152.519634 268.608 
L 152.600839 268.608 
L 152.682043 241.728 
L 152.844451 268.608 
L 152.925656 241.728 
L 153.169268 295.488 
L 153.331677 268.608 
L 153.494085 268.608 
L 153.575289 295.488 
L 153.737698 268.608 
L 153.818902 161.088 
L 153.981311 268.608 
L 154.062515 268.608 
L 154.143719 295.488 
L 154.306128 268.608 
L 154.54974 268.608 
L 154.630945 295.488 
L 154.874557 214.848 
L 155.036966 268.608 
L 155.11817 268.608 
L 155.199374 295.488 
L 155.280578 241.728 
L 155.524191 295.488 
L 155.6866 295.488 
L 155.767804 268.608 
L 155.930212 295.488 
L 156.011417 268.608 
L 156.092621 295.488 
L 156.255029 268.608 
L 156.336234 295.488 
L 156.498642 268.608 
L 156.579846 295.488 
L 156.661051 268.608 
L 156.823459 295.488 
L 156.985867 268.608 
L 157.067072 268.608 
L 157.148276 295.488 
L 157.22948 241.728 
L 157.310684 295.488 
L 157.391889 268.608 
L 157.473093 295.488 
L 157.635501 268.608 
L 157.716706 295.488 
L 157.879114 268.608 
L 157.960318 268.608 
L 158.122727 295.488 
L 158.285135 268.608 
L 158.528748 268.608 
L 158.609952 295.488 
L 158.691156 241.728 
L 158.772361 295.488 
L 158.853565 241.728 
L 159.097178 295.488 
L 159.178382 295.488 
L 159.259586 268.608 
L 159.34079 295.488 
L 159.503199 187.968 
L 159.665607 295.488 
L 159.828016 268.608 
L 159.990424 295.488 
L 160.315241 295.488 
L 160.396445 214.848 
L 160.47765 241.728 
L 160.558854 295.488 
L 160.640058 268.608 
L 160.721262 295.488 
L 160.883671 268.608 
L 160.964875 268.608 
L 161.046079 241.728 
L 161.208488 268.608 
L 161.533305 268.608 
L 161.614509 241.728 
L 161.695713 268.608 
L 161.776918 241.728 
L 161.858122 268.608 
L 161.939326 241.728 
L 162.101735 268.608 
L 162.182939 161.088 
L 162.264143 295.488 
L 162.345347 268.608 
L 162.670164 268.608 
L 162.751368 214.848 
L 162.913777 295.488 
L 162.994981 295.488 
L 163.076185 268.608 
L 163.238594 295.488 
L 163.319798 241.728 
L 163.563411 295.488 
L 163.644615 295.488 
L 163.807024 268.608 
L 163.969432 268.608 
L 164.050636 295.488 
L 164.213045 268.608 
L 164.294249 268.608 
L 164.375453 295.488 
L 164.456657 268.608 
L 164.537862 295.488 
L 164.619066 268.608 
L 164.781474 295.488 
L 164.862679 241.728 
L 165.025087 268.608 
L 165.106291 241.728 
L 165.349904 295.488 
L 165.512313 268.608 
L 165.593517 295.488 
L 165.755925 214.848 
L 165.837129 295.488 
L 165.918334 268.608 
L 165.999538 295.488 
L 166.161946 268.608 
L 166.243151 295.488 
L 166.405559 268.608 
L 166.486763 268.608 
L 166.567968 295.488 
L 166.649172 268.608 
L 166.730376 295.488 
L 166.81158 268.608 
L 166.892785 295.488 
L 167.136397 214.848 
L 167.298806 268.608 
L 167.542418 268.608 
L 167.704827 241.728 
L 167.867235 268.608 
L 167.94844 214.848 
L 168.110848 268.608 
L 168.273257 268.608 
L 168.435665 295.488 
L 168.516869 268.608 
L 168.598074 295.488 
L 168.679278 268.608 
L 168.841686 295.488 
L 168.922891 268.608 
L 169.085299 295.488 
L 169.166503 268.608 
L 169.328912 295.488 
L 169.49132 241.728 
L 169.734933 295.488 
L 169.816137 268.608 
L 169.897341 295.488 
L 169.978546 241.728 
L 170.222158 295.488 
L 170.303363 268.608 
L 170.465771 295.488 
L 170.546975 295.488 
L 170.709384 241.728 
L 170.871792 268.608 
L 171.115405 268.608 
L 171.196609 241.728 
L 171.277813 295.488 
L 171.359018 241.728 
L 171.440222 268.608 
L 171.521426 214.848 
L 171.60263 295.488 
L 171.683835 268.608 
L 171.765039 268.608 
L 171.846243 295.488 
L 171.927447 214.848 
L 172.008652 241.728 
L 172.089856 241.728 
L 172.252264 268.608 
L 172.658286 268.608 
L 172.73949 295.488 
L 172.820694 241.728 
L 172.983102 295.488 
L 173.064307 268.608 
L 173.226715 295.488 
L 173.307919 241.728 
L 173.389124 295.488 
L 173.470328 268.608 
L 173.551532 295.488 
L 173.632736 268.608 
L 173.713941 295.488 
L 173.876349 268.608 
L 174.038758 268.608 
L 174.119962 214.848 
L 174.28237 295.488 
L 174.363575 241.728 
L 174.525983 295.488 
L 174.607187 268.608 
L 174.769596 295.488 
L 174.8508 295.488 
L 175.013208 268.608 
L 175.256821 268.608 
L 175.338025 214.848 
L 175.500434 268.608 
L 175.744047 268.608 
L 175.906455 295.488 
L 176.068864 241.728 
L 176.150068 214.848 
L 176.312476 295.488 
L 176.39368 295.488 
L 176.474885 214.848 
L 176.556089 241.728 
L 176.718497 295.488 
L 176.880906 241.728 
L 176.96211 295.488 
L 177.043314 268.608 
L 177.124519 295.488 
L 177.286927 214.848 
L 177.449336 295.488 
L 177.611744 241.728 
L 177.774153 295.488 
L 177.936561 268.608 
L 178.098969 295.488 
L 178.261378 295.488 
L 178.423786 268.608 
L 178.586195 295.488 
L 178.667399 295.488 
L 178.748603 241.728 
L 178.829808 295.488 
L 178.992216 268.608 
L 179.317033 268.608 
L 179.398237 295.488 
L 179.560646 214.848 
L 179.723054 295.488 
L 179.966667 241.728 
L 180.047871 241.728 
L 180.129075 268.608 
L 180.21028 241.728 
L 180.372688 295.488 
L 180.535097 268.608 
L 180.616301 295.488 
L 180.778709 241.728 
L 180.859914 268.608 
L 180.941118 241.728 
L 181.184731 295.488 
L 181.347139 268.608 
L 181.428343 295.488 
L 181.509548 241.728 
L 181.671956 295.488 
L 181.75316 268.608 
L 181.834364 295.488 
L 181.996773 268.608 
L 182.077977 268.608 
L 182.159181 187.968 
L 182.32159 295.488 
L 182.402794 268.608 
L 182.483998 295.488 
L 182.646407 214.848 
L 182.808815 295.488 
L 182.89002 295.488 
L 182.971224 268.608 
L 183.133632 295.488 
L 183.214837 241.728 
L 183.296041 295.488 
L 183.458449 214.848 
L 183.539653 295.488 
L 183.620858 268.608 
L 183.702062 295.488 
L 183.945675 241.728 
L 184.108083 295.488 
L 184.189287 295.488 
L 184.351696 241.728 
L 184.4329 268.608 
L 184.595309 241.728 
L 184.757717 295.488 
L 184.920126 241.728 
L 185.082534 295.488 
L 185.163738 295.488 
L 185.326147 268.608 
L 185.407351 268.608 
L 185.569759 295.488 
L 185.650964 295.488 
L 185.732168 214.848 
L 185.894576 268.608 
L 185.975781 214.848 
L 186.219393 295.488 
L 186.381802 241.728 
L 186.54421 295.488 
L 186.625415 241.728 
L 186.706619 295.488 
L 186.869027 268.608 
L 187.193844 268.608 
L 187.356253 295.488 
L 187.437457 241.728 
L 187.518661 295.488 
L 187.68107 268.608 
L 187.843478 268.608 
L 187.924682 241.728 
L 188.087091 295.488 
L 188.249499 268.608 
L 188.574316 268.608 
L 188.65552 295.488 
L 188.736725 214.848 
L 188.899133 295.488 
L 189.061542 214.848 
L 189.142746 214.848 
L 189.22395 295.488 
L 189.305154 241.728 
L 189.386359 295.488 
L 189.548767 268.608 
L 189.711176 295.488 
L 189.873584 268.608 
L 190.035993 268.608 
L 190.117197 295.488 
L 190.279605 268.608 
L 190.685626 268.608 
L 190.766831 295.488 
L 190.929239 268.608 
L 191.091648 268.608 
L 191.254056 295.488 
L 191.33526 268.608 
L 191.497669 295.488 
L 191.578873 295.488 
L 191.741282 268.608 
L 191.984894 268.608 
L 192.066099 295.488 
L 192.309711 241.728 
L 192.390915 295.488 
L 192.553324 268.608 
L 192.634528 295.488 
L 192.715732 241.728 
L 192.796937 295.488 
L 192.959345 241.728 
L 193.040549 268.608 
L 193.121754 214.848 
L 193.284162 295.488 
L 193.365366 241.728 
L 193.527775 295.488 
L 193.608979 241.728 
L 193.771388 295.488 
L 193.933796 295.488 
L 194.015 214.848 
L 194.096204 295.488 
L 194.177409 268.608 
L 194.339817 295.488 
L 194.421021 241.728 
L 194.58343 295.488 
L 194.745838 268.608 
L 194.827043 268.608 
L 194.908247 295.488 
L 194.989451 268.608 
L 195.070655 295.488 
L 195.233064 268.608 
L 195.314268 268.608 
L 195.395472 295.488 
L 195.476677 268.608 
L 195.557881 295.488 
L 195.639085 241.728 
L 195.801493 268.608 
L 196.12631 268.608 
L 196.288719 295.488 
L 196.369923 268.608 
L 196.451127 295.488 
L 196.532332 268.608 
L 196.613536 295.488 
L 196.857149 187.968 
L 197.019557 295.488 
L 197.100761 241.728 
L 197.344374 295.488 
L 197.425578 295.488 
L 197.506782 268.608 
L 197.587987 295.488 
L 197.669191 241.728 
L 197.831599 295.488 
L 197.994008 268.608 
L 198.075212 268.608 
L 198.156416 214.848 
L 198.400029 268.608 
L 198.481233 268.608 
L 198.643642 295.488 
L 198.724846 214.848 
L 198.887255 268.608 
L 198.968459 268.608 
L 199.049663 214.848 
L 199.212071 295.488 
L 199.293276 295.488 
L 199.37448 268.608 
L 199.536888 295.488 
L 199.618093 241.728 
L 199.699297 295.488 
L 199.861705 268.608 
L 200.024114 295.488 
L 200.105318 214.848 
L 200.186522 295.488 
L 200.267727 268.608 
L 200.348931 268.608 
L 200.430135 214.848 
L 200.592544 295.488 
L 200.673748 241.728 
L 200.91736 295.488 
L 201.079769 295.488 
L 201.160973 241.728 
L 201.323382 295.488 
L 201.48579 241.728 
L 201.566994 268.608 
L 201.648199 214.848 
L 201.810607 268.608 
L 201.891811 268.608 
L 201.973016 295.488 
L 202.05422 268.608 
L 202.135424 295.488 
L 202.216628 268.608 
L 202.379037 295.488 
L 202.541445 214.848 
L 202.703854 295.488 
L 202.785058 241.728 
L 202.866262 295.488 
L 203.109875 241.728 
L 203.191079 241.728 
L 203.434692 295.488 
L 203.515896 295.488 
L 203.5971 241.728 
L 203.759509 295.488 
L 203.921917 241.728 
L 204.084326 295.488 
L 204.16553 295.488 
L 204.246734 268.608 
L 204.327939 295.488 
L 204.409143 268.608 
L 204.490347 295.488 
L 204.571551 268.608 
L 204.652755 295.488 
L 204.73396 241.728 
L 204.815164 295.488 
L 204.896368 241.728 
L 205.139981 295.488 
L 205.302389 241.728 
L 205.383594 295.488 
L 205.464798 241.728 
L 205.546002 295.488 
L 205.708411 268.608 
L 205.789615 295.488 
L 205.870819 241.728 
L 205.952023 295.488 
L 206.033228 241.728 
L 206.195636 295.488 
L 206.27684 268.608 
L 206.358044 295.488 
L 206.439249 268.608 
L 206.520453 295.488 
L 206.601657 241.728 
L 206.84527 295.488 
L 207.332495 295.488 
L 207.494904 268.608 
L 207.576108 295.488 
L 207.819721 241.728 
L 207.982129 268.608 
L 208.063333 214.848 
L 208.144538 295.488 
L 208.225742 241.728 
L 208.38815 295.488 
L 208.469355 295.488 
L 208.631763 268.608 
L 208.712967 268.608 
L 208.875376 295.488 
L 209.037784 268.608 
L 209.281397 268.608 
L 209.443806 295.488 
L 209.606214 241.728 
L 209.687418 295.488 
L 209.849827 268.608 
L 209.931031 295.488 
L 210.012235 268.608 
L 210.093439 295.488 
L 210.255848 241.728 
L 210.337052 295.488 
L 210.580665 241.728 
L 210.743073 268.608 
L 210.824278 268.608 
L 210.986686 241.728 
L 211.149095 295.488 
L 211.311503 268.608 
L 211.392707 295.488 
L 211.717524 214.848 
L 211.879933 295.488 
L 211.961137 187.968 
L 212.123545 295.488 
L 212.285954 268.608 
L 212.367158 268.608 
L 212.529567 241.728 
L 212.691975 295.488 
L 212.773179 268.608 
L 212.854384 295.488 
L 212.935588 268.608 
L 213.016792 295.488 
L 213.179201 268.608 
L 213.504017 268.608 
L 213.585222 241.728 
L 213.74763 268.608 
L 213.828834 268.608 
L 213.910039 295.488 
L 213.991243 268.608 
L 214.072447 295.488 
L 214.234856 268.608 
L 214.31606 295.488 
L 214.478468 268.608 
L 214.559673 295.488 
L 214.722081 268.608 
L 214.803285 295.488 
L 214.88449 241.728 
L 214.965694 295.488 
L 215.128102 241.728 
L 215.290511 268.608 
L 215.534123 268.608 
L 215.615328 295.488 
L 215.696532 241.728 
L 215.777736 295.488 
L 215.940145 214.848 
L 216.102553 295.488 
L 216.183757 241.728 
L 216.42737 295.488 
L 216.589779 268.608 
L 216.752187 295.488 
L 216.833391 295.488 
L 217.077004 241.728 
L 217.239412 295.488 
L 217.320617 268.608 
L 217.401821 295.488 
L 217.483025 268.608 
L 217.564229 187.968 
L 217.645434 214.848 
L 217.807842 268.608 
L 217.970251 268.608 
L 218.132659 295.488 
L 218.213863 295.488 
L 218.295068 268.608 
L 218.457476 295.488 
L 218.619884 295.488 
L 218.863497 214.848 
L 218.944701 268.608 
L 219.025906 241.728 
L 219.10711 268.608 
L 219.188314 241.728 
L 219.269518 295.488 
L 219.431927 241.728 
L 219.513131 295.488 
L 219.594335 241.728 
L 219.756744 295.488 
L 219.837948 268.608 
L 219.919152 295.488 
L 220.000357 187.968 
L 220.162765 268.608 
L 220.243969 268.608 
L 220.325173 214.848 
L 220.568786 268.608 
L 220.64999 268.608 
L 220.812399 295.488 
L 221.056012 241.728 
L 221.137216 295.488 
L 221.21842 214.848 
L 221.299624 295.488 
L 221.380829 268.608 
L 221.462033 241.728 
L 221.543237 295.488 
L 221.624441 268.608 
L 221.705646 295.488 
L 221.868054 268.608 
L 221.949258 295.488 
L 222.111667 268.608 
L 222.192871 295.488 
L 222.355279 268.608 
L 222.436484 268.608 
L 222.517688 214.848 
L 222.680096 268.608 
L 222.761301 214.848 
L 222.842505 295.488 
L 222.923709 241.728 
L 223.086118 295.488 
L 223.167322 295.488 
L 223.248526 241.728 
L 223.410935 295.488 
L 223.573343 268.608 
L 223.654547 295.488 
L 223.735752 214.848 
L 223.89816 295.488 
L 224.060568 268.608 
L 224.222977 268.608 
L 224.385385 295.488 
L 224.547794 268.608 
L 224.628998 295.488 
L 224.872611 214.848 
L 225.035019 295.488 
L 225.116224 241.728 
L 225.359836 295.488 
L 225.522245 268.608 
L 225.603449 268.608 
L 225.684653 295.488 
L 225.847062 268.608 
L 225.928266 268.608 
L 226.00947 295.488 
L 226.090674 268.608 
L 226.171879 295.488 
L 226.415491 241.728 
L 226.496696 295.488 
L 226.5779 214.848 
L 226.740308 295.488 
L 226.821513 268.608 
L 226.983921 295.488 
L 227.065125 268.608 
L 227.14633 295.488 
L 227.308738 268.608 
L 227.471146 295.488 
L 227.552351 268.608 
L 227.633555 295.488 
L 227.714759 268.608 
L 227.877168 295.488 
L 228.039576 268.608 
L 228.201985 295.488 
L 228.283189 268.608 
L 228.364393 295.488 
L 228.526802 241.728 
L 228.68921 268.608 
L 228.851619 268.608 
L 229.014027 295.488 
L 229.176435 268.608 
L 229.25764 295.488 
L 229.338844 241.728 
L 229.420048 295.488 
L 229.501252 241.728 
L 229.663661 268.608 
L 229.744865 268.608 
L 229.826069 295.488 
L 229.988478 241.728 
L 230.150886 295.488 
L 230.232091 295.488 
L 230.313295 268.608 
L 230.394499 295.488 
L 230.556908 268.608 
L 230.638112 295.488 
L 230.719316 268.608 
L 230.881724 295.488 
L 230.962929 268.608 
L 231.044133 295.488 
L 231.125337 268.608 
L 231.287746 295.488 
L 231.531358 241.728 
L 231.693767 241.728 
L 231.93738 295.488 
L 232.018584 268.608 
L 232.099788 295.488 
L 232.180992 241.728 
L 232.262197 268.608 
L 232.343401 241.728 
L 232.424605 295.488 
L 232.505809 214.848 
L 232.587014 295.488 
L 232.668218 268.608 
L 232.749422 268.608 
L 232.91183 295.488 
L 232.993035 268.608 
L 233.074239 295.488 
L 233.155443 214.848 
L 233.236647 295.488 
L 233.317852 268.608 
L 233.399056 214.848 
L 233.48026 295.488 
L 233.561464 241.728 
L 233.723873 295.488 
L 233.967486 295.488 
L 234.04869 268.608 
L 234.211098 295.488 
L 234.373507 268.608 
L 234.454711 268.608 
L 234.617119 295.488 
L 234.779528 241.728 
L 235.023141 295.488 
L 235.104345 295.488 
L 235.266753 241.728 
L 235.429162 295.488 
L 235.59157 241.728 
L 235.672775 295.488 
L 235.753979 241.728 
L 235.916387 295.488 
L 236.078796 214.848 
L 236.241204 268.608 
L 236.322408 268.608 
L 236.403613 295.488 
L 236.566021 241.728 
L 236.647225 295.488 
L 236.809634 241.728 
L 236.972042 295.488 
L 237.296859 295.488 
L 237.459268 268.608 
L 237.540472 268.608 
L 237.702881 214.848 
L 237.784085 268.608 
L 237.865289 241.728 
L 237.946493 268.608 
L 238.027697 214.848 
L 238.108902 295.488 
L 238.190106 268.608 
L 238.27131 268.608 
L 238.433719 295.488 
L 238.514923 241.728 
L 238.596127 268.608 
L 238.677331 241.728 
L 238.83974 268.608 
L 238.920944 214.848 
L 239.083353 268.608 
L 239.164557 295.488 
L 239.245761 268.608 
L 239.326965 187.968 
L 239.489374 295.488 
L 239.570578 241.728 
L 239.732986 295.488 
L 239.976599 241.728 
L 240.139008 295.488 
L 240.301416 295.488 
L 240.38262 268.608 
L 240.545029 295.488 
L 240.626233 295.488 
L 240.707437 268.608 
L 240.869846 295.488 
L 240.95105 295.488 
L 241.113459 241.728 
L 241.194663 241.728 
L 241.438276 295.488 
L 241.600684 187.968 
L 241.681888 295.488 
L 241.763092 268.608 
L 242.006705 268.608 
L 242.087909 295.488 
L 242.250318 268.608 
L 242.412726 268.608 
L 242.493931 295.488 
L 242.575135 214.848 
L 242.737543 268.608 
L 242.818748 295.488 
L 242.981156 268.608 
L 243.143565 295.488 
L 243.224769 268.608 
L 243.305973 295.488 
L 243.468381 268.608 
L 243.549586 268.608 
L 243.63079 295.488 
L 243.711994 268.608 
L 243.793198 295.488 
L 243.955607 268.608 
L 244.036811 295.488 
L 244.118015 268.608 
L 244.280424 295.488 
L 244.361628 241.728 
L 244.442832 268.608 
L 244.524037 187.968 
L 244.686445 295.488 
L 244.848854 268.608 
L 244.930058 268.608 
L 245.092466 295.488 
L 245.254875 295.488 
L 245.417283 241.728 
L 245.498487 214.848 
L 245.660896 241.728 
L 245.7421 241.728 
L 245.823304 268.608 
L 245.904509 241.728 
L 245.985713 295.488 
L 246.148121 241.728 
L 246.31053 295.488 
L 246.391734 268.608 
L 246.554143 295.488 
L 246.635347 268.608 
L 246.716551 187.968 
L 246.878959 295.488 
L 246.960164 268.608 
L 247.041368 295.488 
L 247.122572 268.608 
L 247.284981 295.488 
L 247.366185 268.608 
L 247.447389 295.488 
L 247.609798 214.848 
L 247.772206 295.488 
L 247.85341 295.488 
L 247.934615 268.608 
L 248.015819 295.488 
L 248.178227 268.608 
L 248.259432 268.608 
L 248.340636 295.488 
L 248.42184 241.728 
L 248.503044 295.488 
L 248.665453 268.608 
L 248.746657 295.488 
L 248.909065 268.608 
L 248.99027 295.488 
L 249.071474 268.608 
L 249.152678 295.488 
L 249.396291 241.728 
L 249.558699 295.488 
L 249.639904 268.608 
L 249.721108 295.488 
L 249.883516 268.608 
L 250.045925 295.488 
L 250.127129 295.488 
L 250.208333 268.608 
L 250.289537 295.488 
L 250.451946 241.728 
L 250.53315 268.608 
L 250.776763 214.848 
L 250.939171 295.488 
L 251.020376 241.728 
L 251.182784 295.488 
L 251.263988 241.728 
L 251.426397 268.608 
L 251.507601 268.608 
L 251.588805 295.488 
L 251.67001 268.608 
L 251.832418 295.488 
L 251.913622 268.608 
L 251.994827 295.488 
L 252.076031 214.848 
L 252.157235 295.488 
L 252.238439 268.608 
L 252.563256 268.608 
L 252.725665 295.488 
L 252.806869 268.608 
L 252.888073 295.488 
L 253.050482 268.608 
L 253.131686 268.608 
L 253.21289 241.728 
L 253.294094 295.488 
L 253.375299 241.728 
L 253.537707 295.488 
L 253.618911 268.608 
L 253.78132 295.488 
L 253.862524 295.488 
L 253.943728 268.608 
L 254.024932 295.488 
L 254.187341 268.608 
L 254.268545 268.608 
L 254.430954 241.728 
L 254.512158 241.728 
L 254.674566 295.488 
L 254.918179 241.728 
L 254.999383 268.608 
L 255.080588 241.728 
L 255.3242 295.488 
L 255.567813 295.488 
L 255.649017 268.608 
L 255.730221 295.488 
L 255.89263 241.728 
L 256.055038 268.608 
L 256.217447 268.608 
L 256.298651 295.488 
L 256.46106 268.608 
L 256.623468 268.608 
L 256.785877 295.488 
L 256.867081 295.488 
L 257.029489 268.608 
L 257.110694 268.608 
L 257.191898 241.728 
L 257.354306 268.608 
L 257.43551 268.608 
L 257.516715 241.728 
L 257.679123 295.488 
L 257.841532 268.608 
L 258.085144 268.608 
L 258.166349 214.848 
L 258.328757 268.608 
L 258.409961 268.608 
L 258.491166 295.488 
L 258.653574 241.728 
L 258.734778 268.608 
L 258.815983 214.848 
L 258.978391 295.488 
L 259.140799 295.488 
L 259.303208 268.608 
L 259.465616 268.608 
L 259.628025 295.488 
L 259.790433 295.488 
L 259.952842 241.728 
L 260.196455 295.488 
L 260.277659 268.608 
L 260.358863 295.488 
L 260.521272 268.608 
L 260.68368 295.488 
L 260.764884 214.848 
L 260.846088 241.728 
L 261.089701 295.488 
L 261.170905 214.848 
L 261.25211 241.728 
L 261.333314 295.488 
L 261.495722 268.608 
L 261.576927 268.608 
L 261.739335 295.488 
L 261.982948 295.488 
L 262.145356 268.608 
L 262.551378 268.608 
L 262.713786 295.488 
L 262.876194 268.608 
L 262.957399 295.488 
L 263.119807 268.608 
L 263.282216 268.608 
L 263.36342 295.488 
L 263.444624 268.608 
L 263.525828 295.488 
L 263.607033 268.608 
L 263.688237 295.488 
L 263.850645 268.608 
L 264.013054 295.488 
L 264.094258 295.488 
L 264.175462 241.728 
L 264.256667 295.488 
L 264.419075 241.728 
L 264.581483 268.608 
L 264.662688 268.608 
L 264.743892 295.488 
L 264.987505 214.848 
L 265.149913 241.728 
L 265.231117 241.728 
L 265.47473 295.488 
L 265.555934 295.488 
L 265.637139 241.728 
L 265.880751 295.488 
L 266.124364 241.728 
L 266.286772 295.488 
L 266.367977 268.608 
L 266.449181 295.488 
L 266.692794 241.728 
L 266.936406 295.488 
L 267.017611 295.488 
L 267.098815 268.608 
L 267.261223 295.488 
L 267.423632 268.608 
L 267.58604 295.488 
L 267.910857 295.488 
L 267.992061 214.848 
L 268.073266 295.488 
L 268.15447 268.608 
L 268.316878 295.488 
L 268.398083 295.488 
L 268.479287 241.728 
L 268.641695 295.488 
L 268.7229 268.608 
L 268.885308 295.488 
L 268.966512 295.488 
L 269.128921 268.608 
L 269.210125 295.488 
L 269.291329 268.608 
L 269.453738 295.488 
L 269.616146 268.608 
L 269.69735 268.608 
L 269.778555 295.488 
L 269.859759 214.848 
L 270.022167 295.488 
L 270.103372 268.608 
L 270.26578 295.488 
L 270.346984 295.488 
L 270.428189 241.728 
L 270.509393 268.608 
L 270.590597 241.728 
L 270.83421 295.488 
L 271.077823 295.488 
L 271.159027 268.608 
L 271.240231 295.488 
L 271.40264 268.608 
L 271.483844 295.488 
L 271.646252 241.728 
L 271.808661 268.608 
L 271.971069 268.608 
L 272.133478 295.488 
L 272.214682 295.488 
L 272.295886 268.608 
L 272.37709 295.488 
L 272.539499 268.608 
L 272.620703 268.608 
L 272.783112 295.488 
L 272.864316 295.488 
L 272.94552 214.848 
L 273.107929 268.608 
L 273.270337 268.608 
L 273.351541 295.488 
L 273.432745 268.608 
L 273.595154 295.488 
L 273.757562 241.728 
L 273.919971 295.488 
L 274.001175 268.608 
L 274.082379 295.488 
L 274.163584 241.728 
L 274.325992 268.608 
L 274.488401 268.608 
L 274.569605 295.488 
L 274.813218 214.848 
L 274.975626 295.488 
L 275.05683 241.728 
L 275.138034 268.608 
L 275.219239 241.728 
L 275.381647 295.488 
L 275.544056 214.848 
L 275.706464 295.488 
L 275.787668 295.488 
L 276.031281 241.728 
L 276.112485 295.488 
L 276.274894 268.608 
L 276.356098 295.488 
L 276.437302 268.608 
L 276.518507 295.488 
L 276.599711 268.608 
L 276.680915 295.488 
L 276.762119 268.608 
L 276.843323 295.488 
L 277.005732 268.608 
L 277.086936 295.488 
L 277.249345 268.608 
L 277.492957 268.608 
L 277.574162 241.728 
L 277.73657 268.608 
L 277.980183 268.608 
L 278.061387 295.488 
L 278.305 241.728 
L 278.386204 241.728 
L 278.467408 295.488 
L 278.629817 268.608 
L 278.792225 268.608 
L 278.954634 295.488 
L 279.035838 241.728 
L 279.117042 295.488 
L 279.198246 241.728 
L 279.279451 268.608 
L 279.360655 241.728 
L 279.523063 295.488 
L 279.766676 241.728 
L 279.929085 268.608 
L 280.010289 268.608 
L 280.172697 295.488 
L 280.335106 268.608 
L 280.41631 295.488 
L 280.578718 268.608 
L 280.659923 268.608 
L 280.822331 295.488 
L 280.98474 241.728 
L 281.065944 295.488 
L 281.228352 241.728 
L 281.390761 241.728 
L 281.471965 268.608 
L 281.553169 241.728 
L 281.634374 295.488 
L 281.796782 241.728 
L 281.877986 241.728 
L 281.959191 295.488 
L 282.121599 241.728 
L 282.202803 268.608 
L 282.284007 241.728 
L 282.365212 295.488 
L 282.446416 268.608 
L 282.52762 295.488 
L 282.690029 214.848 
L 282.852437 295.488 
L 282.933641 295.488 
L 283.09605 241.728 
L 283.177254 268.608 
L 283.258458 214.848 
L 283.420867 295.488 
L 283.502071 295.488 
L 283.66448 268.608 
L 283.745684 268.608 
L 283.826888 295.488 
L 284.151705 214.848 
L 284.232909 295.488 
L 284.314113 241.728 
L 284.476522 295.488 
L 284.63893 241.728 
L 284.801339 295.488 
L 284.963747 268.608 
L 285.044952 295.488 
L 285.126156 214.848 
L 285.288564 268.608 
L 285.369769 268.608 
L 285.532177 295.488 
L 285.613381 241.728 
L 285.694585 268.608 
L 285.856994 241.728 
L 285.938198 295.488 
L 286.100607 241.728 
L 286.263015 295.488 
L 286.425424 241.728 
L 286.669036 295.488 
L 286.750241 295.488 
L 286.912649 268.608 
L 286.993853 268.608 
L 287.075058 295.488 
L 287.237466 268.608 
L 287.31867 268.608 
L 287.399874 295.488 
L 287.562283 268.608 
L 287.724691 268.608 
L 287.805896 241.728 
L 287.8871 295.488 
L 288.049508 268.608 
L 288.211917 295.488 
L 288.293121 214.848 
L 288.45553 295.488 
L 288.617938 295.488 
L 288.780347 241.728 
L 289.023959 295.488 
L 289.186368 241.728 
L 289.267572 295.488 
L 289.42998 268.608 
L 289.592389 295.488 
L 289.754797 268.608 
L 289.836002 295.488 
L 289.917206 241.728 
L 290.160819 295.488 
L 290.242023 241.728 
L 290.485636 295.488 
L 290.648044 241.728 
L 290.810452 268.608 
L 290.891657 268.608 
L 290.972861 214.848 
L 291.135269 268.608 
L 291.216474 295.488 
L 291.378882 214.848 
L 291.541291 268.608 
L 291.622495 241.728 
L 291.784903 268.608 
L 291.947312 241.728 
L 292.028516 241.728 
L 292.10972 295.488 
L 292.272129 268.608 
L 292.353333 268.608 
L 292.434537 241.728 
L 292.67815 295.488 
L 292.840558 241.728 
L 293.002967 268.608 
L 293.084171 241.728 
L 293.165375 295.488 
L 293.327784 241.728 
L 293.571397 295.488 
L 293.652601 241.728 
L 293.815009 268.608 
L 293.896214 268.608 
L 294.058622 295.488 
L 294.221031 295.488 
L 294.383439 268.608 
L 294.545847 268.608 
L 294.627052 295.488 
L 294.708256 214.848 
L 294.870664 295.488 
L 295.033073 295.488 
L 295.276686 241.728 
L 295.520298 295.488 
L 295.682707 268.608 
L 295.763911 295.488 
L 295.845115 241.728 
L 295.92632 268.608 
L 296.007524 187.968 
L 296.169932 295.488 
L 296.251136 241.728 
L 296.332341 295.488 
L 296.413545 268.608 
L 296.494749 295.488 
L 296.657158 241.728 
L 296.738362 295.488 
L 296.90077 268.608 
L 296.981975 268.608 
L 297.063179 241.728 
L 297.144383 268.608 
L 297.306792 241.728 
L 297.4692 295.488 
L 297.631609 268.608 
L 297.712813 295.488 
L 297.875221 268.608 
L 298.03763 295.488 
L 298.200038 214.848 
L 298.281242 241.728 
L 298.524855 295.488 
L 298.606059 268.608 
L 298.768468 295.488 
L 298.849672 295.488 
L 298.930876 241.728 
L 299.012081 295.488 
L 299.093285 241.728 
L 299.255693 268.608 
L 299.499306 268.608 
L 299.58051 295.488 
L 299.742919 268.608 
L 299.824123 268.608 
L 299.986531 241.728 
L 300.067736 241.728 
L 300.311348 295.488 
L 300.392553 295.488 
L 300.554961 268.608 
L 300.636165 295.488 
L 300.798574 268.608 
L 300.879778 268.608 
L 300.960982 295.488 
L 301.042187 241.728 
L 301.123391 295.488 
L 301.204595 268.608 
L 301.367004 295.488 
L 301.448208 295.488 
L 301.529412 241.728 
L 301.773025 295.488 
L 301.935433 241.728 
L 302.097842 295.488 
L 302.26025 241.728 
L 302.422659 295.488 
L 302.666271 214.848 
L 302.82868 295.488 
L 302.909884 295.488 
L 302.991088 268.608 
L 303.153497 295.488 
L 303.315905 241.728 
L 303.397109 295.488 
L 303.478314 268.608 
L 303.559518 295.488 
L 303.640722 241.728 
L 303.721926 295.488 
L 303.884335 268.608 
L 303.965539 295.488 
L 304.046743 214.848 
L 304.127948 295.488 
L 304.209152 268.608 
L 304.37156 295.488 
L 304.452765 241.728 
L 304.615173 268.608 
L 304.696377 241.728 
L 304.777582 295.488 
L 304.93999 241.728 
L 305.021194 295.488 
L 305.102398 241.728 
L 305.346011 295.488 
L 305.427215 295.488 
L 305.589624 268.608 
L 305.995645 268.608 
L 306.076849 241.728 
L 306.239258 268.608 
L 306.401666 268.608 
L 306.564075 241.728 
L 306.726483 268.608 
L 306.807687 268.608 
L 306.970096 295.488 
L 307.132504 268.608 
L 307.213709 268.608 
L 307.294913 214.848 
L 307.457321 268.608 
L 307.782138 268.608 
L 307.863343 295.488 
L 307.944547 268.608 
L 308.025751 295.488 
L 308.106955 241.728 
L 308.350568 295.488 
L 308.431772 241.728 
L 308.512976 268.608 
L 308.594181 241.728 
L 308.837793 295.488 
L 309.000202 268.608 
L 309.406223 268.608 
L 309.487427 241.728 
L 309.649836 268.608 
L 309.73104 214.848 
L 309.893449 268.608 
L 310.218265 268.608 
L 310.380674 295.488 
L 310.461878 295.488 
L 310.543082 241.728 
L 310.624287 295.488 
L 310.705491 241.728 
L 310.867899 295.488 
L 310.949104 268.608 
L 311.030308 295.488 
L 311.111512 268.608 
L 311.273921 295.488 
L 311.355125 295.488 
L 311.517533 268.608 
L 311.598738 295.488 
L 311.679942 268.608 
L 311.84235 295.488 
L 312.004759 268.608 
L 312.085963 268.608 
L 312.248371 295.488 
L 312.41078 268.608 
L 312.491984 268.608 
L 312.654393 295.488 
L 312.816801 268.608 
L 313.060414 268.608 
L 313.141618 295.488 
L 313.304027 268.608 
L 313.547639 268.608 
L 313.710048 295.488 
L 313.791252 268.608 
L 313.95366 295.488 
L 314.034865 268.608 
L 314.116069 295.488 
L 314.278477 268.608 
L 314.440886 295.488 
L 314.52209 214.848 
L 314.603294 295.488 
L 314.684499 268.608 
L 314.765703 268.608 
L 314.846907 295.488 
L 315.009316 268.608 
L 315.252928 268.608 
L 315.334133 295.488 
L 315.496541 268.608 
L 315.577745 295.488 
L 315.658949 214.848 
L 315.821358 295.488 
L 315.983766 295.488 
L 316.227379 241.728 
L 316.308583 268.608 
L 316.389788 241.728 
L 316.552196 295.488 
L 316.714605 295.488 
L 316.795809 268.608 
L 316.958217 295.488 
L 317.120626 295.488 
L 317.20183 268.608 
L 317.364238 295.488 
L 317.445443 295.488 
L 317.526647 268.608 
L 317.607851 295.488 
L 317.689055 268.608 
L 317.851464 295.488 
L 318.013872 268.608 
L 318.095077 295.488 
L 318.257485 214.848 
L 318.338689 295.488 
L 318.419894 268.608 
L 318.501098 268.608 
L 318.663506 214.848 
L 318.825915 295.488 
L 318.988323 241.728 
L 319.150732 295.488 
L 319.31314 295.488 
L 319.394344 241.728 
L 319.637957 295.488 
L 319.800366 295.488 
L 319.962774 268.608 
L 320.043978 295.488 
L 320.206387 241.728 
L 320.368795 295.488 
L 320.45 241.728 
L 320.531204 268.608 
L 320.612408 187.968 
L 320.774816 268.608 
L 320.937225 268.608 
L 321.099633 295.488 
L 321.262042 241.728 
L 321.42445 295.488 
L 321.586859 268.608 
L 321.668063 268.608 
L 321.749267 241.728 
L 321.830472 295.488 
L 321.911676 268.608 
L 321.99288 295.488 
L 322.155289 214.848 
L 322.317697 295.488 
L 322.480106 268.608 
L 322.723718 268.608 
L 322.804922 295.488 
L 322.886127 268.608 
L 322.967331 295.488 
L 323.129739 241.728 
L 323.210944 295.488 
L 323.292148 268.608 
L 323.373352 295.488 
L 323.454556 268.608 
L 323.616965 295.488 
L 323.698169 268.608 
L 323.860578 295.488 
L 324.10419 241.728 
L 324.266599 295.488 
L 324.429007 214.848 
L 324.510211 295.488 
L 324.591416 268.608 
L 324.67262 268.608 
L 324.753824 295.488 
L 324.997437 241.728 
L 325.078641 241.728 
L 325.322254 295.488 
L 325.565867 295.488 
L 325.728275 268.608 
L 325.890684 295.488 
L 326.053092 241.728 
L 326.296705 295.488 
L 326.459113 268.608 
L 326.621522 268.608 
L 326.702726 241.728 
L 326.78393 295.488 
L 327.027543 241.728 
L 327.108747 268.608 
L 327.189951 241.728 
L 327.35236 295.488 
L 327.514768 268.608 
L 327.595973 295.488 
L 327.677177 268.608 
L 327.758381 295.488 
L 327.920789 268.608 
L 328.083198 295.488 
L 328.164402 295.488 
L 328.245606 241.728 
L 328.408015 295.488 
L 328.489219 295.488 
L 328.651628 241.728 
L 328.814036 268.608 
L 328.976445 268.608 
L 329.057649 241.728 
L 329.220057 268.608 
L 329.301262 241.728 
L 329.382466 295.488 
L 329.544874 241.728 
L 329.626078 295.488 
L 329.788487 214.848 
L 329.869691 295.488 
L 329.950895 268.608 
L 330.275712 268.608 
L 330.356917 241.728 
L 330.519325 295.488 
L 330.600529 268.608 
L 330.762938 295.488 
L 330.844142 241.728 
L 331.006551 295.488 
L 331.087755 268.608 
L 331.168959 295.488 
L 331.250163 241.728 
L 331.331368 295.488 
L 331.493776 268.608 
L 331.57498 295.488 
L 331.737389 268.608 
L 331.899797 295.488 
L 331.981001 241.728 
L 332.062206 295.488 
L 332.224614 268.608 
L 332.305818 268.608 
L 332.468227 295.488 
L 332.549431 295.488 
L 332.630635 241.728 
L 332.71184 295.488 
L 332.874248 241.728 
L 332.955452 268.608 
L 333.036657 241.728 
L 333.280269 295.488 
L 333.361473 268.608 
L 333.442678 295.488 
L 333.523882 241.728 
L 333.68629 268.608 
L 333.767495 268.608 
L 333.848699 295.488 
L 334.011107 268.608 
L 334.417129 268.608 
L 334.498333 295.488 
L 334.579537 241.728 
L 334.741946 268.608 
L 334.82315 268.608 
L 334.904354 295.488 
L 334.985558 268.608 
L 335.066762 295.488 
L 335.147967 268.608 
L 335.229171 295.488 
L 335.391579 268.608 
L 335.553988 268.608 
L 335.716396 295.488 
L 335.878805 268.608 
L 336.041213 268.608 
L 336.122418 241.728 
L 336.284826 295.488 
L 336.36603 241.728 
L 336.528439 295.488 
L 336.690847 268.608 
L 336.853256 295.488 
L 336.93446 268.608 
L 337.096868 295.488 
L 337.178073 295.488 
L 337.340481 268.608 
L 337.50289 268.608 
L 337.584094 295.488 
L 337.746502 241.728 
L 337.827707 295.488 
L 337.990115 241.728 
L 338.071319 295.488 
L 338.233728 268.608 
L 338.314932 268.608 
L 338.396136 295.488 
L 338.558545 268.608 
L 338.639749 268.608 
L 338.720953 295.488 
L 338.802157 241.728 
L 338.883362 295.488 
L 338.964566 268.608 
L 339.04577 295.488 
L 339.126974 241.728 
L 339.289383 295.488 
L 339.370587 268.608 
L 339.451791 295.488 
L 339.6142 268.608 
L 339.695404 295.488 
L 339.857813 268.608 
L 340.182629 268.608 
L 340.263834 295.488 
L 340.345038 268.608 
L 340.507446 295.488 
L 340.669855 214.848 
L 340.751059 295.488 
L 340.832263 268.608 
L 340.913468 268.608 
L 340.994672 295.488 
L 341.15708 268.608 
L 341.319489 268.608 
L 341.400693 295.488 
L 341.644306 241.728 
L 341.72551 295.488 
L 341.887919 268.608 
L 341.969123 268.608 
L 342.050327 214.848 
L 342.212735 295.488 
L 342.29394 268.608 
L 342.456348 295.488 
L 342.618757 214.848 
L 342.781165 295.488 
L 342.862369 295.488 
L 343.024778 214.848 
L 343.105982 241.728 
L 343.349595 295.488 
L 343.430799 295.488 
L 343.512003 241.728 
L 343.674412 295.488 
L 343.755616 214.848 
L 343.918024 295.488 
L 344.080433 268.608 
L 344.161637 295.488 
L 344.242841 241.728 
L 344.40525 295.488 
L 344.567658 241.728 
L 344.811271 295.488 
L 344.892475 268.608 
L 345.054884 295.488 
L 345.136088 268.608 
L 345.217292 295.488 
L 345.379701 268.608 
L 345.542109 295.488 
L 345.785722 187.968 
L 345.94813 295.488 
L 346.029335 268.608 
L 346.110539 295.488 
L 346.191743 268.608 
L 346.354152 295.488 
L 346.435356 241.728 
L 346.597764 295.488 
L 346.678969 295.488 
L 346.922581 241.728 
L 347.003786 295.488 
L 347.166194 268.608 
L 347.491011 268.608 
L 347.653419 295.488 
L 347.734624 241.728 
L 347.897032 295.488 
L 347.978236 295.488 
L 348.140645 268.608 
L 348.221849 295.488 
L 348.384258 268.608 
L 348.62787 268.608 
L 348.709075 295.488 
L 348.871483 214.848 
L 348.952687 295.488 
L 349.033891 268.608 
L 349.115096 268.608 
L 349.1963 295.488 
L 349.439913 214.848 
L 349.602321 295.488 
L 350.008342 295.488 
L 350.089547 241.728 
L 350.251955 268.608 
L 350.414364 241.728 
L 350.495568 295.488 
L 350.576772 268.608 
L 350.657976 295.488 
L 350.73918 214.848 
L 350.820385 295.488 
L 350.982793 241.728 
L 351.063997 295.488 
L 351.226406 268.608 
L 351.30761 295.488 
L 351.470019 268.608 
L 351.551223 268.608 
L 351.632427 295.488 
L 351.794836 268.608 
L 351.957244 295.488 
L 352.119653 295.488 
L 352.200857 214.848 
L 352.282061 268.608 
L 352.363265 241.728 
L 352.525674 295.488 
L 352.606878 295.488 
L 352.688082 268.608 
L 352.769286 295.488 
L 352.931695 268.608 
L 353.094103 268.608 
L 353.175308 295.488 
L 353.256512 241.728 
L 353.337716 295.488 
L 353.500125 268.608 
L 353.662533 295.488 
L 353.743737 241.728 
L 353.824942 295.488 
L 353.906146 268.608 
L 353.98735 295.488 
L 354.068554 241.728 
L 354.230963 295.488 
L 354.312167 241.728 
L 354.474575 295.488 
L 354.55578 241.728 
L 354.718188 295.488 
L 354.880597 295.488 
L 355.124209 241.728 
L 355.205414 295.488 
L 355.367822 268.608 
L 355.692639 268.608 
L 355.773843 214.848 
L 355.936252 268.608 
L 356.017456 214.848 
L 356.179864 295.488 
L 356.261069 295.488 
L 356.342273 214.848 
L 356.423477 295.488 
L 356.504681 241.728 
L 356.585886 295.488 
L 356.66709 241.728 
L 356.748294 268.608 
L 356.829498 214.848 
L 356.910703 268.608 
L 356.991907 241.728 
L 357.073111 295.488 
L 357.23552 268.608 
L 357.316724 268.608 
L 357.479132 241.728 
L 357.560337 268.608 
L 357.722745 241.728 
L 357.803949 241.728 
L 358.047562 295.488 
L 358.20997 241.728 
L 358.372379 295.488 
L 358.534787 241.728 
L 358.615992 241.728 
L 358.697196 214.848 
L 358.7784 295.488 
L 358.859604 241.728 
L 358.940809 295.488 
L 359.022013 241.728 
L 359.184421 295.488 
L 359.34683 268.608 
L 359.428034 268.608 
L 359.509238 295.488 
L 359.590442 268.608 
L 359.671647 295.488 
L 359.752851 268.608 
L 359.915259 295.488 
L 359.996464 268.608 
L 360.077668 295.488 
L 360.158872 268.608 
L 360.240076 295.488 
L 360.402485 187.968 
L 360.564893 295.488 
L 360.808506 241.728 
L 360.88971 241.728 
L 361.133323 295.488 
L 361.214527 295.488 
L 361.45814 241.728 
L 361.620548 268.608 
L 361.701753 268.608 
L 361.864161 295.488 
L 361.945365 295.488 
L 362.107774 241.728 
L 362.270182 295.488 
L 362.351387 241.728 
L 362.513795 268.608 
L 362.594999 268.608 
L 362.676204 241.728 
L 362.838612 295.488 
L 362.919816 214.848 
L 363.001021 241.728 
L 363.082225 295.488 
L 363.163429 241.728 
L 363.325837 295.488 
L 363.407042 268.608 
L 363.488246 295.488 
L 363.650654 268.608 
L 363.975471 268.608 
L 364.13788 295.488 
L 364.219084 241.728 
L 364.381493 295.488 
L 364.462697 241.728 
L 364.625105 295.488 
L 364.787514 268.608 
L 364.949922 295.488 
L 365.031126 268.608 
L 365.193535 295.488 
L 365.274739 268.608 
L 365.355943 295.488 
L 365.437148 241.728 
L 365.68076 295.488 
L 365.843169 295.488 
L 366.005577 268.608 
L 366.167986 268.608 
L 366.24919 241.728 
L 366.330394 295.488 
L 366.492803 241.728 
L 366.655211 295.488 
L 366.736415 268.608 
L 366.898824 295.488 
L 366.980028 268.608 
L 367.061232 295.488 
L 367.142437 268.608 
L 367.223641 295.488 
L 367.304845 268.608 
L 367.467254 295.488 
L 367.548458 241.728 
L 367.629662 295.488 
L 367.710866 268.608 
L 367.792071 295.488 
L 367.873275 241.728 
L 368.035683 268.608 
L 368.116888 268.608 
L 368.198092 241.728 
L 368.441704 295.488 
L 368.522909 268.608 
L 368.604113 295.488 
L 368.685317 241.728 
L 368.766521 295.488 
L 368.847726 241.728 
L 368.92893 295.488 
L 369.091338 241.728 
L 369.172543 295.488 
L 369.253747 268.608 
L 369.334951 295.488 
L 369.578564 241.728 
L 369.740972 268.608 
L 369.822177 241.728 
L 369.984585 295.488 
L 370.228198 241.728 
L 370.309402 268.608 
L 370.390606 241.728 
L 370.47181 295.488 
L 370.553015 241.728 
L 370.634219 295.488 
L 370.796627 268.608 
L 370.877832 295.488 
L 371.04024 214.848 
L 371.202649 268.608 
L 371.283853 187.968 
L 371.446261 295.488 
L 371.527466 241.728 
L 371.689874 295.488 
L 371.933487 241.728 
L 372.014691 295.488 
L 372.177099 241.728 
L 372.339508 295.488 
L 372.420712 295.488 
L 372.501916 241.728 
L 372.664325 295.488 
L 372.745529 295.488 
L 372.907938 268.608 
L 372.989142 295.488 
L 373.070346 241.728 
L 373.15155 295.488 
L 373.232755 268.608 
L 373.313959 295.488 
L 373.476367 268.608 
L 373.71998 268.608 
L 373.801184 295.488 
L 373.882388 241.728 
L 374.044797 268.608 
L 374.126001 214.848 
L 374.207205 295.488 
L 374.28841 268.608 
L 374.450818 295.488 
L 374.532022 295.488 
L 374.694431 241.728 
L 374.938044 295.488 
L 375.019248 295.488 
L 375.100452 268.608 
L 375.181656 295.488 
L 375.344065 241.728 
L 375.425269 295.488 
L 375.506473 241.728 
L 375.668882 295.488 
L 375.83129 268.608 
L 375.912494 295.488 
L 376.156107 214.848 
L 376.237311 295.488 
L 376.318516 241.728 
L 376.39972 295.488 
L 376.480924 268.608 
L 376.562128 295.488 
L 376.724537 268.608 
L 376.805741 268.608 
L 376.96815 295.488 
L 377.049354 241.728 
L 377.292966 295.488 
L 377.455375 241.728 
L 377.617783 295.488 
L 377.698988 241.728 
L 377.861396 295.488 
L 378.023805 214.848 
L 378.105009 241.728 
L 378.267417 295.488 
L 378.348622 241.728 
L 378.51103 295.488 
L 378.592234 214.848 
L 378.754643 295.488 
L 378.835847 268.608 
L 378.917051 295.488 
L 379.07946 268.608 
L 379.160664 268.608 
L 379.241868 241.728 
L 379.323072 268.608 
L 379.485481 241.728 
L 379.566685 241.728 
L 379.729094 295.488 
L 379.891502 268.608 
L 379.972706 268.608 
L 380.053911 295.488 
L 380.216319 241.728 
L 380.297523 241.728 
L 380.378728 295.488 
L 380.459932 241.728 
L 380.62234 295.488 
L 380.784749 295.488 
L 380.865953 268.608 
L 381.028361 295.488 
L 381.109566 268.608 
L 381.19077 295.488 
L 381.353178 268.608 
L 381.434383 295.488 
L 381.596791 268.608 
L 381.677995 295.488 
L 381.7592 214.848 
L 381.921608 295.488 
L 382.002812 214.848 
L 382.084017 295.488 
L 382.165221 268.608 
L 382.327629 295.488 
L 382.490038 268.608 
L 382.571242 268.608 
L 382.652446 241.728 
L 382.73365 295.488 
L 382.814855 268.608 
L 382.896059 295.488 
L 383.058467 268.608 
L 383.139672 295.488 
L 383.30208 241.728 
L 383.383284 295.488 
L 383.545693 241.728 
L 383.626897 214.848 
L 383.789306 295.488 
L 383.951714 241.728 
L 384.114123 295.488 
L 384.276531 268.608 
L 384.357735 268.608 
L 384.520144 295.488 
L 384.601348 268.608 
L 384.682552 295.488 
L 384.763756 241.728 
L 384.844961 268.608 
L 384.926165 241.728 
L 385.007369 295.488 
L 385.169778 241.728 
L 385.332186 268.608 
L 385.494595 241.728 
L 385.575799 268.608 
L 385.657003 241.728 
L 385.819412 295.488 
L 385.900616 295.488 
L 385.98182 241.728 
L 386.144228 295.488 
L 386.225433 295.488 
L 386.306637 214.848 
L 386.469045 268.608 
L 386.631454 295.488 
L 386.793862 268.608 
L 386.956271 268.608 
L 387.037475 241.728 
L 387.199884 295.488 
L 387.362292 268.608 
L 387.443496 295.488 
L 387.524701 268.608 
L 387.687109 295.488 
L 387.768313 214.848 
L 387.849517 241.728 
L 388.011926 268.608 
L 388.09313 268.608 
L 388.255539 241.728 
L 388.417947 268.608 
L 388.499151 241.728 
L 388.742764 295.488 
L 388.823968 241.728 
L 388.986377 295.488 
L 389.067581 268.608 
L 389.148785 295.488 
L 389.22999 268.608 
L 389.311194 295.488 
L 389.473602 241.728 
L 389.636011 295.488 
L 389.879623 241.728 
L 390.042032 295.488 
L 390.123236 241.728 
L 390.366849 295.488 
L 390.448053 268.608 
L 390.610462 295.488 
L 390.691666 268.608 
L 390.854074 295.488 
L 390.935279 241.728 
L 391.016483 295.488 
L 391.097687 241.728 
L 391.3413 295.488 
L 391.422504 241.728 
L 391.584912 295.488 
L 391.747321 295.488 
L 391.990934 241.728 
L 392.153342 268.608 
L 392.234546 268.608 
L 392.315751 295.488 
L 392.478159 241.728 
L 392.559363 295.488 
L 392.721772 241.728 
L 392.802976 295.488 
L 392.965385 268.608 
L 393.046589 295.488 
L 393.208997 268.608 
L 393.290201 295.488 
L 393.371406 268.608 
L 393.533814 295.488 
L 393.615018 268.608 
L 393.696223 187.968 
L 393.858631 295.488 
L 394.02104 268.608 
L 394.102244 268.608 
L 394.183448 295.488 
L 394.264652 241.728 
L 394.508265 295.488 
L 394.589469 241.728 
L 394.751878 295.488 
L 394.914286 268.608 
L 394.99549 295.488 
L 395.076695 241.728 
L 395.239103 295.488 
L 395.320307 241.728 
L 395.482716 268.608 
L 395.56392 268.608 
L 395.726329 214.848 
L 395.888737 295.488 
L 395.969941 268.608 
L 396.051146 268.608 
L 396.13235 241.728 
L 396.213554 295.488 
L 396.375963 214.848 
L 396.457167 295.488 
L 396.538371 268.608 
L 396.619575 268.608 
L 396.700779 295.488 
L 396.781984 241.728 
L 396.863188 295.488 
L 396.944392 214.848 
L 397.106801 295.488 
L 397.269209 268.608 
L 397.431618 268.608 
L 397.512822 214.848 
L 397.594026 295.488 
L 397.67523 268.608 
L 397.837639 268.608 
L 397.918843 295.488 
L 398.000047 241.728 
L 398.162456 295.488 
L 398.24366 241.728 
L 398.324864 295.488 
L 398.406068 241.728 
L 398.487273 268.608 
L 398.487273 268.608 
" clip-path="url(#p96b81c3606)" style="fill: none; stroke: #1f77b4; stroke-width: 1.5; stroke-linecap: square"/>
   </g>
   <g id="patch_3">
    <path d="M 57.6 307.584 
L 57.6 41.472 
" style="fill: none; stroke: #000000; stroke-width: 0.8; stroke-linejoin: miter; stroke-linecap: square"/>
   </g>
   <g id="patch_4">
    <path d="M 414.72 307.584 
L 414.72 41.472 
" style="fill: none; stroke: #000000; stroke-width: 0.8; stroke-linejoin: miter; stroke-linecap: square"/>
   </g>
   <g id="patch_5">
    <path d="M 57.6 307.584 
L 414.72 307.584 
" style="fill: none; stroke: #000000; stroke-width: 0.8; stroke-linejoin: miter; stroke-linecap: square"/>
   </g>
   <g id="patch_6">
    <path d="M 57.6 41.472 
L 414.72 41.472 
" style="fill: none; stroke: #000000; stroke-width: 0.8; stroke-linejoin: miter; stroke-linecap: square"/>
   </g>
   <g id="text_17">
    <!-- Training progress -->
    <g transform="translate(184.686563 35.472) scale(0.12 -0.12)">
     <defs>
      <path id="DejaVuSans-54" d="M -19 4666 
L 3928 4666 
L 3928 4134 
L 2272 4134 
L 2272 0 
L 1638 0 
L 1638 4134 
L -19 4134 
L -19 4666 
z
" transform="scale(0.015625)"/>
     </defs>
     <use xlink:href="#DejaVuSans-54"/>
     <use xlink:href="#DejaVuSans-72" x="46.333984"/>
     <use xlink:href="#DejaVuSans-61" x="87.447266"/>
     <use xlink:href="#DejaVuSans-69" x="148.726562"/>
     <use xlink:href="#DejaVuSans-6e" x="176.509766"/>
     <use xlink:href="#DejaVuSans-69" x="239.888672"/>
     <use xlink:href="#DejaVuSans-6e" x="267.671875"/>
     <use xlink:href="#DejaVuSans-67" x="331.050781"/>
     <use xlink:href="#DejaVuSans-20" x="394.527344"/>
     <use xlink:href="#DejaVuSans-70" x="426.314453"/>
     <use xlink:href="#DejaVuSans-72" x="489.791016"/>
     <use xlink:href="#DejaVuSans-6f" x="528.654297"/>
     <use xlink:href="#DejaVuSans-67" x="589.835938"/>
     <use xlink:href="#DejaVuSans-72" x="653.3125"/>
     <use xlink:href="#DejaVuSans-65" x="692.175781"/>
     <use xlink:href="#DejaVuSans-73" x="753.699219"/>
     <use xlink:href="#DejaVuSans-73" x="805.798828"/>
    </g>
   </g>
  </g>
 </g>
 <defs>
  <clipPath id="p96b81c3606">
   <rect x="57.6" y="41.472" width="357.12" height="266.112"/>
  </clipPath>
 </defs>
</svg>
