<?xml version="1.0" encoding="utf-8" standalone="no"?>
<!DOCTYPE svg PUBLIC "-//W3C//DTD SVG 1.1//EN"
  "http://www.w3.org/Graphics/SVG/1.1/DTD/svg11.dtd">
<svg xmlns:xlink="http://www.w3.org/1999/xlink" width="460.8pt" height="345.6pt" viewBox="0 0 460.8 345.6" xmlns="http://www.w3.org/2000/svg" version="1.1">
 <metadata>
  <rdf:RDF xmlns:dc="http://purl.org/dc/elements/1.1/" xmlns:cc="http://creativecommons.org/ns#" xmlns:rdf="http://www.w3.org/1999/02/22-rdf-syntax-ns#">
   <cc:Work>
    <dc:type rdf:resource="http://purl.org/dc/dcmitype/StillImage"/>
    <dc:date>2023-05-03T18:35:02.170771</dc:date>
    <dc:format>image/svg+xml</dc:format>
    <dc:creator>
     <cc:Agent>
      <dc:title>Matplotlib v3.6.2, https://matplotlib.org/</dc:title>
     </cc:Agent>
    </dc:creator>
   </cc:Work>
  </rdf:RDF>
 </metadata>
 <defs>
  <style type="text/css">*{stroke-linejoin: round; stroke-linecap: butt}</style>
 </defs>
 <g id="figure_1">
  <g id="patch_1">
   <path d="M 0 345.6 
L 460.8 345.6 
L 460.8 0 
L 0 0 
z
" style="fill: #ffffff"/>
  </g>
  <g id="axes_1">
   <g id="patch_2">
    <path d="M 57.6 307.584 
L 414.72 307.584 
L 414.72 41.472 
L 57.6 41.472 
z
" style="fill: #ffffff"/>
   </g>
   <g id="matplotlib.axis_1">
    <g id="xtick_1">
     <g id="line2d_1">
      <defs>
       <path id="m4b0efd4c4e" d="M 0 0 
L 0 3.5 
" style="stroke: #000000; stroke-width: 0.8"/>
      </defs>
      <g>
       <use xlink:href="#m4b0efd4c4e" x="73.832727" y="307.584" style="stroke: #000000; stroke-width: 0.8"/>
      </g>
     </g>
     <g id="text_1">
      <!-- 0 -->
      <g transform="translate(70.651477 322.182437) scale(0.1 -0.1)">
       <defs>
        <path id="DejaVuSans-30" d="M 2034 4250 
Q 1547 4250 1301 3770 
Q 1056 3291 1056 2328 
Q 1056 1369 1301 889 
Q 1547 409 2034 409 
Q 2525 409 2770 889 
Q 3016 1369 3016 2328 
Q 3016 3291 2770 3770 
Q 2525 4250 2034 4250 
z
M 2034 4750 
Q 2819 4750 3233 4129 
Q 3647 3509 3647 2328 
Q 3647 1150 3233 529 
Q 2819 -91 2034 -91 
Q 1250 -91 836 529 
Q 422 1150 422 2328 
Q 422 3509 836 4129 
Q 1250 4750 2034 4750 
z
" transform="scale(0.015625)"/>
       </defs>
       <use xlink:href="#DejaVuSans-30"/>
      </g>
     </g>
    </g>
    <g id="xtick_2">
     <g id="line2d_2">
      <g>
       <use xlink:href="#m4b0efd4c4e" x="114.424693" y="307.584" style="stroke: #000000; stroke-width: 0.8"/>
      </g>
     </g>
     <g id="text_2">
      <!-- 500 -->
      <g transform="translate(104.880943 322.182437) scale(0.1 -0.1)">
       <defs>
        <path id="DejaVuSans-35" d="M 691 4666 
L 3169 4666 
L 3169 4134 
L 1269 4134 
L 1269 2991 
Q 1406 3038 1543 3061 
Q 1681 3084 1819 3084 
Q 2600 3084 3056 2656 
Q 3513 2228 3513 1497 
Q 3513 744 3044 326 
Q 2575 -91 1722 -91 
Q 1428 -91 1123 -41 
Q 819 9 494 109 
L 494 744 
Q 775 591 1075 516 
Q 1375 441 1709 441 
Q 2250 441 2565 725 
Q 2881 1009 2881 1497 
Q 2881 1984 2565 2268 
Q 2250 2553 1709 2553 
Q 1456 2553 1204 2497 
Q 953 2441 691 2322 
L 691 4666 
z
" transform="scale(0.015625)"/>
       </defs>
       <use xlink:href="#DejaVuSans-35"/>
       <use xlink:href="#DejaVuSans-30" x="63.623047"/>
       <use xlink:href="#DejaVuSans-30" x="127.246094"/>
      </g>
     </g>
    </g>
    <g id="xtick_3">
     <g id="line2d_3">
      <g>
       <use xlink:href="#m4b0efd4c4e" x="155.01666" y="307.584" style="stroke: #000000; stroke-width: 0.8"/>
      </g>
     </g>
     <g id="text_3">
      <!-- 1000 -->
      <g transform="translate(142.29166 322.182437) scale(0.1 -0.1)">
       <defs>
        <path id="DejaVuSans-31" d="M 794 531 
L 1825 531 
L 1825 4091 
L 703 3866 
L 703 4441 
L 1819 4666 
L 2450 4666 
L 2450 531 
L 3481 531 
L 3481 0 
L 794 0 
L 794 531 
z
" transform="scale(0.015625)"/>
       </defs>
       <use xlink:href="#DejaVuSans-31"/>
       <use xlink:href="#DejaVuSans-30" x="63.623047"/>
       <use xlink:href="#DejaVuSans-30" x="127.246094"/>
       <use xlink:href="#DejaVuSans-30" x="190.869141"/>
      </g>
     </g>
    </g>
    <g id="xtick_4">
     <g id="line2d_4">
      <g>
       <use xlink:href="#m4b0efd4c4e" x="195.608626" y="307.584" style="stroke: #000000; stroke-width: 0.8"/>
      </g>
     </g>
     <g id="text_4">
      <!-- 1500 -->
      <g transform="translate(182.883626 322.182437) scale(0.1 -0.1)">
       <use xlink:href="#DejaVuSans-31"/>
       <use xlink:href="#DejaVuSans-35" x="63.623047"/>
       <use xlink:href="#DejaVuSans-30" x="127.246094"/>
       <use xlink:href="#DejaVuSans-30" x="190.869141"/>
      </g>
     </g>
    </g>
    <g id="xtick_5">
     <g id="line2d_5">
      <g>
       <use xlink:href="#m4b0efd4c4e" x="236.200592" y="307.584" style="stroke: #000000; stroke-width: 0.8"/>
      </g>
     </g>
     <g id="text_5">
      <!-- 2000 -->
      <g transform="translate(223.475592 322.182437) scale(0.1 -0.1)">
       <defs>
        <path id="DejaVuSans-32" d="M 1228 531 
L 3431 531 
L 3431 0 
L 469 0 
L 469 531 
Q 828 903 1448 1529 
Q 2069 2156 2228 2338 
Q 2531 2678 2651 2914 
Q 2772 3150 2772 3378 
Q 2772 3750 2511 3984 
Q 2250 4219 1831 4219 
Q 1534 4219 1204 4116 
Q 875 4013 500 3803 
L 500 4441 
Q 881 4594 1212 4672 
Q 1544 4750 1819 4750 
Q 2544 4750 2975 4387 
Q 3406 4025 3406 3419 
Q 3406 3131 3298 2873 
Q 3191 2616 2906 2266 
Q 2828 2175 2409 1742 
Q 1991 1309 1228 531 
z
" transform="scale(0.015625)"/>
       </defs>
       <use xlink:href="#DejaVuSans-32"/>
       <use xlink:href="#DejaVuSans-30" x="63.623047"/>
       <use xlink:href="#DejaVuSans-30" x="127.246094"/>
       <use xlink:href="#DejaVuSans-30" x="190.869141"/>
      </g>
     </g>
    </g>
    <g id="xtick_6">
     <g id="line2d_6">
      <g>
       <use xlink:href="#m4b0efd4c4e" x="276.792558" y="307.584" style="stroke: #000000; stroke-width: 0.8"/>
      </g>
     </g>
     <g id="text_6">
      <!-- 2500 -->
      <g transform="translate(264.067558 322.182437) scale(0.1 -0.1)">
       <use xlink:href="#DejaVuSans-32"/>
       <use xlink:href="#DejaVuSans-35" x="63.623047"/>
       <use xlink:href="#DejaVuSans-30" x="127.246094"/>
       <use xlink:href="#DejaVuSans-30" x="190.869141"/>
      </g>
     </g>
    </g>
    <g id="xtick_7">
     <g id="line2d_7">
      <g>
       <use xlink:href="#m4b0efd4c4e" x="317.384524" y="307.584" style="stroke: #000000; stroke-width: 0.8"/>
      </g>
     </g>
     <g id="text_7">
      <!-- 3000 -->
      <g transform="translate(304.659524 322.182437) scale(0.1 -0.1)">
       <defs>
        <path id="DejaVuSans-33" d="M 2597 2516 
Q 3050 2419 3304 2112 
Q 3559 1806 3559 1356 
Q 3559 666 3084 287 
Q 2609 -91 1734 -91 
Q 1441 -91 1130 -33 
Q 819 25 488 141 
L 488 750 
Q 750 597 1062 519 
Q 1375 441 1716 441 
Q 2309 441 2620 675 
Q 2931 909 2931 1356 
Q 2931 1769 2642 2001 
Q 2353 2234 1838 2234 
L 1294 2234 
L 1294 2753 
L 1863 2753 
Q 2328 2753 2575 2939 
Q 2822 3125 2822 3475 
Q 2822 3834 2567 4026 
Q 2313 4219 1838 4219 
Q 1578 4219 1281 4162 
Q 984 4106 628 3988 
L 628 4550 
Q 988 4650 1302 4700 
Q 1616 4750 1894 4750 
Q 2613 4750 3031 4423 
Q 3450 4097 3450 3541 
Q 3450 3153 3228 2886 
Q 3006 2619 2597 2516 
z
" transform="scale(0.015625)"/>
       </defs>
       <use xlink:href="#DejaVuSans-33"/>
       <use xlink:href="#DejaVuSans-30" x="63.623047"/>
       <use xlink:href="#DejaVuSans-30" x="127.246094"/>
       <use xlink:href="#DejaVuSans-30" x="190.869141"/>
      </g>
     </g>
    </g>
    <g id="xtick_8">
     <g id="line2d_8">
      <g>
       <use xlink:href="#m4b0efd4c4e" x="357.97649" y="307.584" style="stroke: #000000; stroke-width: 0.8"/>
      </g>
     </g>
     <g id="text_8">
      <!-- 3500 -->
      <g transform="translate(345.25149 322.182437) scale(0.1 -0.1)">
       <use xlink:href="#DejaVuSans-33"/>
       <use xlink:href="#DejaVuSans-35" x="63.623047"/>
       <use xlink:href="#DejaVuSans-30" x="127.246094"/>
       <use xlink:href="#DejaVuSans-30" x="190.869141"/>
      </g>
     </g>
    </g>
    <g id="xtick_9">
     <g id="line2d_9">
      <g>
       <use xlink:href="#m4b0efd4c4e" x="398.568457" y="307.584" style="stroke: #000000; stroke-width: 0.8"/>
      </g>
     </g>
     <g id="text_9">
      <!-- 4000 -->
      <g transform="translate(385.843457 322.182437) scale(0.1 -0.1)">
       <defs>
        <path id="DejaVuSans-34" d="M 2419 4116 
L 825 1625 
L 2419 1625 
L 2419 4116 
z
M 2253 4666 
L 3047 4666 
L 3047 1625 
L 3713 1625 
L 3713 1100 
L 3047 1100 
L 3047 0 
L 2419 0 
L 2419 1100 
L 313 1100 
L 313 1709 
L 2253 4666 
z
" transform="scale(0.015625)"/>
       </defs>
       <use xlink:href="#DejaVuSans-34"/>
       <use xlink:href="#DejaVuSans-30" x="63.623047"/>
       <use xlink:href="#DejaVuSans-30" x="127.246094"/>
       <use xlink:href="#DejaVuSans-30" x="190.869141"/>
      </g>
     </g>
    </g>
    <g id="text_10">
     <!-- Image shown -->
     <g transform="translate(202.820156 335.860562) scale(0.1 -0.1)">
      <defs>
       <path id="DejaVuSans-49" d="M 628 4666 
L 1259 4666 
L 1259 0 
L 628 0 
L 628 4666 
z
" transform="scale(0.015625)"/>
       <path id="DejaVuSans-6d" d="M 3328 2828 
Q 3544 3216 3844 3400 
Q 4144 3584 4550 3584 
Q 5097 3584 5394 3201 
Q 5691 2819 5691 2113 
L 5691 0 
L 5113 0 
L 5113 2094 
Q 5113 2597 4934 2840 
Q 4756 3084 4391 3084 
Q 3944 3084 3684 2787 
Q 3425 2491 3425 1978 
L 3425 0 
L 2847 0 
L 2847 2094 
Q 2847 2600 2669 2842 
Q 2491 3084 2119 3084 
Q 1678 3084 1418 2786 
Q 1159 2488 1159 1978 
L 1159 0 
L 581 0 
L 581 3500 
L 1159 3500 
L 1159 2956 
Q 1356 3278 1631 3431 
Q 1906 3584 2284 3584 
Q 2666 3584 2933 3390 
Q 3200 3197 3328 2828 
z
" transform="scale(0.015625)"/>
       <path id="DejaVuSans-61" d="M 2194 1759 
Q 1497 1759 1228 1600 
Q 959 1441 959 1056 
Q 959 750 1161 570 
Q 1363 391 1709 391 
Q 2188 391 2477 730 
Q 2766 1069 2766 1631 
L 2766 1759 
L 2194 1759 
z
M 3341 1997 
L 3341 0 
L 2766 0 
L 2766 531 
Q 2569 213 2275 61 
Q 1981 -91 1556 -91 
Q 1019 -91 701 211 
Q 384 513 384 1019 
Q 384 1609 779 1909 
Q 1175 2209 1959 2209 
L 2766 2209 
L 2766 2266 
Q 2766 2663 2505 2880 
Q 2244 3097 1772 3097 
Q 1472 3097 1187 3025 
Q 903 2953 641 2809 
L 641 3341 
Q 956 3463 1253 3523 
Q 1550 3584 1831 3584 
Q 2591 3584 2966 3190 
Q 3341 2797 3341 1997 
z
" transform="scale(0.015625)"/>
       <path id="DejaVuSans-67" d="M 2906 1791 
Q 2906 2416 2648 2759 
Q 2391 3103 1925 3103 
Q 1463 3103 1205 2759 
Q 947 2416 947 1791 
Q 947 1169 1205 825 
Q 1463 481 1925 481 
Q 2391 481 2648 825 
Q 2906 1169 2906 1791 
z
M 3481 434 
Q 3481 -459 3084 -895 
Q 2688 -1331 1869 -1331 
Q 1566 -1331 1297 -1286 
Q 1028 -1241 775 -1147 
L 775 -588 
Q 1028 -725 1275 -790 
Q 1522 -856 1778 -856 
Q 2344 -856 2625 -561 
Q 2906 -266 2906 331 
L 2906 616 
Q 2728 306 2450 153 
Q 2172 0 1784 0 
Q 1141 0 747 490 
Q 353 981 353 1791 
Q 353 2603 747 3093 
Q 1141 3584 1784 3584 
Q 2172 3584 2450 3431 
Q 2728 3278 2906 2969 
L 2906 3500 
L 3481 3500 
L 3481 434 
z
" transform="scale(0.015625)"/>
       <path id="DejaVuSans-65" d="M 3597 1894 
L 3597 1613 
L 953 1613 
Q 991 1019 1311 708 
Q 1631 397 2203 397 
Q 2534 397 2845 478 
Q 3156 559 3463 722 
L 3463 178 
Q 3153 47 2828 -22 
Q 2503 -91 2169 -91 
Q 1331 -91 842 396 
Q 353 884 353 1716 
Q 353 2575 817 3079 
Q 1281 3584 2069 3584 
Q 2775 3584 3186 3129 
Q 3597 2675 3597 1894 
z
M 3022 2063 
Q 3016 2534 2758 2815 
Q 2500 3097 2075 3097 
Q 1594 3097 1305 2825 
Q 1016 2553 972 2059 
L 3022 2063 
z
" transform="scale(0.015625)"/>
       <path id="DejaVuSans-20" transform="scale(0.015625)"/>
       <path id="DejaVuSans-73" d="M 2834 3397 
L 2834 2853 
Q 2591 2978 2328 3040 
Q 2066 3103 1784 3103 
Q 1356 3103 1142 2972 
Q 928 2841 928 2578 
Q 928 2378 1081 2264 
Q 1234 2150 1697 2047 
L 1894 2003 
Q 2506 1872 2764 1633 
Q 3022 1394 3022 966 
Q 3022 478 2636 193 
Q 2250 -91 1575 -91 
Q 1294 -91 989 -36 
Q 684 19 347 128 
L 347 722 
Q 666 556 975 473 
Q 1284 391 1588 391 
Q 1994 391 2212 530 
Q 2431 669 2431 922 
Q 2431 1156 2273 1281 
Q 2116 1406 1581 1522 
L 1381 1569 
Q 847 1681 609 1914 
Q 372 2147 372 2553 
Q 372 3047 722 3315 
Q 1072 3584 1716 3584 
Q 2034 3584 2315 3537 
Q 2597 3491 2834 3397 
z
" transform="scale(0.015625)"/>
       <path id="DejaVuSans-68" d="M 3513 2113 
L 3513 0 
L 2938 0 
L 2938 2094 
Q 2938 2591 2744 2837 
Q 2550 3084 2163 3084 
Q 1697 3084 1428 2787 
Q 1159 2491 1159 1978 
L 1159 0 
L 581 0 
L 581 4863 
L 1159 4863 
L 1159 2956 
Q 1366 3272 1645 3428 
Q 1925 3584 2291 3584 
Q 2894 3584 3203 3211 
Q 3513 2838 3513 2113 
z
" transform="scale(0.015625)"/>
       <path id="DejaVuSans-6f" d="M 1959 3097 
Q 1497 3097 1228 2736 
Q 959 2375 959 1747 
Q 959 1119 1226 758 
Q 1494 397 1959 397 
Q 2419 397 2687 759 
Q 2956 1122 2956 1747 
Q 2956 2369 2687 2733 
Q 2419 3097 1959 3097 
z
M 1959 3584 
Q 2709 3584 3137 3096 
Q 3566 2609 3566 1747 
Q 3566 888 3137 398 
Q 2709 -91 1959 -91 
Q 1206 -91 779 398 
Q 353 888 353 1747 
Q 353 2609 779 3096 
Q 1206 3584 1959 3584 
z
" transform="scale(0.015625)"/>
       <path id="DejaVuSans-77" d="M 269 3500 
L 844 3500 
L 1563 769 
L 2278 3500 
L 2956 3500 
L 3675 769 
L 4391 3500 
L 4966 3500 
L 4050 0 
L 3372 0 
L 2619 2869 
L 1863 0 
L 1184 0 
L 269 3500 
z
" transform="scale(0.015625)"/>
       <path id="DejaVuSans-6e" d="M 3513 2113 
L 3513 0 
L 2938 0 
L 2938 2094 
Q 2938 2591 2744 2837 
Q 2550 3084 2163 3084 
Q 1697 3084 1428 2787 
Q 1159 2491 1159 1978 
L 1159 0 
L 581 0 
L 581 3500 
L 1159 3500 
L 1159 2956 
Q 1366 3272 1645 3428 
Q 1925 3584 2291 3584 
Q 2894 3584 3203 3211 
Q 3513 2838 3513 2113 
z
" transform="scale(0.015625)"/>
      </defs>
      <use xlink:href="#DejaVuSans-49"/>
      <use xlink:href="#DejaVuSans-6d" x="29.492188"/>
      <use xlink:href="#DejaVuSans-61" x="126.904297"/>
      <use xlink:href="#DejaVuSans-67" x="188.183594"/>
      <use xlink:href="#DejaVuSans-65" x="251.660156"/>
      <use xlink:href="#DejaVuSans-20" x="313.183594"/>
      <use xlink:href="#DejaVuSans-73" x="344.970703"/>
      <use xlink:href="#DejaVuSans-68" x="397.070312"/>
      <use xlink:href="#DejaVuSans-6f" x="460.449219"/>
      <use xlink:href="#DejaVuSans-77" x="521.630859"/>
      <use xlink:href="#DejaVuSans-6e" x="603.417969"/>
     </g>
    </g>
   </g>
   <g id="matplotlib.axis_2">
    <g id="ytick_1">
     <g id="line2d_10">
      <defs>
       <path id="mdc12125a23" d="M 0 0 
L -3.5 0 
" style="stroke: #000000; stroke-width: 0.8"/>
      </defs>
      <g>
       <use xlink:href="#mdc12125a23" x="57.6" y="276.389053" style="stroke: #000000; stroke-width: 0.8"/>
      </g>
     </g>
     <g id="text_11">
      <!-- 125 -->
      <g transform="translate(31.5125 280.188271) scale(0.1 -0.1)">
       <use xlink:href="#DejaVuSans-31"/>
       <use xlink:href="#DejaVuSans-32" x="63.623047"/>
       <use xlink:href="#DejaVuSans-35" x="127.246094"/>
      </g>
     </g>
    </g>
    <g id="ytick_2">
     <g id="line2d_11">
      <g>
       <use xlink:href="#mdc12125a23" x="57.6" y="244.557474" style="stroke: #000000; stroke-width: 0.8"/>
      </g>
     </g>
     <g id="text_12">
      <!-- 150 -->
      <g transform="translate(31.5125 248.356692) scale(0.1 -0.1)">
       <use xlink:href="#DejaVuSans-31"/>
       <use xlink:href="#DejaVuSans-35" x="63.623047"/>
       <use xlink:href="#DejaVuSans-30" x="127.246094"/>
      </g>
     </g>
    </g>
    <g id="ytick_3">
     <g id="line2d_12">
      <g>
       <use xlink:href="#mdc12125a23" x="57.6" y="212.725895" style="stroke: #000000; stroke-width: 0.8"/>
      </g>
     </g>
     <g id="text_13">
      <!-- 175 -->
      <g transform="translate(31.5125 216.525113) scale(0.1 -0.1)">
       <defs>
        <path id="DejaVuSans-37" d="M 525 4666 
L 3525 4666 
L 3525 4397 
L 1831 0 
L 1172 0 
L 2766 4134 
L 525 4134 
L 525 4666 
z
" transform="scale(0.015625)"/>
       </defs>
       <use xlink:href="#DejaVuSans-31"/>
       <use xlink:href="#DejaVuSans-37" x="63.623047"/>
       <use xlink:href="#DejaVuSans-35" x="127.246094"/>
      </g>
     </g>
    </g>
    <g id="ytick_4">
     <g id="line2d_13">
      <g>
       <use xlink:href="#mdc12125a23" x="57.6" y="180.894316" style="stroke: #000000; stroke-width: 0.8"/>
      </g>
     </g>
     <g id="text_14">
      <!-- 200 -->
      <g transform="translate(31.5125 184.693535) scale(0.1 -0.1)">
       <use xlink:href="#DejaVuSans-32"/>
       <use xlink:href="#DejaVuSans-30" x="63.623047"/>
       <use xlink:href="#DejaVuSans-30" x="127.246094"/>
      </g>
     </g>
    </g>
    <g id="ytick_5">
     <g id="line2d_14">
      <g>
       <use xlink:href="#mdc12125a23" x="57.6" y="149.062737" style="stroke: #000000; stroke-width: 0.8"/>
      </g>
     </g>
     <g id="text_15">
      <!-- 225 -->
      <g transform="translate(31.5125 152.861956) scale(0.1 -0.1)">
       <use xlink:href="#DejaVuSans-32"/>
       <use xlink:href="#DejaVuSans-32" x="63.623047"/>
       <use xlink:href="#DejaVuSans-35" x="127.246094"/>
      </g>
     </g>
    </g>
    <g id="ytick_6">
     <g id="line2d_15">
      <g>
       <use xlink:href="#mdc12125a23" x="57.6" y="117.231158" style="stroke: #000000; stroke-width: 0.8"/>
      </g>
     </g>
     <g id="text_16">
      <!-- 250 -->
      <g transform="translate(31.5125 121.030377) scale(0.1 -0.1)">
       <use xlink:href="#DejaVuSans-32"/>
       <use xlink:href="#DejaVuSans-35" x="63.623047"/>
       <use xlink:href="#DejaVuSans-30" x="127.246094"/>
      </g>
     </g>
    </g>
    <g id="ytick_7">
     <g id="line2d_16">
      <g>
       <use xlink:href="#mdc12125a23" x="57.6" y="85.399579" style="stroke: #000000; stroke-width: 0.8"/>
      </g>
     </g>
     <g id="text_17">
      <!-- 275 -->
      <g transform="translate(31.5125 89.198798) scale(0.1 -0.1)">
       <use xlink:href="#DejaVuSans-32"/>
       <use xlink:href="#DejaVuSans-37" x="63.623047"/>
       <use xlink:href="#DejaVuSans-35" x="127.246094"/>
      </g>
     </g>
    </g>
    <g id="ytick_8">
     <g id="line2d_17">
      <g>
       <use xlink:href="#mdc12125a23" x="57.6" y="53.568" style="stroke: #000000; stroke-width: 0.8"/>
      </g>
     </g>
     <g id="text_18">
      <!-- 300 -->
      <g transform="translate(31.5125 57.367219) scale(0.1 -0.1)">
       <use xlink:href="#DejaVuSans-33"/>
       <use xlink:href="#DejaVuSans-30" x="63.623047"/>
       <use xlink:href="#DejaVuSans-30" x="127.246094"/>
      </g>
     </g>
    </g>
    <g id="text_19">
     <!-- Firing rate [Hz] -->
     <g transform="translate(25.432812 211.838156) rotate(-90) scale(0.1 -0.1)">
      <defs>
       <path id="DejaVuSans-46" d="M 628 4666 
L 3309 4666 
L 3309 4134 
L 1259 4134 
L 1259 2759 
L 3109 2759 
L 3109 2228 
L 1259 2228 
L 1259 0 
L 628 0 
L 628 4666 
z
" transform="scale(0.015625)"/>
       <path id="DejaVuSans-69" d="M 603 3500 
L 1178 3500 
L 1178 0 
L 603 0 
L 603 3500 
z
M 603 4863 
L 1178 4863 
L 1178 4134 
L 603 4134 
L 603 4863 
z
" transform="scale(0.015625)"/>
       <path id="DejaVuSans-72" d="M 2631 2963 
Q 2534 3019 2420 3045 
Q 2306 3072 2169 3072 
Q 1681 3072 1420 2755 
Q 1159 2438 1159 1844 
L 1159 0 
L 581 0 
L 581 3500 
L 1159 3500 
L 1159 2956 
Q 1341 3275 1631 3429 
Q 1922 3584 2338 3584 
Q 2397 3584 2469 3576 
Q 2541 3569 2628 3553 
L 2631 2963 
z
" transform="scale(0.015625)"/>
       <path id="DejaVuSans-74" d="M 1172 4494 
L 1172 3500 
L 2356 3500 
L 2356 3053 
L 1172 3053 
L 1172 1153 
Q 1172 725 1289 603 
Q 1406 481 1766 481 
L 2356 481 
L 2356 0 
L 1766 0 
Q 1100 0 847 248 
Q 594 497 594 1153 
L 594 3053 
L 172 3053 
L 172 3500 
L 594 3500 
L 594 4494 
L 1172 4494 
z
" transform="scale(0.015625)"/>
       <path id="DejaVuSans-5b" d="M 550 4863 
L 1875 4863 
L 1875 4416 
L 1125 4416 
L 1125 -397 
L 1875 -397 
L 1875 -844 
L 550 -844 
L 550 4863 
z
" transform="scale(0.015625)"/>
       <path id="DejaVuSans-48" d="M 628 4666 
L 1259 4666 
L 1259 2753 
L 3553 2753 
L 3553 4666 
L 4184 4666 
L 4184 0 
L 3553 0 
L 3553 2222 
L 1259 2222 
L 1259 0 
L 628 0 
L 628 4666 
z
" transform="scale(0.015625)"/>
       <path id="DejaVuSans-7a" d="M 353 3500 
L 3084 3500 
L 3084 2975 
L 922 459 
L 3084 459 
L 3084 0 
L 275 0 
L 275 525 
L 2438 3041 
L 353 3041 
L 353 3500 
z
" transform="scale(0.015625)"/>
       <path id="DejaVuSans-5d" d="M 1947 4863 
L 1947 -844 
L 622 -844 
L 622 -397 
L 1369 -397 
L 1369 4416 
L 622 4416 
L 622 4863 
L 1947 4863 
z
" transform="scale(0.015625)"/>
      </defs>
      <use xlink:href="#DejaVuSans-46"/>
      <use xlink:href="#DejaVuSans-69" x="50.269531"/>
      <use xlink:href="#DejaVuSans-72" x="78.052734"/>
      <use xlink:href="#DejaVuSans-69" x="119.166016"/>
      <use xlink:href="#DejaVuSans-6e" x="146.949219"/>
      <use xlink:href="#DejaVuSans-67" x="210.328125"/>
      <use xlink:href="#DejaVuSans-20" x="273.804688"/>
      <use xlink:href="#DejaVuSans-72" x="305.591797"/>
      <use xlink:href="#DejaVuSans-61" x="346.705078"/>
      <use xlink:href="#DejaVuSans-74" x="407.984375"/>
      <use xlink:href="#DejaVuSans-65" x="447.193359"/>
      <use xlink:href="#DejaVuSans-20" x="508.716797"/>
      <use xlink:href="#DejaVuSans-5b" x="540.503906"/>
      <use xlink:href="#DejaVuSans-48" x="579.517578"/>
      <use xlink:href="#DejaVuSans-7a" x="654.712891"/>
      <use xlink:href="#DejaVuSans-5d" x="707.203125"/>
     </g>
    </g>
   </g>
   <g id="line2d_18">
    <path d="M 73.832727 212.725895 
L 73.913911 231.824842 
L 73.995095 142.696421 
L 74.157463 231.824842 
L 74.238647 219.092211 
L 74.319831 231.824842 
L 74.401015 149.062737 
L 74.482199 257.290105 
L 74.563383 161.795368 
L 74.725751 263.656421 
L 74.888118 174.528 
L 74.969302 168.161684 
L 75.050486 244.557474 
L 75.212854 193.626947 
L 75.294038 199.993263 
L 75.375222 161.795368 
L 75.456406 225.458526 
L 75.699958 136.330105 
L 75.781142 174.528 
L 75.862326 161.795368 
L 75.94351 155.429053 
L 76.024693 225.458526 
L 76.105877 219.092211 
L 76.187061 180.894316 
L 76.349429 244.557474 
L 76.430613 187.260632 
L 76.592981 250.923789 
L 76.674165 244.557474 
L 76.755349 149.062737 
L 76.836533 187.260632 
L 76.998901 129.963789 
L 77.080085 180.894316 
L 77.161268 168.161684 
L 77.242452 136.330105 
L 77.40482 206.359579 
L 77.486004 193.626947 
L 77.567188 168.161684 
L 77.81074 250.923789 
L 77.891924 219.092211 
L 77.973108 174.528 
L 78.054292 212.725895 
L 78.135476 174.528 
L 78.21666 180.894316 
L 78.297844 225.458526 
L 78.460211 168.161684 
L 78.541395 193.626947 
L 78.784947 123.597474 
L 78.947315 199.993263 
L 79.028499 225.458526 
L 79.109683 161.795368 
L 79.190867 180.894316 
L 79.272051 206.359579 
L 79.353235 199.993263 
L 79.434419 199.993263 
L 79.515603 155.429053 
L 79.596786 161.795368 
L 79.67797 136.330105 
L 79.840338 231.824842 
L 79.921522 161.795368 
L 80.002706 174.528 
L 80.08389 155.429053 
L 80.165074 238.191158 
L 80.246258 136.330105 
L 80.327442 212.725895 
L 80.408626 136.330105 
L 80.48981 199.993263 
L 80.570994 123.597474 
L 80.733362 193.626947 
L 80.814545 193.626947 
L 80.895729 161.795368 
L 80.976913 225.458526 
L 81.058097 206.359579 
L 81.139281 98.132211 
L 81.220465 110.864842 
L 81.382833 199.993263 
L 81.626385 161.795368 
L 81.788753 187.260632 
L 81.869937 142.696421 
L 81.951121 219.092211 
L 82.032304 193.626947 
L 82.194672 212.725895 
L 82.275856 212.725895 
L 82.35704 149.062737 
L 82.438224 199.993263 
L 82.519408 168.161684 
L 82.600592 79.033263 
L 82.76296 168.161684 
L 83.006512 212.725895 
L 83.168879 180.894316 
L 83.250063 212.725895 
L 83.331247 117.231158 
L 83.412431 123.597474 
L 83.493615 199.993263 
L 83.574799 161.795368 
L 83.655983 187.260632 
L 83.818351 136.330105 
L 83.899535 187.260632 
L 83.980719 174.528 
L 84.061903 149.062737 
L 84.143087 212.725895 
L 84.305455 110.864842 
L 84.386638 219.092211 
L 84.467822 193.626947 
L 84.63019 142.696421 
L 84.792558 212.725895 
L 84.873742 193.626947 
L 84.954926 257.290105 
L 85.03611 187.260632 
L 85.117294 199.993263 
L 85.198478 180.894316 
L 85.360846 263.656421 
L 85.523214 155.429053 
L 85.766765 206.359579 
L 85.847949 187.260632 
L 85.929133 219.092211 
L 86.091501 206.359579 
L 86.172685 206.359579 
L 86.253869 219.092211 
L 86.416237 174.528 
L 86.497421 206.359579 
L 86.578605 174.528 
L 86.659789 193.626947 
L 86.822156 161.795368 
L 86.90334 206.359579 
L 86.984524 193.626947 
L 87.146892 174.528 
L 87.228076 104.498526 
L 87.471628 225.458526 
L 87.552812 193.626947 
L 87.633996 276.389053 
L 87.796364 98.132211 
L 87.958732 180.894316 
L 88.121099 149.062737 
L 88.202283 193.626947 
L 88.283467 187.260632 
L 88.445835 238.191158 
L 88.608203 161.795368 
L 88.689387 238.191158 
L 88.770571 180.894316 
L 88.851755 225.458526 
L 89.014123 161.795368 
L 89.095307 180.894316 
L 89.17649 225.458526 
L 89.257674 212.725895 
L 89.338858 161.795368 
L 89.420042 168.161684 
L 89.501226 199.993263 
L 89.58241 136.330105 
L 89.663594 193.626947 
L 89.744778 155.429053 
L 89.825962 231.824842 
L 89.907146 206.359579 
L 89.98833 219.092211 
L 90.150698 168.161684 
L 90.231882 174.528 
L 90.313066 231.824842 
L 90.394249 193.626947 
L 90.475433 212.725895 
L 90.556617 174.528 
L 90.637801 250.923789 
L 90.718985 155.429053 
L 90.800169 168.161684 
L 90.881353 155.429053 
L 91.043721 206.359579 
L 91.124905 180.894316 
L 91.287273 219.092211 
L 91.368457 187.260632 
L 91.449641 206.359579 
L 91.612008 110.864842 
L 91.693192 180.894316 
L 91.774376 110.864842 
L 91.85556 136.330105 
L 91.936744 187.260632 
L 92.017928 174.528 
L 92.099112 168.161684 
L 92.180296 174.528 
L 92.26148 199.993263 
L 92.342664 174.528 
L 92.423848 199.993263 
L 92.505032 180.894316 
L 92.586216 212.725895 
L 92.6674 168.161684 
L 92.748584 212.725895 
L 92.829767 155.429053 
L 92.910951 238.191158 
L 93.073319 129.963789 
L 93.235687 225.458526 
L 93.316871 142.696421 
L 93.398055 225.458526 
L 93.479239 168.161684 
L 93.560423 187.260632 
L 93.641607 193.626947 
L 93.722791 212.725895 
L 93.803975 174.528 
L 93.885159 187.260632 
L 94.047526 238.191158 
L 94.12871 149.062737 
L 94.209894 168.161684 
L 94.291078 206.359579 
L 94.372262 199.993263 
L 94.453446 199.993263 
L 94.615814 187.260632 
L 94.778182 117.231158 
L 94.859366 238.191158 
L 95.021734 149.062737 
L 95.184101 187.260632 
L 95.346469 161.795368 
L 95.427653 168.161684 
L 95.508837 136.330105 
L 95.671205 225.458526 
L 95.752389 180.894316 
L 95.833573 206.359579 
L 95.914757 110.864842 
L 95.995941 193.626947 
L 96.077125 161.795368 
L 96.158309 225.458526 
L 96.239493 180.894316 
L 96.320677 212.725895 
L 96.40186 136.330105 
L 96.483044 193.626947 
L 96.564228 180.894316 
L 96.645412 117.231158 
L 96.726596 149.062737 
L 96.80778 129.963789 
L 96.888964 193.626947 
L 97.051332 155.429053 
L 97.132516 206.359579 
L 97.2137 187.260632 
L 97.294884 136.330105 
L 97.376068 187.260632 
L 97.457252 161.795368 
L 97.700803 225.458526 
L 97.781987 193.626947 
L 97.863171 98.132211 
L 97.944355 244.557474 
L 98.106723 161.795368 
L 98.187907 225.458526 
L 98.269091 129.963789 
L 98.431459 206.359579 
L 98.593827 98.132211 
L 98.675011 193.626947 
L 98.756195 117.231158 
L 98.837378 187.260632 
L 98.918562 161.795368 
L 98.999746 98.132211 
L 99.162114 212.725895 
L 99.324482 117.231158 
L 99.48685 206.359579 
L 99.568034 219.092211 
L 99.811586 168.161684 
L 99.89277 174.528 
L 99.973953 155.429053 
L 100.055137 206.359579 
L 100.217505 104.498526 
L 100.298689 219.092211 
L 100.379873 199.993263 
L 100.542241 180.894316 
L 100.623425 161.795368 
L 100.704609 244.557474 
L 100.785793 193.626947 
L 100.866977 219.092211 
L 101.029345 180.894316 
L 101.110529 212.725895 
L 101.35408 104.498526 
L 101.516448 219.092211 
L 101.678816 180.894316 
L 101.841184 206.359579 
L 102.003552 142.696421 
L 102.084736 149.062737 
L 102.16592 187.260632 
L 102.247104 168.161684 
L 102.328288 257.290105 
L 102.409471 193.626947 
L 102.490655 212.725895 
L 102.653023 149.062737 
L 102.815391 199.993263 
L 102.977759 168.161684 
L 103.058943 193.626947 
L 103.140127 168.161684 
L 103.221311 212.725895 
L 103.302495 193.626947 
L 103.464863 212.725895 
L 103.546047 161.795368 
L 103.62723 250.923789 
L 103.789598 104.498526 
L 103.870782 161.795368 
L 103.951966 168.161684 
L 104.03315 289.121684 
L 104.114334 174.528 
L 104.195518 187.260632 
L 104.276702 219.092211 
L 104.357886 142.696421 
L 104.601438 212.725895 
L 104.682622 212.725895 
L 104.763805 168.161684 
L 104.844989 199.993263 
L 104.926173 193.626947 
L 105.088541 149.062737 
L 105.169725 193.626947 
L 105.332093 136.330105 
L 105.413277 161.795368 
L 105.494461 250.923789 
L 105.575645 225.458526 
L 105.819197 129.963789 
L 105.981564 174.528 
L 106.143932 155.429053 
L 106.225116 174.528 
L 106.3063 225.458526 
L 106.387484 212.725895 
L 106.468668 142.696421 
L 106.549852 250.923789 
L 106.631036 168.161684 
L 106.71222 225.458526 
L 106.793404 206.359579 
L 106.874588 117.231158 
L 106.955772 161.795368 
L 107.036956 276.389053 
L 107.11814 168.161684 
L 107.199323 238.191158 
L 107.361691 161.795368 
L 107.442875 174.528 
L 107.605243 168.161684 
L 107.686427 104.498526 
L 107.848795 149.062737 
L 107.929979 129.963789 
L 108.011163 174.528 
L 108.092347 168.161684 
L 108.173531 161.795368 
L 108.254715 231.824842 
L 108.417082 136.330105 
L 108.498266 257.290105 
L 108.57945 129.963789 
L 108.660634 219.092211 
L 108.741818 180.894316 
L 108.823002 187.260632 
L 108.904186 193.626947 
L 108.98537 123.597474 
L 109.147738 168.161684 
L 109.228922 136.330105 
L 109.310106 219.092211 
L 109.39129 193.626947 
L 109.472474 180.894316 
L 109.634841 193.626947 
L 109.716025 155.429053 
L 109.797209 219.092211 
L 110.040761 123.597474 
L 110.121945 199.993263 
L 110.203129 110.864842 
L 110.365497 219.092211 
L 110.446681 142.696421 
L 110.527865 180.894316 
L 110.609049 129.963789 
L 110.8526 238.191158 
L 110.933784 231.824842 
L 111.096152 136.330105 
L 111.25852 250.923789 
L 111.420888 104.498526 
L 111.502072 212.725895 
L 111.66444 117.231158 
L 111.826808 212.725895 
L 111.907992 161.795368 
L 112.070359 187.260632 
L 112.151543 136.330105 
L 112.232727 219.092211 
L 112.395095 123.597474 
L 112.638647 225.458526 
L 112.801015 180.894316 
L 112.963383 206.359579 
L 113.125751 155.429053 
L 113.206934 212.725895 
L 113.369302 123.597474 
L 113.612854 219.092211 
L 113.856406 155.429053 
L 113.93759 168.161684 
L 114.018774 155.429053 
L 114.099958 206.359579 
L 114.181142 129.963789 
L 114.262326 174.528 
L 114.424693 129.963789 
L 114.668245 244.557474 
L 114.830613 129.963789 
L 114.911797 136.330105 
L 115.074165 174.528 
L 115.155349 149.062737 
L 115.236533 225.458526 
L 115.398901 123.597474 
L 115.561268 187.260632 
L 115.642452 187.260632 
L 115.723636 136.330105 
L 115.886004 225.458526 
L 115.967188 117.231158 
L 116.21074 231.824842 
L 116.373108 168.161684 
L 116.535476 212.725895 
L 116.697844 117.231158 
L 116.779027 212.725895 
L 116.860211 193.626947 
L 116.941395 219.092211 
L 117.022579 193.626947 
L 117.103763 225.458526 
L 117.184947 136.330105 
L 117.266131 225.458526 
L 117.347315 155.429053 
L 117.428499 168.161684 
L 117.509683 244.557474 
L 117.590867 180.894316 
L 117.672051 199.993263 
L 117.753235 161.795368 
L 117.834419 212.725895 
L 117.915603 161.795368 
L 118.07797 250.923789 
L 118.159154 161.795368 
L 118.240338 212.725895 
L 118.321522 136.330105 
L 118.48389 219.092211 
L 118.727442 168.161684 
L 118.808626 174.528 
L 118.88981 206.359579 
L 118.970994 136.330105 
L 119.133362 193.626947 
L 119.214545 187.260632 
L 119.295729 123.597474 
L 119.376913 250.923789 
L 119.458097 219.092211 
L 119.539281 206.359579 
L 119.620465 155.429053 
L 119.701649 212.725895 
L 119.864017 155.429053 
L 119.945201 206.359579 
L 120.026385 174.528 
L 120.107569 238.191158 
L 120.269937 168.161684 
L 120.351121 174.528 
L 120.513488 199.993263 
L 120.675856 117.231158 
L 120.75704 206.359579 
L 120.838224 136.330105 
L 120.919408 212.725895 
L 121.000592 180.894316 
L 121.081776 66.300632 
L 121.244144 244.557474 
L 121.325328 212.725895 
L 121.406512 104.498526 
L 121.568879 244.557474 
L 121.812431 53.568 
L 121.893615 155.429053 
L 121.974799 149.062737 
L 122.055983 142.696421 
L 122.218351 161.795368 
L 122.380719 276.389053 
L 122.543087 155.429053 
L 122.705455 263.656421 
L 122.867822 168.161684 
L 122.949006 199.993263 
L 123.03019 270.022737 
L 123.192558 168.161684 
L 123.354926 149.062737 
L 123.517294 212.725895 
L 123.598478 199.993263 
L 123.679662 142.696421 
L 123.760846 168.161684 
L 123.84203 161.795368 
L 124.085581 193.626947 
L 124.247949 180.894316 
L 124.329133 187.260632 
L 124.410317 174.528 
L 124.491501 244.557474 
L 124.572685 193.626947 
L 124.653869 257.290105 
L 124.735053 110.864842 
L 124.816237 193.626947 
L 124.897421 174.528 
L 124.978605 155.429053 
L 125.059789 174.528 
L 125.222156 110.864842 
L 125.384524 231.824842 
L 125.465708 193.626947 
L 125.546892 244.557474 
L 125.70926 161.795368 
L 125.952812 231.824842 
L 126.11518 155.429053 
L 126.196364 238.191158 
L 126.277548 193.626947 
L 126.358732 199.993263 
L 126.439915 231.824842 
L 126.602283 174.528 
L 126.683467 168.161684 
L 126.764651 231.824842 
L 127.008203 123.597474 
L 127.170571 244.557474 
L 127.251755 225.458526 
L 127.332939 174.528 
L 127.414123 193.626947 
L 127.495307 250.923789 
L 127.657674 174.528 
L 127.820042 187.260632 
L 127.901226 250.923789 
L 128.063594 117.231158 
L 128.225962 168.161684 
L 128.307146 110.864842 
L 128.38833 193.626947 
L 128.469514 168.161684 
L 128.550698 193.626947 
L 128.631882 180.894316 
L 128.794249 206.359579 
L 128.875433 136.330105 
L 129.037801 219.092211 
L 129.118985 174.528 
L 129.200169 212.725895 
L 129.362537 168.161684 
L 129.524905 206.359579 
L 129.606089 174.528 
L 129.687273 250.923789 
L 129.849641 142.696421 
L 129.930825 231.824842 
L 130.012008 206.359579 
L 130.093192 180.894316 
L 130.25556 263.656421 
L 130.580296 161.795368 
L 130.742664 199.993263 
L 130.905032 123.597474 
L 130.986216 193.626947 
L 131.0674 98.132211 
L 131.148584 136.330105 
L 131.229767 91.765895 
L 131.392135 219.092211 
L 131.473319 238.191158 
L 131.635687 149.062737 
L 131.798055 244.557474 
L 131.960423 193.626947 
L 132.041607 174.528 
L 132.122791 225.458526 
L 132.203975 174.528 
L 132.366342 244.557474 
L 132.447526 212.725895 
L 132.52871 219.092211 
L 132.772262 174.528 
L 132.853446 193.626947 
L 132.93463 174.528 
L 133.096998 187.260632 
L 133.178182 168.161684 
L 133.259366 244.557474 
L 133.421734 136.330105 
L 133.502918 257.290105 
L 133.665285 180.894316 
L 133.746469 174.528 
L 133.827653 142.696421 
L 133.908837 263.656421 
L 133.990021 174.528 
L 134.071205 180.894316 
L 134.152389 161.795368 
L 134.233573 193.626947 
L 134.314757 136.330105 
L 134.477125 263.656421 
L 134.558309 180.894316 
L 134.639493 193.626947 
L 134.720677 149.062737 
L 134.80186 225.458526 
L 134.883044 155.429053 
L 134.964228 219.092211 
L 135.045412 149.062737 
L 135.126596 174.528 
L 135.20778 161.795368 
L 135.288964 110.864842 
L 135.370148 219.092211 
L 135.451332 168.161684 
L 135.532516 212.725895 
L 135.694884 149.062737 
L 135.776068 244.557474 
L 135.857252 174.528 
L 135.938436 199.993263 
L 136.019619 174.528 
L 136.100803 180.894316 
L 136.181987 231.824842 
L 136.263171 174.528 
L 136.344355 231.824842 
L 136.425539 180.894316 
L 136.587907 231.824842 
L 136.750275 174.528 
L 136.831459 270.022737 
L 136.993827 136.330105 
L 137.075011 225.458526 
L 137.156195 129.963789 
L 137.237378 225.458526 
L 137.318562 161.795368 
L 137.562114 231.824842 
L 137.724482 174.528 
L 137.88685 187.260632 
L 138.049218 123.597474 
L 138.211586 212.725895 
L 138.29277 168.161684 
L 138.373953 187.260632 
L 138.455137 180.894316 
L 138.536321 110.864842 
L 138.617505 225.458526 
L 138.779873 129.963789 
L 138.861057 187.260632 
L 138.942241 174.528 
L 139.104609 129.963789 
L 139.185793 136.330105 
L 139.266977 199.993263 
L 139.348161 149.062737 
L 139.429345 212.725895 
L 139.510529 174.528 
L 139.75408 212.725895 
L 139.835264 174.528 
L 140.078816 225.458526 
L 140.16 206.359579 
L 140.241184 149.062737 
L 140.484736 238.191158 
L 140.647104 136.330105 
L 140.728288 219.092211 
L 140.890655 117.231158 
L 140.971839 212.725895 
L 141.134207 142.696421 
L 141.296575 238.191158 
L 141.377759 168.161684 
L 141.458943 257.290105 
L 141.540127 225.458526 
L 141.702495 219.092211 
L 141.783679 187.260632 
L 141.864863 212.725895 
L 142.02723 142.696421 
L 142.189598 168.161684 
L 142.270782 129.963789 
L 142.43315 206.359579 
L 142.514334 136.330105 
L 142.595518 199.993263 
L 142.676702 161.795368 
L 142.757886 244.557474 
L 142.83907 225.458526 
L 143.001438 193.626947 
L 143.082622 199.993263 
L 143.244989 149.062737 
L 143.407357 199.993263 
L 143.488541 193.626947 
L 143.569725 168.161684 
L 143.650909 180.894316 
L 143.732093 174.528 
L 143.894461 225.458526 
L 143.975645 238.191158 
L 144.219197 168.161684 
L 144.381564 282.755368 
L 144.543932 136.330105 
L 144.625116 263.656421 
L 144.787484 110.864842 
L 144.949852 206.359579 
L 145.031036 136.330105 
L 145.193404 212.725895 
L 145.274588 193.626947 
L 145.355772 212.725895 
L 145.436956 53.568 
L 145.599323 206.359579 
L 145.680507 174.528 
L 145.842875 193.626947 
L 146.005243 117.231158 
L 146.086427 250.923789 
L 146.167611 225.458526 
L 146.248795 168.161684 
L 146.329979 199.993263 
L 146.411163 142.696421 
L 146.492347 212.725895 
L 146.654715 168.161684 
L 146.735899 206.359579 
L 146.898266 129.963789 
L 146.97945 250.923789 
L 147.060634 174.528 
L 147.141818 212.725895 
L 147.223002 136.330105 
L 147.304186 219.092211 
L 147.38537 136.330105 
L 147.466554 187.260632 
L 147.547738 155.429053 
L 147.628922 238.191158 
L 147.872474 136.330105 
L 148.034841 199.993263 
L 148.116025 129.963789 
L 148.278393 199.993263 
L 148.359577 123.597474 
L 148.521945 206.359579 
L 148.603129 206.359579 
L 148.765497 123.597474 
L 148.846681 180.894316 
L 149.009049 98.132211 
L 149.2526 212.725895 
L 149.414968 123.597474 
L 149.496152 244.557474 
L 149.577336 136.330105 
L 149.65852 231.824842 
L 149.739704 161.795368 
L 149.820888 168.161684 
L 149.902072 244.557474 
L 149.983256 180.894316 
L 150.06444 231.824842 
L 150.145624 98.132211 
L 150.307992 263.656421 
L 150.389175 123.597474 
L 150.470359 187.260632 
L 150.551543 168.161684 
L 150.632727 142.696421 
L 150.713911 206.359579 
L 150.795095 155.429053 
L 150.957463 231.824842 
L 151.038647 206.359579 
L 151.119831 219.092211 
L 151.201015 187.260632 
L 151.282199 231.824842 
L 151.363383 168.161684 
L 151.444567 231.824842 
L 151.525751 219.092211 
L 151.850486 180.894316 
L 151.93167 187.260632 
L 152.012854 174.528 
L 152.094038 136.330105 
L 152.175222 193.626947 
L 152.33759 136.330105 
L 152.418774 238.191158 
L 152.499958 180.894316 
L 152.581142 219.092211 
L 152.662326 180.894316 
L 152.74351 206.359579 
L 152.824693 129.963789 
L 152.987061 212.725895 
L 153.230613 129.963789 
L 153.392981 244.557474 
L 153.474165 155.429053 
L 153.555349 180.894316 
L 153.636533 155.429053 
L 153.717717 206.359579 
L 153.798901 59.934316 
L 154.042452 225.458526 
L 154.123636 168.161684 
L 154.20482 219.092211 
L 154.448372 129.963789 
L 154.529556 244.557474 
L 154.61074 180.894316 
L 154.691924 193.626947 
L 154.773108 161.795368 
L 154.854292 225.458526 
L 154.935476 142.696421 
L 155.01666 212.725895 
L 155.097844 199.993263 
L 155.179027 219.092211 
L 155.260211 155.429053 
L 155.341395 161.795368 
L 155.422579 250.923789 
L 155.503763 238.191158 
L 155.666131 79.033263 
L 155.909683 219.092211 
L 155.990867 136.330105 
L 156.072051 206.359579 
L 156.234419 136.330105 
L 156.315603 168.161684 
L 156.396786 161.795368 
L 156.47797 136.330105 
L 156.640338 199.993263 
L 156.802706 193.626947 
L 156.88389 180.894316 
L 156.965074 212.725895 
L 157.046258 168.161684 
L 157.127442 257.290105 
L 157.28981 180.894316 
L 157.370994 238.191158 
L 157.452178 225.458526 
L 157.614545 129.963789 
L 157.695729 199.993263 
L 157.776913 161.795368 
L 157.858097 174.528 
L 157.939281 193.626947 
L 158.020465 180.894316 
L 158.101649 79.033263 
L 158.345201 206.359579 
L 158.426385 180.894316 
L 158.507569 199.993263 
L 158.669937 149.062737 
L 158.751121 250.923789 
L 158.832304 155.429053 
L 158.913488 219.092211 
L 158.994672 193.626947 
L 159.075856 270.022737 
L 159.15704 136.330105 
L 159.238224 193.626947 
L 159.319408 149.062737 
L 159.400592 199.993263 
L 159.56296 168.161684 
L 159.644144 231.824842 
L 159.806512 161.795368 
L 159.968879 187.260632 
L 160.050063 155.429053 
L 160.374799 263.656421 
L 160.618351 142.696421 
L 160.780719 129.963789 
L 160.861903 231.824842 
L 160.943087 187.260632 
L 161.024271 276.389053 
L 161.186638 180.894316 
L 161.349006 244.557474 
L 161.43019 187.260632 
L 161.511374 219.092211 
L 161.754926 174.528 
L 161.83611 168.161684 
L 161.917294 187.260632 
L 161.998478 155.429053 
L 162.24203 238.191158 
L 162.323214 168.161684 
L 162.404397 231.824842 
L 162.485581 174.528 
L 162.566765 193.626947 
L 162.647949 199.993263 
L 162.729133 225.458526 
L 162.810317 110.864842 
L 162.972685 187.260632 
L 163.053869 168.161684 
L 163.135053 231.824842 
L 163.216237 199.993263 
L 163.297421 206.359579 
L 163.378605 225.458526 
L 163.459789 199.993263 
L 163.540973 110.864842 
L 163.622156 206.359579 
L 163.70334 149.062737 
L 163.784524 219.092211 
L 163.865708 206.359579 
L 163.946892 212.725895 
L 164.028076 155.429053 
L 164.190444 206.359579 
L 164.271628 142.696421 
L 164.352812 206.359579 
L 164.433996 142.696421 
L 164.51518 238.191158 
L 164.677548 136.330105 
L 164.839915 199.993263 
L 164.921099 168.161684 
L 165.002283 219.092211 
L 165.164651 123.597474 
L 165.245835 155.429053 
L 165.327019 244.557474 
L 165.651755 79.033263 
L 165.732939 206.359579 
L 165.814123 193.626947 
L 165.895307 180.894316 
L 166.057674 244.557474 
L 166.220042 168.161684 
L 166.301226 174.528 
L 166.463594 250.923789 
L 166.544778 180.894316 
L 166.625962 231.824842 
L 166.78833 136.330105 
L 166.950698 219.092211 
L 167.031882 225.458526 
L 167.275433 142.696421 
L 167.356617 129.963789 
L 167.518985 206.359579 
L 167.600169 174.528 
L 167.762537 199.993263 
L 167.843721 193.626947 
L 167.924905 168.161684 
L 168.006089 174.528 
L 168.087273 161.795368 
L 168.249641 193.626947 
L 168.330825 206.359579 
L 168.412008 193.626947 
L 168.493192 206.359579 
L 168.574376 180.894316 
L 168.736744 199.993263 
L 168.817928 270.022737 
L 168.899112 212.725895 
L 168.980296 250.923789 
L 169.142664 155.429053 
L 169.223848 270.022737 
L 169.305032 231.824842 
L 169.386216 199.993263 
L 169.4674 231.824842 
L 169.548584 206.359579 
L 169.629767 225.458526 
L 169.792135 110.864842 
L 169.954503 180.894316 
L 170.035687 168.161684 
L 170.116871 149.062737 
L 170.279239 231.824842 
L 170.360423 155.429053 
L 170.441607 180.894316 
L 170.603975 225.458526 
L 170.685159 193.626947 
L 170.766342 85.399579 
L 170.847526 199.993263 
L 170.92871 161.795368 
L 171.009894 149.062737 
L 171.091078 174.528 
L 171.172262 155.429053 
L 171.253446 199.993263 
L 171.33463 193.626947 
L 171.415814 193.626947 
L 171.496998 142.696421 
L 171.659366 193.626947 
L 171.74055 136.330105 
L 171.821734 155.429053 
L 171.902918 206.359579 
L 172.146469 129.963789 
L 172.308837 212.725895 
L 172.390021 212.725895 
L 172.471205 161.795368 
L 172.552389 212.725895 
L 172.633573 104.498526 
L 172.877125 270.022737 
L 173.120677 123.597474 
L 173.283044 180.894316 
L 173.445412 149.062737 
L 173.526596 199.993263 
L 173.688964 155.429053 
L 173.770148 244.557474 
L 173.932516 149.062737 
L 174.0137 161.795368 
L 174.094884 199.993263 
L 174.176068 193.626947 
L 174.257252 219.092211 
L 174.338436 193.626947 
L 174.419619 129.963789 
L 174.500803 238.191158 
L 174.581987 91.765895 
L 174.663171 206.359579 
L 174.744355 174.528 
L 174.825539 174.528 
L 174.906723 180.894316 
L 174.987907 117.231158 
L 175.069091 187.260632 
L 175.231459 129.963789 
L 175.312643 231.824842 
L 175.393827 199.993263 
L 175.475011 199.993263 
L 175.556195 155.429053 
L 175.637378 187.260632 
L 175.718562 168.161684 
L 175.799746 212.725895 
L 175.88093 123.597474 
L 175.962114 155.429053 
L 176.043298 142.696421 
L 176.124482 187.260632 
L 176.205666 110.864842 
L 176.28685 238.191158 
L 176.368034 225.458526 
L 176.449218 117.231158 
L 176.611586 231.824842 
L 176.855137 174.528 
L 176.936321 270.022737 
L 177.179873 161.795368 
L 177.261057 212.725895 
L 177.342241 161.795368 
L 177.423425 212.725895 
L 177.666977 129.963789 
L 177.910529 225.458526 
L 177.991712 149.062737 
L 178.072896 231.824842 
L 178.15408 161.795368 
L 178.235264 206.359579 
L 178.316448 161.795368 
L 178.397632 187.260632 
L 178.478816 91.765895 
L 178.722368 187.260632 
L 178.803552 149.062737 
L 178.884736 225.458526 
L 179.047104 149.062737 
L 179.128288 161.795368 
L 179.209471 142.696421 
L 179.371839 180.894316 
L 179.534207 149.062737 
L 179.615391 199.993263 
L 179.696575 129.963789 
L 179.777759 206.359579 
L 179.940127 129.963789 
L 180.021311 206.359579 
L 180.102495 155.429053 
L 180.183679 219.092211 
L 180.264863 161.795368 
L 180.346047 174.528 
L 180.42723 149.062737 
L 180.589598 212.725895 
L 180.751966 129.963789 
L 180.83315 149.062737 
L 180.995518 136.330105 
L 181.076702 206.359579 
L 181.157886 193.626947 
L 181.23907 225.458526 
L 181.320254 136.330105 
L 181.401438 187.260632 
L 181.482622 180.894316 
L 181.563805 136.330105 
L 181.644989 193.626947 
L 181.726173 180.894316 
L 181.807357 199.993263 
L 181.888541 193.626947 
L 181.969725 129.963789 
L 182.132093 231.824842 
L 182.213277 174.528 
L 182.294461 231.824842 
L 182.375645 174.528 
L 182.456829 193.626947 
L 182.538013 270.022737 
L 182.619197 231.824842 
L 182.700381 136.330105 
L 182.862748 187.260632 
L 182.943932 123.597474 
L 183.1063 225.458526 
L 183.187484 206.359579 
L 183.268668 219.092211 
L 183.431036 168.161684 
L 183.51222 206.359579 
L 183.593404 142.696421 
L 183.674588 231.824842 
L 183.836956 161.795368 
L 183.91814 180.894316 
L 183.999323 117.231158 
L 184.080507 238.191158 
L 184.161691 187.260632 
L 184.242875 193.626947 
L 184.486427 136.330105 
L 184.648795 174.528 
L 184.729979 161.795368 
L 184.811163 187.260632 
L 184.892347 161.795368 
L 184.973531 206.359579 
L 185.054715 174.528 
L 185.135899 180.894316 
L 185.217082 219.092211 
L 185.37945 161.795368 
L 185.460634 212.725895 
L 185.541818 174.528 
L 185.623002 231.824842 
L 185.704186 225.458526 
L 185.78537 238.191158 
L 186.028922 136.330105 
L 186.19129 238.191158 
L 186.272474 168.161684 
L 186.353658 199.993263 
L 186.434841 161.795368 
L 186.597209 212.725895 
L 186.678393 187.260632 
L 186.759577 199.993263 
L 186.840761 193.626947 
L 186.921945 117.231158 
L 187.003129 142.696421 
L 187.165497 231.824842 
L 187.246681 193.626947 
L 187.327865 219.092211 
L 187.409049 117.231158 
L 187.571416 193.626947 
L 187.6526 219.092211 
L 187.814968 180.894316 
L 187.896152 136.330105 
L 188.05852 250.923789 
L 188.220888 136.330105 
L 188.302072 161.795368 
L 188.383256 174.528 
L 188.545624 219.092211 
L 188.707992 161.795368 
L 188.951543 238.191158 
L 189.113911 193.626947 
L 189.195095 199.993263 
L 189.276279 193.626947 
L 189.357463 219.092211 
L 189.438647 110.864842 
L 189.601015 212.725895 
L 190.006934 161.795368 
L 190.088118 98.132211 
L 190.169302 212.725895 
L 190.250486 193.626947 
L 190.575222 155.429053 
L 190.73759 174.528 
L 190.818774 136.330105 
L 190.899958 193.626947 
L 190.981142 123.597474 
L 191.062326 155.429053 
L 191.14351 117.231158 
L 191.224693 187.260632 
L 191.305877 149.062737 
L 191.387061 161.795368 
L 191.468245 212.725895 
L 191.549429 142.696421 
L 191.630613 219.092211 
L 191.711797 212.725895 
L 191.792981 199.993263 
L 191.874165 123.597474 
L 192.036533 187.260632 
L 192.117717 110.864842 
L 192.280085 231.824842 
L 192.442452 174.528 
L 192.60482 219.092211 
L 192.686004 117.231158 
L 192.767188 168.161684 
L 192.848372 123.597474 
L 193.01074 244.557474 
L 193.091924 129.963789 
L 193.254292 244.557474 
L 193.335476 238.191158 
L 193.497844 161.795368 
L 193.660211 129.963789 
L 193.822579 219.092211 
L 193.903763 155.429053 
L 194.066131 219.092211 
L 194.147315 161.795368 
L 194.228499 199.993263 
L 194.309683 155.429053 
L 194.390867 212.725895 
L 194.472051 98.132211 
L 194.553235 129.963789 
L 194.634419 187.260632 
L 194.796786 110.864842 
L 194.87797 225.458526 
L 194.959154 219.092211 
L 195.040338 180.894316 
L 195.121522 257.290105 
L 195.28389 149.062737 
L 195.365074 193.626947 
L 195.446258 199.993263 
L 195.527442 161.795368 
L 195.608626 231.824842 
L 195.68981 206.359579 
L 195.852178 187.260632 
L 195.933362 212.725895 
L 196.014545 129.963789 
L 196.095729 155.429053 
L 196.176913 193.626947 
L 196.258097 117.231158 
L 196.420465 199.993263 
L 196.501649 193.626947 
L 196.582833 212.725895 
L 196.745201 161.795368 
L 196.826385 199.993263 
L 196.907569 174.528 
L 196.988753 187.260632 
L 197.151121 142.696421 
L 197.55704 244.557474 
L 197.638224 129.963789 
L 197.719408 238.191158 
L 197.800592 136.330105 
L 197.881776 199.993263 
L 198.044144 136.330105 
L 198.125328 212.725895 
L 198.287696 142.696421 
L 198.368879 142.696421 
L 198.531247 225.458526 
L 198.693615 129.963789 
L 198.774799 250.923789 
L 198.937167 161.795368 
L 199.099535 187.260632 
L 199.180719 225.458526 
L 199.261903 149.062737 
L 199.424271 244.557474 
L 199.505455 168.161684 
L 199.749006 244.557474 
L 199.83019 199.993263 
L 199.911374 206.359579 
L 199.992558 193.626947 
L 200.073742 219.092211 
L 200.154926 193.626947 
L 200.23611 219.092211 
L 200.317294 187.260632 
L 200.398478 212.725895 
L 200.560846 136.330105 
L 200.723214 225.458526 
L 200.804397 180.894316 
L 200.885581 225.458526 
L 200.966765 155.429053 
L 201.129133 225.458526 
L 201.372685 149.062737 
L 201.453869 206.359579 
L 201.535053 193.626947 
L 201.616237 155.429053 
L 201.778605 199.993263 
L 201.859789 149.062737 
L 201.940973 199.993263 
L 202.022156 187.260632 
L 202.10334 180.894316 
L 202.184524 129.963789 
L 202.428076 244.557474 
L 202.50926 199.993263 
L 202.590444 206.359579 
L 202.671628 219.092211 
L 202.833996 142.696421 
L 202.91518 180.894316 
L 202.996364 155.429053 
L 203.077548 180.894316 
L 203.158732 244.557474 
L 203.239915 161.795368 
L 203.321099 250.923789 
L 203.402283 180.894316 
L 203.483467 199.993263 
L 203.564651 219.092211 
L 203.727019 110.864842 
L 203.889387 219.092211 
L 203.970571 142.696421 
L 204.051755 174.528 
L 204.132939 250.923789 
L 204.214123 238.191158 
L 204.295307 168.161684 
L 204.37649 238.191158 
L 204.457674 142.696421 
L 204.620042 219.092211 
L 204.701226 174.528 
L 204.78241 225.458526 
L 204.863594 219.092211 
L 204.944778 129.963789 
L 205.107146 263.656421 
L 205.18833 129.963789 
L 205.269514 142.696421 
L 205.350698 149.062737 
L 205.431882 168.161684 
L 205.513066 149.062737 
L 205.594249 244.557474 
L 205.675433 212.725895 
L 205.837801 149.062737 
L 205.918985 212.725895 
L 206.081353 104.498526 
L 206.243721 244.557474 
L 206.406089 142.696421 
L 206.487273 206.359579 
L 206.568457 142.696421 
L 206.893192 238.191158 
L 206.974376 129.963789 
L 207.05556 142.696421 
L 207.217928 212.725895 
L 207.380296 180.894316 
L 207.46148 244.557474 
L 207.542664 225.458526 
L 207.623848 199.993263 
L 207.705032 123.597474 
L 207.8674 193.626947 
L 207.948584 123.597474 
L 208.029767 199.993263 
L 208.192135 123.597474 
L 208.273319 206.359579 
L 208.354503 199.993263 
L 208.435687 225.458526 
L 208.598055 187.260632 
L 208.679239 168.161684 
L 208.760423 225.458526 
L 208.841607 129.963789 
L 208.922791 225.458526 
L 209.003975 193.626947 
L 209.085159 238.191158 
L 209.247526 187.260632 
L 209.32871 193.626947 
L 209.409894 212.725895 
L 209.491078 180.894316 
L 209.572262 187.260632 
L 209.815814 174.528 
L 209.978182 193.626947 
L 210.059366 161.795368 
L 210.14055 168.161684 
L 210.221734 206.359579 
L 210.384101 142.696421 
L 210.546469 231.824842 
L 210.790021 180.894316 
L 210.871205 225.458526 
L 210.952389 129.963789 
L 211.033573 161.795368 
L 211.114757 117.231158 
L 211.358309 219.092211 
L 211.439493 117.231158 
L 211.520677 129.963789 
L 211.683044 212.725895 
L 211.845412 123.597474 
L 211.926596 212.725895 
L 212.00778 180.894316 
L 212.088964 142.696421 
L 212.170148 206.359579 
L 212.251332 193.626947 
L 212.332516 142.696421 
L 212.4137 187.260632 
L 212.494884 117.231158 
L 212.576068 206.359579 
L 212.657252 180.894316 
L 212.738436 206.359579 
L 212.900803 98.132211 
L 212.981987 250.923789 
L 213.063171 155.429053 
L 213.144355 180.894316 
L 213.225539 225.458526 
L 213.306723 219.092211 
L 213.469091 123.597474 
L 213.550275 212.725895 
L 213.631459 193.626947 
L 213.712643 187.260632 
L 213.793827 193.626947 
L 213.956195 231.824842 
L 214.199746 117.231158 
L 214.28093 149.062737 
L 214.443298 238.191158 
L 214.524482 199.993263 
L 214.605666 212.725895 
L 214.68685 225.458526 
L 214.768034 161.795368 
L 214.849218 225.458526 
L 215.011586 174.528 
L 215.09277 193.626947 
L 215.173953 168.161684 
L 215.336321 257.290105 
L 215.417505 79.033263 
L 215.498689 174.528 
L 215.579873 155.429053 
L 215.661057 187.260632 
L 215.742241 129.963789 
L 215.823425 149.062737 
L 215.985793 212.725895 
L 216.066977 193.626947 
L 216.148161 263.656421 
L 216.229345 187.260632 
L 216.310529 212.725895 
L 216.391712 193.626947 
L 216.472896 206.359579 
L 216.635264 149.062737 
L 216.716448 180.894316 
L 216.797632 174.528 
L 216.878816 155.429053 
L 216.96 187.260632 
L 217.122368 85.399579 
L 217.284736 225.458526 
L 217.36592 98.132211 
L 217.528288 180.894316 
L 217.609471 206.359579 
L 217.690655 276.389053 
L 217.853023 168.161684 
L 218.015391 136.330105 
L 218.177759 168.161684 
L 218.258943 174.528 
L 218.340127 199.993263 
L 218.421311 142.696421 
L 218.502495 244.557474 
L 218.583679 193.626947 
L 218.664863 199.993263 
L 218.746047 168.161684 
L 218.82723 199.993263 
L 218.908414 66.300632 
L 219.151966 263.656421 
L 219.395518 123.597474 
L 219.476702 212.725895 
L 219.557886 187.260632 
L 219.720254 199.993263 
L 219.882622 129.963789 
L 219.963805 193.626947 
L 220.044989 142.696421 
L 220.126173 199.993263 
L 220.288541 129.963789 
L 220.369725 174.528 
L 220.450909 123.597474 
L 220.532093 199.993263 
L 220.613277 142.696421 
L 220.694461 238.191158 
L 220.775645 219.092211 
L 220.856829 231.824842 
L 221.019197 168.161684 
L 221.100381 193.626947 
L 221.343932 123.597474 
L 221.425116 206.359579 
L 221.5063 193.626947 
L 221.587484 161.795368 
L 221.668668 193.626947 
L 221.831036 155.429053 
L 221.91222 193.626947 
L 221.993404 168.161684 
L 222.074588 238.191158 
L 222.155772 180.894316 
L 222.236956 231.824842 
L 222.480507 142.696421 
L 222.561691 219.092211 
L 222.642875 193.626947 
L 222.724059 155.429053 
L 222.805243 193.626947 
L 222.886427 180.894316 
L 222.967611 193.626947 
L 223.211163 270.022737 
L 223.292347 199.993263 
L 223.373531 225.458526 
L 223.454715 199.993263 
L 223.535899 231.824842 
L 223.617082 168.161684 
L 223.698266 180.894316 
L 223.77945 168.161684 
L 223.941818 206.359579 
L 224.023002 136.330105 
L 224.104186 206.359579 
L 224.18537 180.894316 
L 224.266554 212.725895 
L 224.347738 180.894316 
L 224.428922 231.824842 
L 224.59129 187.260632 
L 224.672474 187.260632 
L 224.753658 231.824842 
L 224.834841 142.696421 
L 224.916025 206.359579 
L 224.997209 199.993263 
L 225.078393 155.429053 
L 225.240761 212.725895 
L 225.321945 129.963789 
L 225.403129 199.993263 
L 225.484313 142.696421 
L 225.565497 225.458526 
L 225.646681 91.765895 
L 225.809049 225.458526 
L 225.971416 168.161684 
L 226.0526 168.161684 
L 226.133784 238.191158 
L 226.296152 174.528 
L 226.45852 263.656421 
L 226.539704 180.894316 
L 226.620888 193.626947 
L 226.702072 212.725895 
L 226.783256 168.161684 
L 226.86444 238.191158 
L 227.026808 123.597474 
L 227.107992 180.894316 
L 227.189175 129.963789 
L 227.270359 231.824842 
L 227.351543 219.092211 
L 227.513911 149.062737 
L 227.676279 212.725895 
L 227.757463 199.993263 
L 227.838647 168.161684 
L 227.919831 231.824842 
L 228.001015 168.161684 
L 228.082199 231.824842 
L 228.244567 149.062737 
L 228.325751 142.696421 
L 228.406934 219.092211 
L 228.488118 149.062737 
L 228.569302 180.894316 
L 228.650486 168.161684 
L 228.73167 212.725895 
L 228.812854 129.963789 
L 228.975222 206.359579 
L 229.056406 187.260632 
L 229.13759 225.458526 
L 229.299958 149.062737 
L 229.381142 206.359579 
L 229.54351 136.330105 
L 229.787061 206.359579 
L 229.949429 149.062737 
L 230.030613 193.626947 
L 230.111797 155.429053 
L 230.192981 219.092211 
L 230.274165 155.429053 
L 230.355349 225.458526 
L 230.436533 193.626947 
L 230.517717 98.132211 
L 230.680085 225.458526 
L 230.761268 174.528 
L 230.842452 180.894316 
L 231.00482 161.795368 
L 231.086004 212.725895 
L 231.167188 187.260632 
L 231.248372 212.725895 
L 231.41074 193.626947 
L 231.491924 117.231158 
L 231.573108 225.458526 
L 231.654292 219.092211 
L 231.735476 155.429053 
L 231.81666 193.626947 
L 231.897844 187.260632 
L 231.979027 180.894316 
L 232.060211 212.725895 
L 232.384947 123.597474 
L 232.547315 199.993263 
L 232.628499 149.062737 
L 232.872051 219.092211 
L 232.953235 161.795368 
L 233.034419 206.359579 
L 233.115603 136.330105 
L 233.27797 219.092211 
L 233.359154 168.161684 
L 233.521522 225.458526 
L 233.602706 123.597474 
L 233.68389 129.963789 
L 233.765074 238.191158 
L 233.846258 117.231158 
L 233.927442 219.092211 
L 234.008626 180.894316 
L 234.08981 212.725895 
L 234.252178 187.260632 
L 234.333362 142.696421 
L 234.414545 199.993263 
L 234.495729 155.429053 
L 234.576913 199.993263 
L 234.739281 168.161684 
L 234.820465 219.092211 
L 234.982833 168.161684 
L 235.064017 180.894316 
L 235.145201 129.963789 
L 235.226385 238.191158 
L 235.307569 212.725895 
L 235.469937 174.528 
L 235.551121 180.894316 
L 235.713488 168.161684 
L 235.794672 187.260632 
L 235.95704 136.330105 
L 236.119408 187.260632 
L 236.200592 98.132211 
L 236.36296 212.725895 
L 236.444144 174.528 
L 236.525328 91.765895 
L 236.606512 206.359579 
L 236.687696 168.161684 
L 236.850063 123.597474 
L 237.012431 212.725895 
L 237.093615 206.359579 
L 237.174799 212.725895 
L 237.337167 142.696421 
L 237.499535 199.993263 
L 237.580719 187.260632 
L 237.661903 136.330105 
L 237.905455 219.092211 
L 238.067822 187.260632 
L 238.149006 187.260632 
L 238.23019 206.359579 
L 238.554926 129.963789 
L 238.798478 219.092211 
L 238.879662 149.062737 
L 239.04203 219.092211 
L 239.123214 174.528 
L 239.204397 199.993263 
L 239.285581 193.626947 
L 239.366765 199.993263 
L 239.447949 250.923789 
L 239.529133 110.864842 
L 239.610317 193.626947 
L 239.691501 149.062737 
L 239.772685 174.528 
L 239.853869 161.795368 
L 239.935053 225.458526 
L 240.178605 149.062737 
L 240.259789 142.696421 
L 240.340973 238.191158 
L 240.50334 187.260632 
L 240.584524 187.260632 
L 240.746892 206.359579 
L 240.828076 161.795368 
L 240.90926 199.993263 
L 240.990444 117.231158 
L 241.152812 225.458526 
L 241.396364 110.864842 
L 241.477548 270.022737 
L 241.558732 149.062737 
L 241.639915 187.260632 
L 241.721099 257.290105 
L 241.883467 136.330105 
L 241.964651 149.062737 
L 242.127019 238.191158 
L 242.208203 206.359579 
L 242.289387 231.824842 
L 242.370571 199.993263 
L 242.451755 98.132211 
L 242.532939 174.528 
L 242.614123 161.795368 
L 242.695307 136.330105 
L 242.77649 250.923789 
L 242.938858 91.765895 
L 243.101226 187.260632 
L 243.18241 206.359579 
L 243.263594 123.597474 
L 243.425962 225.458526 
L 243.507146 136.330105 
L 243.58833 193.626947 
L 243.669514 161.795368 
L 243.750698 187.260632 
L 243.831882 174.528 
L 243.913066 212.725895 
L 243.994249 149.062737 
L 244.075433 180.894316 
L 244.156617 174.528 
L 244.237801 155.429053 
L 244.318985 174.528 
L 244.400169 155.429053 
L 244.481353 180.894316 
L 244.562537 110.864842 
L 244.643721 238.191158 
L 244.724905 104.498526 
L 244.806089 212.725895 
L 244.887273 123.597474 
L 245.049641 199.993263 
L 245.293192 129.963789 
L 245.374376 193.626947 
L 245.45556 161.795368 
L 245.536744 199.993263 
L 245.617928 129.963789 
L 245.699112 206.359579 
L 245.780296 180.894316 
L 245.86148 206.359579 
L 245.942664 187.260632 
L 246.023848 219.092211 
L 246.105032 168.161684 
L 246.186216 225.458526 
L 246.2674 174.528 
L 246.348584 187.260632 
L 246.510951 250.923789 
L 246.673319 149.062737 
L 246.754503 168.161684 
L 246.835687 168.161684 
L 246.998055 206.359579 
L 247.079239 187.260632 
L 247.160423 238.191158 
L 247.322791 155.429053 
L 247.403975 66.300632 
L 247.566342 180.894316 
L 247.647526 193.626947 
L 247.72871 231.824842 
L 247.891078 193.626947 
L 247.972262 238.191158 
L 248.378182 91.765895 
L 248.459366 199.993263 
L 248.54055 187.260632 
L 248.621734 129.963789 
L 248.784101 187.260632 
L 248.865285 174.528 
L 248.946469 104.498526 
L 249.108837 193.626947 
L 249.190021 149.062737 
L 249.271205 212.725895 
L 249.352389 155.429053 
L 249.514757 212.725895 
L 249.595941 199.993263 
L 249.758309 149.062737 
L 249.839493 193.626947 
L 249.920677 155.429053 
L 250.083044 257.290105 
L 250.245412 161.795368 
L 250.326596 168.161684 
L 250.40778 161.795368 
L 250.488964 199.993263 
L 250.570148 187.260632 
L 250.651332 206.359579 
L 250.732516 142.696421 
L 250.8137 155.429053 
L 250.894884 250.923789 
L 250.976068 104.498526 
L 251.057252 149.062737 
L 251.138436 225.458526 
L 251.300803 161.795368 
L 251.544355 193.626947 
L 251.625539 231.824842 
L 251.706723 168.161684 
L 251.950275 282.755368 
L 252.112643 199.993263 
L 252.193827 225.458526 
L 252.275011 110.864842 
L 252.437378 212.725895 
L 252.518562 187.260632 
L 252.599746 193.626947 
L 252.762114 206.359579 
L 252.843298 174.528 
L 252.924482 199.993263 
L 253.005666 270.022737 
L 253.168034 199.993263 
L 253.249218 199.993263 
L 253.330402 206.359579 
L 253.49277 187.260632 
L 253.573953 199.993263 
L 253.655137 142.696421 
L 253.817505 225.458526 
L 253.898689 123.597474 
L 254.061057 225.458526 
L 254.142241 149.062737 
L 254.223425 206.359579 
L 254.385793 129.963789 
L 254.466977 295.488 
L 254.548161 161.795368 
L 254.629345 212.725895 
L 254.710529 187.260632 
L 254.791712 238.191158 
L 254.872896 193.626947 
L 255.035264 244.557474 
L 255.116448 219.092211 
L 255.197632 155.429053 
L 255.278816 225.458526 
L 255.36 168.161684 
L 255.441184 206.359579 
L 255.603552 155.429053 
L 255.684736 193.626947 
L 255.847104 136.330105 
L 255.928288 212.725895 
L 256.009471 206.359579 
L 256.090655 219.092211 
L 256.253023 193.626947 
L 256.415391 136.330105 
L 256.496575 199.993263 
L 256.577759 174.528 
L 256.658943 225.458526 
L 256.821311 161.795368 
L 256.983679 199.993263 
L 257.064863 193.626947 
L 257.22723 168.161684 
L 257.389598 238.191158 
L 257.470782 225.458526 
L 257.551966 149.062737 
L 257.63315 231.824842 
L 257.795518 155.429053 
L 257.876702 129.963789 
L 258.03907 168.161684 
L 258.120254 180.894316 
L 258.201438 142.696421 
L 258.363805 212.725895 
L 258.444989 180.894316 
L 258.526173 238.191158 
L 258.769725 142.696421 
L 258.932093 174.528 
L 259.013277 174.528 
L 259.094461 238.191158 
L 259.338013 129.963789 
L 259.419197 219.092211 
L 259.500381 161.795368 
L 259.581564 180.894316 
L 259.662748 212.725895 
L 259.743932 174.528 
L 259.825116 199.993263 
L 259.9063 193.626947 
L 259.987484 199.993263 
L 260.149852 149.062737 
L 260.231036 212.725895 
L 260.31222 129.963789 
L 260.555772 250.923789 
L 260.636956 149.062737 
L 260.71814 168.161684 
L 260.799323 180.894316 
L 260.880507 161.795368 
L 260.961691 238.191158 
L 261.042875 212.725895 
L 261.124059 199.993263 
L 261.286427 263.656421 
L 261.367611 129.963789 
L 261.448795 206.359579 
L 261.529979 168.161684 
L 261.611163 193.626947 
L 261.773531 161.795368 
L 261.854715 199.993263 
L 261.935899 149.062737 
L 262.017082 168.161684 
L 262.098266 219.092211 
L 262.17945 206.359579 
L 262.260634 199.993263 
L 262.341818 180.894316 
L 262.423002 263.656421 
L 262.504186 161.795368 
L 262.666554 206.359579 
L 262.747738 199.993263 
L 262.828922 161.795368 
L 262.910106 231.824842 
L 262.99129 199.993263 
L 263.072474 257.290105 
L 263.234841 174.528 
L 263.316025 187.260632 
L 263.397209 136.330105 
L 263.640761 225.458526 
L 263.803129 129.963789 
L 263.965497 238.191158 
L 264.127865 180.894316 
L 264.209049 117.231158 
L 264.290233 136.330105 
L 264.371416 98.132211 
L 264.4526 161.795368 
L 264.533784 136.330105 
L 264.614968 180.894316 
L 264.696152 104.498526 
L 264.85852 193.626947 
L 265.020888 136.330105 
L 265.102072 199.993263 
L 265.183256 193.626947 
L 265.26444 199.993263 
L 265.426808 168.161684 
L 265.507992 193.626947 
L 265.589175 142.696421 
L 265.751543 257.290105 
L 265.832727 199.993263 
L 265.913911 219.092211 
L 265.995095 231.824842 
L 266.076279 225.458526 
L 266.238647 193.626947 
L 266.319831 212.725895 
L 266.563383 149.062737 
L 266.725751 206.359579 
L 266.806934 155.429053 
L 266.888118 225.458526 
L 267.13167 155.429053 
L 267.212854 180.894316 
L 267.294038 110.864842 
L 267.375222 123.597474 
L 267.456406 187.260632 
L 267.53759 117.231158 
L 267.618774 187.260632 
L 267.699958 168.161684 
L 267.781142 206.359579 
L 267.862326 193.626947 
L 267.94351 219.092211 
L 268.024693 212.725895 
L 268.105877 180.894316 
L 268.187061 199.993263 
L 268.268245 104.498526 
L 268.349429 238.191158 
L 268.430613 155.429053 
L 268.511797 206.359579 
L 268.592981 136.330105 
L 268.674165 149.062737 
L 268.836533 193.626947 
L 268.917717 142.696421 
L 269.080085 231.824842 
L 269.242452 142.696421 
L 269.323636 149.062737 
L 269.486004 199.993263 
L 269.567188 193.626947 
L 269.648372 199.993263 
L 269.729556 168.161684 
L 269.973108 238.191158 
L 270.135476 136.330105 
L 270.21666 199.993263 
L 270.297844 117.231158 
L 270.379027 250.923789 
L 270.541395 161.795368 
L 270.622579 206.359579 
L 270.703763 155.429053 
L 271.028499 250.923789 
L 271.109683 168.161684 
L 271.353235 250.923789 
L 271.515603 168.161684 
L 271.596786 187.260632 
L 271.67797 110.864842 
L 271.759154 238.191158 
L 271.840338 168.161684 
L 271.921522 180.894316 
L 272.002706 180.894316 
L 272.08389 155.429053 
L 272.165074 231.824842 
L 272.327442 187.260632 
L 272.408626 219.092211 
L 272.570994 199.993263 
L 272.652178 212.725895 
L 272.733362 149.062737 
L 272.814545 161.795368 
L 272.895729 238.191158 
L 272.976913 174.528 
L 273.058097 225.458526 
L 273.139281 168.161684 
L 273.220465 231.824842 
L 273.301649 225.458526 
L 273.464017 142.696421 
L 273.545201 161.795368 
L 273.626385 104.498526 
L 273.788753 187.260632 
L 273.951121 155.429053 
L 274.032304 282.755368 
L 274.275856 136.330105 
L 274.438224 199.993263 
L 274.600592 180.894316 
L 274.681776 174.528 
L 274.76296 142.696421 
L 274.925328 187.260632 
L 275.006512 142.696421 
L 275.087696 187.260632 
L 275.250063 161.795368 
L 275.331247 187.260632 
L 275.493615 168.161684 
L 275.574799 219.092211 
L 275.818351 129.963789 
L 275.899535 206.359579 
L 275.980719 149.062737 
L 276.061903 155.429053 
L 276.143087 257.290105 
L 276.224271 123.597474 
L 276.386638 174.528 
L 276.549006 149.062737 
L 276.711374 193.626947 
L 276.792558 136.330105 
L 276.873742 238.191158 
L 276.954926 168.161684 
L 277.03611 225.458526 
L 277.117294 199.993263 
L 277.198478 129.963789 
L 277.279662 263.656421 
L 277.360846 238.191158 
L 277.44203 180.894316 
L 277.523214 225.458526 
L 277.604397 161.795368 
L 277.685581 225.458526 
L 277.766765 193.626947 
L 277.847949 212.725895 
L 278.010317 155.429053 
L 278.172685 199.993263 
L 278.335053 257.290105 
L 278.497421 104.498526 
L 278.578605 193.626947 
L 278.659789 187.260632 
L 278.740973 219.092211 
L 278.822156 142.696421 
L 278.90334 187.260632 
L 278.984524 129.963789 
L 279.065708 174.528 
L 279.146892 129.963789 
L 279.30926 212.725895 
L 279.390444 206.359579 
L 279.552812 117.231158 
L 279.71518 180.894316 
L 279.796364 136.330105 
L 279.958732 212.725895 
L 280.039915 110.864842 
L 280.121099 180.894316 
L 280.202283 155.429053 
L 280.283467 161.795368 
L 280.364651 104.498526 
L 280.608203 263.656421 
L 280.689387 231.824842 
L 280.851755 110.864842 
L 280.932939 136.330105 
L 281.014123 238.191158 
L 281.17649 142.696421 
L 281.338858 174.528 
L 281.501226 231.824842 
L 281.663594 149.062737 
L 281.825962 219.092211 
L 281.907146 225.458526 
L 281.98833 155.429053 
L 282.069514 161.795368 
L 282.150698 206.359579 
L 282.231882 161.795368 
L 282.313066 282.755368 
L 282.394249 161.795368 
L 282.475433 180.894316 
L 282.556617 168.161684 
L 282.637801 117.231158 
L 282.718985 142.696421 
L 282.800169 270.022737 
L 282.962537 123.597474 
L 283.043721 174.528 
L 283.124905 149.062737 
L 283.287273 219.092211 
L 283.368457 98.132211 
L 283.449641 193.626947 
L 283.530825 149.062737 
L 283.612008 161.795368 
L 283.693192 250.923789 
L 283.774376 244.557474 
L 283.936744 123.597474 
L 284.017928 199.993263 
L 284.099112 110.864842 
L 284.180296 129.963789 
L 284.26148 174.528 
L 284.342664 161.795368 
L 284.423848 142.696421 
L 284.505032 250.923789 
L 284.586216 161.795368 
L 284.6674 193.626947 
L 284.748584 187.260632 
L 284.829767 193.626947 
L 284.910951 129.963789 
L 284.992135 225.458526 
L 285.073319 174.528 
L 285.154503 212.725895 
L 285.316871 136.330105 
L 285.398055 199.993263 
L 285.479239 187.260632 
L 285.641607 149.062737 
L 285.722791 244.557474 
L 285.803975 129.963789 
L 285.885159 136.330105 
L 285.966342 110.864842 
L 286.047526 129.963789 
L 286.291078 244.557474 
L 286.372262 110.864842 
L 286.615814 244.557474 
L 286.859366 142.696421 
L 286.94055 136.330105 
L 287.021734 225.458526 
L 287.102918 206.359579 
L 287.184101 117.231158 
L 287.346469 225.458526 
L 287.508837 136.330105 
L 287.671205 244.557474 
L 287.752389 123.597474 
L 287.833573 231.824842 
L 287.914757 225.458526 
L 287.995941 219.092211 
L 288.077125 225.458526 
L 288.158309 270.022737 
L 288.40186 149.062737 
L 288.564228 187.260632 
L 288.645412 142.696421 
L 288.80778 180.894316 
L 288.888964 193.626947 
L 288.970148 187.260632 
L 289.051332 206.359579 
L 289.132516 149.062737 
L 289.294884 231.824842 
L 289.376068 180.894316 
L 289.538436 199.993263 
L 289.619619 110.864842 
L 289.781987 193.626947 
L 290.025539 142.696421 
L 290.106723 231.824842 
L 290.269091 129.963789 
L 290.431459 206.359579 
L 290.512643 206.359579 
L 290.675011 123.597474 
L 290.756195 199.993263 
L 290.837378 187.260632 
L 290.918562 110.864842 
L 290.999746 168.161684 
L 291.08093 117.231158 
L 291.243298 219.092211 
L 291.48685 161.795368 
L 291.568034 187.260632 
L 291.649218 136.330105 
L 291.730402 231.824842 
L 291.811586 149.062737 
L 291.89277 161.795368 
L 291.973953 212.725895 
L 292.136321 104.498526 
L 292.298689 149.062737 
L 292.379873 206.359579 
L 292.461057 149.062737 
L 292.542241 193.626947 
L 292.623425 136.330105 
L 292.704609 187.260632 
L 292.785793 161.795368 
L 292.948161 212.725895 
L 293.029345 142.696421 
L 293.191712 219.092211 
L 293.272896 104.498526 
L 293.435264 180.894316 
L 293.516448 180.894316 
L 293.597632 219.092211 
L 293.678816 136.330105 
L 293.76 199.993263 
L 294.003552 149.062737 
L 294.084736 174.528 
L 294.16592 104.498526 
L 294.247104 142.696421 
L 294.328288 136.330105 
L 294.409471 123.597474 
L 294.571839 238.191158 
L 294.653023 168.161684 
L 294.734207 199.993263 
L 294.896575 155.429053 
L 294.977759 155.429053 
L 295.058943 149.062737 
L 295.140127 187.260632 
L 295.221311 168.161684 
L 295.302495 199.993263 
L 295.383679 91.765895 
L 295.464863 219.092211 
L 295.708414 79.033263 
L 295.789598 149.062737 
L 295.870782 136.330105 
L 296.03315 193.626947 
L 296.114334 168.161684 
L 296.195518 238.191158 
L 296.276702 149.062737 
L 296.357886 174.528 
L 296.43907 136.330105 
L 296.520254 180.894316 
L 296.601438 174.528 
L 296.682622 161.795368 
L 296.763805 174.528 
L 296.844989 168.161684 
L 296.926173 193.626947 
L 297.007357 174.528 
L 297.088541 187.260632 
L 297.169725 129.963789 
L 297.332093 199.993263 
L 297.413277 123.597474 
L 297.575645 206.359579 
L 297.656829 155.429053 
L 297.738013 161.795368 
L 297.900381 212.725895 
L 297.981564 168.161684 
L 298.143932 219.092211 
L 298.225116 212.725895 
L 298.3063 168.161684 
L 298.468668 212.725895 
L 298.549852 155.429053 
L 298.71222 206.359579 
L 298.793404 136.330105 
L 298.955772 212.725895 
L 299.036956 206.359579 
L 299.11814 231.824842 
L 299.361691 136.330105 
L 299.442875 149.062737 
L 299.524059 199.993263 
L 299.605243 168.161684 
L 299.686427 244.557474 
L 299.767611 129.963789 
L 299.848795 180.894316 
L 299.929979 168.161684 
L 300.011163 129.963789 
L 300.173531 231.824842 
L 300.254715 149.062737 
L 300.417082 187.260632 
L 300.498266 187.260632 
L 300.57945 168.161684 
L 300.660634 219.092211 
L 300.741818 193.626947 
L 300.823002 219.092211 
L 300.904186 206.359579 
L 301.066554 123.597474 
L 301.147738 231.824842 
L 301.228922 199.993263 
L 301.310106 155.429053 
L 301.39129 187.260632 
L 301.472474 155.429053 
L 301.634841 238.191158 
L 301.878393 168.161684 
L 301.959577 212.725895 
L 302.040761 161.795368 
L 302.121945 168.161684 
L 302.203129 199.993263 
L 302.365497 104.498526 
L 302.446681 212.725895 
L 302.527865 174.528 
L 302.609049 136.330105 
L 302.690233 180.894316 
L 302.8526 149.062737 
L 303.014968 199.993263 
L 303.177336 180.894316 
L 303.25852 123.597474 
L 303.339704 136.330105 
L 303.420888 149.062737 
L 303.66444 212.725895 
L 303.745624 244.557474 
L 303.826808 117.231158 
L 303.907992 238.191158 
L 304.070359 149.062737 
L 304.232727 206.359579 
L 304.313911 193.626947 
L 304.395095 219.092211 
L 304.638647 168.161684 
L 304.719831 180.894316 
L 304.801015 225.458526 
L 304.882199 212.725895 
L 304.963383 142.696421 
L 305.125751 238.191158 
L 305.288118 168.161684 
L 305.369302 187.260632 
L 305.450486 174.528 
L 305.53167 180.894316 
L 305.612854 174.528 
L 305.694038 193.626947 
L 305.856406 174.528 
L 305.93759 231.824842 
L 306.018774 136.330105 
L 306.099958 155.429053 
L 306.262326 225.458526 
L 306.34351 206.359579 
L 306.424693 231.824842 
L 306.505877 129.963789 
L 306.668245 180.894316 
L 306.749429 155.429053 
L 306.911797 212.725895 
L 306.992981 212.725895 
L 307.155349 161.795368 
L 307.317717 193.626947 
L 307.398901 155.429053 
L 307.480085 225.458526 
L 307.642452 161.795368 
L 307.80482 180.894316 
L 307.886004 250.923789 
L 307.967188 225.458526 
L 308.048372 155.429053 
L 308.21074 206.359579 
L 308.373108 168.161684 
L 308.454292 180.894316 
L 308.535476 263.656421 
L 308.697844 174.528 
L 308.860211 193.626947 
L 308.941395 155.429053 
L 309.022579 238.191158 
L 309.103763 231.824842 
L 309.184947 206.359579 
L 309.266131 238.191158 
L 309.347315 168.161684 
L 309.428499 206.359579 
L 309.509683 129.963789 
L 309.590867 206.359579 
L 309.672051 180.894316 
L 309.834419 142.696421 
L 309.915603 129.963789 
L 309.996786 149.062737 
L 310.07797 244.557474 
L 310.159154 225.458526 
L 310.240338 142.696421 
L 310.321522 174.528 
L 310.402706 129.963789 
L 310.565074 225.458526 
L 310.808626 98.132211 
L 310.88981 276.389053 
L 311.133362 142.696421 
L 311.214545 212.725895 
L 311.295729 187.260632 
L 311.376913 180.894316 
L 311.539281 149.062737 
L 311.620465 225.458526 
L 311.782833 136.330105 
L 311.864017 238.191158 
L 311.945201 219.092211 
L 312.107569 225.458526 
L 312.188753 174.528 
L 312.269937 199.993263 
L 312.351121 187.260632 
L 312.432304 206.359579 
L 312.594672 155.429053 
L 312.675856 193.626947 
L 312.75704 104.498526 
L 312.838224 117.231158 
L 312.919408 129.963789 
L 313.000592 123.597474 
L 313.081776 289.121684 
L 313.16296 161.795368 
L 313.244144 174.528 
L 313.406512 212.725895 
L 313.568879 110.864842 
L 313.731247 206.359579 
L 313.812431 212.725895 
L 313.893615 129.963789 
L 313.974799 225.458526 
L 314.055983 180.894316 
L 314.137167 199.993263 
L 314.218351 193.626947 
L 314.299535 149.062737 
L 314.380719 155.429053 
L 314.543087 168.161684 
L 314.624271 161.795368 
L 314.786638 193.626947 
L 314.867822 136.330105 
L 315.03019 244.557474 
L 315.111374 180.894316 
L 315.192558 219.092211 
L 315.273742 180.894316 
L 315.354926 187.260632 
L 315.517294 206.359579 
L 315.598478 161.795368 
L 315.679662 180.894316 
L 315.760846 295.488 
L 316.004397 161.795368 
L 316.085581 199.993263 
L 316.166765 155.429053 
L 316.247949 231.824842 
L 316.329133 180.894316 
L 316.410317 206.359579 
L 316.491501 187.260632 
L 316.572685 206.359579 
L 316.653869 193.626947 
L 316.735053 142.696421 
L 316.816237 225.458526 
L 316.897421 168.161684 
L 316.978605 250.923789 
L 317.140973 187.260632 
L 317.222156 199.993263 
L 317.30334 155.429053 
L 317.384524 219.092211 
L 317.465708 187.260632 
L 317.546892 193.626947 
L 317.70926 180.894316 
L 317.790444 174.528 
L 317.871628 193.626947 
L 317.952812 142.696421 
L 318.033996 199.993263 
L 318.11518 193.626947 
L 318.196364 155.429053 
L 318.277548 187.260632 
L 318.358732 123.597474 
L 318.439915 238.191158 
L 318.521099 193.626947 
L 318.602283 225.458526 
L 318.764651 180.894316 
L 318.845835 225.458526 
L 318.927019 129.963789 
L 319.008203 238.191158 
L 319.170571 129.963789 
L 319.251755 174.528 
L 319.332939 142.696421 
L 319.414123 161.795368 
L 319.495307 238.191158 
L 319.57649 117.231158 
L 319.657674 238.191158 
L 319.738858 231.824842 
L 319.820042 174.528 
L 319.901226 238.191158 
L 319.98241 123.597474 
L 320.063594 250.923789 
L 320.144778 129.963789 
L 320.225962 161.795368 
L 320.38833 123.597474 
L 320.469514 263.656421 
L 320.713066 149.062737 
L 320.794249 149.062737 
L 320.875433 174.528 
L 320.956617 250.923789 
L 321.037801 174.528 
L 321.118985 206.359579 
L 321.200169 180.894316 
L 321.362537 212.725895 
L 321.443721 136.330105 
L 321.524905 257.290105 
L 321.606089 231.824842 
L 321.687273 193.626947 
L 321.768457 212.725895 
L 321.849641 123.597474 
L 321.930825 180.894316 
L 322.012008 142.696421 
L 322.093192 168.161684 
L 322.174376 123.597474 
L 322.417928 206.359579 
L 322.499112 161.795368 
L 322.580296 168.161684 
L 322.66148 219.092211 
L 322.823848 161.795368 
L 322.905032 168.161684 
L 323.0674 104.498526 
L 323.148584 225.458526 
L 323.229767 174.528 
L 323.310951 206.359579 
L 323.392135 155.429053 
L 323.635687 289.121684 
L 323.716871 168.161684 
L 323.798055 219.092211 
L 323.960423 117.231158 
L 324.041607 129.963789 
L 324.122791 180.894316 
L 324.203975 98.132211 
L 324.285159 219.092211 
L 324.366342 187.260632 
L 324.609894 110.864842 
L 324.691078 199.993263 
L 324.772262 174.528 
L 324.853446 155.429053 
L 325.015814 168.161684 
L 325.096998 212.725895 
L 325.178182 161.795368 
L 325.259366 212.725895 
L 325.34055 161.795368 
L 325.421734 174.528 
L 325.502918 212.725895 
L 325.584101 129.963789 
L 325.665285 155.429053 
L 325.746469 193.626947 
L 325.827653 187.260632 
L 325.990021 155.429053 
L 326.152389 199.993263 
L 326.233573 206.359579 
L 326.314757 193.626947 
L 326.395941 225.458526 
L 326.477125 142.696421 
L 326.558309 206.359579 
L 326.639493 110.864842 
L 326.720677 193.626947 
L 326.80186 155.429053 
L 326.883044 206.359579 
L 326.964228 104.498526 
L 327.045412 244.557474 
L 327.126596 225.458526 
L 327.370148 110.864842 
L 327.532516 238.191158 
L 327.6137 250.923789 
L 327.776068 155.429053 
L 327.857252 219.092211 
L 327.938436 199.993263 
L 328.100803 161.795368 
L 328.181987 66.300632 
L 328.263171 244.557474 
L 328.344355 110.864842 
L 328.506723 206.359579 
L 328.669091 104.498526 
L 328.831459 206.359579 
L 328.912643 149.062737 
L 328.993827 238.191158 
L 329.075011 174.528 
L 329.318562 250.923789 
L 329.399746 212.725895 
L 329.48093 238.191158 
L 329.643298 136.330105 
L 329.968034 244.557474 
L 330.049218 199.993263 
L 330.130402 231.824842 
L 330.211586 123.597474 
L 330.373953 219.092211 
L 330.617505 155.429053 
L 330.779873 231.824842 
L 330.942241 180.894316 
L 331.023425 168.161684 
L 331.104609 193.626947 
L 331.185793 98.132211 
L 331.348161 206.359579 
L 331.510529 136.330105 
L 331.672896 193.626947 
L 331.75408 187.260632 
L 331.835264 276.389053 
L 331.916448 168.161684 
L 331.997632 180.894316 
L 332.078816 161.795368 
L 332.16 231.824842 
L 332.241184 174.528 
L 332.322368 199.993263 
L 332.403552 149.062737 
L 332.484736 174.528 
L 332.56592 136.330105 
L 332.647104 149.062737 
L 332.728288 142.696421 
L 332.809471 199.993263 
L 332.890655 142.696421 
L 332.971839 199.993263 
L 333.053023 180.894316 
L 333.134207 168.161684 
L 333.215391 180.894316 
L 333.296575 161.795368 
L 333.458943 193.626947 
L 333.621311 142.696421 
L 333.702495 155.429053 
L 333.783679 142.696421 
L 333.864863 155.429053 
L 333.946047 206.359579 
L 334.02723 161.795368 
L 334.108414 225.458526 
L 334.351966 136.330105 
L 334.514334 199.993263 
L 334.595518 193.626947 
L 334.676702 231.824842 
L 334.757886 219.092211 
L 334.83907 155.429053 
L 335.001438 180.894316 
L 335.082622 104.498526 
L 335.326173 193.626947 
L 335.407357 219.092211 
L 335.569725 136.330105 
L 335.650909 212.725895 
L 335.732093 187.260632 
L 335.813277 129.963789 
L 335.894461 168.161684 
L 335.975645 110.864842 
L 336.300381 219.092211 
L 336.381564 161.795368 
L 336.462748 168.161684 
L 336.543932 161.795368 
L 336.787484 219.092211 
L 336.868668 187.260632 
L 336.949852 193.626947 
L 337.11222 206.359579 
L 337.274588 123.597474 
L 337.355772 174.528 
L 337.436956 149.062737 
L 337.51814 219.092211 
L 337.599323 206.359579 
L 337.680507 155.429053 
L 337.761691 168.161684 
L 337.842875 149.062737 
L 338.005243 219.092211 
L 338.167611 142.696421 
L 338.248795 149.062737 
L 338.329979 219.092211 
L 338.492347 174.528 
L 338.654715 180.894316 
L 338.817082 206.359579 
L 338.97945 168.161684 
L 339.060634 193.626947 
L 339.223002 161.795368 
L 339.304186 199.993263 
L 339.38537 155.429053 
L 339.466554 219.092211 
L 339.628922 110.864842 
L 339.710106 212.725895 
L 339.79129 149.062737 
L 339.872474 193.626947 
L 339.953658 180.894316 
L 340.116025 212.725895 
L 340.278393 142.696421 
L 340.359577 187.260632 
L 340.440761 174.528 
L 340.603129 187.260632 
L 340.684313 180.894316 
L 340.765497 129.963789 
L 340.927865 212.725895 
L 341.009049 129.963789 
L 341.090233 149.062737 
L 341.171416 219.092211 
L 341.2526 155.429053 
L 341.333784 174.528 
L 341.414968 212.725895 
L 341.577336 168.161684 
L 341.65852 206.359579 
L 341.820888 136.330105 
L 341.902072 219.092211 
L 341.983256 161.795368 
L 342.06444 212.725895 
L 342.145624 161.795368 
L 342.226808 219.092211 
L 342.389175 174.528 
L 342.470359 168.161684 
L 342.632727 238.191158 
L 342.713911 161.795368 
L 342.795095 219.092211 
L 342.876279 187.260632 
L 342.957463 206.359579 
L 343.038647 257.290105 
L 343.282199 142.696421 
L 343.363383 123.597474 
L 343.525751 219.092211 
L 343.606934 168.161684 
L 343.688118 174.528 
L 343.769302 225.458526 
L 343.93167 161.795368 
L 344.012854 199.993263 
L 344.094038 187.260632 
L 344.175222 174.528 
L 344.256406 250.923789 
L 344.418774 199.993263 
L 344.499958 212.725895 
L 344.581142 174.528 
L 344.662326 212.725895 
L 344.74351 193.626947 
L 344.824693 225.458526 
L 344.905877 110.864842 
L 344.987061 142.696421 
L 345.068245 117.231158 
L 345.230613 199.993263 
L 345.311797 85.399579 
L 345.392981 225.458526 
L 345.474165 168.161684 
L 345.555349 174.528 
L 345.636533 161.795368 
L 346.042452 219.092211 
L 346.123636 149.062737 
L 346.20482 238.191158 
L 346.286004 231.824842 
L 346.367188 219.092211 
L 346.448372 142.696421 
L 346.529556 199.993263 
L 346.61074 161.795368 
L 346.691924 238.191158 
L 346.854292 174.528 
L 347.01666 193.626947 
L 347.097844 250.923789 
L 347.260211 85.399579 
L 347.341395 149.062737 
L 347.422579 129.963789 
L 347.666131 206.359579 
L 347.747315 212.725895 
L 347.828499 123.597474 
L 348.072051 206.359579 
L 348.153235 161.795368 
L 348.234419 206.359579 
L 348.559154 123.597474 
L 348.640338 238.191158 
L 348.721522 212.725895 
L 348.802706 168.161684 
L 348.88389 238.191158 
L 349.046258 174.528 
L 349.127442 168.161684 
L 349.208626 136.330105 
L 349.28981 155.429053 
L 349.370994 219.092211 
L 349.533362 123.597474 
L 349.614545 231.824842 
L 349.695729 142.696421 
L 349.776913 187.260632 
L 349.858097 180.894316 
L 349.939281 161.795368 
L 350.101649 212.725895 
L 350.264017 155.429053 
L 350.345201 174.528 
L 350.426385 149.062737 
L 350.507569 180.894316 
L 350.832304 129.963789 
L 350.913488 219.092211 
L 350.994672 180.894316 
L 351.15704 250.923789 
L 351.238224 142.696421 
L 351.319408 212.725895 
L 351.56296 136.330105 
L 351.725328 212.725895 
L 351.887696 129.963789 
L 351.968879 238.191158 
L 352.050063 225.458526 
L 352.212431 136.330105 
L 352.293615 206.359579 
L 352.374799 180.894316 
L 352.455983 110.864842 
L 352.699535 250.923789 
L 352.861903 142.696421 
L 352.943087 212.725895 
L 353.024271 193.626947 
L 353.105455 225.458526 
L 353.186638 174.528 
L 353.267822 238.191158 
L 353.349006 117.231158 
L 353.43019 193.626947 
L 353.511374 174.528 
L 353.592558 168.161684 
L 353.673742 149.062737 
L 353.917294 225.458526 
L 354.079662 117.231158 
L 354.160846 212.725895 
L 354.24203 187.260632 
L 354.404397 212.725895 
L 354.485581 129.963789 
L 354.566765 225.458526 
L 354.647949 206.359579 
L 354.729133 206.359579 
L 354.810317 117.231158 
L 354.972685 174.528 
L 355.053869 98.132211 
L 355.216237 193.626947 
L 355.297421 212.725895 
L 355.459789 142.696421 
L 355.70334 225.458526 
L 355.784524 142.696421 
L 356.028076 231.824842 
L 356.190444 187.260632 
L 356.271628 193.626947 
L 356.352812 117.231158 
L 356.51518 212.725895 
L 356.596364 225.458526 
L 356.677548 168.161684 
L 356.839915 199.993263 
L 356.921099 142.696421 
L 357.002283 149.062737 
L 357.164651 225.458526 
L 357.245835 168.161684 
L 357.327019 187.260632 
L 357.408203 199.993263 
L 357.489387 168.161684 
L 357.651755 263.656421 
L 357.732939 110.864842 
L 357.814123 161.795368 
L 357.895307 219.092211 
L 358.057674 142.696421 
L 358.138858 180.894316 
L 358.220042 161.795368 
L 358.38241 250.923789 
L 358.544778 180.894316 
L 358.625962 193.626947 
L 358.707146 180.894316 
L 358.78833 250.923789 
L 358.950698 155.429053 
L 359.194249 238.191158 
L 359.275433 219.092211 
L 359.356617 136.330105 
L 359.437801 193.626947 
L 359.518985 142.696421 
L 359.600169 168.161684 
L 359.681353 161.795368 
L 359.762537 149.062737 
L 359.843721 231.824842 
L 360.006089 129.963789 
L 360.087273 231.824842 
L 360.249641 155.429053 
L 360.330825 174.528 
L 360.493192 110.864842 
L 360.574376 168.161684 
L 360.65556 123.597474 
L 360.817928 199.993263 
L 360.980296 180.894316 
L 361.06148 219.092211 
L 361.142664 129.963789 
L 361.223848 219.092211 
L 361.305032 123.597474 
L 361.4674 174.528 
L 361.548584 129.963789 
L 361.629767 136.330105 
L 361.710951 180.894316 
L 361.792135 161.795368 
L 361.873319 187.260632 
L 362.035687 161.795368 
L 362.116871 257.290105 
L 362.279239 193.626947 
L 362.360423 193.626947 
L 362.522791 168.161684 
L 362.603975 174.528 
L 362.685159 168.161684 
L 362.766342 117.231158 
L 362.847526 231.824842 
L 362.92871 136.330105 
L 363.009894 199.993263 
L 363.091078 161.795368 
L 363.253446 231.824842 
L 363.415814 161.795368 
L 363.578182 212.725895 
L 363.659366 149.062737 
L 363.74055 187.260632 
L 363.821734 174.528 
L 363.984101 161.795368 
L 364.065285 180.894316 
L 364.146469 117.231158 
L 364.308837 212.725895 
L 364.471205 174.528 
L 364.552389 104.498526 
L 364.714757 219.092211 
L 364.795941 212.725895 
L 364.877125 180.894316 
L 364.958309 206.359579 
L 365.120677 129.963789 
L 365.20186 91.765895 
L 365.283044 142.696421 
L 365.364228 123.597474 
L 365.445412 174.528 
L 365.526596 129.963789 
L 365.770148 257.290105 
L 365.851332 142.696421 
L 365.932516 161.795368 
L 366.176068 238.191158 
L 366.257252 155.429053 
L 366.338436 206.359579 
L 366.419619 187.260632 
L 366.500803 257.290105 
L 366.581987 91.765895 
L 366.663171 142.696421 
L 366.825539 180.894316 
L 366.906723 155.429053 
L 366.987907 212.725895 
L 367.150275 142.696421 
L 367.231459 187.260632 
L 367.312643 136.330105 
L 367.556195 238.191158 
L 367.637378 161.795368 
L 367.718562 212.725895 
L 367.799746 174.528 
L 367.88093 206.359579 
L 367.962114 174.528 
L 368.043298 199.993263 
L 368.205666 168.161684 
L 368.28685 123.597474 
L 368.368034 225.458526 
L 368.530402 149.062737 
L 368.611586 219.092211 
L 368.69277 155.429053 
L 368.773953 270.022737 
L 368.936321 174.528 
L 369.017505 142.696421 
L 369.098689 212.725895 
L 369.179873 129.963789 
L 369.342241 193.626947 
L 369.423425 276.389053 
L 369.666977 123.597474 
L 369.829345 199.993263 
L 369.910529 168.161684 
L 369.991712 206.359579 
L 370.072896 174.528 
L 370.15408 282.755368 
L 370.235264 174.528 
L 370.316448 187.260632 
L 370.397632 187.260632 
L 370.478816 180.894316 
L 370.56 212.725895 
L 370.641184 104.498526 
L 370.722368 168.161684 
L 370.803552 98.132211 
L 370.96592 180.894316 
L 371.047104 142.696421 
L 371.128288 199.993263 
L 371.290655 129.963789 
L 371.453023 257.290105 
L 371.534207 193.626947 
L 371.615391 244.557474 
L 371.777759 129.963789 
L 371.858943 136.330105 
L 372.021311 187.260632 
L 372.183679 180.894316 
L 372.42723 104.498526 
L 372.508414 168.161684 
L 372.589598 161.795368 
L 372.670782 136.330105 
L 372.914334 206.359579 
L 372.995518 187.260632 
L 373.076702 136.330105 
L 373.157886 155.429053 
L 373.23907 72.666947 
L 373.320254 199.993263 
L 373.401438 193.626947 
L 373.482622 136.330105 
L 373.726173 270.022737 
L 373.807357 187.260632 
L 373.888541 206.359579 
L 373.969725 206.359579 
L 374.050909 168.161684 
L 374.132093 193.626947 
L 374.213277 110.864842 
L 374.375645 161.795368 
L 374.538013 206.359579 
L 374.781564 129.963789 
L 374.862748 206.359579 
L 374.943932 117.231158 
L 375.025116 206.359579 
L 375.1063 193.626947 
L 375.187484 187.260632 
L 375.268668 136.330105 
L 375.349852 142.696421 
L 375.431036 187.260632 
L 375.51222 180.894316 
L 375.593404 199.993263 
L 375.755772 168.161684 
L 375.91814 212.725895 
L 375.999323 193.626947 
L 376.080507 129.963789 
L 376.161691 136.330105 
L 376.324059 225.458526 
L 376.405243 180.894316 
L 376.486427 225.458526 
L 376.648795 155.429053 
L 376.892347 219.092211 
L 376.973531 149.062737 
L 377.054715 161.795368 
L 377.135899 212.725895 
L 377.298266 161.795368 
L 377.37945 199.993263 
L 377.460634 180.894316 
L 377.541818 225.458526 
L 377.704186 155.429053 
L 377.78537 219.092211 
L 377.866554 155.429053 
L 377.947738 168.161684 
L 378.028922 212.725895 
L 378.19129 168.161684 
L 378.272474 199.993263 
L 378.434841 168.161684 
L 378.597209 193.626947 
L 378.759577 161.795368 
L 378.840761 244.557474 
L 378.921945 225.458526 
L 379.003129 180.894316 
L 379.084313 250.923789 
L 379.246681 129.963789 
L 379.327865 180.894316 
L 379.409049 161.795368 
L 379.490233 193.626947 
L 379.6526 123.597474 
L 379.814968 187.260632 
L 379.896152 155.429053 
L 380.05852 225.458526 
L 380.139704 244.557474 
L 380.383256 155.429053 
L 380.46444 193.626947 
L 380.545624 187.260632 
L 380.626808 104.498526 
L 380.707992 244.557474 
L 380.789175 174.528 
L 380.870359 225.458526 
L 380.951543 174.528 
L 381.032727 180.894316 
L 381.113911 142.696421 
L 381.195095 180.894316 
L 381.276279 129.963789 
L 381.438647 193.626947 
L 381.519831 187.260632 
L 381.682199 123.597474 
L 381.763383 244.557474 
L 381.925751 155.429053 
L 382.006934 149.062737 
L 382.088118 244.557474 
L 382.169302 180.894316 
L 382.250486 231.824842 
L 382.412854 123.597474 
L 382.73759 231.824842 
L 382.818774 193.626947 
L 382.899958 244.557474 
L 383.305877 149.062737 
L 383.387061 155.429053 
L 383.468245 155.429053 
L 383.549429 263.656421 
L 383.630613 174.528 
L 383.711797 206.359579 
L 383.874165 136.330105 
L 383.955349 199.993263 
L 384.036533 174.528 
L 384.117717 85.399579 
L 384.361268 199.993263 
L 384.523636 168.161684 
L 384.60482 238.191158 
L 384.767188 174.528 
L 384.848372 161.795368 
L 384.929556 187.260632 
L 385.01074 180.894316 
L 385.091924 155.429053 
L 385.254292 168.161684 
L 385.335476 155.429053 
L 385.497844 174.528 
L 385.660211 238.191158 
L 385.741395 168.161684 
L 385.822579 187.260632 
L 385.984947 219.092211 
L 386.066131 168.161684 
L 386.147315 180.894316 
L 386.228499 238.191158 
L 386.309683 161.795368 
L 386.390867 206.359579 
L 386.472051 161.795368 
L 386.634419 219.092211 
L 386.715603 149.062737 
L 386.87797 199.993263 
L 386.959154 129.963789 
L 387.040338 155.429053 
L 387.121522 193.626947 
L 387.28389 136.330105 
L 387.365074 257.290105 
L 387.446258 187.260632 
L 387.527442 212.725895 
L 387.68981 174.528 
L 387.770994 180.894316 
L 387.933362 270.022737 
L 388.014545 142.696421 
L 388.095729 244.557474 
L 388.176913 174.528 
L 388.258097 206.359579 
L 388.339281 155.429053 
L 388.420465 219.092211 
L 388.501649 187.260632 
L 388.582833 199.993263 
L 388.664017 187.260632 
L 388.745201 225.458526 
L 388.907569 155.429053 
L 388.988753 238.191158 
L 389.069937 161.795368 
L 389.151121 238.191158 
L 389.313488 136.330105 
L 389.55704 250.923789 
L 389.800592 155.429053 
L 389.96296 231.824842 
L 390.044144 168.161684 
L 390.125328 250.923789 
L 390.287696 161.795368 
L 390.368879 231.824842 
L 390.450063 212.725895 
L 390.531247 212.725895 
L 390.612431 238.191158 
L 390.693615 231.824842 
L 390.774799 174.528 
L 390.937167 219.092211 
L 391.018351 149.062737 
L 391.180719 193.626947 
L 391.261903 123.597474 
L 391.343087 129.963789 
L 391.424271 136.330105 
L 391.505455 231.824842 
L 391.586638 168.161684 
L 391.667822 174.528 
L 391.749006 174.528 
L 391.83019 110.864842 
L 391.992558 219.092211 
L 392.154926 104.498526 
L 392.23611 187.260632 
L 392.317294 168.161684 
L 392.479662 174.528 
L 392.560846 142.696421 
L 392.64203 180.894316 
L 392.723214 136.330105 
L 392.804397 149.062737 
L 393.047949 238.191158 
L 393.129133 174.528 
L 393.291501 225.458526 
L 393.453869 129.963789 
L 393.616237 193.626947 
L 393.697421 129.963789 
L 393.859789 193.626947 
L 393.940973 117.231158 
L 394.022156 199.993263 
L 394.10334 161.795368 
L 394.265708 199.993263 
L 394.346892 123.597474 
L 394.428076 231.824842 
L 394.50926 142.696421 
L 394.590444 168.161684 
L 394.671628 276.389053 
L 394.752812 180.894316 
L 394.833996 199.993263 
L 394.91518 250.923789 
L 395.077548 193.626947 
L 395.158732 187.260632 
L 395.321099 250.923789 
L 395.402283 129.963789 
L 395.483467 193.626947 
L 395.564651 110.864842 
L 395.645835 206.359579 
L 395.808203 85.399579 
L 395.889387 98.132211 
L 395.970571 168.161684 
L 396.051755 155.429053 
L 396.132939 161.795368 
L 396.214123 72.666947 
L 396.37649 206.359579 
L 396.457674 187.260632 
L 396.538858 206.359579 
L 396.701226 168.161684 
L 396.78241 238.191158 
L 396.863594 123.597474 
L 396.944778 161.795368 
L 397.025962 276.389053 
L 397.18833 174.528 
L 397.269514 193.626947 
L 397.350698 129.963789 
L 397.431882 180.894316 
L 397.513066 174.528 
L 397.594249 180.894316 
L 397.675433 129.963789 
L 397.756617 149.062737 
L 397.837801 212.725895 
L 397.918985 155.429053 
L 398.000169 187.260632 
L 398.081353 174.528 
L 398.162537 142.696421 
L 398.243721 193.626947 
L 398.324905 187.260632 
L 398.406089 168.161684 
L 398.487273 98.132211 
L 398.487273 98.132211 
" clip-path="url(#pb2efbd6785)" style="fill: none; stroke: #1f77b4; stroke-width: 1.5; stroke-linecap: square"/>
   </g>
   <g id="patch_3">
    <path d="M 57.6 307.584 
L 57.6 41.472 
" style="fill: none; stroke: #000000; stroke-width: 0.8; stroke-linejoin: miter; stroke-linecap: square"/>
   </g>
   <g id="patch_4">
    <path d="M 414.72 307.584 
L 414.72 41.472 
" style="fill: none; stroke: #000000; stroke-width: 0.8; stroke-linejoin: miter; stroke-linecap: square"/>
   </g>
   <g id="patch_5">
    <path d="M 57.6 307.584 
L 414.72 307.584 
" style="fill: none; stroke: #000000; stroke-width: 0.8; stroke-linejoin: miter; stroke-linecap: square"/>
   </g>
   <g id="patch_6">
    <path d="M 57.6 41.472 
L 414.72 41.472 
" style="fill: none; stroke: #000000; stroke-width: 0.8; stroke-linejoin: miter; stroke-linecap: square"/>
   </g>
   <g id="text_20">
    <!-- Output firing rate -->
    <g transform="translate(183.793125 35.472) scale(0.12 -0.12)">
     <defs>
      <path id="DejaVuSans-4f" d="M 2522 4238 
Q 1834 4238 1429 3725 
Q 1025 3213 1025 2328 
Q 1025 1447 1429 934 
Q 1834 422 2522 422 
Q 3209 422 3611 934 
Q 4013 1447 4013 2328 
Q 4013 3213 3611 3725 
Q 3209 4238 2522 4238 
z
M 2522 4750 
Q 3503 4750 4090 4092 
Q 4678 3434 4678 2328 
Q 4678 1225 4090 567 
Q 3503 -91 2522 -91 
Q 1538 -91 948 565 
Q 359 1222 359 2328 
Q 359 3434 948 4092 
Q 1538 4750 2522 4750 
z
" transform="scale(0.015625)"/>
      <path id="DejaVuSans-75" d="M 544 1381 
L 544 3500 
L 1119 3500 
L 1119 1403 
Q 1119 906 1312 657 
Q 1506 409 1894 409 
Q 2359 409 2629 706 
Q 2900 1003 2900 1516 
L 2900 3500 
L 3475 3500 
L 3475 0 
L 2900 0 
L 2900 538 
Q 2691 219 2414 64 
Q 2138 -91 1772 -91 
Q 1169 -91 856 284 
Q 544 659 544 1381 
z
M 1991 3584 
L 1991 3584 
z
" transform="scale(0.015625)"/>
      <path id="DejaVuSans-70" d="M 1159 525 
L 1159 -1331 
L 581 -1331 
L 581 3500 
L 1159 3500 
L 1159 2969 
Q 1341 3281 1617 3432 
Q 1894 3584 2278 3584 
Q 2916 3584 3314 3078 
Q 3713 2572 3713 1747 
Q 3713 922 3314 415 
Q 2916 -91 2278 -91 
Q 1894 -91 1617 61 
Q 1341 213 1159 525 
z
M 3116 1747 
Q 3116 2381 2855 2742 
Q 2594 3103 2138 3103 
Q 1681 3103 1420 2742 
Q 1159 2381 1159 1747 
Q 1159 1113 1420 752 
Q 1681 391 2138 391 
Q 2594 391 2855 752 
Q 3116 1113 3116 1747 
z
" transform="scale(0.015625)"/>
      <path id="DejaVuSans-66" d="M 2375 4863 
L 2375 4384 
L 1825 4384 
Q 1516 4384 1395 4259 
Q 1275 4134 1275 3809 
L 1275 3500 
L 2222 3500 
L 2222 3053 
L 1275 3053 
L 1275 0 
L 697 0 
L 697 3053 
L 147 3053 
L 147 3500 
L 697 3500 
L 697 3744 
Q 697 4328 969 4595 
Q 1241 4863 1831 4863 
L 2375 4863 
z
" transform="scale(0.015625)"/>
     </defs>
     <use xlink:href="#DejaVuSans-4f"/>
     <use xlink:href="#DejaVuSans-75" x="78.710938"/>
     <use xlink:href="#DejaVuSans-74" x="142.089844"/>
     <use xlink:href="#DejaVuSans-70" x="181.298828"/>
     <use xlink:href="#DejaVuSans-75" x="244.775391"/>
     <use xlink:href="#DejaVuSans-74" x="308.154297"/>
     <use xlink:href="#DejaVuSans-20" x="347.363281"/>
     <use xlink:href="#DejaVuSans-66" x="379.150391"/>
     <use xlink:href="#DejaVuSans-69" x="414.355469"/>
     <use xlink:href="#DejaVuSans-72" x="442.138672"/>
     <use xlink:href="#DejaVuSans-69" x="483.251953"/>
     <use xlink:href="#DejaVuSans-6e" x="511.035156"/>
     <use xlink:href="#DejaVuSans-67" x="574.414062"/>
     <use xlink:href="#DejaVuSans-20" x="637.890625"/>
     <use xlink:href="#DejaVuSans-72" x="669.677734"/>
     <use xlink:href="#DejaVuSans-61" x="710.791016"/>
     <use xlink:href="#DejaVuSans-74" x="772.070312"/>
     <use xlink:href="#DejaVuSans-65" x="811.279297"/>
    </g>
   </g>
  </g>
 </g>
 <defs>
  <clipPath id="pb2efbd6785">
   <rect x="57.6" y="41.472" width="357.12" height="266.112"/>
  </clipPath>
 </defs>
</svg>
