<?xml version="1.0" encoding="utf-8" standalone="no"?>
<!DOCTYPE svg PUBLIC "-//W3C//DTD SVG 1.1//EN"
  "http://www.w3.org/Graphics/SVG/1.1/DTD/svg11.dtd">
<svg xmlns:xlink="http://www.w3.org/1999/xlink" width="460.8pt" height="345.6pt" viewBox="0 0 460.8 345.6" xmlns="http://www.w3.org/2000/svg" version="1.1">
 <metadata>
  <rdf:RDF xmlns:dc="http://purl.org/dc/elements/1.1/" xmlns:cc="http://creativecommons.org/ns#" xmlns:rdf="http://www.w3.org/1999/02/22-rdf-syntax-ns#">
   <cc:Work>
    <dc:type rdf:resource="http://purl.org/dc/dcmitype/StillImage"/>
    <dc:date>2023-05-03T18:34:06.580211</dc:date>
    <dc:format>image/svg+xml</dc:format>
    <dc:creator>
     <cc:Agent>
      <dc:title>Matplotlib v3.6.2, https://matplotlib.org/</dc:title>
     </cc:Agent>
    </dc:creator>
   </cc:Work>
  </rdf:RDF>
 </metadata>
 <defs>
  <style type="text/css">*{stroke-linejoin: round; stroke-linecap: butt}</style>
 </defs>
 <g id="figure_1">
  <g id="patch_1">
   <path d="M 0 345.6 
L 460.8 345.6 
L 460.8 0 
L 0 0 
z
" style="fill: #ffffff"/>
  </g>
  <g id="axes_1">
   <g id="patch_2">
    <path d="M 57.6 307.584 
L 414.72 307.584 
L 414.72 41.472 
L 57.6 41.472 
z
" style="fill: #ffffff"/>
   </g>
   <g id="matplotlib.axis_1">
    <g id="xtick_1">
     <g id="line2d_1">
      <defs>
       <path id="m4f4bf2dd15" d="M 0 0 
L 0 3.5 
" style="stroke: #000000; stroke-width: 0.8"/>
      </defs>
      <g>
       <use xlink:href="#m4f4bf2dd15" x="73.832727" y="307.584" style="stroke: #000000; stroke-width: 0.8"/>
      </g>
     </g>
     <g id="text_1">
      <!-- 0 -->
      <g transform="translate(70.651477 322.182437) scale(0.1 -0.1)">
       <defs>
        <path id="DejaVuSans-30" d="M 2034 4250 
Q 1547 4250 1301 3770 
Q 1056 3291 1056 2328 
Q 1056 1369 1301 889 
Q 1547 409 2034 409 
Q 2525 409 2770 889 
Q 3016 1369 3016 2328 
Q 3016 3291 2770 3770 
Q 2525 4250 2034 4250 
z
M 2034 4750 
Q 2819 4750 3233 4129 
Q 3647 3509 3647 2328 
Q 3647 1150 3233 529 
Q 2819 -91 2034 -91 
Q 1250 -91 836 529 
Q 422 1150 422 2328 
Q 422 3509 836 4129 
Q 1250 4750 2034 4750 
z
" transform="scale(0.015625)"/>
       </defs>
       <use xlink:href="#DejaVuSans-30"/>
      </g>
     </g>
    </g>
    <g id="xtick_2">
     <g id="line2d_2">
      <g>
       <use xlink:href="#m4f4bf2dd15" x="114.424693" y="307.584" style="stroke: #000000; stroke-width: 0.8"/>
      </g>
     </g>
     <g id="text_2">
      <!-- 500 -->
      <g transform="translate(104.880943 322.182437) scale(0.1 -0.1)">
       <defs>
        <path id="DejaVuSans-35" d="M 691 4666 
L 3169 4666 
L 3169 4134 
L 1269 4134 
L 1269 2991 
Q 1406 3038 1543 3061 
Q 1681 3084 1819 3084 
Q 2600 3084 3056 2656 
Q 3513 2228 3513 1497 
Q 3513 744 3044 326 
Q 2575 -91 1722 -91 
Q 1428 -91 1123 -41 
Q 819 9 494 109 
L 494 744 
Q 775 591 1075 516 
Q 1375 441 1709 441 
Q 2250 441 2565 725 
Q 2881 1009 2881 1497 
Q 2881 1984 2565 2268 
Q 2250 2553 1709 2553 
Q 1456 2553 1204 2497 
Q 953 2441 691 2322 
L 691 4666 
z
" transform="scale(0.015625)"/>
       </defs>
       <use xlink:href="#DejaVuSans-35"/>
       <use xlink:href="#DejaVuSans-30" x="63.623047"/>
       <use xlink:href="#DejaVuSans-30" x="127.246094"/>
      </g>
     </g>
    </g>
    <g id="xtick_3">
     <g id="line2d_3">
      <g>
       <use xlink:href="#m4f4bf2dd15" x="155.01666" y="307.584" style="stroke: #000000; stroke-width: 0.8"/>
      </g>
     </g>
     <g id="text_3">
      <!-- 1000 -->
      <g transform="translate(142.29166 322.182437) scale(0.1 -0.1)">
       <defs>
        <path id="DejaVuSans-31" d="M 794 531 
L 1825 531 
L 1825 4091 
L 703 3866 
L 703 4441 
L 1819 4666 
L 2450 4666 
L 2450 531 
L 3481 531 
L 3481 0 
L 794 0 
L 794 531 
z
" transform="scale(0.015625)"/>
       </defs>
       <use xlink:href="#DejaVuSans-31"/>
       <use xlink:href="#DejaVuSans-30" x="63.623047"/>
       <use xlink:href="#DejaVuSans-30" x="127.246094"/>
       <use xlink:href="#DejaVuSans-30" x="190.869141"/>
      </g>
     </g>
    </g>
    <g id="xtick_4">
     <g id="line2d_4">
      <g>
       <use xlink:href="#m4f4bf2dd15" x="195.608626" y="307.584" style="stroke: #000000; stroke-width: 0.8"/>
      </g>
     </g>
     <g id="text_4">
      <!-- 1500 -->
      <g transform="translate(182.883626 322.182437) scale(0.1 -0.1)">
       <use xlink:href="#DejaVuSans-31"/>
       <use xlink:href="#DejaVuSans-35" x="63.623047"/>
       <use xlink:href="#DejaVuSans-30" x="127.246094"/>
       <use xlink:href="#DejaVuSans-30" x="190.869141"/>
      </g>
     </g>
    </g>
    <g id="xtick_5">
     <g id="line2d_5">
      <g>
       <use xlink:href="#m4f4bf2dd15" x="236.200592" y="307.584" style="stroke: #000000; stroke-width: 0.8"/>
      </g>
     </g>
     <g id="text_5">
      <!-- 2000 -->
      <g transform="translate(223.475592 322.182437) scale(0.1 -0.1)">
       <defs>
        <path id="DejaVuSans-32" d="M 1228 531 
L 3431 531 
L 3431 0 
L 469 0 
L 469 531 
Q 828 903 1448 1529 
Q 2069 2156 2228 2338 
Q 2531 2678 2651 2914 
Q 2772 3150 2772 3378 
Q 2772 3750 2511 3984 
Q 2250 4219 1831 4219 
Q 1534 4219 1204 4116 
Q 875 4013 500 3803 
L 500 4441 
Q 881 4594 1212 4672 
Q 1544 4750 1819 4750 
Q 2544 4750 2975 4387 
Q 3406 4025 3406 3419 
Q 3406 3131 3298 2873 
Q 3191 2616 2906 2266 
Q 2828 2175 2409 1742 
Q 1991 1309 1228 531 
z
" transform="scale(0.015625)"/>
       </defs>
       <use xlink:href="#DejaVuSans-32"/>
       <use xlink:href="#DejaVuSans-30" x="63.623047"/>
       <use xlink:href="#DejaVuSans-30" x="127.246094"/>
       <use xlink:href="#DejaVuSans-30" x="190.869141"/>
      </g>
     </g>
    </g>
    <g id="xtick_6">
     <g id="line2d_6">
      <g>
       <use xlink:href="#m4f4bf2dd15" x="276.792558" y="307.584" style="stroke: #000000; stroke-width: 0.8"/>
      </g>
     </g>
     <g id="text_6">
      <!-- 2500 -->
      <g transform="translate(264.067558 322.182437) scale(0.1 -0.1)">
       <use xlink:href="#DejaVuSans-32"/>
       <use xlink:href="#DejaVuSans-35" x="63.623047"/>
       <use xlink:href="#DejaVuSans-30" x="127.246094"/>
       <use xlink:href="#DejaVuSans-30" x="190.869141"/>
      </g>
     </g>
    </g>
    <g id="xtick_7">
     <g id="line2d_7">
      <g>
       <use xlink:href="#m4f4bf2dd15" x="317.384524" y="307.584" style="stroke: #000000; stroke-width: 0.8"/>
      </g>
     </g>
     <g id="text_7">
      <!-- 3000 -->
      <g transform="translate(304.659524 322.182437) scale(0.1 -0.1)">
       <defs>
        <path id="DejaVuSans-33" d="M 2597 2516 
Q 3050 2419 3304 2112 
Q 3559 1806 3559 1356 
Q 3559 666 3084 287 
Q 2609 -91 1734 -91 
Q 1441 -91 1130 -33 
Q 819 25 488 141 
L 488 750 
Q 750 597 1062 519 
Q 1375 441 1716 441 
Q 2309 441 2620 675 
Q 2931 909 2931 1356 
Q 2931 1769 2642 2001 
Q 2353 2234 1838 2234 
L 1294 2234 
L 1294 2753 
L 1863 2753 
Q 2328 2753 2575 2939 
Q 2822 3125 2822 3475 
Q 2822 3834 2567 4026 
Q 2313 4219 1838 4219 
Q 1578 4219 1281 4162 
Q 984 4106 628 3988 
L 628 4550 
Q 988 4650 1302 4700 
Q 1616 4750 1894 4750 
Q 2613 4750 3031 4423 
Q 3450 4097 3450 3541 
Q 3450 3153 3228 2886 
Q 3006 2619 2597 2516 
z
" transform="scale(0.015625)"/>
       </defs>
       <use xlink:href="#DejaVuSans-33"/>
       <use xlink:href="#DejaVuSans-30" x="63.623047"/>
       <use xlink:href="#DejaVuSans-30" x="127.246094"/>
       <use xlink:href="#DejaVuSans-30" x="190.869141"/>
      </g>
     </g>
    </g>
    <g id="xtick_8">
     <g id="line2d_8">
      <g>
       <use xlink:href="#m4f4bf2dd15" x="357.97649" y="307.584" style="stroke: #000000; stroke-width: 0.8"/>
      </g>
     </g>
     <g id="text_8">
      <!-- 3500 -->
      <g transform="translate(345.25149 322.182437) scale(0.1 -0.1)">
       <use xlink:href="#DejaVuSans-33"/>
       <use xlink:href="#DejaVuSans-35" x="63.623047"/>
       <use xlink:href="#DejaVuSans-30" x="127.246094"/>
       <use xlink:href="#DejaVuSans-30" x="190.869141"/>
      </g>
     </g>
    </g>
    <g id="xtick_9">
     <g id="line2d_9">
      <g>
       <use xlink:href="#m4f4bf2dd15" x="398.568457" y="307.584" style="stroke: #000000; stroke-width: 0.8"/>
      </g>
     </g>
     <g id="text_9">
      <!-- 4000 -->
      <g transform="translate(385.843457 322.182437) scale(0.1 -0.1)">
       <defs>
        <path id="DejaVuSans-34" d="M 2419 4116 
L 825 1625 
L 2419 1625 
L 2419 4116 
z
M 2253 4666 
L 3047 4666 
L 3047 1625 
L 3713 1625 
L 3713 1100 
L 3047 1100 
L 3047 0 
L 2419 0 
L 2419 1100 
L 313 1100 
L 313 1709 
L 2253 4666 
z
" transform="scale(0.015625)"/>
       </defs>
       <use xlink:href="#DejaVuSans-34"/>
       <use xlink:href="#DejaVuSans-30" x="63.623047"/>
       <use xlink:href="#DejaVuSans-30" x="127.246094"/>
       <use xlink:href="#DejaVuSans-30" x="190.869141"/>
      </g>
     </g>
    </g>
    <g id="text_10">
     <!-- Image shown -->
     <g transform="translate(202.820156 335.860562) scale(0.1 -0.1)">
      <defs>
       <path id="DejaVuSans-49" d="M 628 4666 
L 1259 4666 
L 1259 0 
L 628 0 
L 628 4666 
z
" transform="scale(0.015625)"/>
       <path id="DejaVuSans-6d" d="M 3328 2828 
Q 3544 3216 3844 3400 
Q 4144 3584 4550 3584 
Q 5097 3584 5394 3201 
Q 5691 2819 5691 2113 
L 5691 0 
L 5113 0 
L 5113 2094 
Q 5113 2597 4934 2840 
Q 4756 3084 4391 3084 
Q 3944 3084 3684 2787 
Q 3425 2491 3425 1978 
L 3425 0 
L 2847 0 
L 2847 2094 
Q 2847 2600 2669 2842 
Q 2491 3084 2119 3084 
Q 1678 3084 1418 2786 
Q 1159 2488 1159 1978 
L 1159 0 
L 581 0 
L 581 3500 
L 1159 3500 
L 1159 2956 
Q 1356 3278 1631 3431 
Q 1906 3584 2284 3584 
Q 2666 3584 2933 3390 
Q 3200 3197 3328 2828 
z
" transform="scale(0.015625)"/>
       <path id="DejaVuSans-61" d="M 2194 1759 
Q 1497 1759 1228 1600 
Q 959 1441 959 1056 
Q 959 750 1161 570 
Q 1363 391 1709 391 
Q 2188 391 2477 730 
Q 2766 1069 2766 1631 
L 2766 1759 
L 2194 1759 
z
M 3341 1997 
L 3341 0 
L 2766 0 
L 2766 531 
Q 2569 213 2275 61 
Q 1981 -91 1556 -91 
Q 1019 -91 701 211 
Q 384 513 384 1019 
Q 384 1609 779 1909 
Q 1175 2209 1959 2209 
L 2766 2209 
L 2766 2266 
Q 2766 2663 2505 2880 
Q 2244 3097 1772 3097 
Q 1472 3097 1187 3025 
Q 903 2953 641 2809 
L 641 3341 
Q 956 3463 1253 3523 
Q 1550 3584 1831 3584 
Q 2591 3584 2966 3190 
Q 3341 2797 3341 1997 
z
" transform="scale(0.015625)"/>
       <path id="DejaVuSans-67" d="M 2906 1791 
Q 2906 2416 2648 2759 
Q 2391 3103 1925 3103 
Q 1463 3103 1205 2759 
Q 947 2416 947 1791 
Q 947 1169 1205 825 
Q 1463 481 1925 481 
Q 2391 481 2648 825 
Q 2906 1169 2906 1791 
z
M 3481 434 
Q 3481 -459 3084 -895 
Q 2688 -1331 1869 -1331 
Q 1566 -1331 1297 -1286 
Q 1028 -1241 775 -1147 
L 775 -588 
Q 1028 -725 1275 -790 
Q 1522 -856 1778 -856 
Q 2344 -856 2625 -561 
Q 2906 -266 2906 331 
L 2906 616 
Q 2728 306 2450 153 
Q 2172 0 1784 0 
Q 1141 0 747 490 
Q 353 981 353 1791 
Q 353 2603 747 3093 
Q 1141 3584 1784 3584 
Q 2172 3584 2450 3431 
Q 2728 3278 2906 2969 
L 2906 3500 
L 3481 3500 
L 3481 434 
z
" transform="scale(0.015625)"/>
       <path id="DejaVuSans-65" d="M 3597 1894 
L 3597 1613 
L 953 1613 
Q 991 1019 1311 708 
Q 1631 397 2203 397 
Q 2534 397 2845 478 
Q 3156 559 3463 722 
L 3463 178 
Q 3153 47 2828 -22 
Q 2503 -91 2169 -91 
Q 1331 -91 842 396 
Q 353 884 353 1716 
Q 353 2575 817 3079 
Q 1281 3584 2069 3584 
Q 2775 3584 3186 3129 
Q 3597 2675 3597 1894 
z
M 3022 2063 
Q 3016 2534 2758 2815 
Q 2500 3097 2075 3097 
Q 1594 3097 1305 2825 
Q 1016 2553 972 2059 
L 3022 2063 
z
" transform="scale(0.015625)"/>
       <path id="DejaVuSans-20" transform="scale(0.015625)"/>
       <path id="DejaVuSans-73" d="M 2834 3397 
L 2834 2853 
Q 2591 2978 2328 3040 
Q 2066 3103 1784 3103 
Q 1356 3103 1142 2972 
Q 928 2841 928 2578 
Q 928 2378 1081 2264 
Q 1234 2150 1697 2047 
L 1894 2003 
Q 2506 1872 2764 1633 
Q 3022 1394 3022 966 
Q 3022 478 2636 193 
Q 2250 -91 1575 -91 
Q 1294 -91 989 -36 
Q 684 19 347 128 
L 347 722 
Q 666 556 975 473 
Q 1284 391 1588 391 
Q 1994 391 2212 530 
Q 2431 669 2431 922 
Q 2431 1156 2273 1281 
Q 2116 1406 1581 1522 
L 1381 1569 
Q 847 1681 609 1914 
Q 372 2147 372 2553 
Q 372 3047 722 3315 
Q 1072 3584 1716 3584 
Q 2034 3584 2315 3537 
Q 2597 3491 2834 3397 
z
" transform="scale(0.015625)"/>
       <path id="DejaVuSans-68" d="M 3513 2113 
L 3513 0 
L 2938 0 
L 2938 2094 
Q 2938 2591 2744 2837 
Q 2550 3084 2163 3084 
Q 1697 3084 1428 2787 
Q 1159 2491 1159 1978 
L 1159 0 
L 581 0 
L 581 4863 
L 1159 4863 
L 1159 2956 
Q 1366 3272 1645 3428 
Q 1925 3584 2291 3584 
Q 2894 3584 3203 3211 
Q 3513 2838 3513 2113 
z
" transform="scale(0.015625)"/>
       <path id="DejaVuSans-6f" d="M 1959 3097 
Q 1497 3097 1228 2736 
Q 959 2375 959 1747 
Q 959 1119 1226 758 
Q 1494 397 1959 397 
Q 2419 397 2687 759 
Q 2956 1122 2956 1747 
Q 2956 2369 2687 2733 
Q 2419 3097 1959 3097 
z
M 1959 3584 
Q 2709 3584 3137 3096 
Q 3566 2609 3566 1747 
Q 3566 888 3137 398 
Q 2709 -91 1959 -91 
Q 1206 -91 779 398 
Q 353 888 353 1747 
Q 353 2609 779 3096 
Q 1206 3584 1959 3584 
z
" transform="scale(0.015625)"/>
       <path id="DejaVuSans-77" d="M 269 3500 
L 844 3500 
L 1563 769 
L 2278 3500 
L 2956 3500 
L 3675 769 
L 4391 3500 
L 4966 3500 
L 4050 0 
L 3372 0 
L 2619 2869 
L 1863 0 
L 1184 0 
L 269 3500 
z
" transform="scale(0.015625)"/>
       <path id="DejaVuSans-6e" d="M 3513 2113 
L 3513 0 
L 2938 0 
L 2938 2094 
Q 2938 2591 2744 2837 
Q 2550 3084 2163 3084 
Q 1697 3084 1428 2787 
Q 1159 2491 1159 1978 
L 1159 0 
L 581 0 
L 581 3500 
L 1159 3500 
L 1159 2956 
Q 1366 3272 1645 3428 
Q 1925 3584 2291 3584 
Q 2894 3584 3203 3211 
Q 3513 2838 3513 2113 
z
" transform="scale(0.015625)"/>
      </defs>
      <use xlink:href="#DejaVuSans-49"/>
      <use xlink:href="#DejaVuSans-6d" x="29.492188"/>
      <use xlink:href="#DejaVuSans-61" x="126.904297"/>
      <use xlink:href="#DejaVuSans-67" x="188.183594"/>
      <use xlink:href="#DejaVuSans-65" x="251.660156"/>
      <use xlink:href="#DejaVuSans-20" x="313.183594"/>
      <use xlink:href="#DejaVuSans-73" x="344.970703"/>
      <use xlink:href="#DejaVuSans-68" x="397.070312"/>
      <use xlink:href="#DejaVuSans-6f" x="460.449219"/>
      <use xlink:href="#DejaVuSans-77" x="521.630859"/>
      <use xlink:href="#DejaVuSans-6e" x="603.417969"/>
     </g>
    </g>
   </g>
   <g id="matplotlib.axis_2">
    <g id="ytick_1">
     <g id="line2d_10">
      <defs>
       <path id="mc2db2e9932" d="M 0 0 
L -3.5 0 
" style="stroke: #000000; stroke-width: 0.8"/>
      </defs>
      <g>
       <use xlink:href="#mc2db2e9932" x="57.6" y="302.026378" style="stroke: #000000; stroke-width: 0.8"/>
      </g>
     </g>
     <g id="text_11">
      <!-- 100 -->
      <g transform="translate(31.5125 305.825597) scale(0.1 -0.1)">
       <use xlink:href="#DejaVuSans-31"/>
       <use xlink:href="#DejaVuSans-30" x="63.623047"/>
       <use xlink:href="#DejaVuSans-30" x="127.246094"/>
      </g>
     </g>
    </g>
    <g id="ytick_2">
     <g id="line2d_11">
      <g>
       <use xlink:href="#mc2db2e9932" x="57.6" y="269.334486" style="stroke: #000000; stroke-width: 0.8"/>
      </g>
     </g>
     <g id="text_12">
      <!-- 125 -->
      <g transform="translate(31.5125 273.133705) scale(0.1 -0.1)">
       <use xlink:href="#DejaVuSans-31"/>
       <use xlink:href="#DejaVuSans-32" x="63.623047"/>
       <use xlink:href="#DejaVuSans-35" x="127.246094"/>
      </g>
     </g>
    </g>
    <g id="ytick_3">
     <g id="line2d_12">
      <g>
       <use xlink:href="#mc2db2e9932" x="57.6" y="236.642595" style="stroke: #000000; stroke-width: 0.8"/>
      </g>
     </g>
     <g id="text_13">
      <!-- 150 -->
      <g transform="translate(31.5125 240.441813) scale(0.1 -0.1)">
       <use xlink:href="#DejaVuSans-31"/>
       <use xlink:href="#DejaVuSans-35" x="63.623047"/>
       <use xlink:href="#DejaVuSans-30" x="127.246094"/>
      </g>
     </g>
    </g>
    <g id="ytick_4">
     <g id="line2d_13">
      <g>
       <use xlink:href="#mc2db2e9932" x="57.6" y="203.950703" style="stroke: #000000; stroke-width: 0.8"/>
      </g>
     </g>
     <g id="text_14">
      <!-- 175 -->
      <g transform="translate(31.5125 207.749921) scale(0.1 -0.1)">
       <defs>
        <path id="DejaVuSans-37" d="M 525 4666 
L 3525 4666 
L 3525 4397 
L 1831 0 
L 1172 0 
L 2766 4134 
L 525 4134 
L 525 4666 
z
" transform="scale(0.015625)"/>
       </defs>
       <use xlink:href="#DejaVuSans-31"/>
       <use xlink:href="#DejaVuSans-37" x="63.623047"/>
       <use xlink:href="#DejaVuSans-35" x="127.246094"/>
      </g>
     </g>
    </g>
    <g id="ytick_5">
     <g id="line2d_14">
      <g>
       <use xlink:href="#mc2db2e9932" x="57.6" y="171.258811" style="stroke: #000000; stroke-width: 0.8"/>
      </g>
     </g>
     <g id="text_15">
      <!-- 200 -->
      <g transform="translate(31.5125 175.05803) scale(0.1 -0.1)">
       <use xlink:href="#DejaVuSans-32"/>
       <use xlink:href="#DejaVuSans-30" x="63.623047"/>
       <use xlink:href="#DejaVuSans-30" x="127.246094"/>
      </g>
     </g>
    </g>
    <g id="ytick_6">
     <g id="line2d_15">
      <g>
       <use xlink:href="#mc2db2e9932" x="57.6" y="138.566919" style="stroke: #000000; stroke-width: 0.8"/>
      </g>
     </g>
     <g id="text_16">
      <!-- 225 -->
      <g transform="translate(31.5125 142.366138) scale(0.1 -0.1)">
       <use xlink:href="#DejaVuSans-32"/>
       <use xlink:href="#DejaVuSans-32" x="63.623047"/>
       <use xlink:href="#DejaVuSans-35" x="127.246094"/>
      </g>
     </g>
    </g>
    <g id="ytick_7">
     <g id="line2d_16">
      <g>
       <use xlink:href="#mc2db2e9932" x="57.6" y="105.875027" style="stroke: #000000; stroke-width: 0.8"/>
      </g>
     </g>
     <g id="text_17">
      <!-- 250 -->
      <g transform="translate(31.5125 109.674246) scale(0.1 -0.1)">
       <use xlink:href="#DejaVuSans-32"/>
       <use xlink:href="#DejaVuSans-35" x="63.623047"/>
       <use xlink:href="#DejaVuSans-30" x="127.246094"/>
      </g>
     </g>
    </g>
    <g id="ytick_8">
     <g id="line2d_17">
      <g>
       <use xlink:href="#mc2db2e9932" x="57.6" y="73.183135" style="stroke: #000000; stroke-width: 0.8"/>
      </g>
     </g>
     <g id="text_18">
      <!-- 275 -->
      <g transform="translate(31.5125 76.982354) scale(0.1 -0.1)">
       <use xlink:href="#DejaVuSans-32"/>
       <use xlink:href="#DejaVuSans-37" x="63.623047"/>
       <use xlink:href="#DejaVuSans-35" x="127.246094"/>
      </g>
     </g>
    </g>
    <g id="text_19">
     <!-- Firing rate [Hz] -->
     <g transform="translate(25.432812 211.838156) rotate(-90) scale(0.1 -0.1)">
      <defs>
       <path id="DejaVuSans-46" d="M 628 4666 
L 3309 4666 
L 3309 4134 
L 1259 4134 
L 1259 2759 
L 3109 2759 
L 3109 2228 
L 1259 2228 
L 1259 0 
L 628 0 
L 628 4666 
z
" transform="scale(0.015625)"/>
       <path id="DejaVuSans-69" d="M 603 3500 
L 1178 3500 
L 1178 0 
L 603 0 
L 603 3500 
z
M 603 4863 
L 1178 4863 
L 1178 4134 
L 603 4134 
L 603 4863 
z
" transform="scale(0.015625)"/>
       <path id="DejaVuSans-72" d="M 2631 2963 
Q 2534 3019 2420 3045 
Q 2306 3072 2169 3072 
Q 1681 3072 1420 2755 
Q 1159 2438 1159 1844 
L 1159 0 
L 581 0 
L 581 3500 
L 1159 3500 
L 1159 2956 
Q 1341 3275 1631 3429 
Q 1922 3584 2338 3584 
Q 2397 3584 2469 3576 
Q 2541 3569 2628 3553 
L 2631 2963 
z
" transform="scale(0.015625)"/>
       <path id="DejaVuSans-74" d="M 1172 4494 
L 1172 3500 
L 2356 3500 
L 2356 3053 
L 1172 3053 
L 1172 1153 
Q 1172 725 1289 603 
Q 1406 481 1766 481 
L 2356 481 
L 2356 0 
L 1766 0 
Q 1100 0 847 248 
Q 594 497 594 1153 
L 594 3053 
L 172 3053 
L 172 3500 
L 594 3500 
L 594 4494 
L 1172 4494 
z
" transform="scale(0.015625)"/>
       <path id="DejaVuSans-5b" d="M 550 4863 
L 1875 4863 
L 1875 4416 
L 1125 4416 
L 1125 -397 
L 1875 -397 
L 1875 -844 
L 550 -844 
L 550 4863 
z
" transform="scale(0.015625)"/>
       <path id="DejaVuSans-48" d="M 628 4666 
L 1259 4666 
L 1259 2753 
L 3553 2753 
L 3553 4666 
L 4184 4666 
L 4184 0 
L 3553 0 
L 3553 2222 
L 1259 2222 
L 1259 0 
L 628 0 
L 628 4666 
z
" transform="scale(0.015625)"/>
       <path id="DejaVuSans-7a" d="M 353 3500 
L 3084 3500 
L 3084 2975 
L 922 459 
L 3084 459 
L 3084 0 
L 275 0 
L 275 525 
L 2438 3041 
L 353 3041 
L 353 3500 
z
" transform="scale(0.015625)"/>
       <path id="DejaVuSans-5d" d="M 1947 4863 
L 1947 -844 
L 622 -844 
L 622 -397 
L 1369 -397 
L 1369 4416 
L 622 4416 
L 622 4863 
L 1947 4863 
z
" transform="scale(0.015625)"/>
      </defs>
      <use xlink:href="#DejaVuSans-46"/>
      <use xlink:href="#DejaVuSans-69" x="50.269531"/>
      <use xlink:href="#DejaVuSans-72" x="78.052734"/>
      <use xlink:href="#DejaVuSans-69" x="119.166016"/>
      <use xlink:href="#DejaVuSans-6e" x="146.949219"/>
      <use xlink:href="#DejaVuSans-67" x="210.328125"/>
      <use xlink:href="#DejaVuSans-20" x="273.804688"/>
      <use xlink:href="#DejaVuSans-72" x="305.591797"/>
      <use xlink:href="#DejaVuSans-61" x="346.705078"/>
      <use xlink:href="#DejaVuSans-74" x="407.984375"/>
      <use xlink:href="#DejaVuSans-65" x="447.193359"/>
      <use xlink:href="#DejaVuSans-20" x="508.716797"/>
      <use xlink:href="#DejaVuSans-5b" x="540.503906"/>
      <use xlink:href="#DejaVuSans-48" x="579.517578"/>
      <use xlink:href="#DejaVuSans-7a" x="654.712891"/>
      <use xlink:href="#DejaVuSans-5d" x="707.203125"/>
     </g>
    </g>
   </g>
   <g id="line2d_18">
    <path d="M 73.832727 203.950703 
L 73.913911 203.950703 
L 73.995095 230.104216 
L 74.157463 190.873946 
L 74.238647 275.872865 
L 74.319831 145.105297 
L 74.401015 190.873946 
L 74.482199 203.950703 
L 74.563383 197.412324 
L 74.644567 164.720432 
L 74.725751 171.258811 
L 74.806934 197.412324 
L 74.888118 145.105297 
L 74.969302 210.489081 
L 75.050486 118.951784 
L 75.212854 210.489081 
L 75.294038 158.182054 
L 75.456406 243.180973 
L 75.53759 177.797189 
L 75.618774 236.642595 
L 75.699958 184.335568 
L 75.781142 249.719351 
L 75.94351 171.258811 
L 76.024693 236.642595 
L 76.105877 164.720432 
L 76.268245 243.180973 
L 76.430613 184.335568 
L 76.674165 197.412324 
L 76.755349 138.566919 
L 76.917717 177.797189 
L 76.998901 164.720432 
L 77.161268 197.412324 
L 77.242452 262.796108 
L 77.323636 145.105297 
L 77.40482 197.412324 
L 77.486004 151.643676 
L 77.567188 249.719351 
L 77.648372 125.490162 
L 77.81074 203.950703 
L 77.891924 203.950703 
L 77.973108 210.489081 
L 78.135476 190.873946 
L 78.21666 217.027459 
L 78.379027 164.720432 
L 78.541395 217.027459 
L 78.622579 197.412324 
L 78.703763 203.950703 
L 78.784947 197.412324 
L 78.866131 243.180973 
L 78.947315 158.182054 
L 79.190867 282.411243 
L 79.272051 145.105297 
L 79.353235 217.027459 
L 79.434419 190.873946 
L 79.515603 190.873946 
L 79.596786 249.719351 
L 79.67797 158.182054 
L 79.759154 223.565838 
L 79.840338 151.643676 
L 79.921522 197.412324 
L 80.08389 125.490162 
L 80.408626 217.027459 
L 80.48981 190.873946 
L 80.570994 197.412324 
L 80.652178 184.335568 
L 80.733362 151.643676 
L 80.814545 230.104216 
L 80.895729 184.335568 
L 80.976913 190.873946 
L 81.058097 223.565838 
L 81.139281 210.489081 
L 81.301649 236.642595 
L 81.382833 236.642595 
L 81.464017 132.028541 
L 81.545201 275.872865 
L 81.707569 164.720432 
L 81.869937 210.489081 
L 81.951121 164.720432 
L 82.113488 210.489081 
L 82.194672 203.950703 
L 82.275856 210.489081 
L 82.438224 171.258811 
L 82.519408 203.950703 
L 82.600592 197.412324 
L 82.76296 177.797189 
L 82.844144 236.642595 
L 82.925328 223.565838 
L 83.006512 256.25773 
L 83.087696 203.950703 
L 83.168879 210.489081 
L 83.250063 184.335568 
L 83.331247 256.25773 
L 83.493615 164.720432 
L 83.574799 171.258811 
L 83.655983 203.950703 
L 83.818351 184.335568 
L 83.899535 243.180973 
L 83.980719 197.412324 
L 84.061903 249.719351 
L 84.143087 210.489081 
L 84.224271 256.25773 
L 84.305455 210.489081 
L 84.386638 256.25773 
L 84.467822 203.950703 
L 84.549006 282.411243 
L 84.63019 138.566919 
L 84.711374 249.719351 
L 84.792558 151.643676 
L 84.873742 184.335568 
L 85.03611 249.719351 
L 85.198478 210.489081 
L 85.360846 171.258811 
L 85.44203 184.335568 
L 85.523214 230.104216 
L 85.604397 197.412324 
L 85.685581 243.180973 
L 85.847949 164.720432 
L 86.010317 249.719351 
L 86.172685 184.335568 
L 86.253869 210.489081 
L 86.335053 158.182054 
L 86.659789 249.719351 
L 86.740973 203.950703 
L 86.822156 217.027459 
L 86.90334 236.642595 
L 86.984524 125.490162 
L 87.146892 243.180973 
L 87.228076 151.643676 
L 87.471628 249.719351 
L 87.552812 151.643676 
L 87.633996 177.797189 
L 87.71518 184.335568 
L 87.796364 249.719351 
L 87.958732 171.258811 
L 88.039915 230.104216 
L 88.121099 145.105297 
L 88.202283 190.873946 
L 88.283467 151.643676 
L 88.364651 210.489081 
L 88.445835 92.79827 
L 88.608203 249.719351 
L 88.689387 145.105297 
L 88.770571 256.25773 
L 88.932939 145.105297 
L 89.014123 262.796108 
L 89.095307 197.412324 
L 89.17649 210.489081 
L 89.257674 223.565838 
L 89.338858 158.182054 
L 89.420042 164.720432 
L 89.501226 184.335568 
L 89.663594 145.105297 
L 89.744778 203.950703 
L 89.825962 164.720432 
L 89.98833 243.180973 
L 90.069514 158.182054 
L 90.150698 190.873946 
L 90.231882 177.797189 
L 90.313066 184.335568 
L 90.394249 210.489081 
L 90.475433 171.258811 
L 90.556617 177.797189 
L 90.637801 184.335568 
L 90.718985 145.105297 
L 90.881353 236.642595 
L 90.962537 177.797189 
L 91.043721 223.565838 
L 91.124905 177.797189 
L 91.206089 217.027459 
L 91.368457 171.258811 
L 91.449641 197.412324 
L 91.530825 190.873946 
L 91.612008 203.950703 
L 91.693192 256.25773 
L 91.774376 190.873946 
L 91.85556 230.104216 
L 91.936744 164.720432 
L 92.017928 217.027459 
L 92.180296 177.797189 
L 92.26148 164.720432 
L 92.423848 256.25773 
L 92.586216 171.258811 
L 92.6674 171.258811 
L 92.992135 217.027459 
L 93.073319 132.028541 
L 93.316871 249.719351 
L 93.479239 210.489081 
L 93.560423 230.104216 
L 93.641607 203.950703 
L 93.722791 236.642595 
L 93.803975 171.258811 
L 93.885159 184.335568 
L 93.966342 177.797189 
L 94.047526 203.950703 
L 94.209894 158.182054 
L 94.453446 203.950703 
L 94.53463 105.875027 
L 94.615814 203.950703 
L 94.696998 184.335568 
L 94.778182 203.950703 
L 94.859366 190.873946 
L 94.94055 269.334486 
L 95.184101 184.335568 
L 95.265285 158.182054 
L 95.427653 177.797189 
L 95.508837 145.105297 
L 95.671205 230.104216 
L 95.752389 132.028541 
L 95.833573 145.105297 
L 95.914757 210.489081 
L 95.995941 138.566919 
L 96.077125 217.027459 
L 96.158309 184.335568 
L 96.239493 217.027459 
L 96.320677 203.950703 
L 96.40186 138.566919 
L 96.726596 230.104216 
L 96.80778 217.027459 
L 96.888964 243.180973 
L 97.051332 145.105297 
L 97.132516 197.412324 
L 97.2137 184.335568 
L 97.294884 184.335568 
L 97.376068 118.951784 
L 97.457252 243.180973 
L 97.538436 197.412324 
L 97.700803 132.028541 
L 97.863171 223.565838 
L 97.944355 223.565838 
L 98.106723 125.490162 
L 98.269091 243.180973 
L 98.431459 184.335568 
L 98.512643 210.489081 
L 98.593827 125.490162 
L 98.918562 230.104216 
L 98.999746 138.566919 
L 99.08093 171.258811 
L 99.162114 217.027459 
L 99.243298 190.873946 
L 99.324482 223.565838 
L 99.405666 151.643676 
L 99.48685 171.258811 
L 99.568034 184.335568 
L 99.649218 243.180973 
L 99.811586 177.797189 
L 99.89277 197.412324 
L 99.973953 184.335568 
L 100.136321 236.642595 
L 100.379873 171.258811 
L 100.461057 243.180973 
L 100.542241 203.950703 
L 100.623425 210.489081 
L 100.704609 184.335568 
L 100.866977 203.950703 
L 100.948161 190.873946 
L 101.029345 158.182054 
L 101.110529 164.720432 
L 101.191712 158.182054 
L 101.272896 171.258811 
L 101.435264 275.872865 
L 101.597632 171.258811 
L 101.678816 190.873946 
L 101.76 171.258811 
L 101.841184 223.565838 
L 102.084736 171.258811 
L 102.16592 190.873946 
L 102.247104 158.182054 
L 102.328288 236.642595 
L 102.490655 177.797189 
L 102.653023 210.489081 
L 102.734207 177.797189 
L 102.896575 236.642595 
L 103.140127 164.720432 
L 103.221311 177.797189 
L 103.383679 223.565838 
L 103.546047 184.335568 
L 103.62723 145.105297 
L 103.708414 171.258811 
L 103.789598 151.643676 
L 103.870782 217.027459 
L 104.03315 190.873946 
L 104.114334 184.335568 
L 104.276702 217.027459 
L 104.601438 132.028541 
L 104.763805 197.412324 
L 104.844989 145.105297 
L 104.926173 158.182054 
L 105.007357 132.028541 
L 105.169725 210.489081 
L 105.250909 217.027459 
L 105.413277 151.643676 
L 105.575645 171.258811 
L 105.656829 171.258811 
L 105.738013 158.182054 
L 105.819197 203.950703 
L 105.981564 151.643676 
L 106.062748 249.719351 
L 106.225116 138.566919 
L 106.3063 145.105297 
L 106.387484 223.565838 
L 106.468668 197.412324 
L 106.549852 151.643676 
L 106.631036 249.719351 
L 106.793404 132.028541 
L 106.874588 243.180973 
L 106.955772 73.183135 
L 107.11814 171.258811 
L 107.199323 184.335568 
L 107.280507 164.720432 
L 107.361691 171.258811 
L 107.442875 60.106378 
L 107.605243 230.104216 
L 107.848795 158.182054 
L 107.929979 197.412324 
L 108.092347 138.566919 
L 108.173531 210.489081 
L 108.254715 197.412324 
L 108.335899 125.490162 
L 108.417082 177.797189 
L 108.57945 125.490162 
L 108.741818 217.027459 
L 108.823002 230.104216 
L 108.904186 132.028541 
L 109.066554 236.642595 
L 109.147738 223.565838 
L 109.228922 243.180973 
L 109.39129 158.182054 
L 109.553658 197.412324 
L 109.716025 190.873946 
L 109.797209 138.566919 
L 109.878393 230.104216 
L 109.959577 197.412324 
L 110.040761 197.412324 
L 110.121945 92.79827 
L 110.203129 118.951784 
L 110.527865 243.180973 
L 110.609049 145.105297 
L 110.690233 210.489081 
L 110.771416 92.79827 
L 110.933784 197.412324 
L 111.014968 210.489081 
L 111.177336 125.490162 
L 111.25852 190.873946 
L 111.339704 177.797189 
L 111.420888 145.105297 
L 111.583256 223.565838 
L 111.66444 190.873946 
L 111.745624 210.489081 
L 111.826808 158.182054 
L 111.907992 223.565838 
L 112.070359 145.105297 
L 112.151543 164.720432 
L 112.313911 230.104216 
L 112.395095 125.490162 
L 112.476279 184.335568 
L 112.557463 158.182054 
L 112.638647 217.027459 
L 112.801015 138.566919 
L 112.963383 177.797189 
L 113.044567 86.259892 
L 113.206934 171.258811 
L 113.369302 171.258811 
L 113.450486 210.489081 
L 113.53167 118.951784 
L 113.612854 197.412324 
L 113.694038 184.335568 
L 113.775222 230.104216 
L 113.856406 171.258811 
L 113.93759 275.872865 
L 114.018774 164.720432 
L 114.099958 197.412324 
L 114.181142 197.412324 
L 114.262326 243.180973 
L 114.424693 158.182054 
L 114.505877 164.720432 
L 114.668245 230.104216 
L 114.749429 197.412324 
L 114.830613 203.950703 
L 114.911797 203.950703 
L 114.992981 249.719351 
L 115.155349 177.797189 
L 115.236533 184.335568 
L 115.317717 210.489081 
L 115.398901 197.412324 
L 115.480085 223.565838 
L 115.561268 171.258811 
L 115.642452 203.950703 
L 115.80482 151.643676 
L 115.886004 217.027459 
L 116.048372 145.105297 
L 116.373108 236.642595 
L 116.535476 177.797189 
L 116.61666 184.335568 
L 116.779027 151.643676 
L 116.860211 210.489081 
L 116.941395 177.797189 
L 117.184947 282.411243 
L 117.266131 236.642595 
L 117.347315 118.951784 
L 117.509683 203.950703 
L 117.672051 145.105297 
L 117.834419 217.027459 
L 117.915603 164.720432 
L 117.996786 217.027459 
L 118.07797 197.412324 
L 118.159154 217.027459 
L 118.240338 158.182054 
L 118.321522 210.489081 
L 118.565074 151.643676 
L 118.727442 171.258811 
L 118.808626 269.334486 
L 118.970994 138.566919 
L 119.052178 184.335568 
L 119.133362 171.258811 
L 119.295729 190.873946 
L 119.539281 92.79827 
L 119.620465 217.027459 
L 119.701649 158.182054 
L 119.782833 249.719351 
L 119.864017 158.182054 
L 119.945201 184.335568 
L 120.026385 164.720432 
L 120.107569 223.565838 
L 120.188753 138.566919 
L 120.269937 223.565838 
L 120.432304 164.720432 
L 120.513488 177.797189 
L 120.594672 158.182054 
L 120.675856 217.027459 
L 120.838224 158.182054 
L 121.081776 256.25773 
L 121.16296 177.797189 
L 121.244144 203.950703 
L 121.325328 158.182054 
L 121.406512 171.258811 
L 121.487696 203.950703 
L 121.568879 145.105297 
L 121.650063 177.797189 
L 121.731247 105.875027 
L 121.812431 217.027459 
L 121.893615 190.873946 
L 121.974799 203.950703 
L 122.137167 190.873946 
L 122.218351 158.182054 
L 122.299535 230.104216 
L 122.380719 203.950703 
L 122.461903 217.027459 
L 122.543087 184.335568 
L 122.705455 223.565838 
L 122.786638 138.566919 
L 122.867822 203.950703 
L 122.949006 177.797189 
L 123.03019 197.412324 
L 123.111374 184.335568 
L 123.192558 203.950703 
L 123.273742 171.258811 
L 123.354926 256.25773 
L 123.517294 171.258811 
L 123.679662 132.028541 
L 123.760846 210.489081 
L 123.923214 105.875027 
L 124.085581 230.104216 
L 124.166765 171.258811 
L 124.247949 203.950703 
L 124.329133 138.566919 
L 124.410317 151.643676 
L 124.491501 203.950703 
L 124.572685 138.566919 
L 124.653869 223.565838 
L 124.816237 125.490162 
L 124.897421 230.104216 
L 124.978605 217.027459 
L 125.059789 138.566919 
L 125.140973 145.105297 
L 125.222156 145.105297 
L 125.384524 230.104216 
L 125.546892 99.336649 
L 125.70926 197.412324 
L 125.790444 118.951784 
L 125.871628 132.028541 
L 126.033996 190.873946 
L 126.11518 171.258811 
L 126.196364 177.797189 
L 126.277548 223.565838 
L 126.521099 164.720432 
L 126.602283 190.873946 
L 126.683467 171.258811 
L 126.764651 105.875027 
L 126.845835 197.412324 
L 126.927019 158.182054 
L 127.008203 210.489081 
L 127.089387 145.105297 
L 127.251755 203.950703 
L 127.332939 151.643676 
L 127.414123 236.642595 
L 127.657674 118.951784 
L 127.901226 236.642595 
L 128.063594 190.873946 
L 128.144778 171.258811 
L 128.225962 236.642595 
L 128.38833 158.182054 
L 128.631882 190.873946 
L 128.713066 125.490162 
L 128.875433 184.335568 
L 128.956617 184.335568 
L 129.037801 190.873946 
L 129.118985 217.027459 
L 129.200169 184.335568 
L 129.281353 105.875027 
L 129.362537 210.489081 
L 129.443721 158.182054 
L 129.606089 177.797189 
L 129.687273 184.335568 
L 129.768457 158.182054 
L 129.849641 197.412324 
L 129.930825 158.182054 
L 130.012008 210.489081 
L 130.093192 132.028541 
L 130.174376 158.182054 
L 130.25556 230.104216 
L 130.336744 164.720432 
L 130.417928 171.258811 
L 130.499112 190.873946 
L 130.66148 86.259892 
L 130.823848 164.720432 
L 130.905032 125.490162 
L 130.986216 197.412324 
L 131.0674 112.413405 
L 131.310951 210.489081 
L 131.392135 210.489081 
L 131.473319 164.720432 
L 131.554503 177.797189 
L 131.635687 164.720432 
L 131.716871 177.797189 
L 131.798055 151.643676 
L 131.879239 177.797189 
L 132.041607 138.566919 
L 132.203975 243.180973 
L 132.285159 184.335568 
L 132.447526 249.719351 
L 132.52871 210.489081 
L 132.609894 236.642595 
L 132.691078 138.566919 
L 132.93463 230.104216 
L 133.096998 132.028541 
L 133.178182 164.720432 
L 133.259366 243.180973 
L 133.34055 203.950703 
L 133.421734 230.104216 
L 133.502918 184.335568 
L 133.584101 190.873946 
L 133.665285 223.565838 
L 133.746469 217.027459 
L 133.908837 118.951784 
L 134.071205 171.258811 
L 134.152389 171.258811 
L 134.314757 145.105297 
L 134.395941 158.182054 
L 134.477125 92.79827 
L 134.639493 190.873946 
L 134.80186 210.489081 
L 134.964228 112.413405 
L 135.045412 164.720432 
L 135.126596 145.105297 
L 135.288964 184.335568 
L 135.370148 275.872865 
L 135.532516 158.182054 
L 135.694884 177.797189 
L 135.776068 151.643676 
L 136.019619 197.412324 
L 136.100803 177.797189 
L 136.181987 203.950703 
L 136.344355 171.258811 
L 136.425539 197.412324 
L 136.506723 164.720432 
L 136.587907 243.180973 
L 136.669091 223.565838 
L 136.750275 125.490162 
L 136.831459 164.720432 
L 136.912643 99.336649 
L 137.156195 197.412324 
L 137.237378 230.104216 
L 137.318562 223.565838 
L 137.48093 184.335568 
L 137.562114 203.950703 
L 137.643298 138.566919 
L 137.724482 243.180973 
L 137.805666 177.797189 
L 137.88685 210.489081 
L 137.968034 197.412324 
L 138.130402 132.028541 
L 138.29277 217.027459 
L 138.373953 177.797189 
L 138.455137 210.489081 
L 138.698689 164.720432 
L 138.779873 184.335568 
L 138.861057 92.79827 
L 139.023425 151.643676 
L 139.104609 145.105297 
L 139.266977 190.873946 
L 139.348161 177.797189 
L 139.429345 151.643676 
L 139.510529 203.950703 
L 139.591712 177.797189 
L 139.672896 184.335568 
L 139.75408 210.489081 
L 139.916448 145.105297 
L 139.997632 217.027459 
L 140.078816 177.797189 
L 140.16 217.027459 
L 140.241184 197.412324 
L 140.322368 217.027459 
L 140.403552 145.105297 
L 140.484736 177.797189 
L 140.56592 118.951784 
L 140.647104 138.566919 
L 140.728288 171.258811 
L 140.809471 125.490162 
L 140.890655 203.950703 
L 140.971839 177.797189 
L 141.053023 217.027459 
L 141.134207 158.182054 
L 141.215391 184.335568 
L 141.296575 118.951784 
L 141.377759 184.335568 
L 141.458943 177.797189 
L 141.540127 217.027459 
L 141.702495 132.028541 
L 141.783679 158.182054 
L 141.864863 138.566919 
L 141.946047 243.180973 
L 142.02723 210.489081 
L 142.108414 171.258811 
L 142.270782 190.873946 
L 142.351966 164.720432 
L 142.514334 243.180973 
L 142.757886 99.336649 
L 142.920254 217.027459 
L 143.001438 210.489081 
L 143.082622 236.642595 
L 143.244989 203.950703 
L 143.326173 145.105297 
L 143.407357 223.565838 
L 143.488541 158.182054 
L 143.569725 164.720432 
L 143.650909 158.182054 
L 143.732093 177.797189 
L 143.813277 151.643676 
L 144.056829 217.027459 
L 144.138013 164.720432 
L 144.219197 184.335568 
L 144.300381 164.720432 
L 144.381564 210.489081 
L 144.462748 125.490162 
L 144.543932 217.027459 
L 144.625116 184.335568 
L 144.7063 197.412324 
L 144.787484 184.335568 
L 144.868668 230.104216 
L 145.031036 151.643676 
L 145.193404 203.950703 
L 145.274588 190.873946 
L 145.355772 118.951784 
L 145.436956 177.797189 
L 145.51814 145.105297 
L 145.599323 164.720432 
L 145.680507 230.104216 
L 145.761691 151.643676 
L 145.842875 171.258811 
L 145.924059 158.182054 
L 146.005243 197.412324 
L 146.086427 151.643676 
L 146.167611 177.797189 
L 146.329979 151.643676 
L 146.411163 184.335568 
L 146.492347 151.643676 
L 146.573531 197.412324 
L 146.654715 164.720432 
L 146.735899 230.104216 
L 146.817082 145.105297 
L 146.898266 230.104216 
L 147.060634 138.566919 
L 147.304186 217.027459 
L 147.38537 217.027459 
L 147.547738 60.106378 
L 147.628922 190.873946 
L 147.710106 158.182054 
L 147.79129 151.643676 
L 147.872474 118.951784 
L 147.953658 184.335568 
L 148.034841 171.258811 
L 148.116025 112.413405 
L 148.197209 243.180973 
L 148.278393 203.950703 
L 148.521945 151.643676 
L 148.603129 184.335568 
L 148.684313 164.720432 
L 148.765497 177.797189 
L 148.927865 164.720432 
L 149.009049 145.105297 
L 149.090233 236.642595 
L 149.171416 171.258811 
L 149.2526 236.642595 
L 149.414968 118.951784 
L 149.496152 151.643676 
L 149.577336 125.490162 
L 149.65852 171.258811 
L 149.739704 112.413405 
L 149.820888 132.028541 
L 149.902072 151.643676 
L 149.983256 249.719351 
L 150.06444 184.335568 
L 150.145624 197.412324 
L 150.226808 236.642595 
L 150.389175 105.875027 
L 150.470359 158.182054 
L 150.551543 158.182054 
L 150.632727 217.027459 
L 150.795095 125.490162 
L 150.876279 256.25773 
L 151.038647 145.105297 
L 151.119831 184.335568 
L 151.201015 171.258811 
L 151.282199 164.720432 
L 151.363383 203.950703 
L 151.444567 184.335568 
L 151.606934 132.028541 
L 151.688118 177.797189 
L 151.769302 164.720432 
L 151.850486 164.720432 
L 151.93167 184.335568 
L 152.012854 125.490162 
L 152.175222 197.412324 
L 152.256406 171.258811 
L 152.33759 217.027459 
L 152.581142 151.643676 
L 152.662326 151.643676 
L 152.824693 203.950703 
L 152.905877 203.950703 
L 152.987061 164.720432 
L 153.068245 171.258811 
L 153.149429 164.720432 
L 153.230613 118.951784 
L 153.392981 177.797189 
L 153.474165 197.412324 
L 153.555349 158.182054 
L 153.717717 210.489081 
L 153.880085 138.566919 
L 154.042452 171.258811 
L 154.123636 138.566919 
L 154.20482 275.872865 
L 154.448372 158.182054 
L 154.529556 171.258811 
L 154.61074 203.950703 
L 154.773108 151.643676 
L 154.854292 164.720432 
L 154.935476 138.566919 
L 155.01666 197.412324 
L 155.097844 184.335568 
L 155.179027 125.490162 
L 155.260211 132.028541 
L 155.341395 118.951784 
L 155.503763 230.104216 
L 155.584947 158.182054 
L 155.666131 177.797189 
L 155.747315 132.028541 
L 155.828499 203.950703 
L 155.909683 145.105297 
L 155.990867 190.873946 
L 156.072051 158.182054 
L 156.153235 223.565838 
L 156.315603 151.643676 
L 156.47797 275.872865 
L 156.640338 151.643676 
L 156.802706 223.565838 
L 156.88389 177.797189 
L 156.965074 275.872865 
L 157.127442 145.105297 
L 157.208626 171.258811 
L 157.28981 112.413405 
L 157.452178 184.335568 
L 157.533362 184.335568 
L 157.614545 203.950703 
L 157.695729 197.412324 
L 157.776913 210.489081 
L 157.939281 184.335568 
L 158.020465 190.873946 
L 158.101649 151.643676 
L 158.264017 171.258811 
L 158.345201 158.182054 
L 158.507569 210.489081 
L 158.669937 138.566919 
L 158.751121 197.412324 
L 158.832304 184.335568 
L 158.913488 79.721514 
L 158.994672 197.412324 
L 159.075856 164.720432 
L 159.15704 230.104216 
L 159.319408 132.028541 
L 159.400592 203.950703 
L 159.56296 86.259892 
L 159.725328 230.104216 
L 159.806512 217.027459 
L 159.887696 118.951784 
L 159.968879 132.028541 
L 160.050063 132.028541 
L 160.131247 164.720432 
L 160.212431 145.105297 
L 160.293615 190.873946 
L 160.374799 158.182054 
L 160.455983 164.720432 
L 160.537167 164.720432 
L 160.618351 223.565838 
L 160.699535 158.182054 
L 160.780719 177.797189 
L 160.861903 190.873946 
L 160.943087 256.25773 
L 161.024271 190.873946 
L 161.105455 230.104216 
L 161.349006 145.105297 
L 161.511374 203.950703 
L 161.592558 171.258811 
L 161.673742 217.027459 
L 161.754926 203.950703 
L 161.917294 138.566919 
L 161.998478 145.105297 
L 162.079662 249.719351 
L 162.160846 177.797189 
L 162.24203 223.565838 
L 162.485581 158.182054 
L 162.566765 164.720432 
L 162.647949 151.643676 
L 162.729133 236.642595 
L 162.810317 151.643676 
L 162.891501 171.258811 
L 163.135053 190.873946 
L 163.216237 138.566919 
L 163.297421 151.643676 
L 163.459789 230.104216 
L 163.622156 125.490162 
L 163.70334 184.335568 
L 163.784524 145.105297 
L 164.028076 230.104216 
L 164.10926 164.720432 
L 164.271628 197.412324 
L 164.352812 184.335568 
L 164.433996 243.180973 
L 164.51518 112.413405 
L 164.677548 210.489081 
L 164.921099 151.643676 
L 165.002283 230.104216 
L 165.083467 158.182054 
L 165.164651 203.950703 
L 165.245835 145.105297 
L 165.327019 158.182054 
L 165.408203 151.643676 
L 165.489387 223.565838 
L 165.651755 92.79827 
L 165.732939 132.028541 
L 165.814123 86.259892 
L 165.895307 164.720432 
L 165.97649 138.566919 
L 166.057674 171.258811 
L 166.138858 151.643676 
L 166.220042 249.719351 
L 166.463594 158.182054 
L 166.544778 158.182054 
L 166.78833 230.104216 
L 166.950698 158.182054 
L 167.031882 177.797189 
L 167.194249 203.950703 
L 167.275433 118.951784 
L 167.356617 236.642595 
L 167.437801 164.720432 
L 167.518985 190.873946 
L 167.681353 184.335568 
L 167.762537 105.875027 
L 167.843721 236.642595 
L 167.924905 190.873946 
L 168.006089 197.412324 
L 168.087273 190.873946 
L 168.168457 230.104216 
L 168.412008 151.643676 
L 168.493192 203.950703 
L 168.574376 197.412324 
L 168.65556 197.412324 
L 168.736744 210.489081 
L 168.817928 145.105297 
L 168.899112 151.643676 
L 168.980296 243.180973 
L 169.06148 184.335568 
L 169.142664 190.873946 
L 169.223848 158.182054 
L 169.386216 217.027459 
L 169.4674 164.720432 
L 169.629767 223.565838 
L 169.792135 118.951784 
L 169.873319 145.105297 
L 169.954503 158.182054 
L 170.035687 190.873946 
L 170.279239 125.490162 
L 170.360423 125.490162 
L 170.522791 249.719351 
L 170.603975 184.335568 
L 170.685159 210.489081 
L 170.766342 138.566919 
L 170.847526 164.720432 
L 170.92871 118.951784 
L 171.091078 236.642595 
L 171.33463 105.875027 
L 171.415814 210.489081 
L 171.496998 158.182054 
L 171.578182 197.412324 
L 171.659366 190.873946 
L 171.821734 132.028541 
L 171.902918 151.643676 
L 172.065285 125.490162 
L 172.227653 197.412324 
L 172.308837 99.336649 
L 172.471205 190.873946 
L 172.714757 230.104216 
L 172.795941 217.027459 
L 172.958309 145.105297 
L 173.039493 151.643676 
L 173.20186 197.412324 
L 173.364228 112.413405 
L 173.445412 223.565838 
L 173.526596 92.79827 
L 173.688964 171.258811 
L 173.851332 151.643676 
L 173.932516 125.490162 
L 174.0137 132.028541 
L 174.094884 125.490162 
L 174.257252 203.950703 
L 174.338436 118.951784 
L 174.500803 203.950703 
L 174.581987 158.182054 
L 174.663171 171.258811 
L 174.744355 158.182054 
L 174.906723 210.489081 
L 174.987907 145.105297 
L 175.069091 177.797189 
L 175.150275 118.951784 
L 175.231459 177.797189 
L 175.312643 132.028541 
L 175.475011 217.027459 
L 175.556195 171.258811 
L 175.637378 223.565838 
L 175.799746 132.028541 
L 175.962114 190.873946 
L 176.043298 158.182054 
L 176.124482 249.719351 
L 176.28685 184.335568 
L 176.368034 158.182054 
L 176.611586 210.489081 
L 176.69277 230.104216 
L 176.773953 164.720432 
L 176.855137 262.796108 
L 176.936321 132.028541 
L 177.017505 184.335568 
L 177.098689 171.258811 
L 177.179873 197.412324 
L 177.261057 190.873946 
L 177.342241 158.182054 
L 177.423425 171.258811 
L 177.504609 158.182054 
L 177.585793 210.489081 
L 177.666977 145.105297 
L 177.748161 190.873946 
L 177.829345 145.105297 
L 177.910529 151.643676 
L 177.991712 158.182054 
L 178.072896 262.796108 
L 178.235264 190.873946 
L 178.316448 197.412324 
L 178.397632 145.105297 
L 178.641184 177.797189 
L 178.722368 132.028541 
L 178.884736 230.104216 
L 178.96592 230.104216 
L 179.209471 132.028541 
L 179.290655 177.797189 
L 179.453023 132.028541 
L 179.615391 236.642595 
L 179.696575 145.105297 
L 179.777759 197.412324 
L 179.940127 171.258811 
L 180.021311 203.950703 
L 180.102495 92.79827 
L 180.264863 184.335568 
L 180.346047 164.720432 
L 180.42723 203.950703 
L 180.508414 151.643676 
L 180.589598 236.642595 
L 180.670782 138.566919 
L 180.751966 223.565838 
L 180.914334 184.335568 
L 181.076702 210.489081 
L 181.320254 138.566919 
L 181.401438 171.258811 
L 181.482622 164.720432 
L 181.644989 171.258811 
L 181.726173 125.490162 
L 181.807357 210.489081 
L 181.888541 138.566919 
L 181.969725 177.797189 
L 182.050909 164.720432 
L 182.132093 158.182054 
L 182.213277 99.336649 
L 182.294461 184.335568 
L 182.375645 164.720432 
L 182.456829 217.027459 
L 182.538013 138.566919 
L 182.619197 184.335568 
L 182.700381 145.105297 
L 182.781564 249.719351 
L 182.862748 79.721514 
L 182.943932 105.875027 
L 183.1063 230.104216 
L 183.187484 151.643676 
L 183.268668 171.258811 
L 183.349852 145.105297 
L 183.51222 184.335568 
L 183.593404 132.028541 
L 183.755772 171.258811 
L 183.836956 243.180973 
L 183.91814 223.565838 
L 183.999323 230.104216 
L 184.080507 197.412324 
L 184.161691 217.027459 
L 184.242875 184.335568 
L 184.405243 210.489081 
L 184.486427 184.335568 
L 184.567611 112.413405 
L 184.729979 217.027459 
L 184.811163 177.797189 
L 184.892347 184.335568 
L 185.054715 151.643676 
L 185.135899 203.950703 
L 185.298266 164.720432 
L 185.37945 92.79827 
L 185.460634 184.335568 
L 185.541818 138.566919 
L 185.623002 197.412324 
L 185.78537 112.413405 
L 186.110106 236.642595 
L 186.19129 217.027459 
L 186.272474 99.336649 
L 186.353658 105.875027 
L 186.516025 184.335568 
L 186.597209 132.028541 
L 186.678393 138.566919 
L 186.759577 197.412324 
L 186.840761 158.182054 
L 187.003129 184.335568 
L 187.084313 151.643676 
L 187.165497 223.565838 
L 187.246681 197.412324 
L 187.327865 197.412324 
L 187.490233 171.258811 
L 187.571416 203.950703 
L 187.6526 151.643676 
L 187.733784 171.258811 
L 187.814968 125.490162 
L 187.896152 269.334486 
L 187.977336 243.180973 
L 188.220888 151.643676 
L 188.302072 151.643676 
L 188.383256 223.565838 
L 188.545624 132.028541 
L 188.626808 132.028541 
L 188.707992 125.490162 
L 188.789175 138.566919 
L 188.870359 92.79827 
L 189.032727 197.412324 
L 189.113911 138.566919 
L 189.195095 151.643676 
L 189.357463 230.104216 
L 189.438647 145.105297 
L 189.519831 158.182054 
L 189.601015 145.105297 
L 189.682199 197.412324 
L 189.763383 79.721514 
L 189.844567 184.335568 
L 189.925751 138.566919 
L 190.088118 203.950703 
L 190.169302 66.644757 
L 190.33167 184.335568 
L 190.412854 151.643676 
L 190.494038 164.720432 
L 190.575222 223.565838 
L 190.656406 112.413405 
L 190.73759 132.028541 
L 190.981142 203.950703 
L 191.062326 177.797189 
L 191.14351 203.950703 
L 191.224693 151.643676 
L 191.305877 158.182054 
L 191.387061 132.028541 
L 191.468245 171.258811 
L 191.549429 151.643676 
L 191.630613 164.720432 
L 191.874165 112.413405 
L 192.117717 236.642595 
L 192.198901 158.182054 
L 192.280085 177.797189 
L 192.361268 171.258811 
L 192.442452 256.25773 
L 192.523636 177.797189 
L 192.60482 184.335568 
L 192.686004 210.489081 
L 192.848372 164.720432 
L 192.929556 190.873946 
L 193.01074 105.875027 
L 193.173108 217.027459 
L 193.254292 105.875027 
L 193.335476 217.027459 
L 193.41666 158.182054 
L 193.579027 190.873946 
L 193.741395 118.951784 
L 193.822579 171.258811 
L 193.903763 145.105297 
L 193.984947 223.565838 
L 194.147315 99.336649 
L 194.228499 197.412324 
L 194.309683 177.797189 
L 194.390867 249.719351 
L 194.472051 230.104216 
L 194.553235 190.873946 
L 194.634419 203.950703 
L 194.715603 184.335568 
L 194.87797 243.180973 
L 194.959154 138.566919 
L 195.040338 171.258811 
L 195.121522 190.873946 
L 195.28389 158.182054 
L 195.365074 171.258811 
L 195.446258 210.489081 
L 195.527442 171.258811 
L 195.608626 177.797189 
L 195.68981 190.873946 
L 195.770994 177.797189 
L 195.852178 145.105297 
L 195.933362 197.412324 
L 196.014545 151.643676 
L 196.095729 164.720432 
L 196.258097 105.875027 
L 196.501649 184.335568 
L 196.664017 99.336649 
L 196.745201 158.182054 
L 196.826385 151.643676 
L 196.907569 164.720432 
L 196.988753 197.412324 
L 197.069937 190.873946 
L 197.151121 203.950703 
L 197.232304 145.105297 
L 197.313488 164.720432 
L 197.394672 203.950703 
L 197.475856 145.105297 
L 197.638224 197.412324 
L 197.719408 151.643676 
L 197.800592 210.489081 
L 197.881776 145.105297 
L 197.96296 164.720432 
L 198.044144 256.25773 
L 198.125328 190.873946 
L 198.206512 197.412324 
L 198.450063 79.721514 
L 198.612431 190.873946 
L 198.693615 145.105297 
L 198.774799 158.182054 
L 199.018351 217.027459 
L 199.099535 145.105297 
L 199.180719 230.104216 
L 199.343087 118.951784 
L 199.586638 203.950703 
L 199.667822 158.182054 
L 199.749006 177.797189 
L 199.83019 138.566919 
L 199.911374 210.489081 
L 199.992558 151.643676 
L 200.073742 203.950703 
L 200.23611 158.182054 
L 200.317294 164.720432 
L 200.398478 145.105297 
L 200.479662 223.565838 
L 200.64203 158.182054 
L 200.723214 197.412324 
L 200.804397 184.335568 
L 200.966765 210.489081 
L 201.047949 138.566919 
L 201.210317 236.642595 
L 201.291501 158.182054 
L 201.372685 164.720432 
L 201.453869 145.105297 
L 201.697421 197.412324 
L 201.778605 132.028541 
L 201.859789 203.950703 
L 201.940973 171.258811 
L 202.022156 210.489081 
L 202.10334 164.720432 
L 202.184524 177.797189 
L 202.346892 158.182054 
L 202.428076 177.797189 
L 202.50926 151.643676 
L 202.590444 158.182054 
L 202.671628 158.182054 
L 202.833996 210.489081 
L 202.91518 158.182054 
L 203.077548 223.565838 
L 203.158732 92.79827 
L 203.239915 132.028541 
L 203.321099 184.335568 
L 203.402283 177.797189 
L 203.483467 177.797189 
L 203.564651 217.027459 
L 203.645835 112.413405 
L 203.727019 184.335568 
L 203.808203 73.183135 
L 203.970571 217.027459 
L 204.132939 112.413405 
L 204.295307 230.104216 
L 204.457674 132.028541 
L 204.538858 210.489081 
L 204.620042 197.412324 
L 204.78241 223.565838 
L 204.863594 125.490162 
L 205.025962 184.335568 
L 205.18833 158.182054 
L 205.269514 190.873946 
L 205.431882 132.028541 
L 205.675433 190.873946 
L 205.756617 177.797189 
L 205.837801 99.336649 
L 205.918985 184.335568 
L 206.000169 151.643676 
L 206.081353 164.720432 
L 206.162537 203.950703 
L 206.243721 132.028541 
L 206.324905 145.105297 
L 206.406089 118.951784 
L 206.487273 151.643676 
L 206.649641 118.951784 
L 206.893192 243.180973 
L 207.05556 151.643676 
L 207.136744 223.565838 
L 207.299112 138.566919 
L 207.380296 112.413405 
L 207.46148 210.489081 
L 207.623848 125.490162 
L 207.786216 203.950703 
L 207.8674 112.413405 
L 207.948584 197.412324 
L 208.029767 125.490162 
L 208.110951 210.489081 
L 208.192135 164.720432 
L 208.273319 171.258811 
L 208.354503 177.797189 
L 208.435687 125.490162 
L 208.516871 145.105297 
L 208.598055 230.104216 
L 208.679239 145.105297 
L 208.760423 230.104216 
L 208.922791 184.335568 
L 209.003975 171.258811 
L 209.085159 105.875027 
L 209.247526 203.950703 
L 209.32871 145.105297 
L 209.409894 203.950703 
L 209.491078 184.335568 
L 209.572262 112.413405 
L 209.653446 197.412324 
L 209.73463 171.258811 
L 209.815814 223.565838 
L 209.978182 125.490162 
L 210.059366 138.566919 
L 210.221734 210.489081 
L 210.302918 138.566919 
L 210.384101 197.412324 
L 210.465285 171.258811 
L 210.627653 197.412324 
L 210.708837 92.79827 
L 210.790021 210.489081 
L 210.871205 145.105297 
L 210.952389 203.950703 
L 211.033573 197.412324 
L 211.114757 164.720432 
L 211.277125 190.873946 
L 211.439493 132.028541 
L 211.520677 217.027459 
L 211.60186 99.336649 
L 211.683044 125.490162 
L 211.764228 112.413405 
L 211.926596 223.565838 
L 212.00778 217.027459 
L 212.088964 217.027459 
L 212.251332 145.105297 
L 212.332516 223.565838 
L 212.4137 158.182054 
L 212.494884 190.873946 
L 212.576068 125.490162 
L 212.657252 243.180973 
L 212.819619 145.105297 
L 212.900803 230.104216 
L 213.063171 138.566919 
L 213.144355 190.873946 
L 213.225539 112.413405 
L 213.306723 125.490162 
L 213.469091 197.412324 
L 213.550275 269.334486 
L 213.712643 151.643676 
L 213.793827 164.720432 
L 213.875011 210.489081 
L 213.956195 132.028541 
L 214.037378 184.335568 
L 214.118562 132.028541 
L 214.362114 190.873946 
L 214.524482 138.566919 
L 214.605666 210.489081 
L 214.68685 158.182054 
L 214.768034 230.104216 
L 214.930402 171.258811 
L 215.011586 171.258811 
L 215.09277 210.489081 
L 215.173953 118.951784 
L 215.255137 184.335568 
L 215.336321 177.797189 
L 215.417505 164.720432 
L 215.498689 197.412324 
L 215.579873 164.720432 
L 215.661057 177.797189 
L 215.742241 99.336649 
L 215.823425 125.490162 
L 215.904609 203.950703 
L 215.985793 190.873946 
L 216.229345 125.490162 
L 216.310529 197.412324 
L 216.391712 151.643676 
L 216.472896 210.489081 
L 216.716448 105.875027 
L 216.797632 132.028541 
L 216.878816 203.950703 
L 216.96 145.105297 
L 217.041184 177.797189 
L 217.122368 158.182054 
L 217.203552 197.412324 
L 217.284736 164.720432 
L 217.36592 269.334486 
L 217.528288 177.797189 
L 217.609471 256.25773 
L 217.771839 125.490162 
L 217.853023 125.490162 
L 218.258943 217.027459 
L 218.421311 132.028541 
L 218.502495 223.565838 
L 218.583679 125.490162 
L 218.664863 158.182054 
L 218.746047 262.796108 
L 218.82723 145.105297 
L 218.908414 151.643676 
L 218.989598 184.335568 
L 219.070782 86.259892 
L 219.314334 230.104216 
L 219.476702 105.875027 
L 219.557886 243.180973 
L 219.63907 118.951784 
L 219.801438 236.642595 
L 219.963805 105.875027 
L 220.044989 164.720432 
L 220.126173 132.028541 
L 220.369725 223.565838 
L 220.450909 132.028541 
L 220.694461 210.489081 
L 220.775645 158.182054 
L 220.856829 171.258811 
L 220.938013 190.873946 
L 221.019197 249.719351 
L 221.100381 145.105297 
L 221.181564 177.797189 
L 221.262748 132.028541 
L 221.343932 197.412324 
L 221.425116 66.644757 
L 221.5063 217.027459 
L 221.587484 151.643676 
L 221.668668 197.412324 
L 221.749852 118.951784 
L 221.831036 138.566919 
L 221.91222 190.873946 
L 222.074588 151.643676 
L 222.155772 164.720432 
L 222.236956 125.490162 
L 222.31814 177.797189 
L 222.480507 145.105297 
L 222.724059 177.797189 
L 222.805243 171.258811 
L 222.886427 177.797189 
L 222.967611 138.566919 
L 223.048795 145.105297 
L 223.292347 171.258811 
L 223.373531 203.950703 
L 223.454715 177.797189 
L 223.535899 230.104216 
L 223.77945 151.643676 
L 223.941818 203.950703 
L 224.023002 184.335568 
L 224.18537 125.490162 
L 224.266554 138.566919 
L 224.347738 190.873946 
L 224.510106 132.028541 
L 224.59129 171.258811 
L 224.753658 132.028541 
L 224.834841 125.490162 
L 224.916025 92.79827 
L 225.078393 158.182054 
L 225.159577 132.028541 
L 225.240761 184.335568 
L 225.321945 92.79827 
L 225.403129 184.335568 
L 225.484313 158.182054 
L 225.565497 118.951784 
L 225.727865 184.335568 
L 225.809049 190.873946 
L 225.890233 184.335568 
L 225.971416 138.566919 
L 226.0526 151.643676 
L 226.133784 125.490162 
L 226.214968 217.027459 
L 226.296152 210.489081 
L 226.377336 164.720432 
L 226.45852 262.796108 
L 226.702072 125.490162 
L 226.783256 203.950703 
L 226.945624 112.413405 
L 227.107992 171.258811 
L 227.189175 164.720432 
L 227.270359 138.566919 
L 227.432727 236.642595 
L 227.513911 171.258811 
L 227.595095 236.642595 
L 227.757463 177.797189 
L 227.838647 184.335568 
L 227.919831 217.027459 
L 228.082199 138.566919 
L 228.244567 197.412324 
L 228.325751 164.720432 
L 228.406934 223.565838 
L 228.569302 105.875027 
L 228.812854 262.796108 
L 228.975222 132.028541 
L 229.218774 190.873946 
L 229.299958 197.412324 
L 229.381142 217.027459 
L 229.54351 171.258811 
L 229.705877 158.182054 
L 229.787061 210.489081 
L 230.111797 99.336649 
L 230.192981 217.027459 
L 230.274165 203.950703 
L 230.355349 118.951784 
L 230.436533 171.258811 
L 230.517717 151.643676 
L 230.598901 184.335568 
L 230.680085 171.258811 
L 230.761268 190.873946 
L 230.842452 164.720432 
L 230.923636 203.950703 
L 231.00482 132.028541 
L 231.086004 230.104216 
L 231.167188 86.259892 
L 231.329556 210.489081 
L 231.41074 125.490162 
L 231.491924 132.028541 
L 231.654292 230.104216 
L 231.735476 105.875027 
L 231.81666 210.489081 
L 231.897844 190.873946 
L 231.979027 164.720432 
L 232.060211 171.258811 
L 232.141395 190.873946 
L 232.303763 171.258811 
L 232.384947 190.873946 
L 232.466131 243.180973 
L 232.628499 105.875027 
L 232.790867 184.335568 
L 232.872051 138.566919 
L 233.034419 197.412324 
L 233.196786 118.951784 
L 233.359154 158.182054 
L 233.440338 158.182054 
L 233.521522 197.412324 
L 233.602706 132.028541 
L 233.68389 138.566919 
L 233.927442 223.565838 
L 234.008626 92.79827 
L 234.08981 132.028541 
L 234.170994 132.028541 
L 234.252178 230.104216 
L 234.333362 138.566919 
L 234.414545 217.027459 
L 234.495729 164.720432 
L 234.658097 243.180973 
L 234.739281 79.721514 
L 234.820465 197.412324 
L 234.901649 145.105297 
L 235.064017 210.489081 
L 235.145201 223.565838 
L 235.307569 158.182054 
L 235.469937 86.259892 
L 235.632304 197.412324 
L 235.713488 151.643676 
L 235.794672 158.182054 
L 235.875856 125.490162 
L 236.038224 190.873946 
L 236.119408 132.028541 
L 236.200592 217.027459 
L 236.281776 184.335568 
L 236.444144 210.489081 
L 236.768879 145.105297 
L 236.850063 171.258811 
L 236.931247 66.644757 
L 237.093615 184.335568 
L 237.255983 164.720432 
L 237.337167 210.489081 
L 237.418351 197.412324 
L 237.499535 151.643676 
L 237.580719 197.412324 
L 237.743087 158.182054 
L 237.824271 210.489081 
L 238.067822 92.79827 
L 238.149006 203.950703 
L 238.23019 184.335568 
L 238.392558 190.873946 
L 238.473742 177.797189 
L 238.554926 190.873946 
L 238.63611 138.566919 
L 238.717294 151.643676 
L 238.879662 210.489081 
L 238.960846 118.951784 
L 239.04203 145.105297 
L 239.123214 217.027459 
L 239.285581 138.566919 
L 239.366765 184.335568 
L 239.447949 92.79827 
L 239.610317 184.335568 
L 239.691501 190.873946 
L 239.772685 151.643676 
L 239.853869 190.873946 
L 239.935053 177.797189 
L 240.097421 105.875027 
L 240.259789 177.797189 
L 240.340973 105.875027 
L 240.422156 132.028541 
L 240.50334 177.797189 
L 240.584524 145.105297 
L 240.665708 151.643676 
L 240.746892 158.182054 
L 240.828076 73.183135 
L 240.990444 190.873946 
L 241.071628 151.643676 
L 241.152812 164.720432 
L 241.31518 197.412324 
L 241.396364 125.490162 
L 241.477548 171.258811 
L 241.639915 112.413405 
L 241.721099 171.258811 
L 241.802283 125.490162 
L 241.883467 223.565838 
L 242.045835 112.413405 
L 242.127019 132.028541 
L 242.208203 105.875027 
L 242.289387 184.335568 
L 242.451755 99.336649 
L 242.532939 184.335568 
L 242.614123 171.258811 
L 242.695307 105.875027 
L 242.77649 177.797189 
L 242.938858 118.951784 
L 243.020042 132.028541 
L 243.101226 125.490162 
L 243.18241 92.79827 
L 243.344778 171.258811 
L 243.425962 118.951784 
L 243.750698 230.104216 
L 243.913066 138.566919 
L 243.994249 164.720432 
L 244.075433 203.950703 
L 244.156617 118.951784 
L 244.318985 177.797189 
L 244.481353 125.490162 
L 244.562537 132.028541 
L 244.643721 171.258811 
L 244.806089 105.875027 
L 244.887273 190.873946 
L 244.968457 164.720432 
L 245.049641 236.642595 
L 245.130825 145.105297 
L 245.212008 184.335568 
L 245.293192 145.105297 
L 245.374376 158.182054 
L 245.45556 269.334486 
L 245.617928 177.797189 
L 245.699112 171.258811 
L 245.780296 145.105297 
L 246.023848 210.489081 
L 246.105032 105.875027 
L 246.186216 132.028541 
L 246.2674 151.643676 
L 246.348584 210.489081 
L 246.429767 158.182054 
L 246.510951 171.258811 
L 246.673319 210.489081 
L 246.754503 145.105297 
L 246.835687 236.642595 
L 246.998055 171.258811 
L 247.079239 223.565838 
L 247.160423 164.720432 
L 247.241607 171.258811 
L 247.322791 164.720432 
L 247.566342 210.489081 
L 247.72871 99.336649 
L 247.809894 145.105297 
L 247.891078 138.566919 
L 247.972262 125.490162 
L 248.053446 249.719351 
L 248.215814 164.720432 
L 248.296998 158.182054 
L 248.378182 203.950703 
L 248.54055 171.258811 
L 248.621734 197.412324 
L 248.702918 164.720432 
L 248.784101 171.258811 
L 248.946469 171.258811 
L 249.108837 190.873946 
L 249.190021 151.643676 
L 249.271205 197.412324 
L 249.352389 132.028541 
L 249.595941 223.565838 
L 249.758309 184.335568 
L 249.839493 203.950703 
L 249.920677 105.875027 
L 250.083044 223.565838 
L 250.164228 125.490162 
L 250.245412 223.565838 
L 250.488964 125.490162 
L 250.570148 125.490162 
L 250.732516 236.642595 
L 250.894884 151.643676 
L 250.976068 171.258811 
L 251.057252 164.720432 
L 251.138436 132.028541 
L 251.381987 236.642595 
L 251.544355 125.490162 
L 251.625539 190.873946 
L 251.706723 151.643676 
L 251.787907 210.489081 
L 251.950275 125.490162 
L 252.112643 151.643676 
L 252.193827 158.182054 
L 252.275011 177.797189 
L 252.356195 92.79827 
L 252.437378 184.335568 
L 252.518562 151.643676 
L 252.599746 203.950703 
L 252.68093 145.105297 
L 252.762114 151.643676 
L 252.924482 190.873946 
L 253.005666 184.335568 
L 253.08685 203.950703 
L 253.168034 197.412324 
L 253.330402 164.720432 
L 253.411586 171.258811 
L 253.49277 203.950703 
L 253.655137 138.566919 
L 253.736321 230.104216 
L 253.979873 125.490162 
L 254.061057 256.25773 
L 254.142241 125.490162 
L 254.223425 223.565838 
L 254.304609 73.183135 
L 254.385793 190.873946 
L 254.466977 118.951784 
L 254.548161 197.412324 
L 254.629345 151.643676 
L 254.872896 197.412324 
L 254.95408 118.951784 
L 255.035264 132.028541 
L 255.197632 236.642595 
L 255.278816 184.335568 
L 255.36 197.412324 
L 255.522368 236.642595 
L 255.603552 112.413405 
L 255.76592 230.104216 
L 255.847104 132.028541 
L 255.928288 236.642595 
L 256.009471 145.105297 
L 256.090655 164.720432 
L 256.171839 164.720432 
L 256.253023 92.79827 
L 256.415391 197.412324 
L 256.496575 197.412324 
L 256.577759 112.413405 
L 256.658943 210.489081 
L 256.740127 125.490162 
L 256.821311 145.105297 
L 256.902495 171.258811 
L 256.983679 138.566919 
L 257.064863 158.182054 
L 257.146047 151.643676 
L 257.22723 151.643676 
L 257.389598 105.875027 
L 257.470782 125.490162 
L 257.551966 190.873946 
L 257.63315 132.028541 
L 257.714334 151.643676 
L 257.876702 210.489081 
L 257.957886 210.489081 
L 258.120254 132.028541 
L 258.363805 210.489081 
L 258.444989 158.182054 
L 258.526173 203.950703 
L 258.607357 151.643676 
L 258.688541 171.258811 
L 258.769725 164.720432 
L 258.850909 145.105297 
L 258.932093 223.565838 
L 259.013277 158.182054 
L 259.094461 184.335568 
L 259.175645 164.720432 
L 259.256829 177.797189 
L 259.419197 112.413405 
L 259.500381 262.796108 
L 259.662748 99.336649 
L 259.743932 151.643676 
L 259.825116 145.105297 
L 259.9063 164.720432 
L 259.987484 145.105297 
L 260.068668 190.873946 
L 260.149852 171.258811 
L 260.231036 99.336649 
L 260.31222 177.797189 
L 260.393404 158.182054 
L 260.474588 138.566919 
L 260.555772 236.642595 
L 260.636956 223.565838 
L 260.799323 125.490162 
L 260.961691 223.565838 
L 261.042875 145.105297 
L 261.205243 249.719351 
L 261.286427 151.643676 
L 261.367611 210.489081 
L 261.448795 145.105297 
L 261.529979 158.182054 
L 261.611163 177.797189 
L 261.692347 171.258811 
L 261.773531 118.951784 
L 261.854715 132.028541 
L 261.935899 118.951784 
L 262.017082 223.565838 
L 262.098266 138.566919 
L 262.260634 197.412324 
L 262.341818 184.335568 
L 262.423002 203.950703 
L 262.58537 145.105297 
L 262.666554 210.489081 
L 262.747738 184.335568 
L 262.828922 105.875027 
L 262.910106 112.413405 
L 262.99129 197.412324 
L 263.153658 118.951784 
L 263.316025 203.950703 
L 263.478393 210.489081 
L 263.721945 145.105297 
L 263.803129 158.182054 
L 263.884313 125.490162 
L 263.965497 197.412324 
L 264.046681 138.566919 
L 264.127865 164.720432 
L 264.209049 158.182054 
L 264.290233 164.720432 
L 264.371416 151.643676 
L 264.4526 105.875027 
L 264.533784 184.335568 
L 264.614968 112.413405 
L 264.777336 158.182054 
L 264.939704 177.797189 
L 265.020888 197.412324 
L 265.102072 138.566919 
L 265.183256 184.335568 
L 265.26444 164.720432 
L 265.345624 223.565838 
L 265.426808 138.566919 
L 265.507992 190.873946 
L 265.589175 164.720432 
L 265.670359 184.335568 
L 265.751543 112.413405 
L 265.832727 203.950703 
L 265.913911 171.258811 
L 265.995095 223.565838 
L 266.076279 145.105297 
L 266.157463 190.873946 
L 266.238647 138.566919 
L 266.319831 230.104216 
L 266.563383 105.875027 
L 266.806934 197.412324 
L 266.888118 138.566919 
L 267.050486 171.258811 
L 267.212854 177.797189 
L 267.294038 177.797189 
L 267.375222 210.489081 
L 267.456406 79.721514 
L 267.53759 118.951784 
L 267.781142 256.25773 
L 267.862326 99.336649 
L 267.94351 217.027459 
L 268.024693 197.412324 
L 268.105877 164.720432 
L 268.187061 171.258811 
L 268.268245 171.258811 
L 268.430613 203.950703 
L 268.592981 151.643676 
L 268.755349 210.489081 
L 268.836533 164.720432 
L 268.917717 190.873946 
L 268.998901 105.875027 
L 269.080085 158.182054 
L 269.161268 92.79827 
L 269.242452 158.182054 
L 269.323636 145.105297 
L 269.486004 184.335568 
L 269.567188 295.488 
L 269.729556 138.566919 
L 269.81074 145.105297 
L 269.891924 184.335568 
L 269.973108 112.413405 
L 270.21666 217.027459 
L 270.297844 112.413405 
L 270.379027 249.719351 
L 270.541395 132.028541 
L 270.784947 236.642595 
L 270.866131 203.950703 
L 270.947315 223.565838 
L 271.109683 190.873946 
L 271.190867 105.875027 
L 271.272051 249.719351 
L 271.353235 138.566919 
L 271.434419 145.105297 
L 271.596786 217.027459 
L 271.759154 99.336649 
L 271.921522 197.412324 
L 272.002706 138.566919 
L 272.08389 184.335568 
L 272.165074 151.643676 
L 272.327442 177.797189 
L 272.408626 138.566919 
L 272.570994 230.104216 
L 272.733362 145.105297 
L 272.814545 223.565838 
L 272.895729 138.566919 
L 272.976913 145.105297 
L 273.139281 190.873946 
L 273.220465 177.797189 
L 273.301649 236.642595 
L 273.545201 112.413405 
L 273.626385 125.490162 
L 273.707569 210.489081 
L 273.788753 125.490162 
L 273.951121 190.873946 
L 274.113488 158.182054 
L 274.35704 92.79827 
L 274.519408 151.643676 
L 274.600592 184.335568 
L 274.681776 177.797189 
L 274.76296 203.950703 
L 274.844144 118.951784 
L 275.006512 243.180973 
L 275.087696 105.875027 
L 275.168879 243.180973 
L 275.250063 210.489081 
L 275.412431 171.258811 
L 275.493615 210.489081 
L 275.574799 184.335568 
L 275.655983 197.412324 
L 275.737167 86.259892 
L 275.818351 203.950703 
L 275.899535 197.412324 
L 276.061903 164.720432 
L 276.143087 99.336649 
L 276.305455 184.335568 
L 276.386638 177.797189 
L 276.467822 190.873946 
L 276.549006 138.566919 
L 276.63019 197.412324 
L 276.711374 171.258811 
L 276.792558 99.336649 
L 276.873742 177.797189 
L 276.954926 132.028541 
L 277.117294 190.873946 
L 277.198478 177.797189 
L 277.279662 138.566919 
L 277.360846 197.412324 
L 277.44203 184.335568 
L 277.604397 112.413405 
L 277.685581 125.490162 
L 277.766765 190.873946 
L 277.847949 171.258811 
L 278.010317 223.565838 
L 278.091501 118.951784 
L 278.253869 184.335568 
L 278.335053 125.490162 
L 278.416237 203.950703 
L 278.497421 112.413405 
L 278.578605 138.566919 
L 278.822156 230.104216 
L 279.146892 158.182054 
L 279.228076 223.565838 
L 279.390444 118.951784 
L 279.552812 197.412324 
L 279.633996 164.720432 
L 279.71518 171.258811 
L 279.796364 223.565838 
L 279.877548 118.951784 
L 279.958732 177.797189 
L 280.039915 164.720432 
L 280.121099 112.413405 
L 280.283467 158.182054 
L 280.364651 105.875027 
L 280.445835 243.180973 
L 280.608203 145.105297 
L 280.689387 210.489081 
L 280.770571 190.873946 
L 280.851755 243.180973 
L 280.932939 151.643676 
L 281.014123 158.182054 
L 281.095307 190.873946 
L 281.17649 118.951784 
L 281.338858 217.027459 
L 281.420042 118.951784 
L 281.501226 151.643676 
L 281.58241 184.335568 
L 281.663594 105.875027 
L 281.744778 203.950703 
L 281.825962 190.873946 
L 281.907146 184.335568 
L 281.98833 190.873946 
L 282.069514 145.105297 
L 282.231882 184.335568 
L 282.313066 190.873946 
L 282.394249 164.720432 
L 282.475433 171.258811 
L 282.556617 177.797189 
L 282.637801 210.489081 
L 282.881353 118.951784 
L 282.962537 158.182054 
L 283.043721 262.796108 
L 283.124905 132.028541 
L 283.206089 203.950703 
L 283.287273 184.335568 
L 283.368457 145.105297 
L 283.449641 158.182054 
L 283.530825 210.489081 
L 283.693192 171.258811 
L 283.774376 249.719351 
L 283.936744 92.79827 
L 284.099112 177.797189 
L 284.180296 197.412324 
L 284.26148 190.873946 
L 284.342664 184.335568 
L 284.423848 190.873946 
L 284.586216 217.027459 
L 284.6674 171.258811 
L 284.829767 210.489081 
L 285.073319 158.182054 
L 285.154503 151.643676 
L 285.235687 118.951784 
L 285.398055 210.489081 
L 285.479239 197.412324 
L 285.560423 125.490162 
L 285.722791 184.335568 
L 285.803975 158.182054 
L 285.885159 243.180973 
L 285.966342 132.028541 
L 286.047526 223.565838 
L 286.12871 190.873946 
L 286.209894 151.643676 
L 286.372262 217.027459 
L 286.453446 203.950703 
L 286.53463 164.720432 
L 286.615814 190.873946 
L 286.778182 132.028541 
L 286.94055 210.489081 
L 287.021734 203.950703 
L 287.184101 151.643676 
L 287.265285 243.180973 
L 287.346469 230.104216 
L 287.508837 151.643676 
L 287.590021 158.182054 
L 287.671205 132.028541 
L 287.752389 151.643676 
L 287.833573 256.25773 
L 287.995941 112.413405 
L 288.158309 210.489081 
L 288.320677 217.027459 
L 288.40186 217.027459 
L 288.645412 125.490162 
L 288.726596 243.180973 
L 288.888964 177.797189 
L 289.051332 243.180973 
L 289.132516 184.335568 
L 289.2137 197.412324 
L 289.457252 145.105297 
L 289.538436 210.489081 
L 289.619619 203.950703 
L 289.700803 197.412324 
L 289.781987 171.258811 
L 289.863171 105.875027 
L 289.944355 190.873946 
L 290.025539 105.875027 
L 290.187907 230.104216 
L 290.269091 210.489081 
L 290.350275 230.104216 
L 290.431459 203.950703 
L 290.512643 112.413405 
L 290.593827 151.643676 
L 290.675011 125.490162 
L 290.756195 217.027459 
L 290.837378 190.873946 
L 290.999746 132.028541 
L 291.243298 184.335568 
L 291.324482 138.566919 
L 291.568034 236.642595 
L 291.811586 145.105297 
L 291.89277 190.873946 
L 291.973953 118.951784 
L 292.136321 197.412324 
L 292.217505 105.875027 
L 292.298689 177.797189 
L 292.379873 118.951784 
L 292.461057 210.489081 
L 292.542241 151.643676 
L 292.623425 223.565838 
L 292.785793 105.875027 
L 292.948161 177.797189 
L 293.029345 86.259892 
L 293.110529 118.951784 
L 293.191712 210.489081 
L 293.272896 151.643676 
L 293.35408 203.950703 
L 293.435264 158.182054 
L 293.597632 223.565838 
L 293.678816 184.335568 
L 293.76 190.873946 
L 293.841184 197.412324 
L 293.922368 158.182054 
L 294.003552 217.027459 
L 294.16592 118.951784 
L 294.247104 145.105297 
L 294.490655 210.489081 
L 294.571839 177.797189 
L 294.734207 197.412324 
L 294.815391 197.412324 
L 294.977759 158.182054 
L 295.058943 184.335568 
L 295.140127 138.566919 
L 295.221311 210.489081 
L 295.302495 125.490162 
L 295.383679 151.643676 
L 295.546047 177.797189 
L 295.62723 158.182054 
L 295.708414 164.720432 
L 295.789598 151.643676 
L 295.951966 197.412324 
L 296.03315 164.720432 
L 296.114334 177.797189 
L 296.195518 164.720432 
L 296.43907 223.565838 
L 296.520254 223.565838 
L 296.601438 132.028541 
L 296.682622 197.412324 
L 296.763805 145.105297 
L 296.926173 230.104216 
L 297.007357 105.875027 
L 297.088541 151.643676 
L 297.169725 190.873946 
L 297.250909 132.028541 
L 297.413277 230.104216 
L 297.656829 151.643676 
L 297.819197 236.642595 
L 297.981564 138.566919 
L 298.062748 236.642595 
L 298.3063 118.951784 
L 298.387484 210.489081 
L 298.468668 203.950703 
L 298.793404 118.951784 
L 298.874588 190.873946 
L 298.955772 164.720432 
L 299.036956 112.413405 
L 299.11814 118.951784 
L 299.199323 190.873946 
L 299.280507 138.566919 
L 299.442875 184.335568 
L 299.524059 125.490162 
L 299.767611 184.335568 
L 299.848795 92.79827 
L 300.011163 197.412324 
L 300.254715 53.568 
L 300.335899 230.104216 
L 300.417082 184.335568 
L 300.498266 112.413405 
L 300.57945 184.335568 
L 300.660634 158.182054 
L 300.741818 99.336649 
L 300.823002 118.951784 
L 300.904186 203.950703 
L 300.98537 177.797189 
L 301.066554 184.335568 
L 301.147738 210.489081 
L 301.310106 158.182054 
L 301.39129 190.873946 
L 301.472474 184.335568 
L 301.553658 210.489081 
L 301.634841 99.336649 
L 301.716025 171.258811 
L 301.797209 138.566919 
L 301.878393 190.873946 
L 301.959577 171.258811 
L 302.121945 197.412324 
L 302.203129 230.104216 
L 302.365497 190.873946 
L 302.446681 138.566919 
L 302.527865 177.797189 
L 302.690233 132.028541 
L 302.771416 249.719351 
L 303.014968 86.259892 
L 303.420888 210.489081 
L 303.502072 236.642595 
L 303.583256 145.105297 
L 303.66444 158.182054 
L 303.826808 190.873946 
L 303.907992 118.951784 
L 303.989175 190.873946 
L 304.070359 177.797189 
L 304.151543 230.104216 
L 304.232727 203.950703 
L 304.313911 236.642595 
L 304.557463 125.490162 
L 304.719831 217.027459 
L 304.801015 125.490162 
L 304.882199 203.950703 
L 304.963383 125.490162 
L 305.044567 184.335568 
L 305.125751 125.490162 
L 305.288118 190.873946 
L 305.450486 145.105297 
L 305.53167 190.873946 
L 305.612854 138.566919 
L 305.694038 190.873946 
L 305.93759 112.413405 
L 306.099958 217.027459 
L 306.181142 138.566919 
L 306.262326 151.643676 
L 306.34351 164.720432 
L 306.424693 203.950703 
L 306.505877 171.258811 
L 306.587061 190.873946 
L 306.668245 164.720432 
L 306.749429 223.565838 
L 306.911797 125.490162 
L 306.992981 223.565838 
L 307.074165 145.105297 
L 307.155349 197.412324 
L 307.236533 190.873946 
L 307.317717 151.643676 
L 307.398901 197.412324 
L 307.561268 158.182054 
L 307.80482 217.027459 
L 307.886004 217.027459 
L 308.048372 145.105297 
L 308.129556 177.797189 
L 308.21074 132.028541 
L 308.291924 217.027459 
L 308.373108 197.412324 
L 308.454292 190.873946 
L 308.535476 92.79827 
L 308.697844 171.258811 
L 308.860211 73.183135 
L 308.941395 151.643676 
L 309.022579 92.79827 
L 309.103763 177.797189 
L 309.184947 151.643676 
L 309.266131 190.873946 
L 309.347315 171.258811 
L 309.428499 230.104216 
L 309.509683 158.182054 
L 309.590867 203.950703 
L 309.672051 190.873946 
L 309.753235 151.643676 
L 309.834419 190.873946 
L 309.915603 118.951784 
L 309.996786 177.797189 
L 310.07797 171.258811 
L 310.159154 197.412324 
L 310.240338 177.797189 
L 310.402706 190.873946 
L 310.565074 158.182054 
L 310.646258 158.182054 
L 310.808626 223.565838 
L 310.970994 190.873946 
L 311.052178 197.412324 
L 311.133362 145.105297 
L 311.214545 190.873946 
L 311.295729 164.720432 
L 311.376913 171.258811 
L 311.458097 151.643676 
L 311.539281 158.182054 
L 311.782833 203.950703 
L 312.026385 145.105297 
L 312.107569 184.335568 
L 312.188753 151.643676 
L 312.269937 217.027459 
L 312.432304 105.875027 
L 312.513488 132.028541 
L 312.594672 249.719351 
L 312.675856 164.720432 
L 312.75704 177.797189 
L 312.919408 138.566919 
L 313.081776 177.797189 
L 313.16296 158.182054 
L 313.244144 210.489081 
L 313.325328 125.490162 
L 313.568879 249.719351 
L 313.650063 151.643676 
L 313.731247 164.720432 
L 313.812431 164.720432 
L 313.893615 210.489081 
L 314.055983 177.797189 
L 314.137167 197.412324 
L 314.218351 138.566919 
L 314.299535 171.258811 
L 314.461903 138.566919 
L 314.543087 177.797189 
L 314.624271 158.182054 
L 314.705455 217.027459 
L 314.786638 138.566919 
L 314.867822 210.489081 
L 315.03019 138.566919 
L 315.111374 145.105297 
L 315.273742 177.797189 
L 315.354926 190.873946 
L 315.43611 73.183135 
L 315.517294 230.104216 
L 315.679662 125.490162 
L 316.004397 230.104216 
L 316.166765 105.875027 
L 316.410317 203.950703 
L 316.735053 151.643676 
L 316.897421 203.950703 
L 316.978605 203.950703 
L 317.140973 151.643676 
L 317.222156 223.565838 
L 317.30334 190.873946 
L 317.384524 230.104216 
L 317.465708 158.182054 
L 317.546892 184.335568 
L 317.628076 151.643676 
L 317.70926 210.489081 
L 317.790444 145.105297 
L 317.871628 158.182054 
L 317.952812 132.028541 
L 318.033996 190.873946 
L 318.11518 138.566919 
L 318.196364 197.412324 
L 318.277548 151.643676 
L 318.358732 197.412324 
L 318.521099 151.643676 
L 318.602283 158.182054 
L 318.683467 145.105297 
L 318.764651 177.797189 
L 318.927019 99.336649 
L 319.170571 190.873946 
L 319.251755 158.182054 
L 319.332939 177.797189 
L 319.414123 132.028541 
L 319.495307 190.873946 
L 319.657674 118.951784 
L 319.738858 217.027459 
L 319.820042 112.413405 
L 319.901226 223.565838 
L 319.98241 138.566919 
L 320.063594 230.104216 
L 320.144778 223.565838 
L 320.307146 138.566919 
L 320.38833 158.182054 
L 320.469514 145.105297 
L 320.550698 223.565838 
L 320.631882 132.028541 
L 320.713066 230.104216 
L 320.794249 164.720432 
L 320.875433 190.873946 
L 320.956617 158.182054 
L 321.037801 223.565838 
L 321.200169 125.490162 
L 321.362537 177.797189 
L 321.443721 125.490162 
L 321.524905 151.643676 
L 321.606089 138.566919 
L 321.687273 79.721514 
L 321.930825 177.797189 
L 322.012008 171.258811 
L 322.093192 151.643676 
L 322.25556 223.565838 
L 322.417928 86.259892 
L 322.499112 118.951784 
L 322.580296 203.950703 
L 322.66148 112.413405 
L 322.742664 171.258811 
L 322.823848 118.951784 
L 322.986216 177.797189 
L 323.0674 145.105297 
L 323.229767 190.873946 
L 323.310951 125.490162 
L 323.392135 210.489081 
L 323.554503 164.720432 
L 323.716871 203.950703 
L 323.798055 145.105297 
L 323.879239 203.950703 
L 323.960423 197.412324 
L 324.122791 164.720432 
L 324.203975 197.412324 
L 324.285159 151.643676 
L 324.366342 203.950703 
L 324.609894 125.490162 
L 324.772262 223.565838 
L 324.93463 171.258811 
L 325.178182 151.643676 
L 325.34055 236.642595 
L 325.421734 145.105297 
L 325.502918 197.412324 
L 325.584101 177.797189 
L 325.665285 190.873946 
L 325.746469 145.105297 
L 325.990021 223.565838 
L 326.152389 118.951784 
L 326.314757 203.950703 
L 326.395941 138.566919 
L 326.558309 177.797189 
L 326.639493 190.873946 
L 326.80186 125.490162 
L 326.964228 203.950703 
L 327.045412 151.643676 
L 327.126596 164.720432 
L 327.20778 132.028541 
L 327.370148 197.412324 
L 327.451332 145.105297 
L 327.532516 203.950703 
L 327.6137 112.413405 
L 327.694884 203.950703 
L 327.776068 118.951784 
L 327.857252 145.105297 
L 327.938436 158.182054 
L 328.019619 210.489081 
L 328.100803 158.182054 
L 328.263171 230.104216 
L 328.344355 223.565838 
L 328.425539 105.875027 
L 328.506723 138.566919 
L 328.587907 210.489081 
L 328.669091 118.951784 
L 328.831459 197.412324 
L 328.912643 171.258811 
L 328.993827 190.873946 
L 329.075011 105.875027 
L 329.237378 210.489081 
L 329.48093 138.566919 
L 329.643298 197.412324 
L 329.968034 138.566919 
L 330.049218 243.180973 
L 330.130402 138.566919 
L 330.211586 184.335568 
L 330.29277 171.258811 
L 330.455137 125.490162 
L 330.536321 197.412324 
L 330.617505 151.643676 
L 330.698689 217.027459 
L 330.861057 151.643676 
L 330.942241 190.873946 
L 331.023425 99.336649 
L 331.104609 197.412324 
L 331.266977 138.566919 
L 331.348161 210.489081 
L 331.510529 151.643676 
L 331.672896 203.950703 
L 331.75408 132.028541 
L 331.997632 217.027459 
L 332.078816 151.643676 
L 332.241184 223.565838 
L 332.322368 118.951784 
L 332.403552 190.873946 
L 332.484736 138.566919 
L 332.647104 203.950703 
L 332.728288 171.258811 
L 332.809471 184.335568 
L 332.971839 164.720432 
L 333.053023 203.950703 
L 333.215391 151.643676 
L 333.296575 145.105297 
L 333.458943 158.182054 
L 333.540127 203.950703 
L 333.621311 190.873946 
L 333.702495 190.873946 
L 333.783679 184.335568 
L 333.946047 145.105297 
L 334.108414 171.258811 
L 334.189598 236.642595 
L 334.351966 145.105297 
L 334.43315 249.719351 
L 334.514334 171.258811 
L 334.676702 230.104216 
L 334.83907 138.566919 
L 334.920254 132.028541 
L 335.001438 145.105297 
L 335.163805 184.335568 
L 335.244989 184.335568 
L 335.326173 210.489081 
L 335.650909 158.182054 
L 335.732093 184.335568 
L 335.894461 164.720432 
L 336.056829 210.489081 
L 336.138013 145.105297 
L 336.219197 210.489081 
L 336.300381 203.950703 
L 336.381564 203.950703 
L 336.462748 99.336649 
L 336.543932 125.490162 
L 336.625116 203.950703 
L 336.7063 151.643676 
L 336.868668 190.873946 
L 336.949852 118.951784 
L 337.031036 210.489081 
L 337.11222 171.258811 
L 337.193404 177.797189 
L 337.274588 190.873946 
L 337.355772 145.105297 
L 337.436956 223.565838 
L 337.51814 177.797189 
L 337.599323 210.489081 
L 337.680507 99.336649 
L 337.761691 118.951784 
L 337.924059 223.565838 
L 338.005243 145.105297 
L 338.086427 230.104216 
L 338.248795 151.643676 
L 338.329979 164.720432 
L 338.492347 105.875027 
L 338.654715 203.950703 
L 338.735899 112.413405 
L 338.898266 197.412324 
L 339.060634 66.644757 
L 339.141818 158.182054 
L 339.223002 145.105297 
L 339.304186 197.412324 
L 339.38537 184.335568 
L 339.466554 184.335568 
L 339.547738 145.105297 
L 339.710106 184.335568 
L 339.79129 177.797189 
L 339.872474 125.490162 
L 339.953658 184.335568 
L 340.034841 171.258811 
L 340.116025 164.720432 
L 340.197209 145.105297 
L 340.359577 190.873946 
L 340.521945 138.566919 
L 340.603129 132.028541 
L 340.684313 184.335568 
L 340.765497 171.258811 
L 340.846681 210.489081 
L 340.927865 145.105297 
L 341.009049 184.335568 
L 341.090233 138.566919 
L 341.171416 203.950703 
L 341.2526 158.182054 
L 341.333784 164.720432 
L 341.577336 210.489081 
L 341.65852 197.412324 
L 341.739704 223.565838 
L 341.902072 112.413405 
L 341.983256 112.413405 
L 342.145624 197.412324 
L 342.226808 177.797189 
L 342.307992 197.412324 
L 342.389175 171.258811 
L 342.470359 203.950703 
L 342.551543 92.79827 
L 342.632727 217.027459 
L 342.713911 171.258811 
L 342.795095 197.412324 
L 342.957463 171.258811 
L 343.038647 79.721514 
L 343.119831 197.412324 
L 343.201015 190.873946 
L 343.363383 138.566919 
L 343.525751 197.412324 
L 343.606934 190.873946 
L 343.688118 145.105297 
L 343.93167 275.872865 
L 344.256406 92.79827 
L 344.499958 243.180973 
L 344.581142 230.104216 
L 344.74351 164.720432 
L 344.824693 223.565838 
L 344.905877 118.951784 
L 344.987061 223.565838 
L 345.068245 197.412324 
L 345.311797 125.490162 
L 345.392981 151.643676 
L 345.474165 132.028541 
L 345.555349 158.182054 
L 345.636533 132.028541 
L 345.717717 203.950703 
L 345.880085 151.643676 
L 346.123636 249.719351 
L 346.20482 164.720432 
L 346.367188 217.027459 
L 346.448372 164.720432 
L 346.529556 203.950703 
L 346.854292 138.566919 
L 346.935476 203.950703 
L 347.01666 190.873946 
L 347.097844 145.105297 
L 347.179027 203.950703 
L 347.341395 145.105297 
L 347.422579 190.873946 
L 347.503763 171.258811 
L 347.584947 262.796108 
L 347.747315 105.875027 
L 347.828499 164.720432 
L 347.909683 151.643676 
L 347.990867 171.258811 
L 348.072051 151.643676 
L 348.234419 210.489081 
L 348.315603 197.412324 
L 348.396786 118.951784 
L 348.559154 203.950703 
L 348.640338 151.643676 
L 348.802706 243.180973 
L 348.88389 190.873946 
L 348.965074 210.489081 
L 349.127442 92.79827 
L 349.208626 190.873946 
L 349.28981 177.797189 
L 349.452178 217.027459 
L 349.533362 197.412324 
L 349.614545 53.568 
L 349.776913 223.565838 
L 349.939281 138.566919 
L 350.020465 190.873946 
L 350.101649 125.490162 
L 350.182833 217.027459 
L 350.264017 177.797189 
L 350.345201 203.950703 
L 350.426385 132.028541 
L 350.507569 190.873946 
L 350.588753 145.105297 
L 350.751121 217.027459 
L 350.832304 132.028541 
L 350.994672 177.797189 
L 351.075856 190.873946 
L 351.15704 151.643676 
L 351.238224 158.182054 
L 351.319408 223.565838 
L 351.400592 105.875027 
L 351.481776 230.104216 
L 351.56296 145.105297 
L 351.644144 158.182054 
L 351.725328 203.950703 
L 351.806512 171.258811 
L 351.968879 223.565838 
L 352.050063 151.643676 
L 352.131247 177.797189 
L 352.212431 164.720432 
L 352.293615 177.797189 
L 352.374799 151.643676 
L 352.455983 190.873946 
L 352.537167 151.643676 
L 352.618351 158.182054 
L 352.699535 177.797189 
L 352.780719 158.182054 
L 352.861903 164.720432 
L 352.943087 171.258811 
L 353.024271 138.566919 
L 353.105455 203.950703 
L 353.186638 118.951784 
L 353.267822 138.566919 
L 353.511374 184.335568 
L 353.673742 177.797189 
L 353.754926 217.027459 
L 353.83611 132.028541 
L 353.917294 230.104216 
L 353.998478 177.797189 
L 354.079662 210.489081 
L 354.160846 177.797189 
L 354.24203 184.335568 
L 354.323214 184.335568 
L 354.404397 158.182054 
L 354.566765 184.335568 
L 354.647949 177.797189 
L 354.729133 184.335568 
L 354.972685 132.028541 
L 355.135053 249.719351 
L 355.216237 177.797189 
L 355.297421 203.950703 
L 355.378605 282.411243 
L 355.540973 184.335568 
L 355.622156 275.872865 
L 355.70334 164.720432 
L 355.784524 171.258811 
L 355.865708 125.490162 
L 355.946892 197.412324 
L 356.028076 125.490162 
L 356.190444 197.412324 
L 356.271628 105.875027 
L 356.352812 177.797189 
L 356.433996 118.951784 
L 356.51518 184.335568 
L 356.596364 177.797189 
L 356.677548 223.565838 
L 356.839915 177.797189 
L 356.921099 158.182054 
L 357.002283 190.873946 
L 357.164651 158.182054 
L 357.408203 243.180973 
L 357.489387 190.873946 
L 357.570571 217.027459 
L 357.732939 118.951784 
L 357.814123 217.027459 
L 357.895307 190.873946 
L 357.97649 236.642595 
L 358.057674 223.565838 
L 358.138858 177.797189 
L 358.220042 217.027459 
L 358.301226 151.643676 
L 358.544778 243.180973 
L 358.707146 145.105297 
L 358.869514 256.25773 
L 358.950698 177.797189 
L 359.031882 190.873946 
L 359.113066 164.720432 
L 359.194249 177.797189 
L 359.275433 151.643676 
L 359.518985 210.489081 
L 359.600169 112.413405 
L 359.762537 184.335568 
L 359.843721 190.873946 
L 359.924905 138.566919 
L 360.006089 164.720432 
L 360.087273 112.413405 
L 360.330825 190.873946 
L 360.412008 164.720432 
L 360.493192 177.797189 
L 360.574376 171.258811 
L 360.65556 177.797189 
L 360.736744 145.105297 
L 360.817928 190.873946 
L 360.899112 171.258811 
L 360.980296 92.79827 
L 361.06148 112.413405 
L 361.142664 203.950703 
L 361.223848 151.643676 
L 361.305032 197.412324 
L 361.386216 125.490162 
L 361.4674 132.028541 
L 361.548584 138.566919 
L 361.629767 203.950703 
L 361.710951 190.873946 
L 361.873319 184.335568 
L 362.035687 197.412324 
L 362.198055 171.258811 
L 362.279239 230.104216 
L 362.522791 92.79827 
L 362.603975 184.335568 
L 362.685159 151.643676 
L 362.847526 184.335568 
L 363.009894 125.490162 
L 363.172262 158.182054 
L 363.253446 197.412324 
L 363.33463 132.028541 
L 363.415814 230.104216 
L 363.496998 151.643676 
L 363.659366 223.565838 
L 363.902918 151.643676 
L 363.984101 203.950703 
L 364.065285 184.335568 
L 364.146469 203.950703 
L 364.227653 184.335568 
L 364.308837 105.875027 
L 364.552389 262.796108 
L 364.633573 230.104216 
L 364.714757 86.259892 
L 364.795941 249.719351 
L 364.877125 86.259892 
L 365.120677 230.104216 
L 365.20186 151.643676 
L 365.283044 177.797189 
L 365.364228 184.335568 
L 365.445412 203.950703 
L 365.526596 190.873946 
L 365.60778 197.412324 
L 365.770148 177.797189 
L 365.851332 236.642595 
L 365.932516 132.028541 
L 366.0137 145.105297 
L 366.094884 217.027459 
L 366.176068 203.950703 
L 366.257252 171.258811 
L 366.338436 249.719351 
L 366.500803 66.644757 
L 366.663171 269.334486 
L 366.825539 125.490162 
L 366.906723 138.566919 
L 366.987907 210.489081 
L 367.069091 197.412324 
L 367.150275 171.258811 
L 367.231459 177.797189 
L 367.312643 230.104216 
L 367.393827 164.720432 
L 367.556195 210.489081 
L 367.637378 138.566919 
L 367.718562 269.334486 
L 367.799746 158.182054 
L 367.88093 190.873946 
L 367.962114 197.412324 
L 368.043298 164.720432 
L 368.124482 190.873946 
L 368.205666 145.105297 
L 368.28685 197.412324 
L 368.368034 125.490162 
L 368.449218 269.334486 
L 368.530402 190.873946 
L 368.611586 210.489081 
L 368.773953 177.797189 
L 368.855137 197.412324 
L 368.936321 171.258811 
L 369.179873 223.565838 
L 369.261057 210.489081 
L 369.342241 177.797189 
L 369.423425 223.565838 
L 369.504609 138.566919 
L 369.585793 210.489081 
L 369.666977 132.028541 
L 369.748161 158.182054 
L 369.829345 112.413405 
L 369.910529 203.950703 
L 369.991712 184.335568 
L 370.072896 190.873946 
L 370.15408 164.720432 
L 370.316448 217.027459 
L 370.397632 138.566919 
L 370.56 269.334486 
L 370.722368 79.721514 
L 370.884736 210.489081 
L 371.047104 118.951784 
L 371.128288 145.105297 
L 371.290655 256.25773 
L 371.371839 164.720432 
L 371.453023 210.489081 
L 371.534207 197.412324 
L 371.615391 158.182054 
L 371.696575 171.258811 
L 371.777759 210.489081 
L 371.858943 151.643676 
L 372.021311 217.027459 
L 372.183679 190.873946 
L 372.264863 99.336649 
L 372.42723 197.412324 
L 372.508414 203.950703 
L 372.670782 145.105297 
L 372.751966 145.105297 
L 372.83315 243.180973 
L 372.914334 197.412324 
L 372.995518 256.25773 
L 373.076702 158.182054 
L 373.157886 197.412324 
L 373.23907 151.643676 
L 373.320254 197.412324 
L 373.401438 164.720432 
L 373.482622 177.797189 
L 373.563805 132.028541 
L 373.726173 190.873946 
L 373.807357 184.335568 
L 373.888541 132.028541 
L 373.969725 223.565838 
L 374.132093 151.643676 
L 374.213277 184.335568 
L 374.456829 105.875027 
L 374.538013 203.950703 
L 374.619197 177.797189 
L 374.700381 190.873946 
L 374.781564 118.951784 
L 374.862748 158.182054 
L 375.025116 132.028541 
L 375.349852 197.412324 
L 375.51222 105.875027 
L 375.674588 236.642595 
L 375.755772 138.566919 
L 375.836956 171.258811 
L 375.91814 112.413405 
L 375.999323 125.490162 
L 376.080507 145.105297 
L 376.161691 217.027459 
L 376.242875 203.950703 
L 376.324059 171.258811 
L 376.405243 190.873946 
L 376.567611 151.643676 
L 376.648795 184.335568 
L 376.729979 125.490162 
L 376.811163 184.335568 
L 376.892347 138.566919 
L 377.054715 249.719351 
L 377.135899 190.873946 
L 377.217082 203.950703 
L 377.37945 230.104216 
L 377.541818 145.105297 
L 377.623002 145.105297 
L 377.704186 151.643676 
L 377.866554 217.027459 
L 377.947738 151.643676 
L 378.110106 223.565838 
L 378.272474 99.336649 
L 378.353658 203.950703 
L 378.434841 164.720432 
L 378.516025 223.565838 
L 378.759577 105.875027 
L 378.921945 190.873946 
L 379.003129 145.105297 
L 379.165497 203.950703 
L 379.327865 158.182054 
L 379.409049 164.720432 
L 379.490233 217.027459 
L 379.571416 132.028541 
L 379.733784 184.335568 
L 379.814968 184.335568 
L 379.896152 236.642595 
L 379.977336 105.875027 
L 380.05852 145.105297 
L 380.139704 112.413405 
L 380.220888 249.719351 
L 380.302072 210.489081 
L 380.383256 164.720432 
L 380.545624 210.489081 
L 380.626808 138.566919 
L 380.707992 217.027459 
L 380.951543 158.182054 
L 381.032727 145.105297 
L 381.113911 158.182054 
L 381.195095 112.413405 
L 381.276279 217.027459 
L 381.357463 132.028541 
L 381.519831 243.180973 
L 381.601015 125.490162 
L 381.763383 203.950703 
L 381.844567 197.412324 
L 381.925751 158.182054 
L 382.006934 171.258811 
L 382.088118 171.258811 
L 382.169302 158.182054 
L 382.250486 217.027459 
L 382.33167 158.182054 
L 382.412854 223.565838 
L 382.494038 132.028541 
L 382.575222 145.105297 
L 382.656406 223.565838 
L 382.818774 158.182054 
L 382.899958 184.335568 
L 382.981142 158.182054 
L 383.062326 184.335568 
L 383.224693 164.720432 
L 383.305877 171.258811 
L 383.630613 99.336649 
L 383.711797 210.489081 
L 383.792981 112.413405 
L 383.874165 210.489081 
L 383.955349 125.490162 
L 384.117717 217.027459 
L 384.280085 184.335568 
L 384.361268 230.104216 
L 384.523636 190.873946 
L 384.686004 177.797189 
L 384.767188 184.335568 
L 384.848372 243.180973 
L 385.01074 125.490162 
L 385.091924 243.180973 
L 385.173108 223.565838 
L 385.335476 164.720432 
L 385.41666 171.258811 
L 385.579027 125.490162 
L 385.660211 158.182054 
L 385.741395 243.180973 
L 385.822579 223.565838 
L 385.903763 197.412324 
L 385.984947 210.489081 
L 386.066131 125.490162 
L 386.228499 203.950703 
L 386.309683 151.643676 
L 386.472051 210.489081 
L 386.553235 145.105297 
L 386.796786 249.719351 
L 386.87797 210.489081 
L 386.959154 79.721514 
L 387.040338 197.412324 
L 387.121522 164.720432 
L 387.202706 132.028541 
L 387.608626 203.950703 
L 387.68981 217.027459 
L 387.770994 138.566919 
L 387.852178 145.105297 
L 387.933362 177.797189 
L 388.014545 171.258811 
L 388.095729 151.643676 
L 388.176913 197.412324 
L 388.339281 164.720432 
L 388.420465 223.565838 
L 388.582833 184.335568 
L 388.664017 197.412324 
L 388.907569 138.566919 
L 389.151121 236.642595 
L 389.313488 112.413405 
L 389.394672 158.182054 
L 389.475856 145.105297 
L 389.55704 197.412324 
L 389.638224 132.028541 
L 389.719408 184.335568 
L 389.800592 177.797189 
L 389.881776 151.643676 
L 389.96296 197.412324 
L 390.125328 112.413405 
L 390.206512 243.180973 
L 390.287696 158.182054 
L 390.368879 171.258811 
L 390.450063 158.182054 
L 390.531247 236.642595 
L 390.774799 79.721514 
L 390.855983 217.027459 
L 390.937167 151.643676 
L 391.099535 197.412324 
L 391.180719 203.950703 
L 391.261903 184.335568 
L 391.343087 236.642595 
L 391.505455 164.720432 
L 391.586638 151.643676 
L 391.667822 230.104216 
L 391.83019 151.643676 
L 391.911374 164.720432 
L 392.073742 138.566919 
L 392.154926 217.027459 
L 392.23611 132.028541 
L 392.317294 203.950703 
L 392.398478 171.258811 
L 392.479662 230.104216 
L 392.560846 223.565838 
L 392.64203 164.720432 
L 392.723214 171.258811 
L 392.885581 190.873946 
L 392.966765 177.797189 
L 393.047949 197.412324 
L 393.129133 190.873946 
L 393.210317 125.490162 
L 393.291501 197.412324 
L 393.372685 138.566919 
L 393.453869 158.182054 
L 393.535053 217.027459 
L 393.616237 151.643676 
L 393.697421 197.412324 
L 393.778605 190.873946 
L 393.859789 217.027459 
L 393.940973 171.258811 
L 394.022156 190.873946 
L 394.10334 184.335568 
L 394.184524 184.335568 
L 394.265708 223.565838 
L 394.428076 132.028541 
L 394.671628 217.027459 
L 394.752812 171.258811 
L 394.833996 223.565838 
L 394.91518 171.258811 
L 394.996364 177.797189 
L 395.158732 145.105297 
L 395.239915 145.105297 
L 395.321099 171.258811 
L 395.402283 151.643676 
L 395.483467 177.797189 
L 395.564651 112.413405 
L 395.808203 256.25773 
L 395.889387 158.182054 
L 395.970571 171.258811 
L 396.132939 158.182054 
L 396.214123 217.027459 
L 396.295307 184.335568 
L 396.37649 210.489081 
L 396.538858 151.643676 
L 396.620042 158.182054 
L 396.701226 151.643676 
L 396.863594 177.797189 
L 396.944778 171.258811 
L 397.025962 138.566919 
L 397.107146 197.412324 
L 397.269514 138.566919 
L 397.350698 138.566919 
L 397.513066 171.258811 
L 397.675433 177.797189 
L 397.837801 118.951784 
L 398.000169 210.489081 
L 398.081353 217.027459 
L 398.243721 125.490162 
L 398.406089 190.873946 
L 398.487273 203.950703 
L 398.487273 203.950703 
" clip-path="url(#p7fa19b59ff)" style="fill: none; stroke: #1f77b4; stroke-width: 1.5; stroke-linecap: square"/>
   </g>
   <g id="patch_3">
    <path d="M 57.6 307.584 
L 57.6 41.472 
" style="fill: none; stroke: #000000; stroke-width: 0.8; stroke-linejoin: miter; stroke-linecap: square"/>
   </g>
   <g id="patch_4">
    <path d="M 414.72 307.584 
L 414.72 41.472 
" style="fill: none; stroke: #000000; stroke-width: 0.8; stroke-linejoin: miter; stroke-linecap: square"/>
   </g>
   <g id="patch_5">
    <path d="M 57.6 307.584 
L 414.72 307.584 
" style="fill: none; stroke: #000000; stroke-width: 0.8; stroke-linejoin: miter; stroke-linecap: square"/>
   </g>
   <g id="patch_6">
    <path d="M 57.6 41.472 
L 414.72 41.472 
" style="fill: none; stroke: #000000; stroke-width: 0.8; stroke-linejoin: miter; stroke-linecap: square"/>
   </g>
   <g id="text_20">
    <!-- Output firing rate -->
    <g transform="translate(183.793125 35.472) scale(0.12 -0.12)">
     <defs>
      <path id="DejaVuSans-4f" d="M 2522 4238 
Q 1834 4238 1429 3725 
Q 1025 3213 1025 2328 
Q 1025 1447 1429 934 
Q 1834 422 2522 422 
Q 3209 422 3611 934 
Q 4013 1447 4013 2328 
Q 4013 3213 3611 3725 
Q 3209 4238 2522 4238 
z
M 2522 4750 
Q 3503 4750 4090 4092 
Q 4678 3434 4678 2328 
Q 4678 1225 4090 567 
Q 3503 -91 2522 -91 
Q 1538 -91 948 565 
Q 359 1222 359 2328 
Q 359 3434 948 4092 
Q 1538 4750 2522 4750 
z
" transform="scale(0.015625)"/>
      <path id="DejaVuSans-75" d="M 544 1381 
L 544 3500 
L 1119 3500 
L 1119 1403 
Q 1119 906 1312 657 
Q 1506 409 1894 409 
Q 2359 409 2629 706 
Q 2900 1003 2900 1516 
L 2900 3500 
L 3475 3500 
L 3475 0 
L 2900 0 
L 2900 538 
Q 2691 219 2414 64 
Q 2138 -91 1772 -91 
Q 1169 -91 856 284 
Q 544 659 544 1381 
z
M 1991 3584 
L 1991 3584 
z
" transform="scale(0.015625)"/>
      <path id="DejaVuSans-70" d="M 1159 525 
L 1159 -1331 
L 581 -1331 
L 581 3500 
L 1159 3500 
L 1159 2969 
Q 1341 3281 1617 3432 
Q 1894 3584 2278 3584 
Q 2916 3584 3314 3078 
Q 3713 2572 3713 1747 
Q 3713 922 3314 415 
Q 2916 -91 2278 -91 
Q 1894 -91 1617 61 
Q 1341 213 1159 525 
z
M 3116 1747 
Q 3116 2381 2855 2742 
Q 2594 3103 2138 3103 
Q 1681 3103 1420 2742 
Q 1159 2381 1159 1747 
Q 1159 1113 1420 752 
Q 1681 391 2138 391 
Q 2594 391 2855 752 
Q 3116 1113 3116 1747 
z
" transform="scale(0.015625)"/>
      <path id="DejaVuSans-66" d="M 2375 4863 
L 2375 4384 
L 1825 4384 
Q 1516 4384 1395 4259 
Q 1275 4134 1275 3809 
L 1275 3500 
L 2222 3500 
L 2222 3053 
L 1275 3053 
L 1275 0 
L 697 0 
L 697 3053 
L 147 3053 
L 147 3500 
L 697 3500 
L 697 3744 
Q 697 4328 969 4595 
Q 1241 4863 1831 4863 
L 2375 4863 
z
" transform="scale(0.015625)"/>
     </defs>
     <use xlink:href="#DejaVuSans-4f"/>
     <use xlink:href="#DejaVuSans-75" x="78.710938"/>
     <use xlink:href="#DejaVuSans-74" x="142.089844"/>
     <use xlink:href="#DejaVuSans-70" x="181.298828"/>
     <use xlink:href="#DejaVuSans-75" x="244.775391"/>
     <use xlink:href="#DejaVuSans-74" x="308.154297"/>
     <use xlink:href="#DejaVuSans-20" x="347.363281"/>
     <use xlink:href="#DejaVuSans-66" x="379.150391"/>
     <use xlink:href="#DejaVuSans-69" x="414.355469"/>
     <use xlink:href="#DejaVuSans-72" x="442.138672"/>
     <use xlink:href="#DejaVuSans-69" x="483.251953"/>
     <use xlink:href="#DejaVuSans-6e" x="511.035156"/>
     <use xlink:href="#DejaVuSans-67" x="574.414062"/>
     <use xlink:href="#DejaVuSans-20" x="637.890625"/>
     <use xlink:href="#DejaVuSans-72" x="669.677734"/>
     <use xlink:href="#DejaVuSans-61" x="710.791016"/>
     <use xlink:href="#DejaVuSans-74" x="772.070312"/>
     <use xlink:href="#DejaVuSans-65" x="811.279297"/>
    </g>
   </g>
  </g>
 </g>
 <defs>
  <clipPath id="p7fa19b59ff">
   <rect x="57.6" y="41.472" width="357.12" height="266.112"/>
  </clipPath>
 </defs>
</svg>
