<?xml version="1.0" encoding="utf-8" standalone="no"?>
<!DOCTYPE svg PUBLIC "-//W3C//DTD SVG 1.1//EN"
  "http://www.w3.org/Graphics/SVG/1.1/DTD/svg11.dtd">
<svg xmlns:xlink="http://www.w3.org/1999/xlink" width="460.8pt" height="345.6pt" viewBox="0 0 460.8 345.6" xmlns="http://www.w3.org/2000/svg" version="1.1">
 <metadata>
  <rdf:RDF xmlns:dc="http://purl.org/dc/elements/1.1/" xmlns:cc="http://creativecommons.org/ns#" xmlns:rdf="http://www.w3.org/1999/02/22-rdf-syntax-ns#">
   <cc:Work>
    <dc:type rdf:resource="http://purl.org/dc/dcmitype/StillImage"/>
    <dc:date>2023-05-03T18:28:58.778998</dc:date>
    <dc:format>image/svg+xml</dc:format>
    <dc:creator>
     <cc:Agent>
      <dc:title>Matplotlib v3.6.2, https://matplotlib.org/</dc:title>
     </cc:Agent>
    </dc:creator>
   </cc:Work>
  </rdf:RDF>
 </metadata>
 <defs>
  <style type="text/css">*{stroke-linejoin: round; stroke-linecap: butt}</style>
 </defs>
 <g id="figure_1">
  <g id="patch_1">
   <path d="M 0 345.6 
L 460.8 345.6 
L 460.8 0 
L 0 0 
z
" style="fill: #ffffff"/>
  </g>
  <g id="axes_1">
   <g id="patch_2">
    <path d="M 57.6 307.584 
L 414.72 307.584 
L 414.72 41.472 
L 57.6 41.472 
z
" style="fill: #ffffff"/>
   </g>
   <g id="matplotlib.axis_1">
    <g id="xtick_1">
     <g id="line2d_1">
      <defs>
       <path id="m5065931dd4" d="M 0 0 
L 0 3.5 
" style="stroke: #000000; stroke-width: 0.8"/>
      </defs>
      <g>
       <use xlink:href="#m5065931dd4" x="73.832727" y="307.584" style="stroke: #000000; stroke-width: 0.8"/>
      </g>
     </g>
     <g id="text_1">
      <!-- 0 -->
      <g transform="translate(70.651477 322.182437) scale(0.1 -0.1)">
       <defs>
        <path id="DejaVuSans-30" d="M 2034 4250 
Q 1547 4250 1301 3770 
Q 1056 3291 1056 2328 
Q 1056 1369 1301 889 
Q 1547 409 2034 409 
Q 2525 409 2770 889 
Q 3016 1369 3016 2328 
Q 3016 3291 2770 3770 
Q 2525 4250 2034 4250 
z
M 2034 4750 
Q 2819 4750 3233 4129 
Q 3647 3509 3647 2328 
Q 3647 1150 3233 529 
Q 2819 -91 2034 -91 
Q 1250 -91 836 529 
Q 422 1150 422 2328 
Q 422 3509 836 4129 
Q 1250 4750 2034 4750 
z
" transform="scale(0.015625)"/>
       </defs>
       <use xlink:href="#DejaVuSans-30"/>
      </g>
     </g>
    </g>
    <g id="xtick_2">
     <g id="line2d_2">
      <g>
       <use xlink:href="#m5065931dd4" x="114.434847" y="307.584" style="stroke: #000000; stroke-width: 0.8"/>
      </g>
     </g>
     <g id="text_2">
      <!-- 500 -->
      <g transform="translate(104.891097 322.182437) scale(0.1 -0.1)">
       <defs>
        <path id="DejaVuSans-35" d="M 691 4666 
L 3169 4666 
L 3169 4134 
L 1269 4134 
L 1269 2991 
Q 1406 3038 1543 3061 
Q 1681 3084 1819 3084 
Q 2600 3084 3056 2656 
Q 3513 2228 3513 1497 
Q 3513 744 3044 326 
Q 2575 -91 1722 -91 
Q 1428 -91 1123 -41 
Q 819 9 494 109 
L 494 744 
Q 775 591 1075 516 
Q 1375 441 1709 441 
Q 2250 441 2565 725 
Q 2881 1009 2881 1497 
Q 2881 1984 2565 2268 
Q 2250 2553 1709 2553 
Q 1456 2553 1204 2497 
Q 953 2441 691 2322 
L 691 4666 
z
" transform="scale(0.015625)"/>
       </defs>
       <use xlink:href="#DejaVuSans-35"/>
       <use xlink:href="#DejaVuSans-30" x="63.623047"/>
       <use xlink:href="#DejaVuSans-30" x="127.246094"/>
      </g>
     </g>
    </g>
    <g id="xtick_3">
     <g id="line2d_3">
      <g>
       <use xlink:href="#m5065931dd4" x="155.036966" y="307.584" style="stroke: #000000; stroke-width: 0.8"/>
      </g>
     </g>
     <g id="text_3">
      <!-- 1000 -->
      <g transform="translate(142.311966 322.182437) scale(0.1 -0.1)">
       <defs>
        <path id="DejaVuSans-31" d="M 794 531 
L 1825 531 
L 1825 4091 
L 703 3866 
L 703 4441 
L 1819 4666 
L 2450 4666 
L 2450 531 
L 3481 531 
L 3481 0 
L 794 0 
L 794 531 
z
" transform="scale(0.015625)"/>
       </defs>
       <use xlink:href="#DejaVuSans-31"/>
       <use xlink:href="#DejaVuSans-30" x="63.623047"/>
       <use xlink:href="#DejaVuSans-30" x="127.246094"/>
       <use xlink:href="#DejaVuSans-30" x="190.869141"/>
      </g>
     </g>
    </g>
    <g id="xtick_4">
     <g id="line2d_4">
      <g>
       <use xlink:href="#m5065931dd4" x="195.639085" y="307.584" style="stroke: #000000; stroke-width: 0.8"/>
      </g>
     </g>
     <g id="text_4">
      <!-- 1500 -->
      <g transform="translate(182.914085 322.182437) scale(0.1 -0.1)">
       <use xlink:href="#DejaVuSans-31"/>
       <use xlink:href="#DejaVuSans-35" x="63.623047"/>
       <use xlink:href="#DejaVuSans-30" x="127.246094"/>
       <use xlink:href="#DejaVuSans-30" x="190.869141"/>
      </g>
     </g>
    </g>
    <g id="xtick_5">
     <g id="line2d_5">
      <g>
       <use xlink:href="#m5065931dd4" x="236.241204" y="307.584" style="stroke: #000000; stroke-width: 0.8"/>
      </g>
     </g>
     <g id="text_5">
      <!-- 2000 -->
      <g transform="translate(223.516204 322.182437) scale(0.1 -0.1)">
       <defs>
        <path id="DejaVuSans-32" d="M 1228 531 
L 3431 531 
L 3431 0 
L 469 0 
L 469 531 
Q 828 903 1448 1529 
Q 2069 2156 2228 2338 
Q 2531 2678 2651 2914 
Q 2772 3150 2772 3378 
Q 2772 3750 2511 3984 
Q 2250 4219 1831 4219 
Q 1534 4219 1204 4116 
Q 875 4013 500 3803 
L 500 4441 
Q 881 4594 1212 4672 
Q 1544 4750 1819 4750 
Q 2544 4750 2975 4387 
Q 3406 4025 3406 3419 
Q 3406 3131 3298 2873 
Q 3191 2616 2906 2266 
Q 2828 2175 2409 1742 
Q 1991 1309 1228 531 
z
" transform="scale(0.015625)"/>
       </defs>
       <use xlink:href="#DejaVuSans-32"/>
       <use xlink:href="#DejaVuSans-30" x="63.623047"/>
       <use xlink:href="#DejaVuSans-30" x="127.246094"/>
       <use xlink:href="#DejaVuSans-30" x="190.869141"/>
      </g>
     </g>
    </g>
    <g id="xtick_6">
     <g id="line2d_6">
      <g>
       <use xlink:href="#m5065931dd4" x="276.843323" y="307.584" style="stroke: #000000; stroke-width: 0.8"/>
      </g>
     </g>
     <g id="text_6">
      <!-- 2500 -->
      <g transform="translate(264.118323 322.182437) scale(0.1 -0.1)">
       <use xlink:href="#DejaVuSans-32"/>
       <use xlink:href="#DejaVuSans-35" x="63.623047"/>
       <use xlink:href="#DejaVuSans-30" x="127.246094"/>
       <use xlink:href="#DejaVuSans-30" x="190.869141"/>
      </g>
     </g>
    </g>
    <g id="xtick_7">
     <g id="line2d_7">
      <g>
       <use xlink:href="#m5065931dd4" x="317.445443" y="307.584" style="stroke: #000000; stroke-width: 0.8"/>
      </g>
     </g>
     <g id="text_7">
      <!-- 3000 -->
      <g transform="translate(304.720443 322.182437) scale(0.1 -0.1)">
       <defs>
        <path id="DejaVuSans-33" d="M 2597 2516 
Q 3050 2419 3304 2112 
Q 3559 1806 3559 1356 
Q 3559 666 3084 287 
Q 2609 -91 1734 -91 
Q 1441 -91 1130 -33 
Q 819 25 488 141 
L 488 750 
Q 750 597 1062 519 
Q 1375 441 1716 441 
Q 2309 441 2620 675 
Q 2931 909 2931 1356 
Q 2931 1769 2642 2001 
Q 2353 2234 1838 2234 
L 1294 2234 
L 1294 2753 
L 1863 2753 
Q 2328 2753 2575 2939 
Q 2822 3125 2822 3475 
Q 2822 3834 2567 4026 
Q 2313 4219 1838 4219 
Q 1578 4219 1281 4162 
Q 984 4106 628 3988 
L 628 4550 
Q 988 4650 1302 4700 
Q 1616 4750 1894 4750 
Q 2613 4750 3031 4423 
Q 3450 4097 3450 3541 
Q 3450 3153 3228 2886 
Q 3006 2619 2597 2516 
z
" transform="scale(0.015625)"/>
       </defs>
       <use xlink:href="#DejaVuSans-33"/>
       <use xlink:href="#DejaVuSans-30" x="63.623047"/>
       <use xlink:href="#DejaVuSans-30" x="127.246094"/>
       <use xlink:href="#DejaVuSans-30" x="190.869141"/>
      </g>
     </g>
    </g>
    <g id="xtick_8">
     <g id="line2d_8">
      <g>
       <use xlink:href="#m5065931dd4" x="358.047562" y="307.584" style="stroke: #000000; stroke-width: 0.8"/>
      </g>
     </g>
     <g id="text_8">
      <!-- 3500 -->
      <g transform="translate(345.322562 322.182437) scale(0.1 -0.1)">
       <use xlink:href="#DejaVuSans-33"/>
       <use xlink:href="#DejaVuSans-35" x="63.623047"/>
       <use xlink:href="#DejaVuSans-30" x="127.246094"/>
       <use xlink:href="#DejaVuSans-30" x="190.869141"/>
      </g>
     </g>
    </g>
    <g id="xtick_9">
     <g id="line2d_9">
      <g>
       <use xlink:href="#m5065931dd4" x="398.649681" y="307.584" style="stroke: #000000; stroke-width: 0.8"/>
      </g>
     </g>
     <g id="text_9">
      <!-- 4000 -->
      <g transform="translate(385.924681 322.182437) scale(0.1 -0.1)">
       <defs>
        <path id="DejaVuSans-34" d="M 2419 4116 
L 825 1625 
L 2419 1625 
L 2419 4116 
z
M 2253 4666 
L 3047 4666 
L 3047 1625 
L 3713 1625 
L 3713 1100 
L 3047 1100 
L 3047 0 
L 2419 0 
L 2419 1100 
L 313 1100 
L 313 1709 
L 2253 4666 
z
" transform="scale(0.015625)"/>
       </defs>
       <use xlink:href="#DejaVuSans-34"/>
       <use xlink:href="#DejaVuSans-30" x="63.623047"/>
       <use xlink:href="#DejaVuSans-30" x="127.246094"/>
       <use xlink:href="#DejaVuSans-30" x="190.869141"/>
      </g>
     </g>
    </g>
    <g id="text_10">
     <!-- Image shown -->
     <g transform="translate(202.820156 335.860562) scale(0.1 -0.1)">
      <defs>
       <path id="DejaVuSans-49" d="M 628 4666 
L 1259 4666 
L 1259 0 
L 628 0 
L 628 4666 
z
" transform="scale(0.015625)"/>
       <path id="DejaVuSans-6d" d="M 3328 2828 
Q 3544 3216 3844 3400 
Q 4144 3584 4550 3584 
Q 5097 3584 5394 3201 
Q 5691 2819 5691 2113 
L 5691 0 
L 5113 0 
L 5113 2094 
Q 5113 2597 4934 2840 
Q 4756 3084 4391 3084 
Q 3944 3084 3684 2787 
Q 3425 2491 3425 1978 
L 3425 0 
L 2847 0 
L 2847 2094 
Q 2847 2600 2669 2842 
Q 2491 3084 2119 3084 
Q 1678 3084 1418 2786 
Q 1159 2488 1159 1978 
L 1159 0 
L 581 0 
L 581 3500 
L 1159 3500 
L 1159 2956 
Q 1356 3278 1631 3431 
Q 1906 3584 2284 3584 
Q 2666 3584 2933 3390 
Q 3200 3197 3328 2828 
z
" transform="scale(0.015625)"/>
       <path id="DejaVuSans-61" d="M 2194 1759 
Q 1497 1759 1228 1600 
Q 959 1441 959 1056 
Q 959 750 1161 570 
Q 1363 391 1709 391 
Q 2188 391 2477 730 
Q 2766 1069 2766 1631 
L 2766 1759 
L 2194 1759 
z
M 3341 1997 
L 3341 0 
L 2766 0 
L 2766 531 
Q 2569 213 2275 61 
Q 1981 -91 1556 -91 
Q 1019 -91 701 211 
Q 384 513 384 1019 
Q 384 1609 779 1909 
Q 1175 2209 1959 2209 
L 2766 2209 
L 2766 2266 
Q 2766 2663 2505 2880 
Q 2244 3097 1772 3097 
Q 1472 3097 1187 3025 
Q 903 2953 641 2809 
L 641 3341 
Q 956 3463 1253 3523 
Q 1550 3584 1831 3584 
Q 2591 3584 2966 3190 
Q 3341 2797 3341 1997 
z
" transform="scale(0.015625)"/>
       <path id="DejaVuSans-67" d="M 2906 1791 
Q 2906 2416 2648 2759 
Q 2391 3103 1925 3103 
Q 1463 3103 1205 2759 
Q 947 2416 947 1791 
Q 947 1169 1205 825 
Q 1463 481 1925 481 
Q 2391 481 2648 825 
Q 2906 1169 2906 1791 
z
M 3481 434 
Q 3481 -459 3084 -895 
Q 2688 -1331 1869 -1331 
Q 1566 -1331 1297 -1286 
Q 1028 -1241 775 -1147 
L 775 -588 
Q 1028 -725 1275 -790 
Q 1522 -856 1778 -856 
Q 2344 -856 2625 -561 
Q 2906 -266 2906 331 
L 2906 616 
Q 2728 306 2450 153 
Q 2172 0 1784 0 
Q 1141 0 747 490 
Q 353 981 353 1791 
Q 353 2603 747 3093 
Q 1141 3584 1784 3584 
Q 2172 3584 2450 3431 
Q 2728 3278 2906 2969 
L 2906 3500 
L 3481 3500 
L 3481 434 
z
" transform="scale(0.015625)"/>
       <path id="DejaVuSans-65" d="M 3597 1894 
L 3597 1613 
L 953 1613 
Q 991 1019 1311 708 
Q 1631 397 2203 397 
Q 2534 397 2845 478 
Q 3156 559 3463 722 
L 3463 178 
Q 3153 47 2828 -22 
Q 2503 -91 2169 -91 
Q 1331 -91 842 396 
Q 353 884 353 1716 
Q 353 2575 817 3079 
Q 1281 3584 2069 3584 
Q 2775 3584 3186 3129 
Q 3597 2675 3597 1894 
z
M 3022 2063 
Q 3016 2534 2758 2815 
Q 2500 3097 2075 3097 
Q 1594 3097 1305 2825 
Q 1016 2553 972 2059 
L 3022 2063 
z
" transform="scale(0.015625)"/>
       <path id="DejaVuSans-20" transform="scale(0.015625)"/>
       <path id="DejaVuSans-73" d="M 2834 3397 
L 2834 2853 
Q 2591 2978 2328 3040 
Q 2066 3103 1784 3103 
Q 1356 3103 1142 2972 
Q 928 2841 928 2578 
Q 928 2378 1081 2264 
Q 1234 2150 1697 2047 
L 1894 2003 
Q 2506 1872 2764 1633 
Q 3022 1394 3022 966 
Q 3022 478 2636 193 
Q 2250 -91 1575 -91 
Q 1294 -91 989 -36 
Q 684 19 347 128 
L 347 722 
Q 666 556 975 473 
Q 1284 391 1588 391 
Q 1994 391 2212 530 
Q 2431 669 2431 922 
Q 2431 1156 2273 1281 
Q 2116 1406 1581 1522 
L 1381 1569 
Q 847 1681 609 1914 
Q 372 2147 372 2553 
Q 372 3047 722 3315 
Q 1072 3584 1716 3584 
Q 2034 3584 2315 3537 
Q 2597 3491 2834 3397 
z
" transform="scale(0.015625)"/>
       <path id="DejaVuSans-68" d="M 3513 2113 
L 3513 0 
L 2938 0 
L 2938 2094 
Q 2938 2591 2744 2837 
Q 2550 3084 2163 3084 
Q 1697 3084 1428 2787 
Q 1159 2491 1159 1978 
L 1159 0 
L 581 0 
L 581 4863 
L 1159 4863 
L 1159 2956 
Q 1366 3272 1645 3428 
Q 1925 3584 2291 3584 
Q 2894 3584 3203 3211 
Q 3513 2838 3513 2113 
z
" transform="scale(0.015625)"/>
       <path id="DejaVuSans-6f" d="M 1959 3097 
Q 1497 3097 1228 2736 
Q 959 2375 959 1747 
Q 959 1119 1226 758 
Q 1494 397 1959 397 
Q 2419 397 2687 759 
Q 2956 1122 2956 1747 
Q 2956 2369 2687 2733 
Q 2419 3097 1959 3097 
z
M 1959 3584 
Q 2709 3584 3137 3096 
Q 3566 2609 3566 1747 
Q 3566 888 3137 398 
Q 2709 -91 1959 -91 
Q 1206 -91 779 398 
Q 353 888 353 1747 
Q 353 2609 779 3096 
Q 1206 3584 1959 3584 
z
" transform="scale(0.015625)"/>
       <path id="DejaVuSans-77" d="M 269 3500 
L 844 3500 
L 1563 769 
L 2278 3500 
L 2956 3500 
L 3675 769 
L 4391 3500 
L 4966 3500 
L 4050 0 
L 3372 0 
L 2619 2869 
L 1863 0 
L 1184 0 
L 269 3500 
z
" transform="scale(0.015625)"/>
       <path id="DejaVuSans-6e" d="M 3513 2113 
L 3513 0 
L 2938 0 
L 2938 2094 
Q 2938 2591 2744 2837 
Q 2550 3084 2163 3084 
Q 1697 3084 1428 2787 
Q 1159 2491 1159 1978 
L 1159 0 
L 581 0 
L 581 3500 
L 1159 3500 
L 1159 2956 
Q 1366 3272 1645 3428 
Q 1925 3584 2291 3584 
Q 2894 3584 3203 3211 
Q 3513 2838 3513 2113 
z
" transform="scale(0.015625)"/>
      </defs>
      <use xlink:href="#DejaVuSans-49"/>
      <use xlink:href="#DejaVuSans-6d" x="29.492188"/>
      <use xlink:href="#DejaVuSans-61" x="126.904297"/>
      <use xlink:href="#DejaVuSans-67" x="188.183594"/>
      <use xlink:href="#DejaVuSans-65" x="251.660156"/>
      <use xlink:href="#DejaVuSans-20" x="313.183594"/>
      <use xlink:href="#DejaVuSans-73" x="344.970703"/>
      <use xlink:href="#DejaVuSans-68" x="397.070312"/>
      <use xlink:href="#DejaVuSans-6f" x="460.449219"/>
      <use xlink:href="#DejaVuSans-77" x="521.630859"/>
      <use xlink:href="#DejaVuSans-6e" x="603.417969"/>
     </g>
    </g>
   </g>
   <g id="matplotlib.axis_2">
    <g id="ytick_1">
     <g id="line2d_10">
      <defs>
       <path id="m06ab49128b" d="M 0 0 
L -3.5 0 
" style="stroke: #000000; stroke-width: 0.8"/>
      </defs>
      <g>
       <use xlink:href="#m06ab49128b" x="57.6" y="271.916308" style="stroke: #000000; stroke-width: 0.8"/>
      </g>
     </g>
     <g id="text_11">
      <!-- 0.2 -->
      <g transform="translate(34.696875 275.715526) scale(0.1 -0.1)">
       <defs>
        <path id="DejaVuSans-2e" d="M 684 794 
L 1344 794 
L 1344 0 
L 684 0 
L 684 794 
z
" transform="scale(0.015625)"/>
       </defs>
       <use xlink:href="#DejaVuSans-30"/>
       <use xlink:href="#DejaVuSans-2e" x="63.623047"/>
       <use xlink:href="#DejaVuSans-32" x="95.410156"/>
      </g>
     </g>
    </g>
    <g id="ytick_2">
     <g id="line2d_11">
      <g>
       <use xlink:href="#m06ab49128b" x="57.6" y="217.329231" style="stroke: #000000; stroke-width: 0.8"/>
      </g>
     </g>
     <g id="text_12">
      <!-- 0.4 -->
      <g transform="translate(34.696875 221.12845) scale(0.1 -0.1)">
       <use xlink:href="#DejaVuSans-30"/>
       <use xlink:href="#DejaVuSans-2e" x="63.623047"/>
       <use xlink:href="#DejaVuSans-34" x="95.410156"/>
      </g>
     </g>
    </g>
    <g id="ytick_3">
     <g id="line2d_12">
      <g>
       <use xlink:href="#m06ab49128b" x="57.6" y="162.742154" style="stroke: #000000; stroke-width: 0.8"/>
      </g>
     </g>
     <g id="text_13">
      <!-- 0.6 -->
      <g transform="translate(34.696875 166.541373) scale(0.1 -0.1)">
       <defs>
        <path id="DejaVuSans-36" d="M 2113 2584 
Q 1688 2584 1439 2293 
Q 1191 2003 1191 1497 
Q 1191 994 1439 701 
Q 1688 409 2113 409 
Q 2538 409 2786 701 
Q 3034 994 3034 1497 
Q 3034 2003 2786 2293 
Q 2538 2584 2113 2584 
z
M 3366 4563 
L 3366 3988 
Q 3128 4100 2886 4159 
Q 2644 4219 2406 4219 
Q 1781 4219 1451 3797 
Q 1122 3375 1075 2522 
Q 1259 2794 1537 2939 
Q 1816 3084 2150 3084 
Q 2853 3084 3261 2657 
Q 3669 2231 3669 1497 
Q 3669 778 3244 343 
Q 2819 -91 2113 -91 
Q 1303 -91 875 529 
Q 447 1150 447 2328 
Q 447 3434 972 4092 
Q 1497 4750 2381 4750 
Q 2619 4750 2861 4703 
Q 3103 4656 3366 4563 
z
" transform="scale(0.015625)"/>
       </defs>
       <use xlink:href="#DejaVuSans-30"/>
       <use xlink:href="#DejaVuSans-2e" x="63.623047"/>
       <use xlink:href="#DejaVuSans-36" x="95.410156"/>
      </g>
     </g>
    </g>
    <g id="ytick_4">
     <g id="line2d_13">
      <g>
       <use xlink:href="#m06ab49128b" x="57.6" y="108.155077" style="stroke: #000000; stroke-width: 0.8"/>
      </g>
     </g>
     <g id="text_14">
      <!-- 0.8 -->
      <g transform="translate(34.696875 111.954296) scale(0.1 -0.1)">
       <defs>
        <path id="DejaVuSans-38" d="M 2034 2216 
Q 1584 2216 1326 1975 
Q 1069 1734 1069 1313 
Q 1069 891 1326 650 
Q 1584 409 2034 409 
Q 2484 409 2743 651 
Q 3003 894 3003 1313 
Q 3003 1734 2745 1975 
Q 2488 2216 2034 2216 
z
M 1403 2484 
Q 997 2584 770 2862 
Q 544 3141 544 3541 
Q 544 4100 942 4425 
Q 1341 4750 2034 4750 
Q 2731 4750 3128 4425 
Q 3525 4100 3525 3541 
Q 3525 3141 3298 2862 
Q 3072 2584 2669 2484 
Q 3125 2378 3379 2068 
Q 3634 1759 3634 1313 
Q 3634 634 3220 271 
Q 2806 -91 2034 -91 
Q 1263 -91 848 271 
Q 434 634 434 1313 
Q 434 1759 690 2068 
Q 947 2378 1403 2484 
z
M 1172 3481 
Q 1172 3119 1398 2916 
Q 1625 2713 2034 2713 
Q 2441 2713 2670 2916 
Q 2900 3119 2900 3481 
Q 2900 3844 2670 4047 
Q 2441 4250 2034 4250 
Q 1625 4250 1398 4047 
Q 1172 3844 1172 3481 
z
" transform="scale(0.015625)"/>
       </defs>
       <use xlink:href="#DejaVuSans-30"/>
       <use xlink:href="#DejaVuSans-2e" x="63.623047"/>
       <use xlink:href="#DejaVuSans-38" x="95.410156"/>
      </g>
     </g>
    </g>
    <g id="ytick_5">
     <g id="line2d_14">
      <g>
       <use xlink:href="#m06ab49128b" x="57.6" y="53.568" style="stroke: #000000; stroke-width: 0.8"/>
      </g>
     </g>
     <g id="text_15">
      <!-- 1.0 -->
      <g transform="translate(34.696875 57.367219) scale(0.1 -0.1)">
       <use xlink:href="#DejaVuSans-31"/>
       <use xlink:href="#DejaVuSans-2e" x="63.623047"/>
       <use xlink:href="#DejaVuSans-30" x="95.410156"/>
      </g>
     </g>
    </g>
    <g id="text_16">
     <!-- Homogeneity of output spikes -->
     <g transform="translate(28.617187 249.723312) rotate(-90) scale(0.1 -0.1)">
      <defs>
       <path id="DejaVuSans-48" d="M 628 4666 
L 1259 4666 
L 1259 2753 
L 3553 2753 
L 3553 4666 
L 4184 4666 
L 4184 0 
L 3553 0 
L 3553 2222 
L 1259 2222 
L 1259 0 
L 628 0 
L 628 4666 
z
" transform="scale(0.015625)"/>
       <path id="DejaVuSans-69" d="M 603 3500 
L 1178 3500 
L 1178 0 
L 603 0 
L 603 3500 
z
M 603 4863 
L 1178 4863 
L 1178 4134 
L 603 4134 
L 603 4863 
z
" transform="scale(0.015625)"/>
       <path id="DejaVuSans-74" d="M 1172 4494 
L 1172 3500 
L 2356 3500 
L 2356 3053 
L 1172 3053 
L 1172 1153 
Q 1172 725 1289 603 
Q 1406 481 1766 481 
L 2356 481 
L 2356 0 
L 1766 0 
Q 1100 0 847 248 
Q 594 497 594 1153 
L 594 3053 
L 172 3053 
L 172 3500 
L 594 3500 
L 594 4494 
L 1172 4494 
z
" transform="scale(0.015625)"/>
       <path id="DejaVuSans-79" d="M 2059 -325 
Q 1816 -950 1584 -1140 
Q 1353 -1331 966 -1331 
L 506 -1331 
L 506 -850 
L 844 -850 
Q 1081 -850 1212 -737 
Q 1344 -625 1503 -206 
L 1606 56 
L 191 3500 
L 800 3500 
L 1894 763 
L 2988 3500 
L 3597 3500 
L 2059 -325 
z
" transform="scale(0.015625)"/>
       <path id="DejaVuSans-66" d="M 2375 4863 
L 2375 4384 
L 1825 4384 
Q 1516 4384 1395 4259 
Q 1275 4134 1275 3809 
L 1275 3500 
L 2222 3500 
L 2222 3053 
L 1275 3053 
L 1275 0 
L 697 0 
L 697 3053 
L 147 3053 
L 147 3500 
L 697 3500 
L 697 3744 
Q 697 4328 969 4595 
Q 1241 4863 1831 4863 
L 2375 4863 
z
" transform="scale(0.015625)"/>
       <path id="DejaVuSans-75" d="M 544 1381 
L 544 3500 
L 1119 3500 
L 1119 1403 
Q 1119 906 1312 657 
Q 1506 409 1894 409 
Q 2359 409 2629 706 
Q 2900 1003 2900 1516 
L 2900 3500 
L 3475 3500 
L 3475 0 
L 2900 0 
L 2900 538 
Q 2691 219 2414 64 
Q 2138 -91 1772 -91 
Q 1169 -91 856 284 
Q 544 659 544 1381 
z
M 1991 3584 
L 1991 3584 
z
" transform="scale(0.015625)"/>
       <path id="DejaVuSans-70" d="M 1159 525 
L 1159 -1331 
L 581 -1331 
L 581 3500 
L 1159 3500 
L 1159 2969 
Q 1341 3281 1617 3432 
Q 1894 3584 2278 3584 
Q 2916 3584 3314 3078 
Q 3713 2572 3713 1747 
Q 3713 922 3314 415 
Q 2916 -91 2278 -91 
Q 1894 -91 1617 61 
Q 1341 213 1159 525 
z
M 3116 1747 
Q 3116 2381 2855 2742 
Q 2594 3103 2138 3103 
Q 1681 3103 1420 2742 
Q 1159 2381 1159 1747 
Q 1159 1113 1420 752 
Q 1681 391 2138 391 
Q 2594 391 2855 752 
Q 3116 1113 3116 1747 
z
" transform="scale(0.015625)"/>
       <path id="DejaVuSans-6b" d="M 581 4863 
L 1159 4863 
L 1159 1991 
L 2875 3500 
L 3609 3500 
L 1753 1863 
L 3688 0 
L 2938 0 
L 1159 1709 
L 1159 0 
L 581 0 
L 581 4863 
z
" transform="scale(0.015625)"/>
      </defs>
      <use xlink:href="#DejaVuSans-48"/>
      <use xlink:href="#DejaVuSans-6f" x="75.195312"/>
      <use xlink:href="#DejaVuSans-6d" x="136.376953"/>
      <use xlink:href="#DejaVuSans-6f" x="233.789062"/>
      <use xlink:href="#DejaVuSans-67" x="294.970703"/>
      <use xlink:href="#DejaVuSans-65" x="358.447266"/>
      <use xlink:href="#DejaVuSans-6e" x="419.970703"/>
      <use xlink:href="#DejaVuSans-65" x="483.349609"/>
      <use xlink:href="#DejaVuSans-69" x="544.873047"/>
      <use xlink:href="#DejaVuSans-74" x="572.65625"/>
      <use xlink:href="#DejaVuSans-79" x="611.865234"/>
      <use xlink:href="#DejaVuSans-20" x="671.044922"/>
      <use xlink:href="#DejaVuSans-6f" x="702.832031"/>
      <use xlink:href="#DejaVuSans-66" x="764.013672"/>
      <use xlink:href="#DejaVuSans-20" x="799.21875"/>
      <use xlink:href="#DejaVuSans-6f" x="831.005859"/>
      <use xlink:href="#DejaVuSans-75" x="892.1875"/>
      <use xlink:href="#DejaVuSans-74" x="955.566406"/>
      <use xlink:href="#DejaVuSans-70" x="994.775391"/>
      <use xlink:href="#DejaVuSans-75" x="1058.251953"/>
      <use xlink:href="#DejaVuSans-74" x="1121.630859"/>
      <use xlink:href="#DejaVuSans-20" x="1160.839844"/>
      <use xlink:href="#DejaVuSans-73" x="1192.626953"/>
      <use xlink:href="#DejaVuSans-70" x="1244.726562"/>
      <use xlink:href="#DejaVuSans-69" x="1308.203125"/>
      <use xlink:href="#DejaVuSans-6b" x="1335.986328"/>
      <use xlink:href="#DejaVuSans-65" x="1390.271484"/>
      <use xlink:href="#DejaVuSans-73" x="1451.794922"/>
     </g>
    </g>
   </g>
   <g id="line2d_15">
    <path d="M 73.832727 274.515692 
L 73.913932 281.014154 
L 74.07634 258.269538 
L 74.238748 276.878769 
L 74.319953 262.818462 
L 74.482361 286.561621 
L 74.563565 285.563077 
L 74.64477 291.511669 
L 74.807178 281.014154 
L 74.888382 281.014154 
L 74.969587 290.590834 
L 75.050791 283.857231 
L 75.131995 267.490328 
L 75.213199 284.513325 
L 75.294404 279.90466 
L 75.375608 268.017231 
L 75.619221 288.419377 
L 75.700425 279.44556 
L 75.781629 282.481548 
L 75.862833 285.563077 
L 76.106446 271.916308 
L 76.18765 270.802286 
L 76.350059 285.149538 
L 76.512467 271.916308 
L 76.593671 281.014154 
L 76.674876 278.338317 
L 76.75608 275.328 
L 76.837284 268.017231 
L 76.918488 271.916308 
L 76.999693 282.243593 
L 77.080897 262.818462 
L 77.162101 273.2477 
L 77.243305 268.017231 
L 77.32451 283.408324 
L 77.405714 281.014154 
L 77.486918 279.714462 
L 77.568122 282.481548 
L 77.649326 269.377374 
L 77.811735 293.420308 
L 77.892939 280.155866 
L 77.974143 282.243593 
L 78.055348 282.833723 
L 78.136552 292.386462 
L 78.29896 279.714462 
L 78.380165 286.561621 
L 78.542573 278.338317 
L 78.623777 279.036361 
L 78.786186 285.149538 
L 78.86739 258.269538 
L 79.029799 277.514982 
L 79.192207 268.017231 
L 79.273411 279.90466 
L 79.354615 276.225814 
L 79.43582 279.714462 
L 79.517024 266.798769 
L 79.598228 285.149538 
L 79.679432 282.243593 
L 79.923045 256.32 
L 80.004249 287.512615 
L 80.085454 278.338317 
L 80.166658 270.516639 
L 80.247862 279.90466 
L 80.329066 271.916308 
L 80.410271 283.408324 
L 80.491475 282.243593 
L 80.653883 279.90466 
L 80.816292 288.595692 
L 80.897496 265.851077 
L 80.9787 271.916308 
L 81.222313 291.511669 
L 81.303517 282.072043 
L 81.384721 284.513325 
L 81.465926 283.857231 
L 81.54713 256.068447 
L 81.709538 277.514982 
L 81.953151 284.969739 
L 82.034355 281.014154 
L 82.11556 286.365828 
L 82.196764 276.225814 
L 82.359172 286.068513 
L 82.440377 279.036361 
L 82.521581 287.512615 
L 82.602785 283.408324 
L 82.683989 273.432615 
L 82.846398 284.046769 
L 82.927602 275.328 
L 83.09001 287.512615 
L 83.171215 277.514982 
L 83.333623 286.068513 
L 83.414827 271.916308 
L 83.577236 287.512615 
L 83.65844 281.014154 
L 83.739644 283.408324 
L 83.820849 269.377374 
L 83.902053 287.512615 
L 83.983257 278.338317 
L 84.064461 282.243593 
L 84.145666 269.043304 
L 84.22687 284.969739 
L 84.308074 273.677181 
L 84.470483 290.112 
L 84.632891 264.872814 
L 84.876504 281.014154 
L 84.957708 260.62243 
L 85.038912 274.515692 
L 85.120116 267.490328 
L 85.201321 293.218582 
L 85.363729 271.916308 
L 85.526138 281.014154 
L 85.607342 275.328 
L 85.688546 290.903117 
L 85.76975 285.563077 
L 85.850955 283.857231 
L 85.932159 276.225814 
L 86.013363 277.514982 
L 86.094567 285.563077 
L 86.175772 264.872814 
L 86.33818 281.014154 
L 86.419384 282.243593 
L 86.500588 268.017231 
L 86.581793 285.149538 
L 86.744201 265.851077 
L 86.90661 282.243593 
L 86.987814 267.169605 
L 87.069018 285.563077 
L 87.150222 284.969739 
L 87.231427 279.44556 
L 87.312631 286.561621 
L 87.393835 266.590739 
L 87.475039 283.408324 
L 87.556244 279.036361 
L 87.718652 285.853434 
L 88.043469 274.86696 
L 88.124673 263.518296 
L 88.287082 284.513325 
L 88.368286 282.481548 
L 88.44949 277.764923 
L 88.693103 288.419377 
L 88.855511 277.514982 
L 88.936716 281.014154 
L 89.01792 276.878769 
L 89.099124 266.798769 
L 89.261533 282.243593 
L 89.342737 261.860794 
L 89.423941 281.014154 
L 89.505145 275.328 
L 89.58635 275.959795 
L 89.667554 277.514982 
L 89.748758 292.386462 
L 89.829962 270.033995 
L 89.911166 270.516639 
L 89.992371 267.490328 
L 90.235983 287.512615 
L 90.398392 260.998892 
L 90.479596 289.284923 
L 90.5608 285.563077 
L 90.642005 277.764923 
L 90.723209 286.365828 
L 90.804413 276.878769 
L 90.885617 288.419377 
L 90.966822 278.739692 
L 91.048026 291.285916 
L 91.12923 283.857231 
L 91.210434 284.513325 
L 91.291639 291.285916 
L 91.454047 273.432615 
L 91.535251 271.916308 
L 91.616456 273.432615 
L 91.69766 264.118154 
L 91.778864 289.284923 
L 91.860068 282.243593 
L 92.103681 273.432615 
L 92.184885 282.243593 
L 92.266089 276.878769 
L 92.347294 293.420308 
L 92.509702 275.328 
L 92.590906 293.218582 
L 92.672111 274.86696 
L 92.753315 279.44556 
L 92.996928 265.851077 
L 93.078132 286.365828 
L 93.24054 273.432615 
L 93.321745 270.033995 
L 93.484153 291.285916 
L 93.565357 277.514982 
L 93.646561 281.014154 
L 93.727766 271.916308 
L 93.80897 287.512615 
L 93.890174 279.44556 
L 93.971378 281.014154 
L 94.052583 285.149538 
L 94.133787 279.714462 
L 94.214991 281.014154 
L 94.296195 286.365828 
L 94.3774 276.878769 
L 94.539808 286.365828 
L 94.702217 277.764923 
L 94.783421 293.420308 
L 94.864625 266.798769 
L 94.945829 284.513325 
L 95.108238 270.516639 
L 95.189442 287.512615 
L 95.270646 285.149538 
L 95.35185 282.072043 
L 95.433055 258.269538 
L 95.514259 285.853434 
L 95.595463 279.90466 
L 95.676667 277.514982 
L 95.757872 279.714462 
L 95.92028 264.118154 
L 96.001484 282.481548 
L 96.082689 264.872814 
L 96.245097 279.90466 
L 96.326301 286.561621 
L 96.48871 264.118154 
L 96.651118 286.365828 
L 96.732323 271.916308 
L 96.813527 286.561621 
L 96.894731 274.015811 
L 96.975935 286.365828 
L 97.138344 278.739692 
L 97.219548 279.714462 
L 97.381956 258.269538 
L 97.463161 285.149538 
L 97.544365 274.015811 
L 97.625569 276.225814 
L 97.706773 288.857125 
L 97.787978 287.512615 
L 97.869182 289.620225 
L 98.03159 283.408324 
L 98.112795 266.798769 
L 98.193999 271.916308 
L 98.275203 276.878769 
L 98.356407 274.515692 
L 98.437612 280.046298 
L 98.518816 279.714462 
L 98.60002 278.739692 
L 98.681224 282.243593 
L 98.762428 271.916308 
L 98.924837 282.243593 
L 99.087245 276.878769 
L 99.249654 286.561621 
L 99.330858 271.916308 
L 99.412062 281.014154 
L 99.493267 270.310805 
L 99.574471 279.036361 
L 99.655675 274.015811 
L 99.736879 290.590834 
L 99.818084 285.563077 
L 99.980492 276.878769 
L 100.061696 279.714462 
L 100.305309 265.232176 
L 100.386513 277.514982 
L 100.467717 268.017231 
L 100.71133 283.857231 
L 100.792534 279.90466 
L 100.873739 269.043304 
L 101.036147 286.561621 
L 101.117351 286.365828 
L 101.198556 274.015811 
L 101.27976 279.714462 
L 101.360964 268.017231 
L 101.442168 282.481548 
L 101.523373 281.014154 
L 101.604577 252.737064 
L 101.766985 281.014154 
L 101.84819 283.857231 
L 101.929394 281.014154 
L 102.010598 283.689991 
L 102.091802 268.608 
L 102.173007 277.514982 
L 102.335415 267.490328 
L 102.497823 283.857231 
L 102.579028 281.014154 
L 102.660232 291.66057 
L 102.741436 273.677181 
L 102.82264 278.338317 
L 102.903845 273.432615 
L 102.985049 274.515692 
L 103.066253 273.677181 
L 103.147457 281.014154 
L 103.228662 260.337231 
L 103.472274 285.149538 
L 103.634683 270.516639 
L 103.715887 287.512615 
L 103.878296 273.432615 
L 103.9595 274.86696 
L 104.040704 287.512615 
L 104.121908 286.700308 
L 104.203112 273.432615 
L 104.284317 279.44556 
L 104.365521 277.981538 
L 104.446725 283.081846 
L 104.527929 263.518296 
L 104.609134 286.068513 
L 104.690338 270.310805 
L 104.771542 281.014154 
L 104.852746 268.608 
L 104.933951 282.243593 
L 105.096359 270.516639 
L 105.258768 285.563077 
L 105.421176 268.608 
L 105.50238 283.857231 
L 105.583585 281.014154 
L 105.664789 265.851077 
L 105.745993 277.514982 
L 105.827197 273.2477 
L 105.989606 287.512615 
L 106.07081 273.677181 
L 106.152014 285.149538 
L 106.233218 275.328 
L 106.314423 288.419377 
L 106.395627 270.310805 
L 106.476831 276.225814 
L 106.558035 276.372396 
L 106.720444 286.365828 
L 106.801648 281.014154 
L 106.882852 289.284923 
L 106.964057 274.86696 
L 107.045261 279.714462 
L 107.126465 289.620225 
L 107.207669 283.408324 
L 107.288874 283.857231 
L 107.370078 282.243593 
L 107.451282 271.916308 
L 107.694895 289.284923 
L 107.776099 270.310805 
L 107.857303 279.714462 
L 107.938507 276.878769 
L 108.100916 266.590739 
L 108.263324 287.512615 
L 108.344529 286.561621 
L 108.425733 264.118154 
L 108.669346 285.853434 
L 108.831754 291.511669 
L 108.912958 279.714462 
L 108.994163 281.014154 
L 109.075367 284.046769 
L 109.237775 271.916308 
L 109.318979 273.102983 
L 109.400184 279.44556 
L 109.562592 270.310805 
L 109.725001 281.942505 
L 109.806205 277.764923 
L 109.887409 282.243593 
L 109.968613 269.377374 
L 110.049818 285.563077 
L 110.131022 283.857231 
L 110.212226 264.118154 
L 110.29343 270.310805 
L 110.455839 286.365828 
L 110.537043 284.513325 
L 110.618247 291.66057 
L 110.780656 278.338317 
L 110.86186 275.724708 
L 110.943064 278.338317 
L 111.024268 289.620225 
L 111.105473 277.514982 
L 111.186677 282.243593 
L 111.267881 260.62243 
L 111.349085 279.714462 
L 111.43029 278.338317 
L 111.511494 283.081846 
L 111.673902 260.998892 
L 111.755107 281.014154 
L 111.836311 274.86696 
L 111.917515 273.677181 
L 111.998719 289.284923 
L 112.079924 268.017231 
L 112.161128 270.516639 
L 112.323536 286.561621 
L 112.404741 278.739692 
L 112.485945 294.766712 
L 112.567149 294.393339 
L 112.648353 271.916308 
L 112.729558 281.014154 
L 112.810762 274.86696 
L 112.891966 284.046769 
L 113.054374 271.916308 
L 113.216783 283.408324 
L 113.460396 269.641846 
L 113.622804 279.90466 
L 113.704008 291.285916 
L 113.785213 286.561621 
L 113.866417 267.490328 
L 114.028825 295.488 
L 114.191234 271.916308 
L 114.272438 281.942505 
L 114.353642 275.328 
L 114.434847 284.046769 
L 114.678459 271.916308 
L 114.759663 281.014154 
L 114.840868 262.818462 
L 115.003276 284.513325 
L 115.08448 269.641846 
L 115.165685 288.857125 
L 115.246889 256.32 
L 115.490502 285.563077 
L 115.571706 274.515692 
L 115.65291 276.372396 
L 115.734114 281.014154 
L 115.815319 265.851077 
L 115.977727 285.563077 
L 116.140136 278.739692 
L 116.22134 255.742359 
L 116.302544 289.284923 
L 116.383748 273.432615 
L 116.546157 288.595692 
L 116.627361 275.328 
L 116.708565 283.689991 
L 116.870974 277.514982 
L 116.952178 281.014154 
L 117.114586 273.2477 
L 117.195791 283.857231 
L 117.276995 269.043304 
L 117.439403 289.620225 
L 117.601812 265.851077 
L 117.683016 270.310805 
L 117.845425 292.386462 
L 117.926629 265.092923 
L 118.007833 286.365828 
L 118.089037 280.046298 
L 118.170241 286.068513 
L 118.33265 268.608 
L 118.413854 282.243593 
L 118.495058 281.014154 
L 118.576263 278.338317 
L 118.657467 266.798769 
L 118.738671 289.620225 
L 118.819875 285.305591 
L 118.90108 260.62243 
L 119.063488 283.081846 
L 119.144692 262.818462 
L 119.225897 287.512615 
L 119.307101 282.481548 
L 119.388305 274.015811 
L 119.469509 284.513325 
L 119.794326 270.310805 
L 119.87553 291.285916 
L 120.037939 265.851077 
L 120.119143 278.338317 
L 120.200347 266.590739 
L 120.362756 276.878769 
L 120.44396 266.798769 
L 120.606369 287.512615 
L 120.687573 276.878769 
L 120.768777 277.514982 
L 120.849981 282.243593 
L 120.931186 274.515692 
L 121.01239 278.739692 
L 121.093594 271.916308 
L 121.174798 287.512615 
L 121.256003 260.113696 
L 121.418411 283.081846 
L 121.499615 276.878769 
L 121.662024 288.595692 
L 121.743228 279.714462 
L 121.824432 287.512615 
L 122.149249 271.916308 
L 122.230453 284.046769 
L 122.311658 273.432615 
L 122.392862 278.338317 
L 122.474066 274.239162 
L 122.55527 285.149538 
L 122.636475 276.225814 
L 122.717679 283.857231 
L 122.880087 279.44556 
L 122.961292 265.851077 
L 123.042496 287.512615 
L 123.1237 281.014154 
L 123.286109 278.338317 
L 123.367313 273.432615 
L 123.610925 281.014154 
L 123.773334 275.328 
L 123.854538 260.337231 
L 123.935742 279.714462 
L 124.016947 274.86696 
L 124.098151 282.481548 
L 124.179355 262.818462 
L 124.341764 277.981538 
L 124.422968 283.408324 
L 124.504172 276.225814 
L 124.585376 279.714462 
L 124.666581 292.386462 
L 124.747785 271.916308 
L 124.910193 291.511669 
L 125.072602 266.798769 
L 125.153806 286.561621 
L 125.23501 279.036361 
L 125.397419 290.112 
L 125.559827 263.030039 
L 125.641031 268.608 
L 125.722236 284.513325 
L 125.80344 268.017231 
L 126.047053 290.590834 
L 126.128257 270.310805 
L 126.209461 287.512615 
L 126.290665 263.518296 
L 126.37187 291.66057 
L 126.453074 276.225814 
L 126.534278 283.857231 
L 126.615482 275.724708 
L 126.696687 286.068513 
L 126.859095 260.113696 
L 126.940299 283.857231 
L 127.021503 282.072043 
L 127.102708 279.44556 
L 127.265116 266.590739 
L 127.508729 289.620225 
L 127.589933 275.328 
L 127.671137 287.512615 
L 127.752342 283.857231 
L 127.833546 270.310805 
L 127.91475 276.878769 
L 128.077159 268.608 
L 128.239567 284.513325 
L 128.320771 274.015811 
L 128.48318 287.512615 
L 128.726792 276.225814 
L 128.889201 282.243593 
L 128.970405 278.739692 
L 129.051609 285.563077 
L 129.132814 278.739692 
L 129.214018 290.112 
L 129.538835 270.516639 
L 129.620039 279.714462 
L 129.701243 256.068447 
L 129.782448 260.113696 
L 129.863652 281.014154 
L 129.944856 276.878769 
L 130.107265 262.283294 
L 130.188469 280.046298 
L 130.269673 279.714462 
L 130.350877 275.328 
L 130.432081 282.243593 
L 130.513286 273.677181 
L 130.756898 289.620225 
L 130.838103 266.798769 
L 130.919307 287.512615 
L 131.000511 266.798769 
L 131.081715 269.043304 
L 131.16292 278.338317 
L 131.244124 265.851077 
L 131.325328 281.014154 
L 131.406532 267.490328 
L 131.568941 284.513325 
L 131.650145 264.118154 
L 131.731349 286.561621 
L 131.812554 281.014154 
L 131.893758 268.017231 
L 131.974962 277.981538 
L 132.056166 277.514982 
L 132.137371 266.798769 
L 132.218575 282.243593 
L 132.380983 251.210865 
L 132.462187 278.739692 
L 132.543392 271.916308 
L 132.624596 283.408324 
L 132.7058 270.310805 
L 132.787004 273.432615 
L 132.949413 285.149538 
L 133.111821 282.243593 
L 133.193026 281.014154 
L 133.355434 286.365828 
L 133.517843 281.014154 
L 133.599047 268.608 
L 133.761455 279.44556 
L 133.84266 262.283294 
L 133.923864 265.851077 
L 134.086272 283.081846 
L 134.167476 268.608 
L 134.329885 283.857231 
L 134.411089 270.033995 
L 134.492293 273.677181 
L 134.573498 270.310805 
L 134.654702 271.916308 
L 134.735906 255.742359 
L 134.898315 283.408324 
L 134.979519 283.857231 
L 135.060723 289.620225 
L 135.223132 279.036361 
L 135.304336 291.122872 
L 135.466744 273.102983 
L 135.547949 279.714462 
L 135.710357 273.2477 
L 135.791561 283.857231 
L 135.95397 273.432615 
L 136.116378 287.512615 
L 136.197582 265.851077 
L 136.278787 285.563077 
L 136.359991 275.328 
L 136.441195 275.959795 
L 136.603604 285.563077 
L 136.684808 264.118154 
L 136.847216 281.014154 
L 136.928421 263.518296 
L 137.009625 284.513325 
L 137.090829 267.490328 
L 137.172033 281.014154 
L 137.253238 249.740308 
L 137.334442 276.225814 
L 137.415646 271.916308 
L 137.49685 258.269538 
L 137.659259 283.857231 
L 137.740463 289.620225 
L 137.821667 285.563077 
L 137.902871 286.365828 
L 137.984076 288.419377 
L 138.06528 273.2477 
L 138.146484 281.014154 
L 138.227688 255.742359 
L 138.308893 277.764923 
L 138.390097 268.608 
L 138.552505 284.513325 
L 138.63371 279.44556 
L 138.796118 288.857125 
L 138.877322 270.310805 
L 138.958527 285.563077 
L 139.120935 268.608 
L 139.202139 270.033995 
L 139.283343 283.408324 
L 139.364548 268.608 
L 139.445752 279.44556 
L 139.526956 271.916308 
L 139.60816 277.514982 
L 139.770569 269.043304 
L 139.851773 282.833723 
L 139.932977 271.916308 
L 140.17659 286.561621 
L 140.338999 276.878769 
L 140.582611 262.283294 
L 140.74502 290.590834 
L 141.069837 258.269538 
L 141.151041 281.014154 
L 141.232245 246.228271 
L 141.313449 283.857231 
L 141.394654 267.490328 
L 141.475858 273.432615 
L 141.557062 281.014154 
L 141.638266 271.916308 
L 141.800675 289.620225 
L 141.881879 285.563077 
L 141.963083 281.014154 
L 142.044288 286.365828 
L 142.125492 284.513325 
L 142.206696 273.432615 
L 142.2879 283.081846 
L 142.369105 273.432615 
L 142.450309 283.408324 
L 142.531513 279.714462 
L 142.612717 268.608 
L 142.693922 285.149538 
L 142.775126 274.515692 
L 142.85633 276.878769 
L 142.937534 269.043304 
L 143.018738 285.853434 
L 143.181147 264.472615 
L 143.343555 278.338317 
L 143.42476 278.739692 
L 143.587168 282.243593 
L 143.668372 269.641846 
L 143.749577 270.310805 
L 143.830781 268.017231 
L 143.993189 275.724708 
L 144.074394 279.714462 
L 144.155598 264.872814 
L 144.318006 286.561621 
L 144.480415 271.916308 
L 144.561619 278.739692 
L 144.642823 271.916308 
L 144.805232 281.014154 
L 144.886436 267.490328 
L 145.048844 286.561621 
L 145.292457 277.514982 
L 145.373661 287.512615 
L 145.454866 270.802286 
L 145.617274 283.857231 
L 145.779683 260.113696 
L 145.860887 271.916308 
L 145.942091 270.310805 
L 146.023295 275.724708 
L 146.1045 254.255783 
L 146.185704 282.243593 
L 146.266908 281.014154 
L 146.348112 269.043304 
L 146.429316 291.511669 
L 146.510521 263.030039 
L 146.591725 265.851077 
L 146.754133 284.513325 
L 146.835338 267.169605 
L 146.916542 288.419377 
L 146.997746 281.014154 
L 147.07895 273.677181 
L 147.160155 282.243593 
L 147.322563 250.688 
L 147.403767 277.981538 
L 147.484972 265.851077 
L 147.64738 276.878769 
L 147.728584 274.86696 
L 147.890993 249.740308 
L 147.972197 282.481548 
L 148.053401 281.014154 
L 148.134605 256.519953 
L 148.21581 263.518296 
L 148.297014 263.518296 
L 148.378218 292.386462 
L 148.459422 262.283294 
L 148.540627 270.675692 
L 148.621831 279.90466 
L 148.703035 279.714462 
L 148.865444 269.043304 
L 148.946648 283.081846 
L 149.190261 256.32 
L 149.352669 281.014154 
L 149.433873 267.490328 
L 149.596282 279.714462 
L 149.677486 281.014154 
L 149.75869 269.043304 
L 149.921099 281.014154 
L 150.083507 258.269538 
L 150.164711 270.033995 
L 150.245916 244.622769 
L 150.32712 279.714462 
L 150.408324 266.798769 
L 150.489528 245.203483 
L 150.570733 273.432615 
L 150.651937 249.740308 
L 150.733141 266.798769 
L 150.814345 259.933779 
L 150.89555 284.513325 
L 151.057958 265.851077 
L 151.139162 264.472615 
L 151.220367 246.228271 
L 151.382775 267.490328 
L 151.463979 244.622769 
L 151.545184 270.516639 
L 151.626388 265.851077 
L 151.788796 278.739692 
L 151.87 267.490328 
L 151.951205 233.130753 
L 152.113613 288.595692 
L 152.357226 247.264079 
L 152.43843 271.916308 
L 152.519634 263.518296 
L 152.600839 238.20076 
L 152.682043 271.916308 
L 152.763247 265.092923 
L 152.925656 282.243593 
L 153.00686 264.118154 
L 153.088064 271.916308 
L 153.250473 263.518296 
L 153.331677 278.338317 
L 153.412881 268.017231 
L 153.494085 278.739692 
L 153.575289 232.925538 
L 153.656494 277.514982 
L 153.737698 276.225814 
L 153.818902 255.020308 
L 153.900106 276.225814 
L 153.981311 262.283294 
L 154.143719 271.916308 
L 154.224923 271.916308 
L 154.306128 286.561621 
L 154.387332 251.210865 
L 154.468536 288.595692 
L 154.54974 266.798769 
L 154.630945 283.857231 
L 154.955762 256.519953 
L 155.036966 279.44556 
L 155.11817 271.916308 
L 155.199374 276.878769 
L 155.361783 246.619857 
L 155.442987 276.878769 
L 155.524191 258.269538 
L 155.6866 273.432615 
L 155.767804 261.860794 
L 155.930212 270.310805 
L 156.011417 270.310805 
L 156.092621 271.916308 
L 156.255029 230.173249 
L 156.336234 264.118154 
L 156.417438 252.066462 
L 156.498642 218.765733 
L 156.579846 268.608 
L 156.661051 260.337231 
L 156.742255 271.916308 
L 156.904663 266.798769 
L 156.985867 222.97617 
L 157.067072 266.798769 
L 157.148276 245.203483 
L 157.310684 278.739692 
L 157.473093 263.030039 
L 157.554297 271.916308 
L 157.635501 251.210865 
L 157.79791 265.092923 
L 157.879114 261.860794 
L 157.960318 273.432615 
L 158.041523 270.516639 
L 158.122727 265.851077 
L 158.203931 249.521609 
L 158.285135 274.86696 
L 158.36634 221.528237 
L 158.447544 259.933779 
L 158.528748 248.521846 
L 158.609952 264.118154 
L 158.691156 254.255783 
L 158.772361 273.677181 
L 158.853565 246.619857 
L 158.934769 249.740308 
L 159.015973 246.228271 
L 159.097178 205.198769 
L 159.259586 266.798769 
L 159.34079 265.851077 
L 159.421995 190.035692 
L 159.584403 238.459712 
L 159.665607 235.524923 
L 159.90922 254.255783 
L 159.990424 225.416205 
L 160.234037 254.678283 
L 160.315241 245.633641 
L 160.396445 261.518769 
L 160.47765 232.925538 
L 160.558854 256.068447 
L 160.640058 227.943385 
L 160.721262 268.017231 
L 160.802467 222.97617 
L 160.964875 262.818462 
L 161.289692 235.524923 
L 161.370896 258.269538 
L 161.452101 246.228271 
L 161.533305 147.389538 
L 161.695713 263.030039 
L 161.858122 240.313263 
L 161.939326 258.269538 
L 162.02053 220.361846 
L 162.101735 242.523266 
L 162.264143 202.441846 
L 162.426551 261.518769 
L 162.507756 209.531077 
L 162.58896 224.152615 
L 162.670164 261.518769 
L 162.751368 218.765733 
L 162.913777 256.32 
L 162.994981 190.035692 
L 163.15739 258.269538 
L 163.238594 237.799385 
L 163.319798 243.988036 
L 163.401002 231.569338 
L 163.482207 241.7993 
L 163.563411 224.152615 
L 163.644615 273.677181 
L 163.807024 173.393291 
L 163.888228 235.524923 
L 163.969432 229.655345 
L 164.13184 184.981333 
L 164.294249 238.459712 
L 164.375453 225.948243 
L 164.456657 255.020308 
L 164.70027 162.742154 
L 164.781474 235.524923 
L 164.862679 183.212308 
L 164.943883 261.236227 
L 165.025087 175.918345 
L 165.106291 190.035692 
L 165.187496 235.524923 
L 165.2687 224.946032 
L 165.431108 251.210865 
L 165.755925 174.872615 
L 165.837129 245.633641 
L 165.918334 227.254154 
L 165.999538 258.269538 
L 166.080742 190.035692 
L 166.161946 240.313263 
L 166.243151 212.780308 
L 166.324355 144.546462 
L 166.486763 224.152615 
L 166.567968 174.872615 
L 166.730376 232.387735 
L 166.892785 146.765448 
L 166.973989 146.940632 
L 167.055193 170.540308 
L 167.136397 131.549538 
L 167.298806 229.655345 
L 167.38001 149.095385 
L 167.542418 227.943385 
L 167.623623 248.521846 
L 167.704827 210.505846 
L 167.786031 246.619857 
L 167.94844 170.540308 
L 168.029644 248.521846 
L 168.110848 170.540308 
L 168.273257 254.255783 
L 168.435665 185.633509 
L 168.516869 237.9838 
L 168.598074 232.925538 
L 168.679278 207.835826 
L 168.760482 235.524923 
L 168.922891 90.45116 
L 169.004095 138.860308 
L 169.085299 124.768535 
L 169.247707 169.358769 
L 169.328912 136.083349 
L 169.410116 139.347692 
L 169.653729 237.9838 
L 169.734933 150.41604 
L 169.897341 245.360432 
L 169.978546 249.521609 
L 170.05975 198.063204 
L 170.140954 247.264079 
L 170.222158 226.427077 
L 170.303363 124.768535 
L 170.384567 137.548118 
L 170.465771 159.020308 
L 170.62818 244.622769 
L 170.790588 164.763897 
L 170.871792 218.983385 
L 170.952996 208.477272 
L 171.034201 248.521846 
L 171.115405 119.957688 
L 171.359018 243.106462 
L 171.521426 186.136615 
L 171.60263 231.293367 
L 171.683835 162.742154 
L 171.765039 202.441846 
L 171.846243 193.934769 
L 171.927447 146.614154 
L 172.089856 185.633509 
L 172.17106 131.549538 
L 172.252264 217.329231 
L 172.333469 92.558769 
L 172.414673 214.118226 
L 172.495877 181.506462 
L 172.577081 164.041846 
L 172.658286 237.799385 
L 172.73949 126.794567 
L 172.901898 207.094154 
L 172.983102 194.741475 
L 173.064307 209.531077 
L 173.145511 193.934769 
L 173.226715 201.732923 
L 173.307919 183.537231 
L 173.470328 199.556694 
L 173.632736 235.524923 
L 173.713941 77.828923 
L 173.795145 168.024774 
L 173.876349 159.220407 
L 173.957553 204.400713 
L 174.038758 167.291077 
L 174.119962 204.15304 
L 174.201166 183.212308 
L 174.28237 210.505846 
L 174.444779 168.488162 
L 174.607187 199.133538 
L 174.688391 202.441846 
L 174.8508 92.558769 
L 175.013208 235.524923 
L 175.094413 116.553089 
L 175.175617 212.04661 
L 175.256821 164.041846 
L 175.338025 184.102314 
L 175.41923 161.472687 
L 175.500434 209.531077 
L 175.581638 204.400713 
L 175.662842 101.035023 
L 175.744047 112.581056 
L 175.825251 211.264 
L 175.906455 144.546462 
L 176.068864 242.023385 
L 176.150068 215.853904 
L 176.231272 138.481231 
L 176.39368 230.607168 
L 176.474885 130.331077 
L 176.556089 167.291077 
L 176.637293 125.664139 
L 176.718497 156.840848 
L 176.799702 92.558769 
L 176.880906 176.110418 
L 176.96211 136.275692 
L 177.124519 212.251363 
L 177.205723 159.709538 
L 177.286927 203.682462 
L 177.368131 190.035692 
L 177.449336 102.306462 
L 177.611744 204.400713 
L 177.774153 53.568 
L 177.936561 230.976 
L 178.098969 112.054154 
L 178.180174 119.957688 
L 178.261378 139.758121 
L 178.342582 65.698462 
L 178.423786 159.400088 
L 178.504991 79.155692 
L 178.586195 115.953231 
L 178.667399 231.569338 
L 178.829808 131.549538 
L 178.911012 176.829141 
L 178.992216 79.561846 
L 179.07342 179.538178 
L 179.154625 84.760615 
L 179.235829 157.925647 
L 179.317033 79.155692 
L 179.479442 153.422409 
L 179.560646 147.68365 
L 179.64185 126.350769 
L 179.723054 138.048 
L 179.804258 206.678094 
L 179.885463 86.852803 
L 179.966667 152.289309 
L 180.047871 113.480645 
L 180.129075 116.115692 
L 180.291484 169.358769 
L 180.453892 126.794567 
L 180.535097 76.312615 
L 180.697505 190.035692 
L 180.778709 89.959385 
L 180.859914 182.853182 
L 181.103526 66.564923 
L 181.265935 96.663061 
L 181.428343 198.564923 
L 181.509548 100.166724 
L 181.671956 183.832615 
L 181.75316 129.989908 
L 181.834364 217.329231 
L 181.996773 80.195842 
L 182.077977 125.815602 
L 182.159181 185.900308 
L 182.32159 116.553089 
L 182.483998 165.953158 
L 182.565203 128.625231 
L 182.646407 138.860308 
L 182.727611 130.331077 
L 182.808815 69.164308 
L 182.89002 106.823685 
L 182.971224 68.731077 
L 183.052428 173.393291 
L 183.133632 117.446494 
L 183.214837 154.435425 
L 183.296041 127.050604 
L 183.377245 142.689758 
L 183.458449 59.026708 
L 183.539653 186.707212 
L 183.620858 113.480645 
L 183.702062 123.751385 
L 183.783266 117.78809 
L 183.86447 138.048 
L 183.945675 118.210591 
L 184.108083 133.451527 
L 184.189287 59.915335 
L 184.270492 129.060766 
L 184.351696 87.684923 
L 184.514104 159.220407 
L 184.757717 138.860308 
L 184.920126 66.262669 
L 185.00133 216.167804 
L 185.163738 135.448615 
L 185.244942 142.272 
L 185.326147 53.568 
L 185.407351 167.291077 
L 185.488555 87.684923 
L 185.569759 91.475692 
L 185.732168 53.568 
L 185.813372 120.137606 
L 186.056985 53.568 
L 186.138189 198.564923 
L 186.219393 105.204424 
L 186.300598 174.872615 
L 186.381802 59.915335 
L 186.463006 118.210591 
L 186.54421 64.271348 
L 186.625415 100.356923 
L 186.706619 83.074528 
L 186.869027 153.829978 
L 186.950231 70.27833 
L 187.031436 74.56303 
L 187.193844 187.003077 
L 187.275048 70.626462 
L 187.356253 185.900308 
L 187.437457 178.970744 
L 187.599865 66.262669 
L 187.68107 186.707212 
L 187.762274 136.964923 
L 187.843478 186.707212 
L 187.924682 73.538882 
L 188.005887 87.684923 
L 188.087091 80.195842 
L 188.168295 100.625825 
L 188.330704 155.918769 
L 188.411908 90.786462 
L 188.493112 186.347376 
L 188.574316 91.475692 
L 188.65552 95.101645 
L 188.736725 69.164308 
L 188.817929 193.724008 
L 189.142746 60.566343 
L 189.305154 174.167356 
L 189.386359 53.568 
L 189.467563 69.944123 
L 189.548767 149.095385 
L 189.629971 147.389538 
L 189.711176 73.063385 
L 189.873584 154.123142 
L 190.035993 66.564923 
L 190.198401 155.918769 
L 190.360809 67.214769 
L 190.442014 79.981102 
L 190.604422 165.541491 
L 190.685626 186.136615 
L 190.766831 60.066462 
L 190.848035 84.583385 
L 190.929239 76.312615 
L 191.010443 146.940632 
L 191.091648 53.568 
L 191.172852 155.918769 
L 191.254056 53.568 
L 191.33526 90.45116 
L 191.416465 53.568 
L 191.497669 73.063385 
L 191.578873 67.93302 
L 191.660077 183.537231 
L 191.822486 60.75051 
L 191.90369 79.561846 
L 192.066099 176.829141 
L 192.147303 70.109538 
L 192.309711 190.035692 
L 192.390915 60.944632 
L 192.47212 144.546462 
L 192.553324 77.650534 
L 192.634528 120.137606 
L 192.796937 61.366154 
L 192.878141 180.050251 
L 192.959345 53.568 
L 193.121754 132.807305 
L 193.284162 53.568 
L 193.365366 172.235559 
L 193.446571 97.827792 
L 193.527775 186.707212 
L 193.608979 60.566343 
L 193.690183 62.979565 
L 193.771388 75.11553 
L 193.852592 60.944632 
L 193.933796 193.724008 
L 194.015 190.035692 
L 194.096204 67.564686 
L 194.177409 95.558059 
L 194.258613 96.663061 
L 194.421021 60.066462 
L 194.502226 66.881921 
L 194.58343 130.701913 
L 194.664634 109.760579 
L 194.827043 103.192615 
L 194.908247 108.155077 
L 195.070655 67.93302 
L 195.15186 60.224961 
L 195.233064 141.611672 
L 195.395472 53.568 
L 195.476677 62.372367 
L 195.557881 53.568 
L 195.639085 159.220407 
L 195.720289 53.568 
L 195.801493 157.925647 
L 195.882698 128.625231 
L 195.963902 53.568 
L 196.045106 131.549538 
L 196.12631 112.901779 
L 196.207515 69.164308 
L 196.288719 117.78809 
L 196.369923 66.564923 
L 196.451127 96.024615 
L 196.532332 75.697896 
L 196.613536 126.794567 
L 196.69474 63.315692 
L 196.775944 123.551432 
L 196.857149 67.93302 
L 196.938353 108.155077 
L 197.019557 67.214769 
L 197.100761 144.546462 
L 197.26317 59.915335 
L 197.344374 155.918769 
L 197.506782 72.177231 
L 197.587987 53.568 
L 197.750395 66.564923 
L 197.831599 111.463385 
L 197.912804 60.391385 
L 197.994008 86.651077 
L 198.156416 53.568 
L 198.237621 61.149538 
L 198.318825 144.546462 
L 198.481233 53.568 
L 198.562438 83.894154 
L 198.643642 61.366154 
L 198.724846 86.852803 
L 198.80605 53.568 
L 198.887255 69.944123 
L 198.968459 66.262669 
L 199.049663 186.862025 
L 199.130867 67.93302 
L 199.212071 92.558769 
L 199.37448 139.347692 
L 199.455684 53.568 
L 199.536888 60.75051 
L 199.618093 53.568 
L 199.699297 60.391385 
L 199.780501 80.861538 
L 199.861705 172.977231 
L 200.024114 60.224961 
L 200.105318 64.271348 
L 200.186522 76.312615 
L 200.348931 67.214769 
L 200.511339 75.697896 
L 200.592544 90.786462 
L 200.673748 66.881921 
L 200.754952 109.395692 
L 200.836156 97.827792 
L 200.91736 53.568 
L 200.998565 128.625231 
L 201.079769 53.568 
L 201.160973 105.204424 
L 201.242177 62.097231 
L 201.323382 68.731077 
L 201.404586 66.564923 
L 201.48579 68.321264 
L 201.566994 61.838769 
L 201.648199 186.536521 
L 201.810607 64.271348 
L 201.973016 80.861538 
L 202.05422 69.623023 
L 202.135424 88.410815 
L 202.216628 53.568 
L 202.297833 63.315692 
L 202.379037 60.75051 
L 202.460241 79.561846 
L 202.541445 190.035692 
L 202.703854 53.568 
L 202.866262 74.56303 
L 202.947466 53.568 
L 203.028671 61.149538 
L 203.109875 162.742154 
L 203.272283 60.944632 
L 203.434692 85.304673 
L 203.515896 60.391385 
L 203.5971 64.065515 
L 203.678305 64.485415 
L 203.759509 74.038154 
L 203.921917 53.568 
L 204.003122 65.434756 
L 204.084326 150.232615 
L 204.16553 69.314272 
L 204.246734 89.480551 
L 204.327939 61.149538 
L 204.409143 70.989408 
L 204.490347 53.568 
L 204.571551 59.501378 
L 204.652755 138.481231 
L 204.815164 53.568 
L 204.896368 60.75051 
L 204.977572 128.86052 
L 205.139981 59.501378 
L 205.221185 60.224961 
L 205.302389 126.794567 
L 205.383594 63.676718 
L 205.464798 65.182272 
L 205.627206 79.981102 
L 205.708411 105.204424 
L 205.789615 59.915335 
L 205.870819 61.595511 
L 205.952023 62.372367 
L 206.033228 53.568 
L 206.114432 136.964923 
L 206.27684 60.944632 
L 206.358044 152.817231 
L 206.439249 61.595511 
L 206.520453 67.214769 
L 206.601657 62.979565 
L 206.682861 67.214769 
L 206.764066 115.953231 
L 206.84527 108.155077 
L 206.926474 120.514415 
L 207.007678 175.918345 
L 207.170087 53.568 
L 207.332495 74.038154 
L 207.4137 53.568 
L 207.494904 121.801846 
L 207.576108 63.315692 
L 207.657312 70.626462 
L 207.738517 103.192615 
L 207.982129 53.568 
L 208.063333 60.224961 
L 208.144538 136.275692 
L 208.306946 53.568 
L 208.38815 60.75051 
L 208.631763 187.359855 
L 208.794172 66.564923 
L 208.875376 123.551432 
L 208.95658 53.568 
L 209.037784 66.881921 
L 209.118989 138.048 
L 209.362601 71.176734 
L 209.443806 73.538882 
L 209.52501 144.546462 
L 209.606214 53.568 
L 209.687418 72.177231 
L 209.849827 61.149538 
L 209.931031 114.978462 
L 210.012235 61.595511 
L 210.174644 140.108488 
L 210.255848 195.96907 
L 210.418256 59.633231 
L 210.499461 53.568 
L 210.580665 80.861538 
L 210.743073 53.568 
L 210.824278 182.008181 
L 210.905482 53.568 
L 210.986686 60.066462 
L 211.06789 67.93302 
L 211.149095 53.568 
L 211.230299 132.575611 
L 211.392707 53.568 
L 211.63632 67.93302 
L 211.717524 109.760579 
L 211.879933 53.568 
L 211.961137 53.568 
L 212.123545 97.999342 
L 212.285954 65.434756 
L 212.367158 93.705557 
L 212.448362 190.035692 
L 212.529567 53.568 
L 212.610771 59.771077 
L 212.691975 72.610004 
L 212.773179 59.633231 
L 212.854384 60.224961 
L 213.016792 53.568 
L 213.097996 123.25363 
L 213.179201 62.979565 
L 213.260405 63.676718 
L 213.422813 53.568 
L 213.504017 123.551432 
L 213.666426 53.568 
L 213.74763 123.38868 
L 213.828834 53.568 
L 213.991243 182.008181 
L 214.153651 60.066462 
L 214.234856 59.915335 
L 214.31606 60.75051 
L 214.397264 119.957688 
L 214.478468 53.568 
L 214.559673 66.881921 
L 214.640877 60.224961 
L 214.722081 136.964923 
L 214.88449 70.626462 
L 215.046898 99.057231 
L 215.209306 53.568 
L 215.290511 64.485415 
L 215.371715 62.372367 
L 215.452919 59.633231 
L 215.534123 114.220308 
L 215.615328 65.434756 
L 215.696532 90.45116 
L 215.777736 53.568 
L 215.85894 178.168936 
L 216.021349 59.375136 
L 216.183757 60.75051 
L 216.264962 53.568 
L 216.346166 71.763692 
L 216.42737 125.815602 
L 216.589779 53.568 
L 216.670983 74.56303 
L 216.752187 53.568 
L 216.833391 61.149538 
L 216.9958 70.27833 
L 217.158208 105.204424 
L 217.320617 53.568 
L 217.401821 53.568 
L 217.483025 138.860308 
L 217.645434 53.568 
L 217.726638 70.626462 
L 217.889046 59.254154 
L 217.970251 60.224961 
L 218.051455 65.698462 
L 218.132659 144.546462 
L 218.213863 60.944632 
L 218.295068 117.78809 
L 218.376272 59.254154 
L 218.457476 60.391385 
L 218.53868 90.786462 
L 218.619884 61.366154 
L 218.701089 126.350769 
L 218.782293 53.568 
L 218.863497 185.633509 
L 219.025906 65.434756 
L 219.10711 162.742154 
L 219.188314 151.044923 
L 219.269518 60.75051 
L 219.350723 67.214769 
L 219.431927 60.066462 
L 219.513131 65.434756 
L 219.594335 60.391385 
L 219.67554 75.11553 
L 219.756744 74.974697 
L 219.837948 60.391385 
L 219.919152 160.07937 
L 220.000357 67.93302 
L 220.081561 171.426462 
L 220.243969 53.568 
L 220.325173 123.751385 
L 220.487582 53.568 
L 220.568786 69.164308 
L 220.64999 182.008181 
L 220.731195 53.568 
L 220.812399 60.066462 
L 220.893603 53.568 
L 221.056012 64.940308 
L 221.137216 53.568 
L 221.299624 59.915335 
L 221.380829 53.568 
L 221.543237 69.164308 
L 221.705646 53.568 
L 221.868054 67.93302 
L 221.949258 53.568 
L 222.030463 65.434756 
L 222.111667 59.501378 
L 222.192871 164.21748 
L 222.274075 61.149538 
L 222.355279 67.93302 
L 222.517688 154.123142 
L 222.680096 53.568 
L 222.761301 60.391385 
L 222.923709 53.568 
L 223.086118 62.097231 
L 223.167322 53.568 
L 223.248526 60.391385 
L 223.32973 53.568 
L 223.410935 61.838769 
L 223.573343 190.035692 
L 223.735752 59.771077 
L 223.816956 59.501378 
L 223.979364 172.667077 
L 224.060568 67.93302 
L 224.141773 144.546462 
L 224.304181 53.568 
L 224.385385 73.538882 
L 224.46659 144.546462 
L 224.547794 68.731077 
L 224.628998 80.861538 
L 224.710202 66.262669 
L 224.791407 90.786462 
L 224.872611 53.568 
L 224.953815 66.881921 
L 225.035019 83.894154 
L 225.197428 174.167356 
L 225.359836 62.665846 
L 225.441041 72.610004 
L 225.522245 53.568 
L 225.684653 86.988659 
L 225.765857 88.785469 
L 225.847062 79.155692 
L 225.928266 81.998769 
L 226.171879 53.568 
L 226.253083 60.75051 
L 226.334287 60.391385 
L 226.415491 96.214154 
L 226.5779 53.568 
L 226.740308 60.944632 
L 226.821513 91.475692 
L 226.902717 64.940308 
L 226.983921 96.214154 
L 227.065125 53.568 
L 227.14633 59.633231 
L 227.227534 74.974697 
L 227.308738 175.918345 
L 227.389942 60.944632 
L 227.471146 89.480551 
L 227.633555 53.568 
L 227.714759 65.698462 
L 227.795963 53.568 
L 227.877168 60.391385 
L 227.958372 59.633231 
L 228.12078 53.568 
L 228.201985 95.558059 
L 228.364393 59.254154 
L 228.445597 59.915335 
L 228.608006 186.347376 
L 228.68921 53.568 
L 228.770414 70.109538 
L 228.851619 59.13811 
L 228.932823 60.391385 
L 229.014027 62.979565 
L 229.095231 69.623023 
L 229.176435 148.502047 
L 229.338844 53.568 
L 229.420048 65.974154 
L 229.501252 60.066462 
L 229.582457 66.881921 
L 229.826069 53.568 
L 229.988478 53.568 
L 230.069682 84.583385 
L 230.150886 53.568 
L 230.232091 67.564686 
L 230.394499 60.566343 
L 230.475703 61.366154 
L 230.556908 53.568 
L 230.719316 131.549538 
L 230.80052 53.568 
L 230.881724 68.731077 
L 230.962929 125.051077 
L 231.125337 60.066462 
L 231.206541 144.546462 
L 231.287746 74.038154 
L 231.36895 87.684923 
L 231.450154 67.93302 
L 231.531358 91.475692 
L 231.693767 53.568 
L 231.774971 66.262669 
L 231.93738 59.771077 
L 232.018584 75.11553 
L 232.099788 59.13811 
L 232.180992 60.944632 
L 232.262197 75.11553 
L 232.424605 53.568 
L 232.505809 74.56303 
L 232.587014 138.272085 
L 232.749422 60.75051 
L 232.91183 53.568 
L 232.993035 59.375136 
L 233.074239 86.060308 
L 233.155443 53.568 
L 233.236647 164.21748 
L 233.399056 64.940308 
L 233.48026 155.24981 
L 233.561464 53.568 
L 233.642669 59.13811 
L 233.723873 144.546462 
L 233.805077 59.375136 
L 233.886281 59.633231 
L 233.967486 140.108488 
L 234.04869 53.568 
L 234.129894 68.321264 
L 234.211098 59.633231 
L 234.292303 128.004923 
L 234.373507 53.568 
L 234.454711 65.698462 
L 234.535915 61.149538 
L 234.617119 68.731077 
L 234.698324 53.568 
L 234.779528 65.974154 
L 234.860732 53.568 
L 234.941936 63.676718 
L 235.104345 53.568 
L 235.185549 53.568 
L 235.347958 67.564686 
L 235.429162 53.568 
L 235.510366 88.559716 
L 235.672775 53.568 
L 235.753979 105.204424 
L 235.835183 62.097231 
L 235.916387 134.710952 
L 235.997592 58.530462 
L 236.078796 61.595511 
L 236.16 97.827792 
L 236.241204 53.568 
L 236.322408 59.375136 
L 236.403613 116.115692 
L 236.484817 60.224961 
L 236.566021 65.182272 
L 236.647225 88.559716 
L 236.809634 53.568 
L 236.890838 74.56303 
L 236.972042 59.501378 
L 237.053247 105.204424 
L 237.134451 60.944632 
L 237.215655 89.480551 
L 237.378064 53.568 
L 237.459268 61.595511 
L 237.540472 102.089846 
L 237.702881 59.915335 
L 237.784085 73.063385 
L 237.865289 53.568 
L 237.946493 75.697896 
L 238.027697 70.109538 
L 238.108902 73.538882 
L 238.190106 53.568 
L 238.27131 66.262669 
L 238.352514 64.940308 
L 238.433719 163.903581 
L 238.596127 59.501378 
L 238.758536 53.568 
L 238.83974 67.564686 
L 238.920944 60.391385 
L 239.002148 102.306462 
L 239.083353 53.568 
L 239.164557 72.177231 
L 239.245761 53.568 
L 239.326965 83.074528 
L 239.40817 61.149538 
L 239.489374 61.838769 
L 239.570578 53.568 
L 239.651782 156.676923 
L 239.732986 53.568 
L 239.814191 60.75051 
L 239.976599 82.811077 
L 240.057803 127.050604 
L 240.139008 53.568 
L 240.220212 66.564923 
L 240.301416 83.074528 
L 240.38262 53.568 
L 240.545029 94.921846 
L 240.707437 53.568 
L 240.788642 68.731077 
L 240.95105 125.051077 
L 241.032254 53.568 
L 241.113459 59.254154 
L 241.194663 73.538882 
L 241.275867 53.568 
L 241.357071 65.434756 
L 241.438276 59.501378 
L 241.51948 77.650534 
L 241.681888 53.568 
L 241.844297 67.564686 
L 241.925501 62.665846 
L 242.087909 93.705557 
L 242.169114 69.164308 
L 242.250318 160.07937 
L 242.412726 60.75051 
L 242.493931 53.568 
L 242.575135 186.136615 
L 242.656339 168.200862 
L 242.737543 60.75051 
L 242.818748 82.29804 
L 242.899952 100.166724 
L 242.981156 53.568 
L 243.06236 68.731077 
L 243.143565 53.568 
L 243.224769 60.066462 
L 243.305973 132.807305 
L 243.387177 64.485415 
L 243.468381 67.93302 
L 243.549586 75.11553 
L 243.711994 155.918769 
L 243.793198 65.698462 
L 243.874403 67.214769 
L 243.955607 168.488162 
L 244.118015 53.568 
L 244.19922 61.366154 
L 244.280424 197.617231 
L 244.442832 70.626462 
L 244.524037 100.806817 
L 244.686445 53.568 
L 244.767649 159.220407 
L 244.930058 53.568 
L 245.011262 84.760615 
L 245.092466 53.568 
L 245.254875 148.778018 
L 245.417283 59.13811 
L 245.498487 110.694011 
L 245.660896 69.164308 
L 245.823304 53.568 
L 245.985713 67.93302 
L 246.066917 53.568 
L 246.229326 61.838769 
L 246.31053 126.794567 
L 246.391734 53.568 
L 246.472938 128.004923 
L 246.554143 66.564923 
L 246.635347 67.564686 
L 246.716551 68.731077 
L 246.878959 180.050251 
L 246.960164 53.568 
L 247.041368 73.063385 
L 247.122572 147.68365 
L 247.203776 66.564923 
L 247.284981 68.321264 
L 247.366185 71.763692 
L 247.447389 69.623023 
L 247.528593 53.568 
L 247.609798 61.595511 
L 247.691002 60.944632 
L 247.85341 53.568 
L 247.934615 117.78809 
L 248.015819 68.321264 
L 248.178227 95.558059 
L 248.259432 53.568 
L 248.340636 60.066462 
L 248.503044 67.93302 
L 248.584248 53.568 
L 248.665453 128.004923 
L 248.746657 53.568 
L 248.827861 144.546462 
L 248.909065 78.380308 
L 248.99027 85.678045 
L 249.071474 53.568 
L 249.152678 73.063385 
L 249.233882 138.048 
L 249.396291 53.568 
L 249.477495 61.366154 
L 249.639904 154.944 
L 249.721108 53.568 
L 249.883516 123.551432 
L 249.964721 60.066462 
L 250.045925 62.979565 
L 250.127129 58.919674 
L 250.208333 65.434756 
L 250.289537 59.915335 
L 250.370742 66.262669 
L 250.451946 59.13811 
L 250.53315 78.380308 
L 250.614354 142.272 
L 250.695559 53.568 
L 250.776763 63.676718 
L 250.857967 106.638769 
L 251.020376 53.568 
L 251.10158 83.074528 
L 251.182784 53.568 
L 251.263988 67.93302 
L 251.345193 53.568 
L 251.507601 66.881921 
L 251.588805 60.391385 
L 251.67001 70.989408 
L 251.913622 193.364173 
L 252.076031 53.568 
L 252.157235 134.710952 
L 252.319643 53.568 
L 252.400848 190.035692 
L 252.482052 60.066462 
L 252.563256 65.974154 
L 252.64446 65.182272 
L 252.888073 53.568 
L 252.969277 149.095385 
L 253.131686 53.568 
L 253.294094 66.564923 
L 253.375299 73.063385 
L 253.456503 69.623023 
L 253.537707 53.568 
L 253.618911 60.391385 
L 253.700116 58.816757 
L 253.78132 88.559716 
L 253.862524 62.097231 
L 254.024932 109.554746 
L 254.106137 61.149538 
L 254.187341 83.894154 
L 254.349749 53.568 
L 254.674566 76.312615 
L 254.755771 96.989538 
L 254.836975 53.568 
L 254.918179 65.974154 
L 254.999383 95.558059 
L 255.080588 53.568 
L 255.161792 81.802695 
L 255.242996 53.568 
L 255.3242 61.838769 
L 255.405405 171.84 
L 255.486609 53.568 
L 255.567813 60.75051 
L 255.649017 117.78809 
L 255.811426 53.568 
L 255.89263 65.434756 
L 255.973834 59.633231 
L 256.055038 66.564923 
L 256.136243 53.568 
L 256.217447 65.434756 
L 256.298651 128.004923 
L 256.46106 53.568 
L 256.542264 53.568 
L 256.704672 67.214769 
L 256.785877 53.568 
L 256.867081 87.684923 
L 256.948285 62.665846 
L 257.029489 91.652007 
L 257.191898 53.568 
L 257.273102 108.155077 
L 257.354306 67.564686 
L 257.43551 74.038154 
L 257.516715 60.391385 
L 257.597919 111.463385 
L 257.760327 66.881921 
L 257.841532 67.93302 
L 257.922736 121.801846 
L 258.085144 60.944632 
L 258.166349 63.676718 
L 258.247553 76.962462 
L 258.328757 53.568 
L 258.491166 180.050251 
L 258.653574 53.568 
L 258.734778 68.731077 
L 258.815983 59.771077 
L 258.897187 61.149538 
L 258.978391 103.192615 
L 259.140799 53.568 
L 259.222004 74.56303 
L 259.384412 53.568 
L 259.465616 69.623023 
L 259.546821 66.881921 
L 259.628025 53.568 
L 259.709229 76.962462 
L 259.790433 62.979565 
L 259.871638 66.881921 
L 259.952842 109.554746 
L 260.11525 53.568 
L 260.277659 69.164308 
L 260.521272 53.568 
L 260.602476 61.366154 
L 260.68368 53.568 
L 260.846088 79.561846 
L 261.008497 53.568 
L 261.089701 187.46083 
L 261.170905 108.155077 
L 261.25211 109.554746 
L 261.333314 64.940308 
L 261.414518 71.176734 
L 261.576927 53.568 
L 261.658131 60.566343 
L 261.739335 186.862025 
L 261.901744 53.568 
L 262.064152 66.881921 
L 262.145356 60.566343 
L 262.226561 79.561846 
L 262.307765 60.391385 
L 262.388969 180.514691 
L 262.470173 59.771077 
L 262.551378 68.731077 
L 262.632582 66.262669 
L 262.713786 73.538882 
L 262.876194 53.568 
L 262.957399 100.025087 
L 263.038603 60.391385 
L 263.119807 68.731077 
L 263.201011 109.269099 
L 263.36342 60.391385 
L 263.525828 97.827792 
L 263.607033 60.224961 
L 263.688237 167.820021 
L 263.850645 53.568 
L 263.93185 180.050251 
L 264.013054 105.065242 
L 264.094258 162.742154 
L 264.256667 67.564686 
L 264.337871 169.358769 
L 264.500279 53.568 
L 264.743892 106.638769 
L 264.9063 53.568 
L 264.987505 60.75051 
L 265.149913 187.132124 
L 265.231117 53.568 
L 265.312322 62.979565 
L 265.393526 72.177231 
L 265.47473 53.568 
L 265.555934 67.564686 
L 265.637139 66.262669 
L 265.718343 67.214769 
L 265.961956 53.568 
L 266.04316 183.537231 
L 266.124364 53.568 
L 266.205568 60.75051 
L 266.286772 59.375136 
L 266.367977 60.224961 
L 266.611589 160.792615 
L 266.692794 129.383385 
L 266.855202 53.568 
L 266.936406 79.561846 
L 267.017611 53.568 
L 267.098815 100.625825 
L 267.261223 53.568 
L 267.342428 71.763692 
L 267.423632 157.095215 
L 267.504836 59.915335 
L 267.58604 60.066462 
L 267.667245 60.566343 
L 267.748449 53.568 
L 267.829653 165.953158 
L 267.992061 53.568 
L 268.073266 69.944123 
L 268.15447 182.454154 
L 268.316878 53.568 
L 268.398083 117.252923 
L 268.560491 53.568 
L 268.7229 53.568 
L 268.804104 112.054154 
L 268.966512 53.568 
L 269.047717 65.974154 
L 269.291329 53.568 
L 269.372534 68.731077 
L 269.453738 53.568 
L 269.534942 59.254154 
L 269.616146 53.568 
L 269.69735 60.75051 
L 269.778555 59.501378 
L 269.859759 53.568 
L 269.940963 102.556402 
L 270.022167 53.568 
L 270.103372 60.066462 
L 270.184576 60.75051 
L 270.26578 53.568 
L 270.346984 72.610004 
L 270.509393 53.568 
L 270.590597 60.066462 
L 270.671801 117.252923 
L 270.753006 53.568 
L 270.83421 80.195842 
L 270.996618 59.501378 
L 271.077823 61.595511 
L 271.159027 78.380308 
L 271.321435 53.568 
L 271.483844 69.164308 
L 271.565048 53.568 
L 271.646252 65.182272 
L 271.727456 60.566343 
L 271.808661 67.214769 
L 271.971069 178.168936 
L 272.052273 60.75051 
L 272.133478 62.097231 
L 272.214682 62.372367 
L 272.295886 53.568 
L 272.37709 100.166724 
L 272.458295 65.974154 
L 272.701907 97.589836 
L 272.864316 53.568 
L 272.94552 59.13811 
L 273.026724 104.743385 
L 273.107929 53.568 
L 273.189133 59.771077 
L 273.270337 77.650534 
L 273.351541 68.321264 
L 273.432745 82.29804 
L 273.595154 53.568 
L 273.676358 86.852803 
L 273.757562 66.881921 
L 273.838767 89.480551 
L 274.001175 53.568 
L 274.163584 61.838769 
L 274.244788 130.331077 
L 274.407196 53.568 
L 274.488401 108.155077 
L 274.650809 60.75051 
L 274.813218 53.568 
L 274.894422 53.568 
L 274.975626 70.989408 
L 275.05683 61.366154 
L 275.138034 79.155692 
L 275.300443 59.771077 
L 275.62526 75.697896 
L 275.787668 53.568 
L 276.031281 86.651077 
L 276.274894 59.771077 
L 276.437302 53.568 
L 276.518507 66.262669 
L 276.599711 61.838769 
L 276.680915 72.177231 
L 276.762119 61.366154 
L 276.843323 149.095385 
L 277.005732 60.066462 
L 277.086936 146.482173 
L 277.249345 53.568 
L 277.330549 53.568 
L 277.574162 70.626462 
L 277.655366 174.167356 
L 277.73657 66.564923 
L 277.817774 173.98067 
L 277.898979 59.501378 
L 277.980183 78.957338 
L 278.061387 69.623023 
L 278.142591 106.394203 
L 278.223796 59.915335 
L 278.305 60.944632 
L 278.386204 73.538882 
L 278.467408 53.568 
L 278.548612 68.731077 
L 278.711021 53.568 
L 278.792225 60.224961 
L 278.954634 53.568 
L 279.035838 89.959385 
L 279.117042 53.568 
L 279.198246 61.149538 
L 279.279451 77.828923 
L 279.360655 72.610004 
L 279.604268 53.568 
L 279.685472 53.568 
L 279.766676 68.731077 
L 279.84788 53.568 
L 279.929085 65.434756 
L 280.010289 60.75051 
L 280.091493 69.164308 
L 280.253901 53.568 
L 280.41631 87.684923 
L 280.578718 53.568 
L 280.659923 62.097231 
L 280.741127 61.366154 
L 280.822331 149.464216 
L 280.903535 53.568 
L 280.98474 88.785469 
L 281.147148 53.568 
L 281.309557 53.568 
L 281.390761 60.944632 
L 281.471965 53.568 
L 281.634374 72.610004 
L 281.796782 53.568 
L 281.877986 59.633231 
L 281.959191 53.568 
L 282.040395 60.75051 
L 282.121599 53.568 
L 282.365212 127.050604 
L 282.446416 53.568 
L 282.52762 60.066462 
L 282.608824 85.678045 
L 282.690029 53.568 
L 282.771233 77.828923 
L 282.852437 63.867448 
L 282.933641 109.554746 
L 283.09605 53.568 
L 283.177254 101.331692 
L 283.339663 53.568 
L 283.420867 125.393101 
L 283.502071 60.224961 
L 283.583275 61.595511 
L 283.745684 185.633509 
L 283.826888 60.566343 
L 283.908092 108.155077 
L 283.989296 53.568 
L 284.070501 74.56303 
L 284.151705 53.568 
L 284.232909 86.852803 
L 284.314113 53.568 
L 284.395318 59.026708 
L 284.476522 60.75051 
L 284.720135 73.063385 
L 284.801339 61.149538 
L 284.882543 67.564686 
L 284.963747 59.915335 
L 285.044952 65.182272 
L 285.126156 60.391385 
L 285.20736 169.358769 
L 285.288564 53.568 
L 285.369769 96.381394 
L 285.450973 59.915335 
L 285.532177 61.366154 
L 285.613381 59.633231 
L 285.77579 53.568 
L 285.856994 66.881921 
L 285.938198 60.066462 
L 286.019402 67.93302 
L 286.100607 53.568 
L 286.181811 105.555692 
L 286.344219 59.915335 
L 286.506628 53.568 
L 286.587832 68.731077 
L 286.750241 53.568 
L 286.831445 59.026708 
L 286.912649 108.155077 
L 287.075058 60.224961 
L 287.237466 140.108488 
L 287.31867 53.568 
L 287.399874 68.731077 
L 287.481079 70.989408 
L 287.562283 53.568 
L 287.643487 70.109538 
L 287.724691 132.575611 
L 287.805896 60.75051 
L 287.8871 66.262669 
L 288.130713 53.568 
L 288.293121 65.434756 
L 288.374325 131.549538 
L 288.536734 53.568 
L 288.617938 53.568 
L 288.699142 91.475692 
L 288.780347 59.915335 
L 288.861551 93.509764 
L 289.023959 53.568 
L 289.105163 117.78809 
L 289.186368 53.568 
L 289.267572 64.940308 
L 289.42998 53.568 
L 289.511185 66.262669 
L 289.592389 59.915335 
L 289.754797 123.751385 
L 289.836002 53.568 
L 289.917206 60.391385 
L 289.99841 90.786462 
L 290.160819 53.568 
L 290.323227 53.568 
L 290.404431 164.448 
L 290.485636 72.610004 
L 290.56684 116.553089 
L 290.648044 59.915335 
L 290.729248 60.566343 
L 290.810452 86.320246 
L 290.891657 53.568 
L 291.054065 75.402831 
L 291.135269 75.11553 
L 291.216474 66.564923 
L 291.297678 70.626462 
L 291.378882 53.568 
L 291.460086 74.038154 
L 291.541291 69.164308 
L 291.622495 85.410462 
L 291.703699 160.07937 
L 291.784903 58.622359 
L 291.866108 59.13811 
L 291.947312 61.595511 
L 292.028516 53.568 
L 292.10972 67.214769 
L 292.190925 53.568 
L 292.272129 68.731077 
L 292.353333 59.771077 
L 292.434537 60.75051 
L 292.515742 59.375136 
L 292.596946 80.861538 
L 292.67815 60.566343 
L 292.759354 65.182272 
L 292.840558 164.041846 
L 293.002967 53.568 
L 293.084171 85.678045 
L 293.165375 66.881921 
L 293.24658 73.538882 
L 293.327784 65.974154 
L 293.408988 113.480645 
L 293.571397 63.676718 
L 293.652601 53.568 
L 293.733805 61.149538 
L 293.815009 53.568 
L 293.896214 62.372367 
L 293.977418 60.566343 
L 294.058622 149.464216 
L 294.139826 59.501378 
L 294.221031 187.003077 
L 294.302235 53.568 
L 294.383439 60.944632 
L 294.464643 53.568 
L 294.545847 131.549538 
L 294.708256 53.568 
L 294.78946 53.568 
L 294.870664 133.451527 
L 295.033073 60.75051 
L 295.114277 151.544805 
L 295.195481 124.329026 
L 295.276686 58.816757 
L 295.35789 66.881921 
L 295.439094 71.368134 
L 295.601503 53.568 
L 295.682707 64.70822 
L 295.763911 53.568 
L 295.845115 65.974154 
L 295.92632 60.944632 
L 296.007524 84.583385 
L 296.169932 53.568 
L 296.251136 70.109538 
L 296.332341 136.275692 
L 296.413545 73.538882 
L 296.494749 79.316621 
L 296.575953 74.56303 
L 296.657158 127.33432 
L 296.819566 53.568 
L 296.90077 92.558769 
L 297.063179 53.568 
L 297.225587 53.568 
L 297.306792 158.543148 
L 297.4692 53.568 
L 297.631609 53.568 
L 297.712813 103.845571 
L 297.875221 65.974154 
L 297.956425 59.915335 
L 298.118834 125.051077 
L 298.281242 60.75051 
L 298.443651 68.321264 
L 298.524855 60.944632 
L 298.687264 108.155077 
L 298.768468 53.568 
L 298.849672 60.944632 
L 299.012081 72.072094 
L 299.255693 53.568 
L 299.336898 99.057231 
L 299.418102 59.501378 
L 299.499306 90.45116 
L 299.661714 66.564923 
L 299.742919 64.271348 
L 299.824123 67.93302 
L 299.905327 60.391385 
L 299.986531 74.038154 
L 300.311348 53.568 
L 300.554961 81.561373 
L 300.636165 65.974154 
L 300.71737 69.164308 
L 300.798574 137.548118 
L 300.960982 59.375136 
L 301.042187 77.828923 
L 301.123391 53.568 
L 301.367004 89.480551 
L 301.529412 53.568 
L 301.610616 62.979565 
L 301.773025 53.568 
L 301.854229 65.182272 
L 301.935433 120.285538 
L 302.016637 53.568 
L 302.097842 73.063385 
L 302.179046 53.568 
L 302.26025 58.919674 
L 302.341454 104.743385 
L 302.422659 104.346676 
L 302.503863 53.568 
L 302.585067 67.214769 
L 302.666271 75.11553 
L 302.747476 59.771077 
L 302.82868 75.11553 
L 302.991088 53.568 
L 303.072293 149.464216 
L 303.234701 53.568 
L 303.315905 61.838769 
L 303.397109 103.845571 
L 303.478314 65.434756 
L 303.559518 73.063385 
L 303.640722 60.566343 
L 303.721926 94.508308 
L 303.884335 53.568 
L 303.965539 86.320246 
L 304.127948 53.568 
L 304.209152 67.214769 
L 304.290356 66.262669 
L 304.37156 75.11553 
L 304.452765 53.568 
L 304.533969 62.665846 
L 304.615173 60.944632 
L 304.696377 53.568 
L 304.777582 75.11553 
L 304.858786 59.771077 
L 304.93999 67.93302 
L 305.021194 59.501378 
L 305.102398 159.020308 
L 305.183603 60.066462 
L 305.264807 60.566343 
L 305.346011 62.979565 
L 305.427215 53.568 
L 305.50842 73.063385 
L 305.589624 67.214769 
L 305.752032 53.568 
L 305.995645 68.731077 
L 306.076849 60.944632 
L 306.158054 128.004923 
L 306.320462 53.568 
L 306.564075 102.556402 
L 306.645279 53.568 
L 306.726483 60.75051 
L 306.807687 66.881921 
L 306.888892 162.742154 
L 306.970096 108.155077 
L 307.0513 130.701913 
L 307.132504 128.86052 
L 307.376117 53.568 
L 307.457321 125.393101 
L 307.538526 53.568 
L 307.61973 190.035692 
L 307.700934 59.633231 
L 307.782138 186.862025 
L 307.863343 53.568 
L 307.944547 60.391385 
L 308.025751 60.391385 
L 308.18816 106.968401 
L 308.350568 59.915335 
L 308.431772 65.698462 
L 308.512976 64.70822 
L 308.594181 183.832615 
L 308.675385 60.944632 
L 308.756589 91.475692 
L 308.837793 61.149538 
L 308.918998 128.491439 
L 309.000202 72.610004 
L 309.081406 73.538882 
L 309.16261 106.823685 
L 309.325019 59.771077 
L 309.406223 89.959385 
L 309.487427 60.224961 
L 309.568632 65.434756 
L 309.649836 72.610004 
L 309.73104 65.974154 
L 309.812244 94.921846 
L 309.893449 53.568 
L 310.137061 159.709538 
L 310.218265 72.610004 
L 310.29947 76.962462 
L 310.380674 53.568 
L 310.461878 92.558769 
L 310.543082 60.75051 
L 310.624287 69.164308 
L 310.705491 53.568 
L 310.786695 147.68365 
L 310.949104 66.881921 
L 311.030308 119.957688 
L 311.111512 59.633231 
L 311.192716 62.372367 
L 311.273921 64.940308 
L 311.355125 130.549775 
L 311.436329 64.485415 
L 311.517533 97.589836 
L 311.598738 53.568 
L 311.679942 114.220308 
L 311.84235 61.838769 
L 311.923555 63.867448 
L 312.167167 53.568 
L 312.329576 60.75051 
L 312.41078 61.149538 
L 312.491984 53.568 
L 312.735597 190.035692 
L 312.898005 62.372367 
L 312.97921 62.372367 
L 313.060414 53.568 
L 313.141618 108.155077 
L 313.304027 53.568 
L 313.466435 60.224961 
L 313.547639 53.568 
L 313.710048 75.697896 
L 313.791252 59.375136 
L 313.872456 60.944632 
L 314.034865 59.633231 
L 314.116069 180.050251 
L 314.197273 59.915335 
L 314.278477 90.786462 
L 314.359682 53.568 
L 314.440886 65.182272 
L 314.52209 169.358769 
L 314.603294 67.93302 
L 314.684499 80.861538 
L 314.846907 66.262669 
L 314.928111 65.434756 
L 315.09052 60.391385 
L 315.171724 67.214769 
L 315.252928 60.391385 
L 315.334133 73.063385 
L 315.415337 109.760579 
L 315.496541 60.566343 
L 315.577745 74.56303 
L 315.658949 83.894154 
L 315.740154 60.75051 
L 315.821358 61.366154 
L 315.902562 53.568 
L 315.983766 66.881921 
L 316.064971 53.568 
L 316.146175 83.894154 
L 316.308583 65.698462 
L 316.389788 75.11553 
L 316.470992 53.568 
L 316.6334 73.785436 
L 316.714605 53.568 
L 316.795809 83.23489 
L 316.877013 71.368134 
L 316.958217 136.964923 
L 317.039422 69.623023 
L 317.120626 100.025087 
L 317.20183 53.568 
L 317.364238 97.827792 
L 317.607851 61.149538 
L 317.689055 70.626462 
L 317.77026 53.568 
L 317.932668 61.366154 
L 318.013872 125.815602 
L 318.095077 67.564686 
L 318.176281 113.480645 
L 318.338689 53.568 
L 318.419894 187.003077 
L 318.582302 60.75051 
L 318.663506 59.254154 
L 318.744711 60.75051 
L 318.825915 92.558769 
L 318.988323 53.568 
L 319.069527 168.488162 
L 319.150732 53.568 
L 319.231936 91.652007 
L 319.394344 68.731077 
L 319.475549 71.368134 
L 319.556753 53.568 
L 319.719161 96.989538 
L 319.800366 67.564686 
L 319.88157 190.035692 
L 319.962774 60.944632 
L 320.043978 151.044923 
L 320.125183 63.867448 
L 320.206387 133.451527 
L 320.287591 65.434756 
L 320.368795 83.074528 
L 320.531204 53.568 
L 320.612408 123.25363 
L 320.774816 60.566343 
L 320.856021 53.568 
L 320.937225 73.538882 
L 321.018429 66.262669 
L 321.180838 53.568 
L 321.262042 59.501378 
L 321.343246 53.568 
L 321.42445 69.944123 
L 321.505655 53.568 
L 321.586859 66.881921 
L 321.668063 153.422409 
L 321.830472 82.29804 
L 321.911676 96.989538 
L 321.99288 53.568 
L 322.074084 60.566343 
L 322.155289 70.109538 
L 322.317697 60.066462 
L 322.398901 61.366154 
L 322.480106 64.940308 
L 322.56131 53.568 
L 322.642514 64.271348 
L 322.723718 53.568 
L 322.804922 80.195842 
L 322.886127 53.568 
L 322.967331 61.149538 
L 323.048535 61.595511 
L 323.129739 60.066462 
L 323.210944 60.944632 
L 323.292148 67.564686 
L 323.373352 53.568 
L 323.454556 69.164308 
L 323.535761 53.568 
L 323.616965 65.698462 
L 323.698169 53.568 
L 323.779373 155.918769 
L 323.941782 53.568 
L 324.022986 53.568 
L 324.10419 75.11553 
L 324.266599 53.568 
L 324.429007 61.149538 
L 324.510211 53.568 
L 324.591416 58.530462 
L 324.67262 73.538882 
L 324.753824 60.75051 
L 324.835028 97.999342 
L 324.916233 63.492923 
L 324.997437 66.881921 
L 325.078641 72.177231 
L 325.159845 53.568 
L 325.24105 140.675038 
L 325.403458 61.366154 
L 325.484662 88.559716 
L 325.565867 78.380308 
L 325.647071 136.275692 
L 325.809479 53.568 
L 325.890684 111.463385 
L 325.971888 72.177231 
L 326.053092 115.598769 
L 326.2155 60.066462 
L 326.296705 60.391385 
L 326.377909 71.763692 
L 326.459113 129.383385 
L 326.540317 115.598769 
L 326.621522 64.271348 
L 326.702726 70.27833 
L 326.865134 53.568 
L 326.946339 68.321264 
L 327.108747 53.568 
L 327.271156 80.861538 
L 327.35236 76.962462 
L 327.433564 146.940632 
L 327.514768 59.13811 
L 327.595973 76.312615 
L 327.677177 91.778954 
L 327.758381 68.731077 
L 327.839585 92.558769 
L 328.001994 53.568 
L 328.083198 96.214154 
L 328.245606 53.568 
L 328.326811 53.568 
L 328.489219 61.838769 
L 328.570423 90.786462 
L 328.732832 69.623023 
L 328.814036 78.380308 
L 328.976445 60.75051 
L 329.138853 53.568 
L 329.220057 120.285538 
L 329.301262 53.568 
L 329.382466 61.149538 
L 329.544874 60.566343 
L 329.626078 74.56303 
L 329.707283 160.07937 
L 329.869691 61.149538 
L 329.950895 53.568 
L 330.0321 81.561373 
L 330.194508 60.066462 
L 330.275712 73.538882 
L 330.438121 53.568 
L 330.600529 109.554746 
L 330.762938 53.568 
L 330.844142 67.564686 
L 330.925346 65.974154 
L 331.168959 53.568 
L 331.250163 59.915335 
L 331.331368 181.506462 
L 331.412572 61.366154 
L 331.493776 66.881921 
L 331.656184 53.568 
L 331.737389 53.568 
L 331.818593 151.824738 
L 331.981001 53.568 
L 332.062206 86.320246 
L 332.14341 53.568 
L 332.224614 62.372367 
L 332.305818 80.861538 
L 332.387023 175.670672 
L 332.549431 53.568 
L 332.630635 130.813864 
L 332.793044 59.915335 
L 332.874248 62.097231 
L 332.955452 130.549775 
L 333.036657 53.568 
L 333.117861 60.566343 
L 333.199065 83.894154 
L 333.280269 80.326371 
L 333.361473 61.595511 
L 333.442678 129.989908 
L 333.605086 53.568 
L 333.767495 141.870624 
L 333.848699 53.568 
L 333.929903 59.915335 
L 334.011107 59.915335 
L 334.092312 60.391385 
L 334.25472 68.731077 
L 334.335924 60.944632 
L 334.417129 67.214769 
L 334.579537 91.652007 
L 334.741946 53.568 
L 334.82315 53.568 
L 334.904354 71.368134 
L 335.066762 53.568 
L 335.229171 137.119648 
L 335.391579 58.816757 
L 335.553988 111.639358 
L 335.635192 184.576985 
L 335.797601 53.568 
L 335.960009 53.568 
L 336.041213 109.554746 
L 336.203622 53.568 
L 336.284826 67.93302 
L 336.447235 53.568 
L 336.609643 91.652007 
L 336.772051 53.568 
L 336.853256 61.149538 
L 336.93446 103.845571 
L 337.015664 68.731077 
L 337.096868 113.272615 
L 337.259277 60.066462 
L 337.340481 53.568 
L 337.421685 61.366154 
L 337.50289 53.568 
L 337.665298 72.610004 
L 337.746502 65.434756 
L 337.827707 69.164308 
L 337.990115 53.568 
L 338.071319 60.066462 
L 338.152524 53.568 
L 338.314932 85.678045 
L 338.396136 73.063385 
L 338.47734 89.480551 
L 338.558545 53.568 
L 338.639749 61.366154 
L 338.720953 61.838769 
L 338.802157 68.321264 
L 338.883362 164.448 
L 339.126974 53.568 
L 339.208179 101.331692 
L 339.370587 60.224961 
L 339.451791 68.321264 
L 339.532996 142.689758 
L 339.6142 53.568 
L 339.695404 69.623023 
L 339.776608 53.568 
L 339.857813 83.23489 
L 340.020221 53.568 
L 340.101425 59.915335 
L 340.182629 53.568 
L 340.263834 61.149538 
L 340.426242 53.568 
L 340.588651 162.742154 
L 340.669855 60.066462 
L 340.751059 70.626462 
L 340.832263 53.568 
L 340.913468 59.375136 
L 340.994672 75.697896 
L 341.15708 53.568 
L 341.238285 53.568 
L 341.319489 62.979565 
L 341.400693 53.568 
L 341.481897 103.698989 
L 341.563102 53.568 
L 341.644306 60.391385 
L 341.72551 101.331692 
L 341.806714 60.066462 
L 341.887919 156.840848 
L 341.969123 53.568 
L 342.050327 166.302181 
L 342.212735 59.026708 
L 342.29394 65.974154 
L 342.375144 53.568 
L 342.537552 67.93302 
L 342.618757 53.568 
L 342.781165 76.312615 
L 342.943574 53.568 
L 343.024778 71.368134 
L 343.105982 65.698462 
L 343.187186 76.312615 
L 343.268391 53.568 
L 343.349595 88.559716 
L 343.430799 80.861538 
L 343.593208 53.568 
L 343.755616 68.321264 
L 343.999229 53.568 
L 344.080433 142.689758 
L 344.161637 59.501378 
L 344.242841 70.989408 
L 344.324046 53.568 
L 344.40525 170.540308 
L 344.486454 61.149538 
L 344.567658 67.564686 
L 344.648863 62.372367 
L 344.730067 95.558059 
L 344.892475 53.568 
L 344.97368 67.564686 
L 345.054884 53.568 
L 345.136088 77.650534 
L 345.217292 53.568 
L 345.298497 58.816757 
L 345.460905 53.568 
L 345.542109 109.269099 
L 345.704518 53.568 
L 345.785722 53.568 
L 345.866926 70.109538 
L 345.94813 64.70822 
L 346.110539 72.177231 
L 346.191743 71.368134 
L 346.272947 53.568 
L 346.51656 71.763692 
L 346.597764 59.375136 
L 346.678969 60.066462 
L 346.760173 59.254154 
L 346.922581 53.568 
L 347.08499 61.366154 
L 347.166194 53.568 
L 347.247398 60.391385 
L 347.328602 58.816757 
L 347.409807 53.568 
L 347.491011 69.623023 
L 347.572215 64.70822 
L 347.653419 152.128 
L 347.815828 53.568 
L 347.897032 53.568 
L 347.978236 59.771077 
L 348.140645 89.959385 
L 348.303053 53.568 
L 348.546666 178.338462 
L 348.790279 59.375136 
L 348.871483 53.568 
L 349.033891 109.760579 
L 349.115096 109.269099 
L 349.1963 60.566343 
L 349.277504 111.028081 
L 349.439913 60.391385 
L 349.521117 74.56303 
L 349.602321 53.568 
L 349.683525 84.760615 
L 349.927138 53.568 
L 350.089547 60.066462 
L 350.251955 53.568 
L 350.495568 76.312615 
L 350.576772 60.066462 
L 350.657976 61.149538 
L 350.820385 53.568 
L 350.901589 69.164308 
L 350.982793 132.416 
L 351.063997 53.568 
L 351.145202 79.561846 
L 351.226406 60.391385 
L 351.388814 99.057231 
L 351.470019 149.898136 
L 351.632427 63.315692 
L 351.713631 154.944 
L 351.87604 60.224961 
L 351.957244 71.763692 
L 352.038448 61.838769 
L 352.119653 67.214769 
L 352.200857 53.568 
L 352.282061 80.861538 
L 352.44447 53.568 
L 352.525674 91.475692 
L 352.688082 53.568 
L 352.850491 53.568 
L 352.931695 59.026708 
L 353.094103 53.568 
L 353.175308 72.610004 
L 353.256512 69.623023 
L 353.337716 53.568 
L 353.41892 78.380308 
L 353.500125 53.568 
L 353.581329 103.845571 
L 353.662533 53.568 
L 353.743737 117.78809 
L 353.824942 103.845571 
L 353.98735 53.568 
L 354.068554 53.568 
L 354.149759 84.583385 
L 354.312167 53.568 
L 354.393371 53.568 
L 354.55578 67.564686 
L 354.636984 62.097231 
L 354.718188 155.918769 
L 354.880597 67.564686 
L 354.961801 190.035692 
L 355.043005 61.149538 
L 355.124209 71.763692 
L 355.205414 53.568 
L 355.286618 86.852803 
L 355.367822 58.717724 
L 355.449026 63.676718 
L 355.530231 53.568 
L 355.611435 131.549538 
L 355.773843 53.568 
L 355.936252 83.894154 
L 356.017456 60.75051 
L 356.09866 101.733068 
L 356.179864 62.372367 
L 356.261069 104.346676 
L 356.342273 65.434756 
L 356.423477 113.480645 
L 356.585886 53.568 
L 356.66709 73.538882 
L 356.748294 53.568 
L 356.829498 85.678045 
L 356.991907 60.566343 
L 357.073111 61.366154 
L 357.154315 60.224961 
L 357.23552 60.75051 
L 357.316724 53.568 
L 357.397928 62.372367 
L 357.479132 53.568 
L 357.560337 65.974154 
L 357.641541 53.568 
L 357.722745 169.565538 
L 357.885153 53.568 
L 357.966358 70.27833 
L 358.047562 62.097231 
L 358.20997 96.989538 
L 358.291175 59.633231 
L 358.372379 66.262669 
L 358.453583 53.568 
L 358.697196 159.020308 
L 358.940809 53.568 
L 359.022013 68.321264 
L 359.103217 74.56303 
L 359.184421 58.622359 
L 359.265626 60.75051 
L 359.34683 53.568 
L 359.428034 113.613785 
L 359.671647 53.568 
L 359.752851 59.375136 
L 359.834055 53.568 
L 359.915259 60.566343 
L 359.996464 93.705557 
L 360.077668 59.771077 
L 360.158872 61.838769 
L 360.240076 59.771077 
L 360.321281 53.568 
L 360.483689 65.182272 
L 360.646098 53.568 
L 360.88971 53.568 
L 360.970915 65.434756 
L 361.133323 53.568 
L 361.214527 60.75051 
L 361.295732 53.568 
L 361.376936 61.149538 
L 361.45814 53.568 
L 361.701753 74.038154 
L 361.782957 59.13811 
L 361.864161 75.84844 
L 361.945365 53.568 
L 362.02657 59.915335 
L 362.107774 69.164308 
L 362.188978 60.066462 
L 362.270182 84.760615 
L 362.351387 53.568 
L 362.432591 101.331692 
L 362.513795 60.75051 
L 362.594999 88.559716 
L 362.676204 80.326371 
L 362.919816 53.568 
L 363.001021 103.845571 
L 363.082225 67.214769 
L 363.163429 77.828923 
L 363.244633 53.568 
L 363.488246 100.625825 
L 363.56945 66.564923 
L 363.650654 123.551432 
L 363.813063 60.066462 
L 363.894267 67.564686 
L 363.975471 53.568 
L 364.13788 71.368134 
L 364.219084 53.568 
L 364.381493 65.698462 
L 364.462697 105.204424 
L 364.543901 59.501378 
L 364.625105 60.066462 
L 364.70631 58.919674 
L 364.787514 53.568 
L 364.949922 67.214769 
L 365.031126 69.164308 
L 365.112331 53.568 
L 365.193535 99.057231 
L 365.355943 53.568 
L 365.437148 76.312615 
L 365.599556 53.568 
L 365.68076 65.434756 
L 365.761965 53.568 
L 365.924373 114.978462 
L 366.086782 60.391385 
L 366.167986 61.838769 
L 366.24919 190.035692 
L 366.411599 53.568 
L 366.492803 81.561373 
L 366.574007 59.633231 
L 366.655211 71.368134 
L 366.736415 53.568 
L 366.81762 65.698462 
L 366.898824 53.568 
L 366.980028 60.066462 
L 367.061232 53.568 
L 367.142437 61.595511 
L 367.304845 53.568 
L 367.467254 60.391385 
L 367.629662 62.097231 
L 367.710866 73.538882 
L 367.873275 53.568 
L 367.954479 75.11553 
L 368.035683 65.974154 
L 368.116888 90.45116 
L 368.198092 66.564923 
L 368.279296 67.214769 
L 368.3605 99.057231 
L 368.522909 60.391385 
L 368.604113 58.273782 
L 368.685317 61.366154 
L 368.766521 53.568 
L 368.92893 64.70822 
L 369.091338 53.568 
L 369.172543 65.182272 
L 369.334951 53.568 
L 369.416155 101.035023 
L 369.49736 60.066462 
L 369.578564 82.29804 
L 369.659768 53.568 
L 369.740972 186.707212 
L 369.903381 53.568 
L 369.984585 81.418549 
L 370.146993 67.214769 
L 370.228198 85.678045 
L 370.390606 60.566343 
L 370.47181 61.366154 
L 370.553015 154.944 
L 370.634219 137.548118 
L 370.796627 53.568 
L 371.04024 66.564923 
L 371.121444 59.915335 
L 371.202649 105.832223 
L 371.365057 67.214769 
L 371.446261 79.155692 
L 371.527466 53.568 
L 371.60867 90.45116 
L 371.771078 53.568 
L 371.852283 59.915335 
L 372.014691 53.568 
L 372.177099 61.149538 
L 372.258304 60.066462 
L 372.339508 53.568 
L 372.420712 83.894154 
L 372.501916 60.391385 
L 372.583121 65.974154 
L 372.664325 66.881921 
L 372.745529 53.568 
L 372.826733 62.097231 
L 372.907938 106.638769 
L 373.070346 60.566343 
L 373.15155 75.697896 
L 373.232755 69.623023 
L 373.313959 175.517853 
L 373.395163 53.568 
L 373.476367 73.538882 
L 373.557572 53.568 
L 373.638776 96.024615 
L 373.71998 53.568 
L 373.801184 69.623023 
L 373.963593 53.568 
L 374.044797 61.595511 
L 374.126001 156.840848 
L 374.28841 53.568 
L 374.450818 60.944632 
L 374.532022 60.75051 
L 374.613227 66.262669 
L 374.694431 181.324989 
L 374.775635 53.568 
L 374.856839 67.214769 
L 374.938044 75.11553 
L 375.019248 67.214769 
L 375.100452 75.11553 
L 375.181656 60.224961 
L 375.344065 69.623023 
L 375.425269 53.568 
L 375.506473 70.989408 
L 375.587677 62.372367 
L 375.668882 96.663061 
L 375.750086 64.065515 
L 375.83129 66.564923 
L 375.912494 60.391385 
L 376.074903 130.331077 
L 376.156107 53.568 
L 376.237311 65.434756 
L 376.318516 53.568 
L 376.39972 68.321264 
L 376.480924 53.568 
L 376.724537 69.164308 
L 376.805741 68.321264 
L 376.886945 138.860308 
L 376.96815 59.771077 
L 377.049354 73.538882 
L 377.130558 78.957338 
L 377.292966 60.066462 
L 377.374171 75.11553 
L 377.455375 60.75051 
L 377.536579 109.554746 
L 377.617783 59.633231 
L 377.698988 68.321264 
L 377.780192 60.944632 
L 377.861396 81.561373 
L 377.9426 62.372367 
L 378.023805 80.861538 
L 378.186213 59.915335 
L 378.267417 53.568 
L 378.348622 59.501378 
L 378.429826 105.555692 
L 378.51103 67.214769 
L 378.592234 74.56303 
L 378.754643 53.568 
L 378.835847 60.066462 
L 378.998255 53.568 
L 379.07946 68.321264 
L 379.241868 59.633231 
L 379.323072 68.731077 
L 379.485481 53.568 
L 379.729094 71.368134 
L 379.810298 116.553089 
L 379.891502 61.366154 
L 379.972706 86.852803 
L 380.135115 53.568 
L 380.216319 126.350769 
L 380.378728 53.568 
L 380.459932 53.568 
L 380.62234 69.623023 
L 380.703544 53.568 
L 380.947157 97.999342 
L 381.028361 92.558769 
L 381.109566 59.915335 
L 381.19077 125.051077 
L 381.353178 53.568 
L 381.434383 53.568 
L 381.515587 61.366154 
L 381.677995 53.568 
L 381.7592 53.568 
L 381.840404 62.372367 
L 382.002812 53.568 
L 382.165221 67.93302 
L 382.246425 63.867448 
L 382.327629 66.262669 
L 382.408834 53.568 
L 382.490038 76.312615 
L 382.571242 53.568 
L 382.652446 83.894154 
L 382.73365 60.75051 
L 382.814855 83.074528 
L 382.896059 53.568 
L 382.977263 114.220308 
L 383.058467 71.368134 
L 383.139672 144.546462 
L 383.30208 53.568 
L 383.464489 53.568 
L 383.545693 59.915335 
L 383.708101 53.568 
L 383.789306 53.568 
L 383.87051 128.86052 
L 383.951714 64.271348 
L 384.032918 119.448955 
L 384.195327 53.568 
L 384.357735 109.760579 
L 384.520144 53.568 
L 384.601348 83.23489 
L 384.682552 53.568 
L 384.844961 86.060308 
L 384.926165 74.974697 
L 385.007369 53.568 
L 385.088573 140.108488 
L 385.169778 67.564686 
L 385.250982 80.861538 
L 385.332186 60.066462 
L 385.41339 60.75051 
L 385.494595 62.097231 
L 385.575799 53.568 
L 385.657003 173.98067 
L 385.738207 142.272 
L 385.900616 53.568 
L 386.063024 99.057231 
L 386.144228 53.568 
L 386.225433 68.321264 
L 386.306637 67.93302 
L 386.387841 63.315692 
L 386.469045 66.881921 
L 386.631454 53.568 
L 386.712658 91.475692 
L 386.875067 53.568 
L 386.956271 60.566343 
L 387.037475 53.568 
L 387.199884 90.786462 
L 387.281088 53.568 
L 387.362292 72.39113 
L 387.443496 66.262669 
L 387.605905 53.568 
L 387.687109 67.93302 
L 387.768313 67.564686 
L 387.930722 58.717724 
L 388.011926 71.763692 
L 388.09313 53.568 
L 388.174334 67.214769 
L 388.336743 53.568 
L 388.417947 53.568 
L 388.66156 68.731077 
L 388.742764 60.944632 
L 388.823968 79.155692 
L 388.905173 72.177231 
L 388.986377 103.845571 
L 389.067581 53.568 
L 389.148785 70.989408 
L 389.22999 53.568 
L 389.311194 152.817231 
L 389.473602 53.568 
L 389.554806 75.697896 
L 389.717215 64.940308 
L 389.879623 68.321264 
L 389.960828 90.45116 
L 390.123236 53.568 
L 390.20444 53.568 
L 390.285645 74.56303 
L 390.366849 61.149538 
L 390.448053 162.742154 
L 390.610462 53.568 
L 390.691666 53.568 
L 390.77287 70.989408 
L 390.854074 53.568 
L 391.016483 118.210591 
L 391.097687 177.629538 
L 391.178891 53.568 
L 391.260096 60.066462 
L 391.3413 53.568 
L 391.666117 103.192615 
L 391.747321 72.177231 
L 391.828525 84.760615 
L 391.909729 79.155692 
L 392.072138 53.568 
L 392.153342 59.633231 
L 392.234546 53.568 
L 392.315751 77.096912 
L 392.396955 53.568 
L 392.478159 81.561373 
L 392.559363 74.56303 
L 392.640568 53.568 
L 392.721772 59.915335 
L 392.802976 53.568 
L 392.88418 68.321264 
L 392.965385 53.568 
L 393.046589 125.393101 
L 393.290201 61.149538 
L 393.371406 75.697896 
L 393.45261 53.568 
L 393.615018 68.321264 
L 393.696223 53.568 
L 393.858631 60.566343 
L 393.939835 53.568 
L 394.02104 60.75051 
L 394.102244 89.480551 
L 394.183448 53.568 
L 394.264652 69.623023 
L 394.345857 59.501378 
L 394.427061 76.962462 
L 394.508265 141.870624 
L 394.670674 53.568 
L 394.751878 96.024615 
L 394.914286 67.93302 
L 395.157899 53.568 
L 395.239103 53.568 
L 395.320307 121.801846 
L 395.401512 53.568 
L 395.482716 78.380308 
L 395.726329 53.568 
L 395.807533 72.610004 
L 395.888737 53.568 
L 396.051146 142.087584 
L 396.213554 53.568 
L 396.294758 81.998769 
L 396.375963 66.564923 
L 396.457167 142.272 
L 396.538371 53.568 
L 396.619575 165.223385 
L 396.700779 53.568 
L 396.781984 66.564923 
L 396.944392 95.558059 
L 397.188005 53.568 
L 397.269209 92.558769 
L 397.431618 53.568 
L 397.594026 74.166897 
L 397.67523 70.626462 
L 397.837639 53.568 
L 398.081252 75.697896 
L 398.162456 53.568 
L 398.24366 106.394203 
L 398.324864 62.097231 
L 398.406068 67.564686 
L 398.487273 86.060308 
L 398.487273 86.060308 
" clip-path="url(#p556b4b4db0)" style="fill: none; stroke: #1f77b4; stroke-width: 1.5; stroke-linecap: square"/>
   </g>
   <g id="patch_3">
    <path d="M 57.6 307.584 
L 57.6 41.472 
" style="fill: none; stroke: #000000; stroke-width: 0.8; stroke-linejoin: miter; stroke-linecap: square"/>
   </g>
   <g id="patch_4">
    <path d="M 414.72 307.584 
L 414.72 41.472 
" style="fill: none; stroke: #000000; stroke-width: 0.8; stroke-linejoin: miter; stroke-linecap: square"/>
   </g>
   <g id="patch_5">
    <path d="M 57.6 307.584 
L 414.72 307.584 
" style="fill: none; stroke: #000000; stroke-width: 0.8; stroke-linejoin: miter; stroke-linecap: square"/>
   </g>
   <g id="patch_6">
    <path d="M 57.6 41.472 
L 414.72 41.472 
" style="fill: none; stroke: #000000; stroke-width: 0.8; stroke-linejoin: miter; stroke-linecap: square"/>
   </g>
   <g id="text_17">
    <!-- Certainty of network -->
    <g transform="translate(174.447187 35.472) scale(0.12 -0.12)">
     <defs>
      <path id="DejaVuSans-43" d="M 4122 4306 
L 4122 3641 
Q 3803 3938 3442 4084 
Q 3081 4231 2675 4231 
Q 1875 4231 1450 3742 
Q 1025 3253 1025 2328 
Q 1025 1406 1450 917 
Q 1875 428 2675 428 
Q 3081 428 3442 575 
Q 3803 722 4122 1019 
L 4122 359 
Q 3791 134 3420 21 
Q 3050 -91 2638 -91 
Q 1578 -91 968 557 
Q 359 1206 359 2328 
Q 359 3453 968 4101 
Q 1578 4750 2638 4750 
Q 3056 4750 3426 4639 
Q 3797 4528 4122 4306 
z
" transform="scale(0.015625)"/>
      <path id="DejaVuSans-72" d="M 2631 2963 
Q 2534 3019 2420 3045 
Q 2306 3072 2169 3072 
Q 1681 3072 1420 2755 
Q 1159 2438 1159 1844 
L 1159 0 
L 581 0 
L 581 3500 
L 1159 3500 
L 1159 2956 
Q 1341 3275 1631 3429 
Q 1922 3584 2338 3584 
Q 2397 3584 2469 3576 
Q 2541 3569 2628 3553 
L 2631 2963 
z
" transform="scale(0.015625)"/>
     </defs>
     <use xlink:href="#DejaVuSans-43"/>
     <use xlink:href="#DejaVuSans-65" x="69.824219"/>
     <use xlink:href="#DejaVuSans-72" x="131.347656"/>
     <use xlink:href="#DejaVuSans-74" x="172.460938"/>
     <use xlink:href="#DejaVuSans-61" x="211.669922"/>
     <use xlink:href="#DejaVuSans-69" x="272.949219"/>
     <use xlink:href="#DejaVuSans-6e" x="300.732422"/>
     <use xlink:href="#DejaVuSans-74" x="364.111328"/>
     <use xlink:href="#DejaVuSans-79" x="403.320312"/>
     <use xlink:href="#DejaVuSans-20" x="462.5"/>
     <use xlink:href="#DejaVuSans-6f" x="494.287109"/>
     <use xlink:href="#DejaVuSans-66" x="555.46875"/>
     <use xlink:href="#DejaVuSans-20" x="590.673828"/>
     <use xlink:href="#DejaVuSans-6e" x="622.460938"/>
     <use xlink:href="#DejaVuSans-65" x="685.839844"/>
     <use xlink:href="#DejaVuSans-74" x="747.363281"/>
     <use xlink:href="#DejaVuSans-77" x="786.572266"/>
     <use xlink:href="#DejaVuSans-6f" x="868.359375"/>
     <use xlink:href="#DejaVuSans-72" x="929.541016"/>
     <use xlink:href="#DejaVuSans-6b" x="970.654297"/>
    </g>
   </g>
  </g>
 </g>
 <defs>
  <clipPath id="p556b4b4db0">
   <rect x="57.6" y="41.472" width="357.12" height="266.112"/>
  </clipPath>
 </defs>
</svg>
