<?xml version="1.0" encoding="utf-8" standalone="no"?>
<!DOCTYPE svg PUBLIC "-//W3C//DTD SVG 1.1//EN"
  "http://www.w3.org/Graphics/SVG/1.1/DTD/svg11.dtd">
<svg xmlns:xlink="http://www.w3.org/1999/xlink" width="460.8pt" height="345.6pt" viewBox="0 0 460.8 345.6" xmlns="http://www.w3.org/2000/svg" version="1.1">
 <metadata>
  <rdf:RDF xmlns:dc="http://purl.org/dc/elements/1.1/" xmlns:cc="http://creativecommons.org/ns#" xmlns:rdf="http://www.w3.org/1999/02/22-rdf-syntax-ns#">
   <cc:Work>
    <dc:type rdf:resource="http://purl.org/dc/dcmitype/StillImage"/>
    <dc:date>2023-05-03T18:28:58.418647</dc:date>
    <dc:format>image/svg+xml</dc:format>
    <dc:creator>
     <cc:Agent>
      <dc:title>Matplotlib v3.6.2, https://matplotlib.org/</dc:title>
     </cc:Agent>
    </dc:creator>
   </cc:Work>
  </rdf:RDF>
 </metadata>
 <defs>
  <style type="text/css">*{stroke-linejoin: round; stroke-linecap: butt}</style>
 </defs>
 <g id="figure_1">
  <g id="patch_1">
   <path d="M 0 345.6 
L 460.8 345.6 
L 460.8 0 
L 0 0 
z
" style="fill: #ffffff"/>
  </g>
  <g id="axes_1">
   <g id="patch_2">
    <path d="M 57.6 307.584 
L 414.72 307.584 
L 414.72 41.472 
L 57.6 41.472 
z
" style="fill: #ffffff"/>
   </g>
   <g id="matplotlib.axis_1">
    <g id="xtick_1">
     <g id="line2d_1">
      <defs>
       <path id="m6559662017" d="M 0 0 
L 0 3.5 
" style="stroke: #000000; stroke-width: 0.8"/>
      </defs>
      <g>
       <use xlink:href="#m6559662017" x="73.832727" y="307.584" style="stroke: #000000; stroke-width: 0.8"/>
      </g>
     </g>
     <g id="text_1">
      <!-- 0 -->
      <g transform="translate(70.651477 322.182437) scale(0.1 -0.1)">
       <defs>
        <path id="DejaVuSans-30" d="M 2034 4250 
Q 1547 4250 1301 3770 
Q 1056 3291 1056 2328 
Q 1056 1369 1301 889 
Q 1547 409 2034 409 
Q 2525 409 2770 889 
Q 3016 1369 3016 2328 
Q 3016 3291 2770 3770 
Q 2525 4250 2034 4250 
z
M 2034 4750 
Q 2819 4750 3233 4129 
Q 3647 3509 3647 2328 
Q 3647 1150 3233 529 
Q 2819 -91 2034 -91 
Q 1250 -91 836 529 
Q 422 1150 422 2328 
Q 422 3509 836 4129 
Q 1250 4750 2034 4750 
z
" transform="scale(0.015625)"/>
       </defs>
       <use xlink:href="#DejaVuSans-30"/>
      </g>
     </g>
    </g>
    <g id="xtick_2">
     <g id="line2d_2">
      <g>
       <use xlink:href="#m6559662017" x="114.434847" y="307.584" style="stroke: #000000; stroke-width: 0.8"/>
      </g>
     </g>
     <g id="text_2">
      <!-- 500 -->
      <g transform="translate(104.891097 322.182437) scale(0.1 -0.1)">
       <defs>
        <path id="DejaVuSans-35" d="M 691 4666 
L 3169 4666 
L 3169 4134 
L 1269 4134 
L 1269 2991 
Q 1406 3038 1543 3061 
Q 1681 3084 1819 3084 
Q 2600 3084 3056 2656 
Q 3513 2228 3513 1497 
Q 3513 744 3044 326 
Q 2575 -91 1722 -91 
Q 1428 -91 1123 -41 
Q 819 9 494 109 
L 494 744 
Q 775 591 1075 516 
Q 1375 441 1709 441 
Q 2250 441 2565 725 
Q 2881 1009 2881 1497 
Q 2881 1984 2565 2268 
Q 2250 2553 1709 2553 
Q 1456 2553 1204 2497 
Q 953 2441 691 2322 
L 691 4666 
z
" transform="scale(0.015625)"/>
       </defs>
       <use xlink:href="#DejaVuSans-35"/>
       <use xlink:href="#DejaVuSans-30" x="63.623047"/>
       <use xlink:href="#DejaVuSans-30" x="127.246094"/>
      </g>
     </g>
    </g>
    <g id="xtick_3">
     <g id="line2d_3">
      <g>
       <use xlink:href="#m6559662017" x="155.036966" y="307.584" style="stroke: #000000; stroke-width: 0.8"/>
      </g>
     </g>
     <g id="text_3">
      <!-- 1000 -->
      <g transform="translate(142.311966 322.182437) scale(0.1 -0.1)">
       <defs>
        <path id="DejaVuSans-31" d="M 794 531 
L 1825 531 
L 1825 4091 
L 703 3866 
L 703 4441 
L 1819 4666 
L 2450 4666 
L 2450 531 
L 3481 531 
L 3481 0 
L 794 0 
L 794 531 
z
" transform="scale(0.015625)"/>
       </defs>
       <use xlink:href="#DejaVuSans-31"/>
       <use xlink:href="#DejaVuSans-30" x="63.623047"/>
       <use xlink:href="#DejaVuSans-30" x="127.246094"/>
       <use xlink:href="#DejaVuSans-30" x="190.869141"/>
      </g>
     </g>
    </g>
    <g id="xtick_4">
     <g id="line2d_4">
      <g>
       <use xlink:href="#m6559662017" x="195.639085" y="307.584" style="stroke: #000000; stroke-width: 0.8"/>
      </g>
     </g>
     <g id="text_4">
      <!-- 1500 -->
      <g transform="translate(182.914085 322.182437) scale(0.1 -0.1)">
       <use xlink:href="#DejaVuSans-31"/>
       <use xlink:href="#DejaVuSans-35" x="63.623047"/>
       <use xlink:href="#DejaVuSans-30" x="127.246094"/>
       <use xlink:href="#DejaVuSans-30" x="190.869141"/>
      </g>
     </g>
    </g>
    <g id="xtick_5">
     <g id="line2d_5">
      <g>
       <use xlink:href="#m6559662017" x="236.241204" y="307.584" style="stroke: #000000; stroke-width: 0.8"/>
      </g>
     </g>
     <g id="text_5">
      <!-- 2000 -->
      <g transform="translate(223.516204 322.182437) scale(0.1 -0.1)">
       <defs>
        <path id="DejaVuSans-32" d="M 1228 531 
L 3431 531 
L 3431 0 
L 469 0 
L 469 531 
Q 828 903 1448 1529 
Q 2069 2156 2228 2338 
Q 2531 2678 2651 2914 
Q 2772 3150 2772 3378 
Q 2772 3750 2511 3984 
Q 2250 4219 1831 4219 
Q 1534 4219 1204 4116 
Q 875 4013 500 3803 
L 500 4441 
Q 881 4594 1212 4672 
Q 1544 4750 1819 4750 
Q 2544 4750 2975 4387 
Q 3406 4025 3406 3419 
Q 3406 3131 3298 2873 
Q 3191 2616 2906 2266 
Q 2828 2175 2409 1742 
Q 1991 1309 1228 531 
z
" transform="scale(0.015625)"/>
       </defs>
       <use xlink:href="#DejaVuSans-32"/>
       <use xlink:href="#DejaVuSans-30" x="63.623047"/>
       <use xlink:href="#DejaVuSans-30" x="127.246094"/>
       <use xlink:href="#DejaVuSans-30" x="190.869141"/>
      </g>
     </g>
    </g>
    <g id="xtick_6">
     <g id="line2d_6">
      <g>
       <use xlink:href="#m6559662017" x="276.843323" y="307.584" style="stroke: #000000; stroke-width: 0.8"/>
      </g>
     </g>
     <g id="text_6">
      <!-- 2500 -->
      <g transform="translate(264.118323 322.182437) scale(0.1 -0.1)">
       <use xlink:href="#DejaVuSans-32"/>
       <use xlink:href="#DejaVuSans-35" x="63.623047"/>
       <use xlink:href="#DejaVuSans-30" x="127.246094"/>
       <use xlink:href="#DejaVuSans-30" x="190.869141"/>
      </g>
     </g>
    </g>
    <g id="xtick_7">
     <g id="line2d_7">
      <g>
       <use xlink:href="#m6559662017" x="317.445443" y="307.584" style="stroke: #000000; stroke-width: 0.8"/>
      </g>
     </g>
     <g id="text_7">
      <!-- 3000 -->
      <g transform="translate(304.720443 322.182437) scale(0.1 -0.1)">
       <defs>
        <path id="DejaVuSans-33" d="M 2597 2516 
Q 3050 2419 3304 2112 
Q 3559 1806 3559 1356 
Q 3559 666 3084 287 
Q 2609 -91 1734 -91 
Q 1441 -91 1130 -33 
Q 819 25 488 141 
L 488 750 
Q 750 597 1062 519 
Q 1375 441 1716 441 
Q 2309 441 2620 675 
Q 2931 909 2931 1356 
Q 2931 1769 2642 2001 
Q 2353 2234 1838 2234 
L 1294 2234 
L 1294 2753 
L 1863 2753 
Q 2328 2753 2575 2939 
Q 2822 3125 2822 3475 
Q 2822 3834 2567 4026 
Q 2313 4219 1838 4219 
Q 1578 4219 1281 4162 
Q 984 4106 628 3988 
L 628 4550 
Q 988 4650 1302 4700 
Q 1616 4750 1894 4750 
Q 2613 4750 3031 4423 
Q 3450 4097 3450 3541 
Q 3450 3153 3228 2886 
Q 3006 2619 2597 2516 
z
" transform="scale(0.015625)"/>
       </defs>
       <use xlink:href="#DejaVuSans-33"/>
       <use xlink:href="#DejaVuSans-30" x="63.623047"/>
       <use xlink:href="#DejaVuSans-30" x="127.246094"/>
       <use xlink:href="#DejaVuSans-30" x="190.869141"/>
      </g>
     </g>
    </g>
    <g id="xtick_8">
     <g id="line2d_8">
      <g>
       <use xlink:href="#m6559662017" x="358.047562" y="307.584" style="stroke: #000000; stroke-width: 0.8"/>
      </g>
     </g>
     <g id="text_8">
      <!-- 3500 -->
      <g transform="translate(345.322562 322.182437) scale(0.1 -0.1)">
       <use xlink:href="#DejaVuSans-33"/>
       <use xlink:href="#DejaVuSans-35" x="63.623047"/>
       <use xlink:href="#DejaVuSans-30" x="127.246094"/>
       <use xlink:href="#DejaVuSans-30" x="190.869141"/>
      </g>
     </g>
    </g>
    <g id="xtick_9">
     <g id="line2d_9">
      <g>
       <use xlink:href="#m6559662017" x="398.649681" y="307.584" style="stroke: #000000; stroke-width: 0.8"/>
      </g>
     </g>
     <g id="text_9">
      <!-- 4000 -->
      <g transform="translate(385.924681 322.182437) scale(0.1 -0.1)">
       <defs>
        <path id="DejaVuSans-34" d="M 2419 4116 
L 825 1625 
L 2419 1625 
L 2419 4116 
z
M 2253 4666 
L 3047 4666 
L 3047 1625 
L 3713 1625 
L 3713 1100 
L 3047 1100 
L 3047 0 
L 2419 0 
L 2419 1100 
L 313 1100 
L 313 1709 
L 2253 4666 
z
" transform="scale(0.015625)"/>
       </defs>
       <use xlink:href="#DejaVuSans-34"/>
       <use xlink:href="#DejaVuSans-30" x="63.623047"/>
       <use xlink:href="#DejaVuSans-30" x="127.246094"/>
       <use xlink:href="#DejaVuSans-30" x="190.869141"/>
      </g>
     </g>
    </g>
    <g id="text_10">
     <!-- Image shown -->
     <g transform="translate(202.820156 335.860562) scale(0.1 -0.1)">
      <defs>
       <path id="DejaVuSans-49" d="M 628 4666 
L 1259 4666 
L 1259 0 
L 628 0 
L 628 4666 
z
" transform="scale(0.015625)"/>
       <path id="DejaVuSans-6d" d="M 3328 2828 
Q 3544 3216 3844 3400 
Q 4144 3584 4550 3584 
Q 5097 3584 5394 3201 
Q 5691 2819 5691 2113 
L 5691 0 
L 5113 0 
L 5113 2094 
Q 5113 2597 4934 2840 
Q 4756 3084 4391 3084 
Q 3944 3084 3684 2787 
Q 3425 2491 3425 1978 
L 3425 0 
L 2847 0 
L 2847 2094 
Q 2847 2600 2669 2842 
Q 2491 3084 2119 3084 
Q 1678 3084 1418 2786 
Q 1159 2488 1159 1978 
L 1159 0 
L 581 0 
L 581 3500 
L 1159 3500 
L 1159 2956 
Q 1356 3278 1631 3431 
Q 1906 3584 2284 3584 
Q 2666 3584 2933 3390 
Q 3200 3197 3328 2828 
z
" transform="scale(0.015625)"/>
       <path id="DejaVuSans-61" d="M 2194 1759 
Q 1497 1759 1228 1600 
Q 959 1441 959 1056 
Q 959 750 1161 570 
Q 1363 391 1709 391 
Q 2188 391 2477 730 
Q 2766 1069 2766 1631 
L 2766 1759 
L 2194 1759 
z
M 3341 1997 
L 3341 0 
L 2766 0 
L 2766 531 
Q 2569 213 2275 61 
Q 1981 -91 1556 -91 
Q 1019 -91 701 211 
Q 384 513 384 1019 
Q 384 1609 779 1909 
Q 1175 2209 1959 2209 
L 2766 2209 
L 2766 2266 
Q 2766 2663 2505 2880 
Q 2244 3097 1772 3097 
Q 1472 3097 1187 3025 
Q 903 2953 641 2809 
L 641 3341 
Q 956 3463 1253 3523 
Q 1550 3584 1831 3584 
Q 2591 3584 2966 3190 
Q 3341 2797 3341 1997 
z
" transform="scale(0.015625)"/>
       <path id="DejaVuSans-67" d="M 2906 1791 
Q 2906 2416 2648 2759 
Q 2391 3103 1925 3103 
Q 1463 3103 1205 2759 
Q 947 2416 947 1791 
Q 947 1169 1205 825 
Q 1463 481 1925 481 
Q 2391 481 2648 825 
Q 2906 1169 2906 1791 
z
M 3481 434 
Q 3481 -459 3084 -895 
Q 2688 -1331 1869 -1331 
Q 1566 -1331 1297 -1286 
Q 1028 -1241 775 -1147 
L 775 -588 
Q 1028 -725 1275 -790 
Q 1522 -856 1778 -856 
Q 2344 -856 2625 -561 
Q 2906 -266 2906 331 
L 2906 616 
Q 2728 306 2450 153 
Q 2172 0 1784 0 
Q 1141 0 747 490 
Q 353 981 353 1791 
Q 353 2603 747 3093 
Q 1141 3584 1784 3584 
Q 2172 3584 2450 3431 
Q 2728 3278 2906 2969 
L 2906 3500 
L 3481 3500 
L 3481 434 
z
" transform="scale(0.015625)"/>
       <path id="DejaVuSans-65" d="M 3597 1894 
L 3597 1613 
L 953 1613 
Q 991 1019 1311 708 
Q 1631 397 2203 397 
Q 2534 397 2845 478 
Q 3156 559 3463 722 
L 3463 178 
Q 3153 47 2828 -22 
Q 2503 -91 2169 -91 
Q 1331 -91 842 396 
Q 353 884 353 1716 
Q 353 2575 817 3079 
Q 1281 3584 2069 3584 
Q 2775 3584 3186 3129 
Q 3597 2675 3597 1894 
z
M 3022 2063 
Q 3016 2534 2758 2815 
Q 2500 3097 2075 3097 
Q 1594 3097 1305 2825 
Q 1016 2553 972 2059 
L 3022 2063 
z
" transform="scale(0.015625)"/>
       <path id="DejaVuSans-20" transform="scale(0.015625)"/>
       <path id="DejaVuSans-73" d="M 2834 3397 
L 2834 2853 
Q 2591 2978 2328 3040 
Q 2066 3103 1784 3103 
Q 1356 3103 1142 2972 
Q 928 2841 928 2578 
Q 928 2378 1081 2264 
Q 1234 2150 1697 2047 
L 1894 2003 
Q 2506 1872 2764 1633 
Q 3022 1394 3022 966 
Q 3022 478 2636 193 
Q 2250 -91 1575 -91 
Q 1294 -91 989 -36 
Q 684 19 347 128 
L 347 722 
Q 666 556 975 473 
Q 1284 391 1588 391 
Q 1994 391 2212 530 
Q 2431 669 2431 922 
Q 2431 1156 2273 1281 
Q 2116 1406 1581 1522 
L 1381 1569 
Q 847 1681 609 1914 
Q 372 2147 372 2553 
Q 372 3047 722 3315 
Q 1072 3584 1716 3584 
Q 2034 3584 2315 3537 
Q 2597 3491 2834 3397 
z
" transform="scale(0.015625)"/>
       <path id="DejaVuSans-68" d="M 3513 2113 
L 3513 0 
L 2938 0 
L 2938 2094 
Q 2938 2591 2744 2837 
Q 2550 3084 2163 3084 
Q 1697 3084 1428 2787 
Q 1159 2491 1159 1978 
L 1159 0 
L 581 0 
L 581 4863 
L 1159 4863 
L 1159 2956 
Q 1366 3272 1645 3428 
Q 1925 3584 2291 3584 
Q 2894 3584 3203 3211 
Q 3513 2838 3513 2113 
z
" transform="scale(0.015625)"/>
       <path id="DejaVuSans-6f" d="M 1959 3097 
Q 1497 3097 1228 2736 
Q 959 2375 959 1747 
Q 959 1119 1226 758 
Q 1494 397 1959 397 
Q 2419 397 2687 759 
Q 2956 1122 2956 1747 
Q 2956 2369 2687 2733 
Q 2419 3097 1959 3097 
z
M 1959 3584 
Q 2709 3584 3137 3096 
Q 3566 2609 3566 1747 
Q 3566 888 3137 398 
Q 2709 -91 1959 -91 
Q 1206 -91 779 398 
Q 353 888 353 1747 
Q 353 2609 779 3096 
Q 1206 3584 1959 3584 
z
" transform="scale(0.015625)"/>
       <path id="DejaVuSans-77" d="M 269 3500 
L 844 3500 
L 1563 769 
L 2278 3500 
L 2956 3500 
L 3675 769 
L 4391 3500 
L 4966 3500 
L 4050 0 
L 3372 0 
L 2619 2869 
L 1863 0 
L 1184 0 
L 269 3500 
z
" transform="scale(0.015625)"/>
       <path id="DejaVuSans-6e" d="M 3513 2113 
L 3513 0 
L 2938 0 
L 2938 2094 
Q 2938 2591 2744 2837 
Q 2550 3084 2163 3084 
Q 1697 3084 1428 2787 
Q 1159 2491 1159 1978 
L 1159 0 
L 581 0 
L 581 3500 
L 1159 3500 
L 1159 2956 
Q 1366 3272 1645 3428 
Q 1925 3584 2291 3584 
Q 2894 3584 3203 3211 
Q 3513 2838 3513 2113 
z
" transform="scale(0.015625)"/>
      </defs>
      <use xlink:href="#DejaVuSans-49"/>
      <use xlink:href="#DejaVuSans-6d" x="29.492188"/>
      <use xlink:href="#DejaVuSans-61" x="126.904297"/>
      <use xlink:href="#DejaVuSans-67" x="188.183594"/>
      <use xlink:href="#DejaVuSans-65" x="251.660156"/>
      <use xlink:href="#DejaVuSans-20" x="313.183594"/>
      <use xlink:href="#DejaVuSans-73" x="344.970703"/>
      <use xlink:href="#DejaVuSans-68" x="397.070312"/>
      <use xlink:href="#DejaVuSans-6f" x="460.449219"/>
      <use xlink:href="#DejaVuSans-77" x="521.630859"/>
      <use xlink:href="#DejaVuSans-6e" x="603.417969"/>
     </g>
    </g>
   </g>
   <g id="matplotlib.axis_2">
    <g id="ytick_1">
     <g id="line2d_10">
      <defs>
       <path id="ma2af0d872a" d="M 0 0 
L -3.5 0 
" style="stroke: #000000; stroke-width: 0.8"/>
      </defs>
      <g>
       <use xlink:href="#ma2af0d872a" x="57.6" y="268.608" style="stroke: #000000; stroke-width: 0.8"/>
      </g>
     </g>
     <g id="text_11">
      <!-- 2 -->
      <g transform="translate(44.2375 272.407219) scale(0.1 -0.1)">
       <use xlink:href="#DejaVuSans-32"/>
      </g>
     </g>
    </g>
    <g id="ytick_2">
     <g id="line2d_11">
      <g>
       <use xlink:href="#ma2af0d872a" x="57.6" y="214.848" style="stroke: #000000; stroke-width: 0.8"/>
      </g>
     </g>
     <g id="text_12">
      <!-- 4 -->
      <g transform="translate(44.2375 218.647219) scale(0.1 -0.1)">
       <use xlink:href="#DejaVuSans-34"/>
      </g>
     </g>
    </g>
    <g id="ytick_3">
     <g id="line2d_12">
      <g>
       <use xlink:href="#ma2af0d872a" x="57.6" y="161.088" style="stroke: #000000; stroke-width: 0.8"/>
      </g>
     </g>
     <g id="text_13">
      <!-- 6 -->
      <g transform="translate(44.2375 164.887219) scale(0.1 -0.1)">
       <defs>
        <path id="DejaVuSans-36" d="M 2113 2584 
Q 1688 2584 1439 2293 
Q 1191 2003 1191 1497 
Q 1191 994 1439 701 
Q 1688 409 2113 409 
Q 2538 409 2786 701 
Q 3034 994 3034 1497 
Q 3034 2003 2786 2293 
Q 2538 2584 2113 2584 
z
M 3366 4563 
L 3366 3988 
Q 3128 4100 2886 4159 
Q 2644 4219 2406 4219 
Q 1781 4219 1451 3797 
Q 1122 3375 1075 2522 
Q 1259 2794 1537 2939 
Q 1816 3084 2150 3084 
Q 2853 3084 3261 2657 
Q 3669 2231 3669 1497 
Q 3669 778 3244 343 
Q 2819 -91 2113 -91 
Q 1303 -91 875 529 
Q 447 1150 447 2328 
Q 447 3434 972 4092 
Q 1497 4750 2381 4750 
Q 2619 4750 2861 4703 
Q 3103 4656 3366 4563 
z
" transform="scale(0.015625)"/>
       </defs>
       <use xlink:href="#DejaVuSans-36"/>
      </g>
     </g>
    </g>
    <g id="ytick_4">
     <g id="line2d_13">
      <g>
       <use xlink:href="#ma2af0d872a" x="57.6" y="107.328" style="stroke: #000000; stroke-width: 0.8"/>
      </g>
     </g>
     <g id="text_14">
      <!-- 8 -->
      <g transform="translate(44.2375 111.127219) scale(0.1 -0.1)">
       <defs>
        <path id="DejaVuSans-38" d="M 2034 2216 
Q 1584 2216 1326 1975 
Q 1069 1734 1069 1313 
Q 1069 891 1326 650 
Q 1584 409 2034 409 
Q 2484 409 2743 651 
Q 3003 894 3003 1313 
Q 3003 1734 2745 1975 
Q 2488 2216 2034 2216 
z
M 1403 2484 
Q 997 2584 770 2862 
Q 544 3141 544 3541 
Q 544 4100 942 4425 
Q 1341 4750 2034 4750 
Q 2731 4750 3128 4425 
Q 3525 4100 3525 3541 
Q 3525 3141 3298 2862 
Q 3072 2584 2669 2484 
Q 3125 2378 3379 2068 
Q 3634 1759 3634 1313 
Q 3634 634 3220 271 
Q 2806 -91 2034 -91 
Q 1263 -91 848 271 
Q 434 634 434 1313 
Q 434 1759 690 2068 
Q 947 2378 1403 2484 
z
M 1172 3481 
Q 1172 3119 1398 2916 
Q 1625 2713 2034 2713 
Q 2441 2713 2670 2916 
Q 2900 3119 2900 3481 
Q 2900 3844 2670 4047 
Q 2441 4250 2034 4250 
Q 1625 4250 1398 4047 
Q 1172 3844 1172 3481 
z
" transform="scale(0.015625)"/>
       </defs>
       <use xlink:href="#DejaVuSans-38"/>
      </g>
     </g>
    </g>
    <g id="ytick_5">
     <g id="line2d_14">
      <g>
       <use xlink:href="#ma2af0d872a" x="57.6" y="53.568" style="stroke: #000000; stroke-width: 0.8"/>
      </g>
     </g>
     <g id="text_15">
      <!-- 10 -->
      <g transform="translate(37.875 57.367219) scale(0.1 -0.1)">
       <use xlink:href="#DejaVuSans-31"/>
       <use xlink:href="#DejaVuSans-30" x="63.623047"/>
      </g>
     </g>
    </g>
    <g id="text_16">
     <!-- Number of distinct output neurons spiking -->
     <g transform="translate(31.795312 280.250656) rotate(-90) scale(0.1 -0.1)">
      <defs>
       <path id="DejaVuSans-4e" d="M 628 4666 
L 1478 4666 
L 3547 763 
L 3547 4666 
L 4159 4666 
L 4159 0 
L 3309 0 
L 1241 3903 
L 1241 0 
L 628 0 
L 628 4666 
z
" transform="scale(0.015625)"/>
       <path id="DejaVuSans-75" d="M 544 1381 
L 544 3500 
L 1119 3500 
L 1119 1403 
Q 1119 906 1312 657 
Q 1506 409 1894 409 
Q 2359 409 2629 706 
Q 2900 1003 2900 1516 
L 2900 3500 
L 3475 3500 
L 3475 0 
L 2900 0 
L 2900 538 
Q 2691 219 2414 64 
Q 2138 -91 1772 -91 
Q 1169 -91 856 284 
Q 544 659 544 1381 
z
M 1991 3584 
L 1991 3584 
z
" transform="scale(0.015625)"/>
       <path id="DejaVuSans-62" d="M 3116 1747 
Q 3116 2381 2855 2742 
Q 2594 3103 2138 3103 
Q 1681 3103 1420 2742 
Q 1159 2381 1159 1747 
Q 1159 1113 1420 752 
Q 1681 391 2138 391 
Q 2594 391 2855 752 
Q 3116 1113 3116 1747 
z
M 1159 2969 
Q 1341 3281 1617 3432 
Q 1894 3584 2278 3584 
Q 2916 3584 3314 3078 
Q 3713 2572 3713 1747 
Q 3713 922 3314 415 
Q 2916 -91 2278 -91 
Q 1894 -91 1617 61 
Q 1341 213 1159 525 
L 1159 0 
L 581 0 
L 581 4863 
L 1159 4863 
L 1159 2969 
z
" transform="scale(0.015625)"/>
       <path id="DejaVuSans-72" d="M 2631 2963 
Q 2534 3019 2420 3045 
Q 2306 3072 2169 3072 
Q 1681 3072 1420 2755 
Q 1159 2438 1159 1844 
L 1159 0 
L 581 0 
L 581 3500 
L 1159 3500 
L 1159 2956 
Q 1341 3275 1631 3429 
Q 1922 3584 2338 3584 
Q 2397 3584 2469 3576 
Q 2541 3569 2628 3553 
L 2631 2963 
z
" transform="scale(0.015625)"/>
       <path id="DejaVuSans-66" d="M 2375 4863 
L 2375 4384 
L 1825 4384 
Q 1516 4384 1395 4259 
Q 1275 4134 1275 3809 
L 1275 3500 
L 2222 3500 
L 2222 3053 
L 1275 3053 
L 1275 0 
L 697 0 
L 697 3053 
L 147 3053 
L 147 3500 
L 697 3500 
L 697 3744 
Q 697 4328 969 4595 
Q 1241 4863 1831 4863 
L 2375 4863 
z
" transform="scale(0.015625)"/>
       <path id="DejaVuSans-64" d="M 2906 2969 
L 2906 4863 
L 3481 4863 
L 3481 0 
L 2906 0 
L 2906 525 
Q 2725 213 2448 61 
Q 2172 -91 1784 -91 
Q 1150 -91 751 415 
Q 353 922 353 1747 
Q 353 2572 751 3078 
Q 1150 3584 1784 3584 
Q 2172 3584 2448 3432 
Q 2725 3281 2906 2969 
z
M 947 1747 
Q 947 1113 1208 752 
Q 1469 391 1925 391 
Q 2381 391 2643 752 
Q 2906 1113 2906 1747 
Q 2906 2381 2643 2742 
Q 2381 3103 1925 3103 
Q 1469 3103 1208 2742 
Q 947 2381 947 1747 
z
" transform="scale(0.015625)"/>
       <path id="DejaVuSans-69" d="M 603 3500 
L 1178 3500 
L 1178 0 
L 603 0 
L 603 3500 
z
M 603 4863 
L 1178 4863 
L 1178 4134 
L 603 4134 
L 603 4863 
z
" transform="scale(0.015625)"/>
       <path id="DejaVuSans-74" d="M 1172 4494 
L 1172 3500 
L 2356 3500 
L 2356 3053 
L 1172 3053 
L 1172 1153 
Q 1172 725 1289 603 
Q 1406 481 1766 481 
L 2356 481 
L 2356 0 
L 1766 0 
Q 1100 0 847 248 
Q 594 497 594 1153 
L 594 3053 
L 172 3053 
L 172 3500 
L 594 3500 
L 594 4494 
L 1172 4494 
z
" transform="scale(0.015625)"/>
       <path id="DejaVuSans-63" d="M 3122 3366 
L 3122 2828 
Q 2878 2963 2633 3030 
Q 2388 3097 2138 3097 
Q 1578 3097 1268 2742 
Q 959 2388 959 1747 
Q 959 1106 1268 751 
Q 1578 397 2138 397 
Q 2388 397 2633 464 
Q 2878 531 3122 666 
L 3122 134 
Q 2881 22 2623 -34 
Q 2366 -91 2075 -91 
Q 1284 -91 818 406 
Q 353 903 353 1747 
Q 353 2603 823 3093 
Q 1294 3584 2113 3584 
Q 2378 3584 2631 3529 
Q 2884 3475 3122 3366 
z
" transform="scale(0.015625)"/>
       <path id="DejaVuSans-70" d="M 1159 525 
L 1159 -1331 
L 581 -1331 
L 581 3500 
L 1159 3500 
L 1159 2969 
Q 1341 3281 1617 3432 
Q 1894 3584 2278 3584 
Q 2916 3584 3314 3078 
Q 3713 2572 3713 1747 
Q 3713 922 3314 415 
Q 2916 -91 2278 -91 
Q 1894 -91 1617 61 
Q 1341 213 1159 525 
z
M 3116 1747 
Q 3116 2381 2855 2742 
Q 2594 3103 2138 3103 
Q 1681 3103 1420 2742 
Q 1159 2381 1159 1747 
Q 1159 1113 1420 752 
Q 1681 391 2138 391 
Q 2594 391 2855 752 
Q 3116 1113 3116 1747 
z
" transform="scale(0.015625)"/>
       <path id="DejaVuSans-6b" d="M 581 4863 
L 1159 4863 
L 1159 1991 
L 2875 3500 
L 3609 3500 
L 1753 1863 
L 3688 0 
L 2938 0 
L 1159 1709 
L 1159 0 
L 581 0 
L 581 4863 
z
" transform="scale(0.015625)"/>
      </defs>
      <use xlink:href="#DejaVuSans-4e"/>
      <use xlink:href="#DejaVuSans-75" x="74.804688"/>
      <use xlink:href="#DejaVuSans-6d" x="138.183594"/>
      <use xlink:href="#DejaVuSans-62" x="235.595703"/>
      <use xlink:href="#DejaVuSans-65" x="299.072266"/>
      <use xlink:href="#DejaVuSans-72" x="360.595703"/>
      <use xlink:href="#DejaVuSans-20" x="401.708984"/>
      <use xlink:href="#DejaVuSans-6f" x="433.496094"/>
      <use xlink:href="#DejaVuSans-66" x="494.677734"/>
      <use xlink:href="#DejaVuSans-20" x="529.882812"/>
      <use xlink:href="#DejaVuSans-64" x="561.669922"/>
      <use xlink:href="#DejaVuSans-69" x="625.146484"/>
      <use xlink:href="#DejaVuSans-73" x="652.929688"/>
      <use xlink:href="#DejaVuSans-74" x="705.029297"/>
      <use xlink:href="#DejaVuSans-69" x="744.238281"/>
      <use xlink:href="#DejaVuSans-6e" x="772.021484"/>
      <use xlink:href="#DejaVuSans-63" x="835.400391"/>
      <use xlink:href="#DejaVuSans-74" x="890.380859"/>
      <use xlink:href="#DejaVuSans-20" x="929.589844"/>
      <use xlink:href="#DejaVuSans-6f" x="961.376953"/>
      <use xlink:href="#DejaVuSans-75" x="1022.558594"/>
      <use xlink:href="#DejaVuSans-74" x="1085.9375"/>
      <use xlink:href="#DejaVuSans-70" x="1125.146484"/>
      <use xlink:href="#DejaVuSans-75" x="1188.623047"/>
      <use xlink:href="#DejaVuSans-74" x="1252.001953"/>
      <use xlink:href="#DejaVuSans-20" x="1291.210938"/>
      <use xlink:href="#DejaVuSans-6e" x="1322.998047"/>
      <use xlink:href="#DejaVuSans-65" x="1386.376953"/>
      <use xlink:href="#DejaVuSans-75" x="1447.900391"/>
      <use xlink:href="#DejaVuSans-72" x="1511.279297"/>
      <use xlink:href="#DejaVuSans-6f" x="1550.142578"/>
      <use xlink:href="#DejaVuSans-6e" x="1611.324219"/>
      <use xlink:href="#DejaVuSans-73" x="1674.703125"/>
      <use xlink:href="#DejaVuSans-20" x="1726.802734"/>
      <use xlink:href="#DejaVuSans-73" x="1758.589844"/>
      <use xlink:href="#DejaVuSans-70" x="1810.689453"/>
      <use xlink:href="#DejaVuSans-69" x="1874.166016"/>
      <use xlink:href="#DejaVuSans-6b" x="1901.949219"/>
      <use xlink:href="#DejaVuSans-69" x="1959.859375"/>
      <use xlink:href="#DejaVuSans-6e" x="1987.642578"/>
      <use xlink:href="#DejaVuSans-67" x="2051.021484"/>
     </g>
    </g>
   </g>
   <g id="line2d_15">
    <path d="M 73.832727 80.448 
L 74.07634 80.448 
L 74.238748 53.568 
L 74.64477 53.568 
L 74.725974 80.448 
L 74.807178 53.568 
L 74.888382 80.448 
L 75.050791 53.568 
L 75.619221 53.568 
L 75.781629 80.448 
L 75.944037 53.568 
L 77.080897 53.568 
L 77.162101 80.448 
L 77.32451 53.568 
L 77.405714 53.568 
L 77.568122 107.328 
L 77.730531 53.568 
L 78.623777 53.568 
L 78.704982 80.448 
L 78.786186 53.568 
L 78.86739 80.448 
L 79.029799 53.568 
L 79.679432 53.568 
L 79.760637 80.448 
L 79.841841 53.568 
L 79.923045 80.448 
L 80.085454 53.568 
L 80.491475 53.568 
L 80.572679 80.448 
L 80.735088 53.568 
L 81.222313 53.568 
L 81.303517 80.448 
L 81.465926 53.568 
L 82.927602 53.568 
L 83.008806 80.448 
L 83.09001 53.568 
L 83.171215 80.448 
L 83.333623 53.568 
L 83.414827 80.448 
L 83.577236 53.568 
L 83.983257 53.568 
L 84.064461 80.448 
L 84.22687 53.568 
L 84.389278 53.568 
L 84.551687 80.448 
L 84.714095 53.568 
L 84.876504 53.568 
L 84.957708 80.448 
L 85.120116 53.568 
L 85.526138 53.568 
L 85.607342 80.448 
L 85.76975 53.568 
L 85.850955 80.448 
L 86.013363 53.568 
L 86.094567 53.568 
L 86.175772 80.448 
L 86.33818 53.568 
L 88.043469 53.568 
L 88.205877 80.448 
L 88.368286 53.568 
L 89.180328 53.568 
L 89.261533 80.448 
L 89.423941 53.568 
L 89.505145 53.568 
L 89.58635 80.448 
L 89.748758 53.568 
L 89.829962 80.448 
L 89.992371 53.568 
L 90.073575 80.448 
L 90.154779 53.568 
L 90.235983 80.448 
L 90.317188 53.568 
L 90.398392 80.448 
L 90.5608 53.568 
L 90.642005 80.448 
L 90.804413 53.568 
L 91.616456 53.568 
L 91.69766 80.448 
L 91.860068 53.568 
L 92.428498 53.568 
L 92.509702 80.448 
L 92.672111 53.568 
L 92.753315 53.568 
L 92.915723 80.448 
L 92.996928 80.448 
L 93.078132 53.568 
L 93.159336 80.448 
L 93.24054 53.568 
L 93.321745 80.448 
L 93.484153 53.568 
L 93.565357 80.448 
L 93.727766 53.568 
L 93.890174 53.568 
L 93.971378 80.448 
L 94.133787 53.568 
L 95.676667 53.568 
L 95.757872 80.448 
L 95.839076 53.568 
L 95.92028 80.448 
L 96.082689 53.568 
L 96.326301 53.568 
L 96.407506 80.448 
L 96.569914 53.568 
L 96.813527 53.568 
L 96.894731 80.448 
L 97.057139 53.568 
L 97.625569 53.568 
L 97.706773 80.448 
L 97.869182 53.568 
L 99.006041 53.568 
L 99.087245 80.448 
L 99.249654 53.568 
L 99.330858 80.448 
L 99.493267 53.568 
L 100.142901 53.568 
L 100.224105 80.448 
L 100.386513 53.568 
L 100.548922 53.568 
L 100.630126 80.448 
L 100.792534 53.568 
L 101.442168 53.568 
L 101.523373 80.448 
L 101.685781 53.568 
L 102.010598 53.568 
L 102.091802 80.448 
L 102.254211 53.568 
L 102.985049 53.568 
L 103.066253 107.328 
L 103.228662 53.568 
L 104.365521 53.568 
L 104.446725 80.448 
L 104.609134 53.568 
L 104.690338 80.448 
L 104.771542 53.568 
L 104.852746 80.448 
L 105.015155 53.568 
L 105.50238 53.568 
L 105.664789 80.448 
L 105.827197 53.568 
L 107.207669 53.568 
L 107.370078 80.448 
L 107.451282 80.448 
L 107.61369 53.568 
L 108.831754 53.568 
L 108.912958 80.448 
L 109.075367 53.568 
L 109.318979 53.568 
L 109.481388 80.448 
L 109.643796 53.568 
L 110.049818 53.568 
L 110.131022 80.448 
L 110.29343 53.568 
L 110.455839 53.568 
L 110.537043 80.448 
L 110.699452 53.568 
L 110.780656 80.448 
L 110.943064 53.568 
L 111.755107 53.568 
L 111.836311 80.448 
L 111.998719 53.568 
L 112.648353 53.568 
L 112.810762 80.448 
L 112.97317 53.568 
L 113.216783 53.568 
L 113.297987 80.448 
L 113.460396 53.568 
L 113.866417 53.568 
L 113.947621 80.448 
L 114.11003 53.568 
L 114.678459 53.568 
L 114.840868 80.448 
L 115.003276 53.568 
L 115.08448 80.448 
L 115.246889 53.568 
L 116.383748 53.568 
L 116.464952 80.448 
L 116.627361 53.568 
L 116.870974 53.568 
L 117.033382 80.448 
L 117.195791 53.568 
L 117.683016 53.568 
L 117.845425 80.448 
L 117.926629 80.448 
L 118.089037 53.568 
L 118.251446 53.568 
L 118.33265 80.448 
L 118.495058 53.568 
L 119.713122 53.568 
L 119.794326 80.448 
L 119.956735 53.568 
L 120.362756 53.568 
L 120.44396 80.448 
L 120.606369 53.568 
L 120.768777 53.568 
L 120.931186 80.448 
L 121.093594 53.568 
L 121.174798 53.568 
L 121.337207 80.448 
L 121.499615 53.568 
L 121.905636 53.568 
L 121.986841 107.328 
L 122.149249 53.568 
L 122.636475 53.568 
L 122.717679 80.448 
L 122.798883 53.568 
L 122.880087 80.448 
L 123.042496 53.568 
L 123.1237 53.568 
L 123.204904 80.448 
L 123.367313 53.568 
L 123.448517 53.568 
L 123.529721 80.448 
L 123.69213 53.568 
L 124.341764 53.568 
L 124.422968 80.448 
L 124.585376 53.568 
L 124.991398 53.568 
L 125.072602 80.448 
L 125.23501 53.568 
L 125.397419 53.568 
L 125.478623 80.448 
L 125.641031 53.568 
L 125.722236 53.568 
L 125.80344 80.448 
L 125.884644 53.568 
L 125.965848 80.448 
L 126.128257 53.568 
L 127.34632 53.568 
L 127.427525 80.448 
L 127.589933 53.568 
L 129.944856 53.568 
L 130.02606 80.448 
L 130.188469 53.568 
L 130.432081 53.568 
L 130.59449 80.448 
L 130.675694 53.568 
L 130.838103 80.448 
L 131.000511 53.568 
L 131.568941 53.568 
L 131.650145 107.328 
L 131.812554 53.568 
L 132.299779 53.568 
L 132.380983 80.448 
L 132.543392 53.568 
L 132.7058 53.568 
L 132.868209 80.448 
L 133.030617 53.568 
L 133.355434 53.568 
L 133.436638 80.448 
L 133.599047 53.568 
L 133.761455 80.448 
L 133.84266 53.568 
L 133.923864 80.448 
L 134.005068 53.568 
L 134.086272 80.448 
L 134.248681 53.568 
L 134.329885 80.448 
L 134.411089 53.568 
L 134.492293 80.448 
L 134.654702 53.568 
L 134.735906 80.448 
L 134.898315 53.568 
L 135.141927 53.568 
L 135.304336 80.448 
L 135.466744 53.568 
L 135.710357 53.568 
L 135.791561 80.448 
L 135.872765 53.568 
L 135.95397 107.328 
L 136.116378 53.568 
L 136.197582 80.448 
L 136.359991 53.568 
L 137.090829 53.568 
L 137.253238 80.448 
L 137.415646 53.568 
L 137.49685 53.568 
L 137.578054 80.448 
L 137.740463 53.568 
L 137.821667 53.568 
L 137.902871 80.448 
L 138.06528 53.568 
L 138.146484 53.568 
L 138.227688 80.448 
L 138.390097 53.568 
L 138.877322 53.568 
L 138.958527 80.448 
L 139.039731 53.568 
L 139.202139 80.448 
L 139.364548 53.568 
L 139.445752 53.568 
L 139.526956 80.448 
L 139.689365 53.568 
L 139.770569 80.448 
L 139.932977 53.568 
L 140.014182 53.568 
L 140.095386 80.448 
L 140.17659 53.568 
L 140.338999 80.448 
L 140.501407 53.568 
L 140.582611 80.448 
L 140.74502 53.568 
L 140.826224 80.448 
L 140.988632 53.568 
L 142.206696 53.568 
L 142.369105 80.448 
L 142.531513 53.568 
L 143.42476 53.568 
L 143.505964 80.448 
L 143.587168 53.568 
L 143.668372 80.448 
L 143.830781 53.568 
L 143.911985 53.568 
L 144.074394 80.448 
L 144.236802 53.568 
L 144.318006 53.568 
L 144.480415 80.448 
L 144.642823 53.568 
L 145.211253 53.568 
L 145.292457 80.448 
L 145.373661 53.568 
L 145.454866 80.448 
L 145.53607 53.568 
L 145.617274 80.448 
L 145.698478 53.568 
L 145.779683 80.448 
L 145.942091 53.568 
L 146.266908 53.568 
L 146.348112 80.448 
L 146.510521 53.568 
L 146.754133 53.568 
L 146.835338 80.448 
L 146.997746 53.568 
L 147.160155 53.568 
L 147.241359 80.448 
L 147.322563 53.568 
L 147.403767 80.448 
L 147.566176 53.568 
L 147.64738 80.448 
L 147.809789 53.568 
L 147.972197 80.448 
L 148.053401 53.568 
L 148.134605 107.328 
L 148.297014 53.568 
L 148.378218 53.568 
L 148.459422 80.448 
L 148.621831 53.568 
L 148.946648 53.568 
L 149.027852 80.448 
L 149.190261 53.568 
L 149.352669 80.448 
L 149.433873 80.448 
L 149.596282 53.568 
L 149.75869 53.568 
L 149.839894 80.448 
L 149.921099 53.568 
L 150.083507 107.328 
L 150.164711 53.568 
L 150.245916 107.328 
L 150.32712 53.568 
L 150.408324 80.448 
L 150.489528 53.568 
L 150.651937 80.448 
L 150.733141 53.568 
L 150.814345 80.448 
L 150.976754 53.568 
L 151.057958 80.448 
L 151.139162 53.568 
L 151.301571 80.448 
L 151.382775 80.448 
L 151.545184 53.568 
L 151.626388 107.328 
L 151.788796 53.568 
L 151.87 80.448 
L 152.032409 53.568 
L 152.113613 53.568 
L 152.194817 80.448 
L 152.276022 53.568 
L 152.357226 107.328 
L 152.519634 53.568 
L 152.600839 107.328 
L 152.682043 53.568 
L 152.844451 107.328 
L 152.925656 53.568 
L 153.088064 107.328 
L 153.169268 107.328 
L 153.331677 53.568 
L 153.737698 53.568 
L 153.818902 80.448 
L 153.981311 53.568 
L 154.387332 53.568 
L 154.54974 107.328 
L 154.712149 53.568 
L 154.874557 107.328 
L 155.036966 53.568 
L 155.11817 107.328 
L 155.199374 53.568 
L 155.280578 80.448 
L 155.442987 53.568 
L 155.605395 107.328 
L 155.6866 80.448 
L 155.767804 107.328 
L 155.930212 80.448 
L 156.011417 107.328 
L 156.173825 53.568 
L 156.255029 107.328 
L 156.336234 53.568 
L 156.498642 107.328 
L 156.579846 53.568 
L 156.661051 107.328 
L 156.823459 53.568 
L 156.985867 107.328 
L 157.148276 80.448 
L 157.22948 80.448 
L 157.391889 53.568 
L 157.473093 53.568 
L 157.554297 107.328 
L 157.635501 80.448 
L 157.716706 134.208 
L 157.960318 80.448 
L 158.285135 80.448 
L 158.36634 107.328 
L 158.528748 80.448 
L 158.609952 134.208 
L 158.772361 80.448 
L 158.853565 53.568 
L 159.097178 134.208 
L 159.259586 80.448 
L 159.34079 80.448 
L 159.421995 161.088 
L 159.503199 80.448 
L 159.584403 107.328 
L 159.665607 187.968 
L 159.828016 80.448 
L 159.90922 134.208 
L 159.990424 107.328 
L 160.071629 134.208 
L 160.234037 107.328 
L 160.315241 107.328 
L 160.396445 134.208 
L 160.558854 80.448 
L 160.640058 107.328 
L 160.721262 53.568 
L 160.802467 161.088 
L 160.964875 80.448 
L 161.127284 80.448 
L 161.208488 107.328 
L 161.370896 80.448 
L 161.452101 80.448 
L 161.533305 187.968 
L 161.776918 80.448 
L 161.939326 134.208 
L 162.02053 134.208 
L 162.101735 80.448 
L 162.182939 161.088 
L 162.264143 134.208 
L 162.345347 134.208 
L 162.507756 161.088 
L 162.58896 161.088 
L 162.670164 80.448 
L 162.751368 107.328 
L 162.832573 161.088 
L 162.913777 107.328 
L 162.994981 161.088 
L 163.076185 107.328 
L 163.15739 161.088 
L 163.238594 80.448 
L 163.401002 187.968 
L 163.563411 107.328 
L 163.644615 107.328 
L 163.807024 161.088 
L 163.969432 80.448 
L 164.13184 214.848 
L 164.294249 134.208 
L 164.375453 161.088 
L 164.456657 134.208 
L 164.537862 187.968 
L 164.70027 134.208 
L 164.862679 80.448 
L 165.106291 241.728 
L 165.187496 107.328 
L 165.2687 134.208 
L 165.431108 161.088 
L 165.512313 161.088 
L 165.674721 187.968 
L 165.837129 134.208 
L 165.918334 134.208 
L 165.999538 53.568 
L 166.080742 241.728 
L 166.161946 134.208 
L 166.243151 214.848 
L 166.405559 161.088 
L 166.567968 161.088 
L 166.649172 134.208 
L 166.730376 161.088 
L 166.81158 241.728 
L 166.892785 161.088 
L 167.055193 214.848 
L 167.217602 134.208 
L 167.38001 214.848 
L 167.623623 134.208 
L 167.704827 187.968 
L 167.786031 161.088 
L 167.867235 187.968 
L 168.029644 161.088 
L 168.110848 161.088 
L 168.273257 107.328 
L 168.354461 187.968 
L 168.435665 161.088 
L 168.598074 134.208 
L 168.922891 241.728 
L 169.004095 161.088 
L 169.085299 187.968 
L 169.166503 187.968 
L 169.247707 241.728 
L 169.328912 187.968 
L 169.410116 214.848 
L 169.49132 161.088 
L 169.572524 214.848 
L 169.653729 187.968 
L 169.734933 214.848 
L 169.897341 134.208 
L 169.978546 107.328 
L 170.05975 214.848 
L 170.222158 161.088 
L 170.384567 241.728 
L 170.546975 187.968 
L 170.62818 187.968 
L 170.709384 268.608 
L 170.790588 134.208 
L 170.871792 161.088 
L 170.952996 214.848 
L 171.034201 161.088 
L 171.115405 214.848 
L 171.277813 187.968 
L 171.440222 187.968 
L 171.521426 241.728 
L 171.60263 134.208 
L 171.765039 214.848 
L 171.927447 161.088 
L 172.008652 268.608 
L 172.089856 241.728 
L 172.17106 241.728 
L 172.252264 187.968 
L 172.333469 241.728 
L 172.414673 161.088 
L 172.495877 187.968 
L 172.577081 161.088 
L 172.73949 214.848 
L 172.820694 187.968 
L 172.901898 214.848 
L 172.983102 187.968 
L 173.145511 241.728 
L 173.226715 214.848 
L 173.307919 241.728 
L 173.470328 187.968 
L 173.551532 214.848 
L 173.632736 134.208 
L 173.713941 241.728 
L 173.795145 107.328 
L 173.876349 241.728 
L 174.038758 161.088 
L 174.201166 214.848 
L 174.28237 187.968 
L 174.363575 214.848 
L 174.444779 187.968 
L 174.525983 241.728 
L 174.607187 161.088 
L 174.688391 187.968 
L 174.8508 214.848 
L 174.932004 214.848 
L 175.013208 187.968 
L 175.094413 241.728 
L 175.175617 214.848 
L 175.338025 241.728 
L 175.41923 241.728 
L 175.581638 214.848 
L 175.662842 241.728 
L 175.825251 161.088 
L 175.987659 214.848 
L 176.068864 161.088 
L 176.231272 241.728 
L 176.312476 214.848 
L 176.39368 187.968 
L 176.556089 241.728 
L 176.637293 187.968 
L 176.799702 268.608 
L 176.880906 214.848 
L 176.96211 268.608 
L 177.124519 214.848 
L 177.205723 214.848 
L 177.286927 241.728 
L 177.368131 214.848 
L 177.449336 268.608 
L 177.53054 187.968 
L 177.611744 214.848 
L 177.692948 187.968 
L 177.774153 295.488 
L 177.855357 161.088 
L 177.936561 214.848 
L 178.017765 187.968 
L 178.342582 268.608 
L 178.504991 241.728 
L 178.586195 241.728 
L 178.829808 187.968 
L 179.07342 241.728 
L 179.235829 214.848 
L 179.398237 214.848 
L 179.479442 268.608 
L 179.560646 187.968 
L 179.723054 241.728 
L 179.804258 187.968 
L 179.966667 268.608 
L 180.129075 187.968 
L 180.372688 241.728 
L 180.535097 214.848 
L 180.697505 268.608 
L 180.778709 187.968 
L 180.859914 214.848 
L 181.022322 214.848 
L 181.184731 268.608 
L 181.347139 241.728 
L 181.428343 241.728 
L 181.509548 214.848 
L 181.590752 241.728 
L 181.671956 214.848 
L 181.75316 241.728 
L 181.834364 187.968 
L 181.996773 241.728 
L 182.077977 241.728 
L 182.240386 214.848 
L 182.483998 268.608 
L 182.565203 214.848 
L 182.808815 268.608 
L 182.971224 241.728 
L 183.052428 241.728 
L 183.133632 268.608 
L 183.214837 161.088 
L 183.377245 268.608 
L 183.539653 268.608 
L 183.783266 214.848 
L 183.86447 268.608 
L 184.108083 214.848 
L 184.189287 268.608 
L 184.351696 241.728 
L 184.4329 268.608 
L 184.595309 241.728 
L 184.920126 241.728 
L 185.082534 214.848 
L 185.244942 268.608 
L 185.326147 295.488 
L 185.488555 214.848 
L 185.650964 268.608 
L 185.732168 295.488 
L 185.894576 241.728 
L 186.056985 295.488 
L 186.138189 214.848 
L 186.219393 241.728 
L 186.300598 241.728 
L 186.381802 268.608 
L 186.625415 214.848 
L 186.706619 241.728 
L 186.869027 214.848 
L 187.031436 241.728 
L 187.11264 241.728 
L 187.275048 268.608 
L 187.356253 214.848 
L 187.518661 268.608 
L 187.68107 268.608 
L 187.843478 241.728 
L 188.005887 268.608 
L 188.249499 214.848 
L 188.411908 214.848 
L 188.574316 241.728 
L 188.65552 241.728 
L 188.736725 268.608 
L 188.899133 241.728 
L 188.980337 241.728 
L 189.142746 268.608 
L 189.22395 268.608 
L 189.305154 241.728 
L 189.386359 295.488 
L 189.548767 241.728 
L 189.711176 268.608 
L 189.873584 241.728 
L 189.954788 268.608 
L 190.035993 241.728 
L 190.198401 268.608 
L 190.279605 214.848 
L 190.442014 268.608 
L 190.523218 241.728 
L 190.604422 268.608 
L 190.685626 241.728 
L 190.766831 268.608 
L 190.848035 241.728 
L 190.929239 268.608 
L 191.010443 214.848 
L 191.091648 295.488 
L 191.172852 214.848 
L 191.254056 295.488 
L 191.33526 187.968 
L 191.416465 295.488 
L 191.497669 268.608 
L 191.578873 268.608 
L 191.660077 241.728 
L 191.822486 268.608 
L 191.90369 241.728 
L 192.066099 268.608 
L 192.228507 241.728 
L 192.390915 268.608 
L 192.553324 241.728 
L 192.715732 268.608 
L 192.796937 268.608 
L 192.878141 241.728 
L 192.959345 295.488 
L 193.040549 241.728 
L 193.284162 295.488 
L 193.446571 268.608 
L 193.852592 268.608 
L 194.015 241.728 
L 194.177409 268.608 
L 194.258613 214.848 
L 194.502226 268.608 
L 194.58343 214.848 
L 194.664634 268.608 
L 194.827043 241.728 
L 194.908247 268.608 
L 195.070655 241.728 
L 195.15186 268.608 
L 195.233064 241.728 
L 195.395472 295.488 
L 195.476677 268.608 
L 195.557881 295.488 
L 195.639085 241.728 
L 195.720289 295.488 
L 195.882698 241.728 
L 195.963902 295.488 
L 196.045106 214.848 
L 196.12631 268.608 
L 196.207515 241.728 
L 196.369923 268.608 
L 196.532332 241.728 
L 196.69474 268.608 
L 196.775944 241.728 
L 196.938353 268.608 
L 197.019557 241.728 
L 197.100761 268.608 
L 197.181966 241.728 
L 197.26317 268.608 
L 197.344374 241.728 
L 197.587987 295.488 
L 197.750395 241.728 
L 197.912804 268.608 
L 197.994008 241.728 
L 198.156416 295.488 
L 198.318825 241.728 
L 198.481233 295.488 
L 198.724846 241.728 
L 198.80605 295.488 
L 198.887255 241.728 
L 198.968459 268.608 
L 199.049663 241.728 
L 199.130867 268.608 
L 199.293276 241.728 
L 199.455684 295.488 
L 199.536888 268.608 
L 199.618093 295.488 
L 199.780501 241.728 
L 199.94291 268.608 
L 200.267727 268.608 
L 200.430135 241.728 
L 200.511339 241.728 
L 200.592544 268.608 
L 200.754952 241.728 
L 200.836156 241.728 
L 200.91736 295.488 
L 200.998565 241.728 
L 201.079769 295.488 
L 201.160973 241.728 
L 201.242177 268.608 
L 201.323382 241.728 
L 201.404586 268.608 
L 201.48579 241.728 
L 201.566994 268.608 
L 201.648199 214.848 
L 201.891811 268.608 
L 202.135424 268.608 
L 202.216628 295.488 
L 202.460241 241.728 
L 202.541445 241.728 
L 202.703854 295.488 
L 202.785058 241.728 
L 202.947466 295.488 
L 203.191079 214.848 
L 203.272283 268.608 
L 203.353488 241.728 
L 203.515896 268.608 
L 203.5971 268.608 
L 203.759509 241.728 
L 203.921917 295.488 
L 204.003122 241.728 
L 204.084326 268.608 
L 204.16553 214.848 
L 204.490347 295.488 
L 204.652755 268.608 
L 204.815164 295.488 
L 204.977572 268.608 
L 205.221185 268.608 
L 205.302389 241.728 
L 205.464798 268.608 
L 205.627206 241.728 
L 205.708411 241.728 
L 205.870819 268.608 
L 205.952023 268.608 
L 206.033228 295.488 
L 206.195636 268.608 
L 206.601657 268.608 
L 206.682861 241.728 
L 206.84527 268.608 
L 207.007678 241.728 
L 207.170087 295.488 
L 207.332495 214.848 
L 207.4137 295.488 
L 207.494904 268.608 
L 207.576108 268.608 
L 207.657312 214.848 
L 207.982129 295.488 
L 208.144538 241.728 
L 208.306946 295.488 
L 208.550559 241.728 
L 208.631763 268.608 
L 208.712967 214.848 
L 208.95658 295.488 
L 209.200193 241.728 
L 209.281397 241.728 
L 209.362601 268.608 
L 209.443806 241.728 
L 209.606214 295.488 
L 209.768622 241.728 
L 209.931031 268.608 
L 210.012235 268.608 
L 210.093439 214.848 
L 210.174644 241.728 
L 210.255848 214.848 
L 210.418256 268.608 
L 210.499461 295.488 
L 210.580665 268.608 
L 210.743073 295.488 
L 210.824278 241.728 
L 210.905482 295.488 
L 211.06789 268.608 
L 211.149095 295.488 
L 211.311503 268.608 
L 211.392707 295.488 
L 211.555116 268.608 
L 211.798728 268.608 
L 211.961137 295.488 
L 212.123545 268.608 
L 212.285954 268.608 
L 212.448362 241.728 
L 212.529567 295.488 
L 212.691975 268.608 
L 212.854384 268.608 
L 213.016792 295.488 
L 213.097996 241.728 
L 213.341609 295.488 
L 213.422813 295.488 
L 213.585222 268.608 
L 213.666426 295.488 
L 213.74763 268.608 
L 213.828834 295.488 
L 213.910039 214.848 
L 213.991243 268.608 
L 214.072447 241.728 
L 214.234856 268.608 
L 214.397264 268.608 
L 214.478468 295.488 
L 214.640877 268.608 
L 214.88449 268.608 
L 214.965694 241.728 
L 215.209306 295.488 
L 215.371715 268.608 
L 215.696532 268.608 
L 215.777736 295.488 
L 215.940145 241.728 
L 216.102553 268.608 
L 216.183757 268.608 
L 216.264962 295.488 
L 216.346166 241.728 
L 216.42737 268.608 
L 216.508574 241.728 
L 216.589779 295.488 
L 216.670983 241.728 
L 216.752187 295.488 
L 216.914595 268.608 
L 217.239412 268.608 
L 217.401821 295.488 
L 217.483025 268.608 
L 217.645434 295.488 
L 217.807842 268.608 
L 217.970251 268.608 
L 218.132659 214.848 
L 218.213863 268.608 
L 218.295068 241.728 
L 218.457476 268.608 
L 218.701089 268.608 
L 218.782293 295.488 
L 218.863497 241.728 
L 219.025906 268.608 
L 219.269518 268.608 
L 219.350723 241.728 
L 219.431927 268.608 
L 219.513131 241.728 
L 219.594335 268.608 
L 219.756744 241.728 
L 219.837948 268.608 
L 220.000357 241.728 
L 220.081561 241.728 
L 220.243969 295.488 
L 220.325173 268.608 
L 220.487582 295.488 
L 220.64999 241.728 
L 220.731195 295.488 
L 220.812399 268.608 
L 220.893603 295.488 
L 221.056012 268.608 
L 221.137216 295.488 
L 221.299624 268.608 
L 221.380829 295.488 
L 221.543237 268.608 
L 221.705646 295.488 
L 221.868054 241.728 
L 221.949258 295.488 
L 222.192871 241.728 
L 222.355279 268.608 
L 222.436484 241.728 
L 222.680096 295.488 
L 222.761301 268.608 
L 222.923709 295.488 
L 223.086118 268.608 
L 223.167322 295.488 
L 223.248526 268.608 
L 223.32973 295.488 
L 223.573343 241.728 
L 223.735752 268.608 
L 223.816956 268.608 
L 223.979364 241.728 
L 224.222977 295.488 
L 224.304181 295.488 
L 224.547794 241.728 
L 224.628998 241.728 
L 224.710202 268.608 
L 224.791407 241.728 
L 224.872611 295.488 
L 225.035019 268.608 
L 225.116224 268.608 
L 225.197428 241.728 
L 225.359836 268.608 
L 225.441041 268.608 
L 225.522245 295.488 
L 225.684653 268.608 
L 225.847062 268.608 
L 226.00947 241.728 
L 226.171879 295.488 
L 226.334287 268.608 
L 226.415491 268.608 
L 226.5779 295.488 
L 226.821513 214.848 
L 226.983921 268.608 
L 227.065125 295.488 
L 227.308738 241.728 
L 227.471146 268.608 
L 227.552351 268.608 
L 227.633555 295.488 
L 227.714759 268.608 
L 227.795963 295.488 
L 227.958372 268.608 
L 228.12078 295.488 
L 228.201985 241.728 
L 228.364393 268.608 
L 228.526802 268.608 
L 228.608006 241.728 
L 228.68921 295.488 
L 228.851619 268.608 
L 229.095231 268.608 
L 229.176435 241.728 
L 229.338844 295.488 
L 229.501252 268.608 
L 229.663661 268.608 
L 229.826069 295.488 
L 229.988478 295.488 
L 230.069682 241.728 
L 230.150886 295.488 
L 230.313295 268.608 
L 230.475703 268.608 
L 230.556908 295.488 
L 230.719316 241.728 
L 230.80052 295.488 
L 230.962929 268.608 
L 231.125337 268.608 
L 231.206541 241.728 
L 231.287746 268.608 
L 231.36895 241.728 
L 231.450154 268.608 
L 231.531358 241.728 
L 231.693767 295.488 
L 231.774971 241.728 
L 231.93738 268.608 
L 232.018584 241.728 
L 232.180992 268.608 
L 232.262197 268.608 
L 232.343401 241.728 
L 232.424605 295.488 
L 232.587014 268.608 
L 232.749422 268.608 
L 232.91183 295.488 
L 233.074239 241.728 
L 233.155443 295.488 
L 233.317852 241.728 
L 233.399056 268.608 
L 233.48026 241.728 
L 233.561464 295.488 
L 233.723873 241.728 
L 233.886281 268.608 
L 233.967486 268.608 
L 234.04869 295.488 
L 234.129894 241.728 
L 234.211098 268.608 
L 234.292303 241.728 
L 234.373507 295.488 
L 234.535915 268.608 
L 234.617119 268.608 
L 234.698324 295.488 
L 234.779528 241.728 
L 234.860732 295.488 
L 234.941936 268.608 
L 235.104345 295.488 
L 235.185549 295.488 
L 235.347958 268.608 
L 235.429162 295.488 
L 235.510366 268.608 
L 235.672775 295.488 
L 235.753979 241.728 
L 235.916387 268.608 
L 236.16 268.608 
L 236.241204 295.488 
L 236.403613 241.728 
L 236.566021 268.608 
L 236.72843 268.608 
L 236.809634 295.488 
L 236.890838 241.728 
L 237.053247 268.608 
L 237.134451 268.608 
L 237.215655 241.728 
L 237.378064 295.488 
L 237.540472 241.728 
L 237.702881 268.608 
L 237.784085 241.728 
L 237.865289 295.488 
L 237.946493 241.728 
L 238.190106 295.488 
L 238.433719 241.728 
L 238.514923 241.728 
L 238.758536 295.488 
L 238.920944 268.608 
L 239.002148 268.608 
L 239.083353 295.488 
L 239.164557 268.608 
L 239.245761 295.488 
L 239.40817 268.608 
L 239.489374 268.608 
L 239.570578 295.488 
L 239.651782 268.608 
L 239.732986 295.488 
L 239.895395 268.608 
L 239.976599 268.608 
L 240.057803 241.728 
L 240.139008 295.488 
L 240.220212 241.728 
L 240.38262 295.488 
L 240.545029 268.608 
L 240.707437 295.488 
L 240.788642 241.728 
L 240.869846 268.608 
L 240.95105 241.728 
L 241.032254 295.488 
L 241.194663 241.728 
L 241.275867 295.488 
L 241.51948 241.728 
L 241.681888 295.488 
L 241.844297 241.728 
L 241.925501 268.608 
L 242.087909 241.728 
L 242.169114 241.728 
L 242.250318 268.608 
L 242.331522 241.728 
L 242.493931 295.488 
L 242.656339 268.608 
L 242.818748 268.608 
L 242.899952 241.728 
L 242.981156 295.488 
L 243.06236 268.608 
L 243.143565 295.488 
L 243.387177 241.728 
L 243.549586 268.608 
L 243.874403 268.608 
L 243.955607 241.728 
L 244.118015 295.488 
L 244.280424 241.728 
L 244.361628 268.608 
L 244.524037 241.728 
L 244.686445 295.488 
L 244.848854 241.728 
L 244.930058 295.488 
L 245.011262 241.728 
L 245.092466 295.488 
L 245.17367 241.728 
L 245.336079 268.608 
L 245.498487 268.608 
L 245.579692 241.728 
L 245.823304 295.488 
L 245.904509 241.728 
L 246.066917 295.488 
L 246.31053 241.728 
L 246.391734 295.488 
L 246.554143 268.608 
L 246.878959 268.608 
L 246.960164 295.488 
L 247.122572 241.728 
L 247.284981 268.608 
L 247.366185 268.608 
L 247.447389 241.728 
L 247.528593 295.488 
L 247.691002 268.608 
L 247.85341 295.488 
L 248.015819 268.608 
L 248.097023 268.608 
L 248.178227 241.728 
L 248.259432 295.488 
L 248.42184 268.608 
L 248.503044 268.608 
L 248.584248 295.488 
L 248.665453 268.608 
L 248.746657 295.488 
L 248.909065 241.728 
L 248.99027 241.728 
L 249.071474 295.488 
L 249.233882 268.608 
L 249.315087 268.608 
L 249.396291 295.488 
L 249.639904 241.728 
L 249.721108 295.488 
L 249.883516 241.728 
L 250.045925 268.608 
L 250.127129 268.608 
L 250.208333 241.728 
L 250.370742 268.608 
L 250.451946 268.608 
L 250.53315 241.728 
L 250.695559 295.488 
L 250.857967 241.728 
L 251.020376 295.488 
L 251.10158 241.728 
L 251.182784 295.488 
L 251.263988 241.728 
L 251.345193 295.488 
L 251.507601 241.728 
L 251.67001 268.608 
L 251.751214 241.728 
L 251.832418 268.608 
L 251.994827 241.728 
L 252.076031 295.488 
L 252.238439 268.608 
L 252.319643 295.488 
L 252.482052 268.608 
L 252.725665 268.608 
L 252.888073 295.488 
L 252.969277 268.608 
L 253.131686 295.488 
L 253.294094 268.608 
L 253.456503 268.608 
L 253.537707 295.488 
L 253.700116 268.608 
L 253.862524 268.608 
L 254.024932 241.728 
L 254.106137 268.608 
L 254.187341 241.728 
L 254.349749 295.488 
L 254.593362 241.728 
L 254.836975 295.488 
L 254.999383 241.728 
L 255.080588 295.488 
L 255.161792 268.608 
L 255.242996 295.488 
L 255.405405 241.728 
L 255.486609 295.488 
L 255.730221 241.728 
L 255.811426 295.488 
L 256.055038 241.728 
L 256.136243 295.488 
L 256.298651 241.728 
L 256.542264 295.488 
L 256.704672 268.608 
L 256.785877 295.488 
L 256.867081 241.728 
L 256.948285 268.608 
L 257.029489 241.728 
L 257.191898 295.488 
L 257.273102 241.728 
L 257.43551 268.608 
L 257.516715 268.608 
L 257.679123 241.728 
L 257.841532 268.608 
L 257.922736 241.728 
L 258.085144 268.608 
L 258.247553 268.608 
L 258.328757 295.488 
L 258.409961 241.728 
L 258.653574 295.488 
L 258.815983 268.608 
L 258.897187 268.608 
L 258.978391 241.728 
L 259.140799 295.488 
L 259.303208 268.608 
L 259.384412 295.488 
L 259.546821 268.608 
L 259.628025 295.488 
L 259.709229 241.728 
L 259.871638 268.608 
L 260.034046 268.608 
L 260.11525 295.488 
L 260.277659 268.608 
L 260.440067 268.608 
L 260.521272 295.488 
L 260.602476 268.608 
L 260.68368 295.488 
L 260.846088 241.728 
L 261.008497 295.488 
L 261.089701 241.728 
L 261.170905 268.608 
L 261.25211 241.728 
L 261.414518 268.608 
L 261.495722 268.608 
L 261.576927 295.488 
L 261.739335 241.728 
L 261.901744 295.488 
L 262.064152 268.608 
L 262.145356 268.608 
L 262.226561 241.728 
L 262.307765 268.608 
L 262.388969 241.728 
L 262.551378 268.608 
L 262.713786 241.728 
L 262.876194 295.488 
L 262.957399 241.728 
L 263.119807 268.608 
L 263.201011 268.608 
L 263.282216 214.848 
L 263.444624 268.608 
L 263.525828 241.728 
L 263.607033 268.608 
L 263.688237 241.728 
L 263.850645 295.488 
L 264.013054 241.728 
L 264.094258 268.608 
L 264.175462 241.728 
L 264.256667 268.608 
L 264.419075 241.728 
L 264.500279 295.488 
L 264.581483 241.728 
L 264.825096 295.488 
L 264.9063 295.488 
L 265.068709 241.728 
L 265.231117 295.488 
L 265.393526 268.608 
L 265.47473 295.488 
L 265.555934 241.728 
L 265.637139 268.608 
L 265.718343 241.728 
L 265.961956 295.488 
L 266.04316 268.608 
L 266.124364 295.488 
L 266.286772 268.608 
L 266.611589 268.608 
L 266.692794 241.728 
L 266.855202 295.488 
L 266.936406 241.728 
L 267.017611 295.488 
L 267.180019 241.728 
L 267.261223 295.488 
L 267.423632 241.728 
L 267.58604 268.608 
L 267.667245 268.608 
L 267.748449 295.488 
L 267.829653 241.728 
L 267.992061 295.488 
L 268.15447 241.728 
L 268.316878 295.488 
L 268.479287 268.608 
L 268.641695 295.488 
L 268.7229 295.488 
L 268.885308 268.608 
L 268.966512 295.488 
L 269.047717 241.728 
L 269.291329 295.488 
L 269.372534 268.608 
L 269.453738 295.488 
L 269.534942 268.608 
L 269.616146 295.488 
L 269.778555 268.608 
L 269.859759 295.488 
L 269.940963 241.728 
L 270.022167 295.488 
L 270.184576 268.608 
L 270.26578 295.488 
L 270.428189 268.608 
L 270.509393 295.488 
L 270.671801 241.728 
L 270.753006 295.488 
L 270.915414 241.728 
L 271.077823 268.608 
L 271.159027 241.728 
L 271.321435 295.488 
L 271.483844 241.728 
L 271.565048 295.488 
L 271.646252 241.728 
L 271.808661 268.608 
L 271.889865 187.968 
L 272.052273 268.608 
L 272.214682 268.608 
L 272.295886 295.488 
L 272.539499 241.728 
L 272.620703 241.728 
L 272.701907 268.608 
L 272.783112 241.728 
L 272.864316 295.488 
L 273.026724 268.608 
L 273.107929 295.488 
L 273.351541 241.728 
L 273.595154 295.488 
L 273.838767 241.728 
L 274.001175 295.488 
L 274.163584 268.608 
L 274.325992 268.608 
L 274.407196 295.488 
L 274.569605 268.608 
L 274.650809 268.608 
L 274.813218 295.488 
L 274.894422 295.488 
L 275.138034 241.728 
L 275.300443 268.608 
L 275.462851 268.608 
L 275.62526 241.728 
L 275.787668 295.488 
L 275.950077 241.728 
L 276.112485 268.608 
L 276.274894 268.608 
L 276.437302 295.488 
L 276.599711 268.608 
L 277.16814 268.608 
L 277.330549 295.488 
L 277.492957 268.608 
L 277.73657 268.608 
L 277.817774 241.728 
L 277.898979 268.608 
L 277.980183 241.728 
L 278.061387 268.608 
L 278.142591 241.728 
L 278.305 268.608 
L 278.386204 241.728 
L 278.467408 295.488 
L 278.548612 268.608 
L 278.711021 295.488 
L 278.792225 268.608 
L 278.954634 295.488 
L 279.035838 241.728 
L 279.117042 295.488 
L 279.279451 241.728 
L 279.441859 268.608 
L 279.523063 268.608 
L 279.685472 295.488 
L 279.766676 268.608 
L 279.84788 295.488 
L 280.010289 268.608 
L 280.091493 268.608 
L 280.253901 295.488 
L 280.41631 241.728 
L 280.578718 295.488 
L 280.741127 268.608 
L 280.822331 268.608 
L 280.903535 295.488 
L 280.98474 241.728 
L 281.228352 295.488 
L 281.309557 295.488 
L 281.390761 268.608 
L 281.471965 295.488 
L 281.634374 268.608 
L 281.715578 268.608 
L 281.796782 295.488 
L 281.877986 268.608 
L 281.959191 295.488 
L 282.040395 268.608 
L 282.121599 295.488 
L 282.284007 241.728 
L 282.365212 241.728 
L 282.446416 295.488 
L 282.608824 241.728 
L 282.690029 295.488 
L 282.771233 241.728 
L 283.014846 295.488 
L 283.09605 295.488 
L 283.258458 268.608 
L 283.339663 295.488 
L 283.420867 241.728 
L 283.583275 268.608 
L 283.826888 268.608 
L 283.908092 241.728 
L 283.989296 295.488 
L 284.070501 241.728 
L 284.151705 295.488 
L 284.232909 241.728 
L 284.314113 295.488 
L 284.476522 268.608 
L 285.126156 268.608 
L 285.20736 214.848 
L 285.288564 295.488 
L 285.369769 241.728 
L 285.532177 268.608 
L 285.613381 268.608 
L 285.77579 295.488 
L 286.019402 241.728 
L 286.100607 295.488 
L 286.181811 241.728 
L 286.425424 295.488 
L 286.506628 295.488 
L 286.587832 241.728 
L 286.750241 295.488 
L 286.912649 268.608 
L 287.075058 268.608 
L 287.156262 241.728 
L 287.31867 295.488 
L 287.481079 268.608 
L 287.562283 295.488 
L 287.724691 241.728 
L 287.8871 268.608 
L 288.049508 268.608 
L 288.130713 295.488 
L 288.374325 241.728 
L 288.617938 295.488 
L 288.861551 241.728 
L 289.023959 295.488 
L 289.105163 241.728 
L 289.186368 295.488 
L 289.267572 268.608 
L 289.42998 295.488 
L 289.511185 241.728 
L 289.673593 268.608 
L 289.754797 268.608 
L 289.836002 295.488 
L 289.99841 241.728 
L 290.242023 295.488 
L 290.323227 295.488 
L 290.404431 241.728 
L 290.485636 268.608 
L 290.56684 241.728 
L 290.729248 268.608 
L 290.810452 241.728 
L 290.891657 295.488 
L 291.054065 241.728 
L 291.216474 268.608 
L 291.297678 268.608 
L 291.378882 295.488 
L 291.541291 241.728 
L 291.622495 268.608 
L 291.703699 241.728 
L 291.866108 268.608 
L 291.947312 268.608 
L 292.028516 295.488 
L 292.10972 268.608 
L 292.190925 295.488 
L 292.353333 268.608 
L 292.515742 268.608 
L 292.596946 241.728 
L 292.759354 268.608 
L 292.840558 241.728 
L 293.002967 295.488 
L 293.084171 241.728 
L 293.165375 268.608 
L 293.24658 241.728 
L 293.408988 268.608 
L 293.490192 268.608 
L 293.571397 241.728 
L 293.652601 295.488 
L 293.733805 268.608 
L 293.815009 295.488 
L 293.977418 268.608 
L 294.221031 268.608 
L 294.302235 295.488 
L 294.383439 268.608 
L 294.464643 295.488 
L 294.545847 241.728 
L 294.78946 295.488 
L 294.870664 241.728 
L 295.033073 268.608 
L 295.195481 241.728 
L 295.35789 268.608 
L 295.439094 241.728 
L 295.601503 295.488 
L 295.682707 268.608 
L 295.763911 295.488 
L 295.92632 268.608 
L 296.088728 268.608 
L 296.169932 295.488 
L 296.332341 268.608 
L 296.575953 268.608 
L 296.657158 241.728 
L 296.819566 295.488 
L 296.90077 268.608 
L 297.063179 295.488 
L 297.225587 295.488 
L 297.387996 268.608 
L 297.550404 295.488 
L 297.631609 295.488 
L 297.794017 241.728 
L 297.956425 268.608 
L 298.524855 268.608 
L 298.606059 241.728 
L 298.768468 295.488 
L 298.930876 268.608 
L 299.093285 268.608 
L 299.255693 295.488 
L 299.336898 241.728 
L 299.499306 268.608 
L 299.58051 268.608 
L 299.661714 241.728 
L 299.742919 268.608 
L 299.824123 241.728 
L 299.905327 268.608 
L 299.986531 241.728 
L 300.230144 295.488 
L 300.311348 295.488 
L 300.473757 268.608 
L 300.636165 268.608 
L 300.71737 241.728 
L 300.879778 268.608 
L 301.042187 268.608 
L 301.123391 295.488 
L 301.204595 241.728 
L 301.367004 268.608 
L 301.448208 268.608 
L 301.529412 295.488 
L 301.610616 268.608 
L 301.773025 295.488 
L 301.935433 241.728 
L 302.016637 295.488 
L 302.097842 241.728 
L 302.179046 295.488 
L 302.422659 241.728 
L 302.503863 295.488 
L 302.666271 241.728 
L 302.909884 295.488 
L 302.991088 295.488 
L 303.153497 241.728 
L 303.234701 295.488 
L 303.478314 241.728 
L 303.640722 268.608 
L 303.721926 268.608 
L 303.884335 295.488 
L 303.965539 214.848 
L 304.127948 295.488 
L 304.37156 214.848 
L 304.452765 295.488 
L 304.533969 268.608 
L 304.615173 268.608 
L 304.696377 295.488 
L 304.858786 268.608 
L 305.346011 268.608 
L 305.427215 295.488 
L 305.589624 268.608 
L 305.752032 295.488 
L 305.995645 241.728 
L 306.239258 295.488 
L 306.320462 295.488 
L 306.482871 241.728 
L 306.645279 295.488 
L 306.807687 268.608 
L 307.132504 268.608 
L 307.213709 241.728 
L 307.376117 295.488 
L 307.457321 241.728 
L 307.538526 295.488 
L 307.61973 241.728 
L 307.863343 295.488 
L 308.025751 268.608 
L 308.106955 268.608 
L 308.18816 241.728 
L 308.350568 268.608 
L 308.431772 241.728 
L 308.594181 268.608 
L 308.837793 268.608 
L 308.918998 241.728 
L 309.000202 268.608 
L 309.16261 241.728 
L 309.325019 268.608 
L 309.406223 241.728 
L 309.568632 268.608 
L 309.812244 268.608 
L 309.893449 295.488 
L 310.055857 241.728 
L 310.137061 268.608 
L 310.218265 241.728 
L 310.380674 295.488 
L 310.461878 241.728 
L 310.705491 295.488 
L 310.949104 241.728 
L 311.030308 241.728 
L 311.192716 268.608 
L 311.273921 268.608 
L 311.355125 241.728 
L 311.598738 295.488 
L 311.679942 241.728 
L 311.84235 268.608 
L 311.923555 241.728 
L 312.167167 295.488 
L 312.329576 268.608 
L 312.41078 268.608 
L 312.491984 295.488 
L 312.573188 241.728 
L 312.735597 268.608 
L 312.97921 268.608 
L 313.060414 295.488 
L 313.141618 241.728 
L 313.304027 295.488 
L 313.466435 268.608 
L 313.547639 295.488 
L 313.710048 241.728 
L 313.872456 268.608 
L 314.034865 268.608 
L 314.116069 241.728 
L 314.197273 268.608 
L 314.278477 241.728 
L 314.359682 295.488 
L 314.52209 241.728 
L 314.684499 268.608 
L 314.846907 268.608 
L 314.928111 241.728 
L 315.09052 268.608 
L 315.252928 268.608 
L 315.334133 241.728 
L 315.496541 268.608 
L 315.577745 241.728 
L 315.740154 268.608 
L 315.821358 268.608 
L 315.902562 295.488 
L 315.983766 268.608 
L 316.064971 295.488 
L 316.227379 241.728 
L 316.308583 268.608 
L 316.389788 241.728 
L 316.470992 295.488 
L 316.552196 241.728 
L 316.714605 295.488 
L 316.877013 241.728 
L 316.958217 241.728 
L 317.039422 268.608 
L 317.120626 241.728 
L 317.20183 295.488 
L 317.283034 241.728 
L 317.364238 268.608 
L 317.445443 241.728 
L 317.607851 268.608 
L 317.689055 268.608 
L 317.77026 295.488 
L 318.013872 241.728 
L 318.176281 241.728 
L 318.338689 295.488 
L 318.419894 241.728 
L 318.582302 268.608 
L 318.744711 268.608 
L 318.825915 241.728 
L 318.988323 295.488 
L 319.069527 241.728 
L 319.150732 295.488 
L 319.231936 241.728 
L 319.394344 268.608 
L 319.475549 268.608 
L 319.556753 295.488 
L 319.719161 241.728 
L 319.800366 268.608 
L 319.88157 241.728 
L 320.043978 268.608 
L 320.287591 268.608 
L 320.368795 241.728 
L 320.531204 295.488 
L 320.693612 241.728 
L 320.856021 295.488 
L 320.937225 214.848 
L 321.018429 241.728 
L 321.180838 295.488 
L 321.262042 268.608 
L 321.343246 295.488 
L 321.42445 268.608 
L 321.505655 295.488 
L 321.830472 214.848 
L 321.99288 295.488 
L 322.074084 268.608 
L 322.480106 268.608 
L 322.56131 295.488 
L 322.642514 241.728 
L 322.723718 295.488 
L 322.804922 268.608 
L 322.886127 295.488 
L 323.048535 268.608 
L 323.210944 268.608 
L 323.292148 241.728 
L 323.373352 295.488 
L 323.454556 241.728 
L 323.535761 295.488 
L 323.616965 241.728 
L 323.698169 295.488 
L 323.779373 268.608 
L 323.941782 295.488 
L 324.022986 295.488 
L 324.185395 268.608 
L 324.266599 295.488 
L 324.429007 268.608 
L 324.510211 295.488 
L 324.67262 241.728 
L 324.753824 268.608 
L 324.835028 241.728 
L 324.997437 268.608 
L 325.078641 268.608 
L 325.159845 295.488 
L 325.24105 241.728 
L 325.403458 268.608 
L 325.728275 268.608 
L 325.809479 295.488 
L 325.890684 241.728 
L 325.971888 268.608 
L 326.134296 241.728 
L 326.296705 268.608 
L 326.377909 241.728 
L 326.540317 268.608 
L 326.702726 268.608 
L 326.865134 295.488 
L 326.946339 241.728 
L 327.108747 295.488 
L 327.271156 268.608 
L 327.595973 268.608 
L 327.677177 241.728 
L 327.758381 268.608 
L 327.920789 241.728 
L 328.001994 295.488 
L 328.164402 268.608 
L 328.326811 295.488 
L 328.489219 268.608 
L 328.570423 268.608 
L 328.651628 241.728 
L 328.732832 268.608 
L 328.814036 241.728 
L 328.976445 268.608 
L 329.057649 268.608 
L 329.138853 295.488 
L 329.220057 241.728 
L 329.301262 295.488 
L 329.46367 268.608 
L 329.544874 268.608 
L 329.707283 241.728 
L 329.788487 241.728 
L 329.950895 295.488 
L 330.0321 241.728 
L 330.194508 268.608 
L 330.356917 268.608 
L 330.438121 295.488 
L 330.600529 241.728 
L 330.762938 295.488 
L 330.925346 268.608 
L 331.006551 268.608 
L 331.168959 295.488 
L 331.331368 241.728 
L 331.57498 295.488 
L 331.737389 295.488 
L 331.899797 268.608 
L 331.981001 295.488 
L 332.062206 268.608 
L 332.14341 295.488 
L 332.387023 241.728 
L 332.549431 295.488 
L 332.630635 241.728 
L 332.793044 268.608 
L 332.955452 268.608 
L 333.036657 295.488 
L 333.280269 241.728 
L 333.361473 268.608 
L 333.442678 241.728 
L 333.605086 295.488 
L 333.767495 241.728 
L 333.848699 295.488 
L 334.011107 268.608 
L 334.498333 268.608 
L 334.579537 241.728 
L 334.741946 295.488 
L 334.82315 295.488 
L 334.904354 241.728 
L 335.066762 295.488 
L 335.229171 241.728 
L 335.391579 268.608 
L 335.472784 268.608 
L 335.553988 241.728 
L 335.797601 295.488 
L 335.960009 295.488 
L 336.122418 241.728 
L 336.203622 295.488 
L 336.284826 241.728 
L 336.447235 295.488 
L 336.609643 268.608 
L 336.772051 295.488 
L 337.015664 241.728 
L 337.178073 241.728 
L 337.340481 295.488 
L 337.421685 268.608 
L 337.50289 295.488 
L 337.665298 241.728 
L 337.827707 241.728 
L 337.990115 295.488 
L 338.071319 268.608 
L 338.152524 295.488 
L 338.396136 241.728 
L 338.47734 241.728 
L 338.558545 295.488 
L 338.720953 268.608 
L 338.964566 268.608 
L 339.04577 241.728 
L 339.126974 295.488 
L 339.289383 268.608 
L 339.451791 268.608 
L 339.532996 241.728 
L 339.6142 295.488 
L 339.695404 241.728 
L 339.776608 295.488 
L 339.939017 268.608 
L 340.020221 295.488 
L 340.101425 268.608 
L 340.182629 295.488 
L 340.263834 268.608 
L 340.426242 295.488 
L 340.588651 241.728 
L 340.832263 295.488 
L 340.994672 268.608 
L 341.075876 268.608 
L 341.238285 295.488 
L 341.319489 268.608 
L 341.400693 295.488 
L 341.481897 241.728 
L 341.563102 295.488 
L 341.72551 241.728 
L 341.806714 268.608 
L 341.887919 241.728 
L 341.969123 295.488 
L 342.131531 268.608 
L 342.29394 268.608 
L 342.375144 295.488 
L 342.537552 241.728 
L 342.618757 295.488 
L 342.781165 241.728 
L 342.943574 295.488 
L 343.105982 268.608 
L 343.187186 268.608 
L 343.268391 295.488 
L 343.349595 241.728 
L 343.593208 295.488 
L 343.755616 268.608 
L 343.83682 268.608 
L 343.999229 295.488 
L 344.161637 268.608 
L 344.242841 268.608 
L 344.324046 295.488 
L 344.486454 268.608 
L 344.648863 268.608 
L 344.730067 241.728 
L 344.892475 295.488 
L 344.97368 268.608 
L 345.054884 295.488 
L 345.136088 241.728 
L 345.217292 295.488 
L 345.298497 268.608 
L 345.460905 295.488 
L 345.542109 241.728 
L 345.704518 295.488 
L 345.785722 295.488 
L 345.94813 241.728 
L 346.110539 268.608 
L 346.191743 268.608 
L 346.272947 295.488 
L 346.435356 268.608 
L 346.760173 268.608 
L 346.922581 295.488 
L 347.08499 268.608 
L 347.166194 295.488 
L 347.328602 268.608 
L 347.409807 295.488 
L 347.653419 241.728 
L 347.734624 241.728 
L 347.897032 295.488 
L 348.140645 241.728 
L 348.303053 295.488 
L 348.384258 241.728 
L 348.465462 268.608 
L 348.62787 214.848 
L 348.790279 268.608 
L 348.871483 295.488 
L 349.033891 268.608 
L 349.1963 268.608 
L 349.277504 241.728 
L 349.439913 268.608 
L 349.521117 268.608 
L 349.602321 295.488 
L 349.76473 241.728 
L 349.927138 295.488 
L 350.089547 268.608 
L 350.251955 295.488 
L 350.414364 268.608 
L 350.657976 268.608 
L 350.820385 295.488 
L 350.982793 268.608 
L 351.063997 295.488 
L 351.145202 241.728 
L 351.30761 268.608 
L 351.388814 241.728 
L 351.551223 268.608 
L 351.713631 268.608 
L 351.794836 241.728 
L 351.957244 268.608 
L 352.119653 268.608 
L 352.200857 295.488 
L 352.282061 241.728 
L 352.44447 295.488 
L 352.525674 268.608 
L 352.688082 295.488 
L 352.850491 295.488 
L 352.931695 268.608 
L 353.094103 295.488 
L 353.175308 241.728 
L 353.337716 295.488 
L 353.41892 268.608 
L 353.500125 295.488 
L 353.581329 241.728 
L 353.662533 295.488 
L 353.824942 268.608 
L 353.98735 295.488 
L 354.068554 295.488 
L 354.149759 268.608 
L 354.312167 295.488 
L 354.393371 295.488 
L 354.55578 268.608 
L 354.799392 268.608 
L 354.961801 241.728 
L 355.043005 268.608 
L 355.124209 241.728 
L 355.205414 295.488 
L 355.367822 268.608 
L 355.449026 268.608 
L 355.530231 295.488 
L 355.611435 268.608 
L 355.773843 295.488 
L 355.936252 268.608 
L 356.179864 268.608 
L 356.261069 241.728 
L 356.504681 295.488 
L 356.585886 295.488 
L 356.66709 241.728 
L 356.748294 295.488 
L 356.829498 241.728 
L 356.991907 268.608 
L 357.23552 268.608 
L 357.316724 295.488 
L 357.397928 268.608 
L 357.479132 295.488 
L 357.560337 241.728 
L 357.641541 295.488 
L 357.722745 241.728 
L 357.885153 295.488 
L 357.966358 241.728 
L 358.047562 268.608 
L 358.128766 241.728 
L 358.291175 268.608 
L 358.372379 268.608 
L 358.453583 295.488 
L 358.534787 241.728 
L 358.697196 268.608 
L 358.7784 268.608 
L 358.940809 295.488 
L 359.103217 268.608 
L 359.265626 268.608 
L 359.34683 295.488 
L 359.509238 268.608 
L 359.590442 268.608 
L 359.671647 295.488 
L 359.752851 268.608 
L 359.834055 295.488 
L 359.996464 241.728 
L 360.158872 268.608 
L 360.240076 268.608 
L 360.321281 295.488 
L 360.483689 268.608 
L 360.646098 295.488 
L 360.88971 295.488 
L 361.052119 268.608 
L 361.133323 295.488 
L 361.214527 268.608 
L 361.295732 295.488 
L 361.376936 268.608 
L 361.45814 295.488 
L 361.701753 241.728 
L 361.782957 268.608 
L 361.864161 241.728 
L 361.945365 295.488 
L 362.107774 241.728 
L 362.188978 268.608 
L 362.270182 241.728 
L 362.351387 295.488 
L 362.594999 241.728 
L 362.676204 241.728 
L 362.919816 295.488 
L 363.001021 241.728 
L 363.082225 268.608 
L 363.163429 241.728 
L 363.244633 295.488 
L 363.325837 241.728 
L 363.488246 268.608 
L 363.56945 268.608 
L 363.731859 241.728 
L 363.975471 295.488 
L 364.13788 241.728 
L 364.219084 295.488 
L 364.381493 241.728 
L 364.543901 268.608 
L 364.70631 268.608 
L 364.787514 295.488 
L 364.868718 241.728 
L 365.112331 295.488 
L 365.193535 268.608 
L 365.355943 295.488 
L 365.437148 241.728 
L 365.599556 295.488 
L 365.68076 268.608 
L 365.761965 295.488 
L 365.924373 268.608 
L 366.167986 268.608 
L 366.24919 241.728 
L 366.411599 295.488 
L 366.574007 268.608 
L 366.655211 268.608 
L 366.736415 295.488 
L 366.81762 268.608 
L 366.898824 295.488 
L 366.980028 268.608 
L 367.061232 295.488 
L 367.142437 268.608 
L 367.304845 295.488 
L 367.467254 268.608 
L 367.629662 268.608 
L 367.710866 241.728 
L 367.873275 295.488 
L 367.954479 241.728 
L 368.035683 268.608 
L 368.116888 241.728 
L 368.279296 268.608 
L 368.3605 241.728 
L 368.522909 268.608 
L 368.685317 268.608 
L 368.766521 295.488 
L 368.92893 241.728 
L 369.091338 295.488 
L 369.172543 268.608 
L 369.334951 295.488 
L 369.49736 268.608 
L 369.578564 268.608 
L 369.659768 295.488 
L 369.822177 268.608 
L 369.903381 295.488 
L 369.984585 241.728 
L 370.065789 268.608 
L 370.228198 214.848 
L 370.390606 268.608 
L 370.47181 268.608 
L 370.634219 241.728 
L 370.796627 295.488 
L 370.959036 268.608 
L 371.202649 268.608 
L 371.283853 241.728 
L 371.365057 268.608 
L 371.446261 241.728 
L 371.527466 295.488 
L 371.60867 241.728 
L 371.771078 295.488 
L 371.852283 268.608 
L 372.014691 295.488 
L 372.177099 268.608 
L 372.258304 268.608 
L 372.339508 295.488 
L 372.501916 268.608 
L 372.664325 268.608 
L 372.745529 295.488 
L 372.989142 241.728 
L 373.15155 268.608 
L 373.232755 241.728 
L 373.395163 295.488 
L 373.476367 268.608 
L 373.557572 295.488 
L 373.638776 241.728 
L 373.71998 295.488 
L 373.801184 241.728 
L 373.963593 295.488 
L 374.126001 241.728 
L 374.28841 295.488 
L 374.450818 268.608 
L 374.613227 268.608 
L 374.694431 241.728 
L 374.775635 295.488 
L 374.938044 268.608 
L 375.181656 268.608 
L 375.344065 241.728 
L 375.425269 295.488 
L 375.587677 268.608 
L 376.074903 268.608 
L 376.156107 295.488 
L 376.237311 268.608 
L 376.318516 295.488 
L 376.39972 241.728 
L 376.480924 295.488 
L 376.643333 268.608 
L 376.96815 268.608 
L 377.049354 241.728 
L 377.211762 268.608 
L 377.292966 268.608 
L 377.374171 241.728 
L 377.536579 268.608 
L 377.780192 268.608 
L 377.861396 241.728 
L 378.023805 268.608 
L 378.186213 268.608 
L 378.267417 295.488 
L 378.429826 241.728 
L 378.51103 268.608 
L 378.592234 241.728 
L 378.754643 295.488 
L 378.835847 268.608 
L 378.998255 295.488 
L 379.07946 241.728 
L 379.241868 268.608 
L 379.404277 268.608 
L 379.485481 295.488 
L 379.647889 268.608 
L 379.729094 268.608 
L 379.810298 241.728 
L 379.891502 268.608 
L 379.972706 241.728 
L 380.135115 295.488 
L 380.297523 268.608 
L 380.459932 295.488 
L 380.62234 268.608 
L 380.703544 295.488 
L 380.947157 241.728 
L 381.109566 268.608 
L 381.19077 241.728 
L 381.353178 295.488 
L 381.434383 295.488 
L 381.515587 268.608 
L 381.677995 295.488 
L 381.7592 295.488 
L 381.840404 268.608 
L 382.002812 295.488 
L 382.165221 268.608 
L 382.246425 268.608 
L 382.327629 241.728 
L 382.408834 295.488 
L 382.490038 241.728 
L 382.571242 295.488 
L 382.814855 241.728 
L 382.896059 295.488 
L 382.977263 241.728 
L 383.058467 268.608 
L 383.139672 241.728 
L 383.383284 295.488 
L 383.464489 295.488 
L 383.545693 268.608 
L 383.708101 295.488 
L 383.789306 295.488 
L 383.951714 268.608 
L 384.114123 268.608 
L 384.195327 295.488 
L 384.357735 268.608 
L 384.438939 268.608 
L 384.520144 295.488 
L 384.601348 241.728 
L 384.682552 295.488 
L 384.926165 241.728 
L 385.007369 295.488 
L 385.250982 241.728 
L 385.41339 268.608 
L 385.494595 268.608 
L 385.575799 295.488 
L 385.657003 241.728 
L 385.900616 295.488 
L 385.98182 241.728 
L 386.144228 295.488 
L 386.306637 241.728 
L 386.55025 295.488 
L 386.631454 295.488 
L 386.712658 241.728 
L 386.875067 295.488 
L 386.956271 268.608 
L 387.037475 295.488 
L 387.199884 268.608 
L 387.281088 295.488 
L 387.362292 241.728 
L 387.605905 295.488 
L 387.768313 268.608 
L 387.930722 268.608 
L 388.011926 241.728 
L 388.09313 295.488 
L 388.174334 268.608 
L 388.336743 295.488 
L 388.417947 295.488 
L 388.66156 241.728 
L 388.823968 268.608 
L 388.986377 241.728 
L 389.067581 295.488 
L 389.148785 268.608 
L 389.22999 295.488 
L 389.392398 241.728 
L 389.473602 295.488 
L 389.554806 241.728 
L 389.717215 268.608 
L 389.798419 268.608 
L 389.879623 241.728 
L 390.123236 295.488 
L 390.20444 295.488 
L 390.448053 241.728 
L 390.691666 295.488 
L 390.77287 241.728 
L 390.854074 295.488 
L 390.935279 241.728 
L 391.178891 295.488 
L 391.260096 268.608 
L 391.3413 295.488 
L 391.584912 241.728 
L 391.747321 268.608 
L 391.828525 241.728 
L 392.072138 295.488 
L 392.153342 268.608 
L 392.234546 295.488 
L 392.315751 241.728 
L 392.396955 295.488 
L 392.478159 241.728 
L 392.640568 295.488 
L 392.721772 268.608 
L 392.802976 295.488 
L 392.88418 268.608 
L 392.965385 295.488 
L 393.127793 214.848 
L 393.290201 268.608 
L 393.371406 268.608 
L 393.45261 295.488 
L 393.615018 268.608 
L 393.696223 295.488 
L 393.858631 268.608 
L 393.939835 295.488 
L 394.102244 241.728 
L 394.183448 295.488 
L 394.264652 241.728 
L 394.345857 268.608 
L 394.427061 241.728 
L 394.508265 268.608 
L 394.589469 241.728 
L 394.670674 295.488 
L 394.914286 241.728 
L 395.157899 295.488 
L 395.239103 295.488 
L 395.320307 241.728 
L 395.401512 295.488 
L 395.56392 268.608 
L 395.726329 295.488 
L 395.807533 268.608 
L 395.888737 295.488 
L 396.051146 268.608 
L 396.13235 268.608 
L 396.213554 295.488 
L 396.375963 268.608 
L 396.457167 268.608 
L 396.538371 295.488 
L 396.619575 268.608 
L 396.700779 295.488 
L 396.944392 241.728 
L 397.188005 295.488 
L 397.350413 268.608 
L 397.431618 295.488 
L 397.67523 241.728 
L 397.837639 295.488 
L 398.000047 268.608 
L 398.081252 268.608 
L 398.162456 295.488 
L 398.24366 241.728 
L 398.406068 268.608 
L 398.487273 241.728 
L 398.487273 241.728 
" clip-path="url(#pbeb1b49040)" style="fill: none; stroke: #1f77b4; stroke-width: 1.5; stroke-linecap: square"/>
   </g>
   <g id="patch_3">
    <path d="M 57.6 307.584 
L 57.6 41.472 
" style="fill: none; stroke: #000000; stroke-width: 0.8; stroke-linejoin: miter; stroke-linecap: square"/>
   </g>
   <g id="patch_4">
    <path d="M 414.72 307.584 
L 414.72 41.472 
" style="fill: none; stroke: #000000; stroke-width: 0.8; stroke-linejoin: miter; stroke-linecap: square"/>
   </g>
   <g id="patch_5">
    <path d="M 57.6 307.584 
L 414.72 307.584 
" style="fill: none; stroke: #000000; stroke-width: 0.8; stroke-linejoin: miter; stroke-linecap: square"/>
   </g>
   <g id="patch_6">
    <path d="M 57.6 41.472 
L 414.72 41.472 
" style="fill: none; stroke: #000000; stroke-width: 0.8; stroke-linejoin: miter; stroke-linecap: square"/>
   </g>
   <g id="text_17">
    <!-- Training progress -->
    <g transform="translate(184.686563 35.472) scale(0.12 -0.12)">
     <defs>
      <path id="DejaVuSans-54" d="M -19 4666 
L 3928 4666 
L 3928 4134 
L 2272 4134 
L 2272 0 
L 1638 0 
L 1638 4134 
L -19 4134 
L -19 4666 
z
" transform="scale(0.015625)"/>
     </defs>
     <use xlink:href="#DejaVuSans-54"/>
     <use xlink:href="#DejaVuSans-72" x="46.333984"/>
     <use xlink:href="#DejaVuSans-61" x="87.447266"/>
     <use xlink:href="#DejaVuSans-69" x="148.726562"/>
     <use xlink:href="#DejaVuSans-6e" x="176.509766"/>
     <use xlink:href="#DejaVuSans-69" x="239.888672"/>
     <use xlink:href="#DejaVuSans-6e" x="267.671875"/>
     <use xlink:href="#DejaVuSans-67" x="331.050781"/>
     <use xlink:href="#DejaVuSans-20" x="394.527344"/>
     <use xlink:href="#DejaVuSans-70" x="426.314453"/>
     <use xlink:href="#DejaVuSans-72" x="489.791016"/>
     <use xlink:href="#DejaVuSans-6f" x="528.654297"/>
     <use xlink:href="#DejaVuSans-67" x="589.835938"/>
     <use xlink:href="#DejaVuSans-72" x="653.3125"/>
     <use xlink:href="#DejaVuSans-65" x="692.175781"/>
     <use xlink:href="#DejaVuSans-73" x="753.699219"/>
     <use xlink:href="#DejaVuSans-73" x="805.798828"/>
    </g>
   </g>
  </g>
 </g>
 <defs>
  <clipPath id="pbeb1b49040">
   <rect x="57.6" y="41.472" width="357.12" height="266.112"/>
  </clipPath>
 </defs>
</svg>
