<?xml version="1.0" encoding="utf-8" standalone="no"?>
<!DOCTYPE svg PUBLIC "-//W3C//DTD SVG 1.1//EN"
  "http://www.w3.org/Graphics/SVG/1.1/DTD/svg11.dtd">
<svg xmlns:xlink="http://www.w3.org/1999/xlink" width="460.8pt" height="345.6pt" viewBox="0 0 460.8 345.6" xmlns="http://www.w3.org/2000/svg" version="1.1">
 <metadata>
  <rdf:RDF xmlns:dc="http://purl.org/dc/elements/1.1/" xmlns:cc="http://creativecommons.org/ns#" xmlns:rdf="http://www.w3.org/1999/02/22-rdf-syntax-ns#">
   <cc:Work>
    <dc:type rdf:resource="http://purl.org/dc/dcmitype/StillImage"/>
    <dc:date>2023-05-03T18:33:05.409262</dc:date>
    <dc:format>image/svg+xml</dc:format>
    <dc:creator>
     <cc:Agent>
      <dc:title>Matplotlib v3.6.2, https://matplotlib.org/</dc:title>
     </cc:Agent>
    </dc:creator>
   </cc:Work>
  </rdf:RDF>
 </metadata>
 <defs>
  <style type="text/css">*{stroke-linejoin: round; stroke-linecap: butt}</style>
 </defs>
 <g id="figure_1">
  <g id="patch_1">
   <path d="M 0 345.6 
L 460.8 345.6 
L 460.8 0 
L 0 0 
z
" style="fill: #ffffff"/>
  </g>
  <g id="axes_1">
   <g id="patch_2">
    <path d="M 57.6 307.584 
L 414.72 307.584 
L 414.72 41.472 
L 57.6 41.472 
z
" style="fill: #ffffff"/>
   </g>
   <g id="matplotlib.axis_1">
    <g id="xtick_1">
     <g id="line2d_1">
      <defs>
       <path id="m631df32504" d="M 0 0 
L 0 3.5 
" style="stroke: #000000; stroke-width: 0.8"/>
      </defs>
      <g>
       <use xlink:href="#m631df32504" x="73.832727" y="307.584" style="stroke: #000000; stroke-width: 0.8"/>
      </g>
     </g>
     <g id="text_1">
      <!-- 0 -->
      <g transform="translate(70.651477 322.182437) scale(0.1 -0.1)">
       <defs>
        <path id="DejaVuSans-30" d="M 2034 4250 
Q 1547 4250 1301 3770 
Q 1056 3291 1056 2328 
Q 1056 1369 1301 889 
Q 1547 409 2034 409 
Q 2525 409 2770 889 
Q 3016 1369 3016 2328 
Q 3016 3291 2770 3770 
Q 2525 4250 2034 4250 
z
M 2034 4750 
Q 2819 4750 3233 4129 
Q 3647 3509 3647 2328 
Q 3647 1150 3233 529 
Q 2819 -91 2034 -91 
Q 1250 -91 836 529 
Q 422 1150 422 2328 
Q 422 3509 836 4129 
Q 1250 4750 2034 4750 
z
" transform="scale(0.015625)"/>
       </defs>
       <use xlink:href="#DejaVuSans-30"/>
      </g>
     </g>
    </g>
    <g id="xtick_2">
     <g id="line2d_2">
      <g>
       <use xlink:href="#m631df32504" x="114.424693" y="307.584" style="stroke: #000000; stroke-width: 0.8"/>
      </g>
     </g>
     <g id="text_2">
      <!-- 500 -->
      <g transform="translate(104.880943 322.182437) scale(0.1 -0.1)">
       <defs>
        <path id="DejaVuSans-35" d="M 691 4666 
L 3169 4666 
L 3169 4134 
L 1269 4134 
L 1269 2991 
Q 1406 3038 1543 3061 
Q 1681 3084 1819 3084 
Q 2600 3084 3056 2656 
Q 3513 2228 3513 1497 
Q 3513 744 3044 326 
Q 2575 -91 1722 -91 
Q 1428 -91 1123 -41 
Q 819 9 494 109 
L 494 744 
Q 775 591 1075 516 
Q 1375 441 1709 441 
Q 2250 441 2565 725 
Q 2881 1009 2881 1497 
Q 2881 1984 2565 2268 
Q 2250 2553 1709 2553 
Q 1456 2553 1204 2497 
Q 953 2441 691 2322 
L 691 4666 
z
" transform="scale(0.015625)"/>
       </defs>
       <use xlink:href="#DejaVuSans-35"/>
       <use xlink:href="#DejaVuSans-30" x="63.623047"/>
       <use xlink:href="#DejaVuSans-30" x="127.246094"/>
      </g>
     </g>
    </g>
    <g id="xtick_3">
     <g id="line2d_3">
      <g>
       <use xlink:href="#m631df32504" x="155.01666" y="307.584" style="stroke: #000000; stroke-width: 0.8"/>
      </g>
     </g>
     <g id="text_3">
      <!-- 1000 -->
      <g transform="translate(142.29166 322.182437) scale(0.1 -0.1)">
       <defs>
        <path id="DejaVuSans-31" d="M 794 531 
L 1825 531 
L 1825 4091 
L 703 3866 
L 703 4441 
L 1819 4666 
L 2450 4666 
L 2450 531 
L 3481 531 
L 3481 0 
L 794 0 
L 794 531 
z
" transform="scale(0.015625)"/>
       </defs>
       <use xlink:href="#DejaVuSans-31"/>
       <use xlink:href="#DejaVuSans-30" x="63.623047"/>
       <use xlink:href="#DejaVuSans-30" x="127.246094"/>
       <use xlink:href="#DejaVuSans-30" x="190.869141"/>
      </g>
     </g>
    </g>
    <g id="xtick_4">
     <g id="line2d_4">
      <g>
       <use xlink:href="#m631df32504" x="195.608626" y="307.584" style="stroke: #000000; stroke-width: 0.8"/>
      </g>
     </g>
     <g id="text_4">
      <!-- 1500 -->
      <g transform="translate(182.883626 322.182437) scale(0.1 -0.1)">
       <use xlink:href="#DejaVuSans-31"/>
       <use xlink:href="#DejaVuSans-35" x="63.623047"/>
       <use xlink:href="#DejaVuSans-30" x="127.246094"/>
       <use xlink:href="#DejaVuSans-30" x="190.869141"/>
      </g>
     </g>
    </g>
    <g id="xtick_5">
     <g id="line2d_5">
      <g>
       <use xlink:href="#m631df32504" x="236.200592" y="307.584" style="stroke: #000000; stroke-width: 0.8"/>
      </g>
     </g>
     <g id="text_5">
      <!-- 2000 -->
      <g transform="translate(223.475592 322.182437) scale(0.1 -0.1)">
       <defs>
        <path id="DejaVuSans-32" d="M 1228 531 
L 3431 531 
L 3431 0 
L 469 0 
L 469 531 
Q 828 903 1448 1529 
Q 2069 2156 2228 2338 
Q 2531 2678 2651 2914 
Q 2772 3150 2772 3378 
Q 2772 3750 2511 3984 
Q 2250 4219 1831 4219 
Q 1534 4219 1204 4116 
Q 875 4013 500 3803 
L 500 4441 
Q 881 4594 1212 4672 
Q 1544 4750 1819 4750 
Q 2544 4750 2975 4387 
Q 3406 4025 3406 3419 
Q 3406 3131 3298 2873 
Q 3191 2616 2906 2266 
Q 2828 2175 2409 1742 
Q 1991 1309 1228 531 
z
" transform="scale(0.015625)"/>
       </defs>
       <use xlink:href="#DejaVuSans-32"/>
       <use xlink:href="#DejaVuSans-30" x="63.623047"/>
       <use xlink:href="#DejaVuSans-30" x="127.246094"/>
       <use xlink:href="#DejaVuSans-30" x="190.869141"/>
      </g>
     </g>
    </g>
    <g id="xtick_6">
     <g id="line2d_6">
      <g>
       <use xlink:href="#m631df32504" x="276.792558" y="307.584" style="stroke: #000000; stroke-width: 0.8"/>
      </g>
     </g>
     <g id="text_6">
      <!-- 2500 -->
      <g transform="translate(264.067558 322.182437) scale(0.1 -0.1)">
       <use xlink:href="#DejaVuSans-32"/>
       <use xlink:href="#DejaVuSans-35" x="63.623047"/>
       <use xlink:href="#DejaVuSans-30" x="127.246094"/>
       <use xlink:href="#DejaVuSans-30" x="190.869141"/>
      </g>
     </g>
    </g>
    <g id="xtick_7">
     <g id="line2d_7">
      <g>
       <use xlink:href="#m631df32504" x="317.384524" y="307.584" style="stroke: #000000; stroke-width: 0.8"/>
      </g>
     </g>
     <g id="text_7">
      <!-- 3000 -->
      <g transform="translate(304.659524 322.182437) scale(0.1 -0.1)">
       <defs>
        <path id="DejaVuSans-33" d="M 2597 2516 
Q 3050 2419 3304 2112 
Q 3559 1806 3559 1356 
Q 3559 666 3084 287 
Q 2609 -91 1734 -91 
Q 1441 -91 1130 -33 
Q 819 25 488 141 
L 488 750 
Q 750 597 1062 519 
Q 1375 441 1716 441 
Q 2309 441 2620 675 
Q 2931 909 2931 1356 
Q 2931 1769 2642 2001 
Q 2353 2234 1838 2234 
L 1294 2234 
L 1294 2753 
L 1863 2753 
Q 2328 2753 2575 2939 
Q 2822 3125 2822 3475 
Q 2822 3834 2567 4026 
Q 2313 4219 1838 4219 
Q 1578 4219 1281 4162 
Q 984 4106 628 3988 
L 628 4550 
Q 988 4650 1302 4700 
Q 1616 4750 1894 4750 
Q 2613 4750 3031 4423 
Q 3450 4097 3450 3541 
Q 3450 3153 3228 2886 
Q 3006 2619 2597 2516 
z
" transform="scale(0.015625)"/>
       </defs>
       <use xlink:href="#DejaVuSans-33"/>
       <use xlink:href="#DejaVuSans-30" x="63.623047"/>
       <use xlink:href="#DejaVuSans-30" x="127.246094"/>
       <use xlink:href="#DejaVuSans-30" x="190.869141"/>
      </g>
     </g>
    </g>
    <g id="xtick_8">
     <g id="line2d_8">
      <g>
       <use xlink:href="#m631df32504" x="357.97649" y="307.584" style="stroke: #000000; stroke-width: 0.8"/>
      </g>
     </g>
     <g id="text_8">
      <!-- 3500 -->
      <g transform="translate(345.25149 322.182437) scale(0.1 -0.1)">
       <use xlink:href="#DejaVuSans-33"/>
       <use xlink:href="#DejaVuSans-35" x="63.623047"/>
       <use xlink:href="#DejaVuSans-30" x="127.246094"/>
       <use xlink:href="#DejaVuSans-30" x="190.869141"/>
      </g>
     </g>
    </g>
    <g id="xtick_9">
     <g id="line2d_9">
      <g>
       <use xlink:href="#m631df32504" x="398.568457" y="307.584" style="stroke: #000000; stroke-width: 0.8"/>
      </g>
     </g>
     <g id="text_9">
      <!-- 4000 -->
      <g transform="translate(385.843457 322.182437) scale(0.1 -0.1)">
       <defs>
        <path id="DejaVuSans-34" d="M 2419 4116 
L 825 1625 
L 2419 1625 
L 2419 4116 
z
M 2253 4666 
L 3047 4666 
L 3047 1625 
L 3713 1625 
L 3713 1100 
L 3047 1100 
L 3047 0 
L 2419 0 
L 2419 1100 
L 313 1100 
L 313 1709 
L 2253 4666 
z
" transform="scale(0.015625)"/>
       </defs>
       <use xlink:href="#DejaVuSans-34"/>
       <use xlink:href="#DejaVuSans-30" x="63.623047"/>
       <use xlink:href="#DejaVuSans-30" x="127.246094"/>
       <use xlink:href="#DejaVuSans-30" x="190.869141"/>
      </g>
     </g>
    </g>
    <g id="text_10">
     <!-- Image shown -->
     <g transform="translate(202.820156 335.860562) scale(0.1 -0.1)">
      <defs>
       <path id="DejaVuSans-49" d="M 628 4666 
L 1259 4666 
L 1259 0 
L 628 0 
L 628 4666 
z
" transform="scale(0.015625)"/>
       <path id="DejaVuSans-6d" d="M 3328 2828 
Q 3544 3216 3844 3400 
Q 4144 3584 4550 3584 
Q 5097 3584 5394 3201 
Q 5691 2819 5691 2113 
L 5691 0 
L 5113 0 
L 5113 2094 
Q 5113 2597 4934 2840 
Q 4756 3084 4391 3084 
Q 3944 3084 3684 2787 
Q 3425 2491 3425 1978 
L 3425 0 
L 2847 0 
L 2847 2094 
Q 2847 2600 2669 2842 
Q 2491 3084 2119 3084 
Q 1678 3084 1418 2786 
Q 1159 2488 1159 1978 
L 1159 0 
L 581 0 
L 581 3500 
L 1159 3500 
L 1159 2956 
Q 1356 3278 1631 3431 
Q 1906 3584 2284 3584 
Q 2666 3584 2933 3390 
Q 3200 3197 3328 2828 
z
" transform="scale(0.015625)"/>
       <path id="DejaVuSans-61" d="M 2194 1759 
Q 1497 1759 1228 1600 
Q 959 1441 959 1056 
Q 959 750 1161 570 
Q 1363 391 1709 391 
Q 2188 391 2477 730 
Q 2766 1069 2766 1631 
L 2766 1759 
L 2194 1759 
z
M 3341 1997 
L 3341 0 
L 2766 0 
L 2766 531 
Q 2569 213 2275 61 
Q 1981 -91 1556 -91 
Q 1019 -91 701 211 
Q 384 513 384 1019 
Q 384 1609 779 1909 
Q 1175 2209 1959 2209 
L 2766 2209 
L 2766 2266 
Q 2766 2663 2505 2880 
Q 2244 3097 1772 3097 
Q 1472 3097 1187 3025 
Q 903 2953 641 2809 
L 641 3341 
Q 956 3463 1253 3523 
Q 1550 3584 1831 3584 
Q 2591 3584 2966 3190 
Q 3341 2797 3341 1997 
z
" transform="scale(0.015625)"/>
       <path id="DejaVuSans-67" d="M 2906 1791 
Q 2906 2416 2648 2759 
Q 2391 3103 1925 3103 
Q 1463 3103 1205 2759 
Q 947 2416 947 1791 
Q 947 1169 1205 825 
Q 1463 481 1925 481 
Q 2391 481 2648 825 
Q 2906 1169 2906 1791 
z
M 3481 434 
Q 3481 -459 3084 -895 
Q 2688 -1331 1869 -1331 
Q 1566 -1331 1297 -1286 
Q 1028 -1241 775 -1147 
L 775 -588 
Q 1028 -725 1275 -790 
Q 1522 -856 1778 -856 
Q 2344 -856 2625 -561 
Q 2906 -266 2906 331 
L 2906 616 
Q 2728 306 2450 153 
Q 2172 0 1784 0 
Q 1141 0 747 490 
Q 353 981 353 1791 
Q 353 2603 747 3093 
Q 1141 3584 1784 3584 
Q 2172 3584 2450 3431 
Q 2728 3278 2906 2969 
L 2906 3500 
L 3481 3500 
L 3481 434 
z
" transform="scale(0.015625)"/>
       <path id="DejaVuSans-65" d="M 3597 1894 
L 3597 1613 
L 953 1613 
Q 991 1019 1311 708 
Q 1631 397 2203 397 
Q 2534 397 2845 478 
Q 3156 559 3463 722 
L 3463 178 
Q 3153 47 2828 -22 
Q 2503 -91 2169 -91 
Q 1331 -91 842 396 
Q 353 884 353 1716 
Q 353 2575 817 3079 
Q 1281 3584 2069 3584 
Q 2775 3584 3186 3129 
Q 3597 2675 3597 1894 
z
M 3022 2063 
Q 3016 2534 2758 2815 
Q 2500 3097 2075 3097 
Q 1594 3097 1305 2825 
Q 1016 2553 972 2059 
L 3022 2063 
z
" transform="scale(0.015625)"/>
       <path id="DejaVuSans-20" transform="scale(0.015625)"/>
       <path id="DejaVuSans-73" d="M 2834 3397 
L 2834 2853 
Q 2591 2978 2328 3040 
Q 2066 3103 1784 3103 
Q 1356 3103 1142 2972 
Q 928 2841 928 2578 
Q 928 2378 1081 2264 
Q 1234 2150 1697 2047 
L 1894 2003 
Q 2506 1872 2764 1633 
Q 3022 1394 3022 966 
Q 3022 478 2636 193 
Q 2250 -91 1575 -91 
Q 1294 -91 989 -36 
Q 684 19 347 128 
L 347 722 
Q 666 556 975 473 
Q 1284 391 1588 391 
Q 1994 391 2212 530 
Q 2431 669 2431 922 
Q 2431 1156 2273 1281 
Q 2116 1406 1581 1522 
L 1381 1569 
Q 847 1681 609 1914 
Q 372 2147 372 2553 
Q 372 3047 722 3315 
Q 1072 3584 1716 3584 
Q 2034 3584 2315 3537 
Q 2597 3491 2834 3397 
z
" transform="scale(0.015625)"/>
       <path id="DejaVuSans-68" d="M 3513 2113 
L 3513 0 
L 2938 0 
L 2938 2094 
Q 2938 2591 2744 2837 
Q 2550 3084 2163 3084 
Q 1697 3084 1428 2787 
Q 1159 2491 1159 1978 
L 1159 0 
L 581 0 
L 581 4863 
L 1159 4863 
L 1159 2956 
Q 1366 3272 1645 3428 
Q 1925 3584 2291 3584 
Q 2894 3584 3203 3211 
Q 3513 2838 3513 2113 
z
" transform="scale(0.015625)"/>
       <path id="DejaVuSans-6f" d="M 1959 3097 
Q 1497 3097 1228 2736 
Q 959 2375 959 1747 
Q 959 1119 1226 758 
Q 1494 397 1959 397 
Q 2419 397 2687 759 
Q 2956 1122 2956 1747 
Q 2956 2369 2687 2733 
Q 2419 3097 1959 3097 
z
M 1959 3584 
Q 2709 3584 3137 3096 
Q 3566 2609 3566 1747 
Q 3566 888 3137 398 
Q 2709 -91 1959 -91 
Q 1206 -91 779 398 
Q 353 888 353 1747 
Q 353 2609 779 3096 
Q 1206 3584 1959 3584 
z
" transform="scale(0.015625)"/>
       <path id="DejaVuSans-77" d="M 269 3500 
L 844 3500 
L 1563 769 
L 2278 3500 
L 2956 3500 
L 3675 769 
L 4391 3500 
L 4966 3500 
L 4050 0 
L 3372 0 
L 2619 2869 
L 1863 0 
L 1184 0 
L 269 3500 
z
" transform="scale(0.015625)"/>
       <path id="DejaVuSans-6e" d="M 3513 2113 
L 3513 0 
L 2938 0 
L 2938 2094 
Q 2938 2591 2744 2837 
Q 2550 3084 2163 3084 
Q 1697 3084 1428 2787 
Q 1159 2491 1159 1978 
L 1159 0 
L 581 0 
L 581 3500 
L 1159 3500 
L 1159 2956 
Q 1366 3272 1645 3428 
Q 1925 3584 2291 3584 
Q 2894 3584 3203 3211 
Q 3513 2838 3513 2113 
z
" transform="scale(0.015625)"/>
      </defs>
      <use xlink:href="#DejaVuSans-49"/>
      <use xlink:href="#DejaVuSans-6d" x="29.492188"/>
      <use xlink:href="#DejaVuSans-61" x="126.904297"/>
      <use xlink:href="#DejaVuSans-67" x="188.183594"/>
      <use xlink:href="#DejaVuSans-65" x="251.660156"/>
      <use xlink:href="#DejaVuSans-20" x="313.183594"/>
      <use xlink:href="#DejaVuSans-73" x="344.970703"/>
      <use xlink:href="#DejaVuSans-68" x="397.070312"/>
      <use xlink:href="#DejaVuSans-6f" x="460.449219"/>
      <use xlink:href="#DejaVuSans-77" x="521.630859"/>
      <use xlink:href="#DejaVuSans-6e" x="603.417969"/>
     </g>
    </g>
   </g>
   <g id="matplotlib.axis_2">
    <g id="ytick_1">
     <g id="line2d_10">
      <defs>
       <path id="m7a2336c18a" d="M 0 0 
L -3.5 0 
" style="stroke: #000000; stroke-width: 0.8"/>
      </defs>
      <g>
       <use xlink:href="#m7a2336c18a" x="57.6" y="301.536" style="stroke: #000000; stroke-width: 0.8"/>
      </g>
     </g>
     <g id="text_11">
      <!-- 100 -->
      <g transform="translate(31.5125 305.335219) scale(0.1 -0.1)">
       <use xlink:href="#DejaVuSans-31"/>
       <use xlink:href="#DejaVuSans-30" x="63.623047"/>
       <use xlink:href="#DejaVuSans-30" x="127.246094"/>
      </g>
     </g>
    </g>
    <g id="ytick_2">
     <g id="line2d_11">
      <g>
       <use xlink:href="#m7a2336c18a" x="57.6" y="271.296" style="stroke: #000000; stroke-width: 0.8"/>
      </g>
     </g>
     <g id="text_12">
      <!-- 125 -->
      <g transform="translate(31.5125 275.095219) scale(0.1 -0.1)">
       <use xlink:href="#DejaVuSans-31"/>
       <use xlink:href="#DejaVuSans-32" x="63.623047"/>
       <use xlink:href="#DejaVuSans-35" x="127.246094"/>
      </g>
     </g>
    </g>
    <g id="ytick_3">
     <g id="line2d_12">
      <g>
       <use xlink:href="#m7a2336c18a" x="57.6" y="241.056" style="stroke: #000000; stroke-width: 0.8"/>
      </g>
     </g>
     <g id="text_13">
      <!-- 150 -->
      <g transform="translate(31.5125 244.855219) scale(0.1 -0.1)">
       <use xlink:href="#DejaVuSans-31"/>
       <use xlink:href="#DejaVuSans-35" x="63.623047"/>
       <use xlink:href="#DejaVuSans-30" x="127.246094"/>
      </g>
     </g>
    </g>
    <g id="ytick_4">
     <g id="line2d_13">
      <g>
       <use xlink:href="#m7a2336c18a" x="57.6" y="210.816" style="stroke: #000000; stroke-width: 0.8"/>
      </g>
     </g>
     <g id="text_14">
      <!-- 175 -->
      <g transform="translate(31.5125 214.615219) scale(0.1 -0.1)">
       <defs>
        <path id="DejaVuSans-37" d="M 525 4666 
L 3525 4666 
L 3525 4397 
L 1831 0 
L 1172 0 
L 2766 4134 
L 525 4134 
L 525 4666 
z
" transform="scale(0.015625)"/>
       </defs>
       <use xlink:href="#DejaVuSans-31"/>
       <use xlink:href="#DejaVuSans-37" x="63.623047"/>
       <use xlink:href="#DejaVuSans-35" x="127.246094"/>
      </g>
     </g>
    </g>
    <g id="ytick_5">
     <g id="line2d_14">
      <g>
       <use xlink:href="#m7a2336c18a" x="57.6" y="180.576" style="stroke: #000000; stroke-width: 0.8"/>
      </g>
     </g>
     <g id="text_15">
      <!-- 200 -->
      <g transform="translate(31.5125 184.375219) scale(0.1 -0.1)">
       <use xlink:href="#DejaVuSans-32"/>
       <use xlink:href="#DejaVuSans-30" x="63.623047"/>
       <use xlink:href="#DejaVuSans-30" x="127.246094"/>
      </g>
     </g>
    </g>
    <g id="ytick_6">
     <g id="line2d_15">
      <g>
       <use xlink:href="#m7a2336c18a" x="57.6" y="150.336" style="stroke: #000000; stroke-width: 0.8"/>
      </g>
     </g>
     <g id="text_16">
      <!-- 225 -->
      <g transform="translate(31.5125 154.135219) scale(0.1 -0.1)">
       <use xlink:href="#DejaVuSans-32"/>
       <use xlink:href="#DejaVuSans-32" x="63.623047"/>
       <use xlink:href="#DejaVuSans-35" x="127.246094"/>
      </g>
     </g>
    </g>
    <g id="ytick_7">
     <g id="line2d_16">
      <g>
       <use xlink:href="#m7a2336c18a" x="57.6" y="120.096" style="stroke: #000000; stroke-width: 0.8"/>
      </g>
     </g>
     <g id="text_17">
      <!-- 250 -->
      <g transform="translate(31.5125 123.895219) scale(0.1 -0.1)">
       <use xlink:href="#DejaVuSans-32"/>
       <use xlink:href="#DejaVuSans-35" x="63.623047"/>
       <use xlink:href="#DejaVuSans-30" x="127.246094"/>
      </g>
     </g>
    </g>
    <g id="ytick_8">
     <g id="line2d_17">
      <g>
       <use xlink:href="#m7a2336c18a" x="57.6" y="89.856" style="stroke: #000000; stroke-width: 0.8"/>
      </g>
     </g>
     <g id="text_18">
      <!-- 275 -->
      <g transform="translate(31.5125 93.655219) scale(0.1 -0.1)">
       <use xlink:href="#DejaVuSans-32"/>
       <use xlink:href="#DejaVuSans-37" x="63.623047"/>
       <use xlink:href="#DejaVuSans-35" x="127.246094"/>
      </g>
     </g>
    </g>
    <g id="ytick_9">
     <g id="line2d_18">
      <g>
       <use xlink:href="#m7a2336c18a" x="57.6" y="59.616" style="stroke: #000000; stroke-width: 0.8"/>
      </g>
     </g>
     <g id="text_19">
      <!-- 300 -->
      <g transform="translate(31.5125 63.415219) scale(0.1 -0.1)">
       <use xlink:href="#DejaVuSans-33"/>
       <use xlink:href="#DejaVuSans-30" x="63.623047"/>
       <use xlink:href="#DejaVuSans-30" x="127.246094"/>
      </g>
     </g>
    </g>
    <g id="text_20">
     <!-- Firing rate [Hz] -->
     <g transform="translate(25.432812 211.838156) rotate(-90) scale(0.1 -0.1)">
      <defs>
       <path id="DejaVuSans-46" d="M 628 4666 
L 3309 4666 
L 3309 4134 
L 1259 4134 
L 1259 2759 
L 3109 2759 
L 3109 2228 
L 1259 2228 
L 1259 0 
L 628 0 
L 628 4666 
z
" transform="scale(0.015625)"/>
       <path id="DejaVuSans-69" d="M 603 3500 
L 1178 3500 
L 1178 0 
L 603 0 
L 603 3500 
z
M 603 4863 
L 1178 4863 
L 1178 4134 
L 603 4134 
L 603 4863 
z
" transform="scale(0.015625)"/>
       <path id="DejaVuSans-72" d="M 2631 2963 
Q 2534 3019 2420 3045 
Q 2306 3072 2169 3072 
Q 1681 3072 1420 2755 
Q 1159 2438 1159 1844 
L 1159 0 
L 581 0 
L 581 3500 
L 1159 3500 
L 1159 2956 
Q 1341 3275 1631 3429 
Q 1922 3584 2338 3584 
Q 2397 3584 2469 3576 
Q 2541 3569 2628 3553 
L 2631 2963 
z
" transform="scale(0.015625)"/>
       <path id="DejaVuSans-74" d="M 1172 4494 
L 1172 3500 
L 2356 3500 
L 2356 3053 
L 1172 3053 
L 1172 1153 
Q 1172 725 1289 603 
Q 1406 481 1766 481 
L 2356 481 
L 2356 0 
L 1766 0 
Q 1100 0 847 248 
Q 594 497 594 1153 
L 594 3053 
L 172 3053 
L 172 3500 
L 594 3500 
L 594 4494 
L 1172 4494 
z
" transform="scale(0.015625)"/>
       <path id="DejaVuSans-5b" d="M 550 4863 
L 1875 4863 
L 1875 4416 
L 1125 4416 
L 1125 -397 
L 1875 -397 
L 1875 -844 
L 550 -844 
L 550 4863 
z
" transform="scale(0.015625)"/>
       <path id="DejaVuSans-48" d="M 628 4666 
L 1259 4666 
L 1259 2753 
L 3553 2753 
L 3553 4666 
L 4184 4666 
L 4184 0 
L 3553 0 
L 3553 2222 
L 1259 2222 
L 1259 0 
L 628 0 
L 628 4666 
z
" transform="scale(0.015625)"/>
       <path id="DejaVuSans-7a" d="M 353 3500 
L 3084 3500 
L 3084 2975 
L 922 459 
L 3084 459 
L 3084 0 
L 275 0 
L 275 525 
L 2438 3041 
L 353 3041 
L 353 3500 
z
" transform="scale(0.015625)"/>
       <path id="DejaVuSans-5d" d="M 1947 4863 
L 1947 -844 
L 622 -844 
L 622 -397 
L 1369 -397 
L 1369 4416 
L 622 4416 
L 622 4863 
L 1947 4863 
z
" transform="scale(0.015625)"/>
      </defs>
      <use xlink:href="#DejaVuSans-46"/>
      <use xlink:href="#DejaVuSans-69" x="50.269531"/>
      <use xlink:href="#DejaVuSans-72" x="78.052734"/>
      <use xlink:href="#DejaVuSans-69" x="119.166016"/>
      <use xlink:href="#DejaVuSans-6e" x="146.949219"/>
      <use xlink:href="#DejaVuSans-67" x="210.328125"/>
      <use xlink:href="#DejaVuSans-20" x="273.804688"/>
      <use xlink:href="#DejaVuSans-72" x="305.591797"/>
      <use xlink:href="#DejaVuSans-61" x="346.705078"/>
      <use xlink:href="#DejaVuSans-74" x="407.984375"/>
      <use xlink:href="#DejaVuSans-65" x="447.193359"/>
      <use xlink:href="#DejaVuSans-20" x="508.716797"/>
      <use xlink:href="#DejaVuSans-5b" x="540.503906"/>
      <use xlink:href="#DejaVuSans-48" x="579.517578"/>
      <use xlink:href="#DejaVuSans-7a" x="654.712891"/>
      <use xlink:href="#DejaVuSans-5d" x="707.203125"/>
     </g>
    </g>
   </g>
   <g id="line2d_19">
    <path d="M 73.832727 168.48 
L 73.913911 241.056 
L 73.995095 204.768 
L 74.076279 228.96 
L 74.238647 156.384 
L 74.319831 241.056 
L 74.482199 174.528 
L 74.644567 186.624 
L 74.725751 241.056 
L 74.888118 204.768 
L 74.969302 192.672 
L 75.050486 228.96 
L 75.294038 174.528 
L 75.375222 168.48 
L 75.53759 204.768 
L 75.618774 162.432 
L 75.699958 253.152 
L 75.781142 235.008 
L 75.94351 180.576 
L 76.024693 228.96 
L 76.105877 204.768 
L 76.268245 132.192 
L 76.349429 222.912 
L 76.430613 168.48 
L 76.511797 186.624 
L 76.592981 168.48 
L 76.836533 253.152 
L 76.917717 180.576 
L 76.998901 198.72 
L 77.080085 241.056 
L 77.161268 174.528 
L 77.242452 253.152 
L 77.323636 192.672 
L 77.40482 241.056 
L 77.486004 210.816 
L 77.567188 241.056 
L 77.648372 162.432 
L 77.81074 228.96 
L 77.891924 108 
L 77.973108 198.72 
L 78.054292 120.096 
L 78.135476 228.96 
L 78.21666 204.768 
L 78.297844 210.816 
L 78.379027 180.576 
L 78.541395 216.864 
L 78.622579 144.288 
L 78.703763 241.056 
L 78.784947 222.912 
L 78.866131 228.96 
L 79.028499 186.624 
L 79.190867 253.152 
L 79.272051 174.528 
L 79.353235 192.672 
L 79.515603 228.96 
L 79.596786 222.912 
L 79.67797 204.768 
L 79.759154 235.008 
L 79.840338 186.624 
L 79.921522 216.864 
L 80.002706 210.816 
L 80.08389 216.864 
L 80.246258 180.576 
L 80.570994 204.768 
L 80.652178 180.576 
L 80.733362 222.912 
L 80.976913 180.576 
L 81.058097 222.912 
L 81.139281 174.528 
L 81.220465 186.624 
L 81.301649 168.48 
L 81.545201 235.008 
L 81.626385 186.624 
L 81.707569 192.672 
L 81.788753 180.576 
L 81.869937 204.768 
L 81.951121 144.288 
L 82.032304 277.344 
L 82.194672 198.72 
L 82.275856 198.72 
L 82.35704 259.2 
L 82.438224 144.288 
L 82.519408 174.528 
L 82.681776 204.768 
L 82.76296 192.672 
L 82.844144 150.336 
L 83.006512 253.152 
L 83.168879 186.624 
L 83.250063 186.624 
L 83.331247 95.904 
L 83.412431 271.296 
L 83.574799 168.48 
L 83.655983 241.056 
L 83.818351 162.432 
L 83.899535 168.48 
L 83.980719 216.864 
L 84.224271 150.336 
L 84.305455 235.008 
L 84.386638 222.912 
L 84.467822 156.384 
L 84.63019 235.008 
L 84.873742 132.192 
L 84.954926 247.104 
L 85.03611 168.48 
L 85.117294 204.768 
L 85.198478 174.528 
L 85.279662 192.672 
L 85.360846 241.056 
L 85.44203 186.624 
L 85.685581 283.392 
L 85.766765 186.624 
L 85.847949 228.96 
L 86.010317 186.624 
L 86.091501 180.576 
L 86.172685 235.008 
L 86.335053 138.24 
L 86.497421 253.152 
L 86.659789 192.672 
L 86.740973 259.2 
L 86.822156 174.528 
L 86.90334 198.72 
L 86.984524 144.288 
L 87.065708 174.528 
L 87.146892 150.336 
L 87.228076 247.104 
L 87.30926 174.528 
L 87.390444 180.576 
L 87.471628 192.672 
L 87.552812 138.24 
L 87.633996 204.768 
L 87.71518 138.24 
L 87.796364 235.008 
L 87.877548 210.816 
L 87.958732 144.288 
L 88.121099 265.248 
L 88.283467 186.624 
L 88.445835 253.152 
L 88.689387 162.432 
L 88.770571 198.72 
L 88.851755 192.672 
L 88.932939 132.192 
L 89.095307 235.008 
L 89.17649 186.624 
L 89.257674 198.72 
L 89.338858 192.672 
L 89.420042 162.432 
L 89.58241 259.2 
L 89.663594 186.624 
L 89.825962 247.104 
L 89.907146 186.624 
L 89.98833 204.768 
L 90.069514 204.768 
L 90.150698 198.72 
L 90.231882 253.152 
L 90.313066 186.624 
L 90.394249 277.344 
L 90.475433 156.384 
L 90.556617 180.576 
L 90.637801 253.152 
L 90.881353 162.432 
L 90.962537 180.576 
L 91.043721 235.008 
L 91.124905 228.96 
L 91.206089 186.624 
L 91.287273 235.008 
L 91.449641 204.768 
L 91.612008 210.816 
L 91.693192 210.816 
L 91.774376 156.384 
L 91.85556 192.672 
L 91.936744 186.624 
L 92.017928 174.528 
L 92.099112 204.768 
L 92.180296 198.72 
L 92.26148 156.384 
L 92.423848 241.056 
L 92.505032 228.96 
L 92.586216 174.528 
L 92.6674 192.672 
L 92.748584 253.152 
L 92.829767 241.056 
L 92.910951 235.008 
L 92.992135 204.768 
L 93.073319 216.864 
L 93.154503 259.2 
L 93.235687 204.768 
L 93.316871 247.104 
L 93.398055 198.72 
L 93.479239 228.96 
L 93.560423 192.672 
L 93.641607 241.056 
L 93.722791 180.576 
L 93.885159 247.104 
L 93.966342 204.768 
L 94.047526 222.912 
L 94.12871 210.816 
L 94.209894 247.104 
L 94.372262 156.384 
L 94.453446 228.96 
L 94.53463 222.912 
L 94.615814 180.576 
L 94.696998 253.152 
L 95.021734 162.432 
L 95.265285 228.96 
L 95.346469 162.432 
L 95.427653 210.816 
L 95.508837 132.192 
L 95.671205 186.624 
L 95.752389 210.816 
L 95.833573 198.72 
L 96.077125 241.056 
L 96.239493 174.528 
L 96.320677 180.576 
L 96.40186 265.248 
L 96.564228 126.144 
L 96.645412 216.864 
L 96.726596 210.816 
L 96.80778 174.528 
L 96.888964 265.248 
L 97.051332 168.48 
L 97.132516 174.528 
L 97.294884 222.912 
L 97.376068 180.576 
L 97.538436 265.248 
L 97.619619 192.672 
L 97.700803 253.152 
L 97.863171 198.72 
L 97.944355 210.816 
L 98.025539 192.672 
L 98.106723 228.96 
L 98.187907 180.576 
L 98.269091 222.912 
L 98.431459 138.24 
L 98.512643 210.816 
L 98.593827 180.576 
L 98.756195 210.816 
L 98.837378 216.864 
L 98.918562 198.72 
L 98.999746 150.336 
L 99.08093 283.392 
L 99.162114 174.528 
L 99.243298 180.576 
L 99.324482 180.576 
L 99.48685 216.864 
L 99.568034 144.288 
L 99.649218 265.248 
L 99.811586 180.576 
L 100.055137 216.864 
L 100.136321 174.528 
L 100.217505 253.152 
L 100.298689 126.144 
L 100.461057 253.152 
L 100.542241 228.96 
L 100.623425 271.296 
L 100.785793 174.528 
L 100.866977 186.624 
L 100.948161 253.152 
L 101.029345 174.528 
L 101.191712 271.296 
L 101.35408 168.48 
L 101.435264 235.008 
L 101.678816 180.576 
L 101.841184 228.96 
L 102.003552 114.048 
L 102.084736 216.864 
L 102.16592 192.672 
L 102.247104 210.816 
L 102.328288 204.768 
L 102.409471 156.384 
L 102.490655 228.96 
L 102.653023 144.288 
L 102.734207 235.008 
L 102.815391 222.912 
L 102.896575 210.816 
L 102.977759 168.48 
L 103.140127 241.056 
L 103.302495 198.72 
L 103.464863 228.96 
L 103.62723 186.624 
L 103.708414 168.48 
L 103.870782 204.768 
L 103.951966 198.72 
L 104.03315 210.816 
L 104.114334 132.192 
L 104.276702 253.152 
L 104.357886 150.336 
L 104.43907 156.384 
L 104.520254 186.624 
L 104.601438 259.2 
L 104.763805 168.48 
L 104.844989 222.912 
L 105.007357 162.432 
L 105.088541 186.624 
L 105.169725 174.528 
L 105.250909 180.576 
L 105.332093 174.528 
L 105.494461 228.96 
L 105.575645 241.056 
L 105.819197 174.528 
L 105.981564 253.152 
L 106.062748 241.056 
L 106.3063 162.432 
L 106.387484 222.912 
L 106.549852 126.144 
L 106.631036 235.008 
L 106.71222 222.912 
L 106.793404 204.768 
L 106.874588 156.384 
L 107.036956 204.768 
L 107.11814 204.768 
L 107.199323 192.672 
L 107.280507 228.96 
L 107.605243 114.048 
L 107.767611 216.864 
L 107.848795 210.816 
L 107.929979 222.912 
L 108.092347 174.528 
L 108.254715 210.816 
L 108.335899 174.528 
L 108.417082 216.864 
L 108.498266 204.768 
L 108.57945 216.864 
L 108.660634 132.192 
L 108.741818 210.816 
L 108.823002 186.624 
L 108.904186 210.816 
L 109.066554 144.288 
L 109.228922 210.816 
L 109.310106 150.336 
L 109.39129 241.056 
L 109.472474 180.576 
L 109.634841 253.152 
L 109.716025 126.144 
L 109.797209 247.104 
L 109.878393 204.768 
L 109.959577 162.432 
L 110.040761 180.576 
L 110.121945 228.96 
L 110.365497 156.384 
L 110.446681 216.864 
L 110.609049 132.192 
L 110.690233 150.336 
L 110.771416 216.864 
L 110.8526 162.432 
L 110.933784 222.912 
L 111.096152 186.624 
L 111.177336 198.72 
L 111.25852 247.104 
L 111.502072 156.384 
L 111.66444 271.296 
L 111.745624 174.528 
L 111.826808 198.72 
L 111.907992 235.008 
L 111.989175 156.384 
L 112.070359 253.152 
L 112.232727 174.528 
L 112.313911 174.528 
L 112.395095 180.576 
L 112.476279 162.432 
L 112.638647 241.056 
L 112.719831 235.008 
L 112.882199 150.336 
L 112.963383 192.672 
L 113.044567 150.336 
L 113.288118 222.912 
L 113.369302 210.816 
L 113.450486 277.344 
L 113.53167 132.192 
L 113.612854 180.576 
L 113.694038 235.008 
L 113.775222 174.528 
L 113.93759 210.816 
L 114.099958 150.336 
L 114.181142 210.816 
L 114.262326 126.144 
L 114.34351 228.96 
L 114.424693 150.336 
L 114.505877 156.384 
L 114.749429 247.104 
L 114.830613 241.056 
L 114.911797 283.392 
L 115.074165 138.24 
L 115.155349 241.056 
L 115.236533 216.864 
L 115.317717 247.104 
L 115.398901 120.096 
L 115.480085 180.576 
L 115.561268 168.48 
L 115.642452 126.144 
L 115.886004 228.96 
L 116.048372 174.528 
L 116.129556 180.576 
L 116.21074 265.248 
L 116.291924 156.384 
L 116.373108 204.768 
L 116.454292 192.672 
L 116.61666 235.008 
L 116.697844 120.096 
L 116.941395 241.056 
L 117.022579 222.912 
L 117.103763 174.528 
L 117.184947 228.96 
L 117.266131 192.672 
L 117.347315 228.96 
L 117.509683 192.672 
L 117.672051 216.864 
L 117.753235 180.576 
L 117.834419 228.96 
L 117.915603 180.576 
L 117.996786 216.864 
L 118.07797 138.24 
L 118.159154 259.2 
L 118.240338 210.816 
L 118.321522 222.912 
L 118.402706 198.72 
L 118.48389 241.056 
L 118.565074 216.864 
L 118.646258 228.96 
L 118.727442 198.72 
L 118.808626 101.952 
L 118.88981 247.104 
L 118.970994 210.816 
L 119.052178 156.384 
L 119.133362 241.056 
L 119.214545 210.816 
L 119.376913 265.248 
L 119.458097 186.624 
L 119.539281 210.816 
L 119.620465 186.624 
L 119.701649 235.008 
L 119.782833 222.912 
L 119.864017 235.008 
L 119.945201 168.48 
L 120.107569 216.864 
L 120.269937 162.432 
L 120.432304 228.96 
L 120.513488 168.48 
L 120.594672 174.528 
L 120.675856 222.912 
L 120.75704 186.624 
L 120.838224 198.72 
L 120.919408 168.48 
L 121.000592 180.576 
L 121.16296 126.144 
L 121.325328 253.152 
L 121.406512 156.384 
L 121.487696 222.912 
L 121.568879 210.816 
L 121.650063 198.72 
L 121.731247 216.864 
L 121.812431 126.144 
L 121.893615 235.008 
L 121.974799 174.528 
L 122.137167 210.816 
L 122.218351 156.384 
L 122.380719 216.864 
L 122.461903 144.288 
L 122.543087 222.912 
L 122.624271 198.72 
L 122.705455 228.96 
L 122.786638 204.768 
L 122.949006 259.2 
L 123.192558 180.576 
L 123.354926 210.816 
L 123.598478 241.056 
L 123.679662 144.288 
L 123.760846 228.96 
L 123.84203 222.912 
L 124.004397 192.672 
L 124.166765 241.056 
L 124.329133 150.336 
L 124.491501 192.672 
L 124.653869 228.96 
L 124.735053 216.864 
L 124.816237 174.528 
L 124.897421 186.624 
L 124.978605 168.48 
L 125.059789 228.96 
L 125.222156 144.288 
L 125.384524 241.056 
L 125.546892 162.432 
L 125.628076 222.912 
L 125.70926 186.624 
L 125.790444 253.152 
L 126.033996 192.672 
L 126.11518 216.864 
L 126.196364 210.816 
L 126.358732 138.24 
L 126.521099 228.96 
L 126.602283 162.432 
L 126.683467 259.2 
L 126.845835 198.72 
L 126.927019 235.008 
L 127.008203 162.432 
L 127.089387 247.104 
L 127.332939 144.288 
L 127.57649 235.008 
L 127.657674 168.48 
L 127.738858 228.96 
L 127.820042 216.864 
L 127.901226 228.96 
L 127.98241 186.624 
L 128.144778 241.056 
L 128.225962 186.624 
L 128.307146 265.248 
L 128.38833 247.104 
L 128.631882 174.528 
L 128.713066 192.672 
L 128.794249 174.528 
L 128.875433 198.72 
L 129.037801 180.576 
L 129.118985 186.624 
L 129.200169 150.336 
L 129.362537 216.864 
L 129.524905 186.624 
L 129.687273 241.056 
L 129.768457 198.72 
L 129.849641 241.056 
L 129.930825 156.384 
L 130.012008 222.912 
L 130.093192 216.864 
L 130.174376 138.24 
L 130.336744 228.96 
L 130.417928 198.72 
L 130.499112 235.008 
L 130.580296 132.192 
L 130.66148 216.864 
L 130.742664 198.72 
L 130.905032 253.152 
L 131.0674 198.72 
L 131.148584 216.864 
L 131.310951 204.768 
L 131.392135 198.72 
L 131.473319 174.528 
L 131.554503 186.624 
L 131.635687 216.864 
L 131.716871 174.528 
L 131.798055 204.768 
L 131.960423 150.336 
L 132.122791 228.96 
L 132.285159 180.576 
L 132.366342 247.104 
L 132.52871 180.576 
L 132.609894 192.672 
L 132.691078 222.912 
L 132.853446 204.768 
L 132.93463 222.912 
L 133.096998 198.72 
L 133.178182 204.768 
L 133.259366 144.288 
L 133.34055 222.912 
L 133.421734 156.384 
L 133.502918 168.48 
L 133.665285 259.2 
L 133.746469 247.104 
L 133.827653 216.864 
L 133.908837 265.248 
L 134.071205 156.384 
L 134.233573 235.008 
L 134.314757 228.96 
L 134.395941 247.104 
L 134.558309 216.864 
L 134.639493 180.576 
L 134.720677 259.2 
L 134.80186 174.528 
L 134.883044 198.72 
L 134.964228 228.96 
L 135.045412 198.72 
L 135.126596 210.816 
L 135.288964 95.904 
L 135.370148 168.48 
L 135.451332 144.288 
L 135.532516 210.816 
L 135.6137 156.384 
L 135.694884 174.528 
L 135.776068 235.008 
L 135.857252 216.864 
L 135.938436 204.768 
L 136.019619 253.152 
L 136.100803 168.48 
L 136.181987 204.768 
L 136.263171 180.576 
L 136.425539 259.2 
L 136.506723 162.432 
L 136.587907 180.576 
L 136.750275 216.864 
L 136.831459 204.768 
L 136.912643 265.248 
L 136.993827 186.624 
L 137.075011 198.72 
L 137.156195 204.768 
L 137.237378 235.008 
L 137.399746 150.336 
L 137.562114 204.768 
L 137.643298 228.96 
L 137.805666 180.576 
L 137.88685 216.864 
L 137.968034 162.432 
L 138.049218 174.528 
L 138.211586 265.248 
L 138.29277 253.152 
L 138.536321 192.672 
L 138.617505 247.104 
L 138.698689 156.384 
L 138.779873 247.104 
L 138.861057 216.864 
L 138.942241 180.576 
L 139.023425 228.96 
L 139.104609 222.912 
L 139.185793 247.104 
L 139.266977 192.672 
L 139.429345 247.104 
L 139.510529 180.576 
L 139.591712 186.624 
L 139.672896 210.816 
L 139.75408 198.72 
L 139.835264 120.096 
L 139.916448 210.816 
L 139.997632 180.576 
L 140.078816 198.72 
L 140.16 174.528 
L 140.322368 222.912 
L 140.403552 210.816 
L 140.484736 241.056 
L 140.647104 168.48 
L 140.728288 192.672 
L 140.809471 271.296 
L 141.053023 156.384 
L 141.215391 216.864 
L 141.296575 235.008 
L 141.540127 138.24 
L 141.702495 210.816 
L 141.864863 180.576 
L 142.02723 222.912 
L 142.108414 192.672 
L 142.189598 204.768 
L 142.270782 162.432 
L 142.351966 204.768 
L 142.43315 192.672 
L 142.676702 222.912 
L 142.83907 156.384 
L 142.920254 198.72 
L 143.001438 144.288 
L 143.082622 253.152 
L 143.163805 162.432 
L 143.244989 222.912 
L 143.326173 216.864 
L 143.407357 180.576 
L 143.569725 198.72 
L 143.650909 277.344 
L 143.813277 168.48 
L 143.894461 186.624 
L 143.975645 168.48 
L 144.138013 235.008 
L 144.219197 235.008 
L 144.300381 174.528 
L 144.381564 259.2 
L 144.543932 180.576 
L 144.625116 180.576 
L 144.787484 210.816 
L 144.868668 198.72 
L 144.949852 222.912 
L 145.031036 174.528 
L 145.193404 204.768 
L 145.274588 186.624 
L 145.355772 253.152 
L 145.436956 126.144 
L 145.599323 235.008 
L 145.680507 192.672 
L 145.761691 198.72 
L 145.842875 241.056 
L 146.005243 162.432 
L 146.086427 216.864 
L 146.167611 198.72 
L 146.248795 168.48 
L 146.329979 192.672 
L 146.411163 186.624 
L 146.573531 150.336 
L 146.654715 247.104 
L 146.735899 186.624 
L 146.817082 283.392 
L 146.898266 162.432 
L 146.97945 168.48 
L 147.060634 235.008 
L 147.223002 198.72 
L 147.304186 204.768 
L 147.38537 150.336 
L 147.466554 204.768 
L 147.547738 198.72 
L 147.628922 222.912 
L 147.710106 198.72 
L 147.79129 283.392 
L 148.034841 132.192 
L 148.197209 186.624 
L 148.278393 186.624 
L 148.359577 180.576 
L 148.440761 216.864 
L 148.521945 162.432 
L 148.603129 180.576 
L 148.765497 210.816 
L 149.009049 150.336 
L 149.171416 210.816 
L 149.333784 241.056 
L 149.414968 198.72 
L 149.496152 210.816 
L 149.577336 210.816 
L 149.65852 174.528 
L 149.739704 192.672 
L 149.902072 168.48 
L 150.145624 247.104 
L 150.226808 241.056 
L 150.307992 210.816 
L 150.389175 228.96 
L 150.470359 138.24 
L 150.632727 228.96 
L 150.713911 228.96 
L 150.795095 174.528 
L 150.876279 186.624 
L 150.957463 186.624 
L 151.038647 210.816 
L 151.119831 156.384 
L 151.201015 216.864 
L 151.282199 174.528 
L 151.363383 198.72 
L 151.444567 180.576 
L 151.525751 186.624 
L 151.606934 210.816 
L 151.769302 180.576 
L 152.012854 235.008 
L 152.094038 204.768 
L 152.175222 265.248 
L 152.256406 192.672 
L 152.33759 235.008 
L 152.499958 186.624 
L 152.662326 247.104 
L 152.74351 186.624 
L 152.824693 216.864 
L 152.905877 204.768 
L 152.987061 210.816 
L 153.149429 156.384 
L 153.311797 216.864 
L 153.392981 168.48 
L 153.474165 180.576 
L 153.555349 210.816 
L 153.798901 168.48 
L 154.042452 241.056 
L 154.123636 120.096 
L 154.20482 210.816 
L 154.286004 180.576 
L 154.367188 247.104 
L 154.448372 204.768 
L 154.61074 228.96 
L 154.691924 198.72 
L 154.773108 228.96 
L 154.854292 216.864 
L 154.935476 186.624 
L 155.01666 247.104 
L 155.179027 156.384 
L 155.260211 198.72 
L 155.422579 162.432 
L 155.503763 228.96 
L 155.584947 156.384 
L 155.666131 204.768 
L 155.747315 192.672 
L 155.828499 222.912 
L 155.909683 216.864 
L 155.990867 216.864 
L 156.153235 204.768 
L 156.234419 216.864 
L 156.315603 210.816 
L 156.396786 222.912 
L 156.47797 192.672 
L 156.640338 222.912 
L 156.721522 210.816 
L 156.965074 247.104 
L 157.046258 228.96 
L 157.127442 138.24 
L 157.208626 198.72 
L 157.28981 180.576 
L 157.370994 192.672 
L 157.452178 168.48 
L 157.614545 247.104 
L 157.695729 247.104 
L 157.776913 180.576 
L 157.858097 198.72 
L 157.939281 204.768 
L 158.020465 192.672 
L 158.101649 95.904 
L 158.345201 271.296 
L 158.426385 174.528 
L 158.507569 216.864 
L 158.588753 210.816 
L 158.669937 216.864 
L 158.751121 235.008 
L 158.832304 174.528 
L 158.913488 235.008 
L 158.994672 222.912 
L 159.075856 204.768 
L 159.15704 259.2 
L 159.481776 186.624 
L 159.644144 241.056 
L 159.725328 95.904 
L 159.968879 259.2 
L 160.131247 216.864 
L 160.212431 192.672 
L 160.293615 259.2 
L 160.374799 168.48 
L 160.537167 235.008 
L 160.699535 168.48 
L 160.780719 247.104 
L 160.861903 150.336 
L 160.943087 241.056 
L 161.024271 144.288 
L 161.105455 235.008 
L 161.186638 198.72 
L 161.349006 253.152 
L 161.592558 126.144 
L 161.83611 192.672 
L 161.917294 180.576 
L 161.998478 210.816 
L 162.160846 150.336 
L 162.24203 228.96 
L 162.323214 150.336 
L 162.404397 168.48 
L 162.566765 228.96 
L 162.647949 174.528 
L 162.729133 192.672 
L 162.810317 253.152 
L 162.972685 156.384 
L 163.053869 168.48 
L 163.135053 204.768 
L 163.378605 150.336 
L 163.459789 247.104 
L 163.540973 228.96 
L 163.622156 241.056 
L 163.784524 174.528 
L 163.865708 259.2 
L 163.946892 241.056 
L 164.028076 180.576 
L 164.10926 259.2 
L 164.433996 174.528 
L 164.51518 198.72 
L 164.596364 174.528 
L 164.677548 180.576 
L 164.758732 168.48 
L 164.839915 180.576 
L 164.921099 144.288 
L 165.002283 247.104 
L 165.083467 228.96 
L 165.164651 132.192 
L 165.245835 162.432 
L 165.408203 247.104 
L 165.489387 186.624 
L 165.651755 222.912 
L 165.732939 150.336 
L 165.814123 259.2 
L 165.895307 222.912 
L 165.97649 186.624 
L 166.057674 228.96 
L 166.138858 192.672 
L 166.220042 277.344 
L 166.38241 168.48 
L 166.463594 180.576 
L 166.544778 259.2 
L 166.625962 156.384 
L 166.707146 247.104 
L 166.869514 174.528 
L 167.031882 210.816 
L 167.113066 210.816 
L 167.194249 156.384 
L 167.275433 235.008 
L 167.356617 180.576 
L 167.437801 186.624 
L 167.600169 210.816 
L 167.762537 174.528 
L 168.006089 259.2 
L 168.168457 241.056 
L 168.330825 204.768 
L 168.412008 235.008 
L 168.65556 144.288 
L 168.736744 241.056 
L 168.899112 198.72 
L 168.980296 228.96 
L 169.06148 150.336 
L 169.142664 156.384 
L 169.223848 222.912 
L 169.305032 162.432 
L 169.386216 210.816 
L 169.548584 168.48 
L 169.710951 235.008 
L 169.792135 180.576 
L 169.873319 198.72 
L 169.954503 192.672 
L 170.198055 241.056 
L 170.279239 144.288 
L 170.360423 186.624 
L 170.441607 156.384 
L 170.522791 210.816 
L 170.603975 180.576 
L 170.685159 186.624 
L 170.766342 259.2 
L 170.92871 198.72 
L 171.009894 253.152 
L 171.091078 198.72 
L 171.172262 216.864 
L 171.253446 180.576 
L 171.415814 210.816 
L 171.496998 210.816 
L 171.578182 168.48 
L 171.74055 222.912 
L 171.821734 210.816 
L 171.902918 162.432 
L 172.065285 241.056 
L 172.146469 168.48 
L 172.308837 253.152 
L 172.552389 168.48 
L 172.633573 186.624 
L 172.714757 174.528 
L 172.958309 247.104 
L 173.120677 210.816 
L 173.20186 210.816 
L 173.283044 168.48 
L 173.364228 180.576 
L 173.445412 162.432 
L 173.60778 186.624 
L 173.688964 150.336 
L 173.851332 235.008 
L 173.932516 192.672 
L 174.094884 247.104 
L 174.176068 180.576 
L 174.257252 186.624 
L 174.338436 180.576 
L 174.419619 192.672 
L 174.581987 241.056 
L 174.663171 228.96 
L 174.744355 259.2 
L 174.825539 174.528 
L 174.906723 210.816 
L 174.987907 186.624 
L 175.069091 271.296 
L 175.312643 144.288 
L 175.393827 162.432 
L 175.475011 253.152 
L 175.637378 144.288 
L 175.718562 198.72 
L 175.799746 156.384 
L 175.88093 222.912 
L 175.962114 216.864 
L 176.043298 174.528 
L 176.124482 204.768 
L 176.28685 138.24 
L 176.449218 228.96 
L 176.530402 204.768 
L 176.611586 108 
L 176.773953 253.152 
L 176.855137 132.192 
L 177.017505 241.056 
L 177.179873 95.904 
L 177.423425 253.152 
L 177.504609 168.48 
L 177.585793 198.72 
L 177.666977 126.144 
L 177.829345 222.912 
L 177.910529 180.576 
L 177.991712 228.96 
L 178.072896 174.528 
L 178.15408 198.72 
L 178.235264 192.672 
L 178.397632 126.144 
L 178.478816 228.96 
L 178.56 210.816 
L 178.641184 144.288 
L 178.884736 235.008 
L 178.96592 168.48 
L 179.047104 186.624 
L 179.290655 235.008 
L 179.453023 174.528 
L 179.534207 247.104 
L 179.615391 150.336 
L 179.696575 168.48 
L 179.858943 174.528 
L 179.940127 138.24 
L 180.021311 180.576 
L 180.102495 132.192 
L 180.264863 228.96 
L 180.346047 168.48 
L 180.42723 174.528 
L 180.508414 132.192 
L 180.589598 174.528 
L 180.751966 150.336 
L 180.914334 204.768 
L 180.995518 198.72 
L 181.076702 168.48 
L 181.23907 192.672 
L 181.401438 228.96 
L 181.482622 180.576 
L 181.563805 228.96 
L 181.726173 120.096 
L 181.807357 241.056 
L 181.888541 168.48 
L 181.969725 174.528 
L 182.132093 222.912 
L 182.213277 156.384 
L 182.294461 186.624 
L 182.375645 168.48 
L 182.456829 222.912 
L 182.538013 186.624 
L 182.700381 228.96 
L 182.862748 174.528 
L 182.943932 204.768 
L 183.268668 114.048 
L 183.349852 126.144 
L 183.431036 120.096 
L 183.674588 216.864 
L 183.755772 222.912 
L 183.836956 168.48 
L 183.91814 192.672 
L 183.999323 186.624 
L 184.080507 180.576 
L 184.242875 138.24 
L 184.324059 228.96 
L 184.405243 192.672 
L 184.486427 235.008 
L 184.648795 180.576 
L 184.729979 235.008 
L 184.811163 126.144 
L 184.892347 162.432 
L 184.973531 138.24 
L 185.054715 162.432 
L 185.135899 241.056 
L 185.217082 180.576 
L 185.298266 216.864 
L 185.37945 210.816 
L 185.460634 186.624 
L 185.541818 210.816 
L 185.623002 120.096 
L 185.947738 235.008 
L 186.028922 204.768 
L 186.110106 228.96 
L 186.19129 204.768 
L 186.272474 259.2 
L 186.353658 162.432 
L 186.434841 198.72 
L 186.516025 120.096 
L 186.597209 216.864 
L 186.678393 198.72 
L 186.759577 235.008 
L 186.921945 126.144 
L 187.084313 192.672 
L 187.165497 150.336 
L 187.246681 228.96 
L 187.327865 222.912 
L 187.490233 144.288 
L 187.571416 168.48 
L 187.6526 174.528 
L 187.733784 204.768 
L 187.977336 132.192 
L 188.139704 247.104 
L 188.220888 210.816 
L 188.383256 156.384 
L 188.545624 204.768 
L 188.626808 144.288 
L 188.707992 210.816 
L 188.789175 198.72 
L 188.951543 162.432 
L 189.032727 222.912 
L 189.113911 186.624 
L 189.195095 222.912 
L 189.276279 162.432 
L 189.357463 192.672 
L 189.438647 126.144 
L 189.601015 228.96 
L 189.763383 156.384 
L 189.925751 204.768 
L 190.006934 168.48 
L 190.088118 228.96 
L 190.250486 162.432 
L 190.33167 180.576 
L 190.412854 235.008 
L 190.494038 222.912 
L 190.575222 186.624 
L 190.656406 216.864 
L 190.818774 162.432 
L 190.899958 204.768 
L 190.981142 192.672 
L 191.062326 126.144 
L 191.14351 132.192 
L 191.224693 216.864 
L 191.305877 204.768 
L 191.468245 168.48 
L 191.549429 192.672 
L 191.630613 168.48 
L 191.711797 210.816 
L 191.955349 156.384 
L 192.036533 235.008 
L 192.117717 222.912 
L 192.198901 150.336 
L 192.442452 241.056 
L 192.60482 174.528 
L 192.686004 253.152 
L 192.929556 168.48 
L 193.091924 235.008 
L 193.335476 144.288 
L 193.41666 198.72 
L 193.497844 174.528 
L 193.579027 186.624 
L 193.660211 247.104 
L 193.741395 192.672 
L 193.822579 198.72 
L 193.903763 198.72 
L 193.984947 228.96 
L 194.147315 186.624 
L 194.228499 192.672 
L 194.390867 168.48 
L 194.472051 174.528 
L 194.553235 150.336 
L 194.634419 216.864 
L 194.715603 204.768 
L 194.796786 156.384 
L 194.87797 241.056 
L 195.121522 180.576 
L 195.202706 235.008 
L 195.28389 210.816 
L 195.446258 235.008 
L 195.527442 204.768 
L 195.608626 241.056 
L 195.68981 144.288 
L 195.770994 216.864 
L 195.852178 180.576 
L 195.933362 192.672 
L 196.014545 210.816 
L 196.095729 144.288 
L 196.258097 216.864 
L 196.420465 150.336 
L 196.501649 204.768 
L 196.582833 174.528 
L 196.664017 253.152 
L 196.745201 186.624 
L 196.826385 198.72 
L 196.907569 210.816 
L 196.988753 186.624 
L 197.069937 241.056 
L 197.151121 138.24 
L 197.232304 162.432 
L 197.313488 132.192 
L 197.394672 228.96 
L 197.55704 114.048 
L 197.800592 222.912 
L 197.881776 186.624 
L 197.96296 222.912 
L 198.044144 95.904 
L 198.125328 120.096 
L 198.206512 204.768 
L 198.287696 174.528 
L 198.368879 235.008 
L 198.531247 150.336 
L 198.612431 210.816 
L 198.855983 126.144 
L 199.099535 192.672 
L 199.180719 168.48 
L 199.343087 210.816 
L 199.424271 216.864 
L 199.505455 192.672 
L 199.586638 222.912 
L 199.667822 186.624 
L 199.749006 247.104 
L 199.83019 228.96 
L 200.073742 114.048 
L 200.154926 277.344 
L 200.23611 241.056 
L 200.398478 126.144 
L 200.479662 198.72 
L 200.560846 156.384 
L 200.64203 180.576 
L 200.723214 156.384 
L 200.804397 204.768 
L 200.885581 192.672 
L 200.966765 186.624 
L 201.047949 222.912 
L 201.129133 204.768 
L 201.210317 228.96 
L 201.372685 174.528 
L 201.535053 222.912 
L 201.616237 186.624 
L 201.697421 259.2 
L 201.778605 120.096 
L 201.859789 198.72 
L 201.940973 180.576 
L 202.022156 216.864 
L 202.10334 138.24 
L 202.265708 259.2 
L 202.428076 174.528 
L 202.50926 204.768 
L 202.590444 138.24 
L 202.671628 198.72 
L 202.752812 174.528 
L 202.833996 186.624 
L 202.91518 241.056 
L 202.996364 204.768 
L 203.077548 210.816 
L 203.158732 235.008 
L 203.402283 162.432 
L 203.483467 180.576 
L 203.564651 108 
L 203.645835 120.096 
L 203.808203 180.576 
L 203.970571 144.288 
L 204.132939 114.048 
L 204.295307 210.816 
L 204.37649 138.24 
L 204.457674 156.384 
L 204.538858 144.288 
L 204.701226 162.432 
L 204.944778 247.104 
L 205.107146 144.288 
L 205.350698 259.2 
L 205.431882 144.288 
L 205.513066 168.48 
L 205.594249 241.056 
L 205.756617 162.432 
L 205.918985 235.008 
L 206.081353 204.768 
L 206.162537 259.2 
L 206.243721 198.72 
L 206.324905 222.912 
L 206.406089 216.864 
L 206.487273 180.576 
L 206.568457 247.104 
L 206.649641 180.576 
L 206.730825 210.816 
L 206.812008 180.576 
L 206.893192 101.952 
L 206.974376 247.104 
L 207.05556 150.336 
L 207.136744 253.152 
L 207.217928 162.432 
L 207.299112 180.576 
L 207.380296 150.336 
L 207.542664 253.152 
L 207.623848 132.192 
L 207.705032 162.432 
L 207.786216 144.288 
L 207.8674 186.624 
L 207.948584 126.144 
L 208.110951 222.912 
L 208.192135 192.672 
L 208.273319 114.048 
L 208.435687 235.008 
L 208.598055 120.096 
L 208.679239 186.624 
L 208.760423 174.528 
L 208.841607 186.624 
L 208.922791 222.912 
L 209.085159 168.48 
L 209.32871 235.008 
L 209.409894 180.576 
L 209.572262 235.008 
L 209.73463 162.432 
L 209.815814 204.768 
L 209.896998 180.576 
L 209.978182 216.864 
L 210.221734 150.336 
L 210.302918 204.768 
L 210.384101 156.384 
L 210.546469 180.576 
L 210.708837 180.576 
L 210.871205 216.864 
L 210.952389 168.48 
L 211.033573 192.672 
L 211.114757 156.384 
L 211.277125 210.816 
L 211.358309 174.528 
L 211.439493 222.912 
L 211.520677 180.576 
L 211.683044 216.864 
L 211.764228 156.384 
L 211.845412 228.96 
L 211.926596 192.672 
L 212.00778 210.816 
L 212.088964 168.48 
L 212.170148 174.528 
L 212.251332 150.336 
L 212.332516 216.864 
L 212.4137 192.672 
L 212.494884 120.096 
L 212.657252 168.48 
L 212.738436 150.336 
L 212.819619 180.576 
L 212.981987 138.24 
L 213.063171 138.24 
L 213.225539 259.2 
L 213.306723 180.576 
L 213.387907 235.008 
L 213.550275 186.624 
L 213.631459 235.008 
L 213.875011 114.048 
L 214.037378 228.96 
L 214.199746 162.432 
L 214.362114 198.72 
L 214.443298 132.192 
L 214.68685 204.768 
L 214.768034 204.768 
L 214.849218 235.008 
L 215.011586 168.48 
L 215.09277 162.432 
L 215.173953 168.48 
L 215.255137 120.096 
L 215.336321 235.008 
L 215.417505 150.336 
L 215.498689 204.768 
L 215.579873 144.288 
L 215.742241 210.816 
L 215.823425 144.288 
L 215.904609 180.576 
L 215.985793 144.288 
L 216.148161 192.672 
L 216.229345 168.48 
L 216.310529 241.056 
L 216.391712 216.864 
L 216.472896 162.432 
L 216.635264 186.624 
L 216.716448 186.624 
L 216.797632 204.768 
L 216.96 126.144 
L 217.041184 283.392 
L 217.284736 138.24 
L 217.447104 228.96 
L 217.609471 186.624 
L 217.771839 235.008 
L 217.853023 132.192 
L 217.934207 174.528 
L 218.015391 156.384 
L 218.258943 216.864 
L 218.340127 132.192 
L 218.421311 186.624 
L 218.502495 162.432 
L 218.583679 216.864 
L 218.664863 150.336 
L 218.746047 174.528 
L 218.82723 241.056 
L 218.908414 228.96 
L 218.989598 144.288 
L 219.070782 180.576 
L 219.151966 168.48 
L 219.23315 192.672 
L 219.476702 144.288 
L 219.63907 192.672 
L 219.720254 120.096 
L 219.801438 186.624 
L 219.882622 174.528 
L 219.963805 198.72 
L 220.044989 162.432 
L 220.207357 216.864 
L 220.288541 210.816 
L 220.450909 186.624 
L 220.613277 222.912 
L 220.856829 126.144 
L 221.019197 277.344 
L 221.181564 132.192 
L 221.262748 162.432 
L 221.343932 150.336 
L 221.5063 210.816 
L 221.587484 168.48 
L 221.668668 210.816 
L 221.749852 186.624 
L 221.831036 192.672 
L 221.91222 198.72 
L 222.074588 144.288 
L 222.236956 210.816 
L 222.31814 192.672 
L 222.399323 77.76 
L 222.480507 192.672 
L 222.561691 126.144 
L 222.642875 216.864 
L 222.805243 156.384 
L 222.886427 168.48 
L 223.048795 235.008 
L 223.211163 180.576 
L 223.373531 228.96 
L 223.454715 180.576 
L 223.617082 204.768 
L 223.77945 144.288 
L 223.860634 174.528 
L 223.941818 89.856 
L 224.104186 204.768 
L 224.18537 198.72 
L 224.266554 204.768 
L 224.347738 174.528 
L 224.510106 204.768 
L 224.753658 156.384 
L 224.916025 174.528 
L 224.997209 204.768 
L 225.078393 150.336 
L 225.159577 168.48 
L 225.240761 162.432 
L 225.321945 247.104 
L 225.403129 162.432 
L 225.484313 198.72 
L 225.565497 126.144 
L 225.646681 132.192 
L 225.727865 235.008 
L 225.809049 228.96 
L 225.890233 132.192 
L 225.971416 174.528 
L 226.0526 120.096 
L 226.214968 192.672 
L 226.296152 180.576 
L 226.377336 228.96 
L 226.45852 192.672 
L 226.539704 222.912 
L 226.620888 168.48 
L 226.783256 204.768 
L 226.86444 132.192 
L 226.945624 228.96 
L 227.107992 150.336 
L 227.189175 114.048 
L 227.270359 247.104 
L 227.351543 198.72 
L 227.432727 198.72 
L 227.513911 228.96 
L 227.676279 150.336 
L 227.757463 198.72 
L 227.838647 186.624 
L 227.919831 150.336 
L 228.001015 222.912 
L 228.082199 204.768 
L 228.163383 265.248 
L 228.325751 138.24 
L 228.650486 204.768 
L 228.73167 222.912 
L 228.812854 126.144 
L 228.975222 247.104 
L 229.056406 216.864 
L 229.13759 144.288 
L 229.218774 156.384 
L 229.299958 198.72 
L 229.381142 162.432 
L 229.462326 168.48 
L 229.54351 180.576 
L 229.624693 168.48 
L 229.705877 241.056 
L 229.787061 156.384 
L 229.868245 168.48 
L 229.949429 150.336 
L 230.030613 156.384 
L 230.111797 210.816 
L 230.192981 192.672 
L 230.274165 192.672 
L 230.355349 186.624 
L 230.436533 210.816 
L 230.517717 120.096 
L 230.680085 168.48 
L 230.761268 120.096 
L 230.842452 204.768 
L 230.923636 168.48 
L 231.00482 192.672 
L 231.167188 174.528 
L 231.248372 186.624 
L 231.329556 180.576 
L 231.491924 204.768 
L 231.573108 132.192 
L 231.654292 204.768 
L 231.735476 162.432 
L 231.81666 168.48 
L 231.897844 156.384 
L 231.979027 198.72 
L 232.060211 126.144 
L 232.222579 198.72 
L 232.466131 186.624 
L 232.547315 247.104 
L 232.628499 150.336 
L 232.709683 192.672 
L 232.790867 174.528 
L 232.872051 222.912 
L 232.953235 138.24 
L 233.196786 198.72 
L 233.359154 132.192 
L 233.440338 114.048 
L 233.602706 126.144 
L 233.68389 168.48 
L 233.765074 144.288 
L 233.846258 150.336 
L 233.927442 174.528 
L 234.008626 144.288 
L 234.08981 198.72 
L 234.170994 156.384 
L 234.252178 222.912 
L 234.414545 150.336 
L 234.576913 210.816 
L 234.739281 156.384 
L 234.901649 259.2 
L 234.982833 156.384 
L 235.064017 186.624 
L 235.145201 132.192 
L 235.388753 228.96 
L 235.551121 138.24 
L 235.794672 228.96 
L 235.875856 198.72 
L 235.95704 89.856 
L 236.038224 222.912 
L 236.119408 198.72 
L 236.200592 192.672 
L 236.36296 138.24 
L 236.444144 174.528 
L 236.525328 138.24 
L 236.687696 186.624 
L 236.768879 192.672 
L 236.850063 186.624 
L 236.931247 144.288 
L 237.093615 198.72 
L 237.174799 192.672 
L 237.255983 144.288 
L 237.337167 228.96 
L 237.418351 216.864 
L 237.499535 150.336 
L 237.580719 253.152 
L 237.661903 162.432 
L 237.743087 174.528 
L 237.824271 204.768 
L 237.905455 198.72 
L 237.986638 222.912 
L 238.149006 95.904 
L 238.23019 162.432 
L 238.311374 138.24 
L 238.392558 138.24 
L 238.473742 180.576 
L 238.554926 150.336 
L 238.63611 192.672 
L 238.717294 132.192 
L 238.960846 253.152 
L 239.04203 101.952 
L 239.204397 210.816 
L 239.285581 198.72 
L 239.366765 204.768 
L 239.447949 228.96 
L 239.610317 150.336 
L 239.691501 138.24 
L 239.772685 192.672 
L 239.853869 132.192 
L 239.935053 253.152 
L 240.016237 114.048 
L 240.097421 174.528 
L 240.178605 168.48 
L 240.340973 204.768 
L 240.422156 192.672 
L 240.50334 222.912 
L 240.584524 150.336 
L 240.665708 156.384 
L 240.828076 228.96 
L 240.990444 126.144 
L 241.071628 132.192 
L 241.152812 174.528 
L 241.233996 162.432 
L 241.31518 144.288 
L 241.396364 150.336 
L 241.477548 216.864 
L 241.558732 210.816 
L 241.639915 192.672 
L 241.721099 253.152 
L 241.802283 186.624 
L 241.883467 241.056 
L 241.964651 198.72 
L 242.045835 216.864 
L 242.127019 210.816 
L 242.289387 132.192 
L 242.451755 192.672 
L 242.532939 210.816 
L 242.614123 120.096 
L 242.695307 198.72 
L 242.77649 192.672 
L 242.938858 180.576 
L 243.020042 204.768 
L 243.18241 168.48 
L 243.263594 235.008 
L 243.344778 126.144 
L 243.425962 198.72 
L 243.507146 192.672 
L 243.58833 168.48 
L 243.669514 228.96 
L 243.750698 156.384 
L 243.994249 265.248 
L 244.075433 259.2 
L 244.318985 138.24 
L 244.400169 228.96 
L 244.481353 108 
L 244.562537 235.008 
L 244.643721 144.288 
L 244.724905 241.056 
L 244.806089 198.72 
L 244.887273 253.152 
L 245.049641 150.336 
L 245.130825 228.96 
L 245.293192 144.288 
L 245.374376 126.144 
L 245.536744 216.864 
L 245.617928 210.816 
L 245.699112 198.72 
L 245.780296 210.816 
L 245.86148 168.48 
L 245.942664 198.72 
L 246.023848 150.336 
L 246.186216 222.912 
L 246.2674 174.528 
L 246.348584 210.816 
L 246.429767 156.384 
L 246.510951 168.48 
L 246.754503 235.008 
L 246.835687 174.528 
L 246.916871 228.96 
L 246.998055 168.48 
L 247.079239 247.104 
L 247.160423 168.48 
L 247.241607 198.72 
L 247.322791 150.336 
L 247.403975 216.864 
L 247.485159 198.72 
L 247.566342 216.864 
L 247.809894 174.528 
L 247.891078 216.864 
L 248.053446 180.576 
L 248.13463 186.624 
L 248.215814 192.672 
L 248.296998 168.48 
L 248.378182 101.952 
L 248.459366 198.72 
L 248.54055 186.624 
L 248.702918 150.336 
L 248.784101 174.528 
L 248.865285 156.384 
L 249.027653 222.912 
L 249.190021 168.48 
L 249.271205 150.336 
L 249.433573 210.816 
L 249.514757 162.432 
L 249.595941 216.864 
L 249.758309 150.336 
L 249.839493 192.672 
L 249.920677 168.48 
L 250.00186 247.104 
L 250.083044 120.096 
L 250.164228 150.336 
L 250.326596 168.48 
L 250.40778 126.144 
L 250.488964 222.912 
L 250.570148 180.576 
L 250.732516 259.2 
L 250.8137 210.816 
L 250.894884 222.912 
L 251.138436 138.24 
L 251.219619 192.672 
L 251.381987 144.288 
L 251.544355 180.576 
L 251.625539 138.24 
L 251.787907 204.768 
L 251.869091 180.576 
L 251.950275 198.72 
L 252.031459 192.672 
L 252.193827 198.72 
L 252.275011 174.528 
L 252.356195 241.056 
L 252.518562 162.432 
L 252.599746 138.24 
L 252.68093 186.624 
L 252.762114 101.952 
L 252.924482 180.576 
L 253.005666 180.576 
L 253.08685 222.912 
L 253.168034 150.336 
L 253.249218 168.48 
L 253.330402 253.152 
L 253.411586 222.912 
L 253.49277 210.816 
L 253.573953 180.576 
L 253.655137 108 
L 253.817505 228.96 
L 253.898689 180.576 
L 253.979873 186.624 
L 254.061057 204.768 
L 254.142241 156.384 
L 254.223425 235.008 
L 254.385793 114.048 
L 254.466977 132.192 
L 254.629345 204.768 
L 254.791712 156.384 
L 254.872896 162.432 
L 254.95408 108 
L 255.116448 247.104 
L 255.197632 198.72 
L 255.36 241.056 
L 255.441184 186.624 
L 255.522368 192.672 
L 255.603552 222.912 
L 255.76592 150.336 
L 255.847104 144.288 
L 255.928288 150.336 
L 256.090655 168.48 
L 256.171839 150.336 
L 256.253023 156.384 
L 256.334207 222.912 
L 256.415391 156.384 
L 256.496575 253.152 
L 256.577759 247.104 
L 256.658943 180.576 
L 256.902495 241.056 
L 256.983679 162.432 
L 257.064863 180.576 
L 257.146047 186.624 
L 257.22723 210.816 
L 257.470782 180.576 
L 257.551966 222.912 
L 257.714334 180.576 
L 257.795518 198.72 
L 257.876702 180.576 
L 258.03907 204.768 
L 258.120254 95.904 
L 258.201438 216.864 
L 258.282622 162.432 
L 258.363805 180.576 
L 258.444989 174.528 
L 258.526173 150.336 
L 258.688541 204.768 
L 258.769725 156.384 
L 258.850909 204.768 
L 258.932093 162.432 
L 259.094461 253.152 
L 259.175645 186.624 
L 259.256829 222.912 
L 259.338013 186.624 
L 259.419197 222.912 
L 259.500381 174.528 
L 259.743932 247.104 
L 259.825116 174.528 
L 259.9063 186.624 
L 259.987484 198.72 
L 260.149852 192.672 
L 260.231036 210.816 
L 260.393404 132.192 
L 260.555772 210.816 
L 260.636956 192.672 
L 260.71814 247.104 
L 260.799323 174.528 
L 260.880507 180.576 
L 260.961691 192.672 
L 261.042875 108 
L 261.205243 186.624 
L 261.286427 132.192 
L 261.367611 241.056 
L 261.448795 222.912 
L 261.529979 174.528 
L 261.611163 186.624 
L 261.692347 162.432 
L 261.773531 168.48 
L 261.854715 168.48 
L 261.935899 216.864 
L 262.017082 174.528 
L 262.098266 186.624 
L 262.17945 174.528 
L 262.260634 186.624 
L 262.423002 156.384 
L 262.504186 210.816 
L 262.58537 162.432 
L 262.666554 174.528 
L 262.747738 235.008 
L 262.828922 216.864 
L 262.910106 138.24 
L 263.072474 204.768 
L 263.153658 126.144 
L 263.234841 150.336 
L 263.478393 204.768 
L 263.640761 168.48 
L 263.721945 162.432 
L 263.803129 210.816 
L 263.965497 108 
L 264.046681 150.336 
L 264.290233 228.96 
L 264.4526 186.624 
L 264.533784 216.864 
L 264.614968 186.624 
L 264.696152 204.768 
L 264.777336 156.384 
L 264.85852 210.816 
L 264.939704 192.672 
L 265.183256 108 
L 265.26444 247.104 
L 265.345624 162.432 
L 265.426808 235.008 
L 265.589175 162.432 
L 265.751543 241.056 
L 265.913911 150.336 
L 266.157463 192.672 
L 266.238647 144.288 
L 266.563383 253.152 
L 266.725751 198.72 
L 266.806934 204.768 
L 266.888118 174.528 
L 266.969302 186.624 
L 267.050486 247.104 
L 267.13167 222.912 
L 267.212854 235.008 
L 267.294038 156.384 
L 267.375222 247.104 
L 267.456406 162.432 
L 267.53759 174.528 
L 267.699958 210.816 
L 267.781142 114.048 
L 267.94351 222.912 
L 268.024693 126.144 
L 268.187061 204.768 
L 268.268245 174.528 
L 268.349429 241.056 
L 268.511797 144.288 
L 268.592981 174.528 
L 268.674165 156.384 
L 268.755349 168.48 
L 268.836533 114.048 
L 268.917717 198.72 
L 268.998901 162.432 
L 269.242452 210.816 
L 269.40482 192.672 
L 269.486004 132.192 
L 269.648372 192.672 
L 269.81074 126.144 
L 269.973108 192.672 
L 270.054292 174.528 
L 270.135476 192.672 
L 270.21666 144.288 
L 270.297844 162.432 
L 270.379027 247.104 
L 270.541395 168.48 
L 270.622579 247.104 
L 270.784947 180.576 
L 270.866131 174.528 
L 270.947315 144.288 
L 271.109683 222.912 
L 271.272051 180.576 
L 271.434419 216.864 
L 271.515603 120.096 
L 271.596786 138.24 
L 271.67797 186.624 
L 271.759154 180.576 
L 271.921522 144.288 
L 272.165074 235.008 
L 272.246258 222.912 
L 272.408626 156.384 
L 272.652178 241.056 
L 272.733362 162.432 
L 272.814545 192.672 
L 272.895729 126.144 
L 272.976913 228.96 
L 273.058097 144.288 
L 273.139281 156.384 
L 273.220465 216.864 
L 273.301649 198.72 
L 273.382833 198.72 
L 273.464017 174.528 
L 273.545201 204.768 
L 273.707569 174.528 
L 273.788753 198.72 
L 273.951121 144.288 
L 274.032304 150.336 
L 274.194672 228.96 
L 274.275856 210.816 
L 274.35704 216.864 
L 274.438224 89.856 
L 274.600592 192.672 
L 274.681776 192.672 
L 274.76296 186.624 
L 274.844144 198.72 
L 274.925328 144.288 
L 275.087696 228.96 
L 275.168879 222.912 
L 275.331247 108 
L 275.574799 198.72 
L 275.655983 168.48 
L 275.737167 204.768 
L 275.899535 156.384 
L 275.980719 222.912 
L 276.143087 156.384 
L 276.224271 156.384 
L 276.305455 120.096 
L 276.549006 222.912 
L 276.63019 156.384 
L 276.711374 216.864 
L 276.792558 180.576 
L 276.873742 186.624 
L 276.954926 174.528 
L 277.03611 138.24 
L 277.198478 228.96 
L 277.44203 132.192 
L 277.523214 228.96 
L 277.604397 162.432 
L 277.685581 174.528 
L 277.766765 216.864 
L 277.847949 150.336 
L 277.929133 168.48 
L 278.091501 241.056 
L 278.172685 162.432 
L 278.253869 204.768 
L 278.335053 180.576 
L 278.497421 204.768 
L 278.578605 132.192 
L 278.822156 235.008 
L 278.90334 216.864 
L 278.984524 247.104 
L 279.146892 210.816 
L 279.228076 156.384 
L 279.30926 162.432 
L 279.390444 222.912 
L 279.552812 168.48 
L 279.71518 204.768 
L 279.877548 144.288 
L 280.039915 210.816 
L 280.121099 222.912 
L 280.283467 174.528 
L 280.445835 210.816 
L 280.527019 162.432 
L 280.608203 228.96 
L 280.689387 210.816 
L 280.851755 180.576 
L 280.932939 235.008 
L 281.014123 138.24 
L 281.095307 150.336 
L 281.17649 253.152 
L 281.257674 156.384 
L 281.420042 198.72 
L 281.58241 162.432 
L 281.663594 210.816 
L 281.907146 108 
L 282.069514 247.104 
L 282.150698 126.144 
L 282.231882 204.768 
L 282.313066 108 
L 282.394249 180.576 
L 282.475433 168.48 
L 282.556617 216.864 
L 282.800169 108 
L 282.962537 222.912 
L 283.043721 210.816 
L 283.206089 156.384 
L 283.368457 192.672 
L 283.449641 174.528 
L 283.530825 216.864 
L 283.612008 162.432 
L 283.693192 235.008 
L 283.85556 150.336 
L 283.936744 192.672 
L 284.017928 186.624 
L 284.099112 216.864 
L 284.180296 174.528 
L 284.26148 228.96 
L 284.342664 120.096 
L 284.423848 186.624 
L 284.505032 162.432 
L 284.586216 156.384 
L 284.748584 204.768 
L 284.829767 186.624 
L 284.992135 144.288 
L 285.154503 228.96 
L 285.316871 120.096 
L 285.479239 210.816 
L 285.560423 144.288 
L 285.641607 192.672 
L 285.722791 168.48 
L 285.803975 174.528 
L 285.885159 174.528 
L 286.047526 222.912 
L 286.12871 168.48 
L 286.209894 204.768 
L 286.291078 162.432 
L 286.453446 228.96 
L 286.778182 126.144 
L 286.94055 186.624 
L 287.021734 174.528 
L 287.102918 168.48 
L 287.184101 174.528 
L 287.265285 120.096 
L 287.346469 204.768 
L 287.427653 138.24 
L 287.590021 228.96 
L 287.833573 168.48 
L 287.914757 198.72 
L 287.995941 186.624 
L 288.077125 144.288 
L 288.158309 204.768 
L 288.239493 144.288 
L 288.40186 210.816 
L 288.483044 156.384 
L 288.564228 247.104 
L 288.726596 162.432 
L 288.80778 180.576 
L 288.888964 156.384 
L 289.132516 295.488 
L 289.2137 138.24 
L 289.294884 180.576 
L 289.376068 204.768 
L 289.538436 162.432 
L 289.619619 156.384 
L 289.781987 222.912 
L 289.944355 162.432 
L 290.025539 156.384 
L 290.106723 168.48 
L 290.187907 156.384 
L 290.269091 168.48 
L 290.350275 228.96 
L 290.431459 156.384 
L 290.512643 192.672 
L 290.593827 162.432 
L 290.675011 186.624 
L 290.756195 120.096 
L 290.918562 204.768 
L 290.999746 120.096 
L 291.08093 198.72 
L 291.243298 132.192 
L 291.48685 216.864 
L 291.568034 59.616 
L 291.649218 174.528 
L 291.730402 95.904 
L 291.811586 126.144 
L 291.973953 216.864 
L 292.055137 180.576 
L 292.136321 235.008 
L 292.298689 156.384 
L 292.379873 192.672 
L 292.461057 138.24 
L 292.623425 192.672 
L 292.704609 138.24 
L 292.948161 235.008 
L 293.029345 222.912 
L 293.191712 174.528 
L 293.272896 156.384 
L 293.35408 168.48 
L 293.435264 198.72 
L 293.516448 95.904 
L 293.76 253.152 
L 293.841184 235.008 
L 294.084736 144.288 
L 294.16592 150.336 
L 294.247104 126.144 
L 294.328288 198.72 
L 294.490655 162.432 
L 294.571839 228.96 
L 294.734207 126.144 
L 294.896575 235.008 
L 295.058943 186.624 
L 295.140127 259.2 
L 295.221311 108 
L 295.464863 235.008 
L 295.62723 126.144 
L 295.708414 174.528 
L 295.789598 162.432 
L 295.870782 198.72 
L 295.951966 156.384 
L 296.03315 228.96 
L 296.114334 150.336 
L 296.195518 228.96 
L 296.276702 222.912 
L 296.43907 101.952 
L 296.601438 198.72 
L 296.682622 138.24 
L 296.844989 210.816 
L 296.926173 198.72 
L 297.007357 126.144 
L 297.088541 216.864 
L 297.169725 150.336 
L 297.250909 265.248 
L 297.332093 180.576 
L 297.413277 186.624 
L 297.575645 168.48 
L 297.656829 198.72 
L 297.738013 144.288 
L 297.819197 162.432 
L 297.900381 162.432 
L 297.981564 198.72 
L 298.143932 168.48 
L 298.225116 186.624 
L 298.3063 162.432 
L 298.468668 204.768 
L 298.549852 174.528 
L 298.71222 235.008 
L 298.874588 198.72 
L 298.955772 71.712 
L 299.036956 259.2 
L 299.11814 253.152 
L 299.280507 168.48 
L 299.361691 144.288 
L 299.442875 198.72 
L 299.524059 180.576 
L 299.605243 174.528 
L 299.686427 114.048 
L 299.767611 192.672 
L 299.848795 180.576 
L 299.929979 180.576 
L 300.011163 162.432 
L 300.092347 210.816 
L 300.173531 174.528 
L 300.335899 198.72 
L 300.417082 198.72 
L 300.57945 162.432 
L 300.660634 216.864 
L 300.904186 144.288 
L 300.98537 156.384 
L 301.066554 265.248 
L 301.147738 235.008 
L 301.228922 150.336 
L 301.472474 241.056 
L 301.553658 247.104 
L 301.634841 132.192 
L 301.716025 192.672 
L 301.797209 144.288 
L 301.878393 150.336 
L 301.959577 150.336 
L 302.040761 168.48 
L 302.121945 222.912 
L 302.203129 114.048 
L 302.284313 126.144 
L 302.365497 168.48 
L 302.446681 162.432 
L 302.609049 192.672 
L 302.690233 150.336 
L 302.8526 216.864 
L 302.933784 180.576 
L 303.014968 198.72 
L 303.096152 138.24 
L 303.177336 259.2 
L 303.25852 228.96 
L 303.420888 144.288 
L 303.502072 162.432 
L 303.583256 192.672 
L 303.66444 180.576 
L 303.826808 222.912 
L 303.907992 120.096 
L 304.070359 228.96 
L 304.232727 162.432 
L 304.313911 192.672 
L 304.395095 138.24 
L 304.476279 241.056 
L 304.638647 192.672 
L 304.719831 198.72 
L 304.801015 156.384 
L 304.882199 192.672 
L 304.963383 144.288 
L 305.044567 156.384 
L 305.206934 186.624 
L 305.288118 247.104 
L 305.369302 126.144 
L 305.53167 180.576 
L 305.612854 180.576 
L 305.775222 132.192 
L 305.856406 150.336 
L 305.93759 95.904 
L 306.018774 198.72 
L 306.181142 150.336 
L 306.34351 174.528 
L 306.424693 168.48 
L 306.587061 204.768 
L 306.911797 144.288 
L 306.992981 150.336 
L 307.074165 247.104 
L 307.155349 192.672 
L 307.236533 228.96 
L 307.317717 126.144 
L 307.398901 192.672 
L 307.480085 180.576 
L 307.561268 198.72 
L 307.642452 150.336 
L 307.80482 210.816 
L 307.886004 180.576 
L 307.967188 174.528 
L 308.129556 138.24 
L 308.21074 247.104 
L 308.373108 144.288 
L 308.454292 132.192 
L 308.697844 204.768 
L 308.779027 198.72 
L 308.860211 120.096 
L 309.103763 180.576 
L 309.184947 180.576 
L 309.266131 156.384 
L 309.347315 241.056 
L 309.509683 144.288 
L 309.672051 162.432 
L 309.834419 222.912 
L 309.915603 156.384 
L 309.996786 253.152 
L 310.159154 162.432 
L 310.240338 210.816 
L 310.321522 186.624 
L 310.402706 210.816 
L 310.48389 192.672 
L 310.565074 216.864 
L 310.646258 138.24 
L 310.727442 247.104 
L 310.88981 174.528 
L 310.970994 192.672 
L 311.052178 156.384 
L 311.133362 235.008 
L 311.214545 132.192 
L 311.376913 277.344 
L 311.458097 235.008 
L 311.539281 168.48 
L 311.620465 210.816 
L 311.701649 186.624 
L 311.782833 216.864 
L 311.864017 108 
L 312.107569 253.152 
L 312.188753 186.624 
L 312.269937 198.72 
L 312.351121 204.768 
L 312.432304 259.2 
L 312.513488 156.384 
L 312.594672 216.864 
L 312.675856 120.096 
L 312.919408 241.056 
L 313.000592 144.288 
L 313.081776 271.296 
L 313.325328 120.096 
L 313.568879 247.104 
L 313.731247 138.24 
L 313.812431 198.72 
L 313.974799 156.384 
L 314.055983 174.528 
L 314.218351 156.384 
L 314.299535 186.624 
L 314.380719 144.288 
L 314.461903 222.912 
L 314.543087 198.72 
L 314.624271 241.056 
L 314.705455 126.144 
L 314.786638 168.48 
L 314.867822 144.288 
L 314.949006 198.72 
L 315.03019 180.576 
L 315.192558 180.576 
L 315.273742 174.528 
L 315.354926 216.864 
L 315.517294 186.624 
L 315.598478 210.816 
L 315.679662 192.672 
L 315.760846 210.816 
L 315.84203 150.336 
L 316.004397 222.912 
L 316.085581 101.952 
L 316.166765 216.864 
L 316.247949 156.384 
L 316.329133 192.672 
L 316.491501 144.288 
L 316.572685 259.2 
L 316.735053 144.288 
L 316.816237 150.336 
L 316.978605 216.864 
L 317.059789 138.24 
L 317.222156 198.72 
L 317.30334 198.72 
L 317.384524 180.576 
L 317.465708 216.864 
L 317.546892 204.768 
L 317.628076 132.192 
L 317.790444 198.72 
L 317.952812 216.864 
L 318.11518 168.48 
L 318.196364 216.864 
L 318.277548 138.24 
L 318.358732 156.384 
L 318.439915 228.96 
L 318.602283 138.24 
L 318.683467 192.672 
L 318.927019 144.288 
L 319.008203 192.672 
L 319.089387 186.624 
L 319.170571 162.432 
L 319.332939 204.768 
L 319.495307 95.904 
L 319.57649 192.672 
L 319.657674 162.432 
L 319.820042 228.96 
L 320.063594 108 
L 320.144778 174.528 
L 320.225962 144.288 
L 320.307146 198.72 
L 320.38833 126.144 
L 320.469514 150.336 
L 320.550698 132.192 
L 320.713066 186.624 
L 320.794249 174.528 
L 320.875433 180.576 
L 320.956617 162.432 
L 321.037801 235.008 
L 321.118985 210.816 
L 321.200169 150.336 
L 321.281353 186.624 
L 321.362537 120.096 
L 321.524905 180.576 
L 321.606089 174.528 
L 321.768457 192.672 
L 321.930825 150.336 
L 322.093192 222.912 
L 322.25556 168.48 
L 322.417928 277.344 
L 322.580296 120.096 
L 322.66148 204.768 
L 322.742664 174.528 
L 322.823848 180.576 
L 322.986216 210.816 
L 323.0674 174.528 
L 323.148584 198.72 
L 323.310951 168.48 
L 323.392135 210.816 
L 323.554503 150.336 
L 323.716871 180.576 
L 323.798055 174.528 
L 323.960423 216.864 
L 324.122791 174.528 
L 324.203975 108 
L 324.366342 204.768 
L 324.447526 186.624 
L 324.52871 95.904 
L 324.691078 192.672 
L 324.772262 168.48 
L 324.853446 89.856 
L 324.93463 174.528 
L 325.015814 156.384 
L 325.096998 150.336 
L 325.178182 132.192 
L 325.34055 216.864 
L 325.502918 156.384 
L 325.584101 222.912 
L 325.665285 174.528 
L 325.827653 216.864 
L 325.990021 162.432 
L 326.071205 198.72 
L 326.152389 174.528 
L 326.233573 180.576 
L 326.314757 241.056 
L 326.558309 114.048 
L 326.639493 132.192 
L 326.80186 204.768 
L 326.883044 198.72 
L 326.964228 174.528 
L 327.126596 235.008 
L 327.20778 180.576 
L 327.288964 210.816 
L 327.370148 192.672 
L 327.451332 126.144 
L 327.532516 204.768 
L 327.6137 126.144 
L 327.694884 198.72 
L 327.776068 132.192 
L 327.857252 192.672 
L 327.938436 144.288 
L 328.019619 228.96 
L 328.181987 132.192 
L 328.344355 198.72 
L 328.425539 228.96 
L 328.506723 150.336 
L 328.587907 222.912 
L 328.669091 216.864 
L 328.750275 222.912 
L 328.912643 186.624 
L 328.993827 53.568 
L 329.075011 222.912 
L 329.156195 156.384 
L 329.237378 180.576 
L 329.318562 204.768 
L 329.399746 186.624 
L 329.48093 192.672 
L 329.643298 174.528 
L 329.724482 150.336 
L 329.88685 204.768 
L 330.130402 168.48 
L 330.211586 174.528 
L 330.29277 168.48 
L 330.373953 150.336 
L 330.455137 204.768 
L 330.536321 186.624 
L 330.617505 150.336 
L 330.698689 192.672 
L 330.779873 186.624 
L 330.861057 156.384 
L 330.942241 174.528 
L 331.023425 235.008 
L 331.185793 162.432 
L 331.266977 222.912 
L 331.348161 216.864 
L 331.429345 174.528 
L 331.510529 216.864 
L 331.75408 126.144 
L 331.916448 222.912 
L 331.997632 126.144 
L 332.16 235.008 
L 332.241184 180.576 
L 332.322368 198.72 
L 332.403552 150.336 
L 332.484736 198.72 
L 332.56592 101.952 
L 332.647104 204.768 
L 332.728288 168.48 
L 332.809471 228.96 
L 332.971839 150.336 
L 333.053023 186.624 
L 333.215391 114.048 
L 333.377759 271.296 
L 333.458943 156.384 
L 333.621311 222.912 
L 333.783679 216.864 
L 333.946047 156.384 
L 334.02723 186.624 
L 334.108414 174.528 
L 334.189598 204.768 
L 334.270782 198.72 
L 334.351966 180.576 
L 334.43315 222.912 
L 334.514334 168.48 
L 334.595518 192.672 
L 334.920254 95.904 
L 335.001438 174.528 
L 335.163805 120.096 
L 335.244989 156.384 
L 335.326173 108 
L 335.407357 204.768 
L 335.569725 120.096 
L 335.650909 222.912 
L 335.732093 198.72 
L 335.813277 144.288 
L 335.894461 210.816 
L 335.975645 186.624 
L 336.056829 138.24 
L 336.138013 198.72 
L 336.219197 192.672 
L 336.300381 180.576 
L 336.462748 253.152 
L 336.543932 156.384 
L 336.625116 241.056 
L 336.7063 174.528 
L 336.787484 204.768 
L 336.868668 192.672 
L 336.949852 89.856 
L 337.031036 235.008 
L 337.11222 144.288 
L 337.193404 174.528 
L 337.274588 180.576 
L 337.436956 228.96 
L 337.680507 144.288 
L 337.761691 204.768 
L 337.842875 144.288 
L 337.924059 198.72 
L 338.005243 168.48 
L 338.086427 192.672 
L 338.167611 162.432 
L 338.248795 216.864 
L 338.329979 168.48 
L 338.411163 198.72 
L 338.492347 168.48 
L 338.654715 216.864 
L 338.735899 204.768 
L 338.817082 228.96 
L 338.898266 77.76 
L 339.060634 168.48 
L 339.141818 180.576 
L 339.223002 216.864 
L 339.304186 174.528 
L 339.38537 198.72 
L 339.466554 132.192 
L 339.628922 216.864 
L 339.79129 144.288 
L 339.872474 156.384 
L 339.953658 132.192 
L 340.034841 162.432 
L 340.116025 241.056 
L 340.359577 126.144 
L 340.440761 222.912 
L 340.521945 150.336 
L 340.603129 174.528 
L 340.765497 228.96 
L 340.846681 144.288 
L 341.090233 259.2 
L 341.171416 210.816 
L 341.2526 247.104 
L 341.333784 241.056 
L 341.414968 132.192 
L 341.496152 192.672 
L 341.577336 180.576 
L 341.739704 174.528 
L 341.820888 198.72 
L 341.902072 83.808 
L 342.06444 144.288 
L 342.145624 120.096 
L 342.307992 241.056 
L 342.389175 186.624 
L 342.470359 192.672 
L 342.551543 210.816 
L 342.713911 132.192 
L 342.795095 204.768 
L 342.876279 192.672 
L 342.957463 144.288 
L 343.038647 156.384 
L 343.119831 204.768 
L 343.201015 198.72 
L 343.282199 186.624 
L 343.363383 241.056 
L 343.444567 132.192 
L 343.525751 192.672 
L 343.606934 150.336 
L 343.688118 198.72 
L 343.850486 126.144 
L 343.93167 192.672 
L 344.012854 126.144 
L 344.094038 144.288 
L 344.175222 144.288 
L 344.256406 150.336 
L 344.581142 235.008 
L 344.662326 108 
L 344.824693 192.672 
L 344.905877 186.624 
L 345.068245 216.864 
L 345.230613 108 
L 345.392981 204.768 
L 345.474165 126.144 
L 345.717717 265.248 
L 345.880085 132.192 
L 345.961268 204.768 
L 346.123636 144.288 
L 346.286004 259.2 
L 346.367188 168.48 
L 346.448372 247.104 
L 346.529556 138.24 
L 346.61074 168.48 
L 346.691924 132.192 
L 346.773108 228.96 
L 346.854292 222.912 
L 346.935476 186.624 
L 347.01666 210.816 
L 347.097844 138.24 
L 347.179027 174.528 
L 347.260211 114.048 
L 347.422579 216.864 
L 347.503763 126.144 
L 347.584947 204.768 
L 347.666131 138.24 
L 347.747315 174.528 
L 347.909683 150.336 
L 347.990867 228.96 
L 348.153235 156.384 
L 348.315603 210.816 
L 348.396786 180.576 
L 348.47797 210.816 
L 348.559154 138.24 
L 348.640338 210.816 
L 348.802706 120.096 
L 348.88389 271.296 
L 348.965074 222.912 
L 349.046258 126.144 
L 349.208626 192.672 
L 349.28981 210.816 
L 349.370994 180.576 
L 349.452178 186.624 
L 349.533362 192.672 
L 349.614545 210.816 
L 349.695729 114.048 
L 349.858097 204.768 
L 349.939281 138.24 
L 350.020465 174.528 
L 350.101649 168.48 
L 350.182833 174.528 
L 350.264017 168.48 
L 350.345201 138.24 
L 350.426385 204.768 
L 350.507569 168.48 
L 350.751121 259.2 
L 350.913488 150.336 
L 350.994672 174.528 
L 351.075856 168.48 
L 351.15704 180.576 
L 351.238224 162.432 
L 351.319408 174.528 
L 351.56296 253.152 
L 351.725328 126.144 
L 351.887696 241.056 
L 351.968879 228.96 
L 352.131247 174.528 
L 352.293615 204.768 
L 352.374799 186.624 
L 352.455983 204.768 
L 352.537167 192.672 
L 352.618351 162.432 
L 352.699535 216.864 
L 352.861903 126.144 
L 353.024271 204.768 
L 353.105455 168.48 
L 353.186638 216.864 
L 353.267822 204.768 
L 353.349006 222.912 
L 353.43019 174.528 
L 353.511374 192.672 
L 353.592558 162.432 
L 353.673742 216.864 
L 353.917294 168.48 
L 353.998478 174.528 
L 354.079662 156.384 
L 354.24203 186.624 
L 354.323214 210.816 
L 354.404397 156.384 
L 354.566765 235.008 
L 354.647949 228.96 
L 354.729133 156.384 
L 354.810317 186.624 
L 354.891501 156.384 
L 354.972685 204.768 
L 355.053869 156.384 
L 355.135053 259.2 
L 355.297421 101.952 
L 355.378605 259.2 
L 355.459789 186.624 
L 355.540973 210.816 
L 355.622156 198.72 
L 355.70334 162.432 
L 355.865708 204.768 
L 355.946892 192.672 
L 356.10926 235.008 
L 356.271628 144.288 
L 356.433996 216.864 
L 356.596364 174.528 
L 356.758732 216.864 
L 356.839915 144.288 
L 357.002283 210.816 
L 357.083467 174.528 
L 357.327019 235.008 
L 357.489387 162.432 
L 357.570571 259.2 
L 357.651755 186.624 
L 357.732939 216.864 
L 357.814123 126.144 
L 357.895307 132.192 
L 357.97649 228.96 
L 358.057674 204.768 
L 358.220042 150.336 
L 358.301226 162.432 
L 358.463594 259.2 
L 358.544778 228.96 
L 358.707146 126.144 
L 358.78833 216.864 
L 358.869514 198.72 
L 358.950698 198.72 
L 359.031882 186.624 
L 359.113066 101.952 
L 359.275433 241.056 
L 359.356617 120.096 
L 359.437801 222.912 
L 359.518985 192.672 
L 359.600169 204.768 
L 359.681353 138.24 
L 359.762537 156.384 
L 359.924905 222.912 
L 360.006089 156.384 
L 360.087273 222.912 
L 360.168457 156.384 
L 360.249641 222.912 
L 360.330825 204.768 
L 360.412008 138.24 
L 360.493192 241.056 
L 360.574376 210.816 
L 360.65556 228.96 
L 360.899112 138.24 
L 361.06148 204.768 
L 361.142664 186.624 
L 361.223848 132.192 
L 361.386216 247.104 
L 361.4674 126.144 
L 361.548584 132.192 
L 361.629767 186.624 
L 361.792135 126.144 
L 361.873319 259.2 
L 361.954503 156.384 
L 362.035687 216.864 
L 362.116871 168.48 
L 362.198055 210.816 
L 362.279239 174.528 
L 362.360423 180.576 
L 362.441607 192.672 
L 362.522791 186.624 
L 362.603975 114.048 
L 362.685159 216.864 
L 362.766342 162.432 
L 362.847526 222.912 
L 363.172262 126.144 
L 363.33463 192.672 
L 363.415814 247.104 
L 363.496998 168.48 
L 363.578182 186.624 
L 363.659366 150.336 
L 363.74055 162.432 
L 363.821734 192.672 
L 363.902918 168.48 
L 363.984101 186.624 
L 364.065285 150.336 
L 364.146469 192.672 
L 364.227653 132.192 
L 364.390021 198.72 
L 364.471205 144.288 
L 364.552389 162.432 
L 364.633573 120.096 
L 364.714757 186.624 
L 364.795941 168.48 
L 364.958309 210.816 
L 365.039493 174.528 
L 365.120677 241.056 
L 365.20186 156.384 
L 365.283044 241.056 
L 365.364228 210.816 
L 365.445412 253.152 
L 365.60778 144.288 
L 365.851332 180.576 
L 365.932516 222.912 
L 366.0137 186.624 
L 366.094884 222.912 
L 366.176068 162.432 
L 366.338436 241.056 
L 366.581987 150.336 
L 366.663171 168.48 
L 366.744355 150.336 
L 366.825539 216.864 
L 366.987907 162.432 
L 367.069091 222.912 
L 367.150275 156.384 
L 367.231459 186.624 
L 367.312643 162.432 
L 367.556195 228.96 
L 367.718562 156.384 
L 367.799746 144.288 
L 367.88093 192.672 
L 367.962114 156.384 
L 368.043298 198.72 
L 368.124482 168.48 
L 368.205666 174.528 
L 368.368034 228.96 
L 368.530402 71.712 
L 368.69277 222.912 
L 368.773953 259.2 
L 368.855137 126.144 
L 368.936321 150.336 
L 369.017505 210.816 
L 369.098689 138.24 
L 369.179873 186.624 
L 369.342241 144.288 
L 369.585793 192.672 
L 369.666977 174.528 
L 369.829345 216.864 
L 369.991712 126.144 
L 370.235264 216.864 
L 370.316448 192.672 
L 370.478816 210.816 
L 370.56 192.672 
L 370.722368 204.768 
L 370.803552 180.576 
L 370.884736 186.624 
L 371.128288 132.192 
L 371.209471 204.768 
L 371.290655 186.624 
L 371.371839 228.96 
L 371.453023 150.336 
L 371.615391 204.768 
L 371.696575 138.24 
L 371.858943 204.768 
L 371.940127 150.336 
L 372.021311 162.432 
L 372.102495 210.816 
L 372.183679 168.48 
L 372.264863 204.768 
L 372.346047 150.336 
L 372.42723 180.576 
L 372.508414 162.432 
L 372.589598 174.528 
L 372.670782 168.48 
L 372.751966 228.96 
L 372.995518 186.624 
L 373.076702 192.672 
L 373.157886 216.864 
L 373.23907 144.288 
L 373.320254 168.48 
L 373.401438 174.528 
L 373.482622 192.672 
L 373.726173 114.048 
L 373.969725 210.816 
L 374.213277 192.672 
L 374.294461 162.432 
L 374.375645 198.72 
L 374.456829 192.672 
L 374.619197 144.288 
L 374.700381 192.672 
L 374.781564 180.576 
L 374.862748 192.672 
L 374.943932 180.576 
L 375.025116 192.672 
L 375.1063 174.528 
L 375.187484 210.816 
L 375.268668 114.048 
L 375.349852 126.144 
L 375.431036 144.288 
L 375.51222 235.008 
L 375.593404 192.672 
L 375.674588 265.248 
L 375.755772 168.48 
L 375.836956 186.624 
L 375.91814 132.192 
L 375.999323 228.96 
L 376.161691 150.336 
L 376.242875 241.056 
L 376.324059 198.72 
L 376.405243 228.96 
L 376.486427 132.192 
L 376.648795 216.864 
L 376.729979 192.672 
L 376.811163 235.008 
L 376.892347 156.384 
L 376.973531 168.48 
L 377.054715 168.48 
L 377.135899 228.96 
L 377.217082 174.528 
L 377.298266 192.672 
L 377.37945 198.72 
L 377.460634 186.624 
L 377.541818 150.336 
L 377.704186 198.72 
L 377.78537 186.624 
L 377.866554 235.008 
L 378.028922 180.576 
L 378.110106 162.432 
L 378.19129 247.104 
L 378.272474 144.288 
L 378.353658 168.48 
L 378.434841 174.528 
L 378.516025 192.672 
L 378.597209 186.624 
L 378.678393 192.672 
L 378.759577 168.48 
L 378.921945 253.152 
L 379.003129 192.672 
L 379.084313 216.864 
L 379.165497 150.336 
L 379.246681 204.768 
L 379.409049 162.432 
L 379.490233 204.768 
L 379.6526 144.288 
L 379.814968 210.816 
L 379.977336 156.384 
L 380.139704 247.104 
L 380.46444 132.192 
L 380.545624 216.864 
L 380.626808 144.288 
L 380.707992 228.96 
L 380.870359 162.432 
L 380.951543 210.816 
L 381.032727 162.432 
L 381.113911 168.48 
L 381.195095 162.432 
L 381.276279 216.864 
L 381.357463 204.768 
L 381.438647 210.816 
L 381.519831 95.904 
L 381.601015 198.72 
L 381.682199 186.624 
L 381.844567 253.152 
L 381.925751 174.528 
L 382.006934 222.912 
L 382.088118 192.672 
L 382.169302 101.952 
L 382.33167 216.864 
L 382.412854 204.768 
L 382.494038 253.152 
L 382.656406 198.72 
L 382.73759 198.72 
L 382.818774 186.624 
L 382.899958 204.768 
L 382.981142 144.288 
L 383.062326 228.96 
L 383.14351 198.72 
L 383.224693 144.288 
L 383.305877 241.056 
L 383.549429 126.144 
L 383.792981 247.104 
L 383.955349 71.712 
L 384.117717 204.768 
L 384.198901 150.336 
L 384.280085 210.816 
L 384.523636 138.24 
L 384.60482 198.72 
L 384.686004 150.336 
L 384.767188 168.48 
L 384.848372 120.096 
L 384.929556 192.672 
L 385.01074 174.528 
L 385.091924 186.624 
L 385.254292 174.528 
L 385.41666 228.96 
L 385.497844 132.192 
L 385.579027 216.864 
L 385.741395 174.528 
L 385.822579 210.816 
L 385.903763 162.432 
L 385.984947 168.48 
L 386.147315 198.72 
L 386.228499 192.672 
L 386.309683 253.152 
L 386.553235 101.952 
L 386.634419 204.768 
L 386.715603 198.72 
L 386.796786 150.336 
L 386.959154 210.816 
L 387.121522 156.384 
L 387.28389 247.104 
L 387.365074 162.432 
L 387.446258 174.528 
L 387.527442 174.528 
L 387.608626 192.672 
L 387.68981 186.624 
L 387.852178 101.952 
L 388.095729 186.624 
L 388.176913 186.624 
L 388.258097 138.24 
L 388.339281 235.008 
L 388.420465 210.816 
L 388.501649 150.336 
L 388.582833 204.768 
L 388.664017 198.72 
L 388.745201 222.912 
L 388.826385 162.432 
L 388.907569 198.72 
L 389.151121 89.856 
L 389.232304 222.912 
L 389.313488 162.432 
L 389.475856 204.768 
L 389.638224 138.24 
L 389.800592 198.72 
L 389.881776 198.72 
L 389.96296 174.528 
L 390.125328 222.912 
L 390.206512 186.624 
L 390.368879 210.816 
L 390.531247 186.624 
L 390.612431 222.912 
L 390.693615 138.24 
L 390.774799 168.48 
L 390.937167 192.672 
L 391.018351 156.384 
L 391.099535 222.912 
L 391.180719 168.48 
L 391.261903 204.768 
L 391.343087 156.384 
L 391.586638 216.864 
L 391.667822 162.432 
L 391.83019 228.96 
L 391.911374 192.672 
L 391.992558 83.808 
L 392.154926 204.768 
L 392.23611 77.76 
L 392.398478 186.624 
L 392.479662 186.624 
L 392.560846 198.72 
L 392.64203 162.432 
L 392.804397 204.768 
L 392.885581 174.528 
L 392.966765 192.672 
L 393.047949 186.624 
L 393.129133 120.096 
L 393.291501 204.768 
L 393.372685 156.384 
L 393.535053 198.72 
L 393.616237 198.72 
L 393.697421 174.528 
L 393.859789 210.816 
L 393.940973 192.672 
L 394.022156 198.72 
L 394.10334 120.096 
L 394.184524 216.864 
L 394.265708 150.336 
L 394.428076 210.816 
L 394.50926 156.384 
L 394.590444 204.768 
L 394.671628 150.336 
L 394.752812 168.48 
L 394.833996 192.672 
L 394.91518 138.24 
L 394.996364 174.528 
L 395.077548 114.048 
L 395.239915 204.768 
L 395.321099 204.768 
L 395.564651 114.048 
L 395.645835 186.624 
L 395.727019 162.432 
L 395.808203 144.288 
L 396.051755 295.488 
L 396.214123 132.192 
L 396.457674 210.816 
L 396.538858 156.384 
L 396.620042 222.912 
L 396.78241 156.384 
L 396.863594 186.624 
L 397.18833 126.144 
L 397.431882 216.864 
L 397.513066 108 
L 397.594249 228.96 
L 397.675433 216.864 
L 397.756617 247.104 
L 397.837801 174.528 
L 398.081353 241.056 
L 398.243721 222.912 
L 398.406089 168.48 
L 398.487273 204.768 
L 398.487273 204.768 
" clip-path="url(#pb00a82d1b1)" style="fill: none; stroke: #1f77b4; stroke-width: 1.5; stroke-linecap: square"/>
   </g>
   <g id="patch_3">
    <path d="M 57.6 307.584 
L 57.6 41.472 
" style="fill: none; stroke: #000000; stroke-width: 0.8; stroke-linejoin: miter; stroke-linecap: square"/>
   </g>
   <g id="patch_4">
    <path d="M 414.72 307.584 
L 414.72 41.472 
" style="fill: none; stroke: #000000; stroke-width: 0.8; stroke-linejoin: miter; stroke-linecap: square"/>
   </g>
   <g id="patch_5">
    <path d="M 57.6 307.584 
L 414.72 307.584 
" style="fill: none; stroke: #000000; stroke-width: 0.8; stroke-linejoin: miter; stroke-linecap: square"/>
   </g>
   <g id="patch_6">
    <path d="M 57.6 41.472 
L 414.72 41.472 
" style="fill: none; stroke: #000000; stroke-width: 0.8; stroke-linejoin: miter; stroke-linecap: square"/>
   </g>
   <g id="text_21">
    <!-- Output firing rate -->
    <g transform="translate(183.793125 35.472) scale(0.12 -0.12)">
     <defs>
      <path id="DejaVuSans-4f" d="M 2522 4238 
Q 1834 4238 1429 3725 
Q 1025 3213 1025 2328 
Q 1025 1447 1429 934 
Q 1834 422 2522 422 
Q 3209 422 3611 934 
Q 4013 1447 4013 2328 
Q 4013 3213 3611 3725 
Q 3209 4238 2522 4238 
z
M 2522 4750 
Q 3503 4750 4090 4092 
Q 4678 3434 4678 2328 
Q 4678 1225 4090 567 
Q 3503 -91 2522 -91 
Q 1538 -91 948 565 
Q 359 1222 359 2328 
Q 359 3434 948 4092 
Q 1538 4750 2522 4750 
z
" transform="scale(0.015625)"/>
      <path id="DejaVuSans-75" d="M 544 1381 
L 544 3500 
L 1119 3500 
L 1119 1403 
Q 1119 906 1312 657 
Q 1506 409 1894 409 
Q 2359 409 2629 706 
Q 2900 1003 2900 1516 
L 2900 3500 
L 3475 3500 
L 3475 0 
L 2900 0 
L 2900 538 
Q 2691 219 2414 64 
Q 2138 -91 1772 -91 
Q 1169 -91 856 284 
Q 544 659 544 1381 
z
M 1991 3584 
L 1991 3584 
z
" transform="scale(0.015625)"/>
      <path id="DejaVuSans-70" d="M 1159 525 
L 1159 -1331 
L 581 -1331 
L 581 3500 
L 1159 3500 
L 1159 2969 
Q 1341 3281 1617 3432 
Q 1894 3584 2278 3584 
Q 2916 3584 3314 3078 
Q 3713 2572 3713 1747 
Q 3713 922 3314 415 
Q 2916 -91 2278 -91 
Q 1894 -91 1617 61 
Q 1341 213 1159 525 
z
M 3116 1747 
Q 3116 2381 2855 2742 
Q 2594 3103 2138 3103 
Q 1681 3103 1420 2742 
Q 1159 2381 1159 1747 
Q 1159 1113 1420 752 
Q 1681 391 2138 391 
Q 2594 391 2855 752 
Q 3116 1113 3116 1747 
z
" transform="scale(0.015625)"/>
      <path id="DejaVuSans-66" d="M 2375 4863 
L 2375 4384 
L 1825 4384 
Q 1516 4384 1395 4259 
Q 1275 4134 1275 3809 
L 1275 3500 
L 2222 3500 
L 2222 3053 
L 1275 3053 
L 1275 0 
L 697 0 
L 697 3053 
L 147 3053 
L 147 3500 
L 697 3500 
L 697 3744 
Q 697 4328 969 4595 
Q 1241 4863 1831 4863 
L 2375 4863 
z
" transform="scale(0.015625)"/>
     </defs>
     <use xlink:href="#DejaVuSans-4f"/>
     <use xlink:href="#DejaVuSans-75" x="78.710938"/>
     <use xlink:href="#DejaVuSans-74" x="142.089844"/>
     <use xlink:href="#DejaVuSans-70" x="181.298828"/>
     <use xlink:href="#DejaVuSans-75" x="244.775391"/>
     <use xlink:href="#DejaVuSans-74" x="308.154297"/>
     <use xlink:href="#DejaVuSans-20" x="347.363281"/>
     <use xlink:href="#DejaVuSans-66" x="379.150391"/>
     <use xlink:href="#DejaVuSans-69" x="414.355469"/>
     <use xlink:href="#DejaVuSans-72" x="442.138672"/>
     <use xlink:href="#DejaVuSans-69" x="483.251953"/>
     <use xlink:href="#DejaVuSans-6e" x="511.035156"/>
     <use xlink:href="#DejaVuSans-67" x="574.414062"/>
     <use xlink:href="#DejaVuSans-20" x="637.890625"/>
     <use xlink:href="#DejaVuSans-72" x="669.677734"/>
     <use xlink:href="#DejaVuSans-61" x="710.791016"/>
     <use xlink:href="#DejaVuSans-74" x="772.070312"/>
     <use xlink:href="#DejaVuSans-65" x="811.279297"/>
    </g>
   </g>
  </g>
 </g>
 <defs>
  <clipPath id="pb00a82d1b1">
   <rect x="57.6" y="41.472" width="357.12" height="266.112"/>
  </clipPath>
 </defs>
</svg>
