<?xml version="1.0" encoding="utf-8" standalone="no"?>
<!DOCTYPE svg PUBLIC "-//W3C//DTD SVG 1.1//EN"
  "http://www.w3.org/Graphics/SVG/1.1/DTD/svg11.dtd">
<svg xmlns:xlink="http://www.w3.org/1999/xlink" width="460.8pt" height="345.6pt" viewBox="0 0 460.8 345.6" xmlns="http://www.w3.org/2000/svg" version="1.1">
 <metadata>
  <rdf:RDF xmlns:dc="http://purl.org/dc/elements/1.1/" xmlns:cc="http://creativecommons.org/ns#" xmlns:rdf="http://www.w3.org/1999/02/22-rdf-syntax-ns#">
   <cc:Work>
    <dc:type rdf:resource="http://purl.org/dc/dcmitype/StillImage"/>
    <dc:date>2023-05-03T18:28:50.534751</dc:date>
    <dc:format>image/svg+xml</dc:format>
    <dc:creator>
     <cc:Agent>
      <dc:title>Matplotlib v3.6.2, https://matplotlib.org/</dc:title>
     </cc:Agent>
    </dc:creator>
   </cc:Work>
  </rdf:RDF>
 </metadata>
 <defs>
  <style type="text/css">*{stroke-linejoin: round; stroke-linecap: butt}</style>
 </defs>
 <g id="figure_1">
  <g id="patch_1">
   <path d="M 0 345.6 
L 460.8 345.6 
L 460.8 0 
L 0 0 
z
" style="fill: #ffffff"/>
  </g>
  <g id="axes_1">
   <g id="patch_2">
    <path d="M 57.6 307.584 
L 414.72 307.584 
L 414.72 41.472 
L 57.6 41.472 
z
" style="fill: #ffffff"/>
   </g>
   <g id="matplotlib.axis_1">
    <g id="xtick_1">
     <g id="line2d_1">
      <defs>
       <path id="me737252879" d="M 0 0 
L 0 3.5 
" style="stroke: #000000; stroke-width: 0.8"/>
      </defs>
      <g>
       <use xlink:href="#me737252879" x="73.832727" y="307.584" style="stroke: #000000; stroke-width: 0.8"/>
      </g>
     </g>
     <g id="text_1">
      <!-- 0 -->
      <g transform="translate(70.651477 322.182437) scale(0.1 -0.1)">
       <defs>
        <path id="DejaVuSans-30" d="M 2034 4250 
Q 1547 4250 1301 3770 
Q 1056 3291 1056 2328 
Q 1056 1369 1301 889 
Q 1547 409 2034 409 
Q 2525 409 2770 889 
Q 3016 1369 3016 2328 
Q 3016 3291 2770 3770 
Q 2525 4250 2034 4250 
z
M 2034 4750 
Q 2819 4750 3233 4129 
Q 3647 3509 3647 2328 
Q 3647 1150 3233 529 
Q 2819 -91 2034 -91 
Q 1250 -91 836 529 
Q 422 1150 422 2328 
Q 422 3509 836 4129 
Q 1250 4750 2034 4750 
z
" transform="scale(0.015625)"/>
       </defs>
       <use xlink:href="#DejaVuSans-30"/>
      </g>
     </g>
    </g>
    <g id="xtick_2">
     <g id="line2d_2">
      <g>
       <use xlink:href="#me737252879" x="114.434847" y="307.584" style="stroke: #000000; stroke-width: 0.8"/>
      </g>
     </g>
     <g id="text_2">
      <!-- 500 -->
      <g transform="translate(104.891097 322.182437) scale(0.1 -0.1)">
       <defs>
        <path id="DejaVuSans-35" d="M 691 4666 
L 3169 4666 
L 3169 4134 
L 1269 4134 
L 1269 2991 
Q 1406 3038 1543 3061 
Q 1681 3084 1819 3084 
Q 2600 3084 3056 2656 
Q 3513 2228 3513 1497 
Q 3513 744 3044 326 
Q 2575 -91 1722 -91 
Q 1428 -91 1123 -41 
Q 819 9 494 109 
L 494 744 
Q 775 591 1075 516 
Q 1375 441 1709 441 
Q 2250 441 2565 725 
Q 2881 1009 2881 1497 
Q 2881 1984 2565 2268 
Q 2250 2553 1709 2553 
Q 1456 2553 1204 2497 
Q 953 2441 691 2322 
L 691 4666 
z
" transform="scale(0.015625)"/>
       </defs>
       <use xlink:href="#DejaVuSans-35"/>
       <use xlink:href="#DejaVuSans-30" x="63.623047"/>
       <use xlink:href="#DejaVuSans-30" x="127.246094"/>
      </g>
     </g>
    </g>
    <g id="xtick_3">
     <g id="line2d_3">
      <g>
       <use xlink:href="#me737252879" x="155.036966" y="307.584" style="stroke: #000000; stroke-width: 0.8"/>
      </g>
     </g>
     <g id="text_3">
      <!-- 1000 -->
      <g transform="translate(142.311966 322.182437) scale(0.1 -0.1)">
       <defs>
        <path id="DejaVuSans-31" d="M 794 531 
L 1825 531 
L 1825 4091 
L 703 3866 
L 703 4441 
L 1819 4666 
L 2450 4666 
L 2450 531 
L 3481 531 
L 3481 0 
L 794 0 
L 794 531 
z
" transform="scale(0.015625)"/>
       </defs>
       <use xlink:href="#DejaVuSans-31"/>
       <use xlink:href="#DejaVuSans-30" x="63.623047"/>
       <use xlink:href="#DejaVuSans-30" x="127.246094"/>
       <use xlink:href="#DejaVuSans-30" x="190.869141"/>
      </g>
     </g>
    </g>
    <g id="xtick_4">
     <g id="line2d_4">
      <g>
       <use xlink:href="#me737252879" x="195.639085" y="307.584" style="stroke: #000000; stroke-width: 0.8"/>
      </g>
     </g>
     <g id="text_4">
      <!-- 1500 -->
      <g transform="translate(182.914085 322.182437) scale(0.1 -0.1)">
       <use xlink:href="#DejaVuSans-31"/>
       <use xlink:href="#DejaVuSans-35" x="63.623047"/>
       <use xlink:href="#DejaVuSans-30" x="127.246094"/>
       <use xlink:href="#DejaVuSans-30" x="190.869141"/>
      </g>
     </g>
    </g>
    <g id="xtick_5">
     <g id="line2d_5">
      <g>
       <use xlink:href="#me737252879" x="236.241204" y="307.584" style="stroke: #000000; stroke-width: 0.8"/>
      </g>
     </g>
     <g id="text_5">
      <!-- 2000 -->
      <g transform="translate(223.516204 322.182437) scale(0.1 -0.1)">
       <defs>
        <path id="DejaVuSans-32" d="M 1228 531 
L 3431 531 
L 3431 0 
L 469 0 
L 469 531 
Q 828 903 1448 1529 
Q 2069 2156 2228 2338 
Q 2531 2678 2651 2914 
Q 2772 3150 2772 3378 
Q 2772 3750 2511 3984 
Q 2250 4219 1831 4219 
Q 1534 4219 1204 4116 
Q 875 4013 500 3803 
L 500 4441 
Q 881 4594 1212 4672 
Q 1544 4750 1819 4750 
Q 2544 4750 2975 4387 
Q 3406 4025 3406 3419 
Q 3406 3131 3298 2873 
Q 3191 2616 2906 2266 
Q 2828 2175 2409 1742 
Q 1991 1309 1228 531 
z
" transform="scale(0.015625)"/>
       </defs>
       <use xlink:href="#DejaVuSans-32"/>
       <use xlink:href="#DejaVuSans-30" x="63.623047"/>
       <use xlink:href="#DejaVuSans-30" x="127.246094"/>
       <use xlink:href="#DejaVuSans-30" x="190.869141"/>
      </g>
     </g>
    </g>
    <g id="xtick_6">
     <g id="line2d_6">
      <g>
       <use xlink:href="#me737252879" x="276.843323" y="307.584" style="stroke: #000000; stroke-width: 0.8"/>
      </g>
     </g>
     <g id="text_6">
      <!-- 2500 -->
      <g transform="translate(264.118323 322.182437) scale(0.1 -0.1)">
       <use xlink:href="#DejaVuSans-32"/>
       <use xlink:href="#DejaVuSans-35" x="63.623047"/>
       <use xlink:href="#DejaVuSans-30" x="127.246094"/>
       <use xlink:href="#DejaVuSans-30" x="190.869141"/>
      </g>
     </g>
    </g>
    <g id="xtick_7">
     <g id="line2d_7">
      <g>
       <use xlink:href="#me737252879" x="317.445443" y="307.584" style="stroke: #000000; stroke-width: 0.8"/>
      </g>
     </g>
     <g id="text_7">
      <!-- 3000 -->
      <g transform="translate(304.720443 322.182437) scale(0.1 -0.1)">
       <defs>
        <path id="DejaVuSans-33" d="M 2597 2516 
Q 3050 2419 3304 2112 
Q 3559 1806 3559 1356 
Q 3559 666 3084 287 
Q 2609 -91 1734 -91 
Q 1441 -91 1130 -33 
Q 819 25 488 141 
L 488 750 
Q 750 597 1062 519 
Q 1375 441 1716 441 
Q 2309 441 2620 675 
Q 2931 909 2931 1356 
Q 2931 1769 2642 2001 
Q 2353 2234 1838 2234 
L 1294 2234 
L 1294 2753 
L 1863 2753 
Q 2328 2753 2575 2939 
Q 2822 3125 2822 3475 
Q 2822 3834 2567 4026 
Q 2313 4219 1838 4219 
Q 1578 4219 1281 4162 
Q 984 4106 628 3988 
L 628 4550 
Q 988 4650 1302 4700 
Q 1616 4750 1894 4750 
Q 2613 4750 3031 4423 
Q 3450 4097 3450 3541 
Q 3450 3153 3228 2886 
Q 3006 2619 2597 2516 
z
" transform="scale(0.015625)"/>
       </defs>
       <use xlink:href="#DejaVuSans-33"/>
       <use xlink:href="#DejaVuSans-30" x="63.623047"/>
       <use xlink:href="#DejaVuSans-30" x="127.246094"/>
       <use xlink:href="#DejaVuSans-30" x="190.869141"/>
      </g>
     </g>
    </g>
    <g id="xtick_8">
     <g id="line2d_8">
      <g>
       <use xlink:href="#me737252879" x="358.047562" y="307.584" style="stroke: #000000; stroke-width: 0.8"/>
      </g>
     </g>
     <g id="text_8">
      <!-- 3500 -->
      <g transform="translate(345.322562 322.182437) scale(0.1 -0.1)">
       <use xlink:href="#DejaVuSans-33"/>
       <use xlink:href="#DejaVuSans-35" x="63.623047"/>
       <use xlink:href="#DejaVuSans-30" x="127.246094"/>
       <use xlink:href="#DejaVuSans-30" x="190.869141"/>
      </g>
     </g>
    </g>
    <g id="xtick_9">
     <g id="line2d_9">
      <g>
       <use xlink:href="#me737252879" x="398.649681" y="307.584" style="stroke: #000000; stroke-width: 0.8"/>
      </g>
     </g>
     <g id="text_9">
      <!-- 4000 -->
      <g transform="translate(385.924681 322.182437) scale(0.1 -0.1)">
       <defs>
        <path id="DejaVuSans-34" d="M 2419 4116 
L 825 1625 
L 2419 1625 
L 2419 4116 
z
M 2253 4666 
L 3047 4666 
L 3047 1625 
L 3713 1625 
L 3713 1100 
L 3047 1100 
L 3047 0 
L 2419 0 
L 2419 1100 
L 313 1100 
L 313 1709 
L 2253 4666 
z
" transform="scale(0.015625)"/>
       </defs>
       <use xlink:href="#DejaVuSans-34"/>
       <use xlink:href="#DejaVuSans-30" x="63.623047"/>
       <use xlink:href="#DejaVuSans-30" x="127.246094"/>
       <use xlink:href="#DejaVuSans-30" x="190.869141"/>
      </g>
     </g>
    </g>
    <g id="text_10">
     <!-- Image shown -->
     <g transform="translate(202.820156 335.860562) scale(0.1 -0.1)">
      <defs>
       <path id="DejaVuSans-49" d="M 628 4666 
L 1259 4666 
L 1259 0 
L 628 0 
L 628 4666 
z
" transform="scale(0.015625)"/>
       <path id="DejaVuSans-6d" d="M 3328 2828 
Q 3544 3216 3844 3400 
Q 4144 3584 4550 3584 
Q 5097 3584 5394 3201 
Q 5691 2819 5691 2113 
L 5691 0 
L 5113 0 
L 5113 2094 
Q 5113 2597 4934 2840 
Q 4756 3084 4391 3084 
Q 3944 3084 3684 2787 
Q 3425 2491 3425 1978 
L 3425 0 
L 2847 0 
L 2847 2094 
Q 2847 2600 2669 2842 
Q 2491 3084 2119 3084 
Q 1678 3084 1418 2786 
Q 1159 2488 1159 1978 
L 1159 0 
L 581 0 
L 581 3500 
L 1159 3500 
L 1159 2956 
Q 1356 3278 1631 3431 
Q 1906 3584 2284 3584 
Q 2666 3584 2933 3390 
Q 3200 3197 3328 2828 
z
" transform="scale(0.015625)"/>
       <path id="DejaVuSans-61" d="M 2194 1759 
Q 1497 1759 1228 1600 
Q 959 1441 959 1056 
Q 959 750 1161 570 
Q 1363 391 1709 391 
Q 2188 391 2477 730 
Q 2766 1069 2766 1631 
L 2766 1759 
L 2194 1759 
z
M 3341 1997 
L 3341 0 
L 2766 0 
L 2766 531 
Q 2569 213 2275 61 
Q 1981 -91 1556 -91 
Q 1019 -91 701 211 
Q 384 513 384 1019 
Q 384 1609 779 1909 
Q 1175 2209 1959 2209 
L 2766 2209 
L 2766 2266 
Q 2766 2663 2505 2880 
Q 2244 3097 1772 3097 
Q 1472 3097 1187 3025 
Q 903 2953 641 2809 
L 641 3341 
Q 956 3463 1253 3523 
Q 1550 3584 1831 3584 
Q 2591 3584 2966 3190 
Q 3341 2797 3341 1997 
z
" transform="scale(0.015625)"/>
       <path id="DejaVuSans-67" d="M 2906 1791 
Q 2906 2416 2648 2759 
Q 2391 3103 1925 3103 
Q 1463 3103 1205 2759 
Q 947 2416 947 1791 
Q 947 1169 1205 825 
Q 1463 481 1925 481 
Q 2391 481 2648 825 
Q 2906 1169 2906 1791 
z
M 3481 434 
Q 3481 -459 3084 -895 
Q 2688 -1331 1869 -1331 
Q 1566 -1331 1297 -1286 
Q 1028 -1241 775 -1147 
L 775 -588 
Q 1028 -725 1275 -790 
Q 1522 -856 1778 -856 
Q 2344 -856 2625 -561 
Q 2906 -266 2906 331 
L 2906 616 
Q 2728 306 2450 153 
Q 2172 0 1784 0 
Q 1141 0 747 490 
Q 353 981 353 1791 
Q 353 2603 747 3093 
Q 1141 3584 1784 3584 
Q 2172 3584 2450 3431 
Q 2728 3278 2906 2969 
L 2906 3500 
L 3481 3500 
L 3481 434 
z
" transform="scale(0.015625)"/>
       <path id="DejaVuSans-65" d="M 3597 1894 
L 3597 1613 
L 953 1613 
Q 991 1019 1311 708 
Q 1631 397 2203 397 
Q 2534 397 2845 478 
Q 3156 559 3463 722 
L 3463 178 
Q 3153 47 2828 -22 
Q 2503 -91 2169 -91 
Q 1331 -91 842 396 
Q 353 884 353 1716 
Q 353 2575 817 3079 
Q 1281 3584 2069 3584 
Q 2775 3584 3186 3129 
Q 3597 2675 3597 1894 
z
M 3022 2063 
Q 3016 2534 2758 2815 
Q 2500 3097 2075 3097 
Q 1594 3097 1305 2825 
Q 1016 2553 972 2059 
L 3022 2063 
z
" transform="scale(0.015625)"/>
       <path id="DejaVuSans-20" transform="scale(0.015625)"/>
       <path id="DejaVuSans-73" d="M 2834 3397 
L 2834 2853 
Q 2591 2978 2328 3040 
Q 2066 3103 1784 3103 
Q 1356 3103 1142 2972 
Q 928 2841 928 2578 
Q 928 2378 1081 2264 
Q 1234 2150 1697 2047 
L 1894 2003 
Q 2506 1872 2764 1633 
Q 3022 1394 3022 966 
Q 3022 478 2636 193 
Q 2250 -91 1575 -91 
Q 1294 -91 989 -36 
Q 684 19 347 128 
L 347 722 
Q 666 556 975 473 
Q 1284 391 1588 391 
Q 1994 391 2212 530 
Q 2431 669 2431 922 
Q 2431 1156 2273 1281 
Q 2116 1406 1581 1522 
L 1381 1569 
Q 847 1681 609 1914 
Q 372 2147 372 2553 
Q 372 3047 722 3315 
Q 1072 3584 1716 3584 
Q 2034 3584 2315 3537 
Q 2597 3491 2834 3397 
z
" transform="scale(0.015625)"/>
       <path id="DejaVuSans-68" d="M 3513 2113 
L 3513 0 
L 2938 0 
L 2938 2094 
Q 2938 2591 2744 2837 
Q 2550 3084 2163 3084 
Q 1697 3084 1428 2787 
Q 1159 2491 1159 1978 
L 1159 0 
L 581 0 
L 581 4863 
L 1159 4863 
L 1159 2956 
Q 1366 3272 1645 3428 
Q 1925 3584 2291 3584 
Q 2894 3584 3203 3211 
Q 3513 2838 3513 2113 
z
" transform="scale(0.015625)"/>
       <path id="DejaVuSans-6f" d="M 1959 3097 
Q 1497 3097 1228 2736 
Q 959 2375 959 1747 
Q 959 1119 1226 758 
Q 1494 397 1959 397 
Q 2419 397 2687 759 
Q 2956 1122 2956 1747 
Q 2956 2369 2687 2733 
Q 2419 3097 1959 3097 
z
M 1959 3584 
Q 2709 3584 3137 3096 
Q 3566 2609 3566 1747 
Q 3566 888 3137 398 
Q 2709 -91 1959 -91 
Q 1206 -91 779 398 
Q 353 888 353 1747 
Q 353 2609 779 3096 
Q 1206 3584 1959 3584 
z
" transform="scale(0.015625)"/>
       <path id="DejaVuSans-77" d="M 269 3500 
L 844 3500 
L 1563 769 
L 2278 3500 
L 2956 3500 
L 3675 769 
L 4391 3500 
L 4966 3500 
L 4050 0 
L 3372 0 
L 2619 2869 
L 1863 0 
L 1184 0 
L 269 3500 
z
" transform="scale(0.015625)"/>
       <path id="DejaVuSans-6e" d="M 3513 2113 
L 3513 0 
L 2938 0 
L 2938 2094 
Q 2938 2591 2744 2837 
Q 2550 3084 2163 3084 
Q 1697 3084 1428 2787 
Q 1159 2491 1159 1978 
L 1159 0 
L 581 0 
L 581 3500 
L 1159 3500 
L 1159 2956 
Q 1366 3272 1645 3428 
Q 1925 3584 2291 3584 
Q 2894 3584 3203 3211 
Q 3513 2838 3513 2113 
z
" transform="scale(0.015625)"/>
      </defs>
      <use xlink:href="#DejaVuSans-49"/>
      <use xlink:href="#DejaVuSans-6d" x="29.492188"/>
      <use xlink:href="#DejaVuSans-61" x="126.904297"/>
      <use xlink:href="#DejaVuSans-67" x="188.183594"/>
      <use xlink:href="#DejaVuSans-65" x="251.660156"/>
      <use xlink:href="#DejaVuSans-20" x="313.183594"/>
      <use xlink:href="#DejaVuSans-73" x="344.970703"/>
      <use xlink:href="#DejaVuSans-68" x="397.070312"/>
      <use xlink:href="#DejaVuSans-6f" x="460.449219"/>
      <use xlink:href="#DejaVuSans-77" x="521.630859"/>
      <use xlink:href="#DejaVuSans-6e" x="603.417969"/>
     </g>
    </g>
   </g>
   <g id="matplotlib.axis_2">
    <g id="ytick_1">
     <g id="line2d_10">
      <defs>
       <path id="m0cafdea345" d="M 0 0 
L -3.5 0 
" style="stroke: #000000; stroke-width: 0.8"/>
      </defs>
      <g>
       <use xlink:href="#m0cafdea345" x="57.6" y="273.798621" style="stroke: #000000; stroke-width: 0.8"/>
      </g>
     </g>
     <g id="text_11">
      <!-- 0.2 -->
      <g transform="translate(34.696875 277.597839) scale(0.1 -0.1)">
       <defs>
        <path id="DejaVuSans-2e" d="M 684 794 
L 1344 794 
L 1344 0 
L 684 0 
L 684 794 
z
" transform="scale(0.015625)"/>
       </defs>
       <use xlink:href="#DejaVuSans-30"/>
       <use xlink:href="#DejaVuSans-2e" x="63.623047"/>
       <use xlink:href="#DejaVuSans-32" x="95.410156"/>
      </g>
     </g>
    </g>
    <g id="ytick_2">
     <g id="line2d_11">
      <g>
       <use xlink:href="#m0cafdea345" x="57.6" y="218.740966" style="stroke: #000000; stroke-width: 0.8"/>
      </g>
     </g>
     <g id="text_12">
      <!-- 0.4 -->
      <g transform="translate(34.696875 222.540184) scale(0.1 -0.1)">
       <use xlink:href="#DejaVuSans-30"/>
       <use xlink:href="#DejaVuSans-2e" x="63.623047"/>
       <use xlink:href="#DejaVuSans-34" x="95.410156"/>
      </g>
     </g>
    </g>
    <g id="ytick_3">
     <g id="line2d_12">
      <g>
       <use xlink:href="#m0cafdea345" x="57.6" y="163.68331" style="stroke: #000000; stroke-width: 0.8"/>
      </g>
     </g>
     <g id="text_13">
      <!-- 0.6 -->
      <g transform="translate(34.696875 167.482529) scale(0.1 -0.1)">
       <defs>
        <path id="DejaVuSans-36" d="M 2113 2584 
Q 1688 2584 1439 2293 
Q 1191 2003 1191 1497 
Q 1191 994 1439 701 
Q 1688 409 2113 409 
Q 2538 409 2786 701 
Q 3034 994 3034 1497 
Q 3034 2003 2786 2293 
Q 2538 2584 2113 2584 
z
M 3366 4563 
L 3366 3988 
Q 3128 4100 2886 4159 
Q 2644 4219 2406 4219 
Q 1781 4219 1451 3797 
Q 1122 3375 1075 2522 
Q 1259 2794 1537 2939 
Q 1816 3084 2150 3084 
Q 2853 3084 3261 2657 
Q 3669 2231 3669 1497 
Q 3669 778 3244 343 
Q 2819 -91 2113 -91 
Q 1303 -91 875 529 
Q 447 1150 447 2328 
Q 447 3434 972 4092 
Q 1497 4750 2381 4750 
Q 2619 4750 2861 4703 
Q 3103 4656 3366 4563 
z
" transform="scale(0.015625)"/>
       </defs>
       <use xlink:href="#DejaVuSans-30"/>
       <use xlink:href="#DejaVuSans-2e" x="63.623047"/>
       <use xlink:href="#DejaVuSans-36" x="95.410156"/>
      </g>
     </g>
    </g>
    <g id="ytick_4">
     <g id="line2d_13">
      <g>
       <use xlink:href="#m0cafdea345" x="57.6" y="108.625655" style="stroke: #000000; stroke-width: 0.8"/>
      </g>
     </g>
     <g id="text_14">
      <!-- 0.8 -->
      <g transform="translate(34.696875 112.424874) scale(0.1 -0.1)">
       <defs>
        <path id="DejaVuSans-38" d="M 2034 2216 
Q 1584 2216 1326 1975 
Q 1069 1734 1069 1313 
Q 1069 891 1326 650 
Q 1584 409 2034 409 
Q 2484 409 2743 651 
Q 3003 894 3003 1313 
Q 3003 1734 2745 1975 
Q 2488 2216 2034 2216 
z
M 1403 2484 
Q 997 2584 770 2862 
Q 544 3141 544 3541 
Q 544 4100 942 4425 
Q 1341 4750 2034 4750 
Q 2731 4750 3128 4425 
Q 3525 4100 3525 3541 
Q 3525 3141 3298 2862 
Q 3072 2584 2669 2484 
Q 3125 2378 3379 2068 
Q 3634 1759 3634 1313 
Q 3634 634 3220 271 
Q 2806 -91 2034 -91 
Q 1263 -91 848 271 
Q 434 634 434 1313 
Q 434 1759 690 2068 
Q 947 2378 1403 2484 
z
M 1172 3481 
Q 1172 3119 1398 2916 
Q 1625 2713 2034 2713 
Q 2441 2713 2670 2916 
Q 2900 3119 2900 3481 
Q 2900 3844 2670 4047 
Q 2441 4250 2034 4250 
Q 1625 4250 1398 4047 
Q 1172 3844 1172 3481 
z
" transform="scale(0.015625)"/>
       </defs>
       <use xlink:href="#DejaVuSans-30"/>
       <use xlink:href="#DejaVuSans-2e" x="63.623047"/>
       <use xlink:href="#DejaVuSans-38" x="95.410156"/>
      </g>
     </g>
    </g>
    <g id="ytick_5">
     <g id="line2d_14">
      <g>
       <use xlink:href="#m0cafdea345" x="57.6" y="53.568" style="stroke: #000000; stroke-width: 0.8"/>
      </g>
     </g>
     <g id="text_15">
      <!-- 1.0 -->
      <g transform="translate(34.696875 57.367219) scale(0.1 -0.1)">
       <use xlink:href="#DejaVuSans-31"/>
       <use xlink:href="#DejaVuSans-2e" x="63.623047"/>
       <use xlink:href="#DejaVuSans-30" x="95.410156"/>
      </g>
     </g>
    </g>
    <g id="text_16">
     <!-- Homogeneity of output spikes -->
     <g transform="translate(28.617187 249.723312) rotate(-90) scale(0.1 -0.1)">
      <defs>
       <path id="DejaVuSans-48" d="M 628 4666 
L 1259 4666 
L 1259 2753 
L 3553 2753 
L 3553 4666 
L 4184 4666 
L 4184 0 
L 3553 0 
L 3553 2222 
L 1259 2222 
L 1259 0 
L 628 0 
L 628 4666 
z
" transform="scale(0.015625)"/>
       <path id="DejaVuSans-69" d="M 603 3500 
L 1178 3500 
L 1178 0 
L 603 0 
L 603 3500 
z
M 603 4863 
L 1178 4863 
L 1178 4134 
L 603 4134 
L 603 4863 
z
" transform="scale(0.015625)"/>
       <path id="DejaVuSans-74" d="M 1172 4494 
L 1172 3500 
L 2356 3500 
L 2356 3053 
L 1172 3053 
L 1172 1153 
Q 1172 725 1289 603 
Q 1406 481 1766 481 
L 2356 481 
L 2356 0 
L 1766 0 
Q 1100 0 847 248 
Q 594 497 594 1153 
L 594 3053 
L 172 3053 
L 172 3500 
L 594 3500 
L 594 4494 
L 1172 4494 
z
" transform="scale(0.015625)"/>
       <path id="DejaVuSans-79" d="M 2059 -325 
Q 1816 -950 1584 -1140 
Q 1353 -1331 966 -1331 
L 506 -1331 
L 506 -850 
L 844 -850 
Q 1081 -850 1212 -737 
Q 1344 -625 1503 -206 
L 1606 56 
L 191 3500 
L 800 3500 
L 1894 763 
L 2988 3500 
L 3597 3500 
L 2059 -325 
z
" transform="scale(0.015625)"/>
       <path id="DejaVuSans-66" d="M 2375 4863 
L 2375 4384 
L 1825 4384 
Q 1516 4384 1395 4259 
Q 1275 4134 1275 3809 
L 1275 3500 
L 2222 3500 
L 2222 3053 
L 1275 3053 
L 1275 0 
L 697 0 
L 697 3053 
L 147 3053 
L 147 3500 
L 697 3500 
L 697 3744 
Q 697 4328 969 4595 
Q 1241 4863 1831 4863 
L 2375 4863 
z
" transform="scale(0.015625)"/>
       <path id="DejaVuSans-75" d="M 544 1381 
L 544 3500 
L 1119 3500 
L 1119 1403 
Q 1119 906 1312 657 
Q 1506 409 1894 409 
Q 2359 409 2629 706 
Q 2900 1003 2900 1516 
L 2900 3500 
L 3475 3500 
L 3475 0 
L 2900 0 
L 2900 538 
Q 2691 219 2414 64 
Q 2138 -91 1772 -91 
Q 1169 -91 856 284 
Q 544 659 544 1381 
z
M 1991 3584 
L 1991 3584 
z
" transform="scale(0.015625)"/>
       <path id="DejaVuSans-70" d="M 1159 525 
L 1159 -1331 
L 581 -1331 
L 581 3500 
L 1159 3500 
L 1159 2969 
Q 1341 3281 1617 3432 
Q 1894 3584 2278 3584 
Q 2916 3584 3314 3078 
Q 3713 2572 3713 1747 
Q 3713 922 3314 415 
Q 2916 -91 2278 -91 
Q 1894 -91 1617 61 
Q 1341 213 1159 525 
z
M 3116 1747 
Q 3116 2381 2855 2742 
Q 2594 3103 2138 3103 
Q 1681 3103 1420 2742 
Q 1159 2381 1159 1747 
Q 1159 1113 1420 752 
Q 1681 391 2138 391 
Q 2594 391 2855 752 
Q 3116 1113 3116 1747 
z
" transform="scale(0.015625)"/>
       <path id="DejaVuSans-6b" d="M 581 4863 
L 1159 4863 
L 1159 1991 
L 2875 3500 
L 3609 3500 
L 1753 1863 
L 3688 0 
L 2938 0 
L 1159 1709 
L 1159 0 
L 581 0 
L 581 4863 
z
" transform="scale(0.015625)"/>
      </defs>
      <use xlink:href="#DejaVuSans-48"/>
      <use xlink:href="#DejaVuSans-6f" x="75.195312"/>
      <use xlink:href="#DejaVuSans-6d" x="136.376953"/>
      <use xlink:href="#DejaVuSans-6f" x="233.789062"/>
      <use xlink:href="#DejaVuSans-67" x="294.970703"/>
      <use xlink:href="#DejaVuSans-65" x="358.447266"/>
      <use xlink:href="#DejaVuSans-6e" x="419.970703"/>
      <use xlink:href="#DejaVuSans-65" x="483.349609"/>
      <use xlink:href="#DejaVuSans-69" x="544.873047"/>
      <use xlink:href="#DejaVuSans-74" x="572.65625"/>
      <use xlink:href="#DejaVuSans-79" x="611.865234"/>
      <use xlink:href="#DejaVuSans-20" x="671.044922"/>
      <use xlink:href="#DejaVuSans-6f" x="702.832031"/>
      <use xlink:href="#DejaVuSans-66" x="764.013672"/>
      <use xlink:href="#DejaVuSans-20" x="799.21875"/>
      <use xlink:href="#DejaVuSans-6f" x="831.005859"/>
      <use xlink:href="#DejaVuSans-75" x="892.1875"/>
      <use xlink:href="#DejaVuSans-74" x="955.566406"/>
      <use xlink:href="#DejaVuSans-70" x="994.775391"/>
      <use xlink:href="#DejaVuSans-75" x="1058.251953"/>
      <use xlink:href="#DejaVuSans-74" x="1121.630859"/>
      <use xlink:href="#DejaVuSans-20" x="1160.839844"/>
      <use xlink:href="#DejaVuSans-73" x="1192.626953"/>
      <use xlink:href="#DejaVuSans-70" x="1244.726562"/>
      <use xlink:href="#DejaVuSans-69" x="1308.203125"/>
      <use xlink:href="#DejaVuSans-6b" x="1335.986328"/>
      <use xlink:href="#DejaVuSans-65" x="1390.271484"/>
      <use xlink:href="#DejaVuSans-73" x="1451.794922"/>
     </g>
    </g>
   </g>
   <g id="line2d_15">
    <path d="M 73.832727 284.454941 
L 73.913932 282.974897 
L 73.995136 287.145931 
L 74.07634 275.14149 
L 74.157544 276.77471 
L 74.238748 271.2378 
L 74.401157 286.504233 
L 74.482361 287.145931 
L 74.64477 284.214934 
L 74.807178 273.798621 
L 74.969587 277.239724 
L 75.050791 282.974897 
L 75.131995 270.900849 
L 75.213199 278.145278 
L 75.294404 266.694407 
L 75.456812 287.145931 
L 75.538016 281.664 
L 75.619221 284.041905 
L 75.700425 264.622345 
L 75.862833 291.316966 
L 76.025242 271.900081 
L 76.106446 281.664 
L 76.18765 279.44556 
L 76.268854 285.389706 
L 76.431263 271.900081 
L 76.512467 275.916223 
L 76.593671 287.563034 
L 76.674876 286.964582 
L 76.75608 285.060414 
L 76.837284 290.621793 
L 76.999693 280.680828 
L 77.162101 293.562907 
L 77.32451 286.504233 
L 77.405714 288.372706 
L 77.568122 270.461793 
L 77.730531 285.389706 
L 77.892939 276.77471 
L 77.974143 291.316966 
L 78.055348 285.389706 
L 78.136552 260.034207 
L 78.217756 289.529379 
L 78.29896 281.855839 
L 78.380165 288.570187 
L 78.542573 276.420414 
L 78.704982 292.634134 
L 78.786186 272.674995 
L 78.86739 275.328 
L 78.948594 281.664 
L 79.029799 273.798621 
L 79.111003 284.214934 
L 79.192207 281.855839 
L 79.273411 268.636966 
L 79.517024 292.151172 
L 79.679432 280.680828 
L 79.760637 284.214934 
L 79.841841 275.574674 
L 79.923045 289.529379 
L 80.004249 288.570187 
L 80.085454 286.033655 
L 80.166658 288.570187 
L 80.329066 281.664 
L 80.410271 262.119724 
L 80.735088 289.529379 
L 80.816292 289.529379 
L 80.897496 279.44556 
L 80.9787 281.39278 
L 81.141109 280.275992 
L 81.222313 280.275992 
L 81.303517 275.574674 
L 81.384721 284.454941 
L 81.465926 278.803862 
L 81.54713 286.504233 
L 81.628334 273.798621 
L 81.790743 288.372706 
L 82.034355 268.636966 
L 82.11556 273.798621 
L 82.277968 286.504233 
L 82.440377 271.2378 
L 82.521581 281.664 
L 82.602785 281.39278 
L 82.683989 284.041905 
L 82.765194 273.798621 
L 82.846398 284.214934 
L 82.927602 276.77471 
L 83.008806 280.275992 
L 83.171215 266.916414 
L 83.252419 281.664 
L 83.414827 264.622345 
L 83.496032 289.529379 
L 83.577236 278.145278 
L 83.65844 278.803862 
L 83.739644 282.974897 
L 83.820849 277.239724 
L 83.902053 288.570187 
L 84.064461 267.681103 
L 84.22687 289.529379 
L 84.308074 273.798621 
L 84.389278 287.145931 
L 84.470483 264.622345 
L 84.632891 286.504233 
L 84.714095 269.865931 
L 84.795299 288.570187 
L 84.876504 284.214934 
L 84.957708 280.980054 
L 85.038912 287.563034 
L 85.120116 257.81414 
L 85.282525 291.655158 
L 85.363729 281.664 
L 85.526138 289.529379 
L 85.607342 281.39278 
L 85.688546 289.529379 
L 85.76975 269.334486 
L 85.850955 286.504233 
L 85.932159 254.454039 
L 86.013363 284.454941 
L 86.094567 281.664 
L 86.175772 289.529379 
L 86.256976 278.803862 
L 86.33818 279.697655 
L 86.419384 275.916223 
L 86.500588 281.39278 
L 86.581793 278.145278 
L 86.662997 287.145931 
L 86.825405 279.697655 
L 86.90661 280.275992 
L 87.069018 279.44556 
L 87.150222 282.974897 
L 87.231427 276.77471 
L 87.312631 287.563034 
L 87.393835 263.311448 
L 87.556244 279.916138 
L 87.637448 274.995526 
L 87.718652 284.041905 
L 87.799856 282.974897 
L 87.881061 285.389706 
L 87.962265 284.454941 
L 88.043469 286.033655 
L 88.205877 273.798621 
L 88.287082 289.529379 
L 88.44949 254.454039 
L 88.530694 281.664 
L 88.611899 269.334486 
L 88.774307 278.145278 
L 88.855511 260.034207 
L 88.936716 282.974897 
L 89.01792 263.656421 
L 89.180328 290.621793 
L 89.261533 273.798621 
L 89.342737 284.454941 
L 89.58635 271.900081 
L 89.667554 280.275992 
L 89.748758 271.900081 
L 89.911166 281.998697 
L 89.992371 275.916223 
L 90.073575 276.77471 
L 90.154779 275.328 
L 90.235983 276.420414 
L 90.317188 260.034207 
L 90.479596 295.488 
L 90.5608 270.900849 
L 90.642005 273.798621 
L 90.723209 279.44556 
L 90.885617 269.334486 
L 90.966822 280.680828 
L 91.12923 262.407382 
L 91.210434 280.275992 
L 91.291639 278.803862 
L 91.372843 288.372706 
L 91.454047 276.420414 
L 91.535251 290.443958 
L 91.69766 272.179278 
L 91.860068 278.803862 
L 92.022477 285.389706 
L 92.266089 276.420414 
L 92.347294 250.202483 
L 92.428498 273.798621 
L 92.509702 260.034207 
L 92.590906 286.504233 
L 92.672111 285.060414 
L 92.753315 289.529379 
L 92.834519 271.900081 
L 92.996928 291.655158 
L 93.078132 270.461793 
L 93.159336 275.328 
L 93.24054 287.145931 
L 93.321745 284.454941 
L 93.484153 281.855839 
L 93.565357 273.798621 
L 93.646561 284.214934 
L 93.80897 272.179278 
L 93.890174 285.060414 
L 93.971378 260.034207 
L 94.052583 292.151172 
L 94.133787 261.438739 
L 94.214991 282.974897 
L 94.296195 270.900849 
L 94.3774 280.980054 
L 94.539808 262.119724 
L 94.783421 289.529379 
L 94.945829 271.2378 
L 95.108238 269.334486 
L 95.189442 261.712794 
L 95.270646 278.293123 
L 95.35185 269.334486 
L 95.433055 281.664 
L 95.595463 269.865931 
L 95.676667 282.974897 
L 95.757872 272.179278 
L 95.839076 272.386886 
L 96.082689 286.964582 
L 96.163893 280.680828 
L 96.245097 281.39278 
L 96.326301 278.803862 
L 96.407506 281.664 
L 96.48871 278.803862 
L 96.569914 286.033655 
L 96.651118 280.275992 
L 96.813527 282.974897 
L 96.894731 276.77471 
L 96.975935 282.974897 
L 97.057139 267.681103 
L 97.219548 277.239724 
L 97.381956 293.335208 
L 97.544365 275.14149 
L 97.625569 288.570187 
L 97.706773 275.574674 
L 97.787978 278.803862 
L 97.869182 279.44556 
L 97.950386 278.145278 
L 98.03159 267.681103 
L 98.193999 288.570187 
L 98.275203 273.798621 
L 98.356407 275.328 
L 98.437612 282.974897 
L 98.518816 266.290759 
L 98.60002 284.041905 
L 98.681224 280.680828 
L 98.762428 276.77471 
L 98.843633 281.855839 
L 98.924837 256.756966 
L 99.006041 284.454941 
L 99.16845 261.894263 
L 99.412062 275.14149 
L 99.493267 273.798621 
L 99.574471 280.275992 
L 99.655675 272.54731 
L 99.736879 277.639852 
L 99.818084 275.574674 
L 99.899288 285.842483 
L 99.980492 264.622345 
L 100.061696 268.636966 
L 100.142901 281.664 
L 100.224105 279.304386 
L 100.305309 285.389706 
L 100.386513 255.98585 
L 100.548922 286.504233 
L 100.71133 281.664 
L 100.792534 269.865931 
L 100.954943 290.443958 
L 101.036147 275.574674 
L 101.117351 280.275992 
L 101.198556 276.1415 
L 101.27976 281.855839 
L 101.442168 272.54731 
L 101.523373 273.798621 
L 101.604577 264.082564 
L 101.84819 285.060414 
L 101.929394 262.119724 
L 102.091802 287.563034 
L 102.335415 272.54731 
L 102.416619 280.680828 
L 102.497823 279.44556 
L 102.579028 255.98585 
L 102.660232 267.681103 
L 102.741436 256.756966 
L 102.903845 280.275992 
L 102.985049 257.041943 
L 103.147457 278.803862 
L 103.228662 284.214934 
L 103.39107 254.454039 
L 103.472274 270.900849 
L 103.553479 270.461793 
L 103.715887 243.211034 
L 103.9595 273.798621 
L 104.040704 239.792422 
L 104.203112 291.655158 
L 104.284317 249.167564 
L 104.446725 276.77471 
L 104.609134 258.067862 
L 104.771542 269.865931 
L 104.852746 254.454039 
L 104.933951 260.034207 
L 105.015155 280.275992 
L 105.096359 248.933873 
L 105.177563 277.876966 
L 105.258768 260.034207 
L 105.339972 273.798621 
L 105.421176 266.916414 
L 105.50238 267.681103 
L 105.664789 270.900849 
L 105.745993 269.334486 
L 105.827197 278.803862 
L 105.908401 277.639852 
L 105.989606 265.328212 
L 106.07081 269.334486 
L 106.152014 277.239724 
L 106.233218 264.622345 
L 106.314423 268.292855 
L 106.476831 266.916414 
L 106.558035 226.423429 
L 106.801648 255.446069 
L 106.882852 262.119724 
L 106.964057 256.411993 
L 107.045261 257.81414 
L 107.126465 232.505379 
L 107.207669 266.694407 
L 107.288874 222.293072 
L 107.370078 276.420414 
L 107.451282 240.764028 
L 107.532486 243.421983 
L 107.61369 239.792422 
L 107.694895 285.389706 
L 107.776099 258.569908 
L 107.857303 266.290759 
L 107.938507 281.664 
L 108.019712 243.421983 
L 108.100916 273.798621 
L 108.18212 252.38731 
L 108.344529 269.480373 
L 108.506937 253.777655 
L 108.588141 255.446069 
L 108.669346 260.034207 
L 108.75055 226.606345 
L 108.912958 260.034207 
L 108.994163 257.81414 
L 109.075367 252.031641 
L 109.156571 260.034207 
L 109.237775 258.067862 
L 109.318979 255.98585 
L 109.400184 245.629588 
L 109.562592 261.712794 
L 109.643796 231.173339 
L 109.725001 278.803862 
L 109.806205 211.858759 
L 109.887409 254.740202 
L 109.968613 247.013815 
L 110.049818 266.694407 
L 110.131022 210.875586 
L 110.29343 250.202483 
L 110.374635 234.471724 
L 110.455839 271.900081 
L 110.537043 260.034207 
L 110.618247 258.433694 
L 110.699452 251.431448 
L 110.780656 265.328212 
L 111.024268 234.471724 
L 111.105473 191.212138 
L 111.267881 260.034207 
L 111.349085 254.998446 
L 111.43029 215.50228 
L 111.592698 239.573592 
L 111.755107 252.914683 
L 111.836311 247.889136 
L 111.917515 251.057415 
L 111.998719 176.569145 
L 112.079924 250.202483 
L 112.161128 237.093517 
L 112.323536 260.034207 
L 112.404741 227.917241 
L 112.485945 232.825482 
L 112.567149 254.998446 
L 112.648353 250.202483 
L 112.729558 214.152828 
L 112.810762 232.133368 
L 112.891966 195.383172 
L 112.97317 235.008 
L 113.054374 220.70731 
L 113.135579 203.725241 
L 113.297987 237.093517 
L 113.379191 234.855401 
L 113.5416 213.412805 
L 113.622804 241.569749 
L 113.704008 220.409379 
L 113.785213 166.921996 
L 113.866417 221.799724 
L 113.947621 210.875586 
L 114.028825 212.06731 
L 114.11003 240.053606 
L 114.191234 218.740966 
L 114.272438 228.751448 
L 114.353642 205.451187 
L 114.434847 253.152 
L 114.516051 212.06731 
L 114.597255 235.008 
L 114.759663 215.917496 
L 114.922072 262.407382 
L 115.003276 234.225931 
L 115.08448 243.648 
L 115.165685 247.289379 
L 115.409297 168.804953 
L 115.490502 222.97617 
L 115.571706 208.417655 
L 115.65291 232.133368 
L 115.734114 226.423429 
L 115.815319 238.966227 
L 115.896523 199.63933 
L 116.058931 225.623172 
L 116.140136 158.825282 
L 116.22134 230.539034 
L 116.383748 155.817931 
L 116.627361 258.067862 
L 116.708565 223.426723 
L 116.789769 225.623172 
L 116.870974 255.446069 
L 116.952178 243.211034 
L 117.033382 168.804953 
L 117.114586 213.412805 
L 117.195791 212.06731 
L 117.276995 208.417655 
L 117.358199 232.505379 
L 117.520608 180.051802 
L 117.601812 258.269538 
L 117.683016 86.340414 
L 117.845425 240.370759 
L 118.007833 197.46869 
L 118.089037 197.766621 
L 118.170241 136.154483 
L 118.251446 220.409379 
L 118.33265 175.01871 
L 118.413854 191.212138 
L 118.576263 214.152828 
L 118.657467 203.010207 
L 118.738671 220.409379 
L 118.819875 208.417655 
L 118.90108 155.817931 
L 119.063488 234.225931 
L 119.144692 167.274027 
L 119.225897 207.21727 
L 119.388305 166.921996 
L 119.550714 233.929284 
L 119.631918 126.012283 
L 119.713122 156.801103 
L 119.794326 221.799724 
L 119.87553 202.372473 
L 120.037939 217.252921 
L 120.119143 166.921996 
L 120.200347 191.212138 
L 120.281552 147.745568 
L 120.525164 233.103832 
L 120.606369 172.611579 
L 120.768777 215.50228 
L 120.849981 184.955586 
L 120.931186 86.602593 
L 121.093594 169.800828 
L 121.174798 160.997571 
L 121.256003 222.293072 
L 121.337207 135.41046 
L 121.418411 197.766621 
L 121.499615 151.885241 
L 121.58082 187.279448 
L 121.662024 156.801103 
L 121.743228 226.423429 
L 121.986841 118.767855 
L 122.149249 212.06731 
L 122.311658 68.861793 
L 122.392862 82.545713 
L 122.474066 230.034844 
L 122.55527 191.212138 
L 122.636475 97.03457 
L 122.717679 207.405566 
L 122.798883 153.672828 
L 122.880087 194.140737 
L 122.961292 124.939034 
L 123.042496 178.103172 
L 123.1237 87.979034 
L 123.286109 215.917496 
L 123.448517 180.624127 
L 123.529721 81.096828 
L 123.69213 182.609379 
L 123.773334 194.140737 
L 123.854538 158.439724 
L 123.935742 182.609379 
L 124.016947 162.234425 
L 124.098151 205.700995 
L 124.179355 108.625655 
L 124.260559 237.093517 
L 124.422968 106.003862 
L 124.504172 149.320444 
L 124.585376 135.134897 
L 124.666581 122.390069 
L 124.828989 241.569749 
L 124.991398 79.176212 
L 125.23501 218.740966 
L 125.316214 126.012283 
L 125.397419 140.50114 
L 125.478623 139.595586 
L 125.641031 187.682801 
L 125.722236 159.448106 
L 125.80344 203.010207 
L 125.884644 89.790142 
L 125.965848 160.624552 
L 126.047053 142.053517 
L 126.128257 204.976552 
L 126.290665 85.029517 
L 126.534278 198.456566 
L 126.696687 150.290908 
L 126.777891 70.422384 
L 126.940299 232.505379 
L 127.021503 200.815217 
L 127.102708 84.73271 
L 127.183912 178.699034 
L 127.265116 116.491034 
L 127.427525 199.308852 
L 127.508729 182.609379 
L 127.589933 89.790142 
L 127.671137 90.769118 
L 127.833546 211.712329 
L 128.077159 102.726621 
L 128.158363 172.859586 
L 128.239567 67.685347 
L 128.320771 140.50114 
L 128.401976 138.776276 
L 128.48318 165.403862 
L 128.564384 74.744021 
L 128.645588 81.096828 
L 128.726792 161.289499 
L 128.970405 80.038027 
L 129.051609 71.920552 
L 129.214018 183.115424 
L 129.295222 113.089789 
L 129.376426 217.252921 
L 129.457631 99.449379 
L 129.538835 237.093517 
L 129.782448 59.970053 
L 129.944856 183.565241 
L 130.107265 110.03739 
L 130.188469 145.330759 
L 130.269673 73.231448 
L 130.432081 180.051802 
L 130.513286 95.920042 
L 130.59449 206.505931 
L 130.675694 114.743172 
L 130.756898 167.48039 
L 130.919307 79.176212 
L 131.000511 93.854089 
L 131.16292 200.388414 
L 131.406532 93.854089 
L 131.487737 179.741793 
L 131.568941 126.438426 
L 131.650145 201.28366 
L 131.731349 129.272276 
L 131.812554 183.115424 
L 131.893758 69.761428 
L 131.974962 86.936276 
L 132.218575 218.740966 
L 132.299779 191.212138 
L 132.380983 111.523426 
L 132.462187 212.623448 
L 132.624596 61.008224 
L 132.7058 60.626674 
L 132.787004 66.081103 
L 132.949413 142.053517 
L 133.030617 59.186128 
L 133.111821 71.521583 
L 133.193026 85.029517 
L 133.27423 77.858142 
L 133.355434 155.817931 
L 133.436638 96.390621 
L 133.517843 99.449379 
L 133.680251 112.558345 
L 133.761455 63.060699 
L 133.84266 198.094345 
L 133.923864 195.383172 
L 134.005068 107.42875 
L 134.086272 173.258555 
L 134.167476 63.060699 
L 134.248681 127.970237 
L 134.329885 120.304552 
L 134.411089 66.996696 
L 134.492293 191.212138 
L 134.654702 97.969335 
L 134.735906 73.231448 
L 134.81711 120.304552 
L 134.898315 68.861793 
L 134.979519 75.301285 
L 135.223132 85.954856 
L 135.304336 130.036966 
L 135.466744 70.252138 
L 135.547949 167.48039 
L 135.629153 91.802483 
L 135.710357 94.861241 
L 135.791561 194.140737 
L 135.95397 67.685347 
L 136.035174 102.148284 
L 136.116378 79.785931 
L 136.197582 110.03739 
L 136.278787 61.433379 
L 136.441195 213.412805 
L 136.522399 60.812428 
L 136.684808 158.825282 
L 136.766012 151.885241 
L 136.847216 106.282776 
L 137.009625 157.731131 
L 137.090829 100.568437 
L 137.172033 195.652271 
L 137.253238 78.038069 
L 137.334442 90.769118 
L 137.415646 53.568 
L 137.49685 119.637186 
L 137.659259 79.176212 
L 137.740463 187.041103 
L 137.821667 53.568 
L 137.902871 102.508138 
L 137.984076 116.654897 
L 138.06528 66.372106 
L 138.146484 73.231448 
L 138.390097 165.403862 
L 138.471301 234.471724 
L 138.552505 197.46869 
L 138.714914 53.568 
L 138.796118 106.849602 
L 138.877322 84.155586 
L 138.958527 145.330759 
L 139.039731 85.029517 
L 139.120935 169.800828 
L 139.283343 61.910069 
L 139.364548 73.711045 
L 139.445752 65.537055 
L 139.60816 175.918345 
L 139.770569 60.812428 
L 139.851773 84.155586 
L 139.932977 59.685517 
L 140.014182 84.850759 
L 140.17659 53.568 
L 140.257794 152.977655 
L 140.338999 71.139592 
L 140.420203 81.802695 
L 140.501407 103.620414 
L 140.582611 187.854964 
L 140.663816 85.578265 
L 140.74502 94.05157 
L 140.826224 62.448267 
L 140.907428 183.565241 
L 141.069837 73.231448 
L 141.151041 140.50114 
L 141.232245 61.664714 
L 141.313449 65.537055 
L 141.394654 84.155586 
L 141.475858 134.53514 
L 141.557062 74.214621 
L 141.638266 179.414069 
L 141.719471 108.625655 
L 141.800675 151.448276 
L 141.963083 59.824552 
L 142.044288 81.096828 
L 142.125492 180.624127 
L 142.2879 66.081103 
L 142.369105 59.685517 
L 142.450309 66.372106 
L 142.612717 178.699034 
L 142.693922 188.153379 
L 142.775126 53.568 
L 142.85633 79.785931 
L 142.937534 185.476966 
L 143.018738 147.283158 
L 143.181147 53.568 
L 143.262351 147.745568 
L 143.343555 53.568 
L 143.505964 198.456566 
L 143.587168 66.676966 
L 143.749577 173.565454 
L 143.911985 72.337655 
L 143.993189 61.433379 
L 144.155598 126.012283 
L 144.236802 53.568 
L 144.318006 191.212138 
L 144.399211 83.328895 
L 144.480415 133.095724 
L 144.561619 60.812428 
L 144.642823 131.213411 
L 144.724027 66.676966 
L 144.805232 86.936276 
L 144.886436 87.139741 
L 144.96764 105.649566 
L 145.048844 76.50869 
L 145.130049 81.802695 
L 145.211253 178.103172 
L 145.292457 53.568 
L 145.373661 91.10731 
L 145.454866 62.448267 
L 145.53607 111.186476 
L 145.617274 73.711045 
L 145.698478 103.11989 
L 145.860887 60.282348 
L 145.942091 62.170759 
L 146.023295 109.876966 
L 146.1045 72.774159 
L 146.185704 151.448276 
L 146.348112 59.824552 
L 146.429316 140.50114 
L 146.510521 134.140178 
L 146.591725 113.997134 
L 146.672929 53.568 
L 146.754133 102.978716 
L 146.835338 84.155586 
L 146.916542 113.997134 
L 146.997746 110.03739 
L 147.160155 61.214897 
L 147.241359 66.676966 
L 147.484972 53.568 
L 147.566176 82.545713 
L 147.64738 66.996696 
L 147.728584 194.569312 
L 147.972197 53.568 
L 148.053401 53.568 
L 148.134605 59.303172 
L 148.459422 149.918897 
L 148.540627 107.42875 
L 148.621831 126.603665 
L 148.703035 122.390069 
L 148.784239 110.244998 
L 148.865444 59.824552 
L 148.946648 59.970053 
L 149.027852 53.568 
L 149.109056 69.761428 
L 149.190261 180.051802 
L 149.352669 53.568 
L 149.433873 60.122483 
L 149.515078 53.568 
L 149.596282 165.171355 
L 149.677486 61.214897 
L 149.75869 81.096828 
L 149.839894 53.568 
L 149.921099 71.521583 
L 150.002303 63.060699 
L 150.164711 198.859034 
L 150.32712 67.332414 
L 150.408324 81.65864 
L 150.489528 53.568 
L 150.733141 129.272276 
L 150.814345 113.997134 
L 150.89555 71.521583 
L 150.976754 170.711947 
L 151.139162 53.568 
L 151.220367 53.568 
L 151.382775 70.773517 
L 151.463979 136.794688 
L 151.545184 60.450207 
L 151.626388 68.448447 
L 151.788796 53.568 
L 152.032409 76.50869 
L 152.113613 129.272276 
L 152.194817 114.743172 
L 152.357226 67.685347 
L 152.43843 53.568 
L 152.519634 59.186128 
L 152.600839 74.214621 
L 152.763247 61.433379 
L 152.844451 61.214897 
L 152.925656 66.081103 
L 153.088064 58.965809 
L 153.169268 60.626674 
L 153.250473 53.568 
L 153.331677 59.552528 
L 153.494085 91.10731 
L 153.656494 71.521583 
L 153.737698 87.979034 
L 153.818902 53.568 
L 153.900106 61.214897 
L 153.981311 102.978716 
L 154.143719 71.920552 
L 154.224923 191.212138 
L 154.387332 61.910069 
L 154.468536 147.568875 
L 154.630945 61.214897 
L 154.712149 53.568 
L 154.793353 77.506111 
L 154.874557 145.330759 
L 155.11817 53.568 
L 155.199374 78.594207 
L 155.280578 59.970053 
L 155.361783 107.096276 
L 155.442987 69.298759 
L 155.524191 96.390621 
L 155.605395 66.372106 
L 155.6866 67.685347 
L 155.767804 143.662345 
L 155.849008 59.425197 
L 155.930212 111.523426 
L 156.011417 59.970053 
L 156.092621 62.170759 
L 156.173825 59.970053 
L 156.255029 100.568437 
L 156.417438 53.568 
L 156.498642 91.10731 
L 156.579846 77.506111 
L 156.661051 67.332414 
L 156.823459 107.282786 
L 156.904663 68.056857 
L 156.985867 178.699034 
L 157.067072 65.537055 
L 157.148276 191.212138 
L 157.22948 59.685517 
L 157.310684 129.509593 
L 157.391889 126.978207 
L 157.473093 59.970053 
L 157.554297 149.918897 
L 157.635501 67.332414 
L 157.716706 69.761428 
L 157.79791 124.939034 
L 157.879114 79.785931 
L 157.960318 86.602593 
L 158.041523 85.954856 
L 158.285135 53.568 
L 158.36634 155.304972 
L 158.447544 68.056857 
L 158.528748 82.545713 
L 158.609952 75.888671 
L 158.691156 95.920042 
L 158.853565 60.812428 
L 159.015973 60.122483 
L 159.097178 71.920552 
L 159.178382 70.773517 
L 159.259586 72.774159 
L 159.34079 99.449379 
L 159.421995 68.315586 
L 159.503199 91.802483 
L 159.665607 59.970053 
L 159.746812 88.861369 
L 159.828016 53.568 
L 159.90922 60.450207 
L 160.071629 85.029517 
L 160.234037 53.568 
L 160.315241 140.854526 
L 160.396445 53.568 
L 160.47765 83.328895 
L 160.558854 59.970053 
L 160.721262 89.790142 
L 160.802467 53.568 
L 160.883671 59.685517 
L 160.964875 75.301285 
L 161.046079 72.337655 
L 161.127284 62.170759 
L 161.208488 191.212138 
L 161.370896 59.685517 
L 161.614509 91.980318 
L 161.939326 53.568 
L 162.02053 53.568 
L 162.101735 73.711045 
L 162.264143 182.035862 
L 162.345347 53.568 
L 162.426551 68.861793 
L 162.507756 53.568 
L 162.670164 67.332414 
L 162.751368 92.894897 
L 162.832573 91.802483 
L 162.913777 59.552528 
L 162.994981 109.749281 
L 163.076185 92.894897 
L 163.238594 61.433379 
L 163.319798 97.363862 
L 163.482207 61.214897 
L 163.563411 60.122483 
L 163.725819 53.568 
L 163.807024 113.78731 
L 163.888228 95.920042 
L 163.969432 53.568 
L 164.13184 75.301285 
L 164.213045 63.763862 
L 164.294249 74.744021 
L 164.375453 53.568 
L 164.537862 120.304552 
L 164.619066 59.970053 
L 164.70027 124.610136 
L 164.862679 77.506111 
L 164.943883 60.626674 
L 165.025087 77.506111 
L 165.187496 61.214897 
L 165.2687 66.372106 
L 165.349904 66.081103 
L 165.431108 95.278345 
L 165.593517 53.568 
L 165.674721 67.332414 
L 165.837129 53.568 
L 165.918334 136.154483 
L 165.999538 59.970053 
L 166.080742 100.760276 
L 166.243151 66.372106 
L 166.324355 91.802483 
L 166.486763 53.568 
L 166.649172 53.568 
L 166.81158 68.056857 
L 166.892785 117.997171 
L 167.055193 58.397619 
L 167.217602 60.450207 
L 167.298806 53.568 
L 167.461214 87.276768 
L 167.542418 58.483862 
L 167.623623 120.304552 
L 167.704827 60.282348 
L 167.786031 65.803034 
L 167.867235 168.804953 
L 168.029644 84.155586 
L 168.110848 154.507034 
L 168.192052 59.186128 
L 168.273257 114.743172 
L 168.435665 68.583724 
L 168.516869 71.139592 
L 168.598074 66.081103 
L 168.760482 94.861241 
L 168.841686 59.970053 
L 168.922891 105.649566 
L 169.004095 53.568 
L 169.085299 60.626674 
L 169.166503 53.568 
L 169.247707 67.685347 
L 169.328912 60.450207 
L 169.410116 66.372106 
L 169.49132 87.139741 
L 169.653729 66.676966 
L 169.816137 61.664714 
L 169.897341 81.096828 
L 169.978546 53.568 
L 170.05975 61.433379 
L 170.140954 59.824552 
L 170.222158 90.769118 
L 170.303363 65.537055 
L 170.384567 66.081103 
L 170.465771 76.040512 
L 170.546975 183.565241 
L 170.62818 61.214897 
L 170.709384 82.545713 
L 170.790588 53.568 
L 170.871792 70.773517 
L 170.952996 53.568 
L 171.034201 106.003862 
L 171.277813 53.568 
L 171.359018 53.568 
L 171.440222 69.761428 
L 171.683835 53.568 
L 171.765039 91.980318 
L 171.846243 59.186128 
L 171.927447 66.081103 
L 172.008652 53.568 
L 172.089856 60.122483 
L 172.252264 53.568 
L 172.333469 61.008224 
L 172.414673 187.682801 
L 172.495877 154.283223 
L 172.577081 60.122483 
L 172.658286 122.390069 
L 172.73949 53.568 
L 172.820694 60.626674 
L 172.901898 133.490403 
L 172.983102 53.568 
L 173.064307 61.433379 
L 173.145511 59.552528 
L 173.226715 59.970053 
L 173.307919 66.996696 
L 173.389124 150.728568 
L 173.470328 73.231448 
L 173.551532 128.646621 
L 173.713941 68.056857 
L 173.795145 105.184552 
L 173.876349 53.568 
L 174.038758 97.03457 
L 174.119962 60.812428 
L 174.201166 74.744021 
L 174.28237 53.568 
L 174.363575 66.996696 
L 174.444779 65.803034 
L 174.607187 59.685517 
L 174.688391 66.676966 
L 174.769596 53.568 
L 174.8508 171.54869 
L 174.932004 62.448267 
L 175.013208 98.209342 
L 175.256821 59.685517 
L 175.41923 53.568 
L 175.581638 63.060699 
L 175.662842 136.154483 
L 175.906455 53.568 
L 176.068864 53.568 
L 176.150068 61.664714 
L 176.231272 53.568 
L 176.39368 63.060699 
L 176.474885 53.568 
L 176.556089 76.50869 
L 176.799702 53.568 
L 176.880906 59.970053 
L 177.043314 53.568 
L 177.124519 53.568 
L 177.205723 102.978716 
L 177.368131 53.568 
L 177.449336 81.096828 
L 177.53054 75.888671 
L 177.611744 191.212138 
L 177.774153 53.568 
L 177.855357 53.568 
L 177.936561 91.10731 
L 178.180174 53.568 
L 178.261378 60.812428 
L 178.342582 91.802483 
L 178.423786 87.979034 
L 178.504991 53.568 
L 178.586195 79.785931 
L 178.667399 53.568 
L 178.748603 62.448267 
L 178.911012 53.568 
L 178.992216 59.970053 
L 179.07342 53.568 
L 179.154625 125.66731 
L 179.235829 53.568 
L 179.317033 164.85475 
L 179.398237 143.458049 
L 179.479442 157.731131 
L 179.560646 71.139592 
L 179.64185 122.390069 
L 179.804258 60.450207 
L 179.885463 59.824552 
L 179.966667 103.620414 
L 180.047871 98.209342 
L 180.129075 118.341712 
L 180.291484 53.568 
L 180.372688 89.790142 
L 180.535097 53.568 
L 180.616301 61.008224 
L 180.697505 100.425579 
L 180.778709 60.122483 
L 180.859914 61.433379 
L 180.941118 68.056857 
L 181.103526 163.68331 
L 181.265935 53.568 
L 181.347139 61.910069 
L 181.428343 59.824552 
L 181.509548 66.081103 
L 181.590752 53.568 
L 181.671956 61.433379 
L 181.75316 99.449379 
L 181.834364 53.568 
L 181.915569 60.812428 
L 181.996773 83.063172 
L 182.159181 53.568 
L 182.240386 72.337655 
L 182.32159 53.568 
L 182.402794 68.861793 
L 182.565203 60.626674 
L 182.646407 73.711045 
L 182.727611 61.214897 
L 182.808815 84.155586 
L 182.971224 61.008224 
L 183.052428 116.133517 
L 183.133632 61.910069 
L 183.214837 102.978716 
L 183.377245 53.568 
L 183.620858 53.568 
L 183.702062 69.761428 
L 183.783266 112.558345 
L 183.86447 85.578265 
L 183.945675 112.558345 
L 184.026879 72.337655 
L 184.108083 184.329931 
L 184.189287 53.568 
L 184.270492 66.996696 
L 184.351696 179.414069 
L 184.514104 92.894897 
L 184.595309 152.389432 
L 184.676513 53.568 
L 184.757717 70.252138 
L 184.920126 53.568 
L 185.082534 78.594207 
L 185.163738 61.214897 
L 185.244942 129.272276 
L 185.326147 115.507862 
L 185.407351 53.568 
L 185.488555 64.804256 
L 185.569759 53.568 
L 185.650964 154.283223 
L 185.732168 68.448447 
L 185.813372 75.301285 
L 185.894576 60.122483 
L 185.975781 149.918897 
L 186.056985 67.332414 
L 186.138189 70.252138 
L 186.219393 59.303172 
L 186.300598 191.212138 
L 186.463006 53.568 
L 186.54421 66.996696 
L 186.625415 117.588529 
L 186.706619 53.568 
L 186.787823 59.970053 
L 186.869027 53.568 
L 186.950231 62.170759 
L 187.031436 53.568 
L 187.275048 74.214621 
L 187.437457 61.910069 
L 187.518661 59.552528 
L 187.599865 67.685347 
L 187.68107 113.997134 
L 187.762274 53.568 
L 187.843478 66.372106 
L 188.005887 80.425393 
L 188.087091 53.568 
L 188.168295 74.744021 
L 188.249499 53.568 
L 188.330704 79.176212 
L 188.493112 53.568 
L 188.574316 178.103172 
L 188.65552 53.568 
L 188.736725 76.50869 
L 188.817929 75.888671 
L 189.061542 53.568 
L 189.22395 156.801103 
L 189.386359 53.568 
L 189.467563 53.568 
L 189.629971 72.337655 
L 189.79238 53.568 
L 189.873584 53.568 
L 189.954788 110.03739 
L 190.035993 73.711045 
L 190.117197 81.096828 
L 190.198401 78.594207 
L 190.279605 53.568 
L 190.360809 60.122483 
L 190.442014 184.657655 
L 190.523218 108.625655 
L 190.604422 163.68331 
L 190.685626 59.073766 
L 190.766831 60.450207 
L 190.848035 68.056857 
L 190.929239 60.122483 
L 191.010443 73.231448 
L 191.091648 53.568 
L 191.172852 66.081103 
L 191.416465 53.568 
L 191.497669 133.095724 
L 191.578873 60.812428 
L 191.660077 66.372106 
L 191.822486 53.568 
L 191.90369 60.122483 
L 191.984894 79.785931 
L 192.066099 53.568 
L 192.147303 102.978716 
L 192.309711 53.568 
L 192.390915 71.139592 
L 192.553324 53.568 
L 192.634528 71.920552 
L 192.878141 53.568 
L 192.959345 74.744021 
L 193.121754 53.568 
L 193.202958 61.910069 
L 193.284162 61.214897 
L 193.365366 128.646621 
L 193.446571 59.824552 
L 193.527775 60.282348 
L 193.608979 53.568 
L 193.690183 61.910069 
L 193.771388 53.568 
L 193.852592 87.139741 
L 194.015 58.965809 
L 194.177409 61.008224 
L 194.258613 71.139592 
L 194.339817 53.568 
L 194.421021 102.978716 
L 194.502226 59.685517 
L 194.58343 68.056857 
L 194.664634 128.646621 
L 194.827043 53.568 
L 194.908247 61.008224 
L 194.989451 60.626674 
L 195.070655 89.790142 
L 195.15186 68.861793 
L 195.233064 166.50678 
L 195.314268 53.568 
L 195.395472 115.507862 
L 195.557881 53.568 
L 195.639085 53.568 
L 195.720289 60.450207 
L 195.801493 124.154737 
L 195.882698 61.910069 
L 195.963902 65.537055 
L 196.045106 69.761428 
L 196.207515 60.450207 
L 196.288719 182.609379 
L 196.451127 53.568 
L 196.532332 53.568 
L 196.69474 86.340414 
L 196.775944 82.545713 
L 197.019557 53.568 
L 197.181966 53.568 
L 197.26317 66.081103 
L 197.425578 53.568 
L 197.506782 76.50869 
L 197.587987 71.920552 
L 197.669191 77.164138 
L 197.831599 53.568 
L 197.912804 64.156011 
L 198.075212 53.568 
L 198.156416 53.568 
L 198.318825 115.507862 
L 198.400029 58.665931 
L 198.481233 60.282348 
L 198.562438 74.214621 
L 198.643642 71.328534 
L 198.80605 60.450207 
L 198.887255 131.213411 
L 198.968459 106.849602 
L 199.049663 96.581793 
L 199.212071 53.568 
L 199.293276 61.910069 
L 199.37448 53.568 
L 199.455684 61.910069 
L 199.536888 61.008224 
L 199.618093 60.282348 
L 199.699297 60.450207 
L 199.861705 191.212138 
L 200.024114 60.282348 
L 200.105318 65.537055 
L 200.186522 61.214897 
L 200.267727 194.413164 
L 200.430135 53.568 
L 200.511339 60.450207 
L 200.592544 62.448267 
L 200.673748 60.450207 
L 200.754952 82.545713 
L 200.91736 60.122483 
L 200.998565 61.214897 
L 201.079769 77.164138 
L 201.160973 163.68331 
L 201.242177 147.745568 
L 201.404586 60.626674 
L 201.48579 60.812428 
L 201.566994 66.372106 
L 201.648199 122.390069 
L 201.810607 53.568 
L 201.891811 157.731131 
L 202.05422 53.568 
L 202.135424 118.341712 
L 202.216628 53.568 
L 202.297833 151.250937 
L 202.379037 53.568 
L 202.460241 119.397805 
L 202.62265 53.568 
L 202.703854 53.568 
L 202.785058 81.096828 
L 202.866262 59.824552 
L 203.028671 72.774159 
L 203.109875 108.625655 
L 203.191079 59.685517 
L 203.272283 108.625655 
L 203.434692 53.568 
L 203.515896 63.763862 
L 203.678305 53.568 
L 203.759509 60.450207 
L 203.921917 91.802483 
L 204.084326 66.081103 
L 204.16553 78.594207 
L 204.246734 133.256711 
L 204.409143 53.568 
L 204.571551 59.970053 
L 204.652755 59.970053 
L 204.815164 53.568 
L 204.896368 178.699034 
L 205.058777 53.568 
L 205.139981 59.685517 
L 205.221185 147.568875 
L 205.383594 53.568 
L 205.464798 115.507862 
L 205.546002 59.824552 
L 205.627206 73.711045 
L 205.708411 108.625655 
L 205.789615 60.626674 
L 205.870819 60.812428 
L 205.952023 53.568 
L 206.033228 160.997571 
L 206.114432 59.425197 
L 206.195636 81.096828 
L 206.27684 164.85475 
L 206.439249 53.568 
L 206.682861 78.594207 
L 206.764066 177.166818 
L 206.926474 61.664714 
L 207.088883 84.850759 
L 207.251291 61.214897 
L 207.332495 153.672828 
L 207.4137 64.363619 
L 207.494904 126.438426 
L 207.576108 53.568 
L 207.657312 63.399724 
L 207.819721 53.568 
L 207.900925 66.081103 
L 208.144538 53.568 
L 208.306946 65.537055 
L 208.469355 162.4029 
L 208.631763 53.568 
L 208.875376 72.337655 
L 209.037784 53.568 
L 209.118989 80.557047 
L 209.281397 53.568 
L 209.443806 66.996696 
L 209.52501 69.761428 
L 209.768622 53.568 
L 209.849827 60.450207 
L 210.012235 53.568 
L 210.174644 53.568 
L 210.255848 69.298759 
L 210.337052 60.812428 
L 210.418256 65.282395 
L 210.499461 77.164138 
L 210.580665 53.568 
L 210.661869 68.056857 
L 210.743073 143.03669 
L 210.905482 53.568 
L 210.986686 59.186128 
L 211.06789 53.568 
L 211.149095 61.433379 
L 211.230299 53.568 
L 211.311503 60.122483 
L 211.392707 53.568 
L 211.473912 66.372106 
L 211.717524 53.568 
L 211.798728 70.773517 
L 211.879933 53.568 
L 212.042341 70.773517 
L 212.123545 68.056857 
L 212.20475 58.762118 
L 212.285954 93.854089 
L 212.367158 71.139592 
L 212.448362 87.139741 
L 212.610771 53.568 
L 212.691975 60.122483 
L 212.854384 77.164138 
L 213.016792 53.568 
L 213.097996 60.450207 
L 213.179201 87.979034 
L 213.341609 59.552528 
L 213.504017 53.568 
L 213.585222 60.812428 
L 213.666426 59.552528 
L 213.828834 53.568 
L 213.991243 120.985537 
L 214.072447 53.568 
L 214.153651 65.537055 
L 214.234856 77.858142 
L 214.31606 60.122483 
L 214.397264 71.139592 
L 214.478468 53.568 
L 214.640877 73.711045 
L 214.722081 74.744021 
L 214.803285 59.685517 
L 214.88449 72.774159 
L 214.965694 67.332414 
L 215.046898 53.568 
L 215.209306 191.212138 
L 215.290511 53.568 
L 215.371715 69.298759 
L 215.452919 61.433379 
L 215.534123 71.521583 
L 215.615328 186.465788 
L 215.777736 64.156011 
L 215.85894 73.231448 
L 216.021349 61.433379 
L 216.102553 70.252138 
L 216.183757 53.568 
L 216.264962 188.153379 
L 216.346166 53.568 
L 216.42737 67.332414 
L 216.508574 53.568 
L 216.670983 63.060699 
L 216.752187 59.303172 
L 216.833391 72.553398 
L 216.914595 145.330759 
L 216.9958 61.664714 
L 217.077004 61.910069 
L 217.239412 67.685347 
L 217.401821 60.282348 
L 217.483025 71.521583 
L 217.645434 53.568 
L 217.726638 74.214621 
L 217.807842 68.056857 
L 217.889046 53.568 
L 217.970251 80.425393 
L 218.051455 59.685517 
L 218.132659 60.282348 
L 218.295068 53.568 
L 218.376272 60.282348 
L 218.457476 53.568 
L 218.53868 59.685517 
L 218.701089 53.568 
L 218.782293 59.552528 
L 218.863497 184.657655 
L 219.025906 53.568 
L 219.188314 72.774159 
L 219.269518 89.790142 
L 219.350723 168.804953 
L 219.431927 53.568 
L 219.513131 187.682801 
L 219.67554 66.996696 
L 219.756744 53.568 
L 219.837948 67.332414 
L 219.919152 53.568 
L 220.081561 60.812428 
L 220.162765 134.53514 
L 220.325173 53.568 
L 220.568786 75.888671 
L 220.64999 187.682801 
L 220.731195 53.568 
L 220.812399 60.282348 
L 220.893603 67.685347 
L 220.974807 60.626674 
L 221.056012 78.594207 
L 221.21842 53.568 
L 221.462033 77.858142 
L 221.624441 53.568 
L 221.705646 70.773517 
L 221.868054 53.568 
L 221.949258 53.568 
L 222.030463 66.081103 
L 222.111667 133.256711 
L 222.192871 60.282348 
L 222.274075 65.038345 
L 222.355279 66.996696 
L 222.517688 53.568 
L 222.598892 60.812428 
L 222.680096 53.568 
L 222.761301 71.920552 
L 222.842505 53.568 
L 223.086118 75.301285 
L 223.248526 53.568 
L 223.32973 167.48039 
L 223.492139 53.568 
L 223.573343 134.53514 
L 223.654547 60.812428 
L 223.735752 72.337655 
L 223.89816 74.214621 
L 223.979364 60.450207 
L 224.060568 132.221793 
L 224.304181 53.568 
L 224.385385 85.029517 
L 224.547794 59.303172 
L 224.628998 70.252138 
L 224.710202 53.568 
L 224.791407 64.579531 
L 224.872611 147.283158 
L 225.035019 53.568 
L 225.116224 77.164138 
L 225.197428 66.996696 
L 225.359836 79.785931 
L 225.441041 53.568 
L 225.522245 67.332414 
L 225.684653 53.568 
L 225.765857 53.568 
L 225.847062 60.122483 
L 225.928266 53.568 
L 226.00947 133.256711 
L 226.171879 53.568 
L 226.253083 61.433379 
L 226.334287 53.568 
L 226.496696 60.450207 
L 226.5779 79.176212 
L 226.659104 53.568 
L 226.740308 159.448106 
L 226.821513 61.214897 
L 226.902717 65.537055 
L 226.983921 155.304972 
L 227.14633 53.568 
L 227.227534 84.155586 
L 227.308738 83.328895 
L 227.389942 102.978716 
L 227.471146 53.568 
L 227.552351 61.214897 
L 227.714759 53.568 
L 227.795963 60.450207 
L 227.877168 59.552528 
L 227.958372 60.282348 
L 228.039576 141.159724 
L 228.12078 53.568 
L 228.201985 164.85475 
L 228.283189 76.50869 
L 228.364393 149.598794 
L 228.526802 59.970053 
L 228.608006 70.773517 
L 228.68921 53.568 
L 228.770414 65.803034 
L 228.851619 53.568 
L 228.932823 70.252138 
L 229.014027 129.137331 
L 229.095231 66.372106 
L 229.176435 77.858142 
L 229.25764 91.802483 
L 229.420048 63.763862 
L 229.501252 75.888671 
L 229.582457 53.568 
L 229.663661 178.699034 
L 229.826069 59.970053 
L 229.907274 53.568 
L 229.988478 163.68331 
L 230.150886 53.568 
L 230.232091 53.568 
L 230.313295 154.989996 
L 230.475703 53.568 
L 230.638112 91.10731 
L 230.719316 73.231448 
L 230.80052 59.303172 
L 230.881724 160.131204 
L 230.962929 53.568 
L 231.044133 66.676966 
L 231.125337 79.376276 
L 231.206541 53.568 
L 231.287746 60.626674 
L 231.36895 53.568 
L 231.450154 112.558345 
L 231.612563 59.186128 
L 231.693767 172.442483 
L 231.856175 60.450207 
L 231.93738 53.568 
L 232.018584 59.824552 
L 232.099788 75.301285 
L 232.180992 60.450207 
L 232.262197 61.433379 
L 232.343401 61.008224 
L 232.424605 81.65864 
L 232.587014 53.568 
L 232.749422 61.008224 
L 232.830626 64.156011 
L 232.91183 59.552528 
L 232.993035 191.212138 
L 233.155443 59.970053 
L 233.317852 118.341712 
L 233.48026 53.568 
L 233.561464 71.139592 
L 233.642669 136.794688 
L 233.886281 59.425197 
L 233.967486 60.812428 
L 234.04869 59.552528 
L 234.129894 60.450207 
L 234.292303 75.888671 
L 234.373507 71.920552 
L 234.535915 53.568 
L 234.698324 67.332414 
L 234.779528 174.694841 
L 234.860732 53.568 
L 234.941936 60.450207 
L 235.023141 64.156011 
L 235.185549 59.425197 
L 235.266753 71.920552 
L 235.510366 59.552528 
L 235.59157 73.711045 
L 235.672775 59.552528 
L 235.753979 60.626674 
L 235.835183 53.568 
L 235.916387 66.676966 
L 235.997592 130.392635 
L 236.16 61.910069 
L 236.322408 53.568 
L 236.403613 114.743172 
L 236.566021 60.812428 
L 236.647225 99.449379 
L 236.809634 61.214897 
L 236.890838 70.422384 
L 237.134451 58.965809 
L 237.215655 62.170759 
L 237.296859 59.824552 
L 237.378064 69.150355 
L 237.459268 58.965809 
L 237.540472 61.910069 
L 237.621676 65.282395 
L 237.702881 105.649566 
L 237.784085 61.214897 
L 237.865289 62.744276 
L 238.027697 59.303172 
L 238.108902 61.214897 
L 238.190106 53.568 
L 238.27131 64.156011 
L 238.352514 178.699034 
L 238.433719 67.685347 
L 238.514923 74.214621 
L 238.83974 53.568 
L 238.920944 122.390069 
L 239.002148 68.861793 
L 239.083353 103.620414 
L 239.164557 59.824552 
L 239.245761 64.579531 
L 239.326965 53.568 
L 239.489374 66.372106 
L 239.570578 63.060699 
L 239.651782 53.568 
L 239.732986 87.139741 
L 239.814191 53.568 
L 239.895395 126.603665 
L 240.057803 53.568 
L 240.139008 53.568 
L 240.220212 102.148284 
L 240.38262 53.568 
L 240.463825 53.568 
L 240.545029 111.186476 
L 240.707437 53.568 
L 240.788642 77.164138 
L 240.869846 59.685517 
L 240.95105 60.812428 
L 241.032254 59.552528 
L 241.113459 178.699034 
L 241.194663 53.568 
L 241.275867 87.139741 
L 241.357071 70.085297 
L 241.438276 77.506111 
L 241.51948 143.196741 
L 241.600684 53.568 
L 241.681888 81.096828 
L 241.925501 66.081103 
L 242.006705 67.332414 
L 242.087909 61.664714 
L 242.169114 143.335916 
L 242.250318 65.038345 
L 242.331522 68.861793 
L 242.412726 61.664714 
L 242.493931 149.918897 
L 242.575135 66.996696 
L 242.656339 68.861793 
L 242.737543 53.568 
L 242.899952 66.676966 
L 242.981156 65.803034 
L 243.06236 69.298759 
L 243.143565 88.711184 
L 243.305973 53.568 
L 243.387177 77.858142 
L 243.549586 53.568 
L 243.63079 122.390069 
L 243.793198 53.568 
L 243.874403 74.744021 
L 243.955607 61.214897 
L 244.036811 61.433379 
L 244.118015 118.767855 
L 244.19922 62.448267 
L 244.280424 66.372106 
L 244.361628 82.243862 
L 244.442832 53.568 
L 244.524037 147.568875 
L 244.605241 53.568 
L 244.686445 61.664714 
L 244.767649 53.568 
L 244.848854 86.936276 
L 245.011262 61.910069 
L 245.092466 80.425393 
L 245.254875 53.568 
L 245.417283 67.332414 
L 245.579692 53.568 
L 245.660896 107.282786 
L 245.7421 98.209342 
L 245.904509 68.056857 
L 245.985713 169.478853 
L 246.066917 53.568 
L 246.148121 78.594207 
L 246.229326 53.568 
L 246.31053 69.761428 
L 246.391734 53.568 
L 246.554143 166.50678 
L 246.716551 53.568 
L 246.797755 173.565454 
L 246.878959 53.568 
L 246.960164 64.804256 
L 247.041368 66.676966 
L 247.122572 61.008224 
L 247.203776 88.861369 
L 247.284981 191.212138 
L 247.528593 53.568 
L 247.609798 53.568 
L 247.772206 67.685347 
L 247.85341 60.450207 
L 247.934615 151.885241 
L 248.015819 145.330759 
L 248.097023 130.392635 
L 248.259432 53.568 
L 248.42184 68.861793 
L 248.503044 53.568 
L 248.746657 71.139592 
L 248.909065 59.970053 
L 248.99027 68.861793 
L 249.071474 59.970053 
L 249.152678 105.184552 
L 249.315087 58.965809 
L 249.396291 53.568 
L 249.558699 65.803034 
L 249.639904 60.812428 
L 249.721108 99.449379 
L 249.883516 53.568 
L 249.964721 59.425197 
L 250.045925 53.568 
L 250.127129 60.450207 
L 250.208333 53.568 
L 250.289537 94.568382 
L 250.451946 60.282348 
L 250.53315 61.664714 
L 250.614354 66.081103 
L 250.776763 53.568 
L 250.857967 64.156011 
L 250.939171 58.862005 
L 251.020376 147.745568 
L 251.182784 53.568 
L 251.263988 67.685347 
L 251.345193 175.207006 
L 251.507601 60.626674 
L 251.588805 91.538797 
L 251.751214 53.568 
L 251.913622 73.231448 
L 251.994827 53.568 
L 252.076031 67.685347 
L 252.238439 53.568 
L 252.400848 128.646621 
L 252.563256 53.568 
L 252.725665 53.568 
L 252.806869 119.112828 
L 252.888073 59.970053 
L 252.969277 71.328534 
L 253.050482 53.568 
L 253.131686 123.990582 
L 253.21289 53.568 
L 253.294094 130.036966 
L 253.375299 53.568 
L 253.456503 113.997134 
L 253.537707 53.568 
L 253.618911 162.4029 
L 253.700116 53.568 
L 253.78132 191.212138 
L 253.862524 53.568 
L 253.943728 149.918897 
L 254.024932 72.337655 
L 254.106137 74.214621 
L 254.349749 53.568 
L 254.512158 68.448447 
L 254.593362 53.568 
L 254.674566 74.744021 
L 254.755771 172.859586 
L 254.836975 137.351388 
L 254.999383 53.568 
L 255.161792 53.568 
L 255.242996 101.743448 
L 255.405405 59.970053 
L 255.486609 53.568 
L 255.567813 60.626674 
L 255.649017 160.624552 
L 255.730221 53.568 
L 255.811426 76.50869 
L 255.89263 107.282786 
L 255.973834 106.003862 
L 256.055038 53.568 
L 256.136243 180.624127 
L 256.217447 53.568 
L 256.298651 72.774159 
L 256.379855 69.298759 
L 256.542264 59.186128 
L 256.623468 91.10731 
L 256.704672 53.568 
L 256.785877 60.122483 
L 256.867081 62.448267 
L 257.029489 59.970053 
L 257.110694 82.545713 
L 257.191898 188.403074 
L 257.273102 64.363619 
L 257.354306 71.328534 
L 257.43551 53.568 
L 257.516715 69.761428 
L 257.597919 59.824552 
L 257.760327 68.861793 
L 257.841532 188.283539 
L 257.922736 187.854964 
L 258.00394 60.122483 
L 258.085144 61.910069 
L 258.166349 73.231448 
L 258.247553 53.568 
L 258.491166 163.68331 
L 258.653574 53.568 
L 258.734778 68.448447 
L 258.815983 60.626674 
L 258.897187 176.723281 
L 258.978391 60.282348 
L 259.059595 177.891737 
L 259.140799 53.568 
L 259.222004 103.620414 
L 259.384412 53.568 
L 259.465616 78.594207 
L 259.546821 53.568 
L 259.628025 60.450207 
L 259.709229 62.170759 
L 259.871638 53.568 
L 260.034046 103.620414 
L 260.196455 64.579531 
L 260.277659 75.888671 
L 260.358863 53.568 
L 260.440067 60.282348 
L 260.521272 53.568 
L 260.602476 65.038345 
L 260.764884 53.568 
L 261.008497 68.448447 
L 261.089701 53.568 
L 261.333314 67.332414 
L 261.414518 53.568 
L 261.576927 60.626674 
L 261.658131 60.450207 
L 261.739335 108.625655 
L 261.820539 59.186128 
L 261.901744 60.812428 
L 261.982948 82.545713 
L 262.064152 53.568 
L 262.145356 76.50869 
L 262.226561 164.994207 
L 262.307765 53.568 
L 262.388969 60.812428 
L 262.470173 90.273103 
L 262.632582 53.568 
L 262.713786 60.282348 
L 262.876194 87.139741 
L 263.119807 53.568 
L 263.201011 174.426267 
L 263.36342 74.744021 
L 263.444624 59.970053 
L 263.607033 66.996696 
L 263.688237 53.568 
L 263.769441 72.774159 
L 263.850645 53.568 
L 263.93185 59.970053 
L 264.013054 81.65864 
L 264.094258 53.568 
L 264.175462 172.611579 
L 264.256667 61.433379 
L 264.337871 68.056857 
L 264.419075 59.073766 
L 264.500279 103.620414 
L 264.581483 66.996696 
L 264.662688 152.389432 
L 264.825096 53.568 
L 264.9063 64.363619 
L 265.149913 53.568 
L 265.231117 73.711045 
L 265.312322 66.996696 
L 265.47473 60.122483 
L 265.555934 147.745568 
L 265.718343 60.450207 
L 265.799547 61.008224 
L 265.880751 68.056857 
L 265.961956 61.664714 
L 266.124364 90.769118 
L 266.286772 53.568 
L 266.367977 53.568 
L 266.449181 110.03739 
L 266.530385 59.970053 
L 266.611589 113.78731 
L 266.692794 60.450207 
L 266.773998 67.332414 
L 266.855202 61.214897 
L 266.936406 69.761428 
L 267.098815 53.568 
L 267.342428 75.888671 
L 267.423632 53.568 
L 267.504836 66.081103 
L 267.58604 137.683862 
L 267.667245 61.214897 
L 267.748449 186.772004 
L 267.910857 53.568 
L 267.992061 63.763862 
L 268.073266 53.568 
L 268.235674 69.761428 
L 268.316878 168.271448 
L 268.398083 66.081103 
L 268.479287 66.996696 
L 268.560491 59.970053 
L 268.641695 78.038069 
L 268.7229 53.568 
L 268.804104 68.448447 
L 268.885308 174.426267 
L 268.966512 53.568 
L 269.047717 71.139592 
L 269.128921 139.595586 
L 269.210125 53.568 
L 269.291329 100.568437 
L 269.372534 53.568 
L 269.453738 59.685517 
L 269.534942 53.568 
L 269.616146 183.115424 
L 269.69735 59.685517 
L 269.778555 105.649566 
L 269.940963 53.568 
L 270.022167 70.085297 
L 270.103372 69.761428 
L 270.184576 73.231448 
L 270.346984 53.568 
L 270.428189 68.448447 
L 270.509393 153.672828 
L 270.590597 53.568 
L 270.671801 70.252138 
L 270.753006 53.568 
L 270.83421 145.330759 
L 270.915414 53.568 
L 270.996618 59.552528 
L 271.077823 76.50869 
L 271.159027 53.568 
L 271.240231 85.954856 
L 271.321435 79.785931 
L 271.483844 53.568 
L 271.565048 74.744021 
L 271.646252 53.568 
L 271.727456 60.450207 
L 271.808661 53.568 
L 271.889865 75.888671 
L 272.052273 53.568 
L 272.133478 66.996696 
L 272.214682 53.568 
L 272.295886 175.918345 
L 272.37709 53.568 
L 272.458295 71.328534 
L 272.539499 91.10731 
L 272.620703 66.372106 
L 272.701907 79.376276 
L 272.783112 53.568 
L 272.864316 59.970053 
L 272.94552 101.031496 
L 273.026724 96.390621 
L 273.189133 53.568 
L 273.351541 111.186476 
L 273.51395 65.038345 
L 273.676358 53.568 
L 273.757562 74.744021 
L 273.838767 61.664714 
L 273.919971 88.861369 
L 274.082379 53.568 
L 274.163584 68.448447 
L 274.244788 60.450207 
L 274.325992 66.676966 
L 274.407196 60.450207 
L 274.569605 78.594207 
L 274.732013 59.552528 
L 274.813218 67.685347 
L 274.975626 59.970053 
L 275.05683 60.812428 
L 275.138034 104.278998 
L 275.219239 53.568 
L 275.300443 61.008224 
L 275.381647 53.568 
L 275.462851 95.920042 
L 275.544056 87.979034 
L 275.706464 60.450207 
L 275.868873 79.376276 
L 275.950077 53.568 
L 276.031281 77.506111 
L 276.274894 53.568 
L 276.356098 53.568 
L 276.437302 74.744021 
L 276.518507 53.568 
L 276.599711 134.140178 
L 276.680915 53.568 
L 276.762119 84.155586 
L 276.924528 53.568 
L 277.005732 133.095724 
L 277.086936 53.568 
L 277.16814 131.213411 
L 277.330549 53.568 
L 277.411753 83.063172 
L 277.492957 59.824552 
L 277.574162 61.214897 
L 277.655366 68.056857 
L 277.817774 53.568 
L 277.898979 59.552528 
L 277.980183 53.568 
L 278.061387 75.888671 
L 278.142591 61.433379 
L 278.223796 105.649566 
L 278.386204 53.568 
L 278.467408 66.676966 
L 278.548612 53.568 
L 278.711021 59.970053 
L 278.792225 81.802695 
L 278.873429 151.065931 
L 279.035838 53.568 
L 279.117042 53.568 
L 279.198246 59.970053 
L 279.279451 130.392635 
L 279.360655 65.803034 
L 279.441859 66.996696 
L 279.523063 53.568 
L 279.604268 60.122483 
L 279.766676 114.743172 
L 279.84788 59.824552 
L 279.929085 60.282348 
L 280.253901 120.86069 
L 280.335106 60.282348 
L 280.41631 178.699034 
L 280.578718 83.328895 
L 280.741127 53.568 
L 280.98474 65.803034 
L 281.147148 53.568 
L 281.228352 53.568 
L 281.309557 61.214897 
L 281.390761 53.568 
L 281.553169 65.803034 
L 281.634374 53.568 
L 281.796782 64.363619 
L 281.877986 89.790142 
L 281.959191 65.537055 
L 282.040395 184.657655 
L 282.121599 64.804256 
L 282.202803 76.50869 
L 282.365212 70.773517 
L 282.608824 90.273103 
L 282.771233 53.568 
L 282.852437 53.568 
L 282.933641 59.552528 
L 283.014846 53.568 
L 283.09605 70.773517 
L 283.177254 60.812428 
L 283.258458 113.78731 
L 283.339663 74.214621 
L 283.420867 110.244998 
L 283.583275 60.282348 
L 283.66448 53.568 
L 283.745684 80.425393 
L 283.908092 53.568 
L 283.989296 155.817931 
L 284.070501 53.568 
L 284.151705 83.063172 
L 284.314113 53.568 
L 284.476522 105.649566 
L 284.63893 53.568 
L 284.720135 53.568 
L 284.801339 60.282348 
L 284.882543 53.568 
L 284.963747 129.272276 
L 285.126156 60.626674 
L 285.20736 53.568 
L 285.288564 78.038069 
L 285.450973 53.568 
L 285.532177 60.282348 
L 285.613381 158.439724 
L 285.694585 142.053517 
L 285.77579 65.038345 
L 285.856994 68.861793 
L 286.019402 53.568 
L 286.181811 64.579531 
L 286.263015 53.568 
L 286.344219 191.212138 
L 286.425424 65.282395 
L 286.506628 73.711045 
L 286.587832 71.521583 
L 286.669036 53.568 
L 286.750241 60.812428 
L 286.831445 53.568 
L 286.912649 77.858142 
L 286.993853 59.073766 
L 287.075058 77.506111 
L 287.156262 71.521583 
L 287.237466 53.568 
L 287.481079 94.861241 
L 287.562283 149.918897 
L 287.724691 63.060699 
L 287.805896 59.552528 
L 287.8871 60.450207 
L 287.968304 67.685347 
L 288.049508 130.392635 
L 288.211917 53.568 
L 288.293121 53.568 
L 288.45553 66.996696 
L 288.536734 117.096064 
L 288.617938 70.252138 
L 288.699142 73.711045 
L 288.780347 120.711482 
L 288.861551 66.372106 
L 288.942755 85.954856 
L 289.023959 53.568 
L 289.105163 59.425197 
L 289.186368 53.568 
L 289.267572 68.056857 
L 289.348776 53.568 
L 289.42998 162.4029 
L 289.511185 60.450207 
L 289.592389 66.372106 
L 289.754797 58.762118 
L 289.836002 60.282348 
L 289.917206 138.272085 
L 289.99841 122.390069 
L 290.079614 53.568 
L 290.160819 67.332414 
L 290.242023 62.744276 
L 290.323227 72.774159 
L 290.404431 183.115424 
L 290.485636 59.824552 
L 290.56684 69.761428 
L 290.648044 53.568 
L 290.729248 61.008224 
L 290.891657 131.213411 
L 290.972861 60.282348 
L 291.054065 176.723281 
L 291.135269 66.081103 
L 291.216474 79.176212 
L 291.297678 60.282348 
L 291.378882 61.433379 
L 291.460086 188.153379 
L 291.541291 53.568 
L 291.622495 68.448447 
L 291.703699 60.122483 
L 291.784903 149.918897 
L 291.866108 68.448447 
L 291.947312 83.328895 
L 292.028516 59.685517 
L 292.190925 112.139974 
L 292.272129 106.003862 
L 292.353333 53.568 
L 292.434537 74.214621 
L 292.515742 68.861793 
L 292.67815 65.038345 
L 292.759354 68.448447 
L 292.921763 59.970053 
L 293.002967 59.970053 
L 293.084171 162.4029 
L 293.165375 53.568 
L 293.24658 65.803034 
L 293.408988 113.997134 
L 293.571397 53.568 
L 293.652601 53.568 
L 293.733805 67.332414 
L 293.896214 53.568 
L 293.977418 63.956237 
L 294.058622 53.568 
L 294.139826 113.78731 
L 294.302235 58.965809 
L 294.383439 59.186128 
L 294.464643 53.568 
L 294.545847 61.433379 
L 294.708256 53.568 
L 294.78946 66.372106 
L 294.870664 61.910069 
L 294.951869 157.565793 
L 295.033073 53.568 
L 295.114277 59.970053 
L 295.195481 118.341712 
L 295.276686 53.568 
L 295.35789 64.804256 
L 295.439094 53.568 
L 295.763911 81.802695 
L 296.007524 53.568 
L 296.169932 69.450016 
L 296.332341 166.50678 
L 296.413545 53.568 
L 296.494749 59.685517 
L 296.575953 81.802695 
L 296.657158 60.812428 
L 296.738362 91.802483 
L 296.819566 66.996696 
L 296.90077 68.448447 
L 296.981975 53.568 
L 297.144383 66.081103 
L 297.225587 125.382333 
L 297.387996 53.568 
L 297.4692 59.425197 
L 297.550404 53.568 
L 297.631609 67.685347 
L 297.712813 66.081103 
L 297.794017 64.579531 
L 297.875221 79.176212 
L 297.956425 53.568 
L 298.03763 66.372106 
L 298.118834 53.568 
L 298.200038 64.579531 
L 298.281242 53.568 
L 298.362447 102.508138 
L 298.443651 53.568 
L 298.524855 58.665931 
L 298.687264 76.50869 
L 298.768468 132.221793 
L 298.930876 53.568 
L 299.093285 53.568 
L 299.174489 95.278345 
L 299.255693 53.568 
L 299.336898 116.133517 
L 299.418102 64.363619 
L 299.499306 69.761428 
L 299.58051 63.060699 
L 299.661714 152.671779 
L 299.742919 58.762118 
L 299.824123 59.425197 
L 299.905327 53.568 
L 299.986531 64.156011 
L 300.067736 53.568 
L 300.14894 162.014897 
L 300.311348 53.568 
L 300.392553 187.492026 
L 300.473757 62.170759 
L 300.554961 84.155586 
L 300.636165 60.122483 
L 300.71737 73.231448 
L 300.798574 53.568 
L 300.879778 124.154737 
L 300.960982 68.448447 
L 301.042187 75.301285 
L 301.123391 84.155586 
L 301.204595 53.568 
L 301.285799 60.812428 
L 301.367004 53.568 
L 301.448208 71.920552 
L 301.529412 53.568 
L 301.610616 64.363619 
L 301.69182 53.568 
L 301.773025 171.54869 
L 301.854229 135.41046 
L 301.935433 69.761428 
L 302.016637 87.979034 
L 302.097842 53.568 
L 302.179046 59.824552 
L 302.26025 78.038069 
L 302.422659 59.824552 
L 302.503863 60.450207 
L 302.585067 53.568 
L 302.666271 67.332414 
L 302.747476 53.568 
L 302.82868 59.425197 
L 302.909884 182.035862 
L 303.072293 53.568 
L 303.153497 69.761428 
L 303.234701 53.568 
L 303.397109 70.085297 
L 303.559518 53.568 
L 303.640722 135.41046 
L 303.721926 53.568 
L 303.803131 75.888671 
L 303.884335 154.283223 
L 304.046743 53.568 
L 304.127948 71.521583 
L 304.209152 66.081103 
L 304.290356 70.422384 
L 304.37156 53.568 
L 304.452765 162.234425 
L 304.533969 53.568 
L 304.615173 60.282348 
L 304.696377 145.330759 
L 304.777582 53.568 
L 304.858786 102.148284 
L 304.93999 59.970053 
L 305.021194 143.458049 
L 305.102398 66.676966 
L 305.183603 131.213411 
L 305.346011 53.568 
L 305.427215 66.372106 
L 305.589624 53.568 
L 305.670828 60.122483 
L 305.752032 75.888671 
L 305.995645 53.568 
L 306.076849 74.744021 
L 306.158054 65.803034 
L 306.239258 85.578265 
L 306.320462 59.824552 
L 306.401666 68.056857 
L 306.564075 53.568 
L 306.726483 53.568 
L 306.807687 66.081103 
L 306.888892 59.073766 
L 306.970096 68.448447 
L 307.0513 168.271448 
L 307.132504 67.332414 
L 307.213709 79.785931 
L 307.294913 61.433379 
L 307.376117 111.186476 
L 307.457321 67.332414 
L 307.61973 85.954856 
L 307.700934 64.579531 
L 307.782138 91.802483 
L 307.944547 61.664714 
L 308.025751 67.685347 
L 308.106955 59.970053 
L 308.18816 61.433379 
L 308.269364 97.03457 
L 308.350568 59.970053 
L 308.431772 61.008224 
L 308.512976 85.954856 
L 308.675385 53.568 
L 308.756589 100.760276 
L 308.837793 53.568 
L 308.918998 180.624127 
L 309.081406 59.425197 
L 309.325019 124.356414 
L 309.406223 108.625655 
L 309.73104 53.568 
L 309.812244 102.148284 
L 309.974653 59.685517 
L 310.055857 94.861241 
L 310.137061 59.824552 
L 310.218265 66.996696 
L 310.29947 65.282395 
L 310.380674 74.214621 
L 310.461878 53.568 
L 310.543082 150.728568 
L 310.624287 53.568 
L 310.705491 59.552528 
L 310.786695 134.53514 
L 310.867899 80.425393 
L 310.949104 92.894897 
L 311.030308 66.372106 
L 311.111512 68.448447 
L 311.273921 175.918345 
L 311.436329 53.568 
L 311.517533 104.278998 
L 311.598738 53.568 
L 311.679942 60.282348 
L 311.761146 95.459694 
L 311.84235 53.568 
L 311.923555 142.631854 
L 312.004759 53.568 
L 312.085963 81.096828 
L 312.167167 168.271448 
L 312.248371 58.762118 
L 312.329576 65.537055 
L 312.41078 92.894897 
L 312.654393 60.282348 
L 312.735597 53.568 
L 312.816801 139.595586 
L 312.898005 60.626674 
L 312.97921 74.214621 
L 313.060414 136.794688 
L 313.141618 53.568 
L 313.222822 73.711045 
L 313.304027 122.390069 
L 313.385231 53.568 
L 313.466435 82.545713 
L 313.628844 53.568 
L 313.872456 77.164138 
L 314.034865 53.568 
L 314.116069 145.330759 
L 314.197273 113.089789 
L 314.359682 65.803034 
L 314.440886 135.568763 
L 314.603294 53.568 
L 314.684499 65.282395 
L 314.765703 53.568 
L 314.928111 93.854089 
L 315.09052 53.568 
L 315.171724 75.888671 
L 315.252928 53.568 
L 315.334133 85.954856 
L 315.415337 53.568 
L 315.496541 59.824552 
L 315.577745 99.449379 
L 315.740154 53.568 
L 315.821358 53.568 
L 315.983766 150.728568 
L 316.146175 53.568 
L 316.308583 53.568 
L 316.389788 60.812428 
L 316.470992 59.970053 
L 316.552196 59.970053 
L 316.6334 84.155586 
L 316.714605 60.122483 
L 316.795809 66.996696 
L 316.877013 53.568 
L 316.958217 67.685347 
L 317.20183 53.568 
L 317.364238 60.626674 
L 317.445443 60.122483 
L 317.526647 63.060699 
L 317.607851 60.450207 
L 317.689055 53.568 
L 317.77026 102.508138 
L 317.851464 60.812428 
L 317.932668 61.910069 
L 318.013872 53.568 
L 318.095077 70.773517 
L 318.176281 60.122483 
L 318.257485 66.676966 
L 318.338689 59.425197 
L 318.419894 104.784423 
L 318.582302 67.685347 
L 318.663506 91.10731 
L 318.744711 59.425197 
L 318.825915 68.056857 
L 318.988323 53.568 
L 319.069527 60.626674 
L 319.150732 53.568 
L 319.231936 76.50869 
L 319.31314 53.568 
L 319.394344 169.011471 
L 319.556753 60.450207 
L 319.719161 53.568 
L 319.800366 69.761428 
L 319.962774 53.568 
L 320.043978 53.568 
L 320.125183 71.328534 
L 320.287591 53.568 
L 320.368795 53.568 
L 320.45 81.096828 
L 320.612408 53.568 
L 320.693612 157.731131 
L 320.856021 53.568 
L 320.937225 59.685517 
L 321.018429 82.243862 
L 321.099633 194.93225 
L 321.262042 61.433379 
L 321.343246 172.611579 
L 321.505655 53.568 
L 321.586859 68.448447 
L 321.749267 53.568 
L 321.830472 61.008224 
L 321.911676 53.568 
L 321.99288 95.920042 
L 322.236493 53.568 
L 322.317697 154.989996 
L 322.480106 53.568 
L 322.723718 73.711045 
L 322.804922 184.329931 
L 322.886127 64.804256 
L 322.967331 160.997571 
L 323.048535 59.303172 
L 323.129739 60.450207 
L 323.210944 160.624552 
L 323.292148 53.568 
L 323.373352 60.122483 
L 323.454556 75.888671 
L 323.535761 53.568 
L 323.616965 81.096828 
L 323.698169 66.081103 
L 323.779373 184.955586 
L 323.860578 53.568 
L 323.941782 61.214897 
L 324.022986 80.425393 
L 324.185395 53.568 
L 324.266599 104.131153 
L 324.347803 60.626674 
L 324.429007 151.448276 
L 324.510211 60.812428 
L 324.591416 71.139592 
L 324.753824 58.762118 
L 324.916233 61.433379 
L 324.997437 70.252138 
L 325.159845 53.568 
L 325.24105 53.568 
L 325.322254 66.081103 
L 325.403458 116.133517 
L 325.484662 53.568 
L 325.565867 59.824552 
L 325.647071 164.994207 
L 325.809479 59.970053 
L 325.890684 72.774159 
L 325.971888 53.568 
L 326.053092 83.490639 
L 326.134296 59.552528 
L 326.2155 60.626674 
L 326.296705 62.744276 
L 326.377909 53.568 
L 326.459113 120.985537 
L 326.540317 100.760276 
L 326.621522 66.081103 
L 326.702726 175.918345 
L 326.865134 69.761428 
L 327.027543 53.568 
L 327.108747 66.676966 
L 327.189951 53.568 
L 327.271156 60.812428 
L 327.35236 59.970053 
L 327.433564 61.433379 
L 327.514768 73.959724 
L 327.758381 53.568 
L 327.839585 71.521583 
L 328.001994 53.568 
L 328.083198 60.450207 
L 328.164402 53.568 
L 328.326811 135.568763 
L 328.408015 60.626674 
L 328.489219 63.227238 
L 328.570423 69.298759 
L 328.814036 53.568 
L 328.976445 53.568 
L 329.057649 117.096064 
L 329.138853 53.568 
L 329.220057 115.507862 
L 329.301262 59.073766 
L 329.46367 122.390069 
L 329.626078 53.568 
L 329.788487 65.803034 
L 329.869691 53.568 
L 330.0321 79.785931 
L 330.194508 65.282395 
L 330.275712 75.159237 
L 330.356917 70.252138 
L 330.438121 166.921996 
L 330.600529 59.303172 
L 330.681734 53.568 
L 330.762938 61.664714 
L 330.844142 53.568 
L 331.006551 61.664714 
L 331.087755 87.979034 
L 331.168959 61.008224 
L 331.250163 66.996696 
L 331.331368 175.01871 
L 331.412572 53.568 
L 331.493776 97.03457 
L 331.57498 53.568 
L 331.656184 68.448447 
L 331.737389 75.888671 
L 331.899797 53.568 
L 332.14341 75.888671 
L 332.305818 53.568 
L 332.387023 73.231448 
L 332.468227 60.282348 
L 332.549431 60.812428 
L 332.630635 65.537055 
L 332.71184 53.568 
L 332.793044 82.545713 
L 332.874248 53.568 
L 332.955452 137.683862 
L 333.117861 59.824552 
L 333.199065 62.744276 
L 333.361473 53.568 
L 333.442678 135.41046 
L 333.605086 53.568 
L 333.68629 59.685517 
L 333.767495 101.743448 
L 333.929903 53.568 
L 334.011107 85.029517 
L 334.092312 53.568 
L 334.173516 68.861793 
L 334.25472 53.568 
L 334.335924 156.801103 
L 334.498333 53.568 
L 334.579537 53.568 
L 334.660741 70.085297 
L 334.82315 53.568 
L 334.904354 68.056857 
L 334.985558 64.804256 
L 335.066762 53.568 
L 335.229171 71.139592 
L 335.310375 140.50114 
L 335.472784 53.568 
L 335.553988 62.448267 
L 335.635192 61.910069 
L 335.797601 66.081103 
L 335.960009 53.568 
L 336.041213 155.304972 
L 336.203622 53.568 
L 336.284826 59.970053 
L 336.36603 59.824552 
L 336.447235 104.278998 
L 336.528439 68.448447 
L 336.690847 115.729869 
L 336.853256 64.804256 
L 337.096868 53.568 
L 337.259277 64.804256 
L 337.421685 53.568 
L 337.50289 72.337655 
L 337.584094 69.298759 
L 337.665298 68.861793 
L 337.827707 53.568 
L 337.908911 83.328895 
L 337.990115 53.568 
L 338.071319 59.970053 
L 338.152524 59.186128 
L 338.233728 61.008224 
L 338.314932 70.773517 
L 338.396136 68.448447 
L 338.47734 53.568 
L 338.558545 69.298759 
L 338.639749 59.824552 
L 338.720953 85.578265 
L 338.802157 61.664714 
L 338.883362 66.372106 
L 338.964566 53.568 
L 339.126974 116.133517 
L 339.289383 60.282348 
L 339.451791 82.545713 
L 339.532996 53.568 
L 339.6142 61.433379 
L 339.695404 69.761428 
L 339.939017 53.568 
L 340.020221 53.568 
L 340.182629 84.155586 
L 340.263834 53.568 
L 340.345038 61.008224 
L 340.426242 58.965809 
L 340.588651 62.170759 
L 340.669855 53.568 
L 340.751059 110.244998 
L 340.913468 53.568 
L 340.994672 62.744276 
L 341.075876 53.568 
L 341.15708 85.954856 
L 341.319489 60.812428 
L 341.400693 68.861793 
L 341.481897 90.273103 
L 341.563102 155.304972 
L 341.72551 53.568 
L 341.887919 60.282348 
L 341.969123 53.568 
L 342.050327 65.282395 
L 342.131531 61.910069 
L 342.212735 60.626674 
L 342.29394 53.568 
L 342.537552 70.773517 
L 342.699961 53.568 
L 342.943574 53.568 
L 343.024778 84.155586 
L 343.105982 81.096828 
L 343.187186 100.425579 
L 343.268391 53.568 
L 343.349595 59.425197 
L 343.430799 64.156011 
L 343.512003 76.50869 
L 343.674412 53.568 
L 343.755616 66.676966 
L 343.83682 60.122483 
L 343.918024 75.888671 
L 343.999229 178.699034 
L 344.161637 53.568 
L 344.324046 66.676966 
L 344.40525 53.568 
L 344.486454 68.448447 
L 344.567658 62.170759 
L 344.648863 156.000847 
L 344.730067 59.685517 
L 344.811271 85.954856 
L 344.892475 77.506111 
L 344.97368 187.682801 
L 345.136088 53.568 
L 345.298497 71.920552 
L 345.460905 53.568 
L 345.542109 180.624127 
L 345.623313 53.568 
L 345.704518 80.208801 
L 345.866926 53.568 
L 346.110539 75.159237 
L 346.191743 53.568 
L 346.272947 59.824552 
L 346.354152 60.812428 
L 346.51656 97.614124 
L 346.678969 59.824552 
L 346.760173 65.537055 
L 346.841377 53.568 
L 346.922581 72.774159 
L 347.08499 60.626674 
L 347.166194 68.448447 
L 347.247398 53.568 
L 347.328602 188.011111 
L 347.491011 53.568 
L 347.572215 53.568 
L 347.734624 87.979034 
L 347.815828 53.568 
L 347.897032 61.214897 
L 347.978236 61.214897 
L 348.059441 65.537055 
L 348.140645 53.568 
L 348.221849 68.056857 
L 348.303053 63.956237 
L 348.384258 53.568 
L 348.465462 70.252138 
L 348.546666 67.332414 
L 348.709075 86.602593 
L 348.790279 60.450207 
L 348.871483 79.376276 
L 348.952687 53.568 
L 349.033891 59.970053 
L 349.115096 70.773517 
L 349.1963 61.214897 
L 349.277504 70.422384 
L 349.439913 53.568 
L 349.521117 128.646621 
L 349.602321 61.433379 
L 349.683525 168.271448 
L 349.845934 53.568 
L 349.927138 66.081103 
L 350.008342 152.389432 
L 350.170751 60.812428 
L 350.251955 122.390069 
L 350.414364 60.450207 
L 350.495568 60.812428 
L 350.576772 53.568 
L 350.657976 59.970053 
L 350.73918 53.568 
L 350.820385 61.008224 
L 350.901589 82.545713 
L 350.982793 166.50678 
L 351.063997 76.996789 
L 351.145202 78.594207 
L 351.226406 93.854089 
L 351.388814 53.568 
L 351.551223 124.154737 
L 351.632427 191.212138 
L 351.713631 53.568 
L 351.794836 66.676966 
L 351.87604 73.959724 
L 351.957244 60.122483 
L 352.038448 68.056857 
L 352.119653 60.122483 
L 352.200857 136.98869 
L 352.282061 72.774159 
L 352.363265 74.214621 
L 352.44447 191.212138 
L 352.606878 64.363619 
L 352.688082 63.763862 
L 352.769286 95.920042 
L 352.931695 53.568 
L 353.012899 70.422384 
L 353.094103 53.568 
L 353.337716 66.996696 
L 353.41892 53.568 
L 353.500125 78.594207 
L 353.662533 53.568 
L 353.743737 53.568 
L 353.824942 66.996696 
L 353.906146 66.676966 
L 354.068554 53.568 
L 354.149759 60.450207 
L 354.230963 53.568 
L 354.312167 187.682801 
L 354.474575 68.056857 
L 354.55578 71.328534 
L 354.636984 53.568 
L 354.718188 59.970053 
L 354.799392 61.214897 
L 354.880597 65.803034 
L 355.043005 53.568 
L 355.124209 53.568 
L 355.205414 59.824552 
L 355.286618 108.625655 
L 355.530231 53.568 
L 355.611435 97.363862 
L 355.773843 60.282348 
L 355.855048 76.996789 
L 356.017456 60.282348 
L 356.09866 159.929379 
L 356.179864 71.139592 
L 356.261069 85.332032 
L 356.342273 53.568 
L 356.423477 59.685517 
L 356.504681 60.812428 
L 356.585886 53.568 
L 356.66709 66.372106 
L 356.748294 60.282348 
L 356.910703 191.212138 
L 357.073111 53.568 
L 357.154315 84.155586 
L 357.23552 66.081103 
L 357.316724 80.425393 
L 357.397928 53.568 
L 357.479132 186.465788 
L 357.641541 53.568 
L 357.803949 70.773517 
L 357.885153 124.154737 
L 358.047562 53.568 
L 358.128766 53.568 
L 358.20997 66.372106 
L 358.291175 53.568 
L 358.372379 71.328534 
L 358.453583 67.332414 
L 358.534787 53.568 
L 358.615992 73.231448 
L 358.697196 53.568 
L 358.7784 173.565454 
L 358.859604 53.568 
L 358.940809 81.802695 
L 359.103217 53.568 
L 359.184421 53.568 
L 359.265626 60.812428 
L 359.34683 85.954856 
L 359.509238 53.568 
L 359.590442 62.448267 
L 359.752851 53.568 
L 359.834055 53.568 
L 359.915259 102.978716 
L 360.077668 53.568 
L 360.158872 53.568 
L 360.240076 60.450207 
L 360.321281 59.970053 
L 360.402485 102.148284 
L 360.483689 63.060699 
L 360.564893 115.897421 
L 360.646098 60.122483 
L 360.727302 65.803034 
L 360.808506 60.122483 
L 360.88971 62.170759 
L 360.970915 68.448447 
L 361.052119 53.568 
L 361.133323 59.685517 
L 361.214527 53.568 
L 361.295732 72.553398 
L 361.376936 125.66731 
L 361.620548 62.744276 
L 361.701753 65.803034 
L 361.782957 182.035862 
L 361.864161 53.568 
L 361.945365 68.056857 
L 362.02657 68.448447 
L 362.188978 53.568 
L 362.270182 98.209342 
L 362.351387 53.568 
L 362.432591 84.850759 
L 362.594999 53.568 
L 362.676204 104.784423 
L 362.757408 53.568 
L 362.838612 60.122483 
L 362.919816 120.530013 
L 363.001021 66.372106 
L 363.082225 182.609379 
L 363.244633 53.568 
L 363.407042 71.521583 
L 363.488246 53.568 
L 363.56945 74.744021 
L 363.650654 59.970053 
L 363.813063 91.980318 
L 363.975471 59.824552 
L 364.056676 58.762118 
L 364.13788 108.625655 
L 364.300288 60.450207 
L 364.381493 59.970053 
L 364.462697 53.568 
L 364.543901 145.330759 
L 364.70631 61.910069 
L 364.787514 62.744276 
L 364.868718 72.337655 
L 364.949922 65.537055 
L 365.031126 100.425579 
L 365.112331 59.970053 
L 365.193535 61.214897 
L 365.274739 194.93225 
L 365.355943 58.965809 
L 365.437148 61.664714 
L 365.599556 59.970053 
L 365.843169 112.558345 
L 365.924373 53.568 
L 366.005577 61.664714 
L 366.086782 63.399724 
L 366.167986 83.063172 
L 366.24919 79.376276 
L 366.330394 59.970053 
L 366.411599 86.936276 
L 366.492803 78.594207 
L 366.655211 53.568 
L 366.736415 67.332414 
L 366.898824 59.824552 
L 366.980028 110.03739 
L 367.142437 53.568 
L 367.223641 77.506111 
L 367.386049 53.568 
L 367.629662 66.081103 
L 367.710866 53.568 
L 367.873275 67.685347 
L 367.954479 53.568 
L 368.279296 85.578265 
L 368.441704 60.626674 
L 368.522909 53.568 
L 368.685317 72.774159 
L 368.766521 74.344474 
L 368.847726 60.122483 
L 368.92893 73.231448 
L 369.010134 61.910069 
L 369.091338 66.081103 
L 369.172543 53.568 
L 369.334951 93.714207 
L 369.578564 53.568 
L 369.903381 90.769118 
L 370.065789 53.568 
L 370.146993 136.98869 
L 370.228198 61.214897 
L 370.309402 69.761428 
L 370.390606 61.214897 
L 370.47181 70.773517 
L 370.634219 59.970053 
L 370.715423 72.553398 
L 370.796627 60.122483 
L 370.959036 87.979034 
L 371.04024 152.389432 
L 371.202649 79.176212 
L 371.283853 75.301285 
L 371.365057 61.008224 
L 371.446261 69.298759 
L 371.527466 53.568 
L 371.60867 95.459694 
L 371.771078 53.568 
L 371.852283 81.096828 
L 371.933487 66.676966 
L 372.014691 79.785931 
L 372.095895 59.824552 
L 372.177099 74.744021 
L 372.258304 59.425197 
L 372.339508 68.056857 
L 372.501916 53.568 
L 372.583121 63.399724 
L 372.745529 53.568 
L 372.826733 64.804256 
L 372.907938 64.579531 
L 373.070346 53.568 
L 373.15155 66.996696 
L 373.232755 108.625655 
L 373.395163 60.812428 
L 373.557572 79.176212 
L 373.638776 67.685347 
L 373.71998 81.802695 
L 373.963593 53.568 
L 374.126001 53.568 
L 374.207205 154.507034 
L 374.28841 60.626674 
L 374.369614 61.910069 
L 374.450818 87.979034 
L 374.694431 53.568 
L 374.856839 76.996789 
L 374.938044 53.568 
L 375.019248 60.450207 
L 375.100452 69.761428 
L 375.181656 118.341712 
L 375.262861 53.568 
L 375.344065 73.711045 
L 375.506473 59.824552 
L 375.587677 53.568 
L 375.668882 118.767855 
L 375.83129 53.568 
L 375.912494 129.711566 
L 375.993699 60.282348 
L 376.074903 66.372106 
L 376.156107 53.568 
L 376.237311 77.164138 
L 376.39972 53.568 
L 376.562128 70.252138 
L 376.724537 53.568 
L 376.805741 130.392635 
L 376.886945 60.450207 
L 376.96815 106.003862 
L 377.130558 53.568 
L 377.211762 53.568 
L 377.292966 59.685517 
L 377.374171 59.425197 
L 377.536579 53.568 
L 377.780192 84.155586 
L 377.861396 53.568 
L 377.9426 59.685517 
L 378.105009 68.056857 
L 378.186213 64.156011 
L 378.267417 90.273103 
L 378.348622 60.626674 
L 378.429826 89.475166 
L 378.51103 53.568 
L 378.592234 91.980318 
L 378.673439 72.774159 
L 378.754643 73.711045 
L 378.835847 85.578265 
L 378.998255 53.568 
L 379.160664 97.969335 
L 379.241868 53.568 
L 379.323072 94.861241 
L 379.404277 59.685517 
L 379.485481 71.920552 
L 379.566685 59.685517 
L 379.647889 60.282348 
L 379.729094 68.448447 
L 379.810298 112.139974 
L 379.972706 53.568 
L 380.053911 95.920042 
L 380.135115 59.425197 
L 380.216319 91.10731 
L 380.378728 59.685517 
L 380.459932 191.212138 
L 380.541136 60.282348 
L 380.62234 165.171355 
L 380.703544 53.568 
L 380.784749 60.282348 
L 380.865953 186.114207 
L 380.947157 53.568 
L 381.028361 85.332032 
L 381.109566 132.221793 
L 381.271974 53.568 
L 381.434383 53.568 
L 381.596791 63.399724 
L 381.7592 53.568 
L 381.840404 61.214897 
L 381.921608 53.568 
L 382.002812 83.328895 
L 382.084017 68.861793 
L 382.165221 72.553398 
L 382.246425 73.959724 
L 382.490038 53.568 
L 382.571242 65.282395 
L 382.652446 143.335916 
L 382.814855 53.568 
L 382.896059 79.376276 
L 382.977263 53.568 
L 383.058467 108.625655 
L 383.139672 87.979034 
L 383.220876 157.731131 
L 383.30208 53.568 
L 383.383284 60.450207 
L 383.545693 85.029517 
L 383.626897 69.298759 
L 383.708101 74.214621 
L 383.789306 88.861369 
L 383.951714 53.568 
L 384.032918 127.970237 
L 384.114123 53.568 
L 384.195327 70.773517 
L 384.276531 53.568 
L 384.438939 96.390621 
L 384.601348 53.568 
L 384.682552 60.282348 
L 384.763756 172.859586 
L 384.926165 59.970053 
L 385.007369 53.568 
L 385.088573 106.003862 
L 385.169778 53.568 
L 385.250982 187.041103 
L 385.41339 53.568 
L 385.494595 66.081103 
L 385.575799 61.008224 
L 385.657003 66.996696 
L 385.738207 53.568 
L 385.819412 66.676966 
L 385.900616 98.209342 
L 385.98182 53.568 
L 386.063024 60.122483 
L 386.144228 53.568 
L 386.306637 66.996696 
L 386.387841 82.853987 
L 386.469045 61.910069 
L 386.55025 186.465788 
L 386.631454 53.568 
L 386.712658 77.858142 
L 386.793862 53.568 
L 386.875067 143.458049 
L 387.037475 66.676966 
L 387.118679 66.996696 
L 387.199884 53.568 
L 387.281088 65.803034 
L 387.362292 53.568 
L 387.524701 68.315586 
L 387.605905 66.996696 
L 387.687109 59.186128 
L 387.849517 99.449379 
L 388.011926 53.568 
L 388.09313 59.303172 
L 388.255539 175.918345 
L 388.336743 63.399724 
L 388.417947 72.553398 
L 388.580356 53.568 
L 388.66156 110.524195 
L 388.823968 53.568 
L 388.905173 59.552528 
L 388.986377 76.996789 
L 389.067581 66.676966 
L 389.148785 133.256711 
L 389.311194 67.685347 
L 389.392398 116.491034 
L 389.473602 68.583724 
L 389.554806 172.442483 
L 389.717215 53.568 
L 389.798419 60.626674 
L 389.960828 53.568 
L 390.042032 53.568 
L 390.20444 69.761428 
L 390.285645 53.568 
L 390.366849 77.506111 
L 390.529257 61.664714 
L 390.610462 66.676966 
L 390.691666 134.53514 
L 390.77287 73.711045 
L 390.854074 81.802695 
L 390.935279 53.568 
L 391.097687 80.425393 
L 391.178891 182.426342 
L 391.3413 53.568 
L 391.422504 53.568 
L 391.503708 60.282348 
L 391.584912 53.568 
L 391.666117 69.298759 
L 391.747321 66.996696 
L 391.828525 68.056857 
L 391.909729 60.122483 
L 391.990934 60.626674 
L 392.072138 59.552528 
L 392.153342 53.568 
L 392.234546 64.804256 
L 392.315751 175.918345 
L 392.478159 61.008224 
L 392.559363 63.956237 
L 392.88418 53.568 
L 392.965385 163.68331 
L 393.046589 53.568 
L 393.127793 59.824552 
L 393.208997 68.861793 
L 393.371406 53.568 
L 393.45261 69.761428 
L 393.533814 65.282395 
L 393.615018 184.955586 
L 393.696223 145.330759 
L 393.777427 65.537055 
L 393.858631 67.685347 
L 394.02104 53.568 
L 394.102244 66.081103 
L 394.264652 53.568 
L 394.345857 68.448447 
L 394.427061 53.568 
L 394.508265 59.970053 
L 394.589469 53.568 
L 394.751878 63.060699 
L 394.833082 53.568 
L 394.914286 61.214897 
L 394.99549 53.568 
L 395.076695 108.625655 
L 395.157899 107.282786 
L 395.320307 53.568 
L 395.645124 112.558345 
L 395.807533 53.568 
L 396.051146 105.649566 
L 396.13235 60.626674 
L 396.213554 124.356414 
L 396.375963 53.568 
L 396.457167 79.176212 
L 396.538371 149.598794 
L 396.619575 134.903172 
L 396.700779 60.122483 
L 396.781984 68.056857 
L 396.863188 59.552528 
L 396.944392 87.139741 
L 397.025596 53.568 
L 397.106801 59.685517 
L 397.188005 53.568 
L 397.269209 60.450207 
L 397.350413 182.609379 
L 397.431618 69.761428 
L 397.512822 131.213411 
L 397.594026 53.568 
L 397.67523 66.996696 
L 397.756435 59.552528 
L 397.837639 66.372106 
L 397.918843 61.008224 
L 398.000047 66.081103 
L 398.162456 59.552528 
L 398.24366 62.448267 
L 398.324864 61.214897 
L 398.487273 53.568 
L 398.487273 53.568 
" clip-path="url(#p0f7f3026a4)" style="fill: none; stroke: #1f77b4; stroke-width: 1.5; stroke-linecap: square"/>
   </g>
   <g id="patch_3">
    <path d="M 57.6 307.584 
L 57.6 41.472 
" style="fill: none; stroke: #000000; stroke-width: 0.8; stroke-linejoin: miter; stroke-linecap: square"/>
   </g>
   <g id="patch_4">
    <path d="M 414.72 307.584 
L 414.72 41.472 
" style="fill: none; stroke: #000000; stroke-width: 0.8; stroke-linejoin: miter; stroke-linecap: square"/>
   </g>
   <g id="patch_5">
    <path d="M 57.6 307.584 
L 414.72 307.584 
" style="fill: none; stroke: #000000; stroke-width: 0.8; stroke-linejoin: miter; stroke-linecap: square"/>
   </g>
   <g id="patch_6">
    <path d="M 57.6 41.472 
L 414.72 41.472 
" style="fill: none; stroke: #000000; stroke-width: 0.8; stroke-linejoin: miter; stroke-linecap: square"/>
   </g>
   <g id="text_17">
    <!-- Certainty of network -->
    <g transform="translate(174.447187 35.472) scale(0.12 -0.12)">
     <defs>
      <path id="DejaVuSans-43" d="M 4122 4306 
L 4122 3641 
Q 3803 3938 3442 4084 
Q 3081 4231 2675 4231 
Q 1875 4231 1450 3742 
Q 1025 3253 1025 2328 
Q 1025 1406 1450 917 
Q 1875 428 2675 428 
Q 3081 428 3442 575 
Q 3803 722 4122 1019 
L 4122 359 
Q 3791 134 3420 21 
Q 3050 -91 2638 -91 
Q 1578 -91 968 557 
Q 359 1206 359 2328 
Q 359 3453 968 4101 
Q 1578 4750 2638 4750 
Q 3056 4750 3426 4639 
Q 3797 4528 4122 4306 
z
" transform="scale(0.015625)"/>
      <path id="DejaVuSans-72" d="M 2631 2963 
Q 2534 3019 2420 3045 
Q 2306 3072 2169 3072 
Q 1681 3072 1420 2755 
Q 1159 2438 1159 1844 
L 1159 0 
L 581 0 
L 581 3500 
L 1159 3500 
L 1159 2956 
Q 1341 3275 1631 3429 
Q 1922 3584 2338 3584 
Q 2397 3584 2469 3576 
Q 2541 3569 2628 3553 
L 2631 2963 
z
" transform="scale(0.015625)"/>
     </defs>
     <use xlink:href="#DejaVuSans-43"/>
     <use xlink:href="#DejaVuSans-65" x="69.824219"/>
     <use xlink:href="#DejaVuSans-72" x="131.347656"/>
     <use xlink:href="#DejaVuSans-74" x="172.460938"/>
     <use xlink:href="#DejaVuSans-61" x="211.669922"/>
     <use xlink:href="#DejaVuSans-69" x="272.949219"/>
     <use xlink:href="#DejaVuSans-6e" x="300.732422"/>
     <use xlink:href="#DejaVuSans-74" x="364.111328"/>
     <use xlink:href="#DejaVuSans-79" x="403.320312"/>
     <use xlink:href="#DejaVuSans-20" x="462.5"/>
     <use xlink:href="#DejaVuSans-6f" x="494.287109"/>
     <use xlink:href="#DejaVuSans-66" x="555.46875"/>
     <use xlink:href="#DejaVuSans-20" x="590.673828"/>
     <use xlink:href="#DejaVuSans-6e" x="622.460938"/>
     <use xlink:href="#DejaVuSans-65" x="685.839844"/>
     <use xlink:href="#DejaVuSans-74" x="747.363281"/>
     <use xlink:href="#DejaVuSans-77" x="786.572266"/>
     <use xlink:href="#DejaVuSans-6f" x="868.359375"/>
     <use xlink:href="#DejaVuSans-72" x="929.541016"/>
     <use xlink:href="#DejaVuSans-6b" x="970.654297"/>
    </g>
   </g>
  </g>
 </g>
 <defs>
  <clipPath id="p0f7f3026a4">
   <rect x="57.6" y="41.472" width="357.12" height="266.112"/>
  </clipPath>
 </defs>
</svg>
