<?xml version="1.0" encoding="utf-8" standalone="no"?>
<!DOCTYPE svg PUBLIC "-//W3C//DTD SVG 1.1//EN"
  "http://www.w3.org/Graphics/SVG/1.1/DTD/svg11.dtd">
<svg xmlns:xlink="http://www.w3.org/1999/xlink" width="460.8pt" height="345.6pt" viewBox="0 0 460.8 345.6" xmlns="http://www.w3.org/2000/svg" version="1.1">
 <metadata>
  <rdf:RDF xmlns:dc="http://purl.org/dc/elements/1.1/" xmlns:cc="http://creativecommons.org/ns#" xmlns:rdf="http://www.w3.org/1999/02/22-rdf-syntax-ns#">
   <cc:Work>
    <dc:type rdf:resource="http://purl.org/dc/dcmitype/StillImage"/>
    <dc:date>2023-05-03T18:28:50.168388</dc:date>
    <dc:format>image/svg+xml</dc:format>
    <dc:creator>
     <cc:Agent>
      <dc:title>Matplotlib v3.6.2, https://matplotlib.org/</dc:title>
     </cc:Agent>
    </dc:creator>
   </cc:Work>
  </rdf:RDF>
 </metadata>
 <defs>
  <style type="text/css">*{stroke-linejoin: round; stroke-linecap: butt}</style>
 </defs>
 <g id="figure_1">
  <g id="patch_1">
   <path d="M 0 345.6 
L 460.8 345.6 
L 460.8 0 
L 0 0 
z
" style="fill: #ffffff"/>
  </g>
  <g id="axes_1">
   <g id="patch_2">
    <path d="M 57.6 307.584 
L 414.72 307.584 
L 414.72 41.472 
L 57.6 41.472 
z
" style="fill: #ffffff"/>
   </g>
   <g id="matplotlib.axis_1">
    <g id="xtick_1">
     <g id="line2d_1">
      <defs>
       <path id="m1fda983d61" d="M 0 0 
L 0 3.5 
" style="stroke: #000000; stroke-width: 0.8"/>
      </defs>
      <g>
       <use xlink:href="#m1fda983d61" x="73.832727" y="307.584" style="stroke: #000000; stroke-width: 0.8"/>
      </g>
     </g>
     <g id="text_1">
      <!-- 0 -->
      <g transform="translate(70.651477 322.182437) scale(0.1 -0.1)">
       <defs>
        <path id="DejaVuSans-30" d="M 2034 4250 
Q 1547 4250 1301 3770 
Q 1056 3291 1056 2328 
Q 1056 1369 1301 889 
Q 1547 409 2034 409 
Q 2525 409 2770 889 
Q 3016 1369 3016 2328 
Q 3016 3291 2770 3770 
Q 2525 4250 2034 4250 
z
M 2034 4750 
Q 2819 4750 3233 4129 
Q 3647 3509 3647 2328 
Q 3647 1150 3233 529 
Q 2819 -91 2034 -91 
Q 1250 -91 836 529 
Q 422 1150 422 2328 
Q 422 3509 836 4129 
Q 1250 4750 2034 4750 
z
" transform="scale(0.015625)"/>
       </defs>
       <use xlink:href="#DejaVuSans-30"/>
      </g>
     </g>
    </g>
    <g id="xtick_2">
     <g id="line2d_2">
      <g>
       <use xlink:href="#m1fda983d61" x="114.434847" y="307.584" style="stroke: #000000; stroke-width: 0.8"/>
      </g>
     </g>
     <g id="text_2">
      <!-- 500 -->
      <g transform="translate(104.891097 322.182437) scale(0.1 -0.1)">
       <defs>
        <path id="DejaVuSans-35" d="M 691 4666 
L 3169 4666 
L 3169 4134 
L 1269 4134 
L 1269 2991 
Q 1406 3038 1543 3061 
Q 1681 3084 1819 3084 
Q 2600 3084 3056 2656 
Q 3513 2228 3513 1497 
Q 3513 744 3044 326 
Q 2575 -91 1722 -91 
Q 1428 -91 1123 -41 
Q 819 9 494 109 
L 494 744 
Q 775 591 1075 516 
Q 1375 441 1709 441 
Q 2250 441 2565 725 
Q 2881 1009 2881 1497 
Q 2881 1984 2565 2268 
Q 2250 2553 1709 2553 
Q 1456 2553 1204 2497 
Q 953 2441 691 2322 
L 691 4666 
z
" transform="scale(0.015625)"/>
       </defs>
       <use xlink:href="#DejaVuSans-35"/>
       <use xlink:href="#DejaVuSans-30" x="63.623047"/>
       <use xlink:href="#DejaVuSans-30" x="127.246094"/>
      </g>
     </g>
    </g>
    <g id="xtick_3">
     <g id="line2d_3">
      <g>
       <use xlink:href="#m1fda983d61" x="155.036966" y="307.584" style="stroke: #000000; stroke-width: 0.8"/>
      </g>
     </g>
     <g id="text_3">
      <!-- 1000 -->
      <g transform="translate(142.311966 322.182437) scale(0.1 -0.1)">
       <defs>
        <path id="DejaVuSans-31" d="M 794 531 
L 1825 531 
L 1825 4091 
L 703 3866 
L 703 4441 
L 1819 4666 
L 2450 4666 
L 2450 531 
L 3481 531 
L 3481 0 
L 794 0 
L 794 531 
z
" transform="scale(0.015625)"/>
       </defs>
       <use xlink:href="#DejaVuSans-31"/>
       <use xlink:href="#DejaVuSans-30" x="63.623047"/>
       <use xlink:href="#DejaVuSans-30" x="127.246094"/>
       <use xlink:href="#DejaVuSans-30" x="190.869141"/>
      </g>
     </g>
    </g>
    <g id="xtick_4">
     <g id="line2d_4">
      <g>
       <use xlink:href="#m1fda983d61" x="195.639085" y="307.584" style="stroke: #000000; stroke-width: 0.8"/>
      </g>
     </g>
     <g id="text_4">
      <!-- 1500 -->
      <g transform="translate(182.914085 322.182437) scale(0.1 -0.1)">
       <use xlink:href="#DejaVuSans-31"/>
       <use xlink:href="#DejaVuSans-35" x="63.623047"/>
       <use xlink:href="#DejaVuSans-30" x="127.246094"/>
       <use xlink:href="#DejaVuSans-30" x="190.869141"/>
      </g>
     </g>
    </g>
    <g id="xtick_5">
     <g id="line2d_5">
      <g>
       <use xlink:href="#m1fda983d61" x="236.241204" y="307.584" style="stroke: #000000; stroke-width: 0.8"/>
      </g>
     </g>
     <g id="text_5">
      <!-- 2000 -->
      <g transform="translate(223.516204 322.182437) scale(0.1 -0.1)">
       <defs>
        <path id="DejaVuSans-32" d="M 1228 531 
L 3431 531 
L 3431 0 
L 469 0 
L 469 531 
Q 828 903 1448 1529 
Q 2069 2156 2228 2338 
Q 2531 2678 2651 2914 
Q 2772 3150 2772 3378 
Q 2772 3750 2511 3984 
Q 2250 4219 1831 4219 
Q 1534 4219 1204 4116 
Q 875 4013 500 3803 
L 500 4441 
Q 881 4594 1212 4672 
Q 1544 4750 1819 4750 
Q 2544 4750 2975 4387 
Q 3406 4025 3406 3419 
Q 3406 3131 3298 2873 
Q 3191 2616 2906 2266 
Q 2828 2175 2409 1742 
Q 1991 1309 1228 531 
z
" transform="scale(0.015625)"/>
       </defs>
       <use xlink:href="#DejaVuSans-32"/>
       <use xlink:href="#DejaVuSans-30" x="63.623047"/>
       <use xlink:href="#DejaVuSans-30" x="127.246094"/>
       <use xlink:href="#DejaVuSans-30" x="190.869141"/>
      </g>
     </g>
    </g>
    <g id="xtick_6">
     <g id="line2d_6">
      <g>
       <use xlink:href="#m1fda983d61" x="276.843323" y="307.584" style="stroke: #000000; stroke-width: 0.8"/>
      </g>
     </g>
     <g id="text_6">
      <!-- 2500 -->
      <g transform="translate(264.118323 322.182437) scale(0.1 -0.1)">
       <use xlink:href="#DejaVuSans-32"/>
       <use xlink:href="#DejaVuSans-35" x="63.623047"/>
       <use xlink:href="#DejaVuSans-30" x="127.246094"/>
       <use xlink:href="#DejaVuSans-30" x="190.869141"/>
      </g>
     </g>
    </g>
    <g id="xtick_7">
     <g id="line2d_7">
      <g>
       <use xlink:href="#m1fda983d61" x="317.445443" y="307.584" style="stroke: #000000; stroke-width: 0.8"/>
      </g>
     </g>
     <g id="text_7">
      <!-- 3000 -->
      <g transform="translate(304.720443 322.182437) scale(0.1 -0.1)">
       <defs>
        <path id="DejaVuSans-33" d="M 2597 2516 
Q 3050 2419 3304 2112 
Q 3559 1806 3559 1356 
Q 3559 666 3084 287 
Q 2609 -91 1734 -91 
Q 1441 -91 1130 -33 
Q 819 25 488 141 
L 488 750 
Q 750 597 1062 519 
Q 1375 441 1716 441 
Q 2309 441 2620 675 
Q 2931 909 2931 1356 
Q 2931 1769 2642 2001 
Q 2353 2234 1838 2234 
L 1294 2234 
L 1294 2753 
L 1863 2753 
Q 2328 2753 2575 2939 
Q 2822 3125 2822 3475 
Q 2822 3834 2567 4026 
Q 2313 4219 1838 4219 
Q 1578 4219 1281 4162 
Q 984 4106 628 3988 
L 628 4550 
Q 988 4650 1302 4700 
Q 1616 4750 1894 4750 
Q 2613 4750 3031 4423 
Q 3450 4097 3450 3541 
Q 3450 3153 3228 2886 
Q 3006 2619 2597 2516 
z
" transform="scale(0.015625)"/>
       </defs>
       <use xlink:href="#DejaVuSans-33"/>
       <use xlink:href="#DejaVuSans-30" x="63.623047"/>
       <use xlink:href="#DejaVuSans-30" x="127.246094"/>
       <use xlink:href="#DejaVuSans-30" x="190.869141"/>
      </g>
     </g>
    </g>
    <g id="xtick_8">
     <g id="line2d_8">
      <g>
       <use xlink:href="#m1fda983d61" x="358.047562" y="307.584" style="stroke: #000000; stroke-width: 0.8"/>
      </g>
     </g>
     <g id="text_8">
      <!-- 3500 -->
      <g transform="translate(345.322562 322.182437) scale(0.1 -0.1)">
       <use xlink:href="#DejaVuSans-33"/>
       <use xlink:href="#DejaVuSans-35" x="63.623047"/>
       <use xlink:href="#DejaVuSans-30" x="127.246094"/>
       <use xlink:href="#DejaVuSans-30" x="190.869141"/>
      </g>
     </g>
    </g>
    <g id="xtick_9">
     <g id="line2d_9">
      <g>
       <use xlink:href="#m1fda983d61" x="398.649681" y="307.584" style="stroke: #000000; stroke-width: 0.8"/>
      </g>
     </g>
     <g id="text_9">
      <!-- 4000 -->
      <g transform="translate(385.924681 322.182437) scale(0.1 -0.1)">
       <defs>
        <path id="DejaVuSans-34" d="M 2419 4116 
L 825 1625 
L 2419 1625 
L 2419 4116 
z
M 2253 4666 
L 3047 4666 
L 3047 1625 
L 3713 1625 
L 3713 1100 
L 3047 1100 
L 3047 0 
L 2419 0 
L 2419 1100 
L 313 1100 
L 313 1709 
L 2253 4666 
z
" transform="scale(0.015625)"/>
       </defs>
       <use xlink:href="#DejaVuSans-34"/>
       <use xlink:href="#DejaVuSans-30" x="63.623047"/>
       <use xlink:href="#DejaVuSans-30" x="127.246094"/>
       <use xlink:href="#DejaVuSans-30" x="190.869141"/>
      </g>
     </g>
    </g>
    <g id="text_10">
     <!-- Image shown -->
     <g transform="translate(202.820156 335.860562) scale(0.1 -0.1)">
      <defs>
       <path id="DejaVuSans-49" d="M 628 4666 
L 1259 4666 
L 1259 0 
L 628 0 
L 628 4666 
z
" transform="scale(0.015625)"/>
       <path id="DejaVuSans-6d" d="M 3328 2828 
Q 3544 3216 3844 3400 
Q 4144 3584 4550 3584 
Q 5097 3584 5394 3201 
Q 5691 2819 5691 2113 
L 5691 0 
L 5113 0 
L 5113 2094 
Q 5113 2597 4934 2840 
Q 4756 3084 4391 3084 
Q 3944 3084 3684 2787 
Q 3425 2491 3425 1978 
L 3425 0 
L 2847 0 
L 2847 2094 
Q 2847 2600 2669 2842 
Q 2491 3084 2119 3084 
Q 1678 3084 1418 2786 
Q 1159 2488 1159 1978 
L 1159 0 
L 581 0 
L 581 3500 
L 1159 3500 
L 1159 2956 
Q 1356 3278 1631 3431 
Q 1906 3584 2284 3584 
Q 2666 3584 2933 3390 
Q 3200 3197 3328 2828 
z
" transform="scale(0.015625)"/>
       <path id="DejaVuSans-61" d="M 2194 1759 
Q 1497 1759 1228 1600 
Q 959 1441 959 1056 
Q 959 750 1161 570 
Q 1363 391 1709 391 
Q 2188 391 2477 730 
Q 2766 1069 2766 1631 
L 2766 1759 
L 2194 1759 
z
M 3341 1997 
L 3341 0 
L 2766 0 
L 2766 531 
Q 2569 213 2275 61 
Q 1981 -91 1556 -91 
Q 1019 -91 701 211 
Q 384 513 384 1019 
Q 384 1609 779 1909 
Q 1175 2209 1959 2209 
L 2766 2209 
L 2766 2266 
Q 2766 2663 2505 2880 
Q 2244 3097 1772 3097 
Q 1472 3097 1187 3025 
Q 903 2953 641 2809 
L 641 3341 
Q 956 3463 1253 3523 
Q 1550 3584 1831 3584 
Q 2591 3584 2966 3190 
Q 3341 2797 3341 1997 
z
" transform="scale(0.015625)"/>
       <path id="DejaVuSans-67" d="M 2906 1791 
Q 2906 2416 2648 2759 
Q 2391 3103 1925 3103 
Q 1463 3103 1205 2759 
Q 947 2416 947 1791 
Q 947 1169 1205 825 
Q 1463 481 1925 481 
Q 2391 481 2648 825 
Q 2906 1169 2906 1791 
z
M 3481 434 
Q 3481 -459 3084 -895 
Q 2688 -1331 1869 -1331 
Q 1566 -1331 1297 -1286 
Q 1028 -1241 775 -1147 
L 775 -588 
Q 1028 -725 1275 -790 
Q 1522 -856 1778 -856 
Q 2344 -856 2625 -561 
Q 2906 -266 2906 331 
L 2906 616 
Q 2728 306 2450 153 
Q 2172 0 1784 0 
Q 1141 0 747 490 
Q 353 981 353 1791 
Q 353 2603 747 3093 
Q 1141 3584 1784 3584 
Q 2172 3584 2450 3431 
Q 2728 3278 2906 2969 
L 2906 3500 
L 3481 3500 
L 3481 434 
z
" transform="scale(0.015625)"/>
       <path id="DejaVuSans-65" d="M 3597 1894 
L 3597 1613 
L 953 1613 
Q 991 1019 1311 708 
Q 1631 397 2203 397 
Q 2534 397 2845 478 
Q 3156 559 3463 722 
L 3463 178 
Q 3153 47 2828 -22 
Q 2503 -91 2169 -91 
Q 1331 -91 842 396 
Q 353 884 353 1716 
Q 353 2575 817 3079 
Q 1281 3584 2069 3584 
Q 2775 3584 3186 3129 
Q 3597 2675 3597 1894 
z
M 3022 2063 
Q 3016 2534 2758 2815 
Q 2500 3097 2075 3097 
Q 1594 3097 1305 2825 
Q 1016 2553 972 2059 
L 3022 2063 
z
" transform="scale(0.015625)"/>
       <path id="DejaVuSans-20" transform="scale(0.015625)"/>
       <path id="DejaVuSans-73" d="M 2834 3397 
L 2834 2853 
Q 2591 2978 2328 3040 
Q 2066 3103 1784 3103 
Q 1356 3103 1142 2972 
Q 928 2841 928 2578 
Q 928 2378 1081 2264 
Q 1234 2150 1697 2047 
L 1894 2003 
Q 2506 1872 2764 1633 
Q 3022 1394 3022 966 
Q 3022 478 2636 193 
Q 2250 -91 1575 -91 
Q 1294 -91 989 -36 
Q 684 19 347 128 
L 347 722 
Q 666 556 975 473 
Q 1284 391 1588 391 
Q 1994 391 2212 530 
Q 2431 669 2431 922 
Q 2431 1156 2273 1281 
Q 2116 1406 1581 1522 
L 1381 1569 
Q 847 1681 609 1914 
Q 372 2147 372 2553 
Q 372 3047 722 3315 
Q 1072 3584 1716 3584 
Q 2034 3584 2315 3537 
Q 2597 3491 2834 3397 
z
" transform="scale(0.015625)"/>
       <path id="DejaVuSans-68" d="M 3513 2113 
L 3513 0 
L 2938 0 
L 2938 2094 
Q 2938 2591 2744 2837 
Q 2550 3084 2163 3084 
Q 1697 3084 1428 2787 
Q 1159 2491 1159 1978 
L 1159 0 
L 581 0 
L 581 4863 
L 1159 4863 
L 1159 2956 
Q 1366 3272 1645 3428 
Q 1925 3584 2291 3584 
Q 2894 3584 3203 3211 
Q 3513 2838 3513 2113 
z
" transform="scale(0.015625)"/>
       <path id="DejaVuSans-6f" d="M 1959 3097 
Q 1497 3097 1228 2736 
Q 959 2375 959 1747 
Q 959 1119 1226 758 
Q 1494 397 1959 397 
Q 2419 397 2687 759 
Q 2956 1122 2956 1747 
Q 2956 2369 2687 2733 
Q 2419 3097 1959 3097 
z
M 1959 3584 
Q 2709 3584 3137 3096 
Q 3566 2609 3566 1747 
Q 3566 888 3137 398 
Q 2709 -91 1959 -91 
Q 1206 -91 779 398 
Q 353 888 353 1747 
Q 353 2609 779 3096 
Q 1206 3584 1959 3584 
z
" transform="scale(0.015625)"/>
       <path id="DejaVuSans-77" d="M 269 3500 
L 844 3500 
L 1563 769 
L 2278 3500 
L 2956 3500 
L 3675 769 
L 4391 3500 
L 4966 3500 
L 4050 0 
L 3372 0 
L 2619 2869 
L 1863 0 
L 1184 0 
L 269 3500 
z
" transform="scale(0.015625)"/>
       <path id="DejaVuSans-6e" d="M 3513 2113 
L 3513 0 
L 2938 0 
L 2938 2094 
Q 2938 2591 2744 2837 
Q 2550 3084 2163 3084 
Q 1697 3084 1428 2787 
Q 1159 2491 1159 1978 
L 1159 0 
L 581 0 
L 581 3500 
L 1159 3500 
L 1159 2956 
Q 1366 3272 1645 3428 
Q 1925 3584 2291 3584 
Q 2894 3584 3203 3211 
Q 3513 2838 3513 2113 
z
" transform="scale(0.015625)"/>
      </defs>
      <use xlink:href="#DejaVuSans-49"/>
      <use xlink:href="#DejaVuSans-6d" x="29.492188"/>
      <use xlink:href="#DejaVuSans-61" x="126.904297"/>
      <use xlink:href="#DejaVuSans-67" x="188.183594"/>
      <use xlink:href="#DejaVuSans-65" x="251.660156"/>
      <use xlink:href="#DejaVuSans-20" x="313.183594"/>
      <use xlink:href="#DejaVuSans-73" x="344.970703"/>
      <use xlink:href="#DejaVuSans-68" x="397.070312"/>
      <use xlink:href="#DejaVuSans-6f" x="460.449219"/>
      <use xlink:href="#DejaVuSans-77" x="521.630859"/>
      <use xlink:href="#DejaVuSans-6e" x="603.417969"/>
     </g>
    </g>
   </g>
   <g id="matplotlib.axis_2">
    <g id="ytick_1">
     <g id="line2d_10">
      <defs>
       <path id="m78316e18ee" d="M 0 0 
L -3.5 0 
" style="stroke: #000000; stroke-width: 0.8"/>
      </defs>
      <g>
       <use xlink:href="#m78316e18ee" x="57.6" y="268.608" style="stroke: #000000; stroke-width: 0.8"/>
      </g>
     </g>
     <g id="text_11">
      <!-- 2 -->
      <g transform="translate(44.2375 272.407219) scale(0.1 -0.1)">
       <use xlink:href="#DejaVuSans-32"/>
      </g>
     </g>
    </g>
    <g id="ytick_2">
     <g id="line2d_11">
      <g>
       <use xlink:href="#m78316e18ee" x="57.6" y="214.848" style="stroke: #000000; stroke-width: 0.8"/>
      </g>
     </g>
     <g id="text_12">
      <!-- 4 -->
      <g transform="translate(44.2375 218.647219) scale(0.1 -0.1)">
       <use xlink:href="#DejaVuSans-34"/>
      </g>
     </g>
    </g>
    <g id="ytick_3">
     <g id="line2d_12">
      <g>
       <use xlink:href="#m78316e18ee" x="57.6" y="161.088" style="stroke: #000000; stroke-width: 0.8"/>
      </g>
     </g>
     <g id="text_13">
      <!-- 6 -->
      <g transform="translate(44.2375 164.887219) scale(0.1 -0.1)">
       <defs>
        <path id="DejaVuSans-36" d="M 2113 2584 
Q 1688 2584 1439 2293 
Q 1191 2003 1191 1497 
Q 1191 994 1439 701 
Q 1688 409 2113 409 
Q 2538 409 2786 701 
Q 3034 994 3034 1497 
Q 3034 2003 2786 2293 
Q 2538 2584 2113 2584 
z
M 3366 4563 
L 3366 3988 
Q 3128 4100 2886 4159 
Q 2644 4219 2406 4219 
Q 1781 4219 1451 3797 
Q 1122 3375 1075 2522 
Q 1259 2794 1537 2939 
Q 1816 3084 2150 3084 
Q 2853 3084 3261 2657 
Q 3669 2231 3669 1497 
Q 3669 778 3244 343 
Q 2819 -91 2113 -91 
Q 1303 -91 875 529 
Q 447 1150 447 2328 
Q 447 3434 972 4092 
Q 1497 4750 2381 4750 
Q 2619 4750 2861 4703 
Q 3103 4656 3366 4563 
z
" transform="scale(0.015625)"/>
       </defs>
       <use xlink:href="#DejaVuSans-36"/>
      </g>
     </g>
    </g>
    <g id="ytick_4">
     <g id="line2d_13">
      <g>
       <use xlink:href="#m78316e18ee" x="57.6" y="107.328" style="stroke: #000000; stroke-width: 0.8"/>
      </g>
     </g>
     <g id="text_14">
      <!-- 8 -->
      <g transform="translate(44.2375 111.127219) scale(0.1 -0.1)">
       <defs>
        <path id="DejaVuSans-38" d="M 2034 2216 
Q 1584 2216 1326 1975 
Q 1069 1734 1069 1313 
Q 1069 891 1326 650 
Q 1584 409 2034 409 
Q 2484 409 2743 651 
Q 3003 894 3003 1313 
Q 3003 1734 2745 1975 
Q 2488 2216 2034 2216 
z
M 1403 2484 
Q 997 2584 770 2862 
Q 544 3141 544 3541 
Q 544 4100 942 4425 
Q 1341 4750 2034 4750 
Q 2731 4750 3128 4425 
Q 3525 4100 3525 3541 
Q 3525 3141 3298 2862 
Q 3072 2584 2669 2484 
Q 3125 2378 3379 2068 
Q 3634 1759 3634 1313 
Q 3634 634 3220 271 
Q 2806 -91 2034 -91 
Q 1263 -91 848 271 
Q 434 634 434 1313 
Q 434 1759 690 2068 
Q 947 2378 1403 2484 
z
M 1172 3481 
Q 1172 3119 1398 2916 
Q 1625 2713 2034 2713 
Q 2441 2713 2670 2916 
Q 2900 3119 2900 3481 
Q 2900 3844 2670 4047 
Q 2441 4250 2034 4250 
Q 1625 4250 1398 4047 
Q 1172 3844 1172 3481 
z
" transform="scale(0.015625)"/>
       </defs>
       <use xlink:href="#DejaVuSans-38"/>
      </g>
     </g>
    </g>
    <g id="ytick_5">
     <g id="line2d_14">
      <g>
       <use xlink:href="#m78316e18ee" x="57.6" y="53.568" style="stroke: #000000; stroke-width: 0.8"/>
      </g>
     </g>
     <g id="text_15">
      <!-- 10 -->
      <g transform="translate(37.875 57.367219) scale(0.1 -0.1)">
       <use xlink:href="#DejaVuSans-31"/>
       <use xlink:href="#DejaVuSans-30" x="63.623047"/>
      </g>
     </g>
    </g>
    <g id="text_16">
     <!-- Number of distinct output neurons spiking -->
     <g transform="translate(31.795312 280.250656) rotate(-90) scale(0.1 -0.1)">
      <defs>
       <path id="DejaVuSans-4e" d="M 628 4666 
L 1478 4666 
L 3547 763 
L 3547 4666 
L 4159 4666 
L 4159 0 
L 3309 0 
L 1241 3903 
L 1241 0 
L 628 0 
L 628 4666 
z
" transform="scale(0.015625)"/>
       <path id="DejaVuSans-75" d="M 544 1381 
L 544 3500 
L 1119 3500 
L 1119 1403 
Q 1119 906 1312 657 
Q 1506 409 1894 409 
Q 2359 409 2629 706 
Q 2900 1003 2900 1516 
L 2900 3500 
L 3475 3500 
L 3475 0 
L 2900 0 
L 2900 538 
Q 2691 219 2414 64 
Q 2138 -91 1772 -91 
Q 1169 -91 856 284 
Q 544 659 544 1381 
z
M 1991 3584 
L 1991 3584 
z
" transform="scale(0.015625)"/>
       <path id="DejaVuSans-62" d="M 3116 1747 
Q 3116 2381 2855 2742 
Q 2594 3103 2138 3103 
Q 1681 3103 1420 2742 
Q 1159 2381 1159 1747 
Q 1159 1113 1420 752 
Q 1681 391 2138 391 
Q 2594 391 2855 752 
Q 3116 1113 3116 1747 
z
M 1159 2969 
Q 1341 3281 1617 3432 
Q 1894 3584 2278 3584 
Q 2916 3584 3314 3078 
Q 3713 2572 3713 1747 
Q 3713 922 3314 415 
Q 2916 -91 2278 -91 
Q 1894 -91 1617 61 
Q 1341 213 1159 525 
L 1159 0 
L 581 0 
L 581 4863 
L 1159 4863 
L 1159 2969 
z
" transform="scale(0.015625)"/>
       <path id="DejaVuSans-72" d="M 2631 2963 
Q 2534 3019 2420 3045 
Q 2306 3072 2169 3072 
Q 1681 3072 1420 2755 
Q 1159 2438 1159 1844 
L 1159 0 
L 581 0 
L 581 3500 
L 1159 3500 
L 1159 2956 
Q 1341 3275 1631 3429 
Q 1922 3584 2338 3584 
Q 2397 3584 2469 3576 
Q 2541 3569 2628 3553 
L 2631 2963 
z
" transform="scale(0.015625)"/>
       <path id="DejaVuSans-66" d="M 2375 4863 
L 2375 4384 
L 1825 4384 
Q 1516 4384 1395 4259 
Q 1275 4134 1275 3809 
L 1275 3500 
L 2222 3500 
L 2222 3053 
L 1275 3053 
L 1275 0 
L 697 0 
L 697 3053 
L 147 3053 
L 147 3500 
L 697 3500 
L 697 3744 
Q 697 4328 969 4595 
Q 1241 4863 1831 4863 
L 2375 4863 
z
" transform="scale(0.015625)"/>
       <path id="DejaVuSans-64" d="M 2906 2969 
L 2906 4863 
L 3481 4863 
L 3481 0 
L 2906 0 
L 2906 525 
Q 2725 213 2448 61 
Q 2172 -91 1784 -91 
Q 1150 -91 751 415 
Q 353 922 353 1747 
Q 353 2572 751 3078 
Q 1150 3584 1784 3584 
Q 2172 3584 2448 3432 
Q 2725 3281 2906 2969 
z
M 947 1747 
Q 947 1113 1208 752 
Q 1469 391 1925 391 
Q 2381 391 2643 752 
Q 2906 1113 2906 1747 
Q 2906 2381 2643 2742 
Q 2381 3103 1925 3103 
Q 1469 3103 1208 2742 
Q 947 2381 947 1747 
z
" transform="scale(0.015625)"/>
       <path id="DejaVuSans-69" d="M 603 3500 
L 1178 3500 
L 1178 0 
L 603 0 
L 603 3500 
z
M 603 4863 
L 1178 4863 
L 1178 4134 
L 603 4134 
L 603 4863 
z
" transform="scale(0.015625)"/>
       <path id="DejaVuSans-74" d="M 1172 4494 
L 1172 3500 
L 2356 3500 
L 2356 3053 
L 1172 3053 
L 1172 1153 
Q 1172 725 1289 603 
Q 1406 481 1766 481 
L 2356 481 
L 2356 0 
L 1766 0 
Q 1100 0 847 248 
Q 594 497 594 1153 
L 594 3053 
L 172 3053 
L 172 3500 
L 594 3500 
L 594 4494 
L 1172 4494 
z
" transform="scale(0.015625)"/>
       <path id="DejaVuSans-63" d="M 3122 3366 
L 3122 2828 
Q 2878 2963 2633 3030 
Q 2388 3097 2138 3097 
Q 1578 3097 1268 2742 
Q 959 2388 959 1747 
Q 959 1106 1268 751 
Q 1578 397 2138 397 
Q 2388 397 2633 464 
Q 2878 531 3122 666 
L 3122 134 
Q 2881 22 2623 -34 
Q 2366 -91 2075 -91 
Q 1284 -91 818 406 
Q 353 903 353 1747 
Q 353 2603 823 3093 
Q 1294 3584 2113 3584 
Q 2378 3584 2631 3529 
Q 2884 3475 3122 3366 
z
" transform="scale(0.015625)"/>
       <path id="DejaVuSans-70" d="M 1159 525 
L 1159 -1331 
L 581 -1331 
L 581 3500 
L 1159 3500 
L 1159 2969 
Q 1341 3281 1617 3432 
Q 1894 3584 2278 3584 
Q 2916 3584 3314 3078 
Q 3713 2572 3713 1747 
Q 3713 922 3314 415 
Q 2916 -91 2278 -91 
Q 1894 -91 1617 61 
Q 1341 213 1159 525 
z
M 3116 1747 
Q 3116 2381 2855 2742 
Q 2594 3103 2138 3103 
Q 1681 3103 1420 2742 
Q 1159 2381 1159 1747 
Q 1159 1113 1420 752 
Q 1681 391 2138 391 
Q 2594 391 2855 752 
Q 3116 1113 3116 1747 
z
" transform="scale(0.015625)"/>
       <path id="DejaVuSans-6b" d="M 581 4863 
L 1159 4863 
L 1159 1991 
L 2875 3500 
L 3609 3500 
L 1753 1863 
L 3688 0 
L 2938 0 
L 1159 1709 
L 1159 0 
L 581 0 
L 581 4863 
z
" transform="scale(0.015625)"/>
      </defs>
      <use xlink:href="#DejaVuSans-4e"/>
      <use xlink:href="#DejaVuSans-75" x="74.804688"/>
      <use xlink:href="#DejaVuSans-6d" x="138.183594"/>
      <use xlink:href="#DejaVuSans-62" x="235.595703"/>
      <use xlink:href="#DejaVuSans-65" x="299.072266"/>
      <use xlink:href="#DejaVuSans-72" x="360.595703"/>
      <use xlink:href="#DejaVuSans-20" x="401.708984"/>
      <use xlink:href="#DejaVuSans-6f" x="433.496094"/>
      <use xlink:href="#DejaVuSans-66" x="494.677734"/>
      <use xlink:href="#DejaVuSans-20" x="529.882812"/>
      <use xlink:href="#DejaVuSans-64" x="561.669922"/>
      <use xlink:href="#DejaVuSans-69" x="625.146484"/>
      <use xlink:href="#DejaVuSans-73" x="652.929688"/>
      <use xlink:href="#DejaVuSans-74" x="705.029297"/>
      <use xlink:href="#DejaVuSans-69" x="744.238281"/>
      <use xlink:href="#DejaVuSans-6e" x="772.021484"/>
      <use xlink:href="#DejaVuSans-63" x="835.400391"/>
      <use xlink:href="#DejaVuSans-74" x="890.380859"/>
      <use xlink:href="#DejaVuSans-20" x="929.589844"/>
      <use xlink:href="#DejaVuSans-6f" x="961.376953"/>
      <use xlink:href="#DejaVuSans-75" x="1022.558594"/>
      <use xlink:href="#DejaVuSans-74" x="1085.9375"/>
      <use xlink:href="#DejaVuSans-70" x="1125.146484"/>
      <use xlink:href="#DejaVuSans-75" x="1188.623047"/>
      <use xlink:href="#DejaVuSans-74" x="1252.001953"/>
      <use xlink:href="#DejaVuSans-20" x="1291.210938"/>
      <use xlink:href="#DejaVuSans-6e" x="1322.998047"/>
      <use xlink:href="#DejaVuSans-65" x="1386.376953"/>
      <use xlink:href="#DejaVuSans-75" x="1447.900391"/>
      <use xlink:href="#DejaVuSans-72" x="1511.279297"/>
      <use xlink:href="#DejaVuSans-6f" x="1550.142578"/>
      <use xlink:href="#DejaVuSans-6e" x="1611.324219"/>
      <use xlink:href="#DejaVuSans-73" x="1674.703125"/>
      <use xlink:href="#DejaVuSans-20" x="1726.802734"/>
      <use xlink:href="#DejaVuSans-73" x="1758.589844"/>
      <use xlink:href="#DejaVuSans-70" x="1810.689453"/>
      <use xlink:href="#DejaVuSans-69" x="1874.166016"/>
      <use xlink:href="#DejaVuSans-6b" x="1901.949219"/>
      <use xlink:href="#DejaVuSans-69" x="1959.859375"/>
      <use xlink:href="#DejaVuSans-6e" x="1987.642578"/>
      <use xlink:href="#DejaVuSans-67" x="2051.021484"/>
     </g>
    </g>
   </g>
   <g id="line2d_15">
    <path d="M 73.832727 53.568 
L 73.913932 53.568 
L 73.995136 80.448 
L 74.157544 53.568 
L 74.725974 53.568 
L 74.807178 80.448 
L 74.969587 53.568 
L 75.213199 53.568 
L 75.294404 80.448 
L 75.456812 53.568 
L 76.106446 53.568 
L 76.18765 80.448 
L 76.350059 53.568 
L 76.512467 80.448 
L 76.593671 80.448 
L 76.75608 53.568 
L 76.918488 53.568 
L 76.999693 80.448 
L 77.162101 53.568 
L 77.486918 53.568 
L 77.568122 80.448 
L 77.730531 53.568 
L 77.811735 53.568 
L 77.892939 80.448 
L 78.055348 53.568 
L 78.461369 53.568 
L 78.542573 80.448 
L 78.704982 53.568 
L 79.029799 53.568 
L 79.111003 80.448 
L 79.273411 53.568 
L 79.517024 53.568 
L 79.598228 80.448 
L 79.760637 53.568 
L 79.841841 80.448 
L 80.004249 53.568 
L 80.329066 53.568 
L 80.410271 80.448 
L 80.572679 53.568 
L 81.141109 53.568 
L 81.222313 80.448 
L 81.303517 53.568 
L 81.384721 80.448 
L 81.54713 53.568 
L 83.252419 53.568 
L 83.333623 80.448 
L 83.496032 53.568 
L 83.577236 53.568 
L 83.65844 80.448 
L 83.820849 53.568 
L 84.308074 53.568 
L 84.389278 80.448 
L 84.551687 53.568 
L 85.526138 53.568 
L 85.607342 80.448 
L 85.76975 53.568 
L 86.256976 53.568 
L 86.419384 80.448 
L 86.581793 53.568 
L 87.069018 53.568 
L 87.150222 80.448 
L 87.312631 53.568 
L 87.393835 53.568 
L 87.475039 80.448 
L 87.637448 53.568 
L 88.530694 53.568 
L 88.611899 107.328 
L 88.855511 53.568 
L 89.58635 53.568 
L 89.748758 80.448 
L 89.911166 53.568 
L 90.479596 53.568 
L 90.5608 80.448 
L 90.723209 53.568 
L 90.804413 80.448 
L 90.966822 53.568 
L 91.616456 53.568 
L 91.69766 80.448 
L 91.778864 53.568 
L 91.860068 80.448 
L 92.022477 53.568 
L 92.266089 53.568 
L 92.428498 80.448 
L 92.509702 80.448 
L 92.672111 53.568 
L 92.753315 53.568 
L 92.834519 80.448 
L 92.996928 53.568 
L 93.078132 107.328 
L 93.321745 53.568 
L 93.484153 53.568 
L 93.646561 80.448 
L 93.80897 53.568 
L 93.890174 53.568 
L 93.971378 80.448 
L 94.133787 53.568 
L 95.027034 53.568 
L 95.108238 80.448 
L 95.270646 53.568 
L 95.35185 80.448 
L 95.433055 53.568 
L 95.514259 80.448 
L 95.676667 53.568 
L 95.839076 53.568 
L 95.92028 80.448 
L 96.082689 53.568 
L 96.732323 53.568 
L 96.813527 80.448 
L 96.975935 53.568 
L 97.787978 53.568 
L 97.869182 80.448 
L 98.03159 53.568 
L 98.681224 53.568 
L 98.762428 80.448 
L 98.924837 53.568 
L 99.006041 80.448 
L 99.087245 53.568 
L 99.16845 107.328 
L 99.330858 53.568 
L 99.574471 53.568 
L 99.736879 80.448 
L 99.899288 53.568 
L 99.980492 107.328 
L 100.142901 53.568 
L 100.71133 53.568 
L 100.873739 80.448 
L 100.954943 53.568 
L 101.036147 80.448 
L 101.198556 53.568 
L 101.442168 53.568 
L 101.523373 80.448 
L 101.604577 53.568 
L 101.685781 80.448 
L 101.84819 53.568 
L 101.929394 80.448 
L 102.091802 53.568 
L 102.497823 53.568 
L 102.660232 80.448 
L 102.903845 80.448 
L 102.985049 107.328 
L 103.147457 53.568 
L 103.228662 80.448 
L 103.39107 53.568 
L 103.797091 53.568 
L 103.9595 80.448 
L 104.121908 53.568 
L 104.446725 53.568 
L 104.690338 107.328 
L 104.852746 80.448 
L 105.015155 80.448 
L 105.096359 134.208 
L 105.258768 53.568 
L 105.339972 80.448 
L 105.421176 53.568 
L 105.50238 80.448 
L 105.664789 53.568 
L 105.908401 53.568 
L 106.07081 80.448 
L 106.152014 53.568 
L 106.233218 107.328 
L 106.314423 53.568 
L 106.476831 80.448 
L 106.558035 53.568 
L 106.720444 134.208 
L 106.801648 53.568 
L 106.882852 80.448 
L 107.207669 80.448 
L 107.288874 107.328 
L 107.370078 53.568 
L 107.61369 107.328 
L 107.694895 80.448 
L 107.776099 107.328 
L 107.938507 53.568 
L 108.019712 134.208 
L 108.18212 53.568 
L 108.344529 80.448 
L 108.425733 53.568 
L 108.588141 80.448 
L 108.669346 80.448 
L 108.831754 107.328 
L 108.994163 80.448 
L 109.075367 107.328 
L 109.156571 80.448 
L 109.237775 107.328 
L 109.318979 80.448 
L 109.400184 134.208 
L 109.481388 80.448 
L 109.643796 134.208 
L 109.725001 53.568 
L 109.806205 161.088 
L 109.887409 134.208 
L 109.968613 53.568 
L 110.049818 80.448 
L 110.212226 107.328 
L 110.29343 107.328 
L 110.374635 134.208 
L 110.455839 53.568 
L 110.537043 80.448 
L 110.943064 80.448 
L 111.186677 134.208 
L 111.267881 134.208 
L 111.349085 80.448 
L 111.511494 161.088 
L 111.592698 80.448 
L 111.755107 161.088 
L 111.836311 80.448 
L 111.917515 107.328 
L 111.998719 187.968 
L 112.079924 80.448 
L 112.161128 187.968 
L 112.242332 161.088 
L 112.323536 107.328 
L 112.404741 187.968 
L 112.567149 80.448 
L 112.810762 187.968 
L 112.891966 134.208 
L 113.054374 187.968 
L 113.216783 134.208 
L 113.297987 134.208 
L 113.379191 161.088 
L 113.460396 80.448 
L 113.622804 187.968 
L 113.704008 187.968 
L 114.028825 107.328 
L 114.11003 134.208 
L 114.191234 214.848 
L 114.272438 134.208 
L 114.353642 214.848 
L 114.434847 107.328 
L 114.516051 241.728 
L 114.597255 134.208 
L 114.759663 214.848 
L 114.922072 134.208 
L 115.003276 134.208 
L 115.165685 187.968 
L 115.246889 107.328 
L 115.328093 214.848 
L 115.409297 107.328 
L 115.571706 214.848 
L 115.815319 134.208 
L 116.058931 214.848 
L 116.22134 161.088 
L 116.302544 187.968 
L 116.383748 161.088 
L 116.464952 241.728 
L 116.627361 161.088 
L 116.708565 134.208 
L 116.789769 161.088 
L 116.870974 80.448 
L 117.033382 241.728 
L 117.114586 134.208 
L 117.276995 187.968 
L 117.358199 187.968 
L 117.520608 214.848 
L 117.601812 107.328 
L 117.683016 214.848 
L 117.76422 161.088 
L 118.007833 214.848 
L 118.089037 161.088 
L 118.251446 214.848 
L 118.33265 161.088 
L 118.413854 241.728 
L 118.495058 214.848 
L 118.657467 187.968 
L 118.738671 187.968 
L 118.819875 241.728 
L 119.144692 134.208 
L 119.388305 214.848 
L 119.550714 187.968 
L 119.631918 187.968 
L 119.794326 214.848 
L 119.956735 187.968 
L 120.200347 241.728 
L 120.281552 187.968 
L 120.44396 241.728 
L 120.525164 187.968 
L 120.606369 241.728 
L 120.849981 187.968 
L 121.01239 241.728 
L 121.093594 161.088 
L 121.174798 187.968 
L 121.256003 241.728 
L 121.337207 214.848 
L 121.499615 241.728 
L 121.58082 161.088 
L 121.662024 187.968 
L 121.824432 241.728 
L 121.986841 241.728 
L 122.149249 161.088 
L 122.311658 268.608 
L 122.392862 268.608 
L 122.474066 214.848 
L 122.55527 241.728 
L 122.798883 187.968 
L 122.961292 268.608 
L 123.042496 161.088 
L 123.204904 241.728 
L 123.448517 187.968 
L 123.610925 241.728 
L 123.69213 241.728 
L 123.854538 214.848 
L 123.935742 268.608 
L 124.260559 161.088 
L 124.422968 214.848 
L 124.585376 268.608 
L 124.747785 214.848 
L 124.828989 134.208 
L 124.991398 268.608 
L 125.072602 214.848 
L 125.153806 241.728 
L 125.23501 187.968 
L 125.316214 241.728 
L 125.478623 187.968 
L 125.559827 241.728 
L 125.641031 187.968 
L 125.884644 241.728 
L 126.047053 214.848 
L 126.128257 214.848 
L 126.290665 241.728 
L 126.453074 187.968 
L 126.615482 214.848 
L 126.940299 214.848 
L 127.021503 241.728 
L 127.102708 214.848 
L 127.183912 241.728 
L 127.34632 214.848 
L 127.427525 214.848 
L 127.508729 241.728 
L 127.589933 187.968 
L 127.671137 268.608 
L 127.752342 241.728 
L 127.833546 187.968 
L 127.91475 241.728 
L 127.995954 214.848 
L 128.239567 268.608 
L 128.320771 268.608 
L 128.401976 187.968 
L 128.564384 241.728 
L 128.645588 268.608 
L 128.807997 214.848 
L 128.970405 268.608 
L 129.132814 241.728 
L 129.376426 241.728 
L 129.457631 268.608 
L 129.538835 214.848 
L 129.782448 268.608 
L 129.944856 187.968 
L 130.02606 268.608 
L 130.107265 161.088 
L 130.188469 268.608 
L 130.269673 241.728 
L 130.350877 241.728 
L 130.432081 187.968 
L 130.59449 241.728 
L 130.675694 214.848 
L 130.838103 268.608 
L 131.000511 214.848 
L 131.081715 214.848 
L 131.244124 241.728 
L 131.325328 241.728 
L 131.487737 214.848 
L 131.568941 214.848 
L 131.650145 241.728 
L 131.812554 214.848 
L 131.893758 241.728 
L 131.974962 214.848 
L 132.137371 268.608 
L 132.218575 241.728 
L 132.299779 268.608 
L 132.543392 187.968 
L 132.7058 268.608 
L 132.868209 214.848 
L 133.030617 268.608 
L 133.111821 241.728 
L 133.193026 268.608 
L 133.27423 241.728 
L 133.355434 268.608 
L 133.436638 214.848 
L 133.517843 268.608 
L 133.599047 214.848 
L 133.761455 268.608 
L 133.923864 214.848 
L 134.005068 268.608 
L 134.086272 214.848 
L 134.248681 268.608 
L 134.329885 268.608 
L 134.411089 241.728 
L 134.492293 268.608 
L 134.654702 214.848 
L 134.735906 268.608 
L 134.81711 241.728 
L 134.898315 268.608 
L 135.060723 214.848 
L 135.141927 268.608 
L 135.304336 214.848 
L 135.466744 268.608 
L 135.629153 268.608 
L 135.791561 241.728 
L 135.95397 241.728 
L 136.035174 214.848 
L 136.278787 268.608 
L 136.359991 214.848 
L 136.522399 268.608 
L 136.766012 214.848 
L 136.847216 214.848 
L 137.090829 268.608 
L 137.172033 241.728 
L 137.253238 268.608 
L 137.334442 241.728 
L 137.415646 295.488 
L 137.659259 241.728 
L 137.740463 241.728 
L 137.821667 295.488 
L 137.984076 241.728 
L 138.06528 268.608 
L 138.146484 241.728 
L 138.227688 268.608 
L 138.390097 241.728 
L 138.471301 241.728 
L 138.552505 214.848 
L 138.714914 295.488 
L 138.877322 241.728 
L 138.958527 241.728 
L 139.039731 214.848 
L 139.120935 241.728 
L 139.202139 214.848 
L 139.364548 268.608 
L 139.60816 268.608 
L 139.689365 241.728 
L 139.851773 268.608 
L 140.095386 268.608 
L 140.17659 295.488 
L 140.338999 241.728 
L 140.420203 241.728 
L 140.582611 268.608 
L 140.663816 268.608 
L 140.74502 241.728 
L 140.907428 268.608 
L 140.988632 268.608 
L 141.069837 241.728 
L 141.232245 268.608 
L 141.313449 241.728 
L 141.475858 268.608 
L 141.719471 268.608 
L 141.800675 214.848 
L 141.963083 268.608 
L 142.125492 241.728 
L 142.206696 268.608 
L 142.2879 241.728 
L 142.369105 268.608 
L 142.450309 241.728 
L 142.531513 268.608 
L 142.612717 214.848 
L 142.775126 295.488 
L 142.937534 241.728 
L 143.018738 268.608 
L 143.099943 241.728 
L 143.181147 295.488 
L 143.262351 214.848 
L 143.343555 295.488 
L 143.42476 268.608 
L 143.505964 241.728 
L 143.668372 268.608 
L 143.830781 241.728 
L 143.911985 241.728 
L 143.993189 268.608 
L 144.155598 241.728 
L 144.236802 295.488 
L 144.399211 214.848 
L 144.561619 268.608 
L 144.724027 268.608 
L 144.886436 241.728 
L 144.96764 241.728 
L 145.048844 268.608 
L 145.130049 214.848 
L 145.292457 295.488 
L 145.373661 241.728 
L 145.454866 268.608 
L 145.617274 241.728 
L 145.698478 241.728 
L 145.860887 268.608 
L 145.942091 268.608 
L 146.1045 241.728 
L 146.185704 268.608 
L 146.266908 241.728 
L 146.348112 268.608 
L 146.429316 241.728 
L 146.672929 295.488 
L 146.835338 241.728 
L 146.916542 241.728 
L 147.07895 268.608 
L 147.160155 268.608 
L 147.241359 241.728 
L 147.484972 295.488 
L 147.566176 214.848 
L 147.64738 268.608 
L 147.728584 241.728 
L 147.972197 295.488 
L 148.053401 295.488 
L 148.21581 214.848 
L 148.297014 241.728 
L 148.378218 268.608 
L 148.459422 241.728 
L 148.540627 268.608 
L 148.621831 241.728 
L 148.703035 268.608 
L 148.784239 241.728 
L 149.027852 295.488 
L 149.190261 268.608 
L 149.352669 295.488 
L 149.433873 268.608 
L 149.515078 295.488 
L 149.75869 241.728 
L 149.839894 295.488 
L 149.921099 241.728 
L 150.002303 268.608 
L 150.164711 214.848 
L 150.32712 241.728 
L 150.408324 241.728 
L 150.489528 295.488 
L 150.733141 214.848 
L 150.814345 241.728 
L 150.89555 214.848 
L 151.057958 295.488 
L 151.220367 295.488 
L 151.463979 241.728 
L 151.545184 268.608 
L 151.626388 241.728 
L 151.788796 295.488 
L 152.032409 241.728 
L 152.194817 268.608 
L 152.276022 241.728 
L 152.43843 295.488 
L 152.600839 241.728 
L 152.763247 268.608 
L 152.844451 268.608 
L 152.925656 241.728 
L 153.088064 268.608 
L 153.169268 268.608 
L 153.250473 295.488 
L 153.494085 241.728 
L 153.575289 241.728 
L 153.656494 268.608 
L 153.737698 241.728 
L 153.818902 295.488 
L 153.981311 241.728 
L 154.143719 268.608 
L 154.224923 241.728 
L 154.387332 268.608 
L 154.630945 268.608 
L 154.712149 295.488 
L 154.874557 241.728 
L 155.11817 295.488 
L 155.361783 241.728 
L 155.442987 241.728 
L 155.524191 268.608 
L 155.605395 241.728 
L 155.767804 268.608 
L 156.173825 268.608 
L 156.336234 241.728 
L 156.417438 295.488 
L 156.579846 241.728 
L 156.742255 268.608 
L 156.904663 268.608 
L 156.985867 241.728 
L 157.067072 268.608 
L 157.148276 241.728 
L 157.310684 268.608 
L 157.635501 268.608 
L 157.79791 214.848 
L 157.960318 268.608 
L 158.041523 214.848 
L 158.285135 295.488 
L 158.528748 241.728 
L 158.609952 241.728 
L 158.772361 268.608 
L 159.097178 268.608 
L 159.259586 241.728 
L 159.421995 241.728 
L 159.584403 268.608 
L 159.746812 268.608 
L 159.828016 295.488 
L 160.071629 241.728 
L 160.234037 295.488 
L 160.315241 268.608 
L 160.396445 295.488 
L 160.640058 241.728 
L 160.802467 295.488 
L 160.964875 241.728 
L 161.127284 268.608 
L 161.208488 241.728 
L 161.370896 268.608 
L 161.452101 241.728 
L 161.533305 268.608 
L 161.614509 214.848 
L 161.939326 295.488 
L 162.02053 295.488 
L 162.182939 241.728 
L 162.264143 241.728 
L 162.345347 295.488 
L 162.426551 268.608 
L 162.507756 295.488 
L 162.670164 268.608 
L 162.994981 268.608 
L 163.076185 214.848 
L 163.238594 268.608 
L 163.319798 241.728 
L 163.482207 268.608 
L 163.563411 268.608 
L 163.725819 295.488 
L 163.888228 268.608 
L 163.969432 295.488 
L 164.13184 268.608 
L 164.213045 268.608 
L 164.294249 241.728 
L 164.375453 295.488 
L 164.537862 241.728 
L 164.70027 268.608 
L 164.781474 268.608 
L 164.862679 241.728 
L 164.943883 268.608 
L 165.025087 214.848 
L 165.187496 268.608 
L 165.2687 241.728 
L 165.431108 268.608 
L 165.512313 241.728 
L 165.593517 295.488 
L 165.755925 268.608 
L 165.837129 295.488 
L 166.080742 241.728 
L 166.161946 241.728 
L 166.243151 268.608 
L 166.405559 241.728 
L 166.567968 295.488 
L 166.649172 295.488 
L 166.81158 268.608 
L 167.217602 268.608 
L 167.298806 295.488 
L 167.461214 241.728 
L 167.542418 268.608 
L 167.623623 241.728 
L 167.786031 268.608 
L 167.867235 214.848 
L 168.029644 268.608 
L 168.110848 241.728 
L 168.192052 268.608 
L 168.273257 241.728 
L 168.435665 268.608 
L 168.598074 241.728 
L 168.679278 241.728 
L 168.841686 268.608 
L 168.922891 241.728 
L 169.004095 295.488 
L 169.085299 268.608 
L 169.166503 295.488 
L 169.247707 241.728 
L 169.410116 268.608 
L 169.572524 241.728 
L 169.734933 268.608 
L 169.816137 268.608 
L 169.897341 241.728 
L 169.978546 295.488 
L 170.222158 241.728 
L 170.303363 241.728 
L 170.384567 268.608 
L 170.465771 241.728 
L 170.62818 268.608 
L 170.709384 241.728 
L 170.790588 295.488 
L 170.871792 241.728 
L 170.952996 295.488 
L 171.196609 241.728 
L 171.359018 295.488 
L 171.60263 241.728 
L 171.683835 295.488 
L 171.765039 241.728 
L 171.846243 268.608 
L 171.927447 241.728 
L 172.008652 295.488 
L 172.089856 268.608 
L 172.252264 295.488 
L 172.414673 268.608 
L 172.577081 268.608 
L 172.658286 241.728 
L 172.73949 295.488 
L 172.901898 214.848 
L 172.983102 295.488 
L 173.064307 268.608 
L 173.389124 268.608 
L 173.551532 241.728 
L 173.632736 241.728 
L 173.713941 268.608 
L 173.795145 241.728 
L 173.876349 295.488 
L 174.038758 241.728 
L 174.119962 268.608 
L 174.201166 241.728 
L 174.28237 295.488 
L 174.363575 241.728 
L 174.525983 268.608 
L 174.688391 268.608 
L 174.769596 295.488 
L 174.8508 241.728 
L 175.013208 268.608 
L 175.094413 241.728 
L 175.338025 295.488 
L 175.41923 295.488 
L 175.662842 241.728 
L 175.744047 241.728 
L 175.906455 295.488 
L 176.068864 295.488 
L 176.150068 268.608 
L 176.231272 295.488 
L 176.39368 268.608 
L 176.474885 295.488 
L 176.637293 268.608 
L 176.718497 268.608 
L 176.799702 295.488 
L 176.880906 268.608 
L 177.043314 295.488 
L 177.124519 295.488 
L 177.205723 214.848 
L 177.368131 295.488 
L 177.53054 241.728 
L 177.611744 241.728 
L 177.855357 295.488 
L 178.017765 241.728 
L 178.180174 295.488 
L 178.423786 241.728 
L 178.504991 295.488 
L 178.586195 241.728 
L 178.667399 295.488 
L 178.748603 268.608 
L 178.911012 295.488 
L 178.992216 268.608 
L 179.07342 295.488 
L 179.154625 241.728 
L 179.235829 295.488 
L 179.317033 241.728 
L 179.398237 268.608 
L 179.479442 241.728 
L 179.560646 268.608 
L 179.64185 241.728 
L 179.804258 268.608 
L 180.21028 268.608 
L 180.291484 295.488 
L 180.372688 241.728 
L 180.535097 295.488 
L 180.697505 241.728 
L 180.859914 268.608 
L 181.103526 268.608 
L 181.184731 241.728 
L 181.265935 295.488 
L 181.428343 268.608 
L 181.509548 268.608 
L 181.590752 295.488 
L 181.75316 268.608 
L 181.834364 295.488 
L 182.077977 241.728 
L 182.159181 295.488 
L 182.240386 268.608 
L 182.32159 295.488 
L 182.402794 241.728 
L 182.565203 268.608 
L 182.971224 268.608 
L 183.052428 241.728 
L 183.133632 268.608 
L 183.214837 241.728 
L 183.377245 295.488 
L 183.620858 295.488 
L 183.783266 241.728 
L 183.86447 268.608 
L 184.026879 241.728 
L 184.189287 295.488 
L 184.351696 268.608 
L 184.4329 268.608 
L 184.595309 241.728 
L 184.676513 295.488 
L 184.838921 268.608 
L 184.920126 295.488 
L 185.082534 268.608 
L 185.163738 268.608 
L 185.244942 241.728 
L 185.407351 295.488 
L 185.488555 241.728 
L 185.569759 295.488 
L 185.650964 241.728 
L 185.813372 268.608 
L 185.894576 268.608 
L 185.975781 241.728 
L 186.056985 268.608 
L 186.138189 241.728 
L 186.219393 268.608 
L 186.381802 241.728 
L 186.463006 295.488 
L 186.625415 241.728 
L 186.706619 295.488 
L 186.787823 268.608 
L 186.869027 295.488 
L 186.950231 268.608 
L 187.031436 295.488 
L 187.275048 241.728 
L 187.356253 241.728 
L 187.518661 268.608 
L 187.599865 268.608 
L 187.68107 241.728 
L 187.762274 295.488 
L 188.005887 241.728 
L 188.087091 295.488 
L 188.168295 268.608 
L 188.249499 295.488 
L 188.330704 241.728 
L 188.493112 295.488 
L 188.574316 268.608 
L 188.65552 295.488 
L 188.899133 241.728 
L 189.061542 295.488 
L 189.22395 241.728 
L 189.386359 295.488 
L 189.467563 295.488 
L 189.629971 241.728 
L 189.79238 295.488 
L 189.873584 295.488 
L 190.035993 241.728 
L 190.279605 295.488 
L 190.523218 241.728 
L 190.685626 268.608 
L 190.929239 268.608 
L 191.010443 241.728 
L 191.091648 295.488 
L 191.254056 268.608 
L 191.416465 295.488 
L 191.497669 241.728 
L 191.578873 268.608 
L 191.660077 241.728 
L 191.822486 295.488 
L 191.984894 268.608 
L 192.066099 295.488 
L 192.147303 241.728 
L 192.309711 295.488 
L 192.390915 268.608 
L 192.553324 295.488 
L 192.634528 241.728 
L 192.878141 295.488 
L 193.040549 268.608 
L 193.121754 295.488 
L 193.284162 268.608 
L 193.527775 268.608 
L 193.608979 295.488 
L 193.690183 268.608 
L 193.771388 295.488 
L 193.933796 241.728 
L 194.096204 268.608 
L 194.177409 268.608 
L 194.258613 241.728 
L 194.339817 295.488 
L 194.421021 241.728 
L 194.58343 268.608 
L 194.664634 241.728 
L 194.827043 295.488 
L 194.989451 268.608 
L 195.070655 268.608 
L 195.15186 241.728 
L 195.314268 295.488 
L 195.476677 268.608 
L 195.639085 295.488 
L 195.801493 268.608 
L 195.963902 268.608 
L 196.045106 241.728 
L 196.207515 268.608 
L 196.288719 241.728 
L 196.451127 295.488 
L 196.532332 295.488 
L 196.69474 268.608 
L 196.857149 268.608 
L 197.019557 295.488 
L 197.181966 295.488 
L 197.26317 268.608 
L 197.425578 295.488 
L 197.587987 268.608 
L 197.669191 268.608 
L 197.831599 295.488 
L 197.912804 268.608 
L 198.075212 295.488 
L 198.156416 295.488 
L 198.237621 241.728 
L 198.400029 268.608 
L 198.562438 268.608 
L 198.643642 241.728 
L 198.80605 268.608 
L 198.968459 241.728 
L 199.049663 241.728 
L 199.212071 295.488 
L 199.293276 268.608 
L 199.37448 295.488 
L 199.536888 268.608 
L 200.024114 268.608 
L 200.105318 241.728 
L 200.186522 268.608 
L 200.348931 241.728 
L 200.430135 295.488 
L 200.592544 268.608 
L 200.673748 268.608 
L 200.754952 241.728 
L 200.91736 268.608 
L 201.160973 268.608 
L 201.242177 241.728 
L 201.404586 268.608 
L 201.729403 268.608 
L 201.810607 295.488 
L 201.973016 241.728 
L 202.05422 295.488 
L 202.135424 268.608 
L 202.216628 295.488 
L 202.297833 268.608 
L 202.379037 295.488 
L 202.460241 268.608 
L 202.62265 295.488 
L 202.703854 295.488 
L 202.785058 241.728 
L 202.947466 268.608 
L 203.109875 241.728 
L 203.191079 268.608 
L 203.272283 241.728 
L 203.434692 295.488 
L 203.515896 268.608 
L 203.678305 295.488 
L 203.921917 241.728 
L 204.084326 268.608 
L 204.16553 241.728 
L 204.409143 295.488 
L 204.571551 268.608 
L 204.652755 268.608 
L 204.815164 295.488 
L 204.896368 241.728 
L 205.058777 295.488 
L 205.221185 241.728 
L 205.383594 295.488 
L 205.464798 241.728 
L 205.546002 268.608 
L 205.627206 241.728 
L 205.789615 268.608 
L 205.870819 268.608 
L 205.952023 295.488 
L 206.033228 241.728 
L 206.195636 268.608 
L 206.358044 214.848 
L 206.439249 295.488 
L 206.520453 268.608 
L 206.601657 268.608 
L 206.682861 241.728 
L 206.84527 268.608 
L 206.926474 268.608 
L 207.088883 241.728 
L 207.251291 268.608 
L 207.4137 241.728 
L 207.494904 241.728 
L 207.576108 295.488 
L 207.657312 241.728 
L 207.819721 295.488 
L 207.982129 268.608 
L 208.144538 295.488 
L 208.38815 241.728 
L 208.631763 295.488 
L 208.794172 241.728 
L 209.037784 295.488 
L 209.118989 241.728 
L 209.281397 295.488 
L 209.52501 241.728 
L 209.768622 295.488 
L 209.849827 268.608 
L 210.012235 295.488 
L 210.174644 295.488 
L 210.337052 268.608 
L 210.499461 268.608 
L 210.580665 295.488 
L 210.743073 268.608 
L 210.905482 295.488 
L 210.986686 268.608 
L 211.06789 295.488 
L 211.149095 268.608 
L 211.230299 295.488 
L 211.311503 268.608 
L 211.392707 295.488 
L 211.555116 268.608 
L 211.63632 268.608 
L 211.717524 295.488 
L 211.798728 241.728 
L 211.879933 295.488 
L 211.961137 241.728 
L 212.123545 268.608 
L 212.20475 268.608 
L 212.367158 241.728 
L 212.448362 241.728 
L 212.610771 295.488 
L 212.854384 241.728 
L 213.016792 295.488 
L 213.179201 268.608 
L 213.341609 268.608 
L 213.504017 295.488 
L 213.666426 268.608 
L 213.828834 295.488 
L 213.991243 241.728 
L 214.072447 295.488 
L 214.234856 241.728 
L 214.478468 295.488 
L 214.722081 241.728 
L 214.803285 268.608 
L 214.88449 241.728 
L 215.046898 295.488 
L 215.128102 241.728 
L 215.290511 295.488 
L 215.452919 268.608 
L 216.102553 268.608 
L 216.183757 295.488 
L 216.264962 241.728 
L 216.346166 295.488 
L 216.42737 268.608 
L 216.508574 295.488 
L 216.670983 268.608 
L 217.401821 268.608 
L 217.483025 241.728 
L 217.645434 295.488 
L 217.726638 241.728 
L 217.889046 295.488 
L 217.970251 241.728 
L 218.213863 295.488 
L 218.295068 295.488 
L 218.376272 268.608 
L 218.457476 295.488 
L 218.53868 268.608 
L 218.701089 295.488 
L 218.944701 241.728 
L 219.025906 295.488 
L 219.188314 241.728 
L 219.269518 268.608 
L 219.350723 241.728 
L 219.431927 295.488 
L 219.513131 241.728 
L 219.756744 295.488 
L 219.837948 268.608 
L 219.919152 295.488 
L 220.162765 241.728 
L 220.325173 295.488 
L 220.568786 241.728 
L 220.731195 295.488 
L 220.893603 241.728 
L 220.974807 268.608 
L 221.056012 241.728 
L 221.21842 295.488 
L 221.462033 241.728 
L 221.624441 295.488 
L 221.705646 241.728 
L 221.868054 295.488 
L 221.949258 295.488 
L 222.111667 241.728 
L 222.274075 268.608 
L 222.436484 268.608 
L 222.517688 295.488 
L 222.598892 268.608 
L 222.680096 295.488 
L 222.761301 268.608 
L 222.842505 295.488 
L 223.004913 268.608 
L 223.167322 268.608 
L 223.248526 295.488 
L 223.32973 241.728 
L 223.492139 295.488 
L 223.654547 268.608 
L 223.979364 268.608 
L 224.141773 241.728 
L 224.304181 295.488 
L 224.46659 268.608 
L 224.628998 268.608 
L 224.710202 295.488 
L 224.953815 241.728 
L 225.035019 295.488 
L 225.197428 268.608 
L 225.359836 268.608 
L 225.441041 295.488 
L 225.522245 268.608 
L 225.684653 295.488 
L 225.765857 295.488 
L 225.847062 268.608 
L 225.928266 295.488 
L 226.00947 268.608 
L 226.171879 295.488 
L 226.253083 268.608 
L 226.334287 295.488 
L 226.496696 268.608 
L 226.5779 268.608 
L 226.659104 295.488 
L 226.740308 241.728 
L 226.821513 268.608 
L 226.902717 241.728 
L 227.14633 295.488 
L 227.389942 241.728 
L 227.471146 295.488 
L 227.552351 268.608 
L 227.714759 295.488 
L 227.877168 268.608 
L 227.958372 268.608 
L 228.039576 241.728 
L 228.12078 295.488 
L 228.201985 241.728 
L 228.283189 268.608 
L 228.364393 241.728 
L 228.526802 268.608 
L 228.608006 268.608 
L 228.68921 295.488 
L 228.770414 268.608 
L 228.851619 295.488 
L 229.014027 241.728 
L 229.095231 268.608 
L 229.176435 241.728 
L 229.25764 268.608 
L 229.338844 241.728 
L 229.420048 268.608 
L 229.501252 241.728 
L 229.582457 295.488 
L 229.663661 241.728 
L 229.907274 295.488 
L 229.988478 241.728 
L 230.232091 295.488 
L 230.313295 241.728 
L 230.475703 295.488 
L 230.638112 241.728 
L 230.80052 268.608 
L 230.881724 241.728 
L 230.962929 295.488 
L 231.125337 268.608 
L 231.206541 295.488 
L 231.287746 268.608 
L 231.36895 295.488 
L 231.450154 241.728 
L 231.612563 268.608 
L 231.693767 241.728 
L 231.93738 295.488 
L 232.099788 268.608 
L 232.343401 268.608 
L 232.424605 241.728 
L 232.587014 295.488 
L 232.749422 268.608 
L 232.91183 268.608 
L 233.074239 241.728 
L 233.155443 268.608 
L 233.317852 241.728 
L 233.48026 295.488 
L 233.561464 241.728 
L 233.723873 268.608 
L 233.805077 241.728 
L 233.967486 268.608 
L 234.129894 268.608 
L 234.292303 241.728 
L 234.535915 295.488 
L 234.698324 268.608 
L 234.779528 268.608 
L 234.860732 295.488 
L 235.023141 268.608 
L 235.185549 268.608 
L 235.266753 214.848 
L 235.429162 268.608 
L 235.753979 268.608 
L 235.835183 295.488 
L 235.997592 268.608 
L 236.16 268.608 
L 236.322408 295.488 
L 236.484817 268.608 
L 236.566021 268.608 
L 236.647225 241.728 
L 236.809634 268.608 
L 238.108902 268.608 
L 238.190106 295.488 
L 238.352514 268.608 
L 238.677331 268.608 
L 238.83974 295.488 
L 238.920944 241.728 
L 239.002148 268.608 
L 239.083353 241.728 
L 239.326965 295.488 
L 239.489374 241.728 
L 239.651782 295.488 
L 239.732986 241.728 
L 239.814191 295.488 
L 239.895395 241.728 
L 240.057803 295.488 
L 240.139008 295.488 
L 240.220212 241.728 
L 240.463825 295.488 
L 240.626233 268.608 
L 240.707437 295.488 
L 240.869846 268.608 
L 241.032254 268.608 
L 241.113459 241.728 
L 241.194663 295.488 
L 241.357071 241.728 
L 241.438276 268.608 
L 241.51948 241.728 
L 241.600684 295.488 
L 241.763092 241.728 
L 241.925501 268.608 
L 242.087909 268.608 
L 242.169114 241.728 
L 242.331522 268.608 
L 242.412726 268.608 
L 242.493931 241.728 
L 242.737543 295.488 
L 242.899952 268.608 
L 243.06236 268.608 
L 243.224769 241.728 
L 243.305973 295.488 
L 243.387177 241.728 
L 243.549586 295.488 
L 243.711994 241.728 
L 243.793198 295.488 
L 243.955607 268.608 
L 244.280424 268.608 
L 244.361628 241.728 
L 244.442832 295.488 
L 244.524037 268.608 
L 244.605241 295.488 
L 244.686445 268.608 
L 244.767649 295.488 
L 244.930058 268.608 
L 245.17367 268.608 
L 245.254875 295.488 
L 245.417283 268.608 
L 245.498487 268.608 
L 245.579692 295.488 
L 245.823304 214.848 
L 245.904509 268.608 
L 245.985713 241.728 
L 246.066917 295.488 
L 246.148121 268.608 
L 246.229326 295.488 
L 246.31053 268.608 
L 246.391734 295.488 
L 246.554143 241.728 
L 246.635347 241.728 
L 246.716551 295.488 
L 246.797755 241.728 
L 246.878959 295.488 
L 247.041368 241.728 
L 247.203776 268.608 
L 247.366185 268.608 
L 247.528593 295.488 
L 247.609798 295.488 
L 247.772206 268.608 
L 247.934615 268.608 
L 248.097023 241.728 
L 248.259432 295.488 
L 248.42184 268.608 
L 248.503044 295.488 
L 248.665453 268.608 
L 248.909065 268.608 
L 248.99027 241.728 
L 249.152678 268.608 
L 249.233882 241.728 
L 249.396291 295.488 
L 249.558699 268.608 
L 249.639904 268.608 
L 249.721108 241.728 
L 249.883516 295.488 
L 249.964721 268.608 
L 250.045925 295.488 
L 250.127129 268.608 
L 250.208333 295.488 
L 250.370742 241.728 
L 250.53315 268.608 
L 250.695559 268.608 
L 250.776763 295.488 
L 251.020376 241.728 
L 251.182784 295.488 
L 251.345193 268.608 
L 251.67001 268.608 
L 251.751214 295.488 
L 251.913622 241.728 
L 251.994827 295.488 
L 252.076031 268.608 
L 252.238439 295.488 
L 252.400848 241.728 
L 252.64446 295.488 
L 252.725665 295.488 
L 252.806869 241.728 
L 253.050482 295.488 
L 253.131686 241.728 
L 253.21289 295.488 
L 253.294094 241.728 
L 253.375299 295.488 
L 253.456503 268.608 
L 253.537707 295.488 
L 253.618911 268.608 
L 253.700116 295.488 
L 253.78132 241.728 
L 253.862524 295.488 
L 254.106137 241.728 
L 254.349749 295.488 
L 254.512158 268.608 
L 254.593362 295.488 
L 254.674566 241.728 
L 254.836975 268.608 
L 254.918179 268.608 
L 255.080588 295.488 
L 255.161792 295.488 
L 255.242996 241.728 
L 255.486609 295.488 
L 255.649017 268.608 
L 255.730221 295.488 
L 255.89263 241.728 
L 256.055038 295.488 
L 256.136243 268.608 
L 256.217447 295.488 
L 256.298651 241.728 
L 256.46106 268.608 
L 256.623468 268.608 
L 256.704672 295.488 
L 256.867081 268.608 
L 257.110694 268.608 
L 257.191898 241.728 
L 257.43551 295.488 
L 257.597919 268.608 
L 257.760327 268.608 
L 257.841532 241.728 
L 258.00394 268.608 
L 258.166349 268.608 
L 258.247553 295.488 
L 258.409961 241.728 
L 258.653574 295.488 
L 258.897187 241.728 
L 258.978391 268.608 
L 259.059595 241.728 
L 259.140799 295.488 
L 259.303208 268.608 
L 259.384412 295.488 
L 259.465616 268.608 
L 259.546821 295.488 
L 259.709229 268.608 
L 259.871638 295.488 
L 260.034046 214.848 
L 260.196455 268.608 
L 260.277659 241.728 
L 260.358863 295.488 
L 260.440067 268.608 
L 260.521272 295.488 
L 260.602476 268.608 
L 260.764884 295.488 
L 260.927293 268.608 
L 261.008497 268.608 
L 261.089701 295.488 
L 261.333314 241.728 
L 261.414518 295.488 
L 261.576927 268.608 
L 261.658131 268.608 
L 261.739335 241.728 
L 261.901744 268.608 
L 261.982948 268.608 
L 262.064152 295.488 
L 262.145356 241.728 
L 262.307765 295.488 
L 262.470173 241.728 
L 262.632582 295.488 
L 262.79499 268.608 
L 262.876194 268.608 
L 262.957399 241.728 
L 263.119807 295.488 
L 263.282216 241.728 
L 263.444624 268.608 
L 263.607033 268.608 
L 263.688237 295.488 
L 263.769441 268.608 
L 263.850645 295.488 
L 264.013054 268.608 
L 264.094258 295.488 
L 264.175462 241.728 
L 264.337871 268.608 
L 264.419075 268.608 
L 264.581483 241.728 
L 264.662688 241.728 
L 264.825096 295.488 
L 264.9063 241.728 
L 265.149913 295.488 
L 265.231117 241.728 
L 265.393526 268.608 
L 265.555934 268.608 
L 265.637139 241.728 
L 265.799547 268.608 
L 265.961956 268.608 
L 266.04316 241.728 
L 266.286772 295.488 
L 266.367977 295.488 
L 266.611589 241.728 
L 266.773998 268.608 
L 266.936406 268.608 
L 267.098815 295.488 
L 267.342428 241.728 
L 267.423632 295.488 
L 267.58604 241.728 
L 267.667245 268.608 
L 267.748449 241.728 
L 267.910857 295.488 
L 267.992061 268.608 
L 268.073266 295.488 
L 268.235674 268.608 
L 268.316878 268.608 
L 268.398083 241.728 
L 268.560491 268.608 
L 268.641695 241.728 
L 268.7229 295.488 
L 268.885308 241.728 
L 268.966512 295.488 
L 269.047717 241.728 
L 269.210125 295.488 
L 269.291329 241.728 
L 269.372534 295.488 
L 269.453738 268.608 
L 269.534942 295.488 
L 269.778555 241.728 
L 269.859759 241.728 
L 269.940963 295.488 
L 270.103372 268.608 
L 270.26578 268.608 
L 270.346984 295.488 
L 270.509393 241.728 
L 270.590597 295.488 
L 270.671801 268.608 
L 270.753006 295.488 
L 270.83421 268.608 
L 270.915414 295.488 
L 271.077823 241.728 
L 271.159027 295.488 
L 271.321435 241.728 
L 271.483844 295.488 
L 271.565048 241.728 
L 271.646252 295.488 
L 271.727456 268.608 
L 271.808661 295.488 
L 271.889865 241.728 
L 272.052273 295.488 
L 272.133478 241.728 
L 272.214682 295.488 
L 272.295886 241.728 
L 272.37709 295.488 
L 272.539499 241.728 
L 272.783112 295.488 
L 272.94552 268.608 
L 273.107929 268.608 
L 273.189133 295.488 
L 273.351541 241.728 
L 273.51395 268.608 
L 273.595154 268.608 
L 273.676358 295.488 
L 273.757562 241.728 
L 273.838767 268.608 
L 273.919971 241.728 
L 274.082379 295.488 
L 274.244788 268.608 
L 274.488401 268.608 
L 274.569605 241.728 
L 274.732013 268.608 
L 275.05683 268.608 
L 275.138034 241.728 
L 275.219239 295.488 
L 275.300443 268.608 
L 275.381647 295.488 
L 275.462851 214.848 
L 275.544056 241.728 
L 275.706464 268.608 
L 275.868873 268.608 
L 275.950077 295.488 
L 276.112485 268.608 
L 276.19369 268.608 
L 276.356098 295.488 
L 276.437302 241.728 
L 276.518507 295.488 
L 276.599711 268.608 
L 276.680915 295.488 
L 276.843323 268.608 
L 276.924528 295.488 
L 277.005732 241.728 
L 277.086936 295.488 
L 277.16814 268.608 
L 277.330549 295.488 
L 277.411753 241.728 
L 277.574162 268.608 
L 277.73657 268.608 
L 277.817774 295.488 
L 277.898979 268.608 
L 277.980183 295.488 
L 278.142591 268.608 
L 278.305 268.608 
L 278.386204 295.488 
L 278.467408 241.728 
L 278.548612 295.488 
L 278.792225 241.728 
L 278.873429 268.608 
L 278.954634 241.728 
L 279.117042 295.488 
L 279.279451 268.608 
L 279.441859 268.608 
L 279.523063 295.488 
L 279.685472 268.608 
L 279.929085 268.608 
L 280.010289 241.728 
L 280.172697 268.608 
L 280.335106 268.608 
L 280.578718 214.848 
L 280.741127 295.488 
L 280.822331 268.608 
L 280.98474 268.608 
L 281.147148 295.488 
L 281.228352 295.488 
L 281.309557 268.608 
L 281.390761 295.488 
L 281.553169 268.608 
L 281.634374 295.488 
L 281.877986 241.728 
L 282.040395 268.608 
L 282.121599 268.608 
L 282.284007 241.728 
L 282.365212 241.728 
L 282.52762 268.608 
L 282.608824 241.728 
L 282.852437 295.488 
L 282.933641 268.608 
L 283.014846 295.488 
L 283.258458 241.728 
L 283.339663 241.728 
L 283.502071 268.608 
L 283.583275 268.608 
L 283.66448 295.488 
L 283.826888 268.608 
L 283.908092 295.488 
L 283.989296 268.608 
L 284.070501 295.488 
L 284.151705 241.728 
L 284.314113 295.488 
L 284.476522 241.728 
L 284.63893 295.488 
L 284.720135 295.488 
L 284.801339 268.608 
L 284.882543 295.488 
L 285.044952 268.608 
L 285.126156 268.608 
L 285.20736 295.488 
L 285.288564 241.728 
L 285.450973 295.488 
L 285.613381 241.728 
L 285.77579 268.608 
L 285.856994 268.608 
L 286.019402 295.488 
L 286.181811 268.608 
L 286.263015 295.488 
L 286.425424 268.608 
L 286.587832 268.608 
L 286.669036 295.488 
L 286.750241 268.608 
L 286.831445 295.488 
L 287.075058 241.728 
L 287.237466 295.488 
L 287.31867 241.728 
L 287.481079 268.608 
L 287.968304 268.608 
L 288.049508 241.728 
L 288.211917 295.488 
L 288.293121 295.488 
L 288.536734 241.728 
L 288.617938 268.608 
L 288.780347 241.728 
L 288.861551 268.608 
L 288.942755 241.728 
L 289.023959 295.488 
L 289.105163 268.608 
L 289.186368 295.488 
L 289.267572 268.608 
L 289.348776 295.488 
L 289.42998 241.728 
L 289.592389 268.608 
L 289.917206 268.608 
L 289.99841 241.728 
L 290.079614 295.488 
L 290.160819 241.728 
L 290.242023 268.608 
L 290.404431 241.728 
L 290.648044 295.488 
L 290.810452 241.728 
L 290.972861 268.608 
L 291.054065 241.728 
L 291.216474 268.608 
L 291.460086 268.608 
L 291.541291 295.488 
L 291.784903 241.728 
L 291.866108 268.608 
L 291.947312 241.728 
L 292.028516 268.608 
L 292.190925 241.728 
L 292.353333 295.488 
L 292.515742 268.608 
L 293.084171 268.608 
L 293.165375 295.488 
L 293.24658 241.728 
L 293.408988 268.608 
L 293.490192 268.608 
L 293.652601 295.488 
L 293.815009 268.608 
L 293.896214 295.488 
L 293.977418 268.608 
L 294.058622 295.488 
L 294.221031 268.608 
L 294.383439 268.608 
L 294.464643 295.488 
L 294.545847 268.608 
L 294.708256 295.488 
L 294.870664 268.608 
L 294.951869 268.608 
L 295.033073 295.488 
L 295.195481 241.728 
L 295.276686 295.488 
L 295.35789 241.728 
L 295.439094 295.488 
L 295.682707 241.728 
L 295.845115 241.728 
L 296.007524 295.488 
L 296.251136 241.728 
L 296.332341 241.728 
L 296.413545 295.488 
L 296.575953 214.848 
L 296.657158 268.608 
L 296.738362 241.728 
L 296.981975 295.488 
L 297.144383 241.728 
L 297.387996 295.488 
L 297.4692 268.608 
L 297.550404 295.488 
L 297.712813 268.608 
L 297.794017 268.608 
L 297.875221 241.728 
L 297.956425 295.488 
L 298.03763 241.728 
L 298.118834 295.488 
L 298.200038 268.608 
L 298.281242 295.488 
L 298.362447 241.728 
L 298.443651 295.488 
L 298.606059 268.608 
L 298.687264 268.608 
L 298.849672 241.728 
L 299.012081 295.488 
L 299.093285 295.488 
L 299.174489 268.608 
L 299.255693 295.488 
L 299.336898 241.728 
L 299.499306 268.608 
L 299.824123 268.608 
L 299.905327 295.488 
L 299.986531 268.608 
L 300.067736 295.488 
L 300.14894 268.608 
L 300.311348 295.488 
L 300.392553 214.848 
L 300.473757 268.608 
L 300.554961 241.728 
L 300.798574 295.488 
L 300.879778 241.728 
L 301.042187 268.608 
L 301.123391 268.608 
L 301.204595 295.488 
L 301.285799 268.608 
L 301.367004 295.488 
L 301.448208 241.728 
L 301.529412 295.488 
L 301.610616 268.608 
L 301.69182 295.488 
L 301.773025 241.728 
L 301.854229 268.608 
L 301.935433 241.728 
L 302.097842 295.488 
L 302.26025 241.728 
L 302.422659 268.608 
L 302.503863 268.608 
L 302.585067 295.488 
L 302.666271 241.728 
L 302.747476 295.488 
L 302.909884 268.608 
L 303.072293 295.488 
L 303.153497 241.728 
L 303.234701 295.488 
L 303.397109 268.608 
L 303.478314 268.608 
L 303.559518 295.488 
L 303.640722 241.728 
L 303.721926 295.488 
L 303.884335 241.728 
L 303.965539 241.728 
L 304.046743 295.488 
L 304.127948 241.728 
L 304.209152 268.608 
L 304.290356 241.728 
L 304.37156 295.488 
L 304.452765 241.728 
L 304.533969 295.488 
L 304.696377 268.608 
L 304.777582 295.488 
L 305.021194 241.728 
L 305.183603 268.608 
L 305.264807 268.608 
L 305.346011 295.488 
L 305.427215 268.608 
L 305.589624 295.488 
L 305.752032 268.608 
L 305.833237 268.608 
L 305.995645 295.488 
L 306.239258 241.728 
L 306.482871 295.488 
L 306.726483 295.488 
L 306.970096 241.728 
L 307.132504 268.608 
L 307.213709 241.728 
L 307.376117 268.608 
L 308.18816 268.608 
L 308.269364 214.848 
L 308.431772 268.608 
L 308.594181 241.728 
L 308.675385 295.488 
L 308.756589 268.608 
L 308.837793 295.488 
L 308.918998 241.728 
L 309.081406 268.608 
L 309.16261 241.728 
L 309.243815 268.608 
L 309.406223 241.728 
L 309.568632 241.728 
L 309.73104 295.488 
L 309.893449 268.608 
L 309.974653 268.608 
L 310.055857 241.728 
L 310.218265 268.608 
L 310.380674 268.608 
L 310.461878 295.488 
L 310.543082 268.608 
L 310.624287 295.488 
L 310.786695 268.608 
L 310.867899 268.608 
L 311.030308 241.728 
L 311.192716 268.608 
L 311.273921 241.728 
L 311.436329 295.488 
L 311.517533 241.728 
L 311.598738 295.488 
L 311.761146 268.608 
L 311.84235 295.488 
L 311.923555 241.728 
L 312.004759 295.488 
L 312.167167 268.608 
L 312.329576 268.608 
L 312.491984 241.728 
L 312.735597 295.488 
L 312.816801 241.728 
L 312.97921 268.608 
L 313.060414 268.608 
L 313.141618 295.488 
L 313.222822 241.728 
L 313.385231 295.488 
L 313.547639 268.608 
L 313.628844 295.488 
L 313.710048 241.728 
L 313.791252 268.608 
L 313.872456 241.728 
L 314.034865 295.488 
L 314.116069 241.728 
L 314.197273 268.608 
L 314.278477 241.728 
L 314.52209 295.488 
L 314.603294 295.488 
L 314.684499 268.608 
L 314.765703 295.488 
L 314.928111 241.728 
L 315.09052 295.488 
L 315.171724 268.608 
L 315.252928 295.488 
L 315.334133 241.728 
L 315.415337 295.488 
L 315.577745 268.608 
L 315.658949 268.608 
L 315.821358 295.488 
L 316.064971 241.728 
L 316.227379 295.488 
L 316.308583 295.488 
L 316.470992 268.608 
L 316.795809 268.608 
L 316.877013 295.488 
L 316.958217 241.728 
L 317.20183 295.488 
L 317.364238 268.608 
L 317.607851 268.608 
L 317.689055 295.488 
L 317.851464 268.608 
L 317.932668 268.608 
L 318.013872 295.488 
L 318.095077 241.728 
L 318.257485 268.608 
L 318.825915 268.608 
L 318.988323 295.488 
L 319.069527 268.608 
L 319.150732 295.488 
L 319.231936 241.728 
L 319.31314 295.488 
L 319.475549 241.728 
L 319.719161 295.488 
L 319.800366 268.608 
L 319.962774 295.488 
L 320.043978 295.488 
L 320.125183 241.728 
L 320.287591 295.488 
L 320.368795 295.488 
L 320.45 241.728 
L 320.612408 295.488 
L 320.693612 268.608 
L 320.856021 295.488 
L 321.099633 241.728 
L 321.180838 241.728 
L 321.262042 268.608 
L 321.343246 241.728 
L 321.505655 295.488 
L 321.668063 268.608 
L 321.749267 295.488 
L 321.830472 268.608 
L 321.911676 295.488 
L 322.074084 268.608 
L 322.155289 268.608 
L 322.236493 295.488 
L 322.317697 241.728 
L 322.480106 295.488 
L 322.642514 268.608 
L 323.129739 268.608 
L 323.210944 241.728 
L 323.292148 295.488 
L 323.454556 268.608 
L 323.535761 295.488 
L 323.698169 268.608 
L 323.779373 268.608 
L 323.860578 295.488 
L 324.022986 268.608 
L 324.185395 295.488 
L 324.266599 241.728 
L 324.429007 268.608 
L 324.916233 268.608 
L 324.997437 241.728 
L 325.159845 295.488 
L 325.24105 295.488 
L 325.403458 268.608 
L 325.484662 295.488 
L 325.728275 241.728 
L 325.809479 268.608 
L 325.890684 214.848 
L 325.971888 295.488 
L 326.053092 268.608 
L 326.296705 268.608 
L 326.377909 295.488 
L 326.459113 241.728 
L 326.621522 268.608 
L 326.78393 268.608 
L 326.865134 241.728 
L 327.027543 295.488 
L 327.108747 268.608 
L 327.189951 295.488 
L 327.35236 268.608 
L 327.433564 268.608 
L 327.514768 241.728 
L 327.758381 295.488 
L 327.920789 268.608 
L 328.001994 295.488 
L 328.083198 268.608 
L 328.164402 295.488 
L 328.245606 241.728 
L 328.408015 268.608 
L 328.732832 268.608 
L 328.89524 295.488 
L 328.976445 295.488 
L 329.057649 268.608 
L 329.138853 295.488 
L 329.382466 241.728 
L 329.626078 295.488 
L 329.788487 268.608 
L 329.869691 295.488 
L 330.0321 268.608 
L 330.194508 268.608 
L 330.275712 241.728 
L 330.356917 268.608 
L 330.438121 241.728 
L 330.681734 295.488 
L 330.762938 268.608 
L 330.844142 295.488 
L 331.087755 241.728 
L 331.250163 268.608 
L 331.331368 241.728 
L 331.412572 295.488 
L 331.493776 241.728 
L 331.57498 295.488 
L 331.737389 241.728 
L 331.899797 295.488 
L 332.062206 268.608 
L 332.14341 268.608 
L 332.224614 241.728 
L 332.305818 295.488 
L 332.468227 268.608 
L 332.630635 268.608 
L 332.71184 295.488 
L 332.793044 268.608 
L 332.874248 295.488 
L 333.036657 268.608 
L 333.199065 268.608 
L 333.361473 295.488 
L 333.442678 241.728 
L 333.605086 295.488 
L 333.767495 268.608 
L 333.848699 268.608 
L 333.929903 295.488 
L 334.011107 241.728 
L 334.092312 295.488 
L 334.173516 268.608 
L 334.25472 295.488 
L 334.417129 268.608 
L 334.579537 295.488 
L 334.741946 268.608 
L 334.82315 295.488 
L 334.985558 268.608 
L 335.066762 295.488 
L 335.310375 241.728 
L 335.472784 295.488 
L 335.716396 241.728 
L 335.960009 295.488 
L 336.041213 268.608 
L 336.203622 295.488 
L 336.36603 268.608 
L 336.690847 268.608 
L 336.772051 214.848 
L 336.93446 268.608 
L 337.096868 295.488 
L 337.259277 241.728 
L 337.421685 295.488 
L 337.584094 268.608 
L 337.746502 268.608 
L 337.827707 295.488 
L 337.908911 268.608 
L 337.990115 295.488 
L 338.152524 268.608 
L 338.314932 268.608 
L 338.396136 241.728 
L 338.47734 295.488 
L 338.720953 241.728 
L 338.964566 295.488 
L 339.04577 214.848 
L 339.208179 268.608 
L 339.451791 268.608 
L 339.532996 295.488 
L 339.695404 268.608 
L 339.857813 268.608 
L 340.020221 295.488 
L 340.182629 268.608 
L 340.263834 295.488 
L 340.426242 268.608 
L 340.588651 268.608 
L 340.669855 295.488 
L 340.832263 268.608 
L 340.913468 295.488 
L 340.994672 268.608 
L 341.075876 295.488 
L 341.15708 241.728 
L 341.319489 268.608 
L 341.400693 268.608 
L 341.563102 241.728 
L 341.72551 295.488 
L 341.887919 268.608 
L 341.969123 295.488 
L 342.131531 268.608 
L 342.212735 268.608 
L 342.29394 295.488 
L 342.456348 268.608 
L 342.618757 268.608 
L 342.781165 295.488 
L 342.943574 295.488 
L 343.024778 214.848 
L 343.105982 268.608 
L 343.187186 241.728 
L 343.268391 295.488 
L 343.512003 241.728 
L 343.593208 241.728 
L 343.674412 295.488 
L 343.83682 268.608 
L 343.999229 268.608 
L 344.161637 295.488 
L 344.324046 268.608 
L 344.40525 295.488 
L 344.648863 241.728 
L 344.730067 268.608 
L 344.811271 241.728 
L 344.892475 268.608 
L 345.054884 241.728 
L 345.136088 295.488 
L 345.298497 241.728 
L 345.460905 295.488 
L 345.542109 268.608 
L 345.623313 295.488 
L 345.704518 241.728 
L 345.866926 295.488 
L 346.110539 241.728 
L 346.191743 295.488 
L 346.435356 241.728 
L 346.51656 241.728 
L 346.678969 268.608 
L 346.760173 268.608 
L 346.841377 295.488 
L 346.922581 241.728 
L 347.08499 268.608 
L 347.166194 268.608 
L 347.247398 295.488 
L 347.328602 241.728 
L 347.491011 295.488 
L 347.572215 295.488 
L 347.734624 241.728 
L 347.815828 295.488 
L 348.059441 241.728 
L 348.140645 295.488 
L 348.303053 268.608 
L 348.384258 295.488 
L 348.546666 268.608 
L 348.62787 268.608 
L 348.709075 241.728 
L 348.952687 295.488 
L 349.115096 268.608 
L 349.1963 268.608 
L 349.277504 241.728 
L 349.439913 295.488 
L 349.683525 241.728 
L 349.845934 295.488 
L 350.089547 241.728 
L 350.170751 268.608 
L 350.251955 241.728 
L 350.414364 268.608 
L 350.495568 268.608 
L 350.576772 295.488 
L 350.657976 268.608 
L 350.73918 295.488 
L 350.982793 241.728 
L 351.145202 241.728 
L 351.388814 295.488 
L 351.632427 241.728 
L 351.713631 295.488 
L 351.87604 268.608 
L 352.119653 268.608 
L 352.282061 241.728 
L 352.44447 268.608 
L 352.525674 241.728 
L 352.688082 268.608 
L 352.769286 241.728 
L 352.931695 295.488 
L 353.012899 241.728 
L 353.094103 295.488 
L 353.256512 268.608 
L 353.337716 268.608 
L 353.41892 295.488 
L 353.581329 268.608 
L 353.743737 295.488 
L 353.906146 268.608 
L 353.98735 268.608 
L 354.068554 295.488 
L 354.149759 268.608 
L 354.230963 295.488 
L 354.393371 241.728 
L 354.474575 268.608 
L 354.55578 241.728 
L 354.636984 295.488 
L 354.799392 268.608 
L 354.880597 268.608 
L 355.043005 295.488 
L 355.124209 295.488 
L 355.367822 241.728 
L 355.449026 241.728 
L 355.530231 295.488 
L 355.692639 241.728 
L 355.855048 268.608 
L 356.09866 268.608 
L 356.261069 241.728 
L 356.342273 295.488 
L 356.504681 268.608 
L 356.585886 295.488 
L 356.748294 268.608 
L 356.829498 268.608 
L 356.910703 241.728 
L 357.073111 295.488 
L 357.23552 241.728 
L 357.397928 295.488 
L 357.479132 241.728 
L 357.641541 295.488 
L 357.885153 241.728 
L 358.128766 295.488 
L 358.20997 241.728 
L 358.291175 295.488 
L 358.453583 268.608 
L 358.534787 295.488 
L 358.615992 268.608 
L 358.697196 295.488 
L 358.7784 241.728 
L 358.859604 295.488 
L 358.940809 241.728 
L 359.103217 295.488 
L 359.184421 295.488 
L 359.34683 268.608 
L 359.428034 268.608 
L 359.509238 295.488 
L 359.590442 268.608 
L 359.752851 295.488 
L 359.834055 295.488 
L 359.915259 268.608 
L 360.077668 295.488 
L 360.158872 295.488 
L 360.321281 268.608 
L 360.483689 268.608 
L 360.564893 241.728 
L 360.727302 268.608 
L 360.970915 268.608 
L 361.052119 295.488 
L 361.133323 268.608 
L 361.214527 295.488 
L 361.376936 268.608 
L 361.701753 268.608 
L 361.782957 241.728 
L 361.864161 295.488 
L 362.02657 241.728 
L 362.188978 295.488 
L 362.270182 268.608 
L 362.351387 295.488 
L 362.432591 241.728 
L 362.594999 295.488 
L 362.676204 268.608 
L 362.757408 295.488 
L 362.919816 241.728 
L 363.082225 268.608 
L 363.163429 268.608 
L 363.244633 295.488 
L 363.407042 268.608 
L 363.488246 295.488 
L 363.650654 268.608 
L 363.731859 268.608 
L 363.813063 241.728 
L 363.975471 268.608 
L 364.056676 268.608 
L 364.13788 241.728 
L 364.300288 268.608 
L 364.381493 268.608 
L 364.462697 295.488 
L 364.625105 241.728 
L 364.787514 268.608 
L 364.868718 241.728 
L 364.949922 268.608 
L 365.031126 241.728 
L 365.193535 268.608 
L 365.274739 241.728 
L 365.437148 268.608 
L 365.599556 268.608 
L 365.68076 241.728 
L 365.924373 295.488 
L 366.167986 241.728 
L 366.24919 241.728 
L 366.330394 268.608 
L 366.411599 241.728 
L 366.655211 295.488 
L 366.736415 241.728 
L 366.898824 268.608 
L 366.980028 268.608 
L 367.061232 241.728 
L 367.142437 295.488 
L 367.223641 241.728 
L 367.386049 295.488 
L 367.548458 268.608 
L 367.629662 268.608 
L 367.710866 295.488 
L 367.873275 268.608 
L 367.954479 295.488 
L 368.116888 268.608 
L 368.198092 268.608 
L 368.3605 241.728 
L 368.522909 295.488 
L 368.766521 241.728 
L 368.847726 268.608 
L 368.92893 241.728 
L 369.172543 295.488 
L 369.253747 241.728 
L 369.334951 268.608 
L 369.416155 241.728 
L 369.578564 295.488 
L 369.740972 268.608 
L 369.822177 268.608 
L 369.903381 241.728 
L 370.065789 295.488 
L 370.146993 241.728 
L 370.309402 268.608 
L 371.446261 268.608 
L 371.527466 295.488 
L 371.60867 268.608 
L 371.771078 295.488 
L 372.014691 241.728 
L 372.095895 268.608 
L 372.177099 241.728 
L 372.258304 268.608 
L 372.339508 241.728 
L 372.501916 295.488 
L 372.583121 268.608 
L 372.745529 295.488 
L 372.907938 241.728 
L 373.070346 295.488 
L 373.232755 268.608 
L 373.476367 268.608 
L 373.557572 241.728 
L 373.71998 268.608 
L 373.801184 268.608 
L 373.963593 295.488 
L 374.126001 295.488 
L 374.28841 268.608 
L 374.613227 268.608 
L 374.694431 295.488 
L 374.856839 241.728 
L 374.938044 295.488 
L 375.181656 241.728 
L 375.262861 295.488 
L 375.344065 241.728 
L 375.587677 295.488 
L 375.668882 241.728 
L 375.83129 295.488 
L 375.912494 241.728 
L 376.156107 295.488 
L 376.318516 268.608 
L 376.39972 295.488 
L 376.562128 268.608 
L 376.643333 268.608 
L 376.724537 295.488 
L 376.886945 268.608 
L 377.049354 268.608 
L 377.211762 295.488 
L 377.374171 268.608 
L 377.536579 295.488 
L 377.780192 241.728 
L 377.861396 295.488 
L 378.023805 241.728 
L 378.105009 268.608 
L 378.267417 241.728 
L 378.348622 268.608 
L 378.429826 241.728 
L 378.51103 295.488 
L 378.592234 241.728 
L 378.673439 268.608 
L 378.754643 241.728 
L 378.998255 295.488 
L 379.160664 241.728 
L 379.241868 295.488 
L 379.323072 241.728 
L 379.404277 268.608 
L 379.485481 241.728 
L 379.647889 268.608 
L 379.729094 241.728 
L 379.810298 268.608 
L 379.891502 241.728 
L 379.972706 295.488 
L 380.216319 241.728 
L 380.297523 241.728 
L 380.459932 268.608 
L 380.62234 268.608 
L 380.703544 295.488 
L 380.865953 268.608 
L 380.947157 295.488 
L 381.109566 241.728 
L 381.353178 295.488 
L 381.434383 295.488 
L 381.596791 268.608 
L 381.7592 295.488 
L 381.840404 268.608 
L 381.921608 295.488 
L 382.084017 268.608 
L 382.246425 268.608 
L 382.408834 241.728 
L 382.490038 295.488 
L 382.73365 241.728 
L 382.814855 295.488 
L 382.896059 241.728 
L 382.977263 295.488 
L 383.139672 268.608 
L 383.220876 268.608 
L 383.30208 295.488 
L 383.545693 241.728 
L 383.708101 268.608 
L 383.789306 241.728 
L 383.951714 295.488 
L 384.032918 268.608 
L 384.114123 295.488 
L 384.195327 241.728 
L 384.276531 295.488 
L 384.438939 241.728 
L 384.601348 295.488 
L 384.763756 268.608 
L 384.926165 268.608 
L 385.007369 295.488 
L 385.088573 241.728 
L 385.169778 295.488 
L 385.250982 241.728 
L 385.41339 295.488 
L 385.657003 241.728 
L 385.738207 295.488 
L 385.900616 268.608 
L 385.98182 295.488 
L 386.063024 268.608 
L 386.144228 295.488 
L 386.387841 241.728 
L 386.631454 295.488 
L 386.712658 268.608 
L 386.793862 295.488 
L 386.956271 241.728 
L 387.199884 295.488 
L 387.281088 241.728 
L 387.362292 295.488 
L 387.524701 268.608 
L 387.687109 268.608 
L 387.768313 241.728 
L 388.011926 295.488 
L 388.174334 268.608 
L 388.417947 268.608 
L 388.580356 295.488 
L 388.66156 241.728 
L 388.823968 295.488 
L 388.986377 241.728 
L 389.148785 268.608 
L 389.392398 268.608 
L 389.554806 241.728 
L 389.636011 241.728 
L 389.717215 295.488 
L 389.798419 268.608 
L 389.960828 295.488 
L 390.042032 295.488 
L 390.20444 268.608 
L 390.285645 295.488 
L 390.366849 241.728 
L 390.529257 268.608 
L 390.610462 241.728 
L 390.691666 268.608 
L 390.77287 241.728 
L 390.935279 295.488 
L 391.097687 268.608 
L 391.178891 268.608 
L 391.3413 295.488 
L 391.422504 295.488 
L 391.503708 268.608 
L 391.584912 295.488 
L 391.747321 268.608 
L 392.072138 268.608 
L 392.153342 295.488 
L 392.315751 268.608 
L 392.640568 268.608 
L 392.802976 295.488 
L 392.88418 295.488 
L 392.965385 241.728 
L 393.046589 295.488 
L 393.208997 241.728 
L 393.371406 295.488 
L 393.45261 241.728 
L 393.533814 268.608 
L 393.696223 241.728 
L 393.777427 268.608 
L 393.858631 241.728 
L 394.02104 295.488 
L 394.183448 268.608 
L 394.264652 295.488 
L 394.345857 268.608 
L 394.427061 295.488 
L 394.508265 268.608 
L 394.589469 295.488 
L 394.751878 268.608 
L 394.833082 295.488 
L 394.914286 268.608 
L 394.99549 295.488 
L 395.157899 241.728 
L 395.320307 295.488 
L 395.56392 241.728 
L 395.807533 295.488 
L 395.888737 241.728 
L 395.969941 268.608 
L 396.051146 241.728 
L 396.13235 268.608 
L 396.213554 241.728 
L 396.375963 295.488 
L 396.538371 241.728 
L 396.619575 241.728 
L 396.781984 268.608 
L 396.863188 268.608 
L 396.944392 241.728 
L 397.025596 295.488 
L 397.106801 268.608 
L 397.188005 295.488 
L 397.431618 241.728 
L 397.512822 241.728 
L 397.594026 295.488 
L 397.837639 241.728 
L 397.918843 268.608 
L 398.000047 241.728 
L 398.162456 268.608 
L 398.324864 268.608 
L 398.487273 295.488 
L 398.487273 295.488 
" clip-path="url(#p51b0ecb06e)" style="fill: none; stroke: #1f77b4; stroke-width: 1.5; stroke-linecap: square"/>
   </g>
   <g id="patch_3">
    <path d="M 57.6 307.584 
L 57.6 41.472 
" style="fill: none; stroke: #000000; stroke-width: 0.8; stroke-linejoin: miter; stroke-linecap: square"/>
   </g>
   <g id="patch_4">
    <path d="M 414.72 307.584 
L 414.72 41.472 
" style="fill: none; stroke: #000000; stroke-width: 0.8; stroke-linejoin: miter; stroke-linecap: square"/>
   </g>
   <g id="patch_5">
    <path d="M 57.6 307.584 
L 414.72 307.584 
" style="fill: none; stroke: #000000; stroke-width: 0.8; stroke-linejoin: miter; stroke-linecap: square"/>
   </g>
   <g id="patch_6">
    <path d="M 57.6 41.472 
L 414.72 41.472 
" style="fill: none; stroke: #000000; stroke-width: 0.8; stroke-linejoin: miter; stroke-linecap: square"/>
   </g>
   <g id="text_17">
    <!-- Training progress -->
    <g transform="translate(184.686563 35.472) scale(0.12 -0.12)">
     <defs>
      <path id="DejaVuSans-54" d="M -19 4666 
L 3928 4666 
L 3928 4134 
L 2272 4134 
L 2272 0 
L 1638 0 
L 1638 4134 
L -19 4134 
L -19 4666 
z
" transform="scale(0.015625)"/>
     </defs>
     <use xlink:href="#DejaVuSans-54"/>
     <use xlink:href="#DejaVuSans-72" x="46.333984"/>
     <use xlink:href="#DejaVuSans-61" x="87.447266"/>
     <use xlink:href="#DejaVuSans-69" x="148.726562"/>
     <use xlink:href="#DejaVuSans-6e" x="176.509766"/>
     <use xlink:href="#DejaVuSans-69" x="239.888672"/>
     <use xlink:href="#DejaVuSans-6e" x="267.671875"/>
     <use xlink:href="#DejaVuSans-67" x="331.050781"/>
     <use xlink:href="#DejaVuSans-20" x="394.527344"/>
     <use xlink:href="#DejaVuSans-70" x="426.314453"/>
     <use xlink:href="#DejaVuSans-72" x="489.791016"/>
     <use xlink:href="#DejaVuSans-6f" x="528.654297"/>
     <use xlink:href="#DejaVuSans-67" x="589.835938"/>
     <use xlink:href="#DejaVuSans-72" x="653.3125"/>
     <use xlink:href="#DejaVuSans-65" x="692.175781"/>
     <use xlink:href="#DejaVuSans-73" x="753.699219"/>
     <use xlink:href="#DejaVuSans-73" x="805.798828"/>
    </g>
   </g>
  </g>
 </g>
 <defs>
  <clipPath id="p51b0ecb06e">
   <rect x="57.6" y="41.472" width="357.12" height="266.112"/>
  </clipPath>
 </defs>
</svg>
