<?xml version="1.0" encoding="utf-8" standalone="no"?>
<!DOCTYPE svg PUBLIC "-//W3C//DTD SVG 1.1//EN"
  "http://www.w3.org/Graphics/SVG/1.1/DTD/svg11.dtd">
<svg xmlns:xlink="http://www.w3.org/1999/xlink" width="460.8pt" height="345.6pt" viewBox="0 0 460.8 345.6" xmlns="http://www.w3.org/2000/svg" version="1.1">
 <metadata>
  <rdf:RDF xmlns:dc="http://purl.org/dc/elements/1.1/" xmlns:cc="http://creativecommons.org/ns#" xmlns:rdf="http://www.w3.org/1999/02/22-rdf-syntax-ns#">
   <cc:Work>
    <dc:type rdf:resource="http://purl.org/dc/dcmitype/StillImage"/>
    <dc:date>2023-05-03T18:33:10.150065</dc:date>
    <dc:format>image/svg+xml</dc:format>
    <dc:creator>
     <cc:Agent>
      <dc:title>Matplotlib v3.6.2, https://matplotlib.org/</dc:title>
     </cc:Agent>
    </dc:creator>
   </cc:Work>
  </rdf:RDF>
 </metadata>
 <defs>
  <style type="text/css">*{stroke-linejoin: round; stroke-linecap: butt}</style>
 </defs>
 <g id="figure_1">
  <g id="patch_1">
   <path d="M 0 345.6 
L 460.8 345.6 
L 460.8 0 
L 0 0 
z
" style="fill: #ffffff"/>
  </g>
  <g id="axes_1">
   <g id="patch_2">
    <path d="M 57.6 307.584 
L 414.72 307.584 
L 414.72 41.472 
L 57.6 41.472 
z
" style="fill: #ffffff"/>
   </g>
   <g id="matplotlib.axis_1">
    <g id="xtick_1">
     <g id="line2d_1">
      <defs>
       <path id="m42c14b5767" d="M 0 0 
L 0 3.5 
" style="stroke: #000000; stroke-width: 0.8"/>
      </defs>
      <g>
       <use xlink:href="#m42c14b5767" x="73.832727" y="307.584" style="stroke: #000000; stroke-width: 0.8"/>
      </g>
     </g>
     <g id="text_1">
      <!-- 0 -->
      <g transform="translate(70.651477 322.182437) scale(0.1 -0.1)">
       <defs>
        <path id="DejaVuSans-30" d="M 2034 4250 
Q 1547 4250 1301 3770 
Q 1056 3291 1056 2328 
Q 1056 1369 1301 889 
Q 1547 409 2034 409 
Q 2525 409 2770 889 
Q 3016 1369 3016 2328 
Q 3016 3291 2770 3770 
Q 2525 4250 2034 4250 
z
M 2034 4750 
Q 2819 4750 3233 4129 
Q 3647 3509 3647 2328 
Q 3647 1150 3233 529 
Q 2819 -91 2034 -91 
Q 1250 -91 836 529 
Q 422 1150 422 2328 
Q 422 3509 836 4129 
Q 1250 4750 2034 4750 
z
" transform="scale(0.015625)"/>
       </defs>
       <use xlink:href="#DejaVuSans-30"/>
      </g>
     </g>
    </g>
    <g id="xtick_2">
     <g id="line2d_2">
      <g>
       <use xlink:href="#m42c14b5767" x="114.424693" y="307.584" style="stroke: #000000; stroke-width: 0.8"/>
      </g>
     </g>
     <g id="text_2">
      <!-- 500 -->
      <g transform="translate(104.880943 322.182437) scale(0.1 -0.1)">
       <defs>
        <path id="DejaVuSans-35" d="M 691 4666 
L 3169 4666 
L 3169 4134 
L 1269 4134 
L 1269 2991 
Q 1406 3038 1543 3061 
Q 1681 3084 1819 3084 
Q 2600 3084 3056 2656 
Q 3513 2228 3513 1497 
Q 3513 744 3044 326 
Q 2575 -91 1722 -91 
Q 1428 -91 1123 -41 
Q 819 9 494 109 
L 494 744 
Q 775 591 1075 516 
Q 1375 441 1709 441 
Q 2250 441 2565 725 
Q 2881 1009 2881 1497 
Q 2881 1984 2565 2268 
Q 2250 2553 1709 2553 
Q 1456 2553 1204 2497 
Q 953 2441 691 2322 
L 691 4666 
z
" transform="scale(0.015625)"/>
       </defs>
       <use xlink:href="#DejaVuSans-35"/>
       <use xlink:href="#DejaVuSans-30" x="63.623047"/>
       <use xlink:href="#DejaVuSans-30" x="127.246094"/>
      </g>
     </g>
    </g>
    <g id="xtick_3">
     <g id="line2d_3">
      <g>
       <use xlink:href="#m42c14b5767" x="155.01666" y="307.584" style="stroke: #000000; stroke-width: 0.8"/>
      </g>
     </g>
     <g id="text_3">
      <!-- 1000 -->
      <g transform="translate(142.29166 322.182437) scale(0.1 -0.1)">
       <defs>
        <path id="DejaVuSans-31" d="M 794 531 
L 1825 531 
L 1825 4091 
L 703 3866 
L 703 4441 
L 1819 4666 
L 2450 4666 
L 2450 531 
L 3481 531 
L 3481 0 
L 794 0 
L 794 531 
z
" transform="scale(0.015625)"/>
       </defs>
       <use xlink:href="#DejaVuSans-31"/>
       <use xlink:href="#DejaVuSans-30" x="63.623047"/>
       <use xlink:href="#DejaVuSans-30" x="127.246094"/>
       <use xlink:href="#DejaVuSans-30" x="190.869141"/>
      </g>
     </g>
    </g>
    <g id="xtick_4">
     <g id="line2d_4">
      <g>
       <use xlink:href="#m42c14b5767" x="195.608626" y="307.584" style="stroke: #000000; stroke-width: 0.8"/>
      </g>
     </g>
     <g id="text_4">
      <!-- 1500 -->
      <g transform="translate(182.883626 322.182437) scale(0.1 -0.1)">
       <use xlink:href="#DejaVuSans-31"/>
       <use xlink:href="#DejaVuSans-35" x="63.623047"/>
       <use xlink:href="#DejaVuSans-30" x="127.246094"/>
       <use xlink:href="#DejaVuSans-30" x="190.869141"/>
      </g>
     </g>
    </g>
    <g id="xtick_5">
     <g id="line2d_5">
      <g>
       <use xlink:href="#m42c14b5767" x="236.200592" y="307.584" style="stroke: #000000; stroke-width: 0.8"/>
      </g>
     </g>
     <g id="text_5">
      <!-- 2000 -->
      <g transform="translate(223.475592 322.182437) scale(0.1 -0.1)">
       <defs>
        <path id="DejaVuSans-32" d="M 1228 531 
L 3431 531 
L 3431 0 
L 469 0 
L 469 531 
Q 828 903 1448 1529 
Q 2069 2156 2228 2338 
Q 2531 2678 2651 2914 
Q 2772 3150 2772 3378 
Q 2772 3750 2511 3984 
Q 2250 4219 1831 4219 
Q 1534 4219 1204 4116 
Q 875 4013 500 3803 
L 500 4441 
Q 881 4594 1212 4672 
Q 1544 4750 1819 4750 
Q 2544 4750 2975 4387 
Q 3406 4025 3406 3419 
Q 3406 3131 3298 2873 
Q 3191 2616 2906 2266 
Q 2828 2175 2409 1742 
Q 1991 1309 1228 531 
z
" transform="scale(0.015625)"/>
       </defs>
       <use xlink:href="#DejaVuSans-32"/>
       <use xlink:href="#DejaVuSans-30" x="63.623047"/>
       <use xlink:href="#DejaVuSans-30" x="127.246094"/>
       <use xlink:href="#DejaVuSans-30" x="190.869141"/>
      </g>
     </g>
    </g>
    <g id="xtick_6">
     <g id="line2d_6">
      <g>
       <use xlink:href="#m42c14b5767" x="276.792558" y="307.584" style="stroke: #000000; stroke-width: 0.8"/>
      </g>
     </g>
     <g id="text_6">
      <!-- 2500 -->
      <g transform="translate(264.067558 322.182437) scale(0.1 -0.1)">
       <use xlink:href="#DejaVuSans-32"/>
       <use xlink:href="#DejaVuSans-35" x="63.623047"/>
       <use xlink:href="#DejaVuSans-30" x="127.246094"/>
       <use xlink:href="#DejaVuSans-30" x="190.869141"/>
      </g>
     </g>
    </g>
    <g id="xtick_7">
     <g id="line2d_7">
      <g>
       <use xlink:href="#m42c14b5767" x="317.384524" y="307.584" style="stroke: #000000; stroke-width: 0.8"/>
      </g>
     </g>
     <g id="text_7">
      <!-- 3000 -->
      <g transform="translate(304.659524 322.182437) scale(0.1 -0.1)">
       <defs>
        <path id="DejaVuSans-33" d="M 2597 2516 
Q 3050 2419 3304 2112 
Q 3559 1806 3559 1356 
Q 3559 666 3084 287 
Q 2609 -91 1734 -91 
Q 1441 -91 1130 -33 
Q 819 25 488 141 
L 488 750 
Q 750 597 1062 519 
Q 1375 441 1716 441 
Q 2309 441 2620 675 
Q 2931 909 2931 1356 
Q 2931 1769 2642 2001 
Q 2353 2234 1838 2234 
L 1294 2234 
L 1294 2753 
L 1863 2753 
Q 2328 2753 2575 2939 
Q 2822 3125 2822 3475 
Q 2822 3834 2567 4026 
Q 2313 4219 1838 4219 
Q 1578 4219 1281 4162 
Q 984 4106 628 3988 
L 628 4550 
Q 988 4650 1302 4700 
Q 1616 4750 1894 4750 
Q 2613 4750 3031 4423 
Q 3450 4097 3450 3541 
Q 3450 3153 3228 2886 
Q 3006 2619 2597 2516 
z
" transform="scale(0.015625)"/>
       </defs>
       <use xlink:href="#DejaVuSans-33"/>
       <use xlink:href="#DejaVuSans-30" x="63.623047"/>
       <use xlink:href="#DejaVuSans-30" x="127.246094"/>
       <use xlink:href="#DejaVuSans-30" x="190.869141"/>
      </g>
     </g>
    </g>
    <g id="xtick_8">
     <g id="line2d_8">
      <g>
       <use xlink:href="#m42c14b5767" x="357.97649" y="307.584" style="stroke: #000000; stroke-width: 0.8"/>
      </g>
     </g>
     <g id="text_8">
      <!-- 3500 -->
      <g transform="translate(345.25149 322.182437) scale(0.1 -0.1)">
       <use xlink:href="#DejaVuSans-33"/>
       <use xlink:href="#DejaVuSans-35" x="63.623047"/>
       <use xlink:href="#DejaVuSans-30" x="127.246094"/>
       <use xlink:href="#DejaVuSans-30" x="190.869141"/>
      </g>
     </g>
    </g>
    <g id="xtick_9">
     <g id="line2d_9">
      <g>
       <use xlink:href="#m42c14b5767" x="398.568457" y="307.584" style="stroke: #000000; stroke-width: 0.8"/>
      </g>
     </g>
     <g id="text_9">
      <!-- 4000 -->
      <g transform="translate(385.843457 322.182437) scale(0.1 -0.1)">
       <defs>
        <path id="DejaVuSans-34" d="M 2419 4116 
L 825 1625 
L 2419 1625 
L 2419 4116 
z
M 2253 4666 
L 3047 4666 
L 3047 1625 
L 3713 1625 
L 3713 1100 
L 3047 1100 
L 3047 0 
L 2419 0 
L 2419 1100 
L 313 1100 
L 313 1709 
L 2253 4666 
z
" transform="scale(0.015625)"/>
       </defs>
       <use xlink:href="#DejaVuSans-34"/>
       <use xlink:href="#DejaVuSans-30" x="63.623047"/>
       <use xlink:href="#DejaVuSans-30" x="127.246094"/>
       <use xlink:href="#DejaVuSans-30" x="190.869141"/>
      </g>
     </g>
    </g>
    <g id="text_10">
     <!-- Image shown -->
     <g transform="translate(202.820156 335.860562) scale(0.1 -0.1)">
      <defs>
       <path id="DejaVuSans-49" d="M 628 4666 
L 1259 4666 
L 1259 0 
L 628 0 
L 628 4666 
z
" transform="scale(0.015625)"/>
       <path id="DejaVuSans-6d" d="M 3328 2828 
Q 3544 3216 3844 3400 
Q 4144 3584 4550 3584 
Q 5097 3584 5394 3201 
Q 5691 2819 5691 2113 
L 5691 0 
L 5113 0 
L 5113 2094 
Q 5113 2597 4934 2840 
Q 4756 3084 4391 3084 
Q 3944 3084 3684 2787 
Q 3425 2491 3425 1978 
L 3425 0 
L 2847 0 
L 2847 2094 
Q 2847 2600 2669 2842 
Q 2491 3084 2119 3084 
Q 1678 3084 1418 2786 
Q 1159 2488 1159 1978 
L 1159 0 
L 581 0 
L 581 3500 
L 1159 3500 
L 1159 2956 
Q 1356 3278 1631 3431 
Q 1906 3584 2284 3584 
Q 2666 3584 2933 3390 
Q 3200 3197 3328 2828 
z
" transform="scale(0.015625)"/>
       <path id="DejaVuSans-61" d="M 2194 1759 
Q 1497 1759 1228 1600 
Q 959 1441 959 1056 
Q 959 750 1161 570 
Q 1363 391 1709 391 
Q 2188 391 2477 730 
Q 2766 1069 2766 1631 
L 2766 1759 
L 2194 1759 
z
M 3341 1997 
L 3341 0 
L 2766 0 
L 2766 531 
Q 2569 213 2275 61 
Q 1981 -91 1556 -91 
Q 1019 -91 701 211 
Q 384 513 384 1019 
Q 384 1609 779 1909 
Q 1175 2209 1959 2209 
L 2766 2209 
L 2766 2266 
Q 2766 2663 2505 2880 
Q 2244 3097 1772 3097 
Q 1472 3097 1187 3025 
Q 903 2953 641 2809 
L 641 3341 
Q 956 3463 1253 3523 
Q 1550 3584 1831 3584 
Q 2591 3584 2966 3190 
Q 3341 2797 3341 1997 
z
" transform="scale(0.015625)"/>
       <path id="DejaVuSans-67" d="M 2906 1791 
Q 2906 2416 2648 2759 
Q 2391 3103 1925 3103 
Q 1463 3103 1205 2759 
Q 947 2416 947 1791 
Q 947 1169 1205 825 
Q 1463 481 1925 481 
Q 2391 481 2648 825 
Q 2906 1169 2906 1791 
z
M 3481 434 
Q 3481 -459 3084 -895 
Q 2688 -1331 1869 -1331 
Q 1566 -1331 1297 -1286 
Q 1028 -1241 775 -1147 
L 775 -588 
Q 1028 -725 1275 -790 
Q 1522 -856 1778 -856 
Q 2344 -856 2625 -561 
Q 2906 -266 2906 331 
L 2906 616 
Q 2728 306 2450 153 
Q 2172 0 1784 0 
Q 1141 0 747 490 
Q 353 981 353 1791 
Q 353 2603 747 3093 
Q 1141 3584 1784 3584 
Q 2172 3584 2450 3431 
Q 2728 3278 2906 2969 
L 2906 3500 
L 3481 3500 
L 3481 434 
z
" transform="scale(0.015625)"/>
       <path id="DejaVuSans-65" d="M 3597 1894 
L 3597 1613 
L 953 1613 
Q 991 1019 1311 708 
Q 1631 397 2203 397 
Q 2534 397 2845 478 
Q 3156 559 3463 722 
L 3463 178 
Q 3153 47 2828 -22 
Q 2503 -91 2169 -91 
Q 1331 -91 842 396 
Q 353 884 353 1716 
Q 353 2575 817 3079 
Q 1281 3584 2069 3584 
Q 2775 3584 3186 3129 
Q 3597 2675 3597 1894 
z
M 3022 2063 
Q 3016 2534 2758 2815 
Q 2500 3097 2075 3097 
Q 1594 3097 1305 2825 
Q 1016 2553 972 2059 
L 3022 2063 
z
" transform="scale(0.015625)"/>
       <path id="DejaVuSans-20" transform="scale(0.015625)"/>
       <path id="DejaVuSans-73" d="M 2834 3397 
L 2834 2853 
Q 2591 2978 2328 3040 
Q 2066 3103 1784 3103 
Q 1356 3103 1142 2972 
Q 928 2841 928 2578 
Q 928 2378 1081 2264 
Q 1234 2150 1697 2047 
L 1894 2003 
Q 2506 1872 2764 1633 
Q 3022 1394 3022 966 
Q 3022 478 2636 193 
Q 2250 -91 1575 -91 
Q 1294 -91 989 -36 
Q 684 19 347 128 
L 347 722 
Q 666 556 975 473 
Q 1284 391 1588 391 
Q 1994 391 2212 530 
Q 2431 669 2431 922 
Q 2431 1156 2273 1281 
Q 2116 1406 1581 1522 
L 1381 1569 
Q 847 1681 609 1914 
Q 372 2147 372 2553 
Q 372 3047 722 3315 
Q 1072 3584 1716 3584 
Q 2034 3584 2315 3537 
Q 2597 3491 2834 3397 
z
" transform="scale(0.015625)"/>
       <path id="DejaVuSans-68" d="M 3513 2113 
L 3513 0 
L 2938 0 
L 2938 2094 
Q 2938 2591 2744 2837 
Q 2550 3084 2163 3084 
Q 1697 3084 1428 2787 
Q 1159 2491 1159 1978 
L 1159 0 
L 581 0 
L 581 4863 
L 1159 4863 
L 1159 2956 
Q 1366 3272 1645 3428 
Q 1925 3584 2291 3584 
Q 2894 3584 3203 3211 
Q 3513 2838 3513 2113 
z
" transform="scale(0.015625)"/>
       <path id="DejaVuSans-6f" d="M 1959 3097 
Q 1497 3097 1228 2736 
Q 959 2375 959 1747 
Q 959 1119 1226 758 
Q 1494 397 1959 397 
Q 2419 397 2687 759 
Q 2956 1122 2956 1747 
Q 2956 2369 2687 2733 
Q 2419 3097 1959 3097 
z
M 1959 3584 
Q 2709 3584 3137 3096 
Q 3566 2609 3566 1747 
Q 3566 888 3137 398 
Q 2709 -91 1959 -91 
Q 1206 -91 779 398 
Q 353 888 353 1747 
Q 353 2609 779 3096 
Q 1206 3584 1959 3584 
z
" transform="scale(0.015625)"/>
       <path id="DejaVuSans-77" d="M 269 3500 
L 844 3500 
L 1563 769 
L 2278 3500 
L 2956 3500 
L 3675 769 
L 4391 3500 
L 4966 3500 
L 4050 0 
L 3372 0 
L 2619 2869 
L 1863 0 
L 1184 0 
L 269 3500 
z
" transform="scale(0.015625)"/>
       <path id="DejaVuSans-6e" d="M 3513 2113 
L 3513 0 
L 2938 0 
L 2938 2094 
Q 2938 2591 2744 2837 
Q 2550 3084 2163 3084 
Q 1697 3084 1428 2787 
Q 1159 2491 1159 1978 
L 1159 0 
L 581 0 
L 581 3500 
L 1159 3500 
L 1159 2956 
Q 1366 3272 1645 3428 
Q 1925 3584 2291 3584 
Q 2894 3584 3203 3211 
Q 3513 2838 3513 2113 
z
" transform="scale(0.015625)"/>
      </defs>
      <use xlink:href="#DejaVuSans-49"/>
      <use xlink:href="#DejaVuSans-6d" x="29.492188"/>
      <use xlink:href="#DejaVuSans-61" x="126.904297"/>
      <use xlink:href="#DejaVuSans-67" x="188.183594"/>
      <use xlink:href="#DejaVuSans-65" x="251.660156"/>
      <use xlink:href="#DejaVuSans-20" x="313.183594"/>
      <use xlink:href="#DejaVuSans-73" x="344.970703"/>
      <use xlink:href="#DejaVuSans-68" x="397.070312"/>
      <use xlink:href="#DejaVuSans-6f" x="460.449219"/>
      <use xlink:href="#DejaVuSans-77" x="521.630859"/>
      <use xlink:href="#DejaVuSans-6e" x="603.417969"/>
     </g>
    </g>
   </g>
   <g id="matplotlib.axis_2">
    <g id="ytick_1">
     <g id="line2d_10">
      <defs>
       <path id="meb8999a5fd" d="M 0 0 
L -3.5 0 
" style="stroke: #000000; stroke-width: 0.8"/>
      </defs>
      <g>
       <use xlink:href="#meb8999a5fd" x="57.6" y="289.121684" style="stroke: #000000; stroke-width: 0.8"/>
      </g>
     </g>
     <g id="text_11">
      <!-- 100 -->
      <g transform="translate(31.5125 292.920903) scale(0.1 -0.1)">
       <use xlink:href="#DejaVuSans-31"/>
       <use xlink:href="#DejaVuSans-30" x="63.623047"/>
       <use xlink:href="#DejaVuSans-30" x="127.246094"/>
      </g>
     </g>
    </g>
    <g id="ytick_2">
     <g id="line2d_11">
      <g>
       <use xlink:href="#meb8999a5fd" x="57.6" y="257.290105" style="stroke: #000000; stroke-width: 0.8"/>
      </g>
     </g>
     <g id="text_12">
      <!-- 125 -->
      <g transform="translate(31.5125 261.089324) scale(0.1 -0.1)">
       <use xlink:href="#DejaVuSans-31"/>
       <use xlink:href="#DejaVuSans-32" x="63.623047"/>
       <use xlink:href="#DejaVuSans-35" x="127.246094"/>
      </g>
     </g>
    </g>
    <g id="ytick_3">
     <g id="line2d_12">
      <g>
       <use xlink:href="#meb8999a5fd" x="57.6" y="225.458526" style="stroke: #000000; stroke-width: 0.8"/>
      </g>
     </g>
     <g id="text_13">
      <!-- 150 -->
      <g transform="translate(31.5125 229.257745) scale(0.1 -0.1)">
       <use xlink:href="#DejaVuSans-31"/>
       <use xlink:href="#DejaVuSans-35" x="63.623047"/>
       <use xlink:href="#DejaVuSans-30" x="127.246094"/>
      </g>
     </g>
    </g>
    <g id="ytick_4">
     <g id="line2d_13">
      <g>
       <use xlink:href="#meb8999a5fd" x="57.6" y="193.626947" style="stroke: #000000; stroke-width: 0.8"/>
      </g>
     </g>
     <g id="text_14">
      <!-- 175 -->
      <g transform="translate(31.5125 197.426166) scale(0.1 -0.1)">
       <defs>
        <path id="DejaVuSans-37" d="M 525 4666 
L 3525 4666 
L 3525 4397 
L 1831 0 
L 1172 0 
L 2766 4134 
L 525 4134 
L 525 4666 
z
" transform="scale(0.015625)"/>
       </defs>
       <use xlink:href="#DejaVuSans-31"/>
       <use xlink:href="#DejaVuSans-37" x="63.623047"/>
       <use xlink:href="#DejaVuSans-35" x="127.246094"/>
      </g>
     </g>
    </g>
    <g id="ytick_5">
     <g id="line2d_14">
      <g>
       <use xlink:href="#meb8999a5fd" x="57.6" y="161.795368" style="stroke: #000000; stroke-width: 0.8"/>
      </g>
     </g>
     <g id="text_15">
      <!-- 200 -->
      <g transform="translate(31.5125 165.594587) scale(0.1 -0.1)">
       <use xlink:href="#DejaVuSans-32"/>
       <use xlink:href="#DejaVuSans-30" x="63.623047"/>
       <use xlink:href="#DejaVuSans-30" x="127.246094"/>
      </g>
     </g>
    </g>
    <g id="ytick_6">
     <g id="line2d_15">
      <g>
       <use xlink:href="#meb8999a5fd" x="57.6" y="129.963789" style="stroke: #000000; stroke-width: 0.8"/>
      </g>
     </g>
     <g id="text_16">
      <!-- 225 -->
      <g transform="translate(31.5125 133.763008) scale(0.1 -0.1)">
       <use xlink:href="#DejaVuSans-32"/>
       <use xlink:href="#DejaVuSans-32" x="63.623047"/>
       <use xlink:href="#DejaVuSans-35" x="127.246094"/>
      </g>
     </g>
    </g>
    <g id="ytick_7">
     <g id="line2d_16">
      <g>
       <use xlink:href="#meb8999a5fd" x="57.6" y="98.132211" style="stroke: #000000; stroke-width: 0.8"/>
      </g>
     </g>
     <g id="text_17">
      <!-- 250 -->
      <g transform="translate(31.5125 101.931429) scale(0.1 -0.1)">
       <use xlink:href="#DejaVuSans-32"/>
       <use xlink:href="#DejaVuSans-35" x="63.623047"/>
       <use xlink:href="#DejaVuSans-30" x="127.246094"/>
      </g>
     </g>
    </g>
    <g id="ytick_8">
     <g id="line2d_17">
      <g>
       <use xlink:href="#meb8999a5fd" x="57.6" y="66.300632" style="stroke: #000000; stroke-width: 0.8"/>
      </g>
     </g>
     <g id="text_18">
      <!-- 275 -->
      <g transform="translate(31.5125 70.09985) scale(0.1 -0.1)">
       <use xlink:href="#DejaVuSans-32"/>
       <use xlink:href="#DejaVuSans-37" x="63.623047"/>
       <use xlink:href="#DejaVuSans-35" x="127.246094"/>
      </g>
     </g>
    </g>
    <g id="text_19">
     <!-- Firing rate [Hz] -->
     <g transform="translate(25.432812 211.838156) rotate(-90) scale(0.1 -0.1)">
      <defs>
       <path id="DejaVuSans-46" d="M 628 4666 
L 3309 4666 
L 3309 4134 
L 1259 4134 
L 1259 2759 
L 3109 2759 
L 3109 2228 
L 1259 2228 
L 1259 0 
L 628 0 
L 628 4666 
z
" transform="scale(0.015625)"/>
       <path id="DejaVuSans-69" d="M 603 3500 
L 1178 3500 
L 1178 0 
L 603 0 
L 603 3500 
z
M 603 4863 
L 1178 4863 
L 1178 4134 
L 603 4134 
L 603 4863 
z
" transform="scale(0.015625)"/>
       <path id="DejaVuSans-72" d="M 2631 2963 
Q 2534 3019 2420 3045 
Q 2306 3072 2169 3072 
Q 1681 3072 1420 2755 
Q 1159 2438 1159 1844 
L 1159 0 
L 581 0 
L 581 3500 
L 1159 3500 
L 1159 2956 
Q 1341 3275 1631 3429 
Q 1922 3584 2338 3584 
Q 2397 3584 2469 3576 
Q 2541 3569 2628 3553 
L 2631 2963 
z
" transform="scale(0.015625)"/>
       <path id="DejaVuSans-74" d="M 1172 4494 
L 1172 3500 
L 2356 3500 
L 2356 3053 
L 1172 3053 
L 1172 1153 
Q 1172 725 1289 603 
Q 1406 481 1766 481 
L 2356 481 
L 2356 0 
L 1766 0 
Q 1100 0 847 248 
Q 594 497 594 1153 
L 594 3053 
L 172 3053 
L 172 3500 
L 594 3500 
L 594 4494 
L 1172 4494 
z
" transform="scale(0.015625)"/>
       <path id="DejaVuSans-5b" d="M 550 4863 
L 1875 4863 
L 1875 4416 
L 1125 4416 
L 1125 -397 
L 1875 -397 
L 1875 -844 
L 550 -844 
L 550 4863 
z
" transform="scale(0.015625)"/>
       <path id="DejaVuSans-48" d="M 628 4666 
L 1259 4666 
L 1259 2753 
L 3553 2753 
L 3553 4666 
L 4184 4666 
L 4184 0 
L 3553 0 
L 3553 2222 
L 1259 2222 
L 1259 0 
L 628 0 
L 628 4666 
z
" transform="scale(0.015625)"/>
       <path id="DejaVuSans-7a" d="M 353 3500 
L 3084 3500 
L 3084 2975 
L 922 459 
L 3084 459 
L 3084 0 
L 275 0 
L 275 525 
L 2438 3041 
L 353 3041 
L 353 3500 
z
" transform="scale(0.015625)"/>
       <path id="DejaVuSans-5d" d="M 1947 4863 
L 1947 -844 
L 622 -844 
L 622 -397 
L 1369 -397 
L 1369 4416 
L 622 4416 
L 622 4863 
L 1947 4863 
z
" transform="scale(0.015625)"/>
      </defs>
      <use xlink:href="#DejaVuSans-46"/>
      <use xlink:href="#DejaVuSans-69" x="50.269531"/>
      <use xlink:href="#DejaVuSans-72" x="78.052734"/>
      <use xlink:href="#DejaVuSans-69" x="119.166016"/>
      <use xlink:href="#DejaVuSans-6e" x="146.949219"/>
      <use xlink:href="#DejaVuSans-67" x="210.328125"/>
      <use xlink:href="#DejaVuSans-20" x="273.804688"/>
      <use xlink:href="#DejaVuSans-72" x="305.591797"/>
      <use xlink:href="#DejaVuSans-61" x="346.705078"/>
      <use xlink:href="#DejaVuSans-74" x="407.984375"/>
      <use xlink:href="#DejaVuSans-65" x="447.193359"/>
      <use xlink:href="#DejaVuSans-20" x="508.716797"/>
      <use xlink:href="#DejaVuSans-5b" x="540.503906"/>
      <use xlink:href="#DejaVuSans-48" x="579.517578"/>
      <use xlink:href="#DejaVuSans-7a" x="654.712891"/>
      <use xlink:href="#DejaVuSans-5d" x="707.203125"/>
     </g>
    </g>
   </g>
   <g id="line2d_18">
    <path d="M 73.832727 219.092211 
L 73.913911 225.458526 
L 73.995095 206.359579 
L 74.076279 155.429053 
L 74.157463 187.260632 
L 74.238647 142.696421 
L 74.319831 193.626947 
L 74.401015 174.528 
L 74.563383 219.092211 
L 74.644567 180.894316 
L 74.725751 193.626947 
L 74.806934 187.260632 
L 74.888118 193.626947 
L 74.969302 212.725895 
L 75.13167 174.528 
L 75.212854 174.528 
L 75.294038 219.092211 
L 75.375222 180.894316 
L 75.456406 206.359579 
L 75.53759 193.626947 
L 75.618774 142.696421 
L 75.699958 225.458526 
L 75.94351 129.963789 
L 76.024693 231.824842 
L 76.105877 199.993263 
L 76.187061 168.161684 
L 76.268245 174.528 
L 76.511797 250.923789 
L 76.674165 123.597474 
L 76.836533 187.260632 
L 76.917717 161.795368 
L 77.080085 161.795368 
L 77.242452 168.161684 
L 77.323636 168.161684 
L 77.40482 199.993263 
L 77.486004 187.260632 
L 77.567188 206.359579 
L 77.81074 123.597474 
L 77.891924 187.260632 
L 77.973108 136.330105 
L 78.135476 212.725895 
L 78.460211 149.062737 
L 78.541395 155.429053 
L 78.622579 225.458526 
L 78.784947 110.864842 
L 78.947315 193.626947 
L 79.028499 225.458526 
L 79.190867 155.429053 
L 79.272051 212.725895 
L 79.353235 155.429053 
L 79.515603 225.458526 
L 79.67797 161.795368 
L 79.840338 219.092211 
L 79.921522 193.626947 
L 80.08389 136.330105 
L 80.408626 212.725895 
L 80.570994 161.795368 
L 80.652178 161.795368 
L 80.733362 238.191158 
L 80.895729 168.161684 
L 80.976913 238.191158 
L 81.058097 161.795368 
L 81.220465 199.993263 
L 81.382833 219.092211 
L 81.464017 206.359579 
L 81.545201 168.161684 
L 81.707569 193.626947 
L 81.788753 199.993263 
L 81.869937 174.528 
L 82.032304 212.725895 
L 82.275856 168.161684 
L 82.35704 180.894316 
L 82.438224 142.696421 
L 82.600592 231.824842 
L 82.681776 142.696421 
L 82.76296 193.626947 
L 82.844144 180.894316 
L 82.925328 180.894316 
L 83.087696 238.191158 
L 83.168879 168.161684 
L 83.250063 193.626947 
L 83.412431 225.458526 
L 83.655983 136.330105 
L 83.818351 219.092211 
L 83.899535 161.795368 
L 84.061903 244.557474 
L 84.224271 149.062737 
L 84.386638 206.359579 
L 84.467822 225.458526 
L 84.711374 155.429053 
L 84.792558 155.429053 
L 84.873742 180.894316 
L 84.954926 129.963789 
L 85.117294 219.092211 
L 85.198478 161.795368 
L 85.279662 180.894316 
L 85.360846 193.626947 
L 85.44203 174.528 
L 85.604397 238.191158 
L 85.766765 180.894316 
L 85.847949 168.161684 
L 85.929133 180.894316 
L 86.010317 219.092211 
L 86.091501 193.626947 
L 86.172685 104.498526 
L 86.335053 244.557474 
L 86.416237 250.923789 
L 86.497421 231.824842 
L 86.578605 174.528 
L 86.659789 206.359579 
L 86.740973 79.033263 
L 86.822156 238.191158 
L 86.90334 199.993263 
L 87.065708 168.161684 
L 87.146892 225.458526 
L 87.390444 149.062737 
L 87.471628 187.260632 
L 87.633996 123.597474 
L 87.958732 212.725895 
L 88.039915 136.330105 
L 88.121099 161.795368 
L 88.202283 225.458526 
L 88.364651 180.894316 
L 88.445835 180.894316 
L 88.608203 187.260632 
L 88.689387 149.062737 
L 88.932939 225.458526 
L 89.014123 174.528 
L 89.095307 187.260632 
L 89.17649 187.260632 
L 89.257674 193.626947 
L 89.338858 219.092211 
L 89.501226 199.993263 
L 89.58241 231.824842 
L 89.663594 199.993263 
L 89.744778 238.191158 
L 89.907146 123.597474 
L 89.98833 250.923789 
L 90.150698 180.894316 
L 90.231882 155.429053 
L 90.313066 212.725895 
L 90.394249 180.894316 
L 90.475433 206.359579 
L 90.637801 161.795368 
L 90.718985 174.528 
L 90.800169 219.092211 
L 91.043721 136.330105 
L 91.124905 238.191158 
L 91.206089 199.993263 
L 91.287273 206.359579 
L 91.368457 199.993263 
L 91.530825 142.696421 
L 91.774376 206.359579 
L 91.85556 142.696421 
L 91.936744 193.626947 
L 92.099112 149.062737 
L 92.180296 161.795368 
L 92.26148 149.062737 
L 92.342664 238.191158 
L 92.423848 161.795368 
L 92.505032 263.656421 
L 92.586216 250.923789 
L 92.6674 136.330105 
L 92.829767 231.824842 
L 92.910951 129.963789 
L 93.073319 206.359579 
L 93.154503 187.260632 
L 93.398055 225.458526 
L 93.479239 155.429053 
L 93.560423 193.626947 
L 93.641607 180.894316 
L 93.722791 129.963789 
L 93.803975 199.993263 
L 93.885159 136.330105 
L 93.966342 187.260632 
L 94.12871 104.498526 
L 94.291078 174.528 
L 94.372262 123.597474 
L 94.453446 231.824842 
L 94.53463 206.359579 
L 94.696998 219.092211 
L 94.778182 193.626947 
L 94.859366 225.458526 
L 94.94055 142.696421 
L 95.021734 149.062737 
L 95.102918 180.894316 
L 95.265285 104.498526 
L 95.427653 187.260632 
L 95.508837 193.626947 
L 95.671205 149.062737 
L 95.752389 199.993263 
L 95.833573 168.161684 
L 95.914757 238.191158 
L 96.077125 123.597474 
L 96.239493 231.824842 
L 96.320677 206.359579 
L 96.40186 193.626947 
L 96.483044 206.359579 
L 96.564228 129.963789 
L 96.726596 225.458526 
L 96.80778 225.458526 
L 96.888964 174.528 
L 96.970148 193.626947 
L 97.051332 244.557474 
L 97.294884 149.062737 
L 97.457252 231.824842 
L 97.538436 149.062737 
L 97.619619 161.795368 
L 97.700803 212.725895 
L 97.781987 142.696421 
L 97.863171 168.161684 
L 97.944355 168.161684 
L 98.025539 193.626947 
L 98.187907 155.429053 
L 98.350275 193.626947 
L 98.512643 136.330105 
L 98.593827 142.696421 
L 98.756195 180.894316 
L 98.918562 149.062737 
L 98.999746 219.092211 
L 99.08093 168.161684 
L 99.162114 180.894316 
L 99.243298 180.894316 
L 99.405666 155.429053 
L 99.48685 168.161684 
L 99.568034 199.993263 
L 99.649218 136.330105 
L 99.730402 142.696421 
L 99.811586 225.458526 
L 99.89277 212.725895 
L 99.973953 225.458526 
L 100.136321 193.626947 
L 100.217505 98.132211 
L 100.379873 193.626947 
L 100.461057 142.696421 
L 100.785793 238.191158 
L 100.948161 149.062737 
L 101.029345 219.092211 
L 101.110529 206.359579 
L 101.191712 117.231158 
L 101.272896 149.062737 
L 101.35408 161.795368 
L 101.435264 142.696421 
L 101.597632 206.359579 
L 101.841184 136.330105 
L 101.922368 206.359579 
L 102.084736 161.795368 
L 102.16592 238.191158 
L 102.328288 142.696421 
L 102.571839 199.993263 
L 102.653023 187.260632 
L 102.734207 149.062737 
L 102.977759 276.389053 
L 103.140127 66.300632 
L 103.302495 212.725895 
L 103.464863 174.528 
L 103.62723 206.359579 
L 103.708414 129.963789 
L 103.951966 193.626947 
L 104.03315 206.359579 
L 104.114334 199.993263 
L 104.276702 174.528 
L 104.357886 104.498526 
L 104.520254 187.260632 
L 104.601438 193.626947 
L 104.682622 161.795368 
L 104.763805 238.191158 
L 104.844989 180.894316 
L 104.926173 212.725895 
L 105.007357 199.993263 
L 105.169725 244.557474 
L 105.250909 212.725895 
L 105.332093 129.963789 
L 105.413277 155.429053 
L 105.494461 193.626947 
L 105.575645 174.528 
L 105.656829 295.488 
L 105.819197 136.330105 
L 105.900381 142.696421 
L 106.225116 225.458526 
L 106.3063 98.132211 
L 106.468668 168.161684 
L 106.549852 142.696421 
L 106.71222 231.824842 
L 106.793404 129.963789 
L 106.874588 206.359579 
L 106.955772 174.528 
L 107.036956 219.092211 
L 107.11814 161.795368 
L 107.280507 219.092211 
L 107.361691 149.062737 
L 107.442875 257.290105 
L 107.524059 231.824842 
L 107.767611 117.231158 
L 107.848795 136.330105 
L 108.011163 231.824842 
L 108.092347 161.795368 
L 108.173531 187.260632 
L 108.254715 219.092211 
L 108.335899 91.765895 
L 108.498266 206.359579 
L 108.57945 129.963789 
L 108.823002 206.359579 
L 108.904186 187.260632 
L 108.98537 219.092211 
L 109.066554 142.696421 
L 109.147738 212.725895 
L 109.228922 193.626947 
L 109.310106 199.993263 
L 109.472474 136.330105 
L 109.553658 155.429053 
L 109.634841 219.092211 
L 109.716025 206.359579 
L 109.797209 168.161684 
L 109.878393 250.923789 
L 109.959577 180.894316 
L 110.040761 219.092211 
L 110.121945 193.626947 
L 110.203129 238.191158 
L 110.365497 193.626947 
L 110.446681 231.824842 
L 110.609049 142.696421 
L 110.690233 212.725895 
L 110.771416 168.161684 
L 110.8526 174.528 
L 110.933784 212.725895 
L 111.096152 149.062737 
L 111.177336 72.666947 
L 111.25852 219.092211 
L 111.339704 155.429053 
L 111.420888 199.993263 
L 111.502072 161.795368 
L 111.583256 180.894316 
L 111.66444 142.696421 
L 111.745624 238.191158 
L 111.989175 117.231158 
L 112.070359 149.062737 
L 112.151543 244.557474 
L 112.232727 161.795368 
L 112.395095 225.458526 
L 112.476279 142.696421 
L 112.557463 155.429053 
L 112.638647 238.191158 
L 112.801015 180.894316 
L 112.882199 206.359579 
L 112.963383 142.696421 
L 113.044567 238.191158 
L 113.125751 206.359579 
L 113.206934 117.231158 
L 113.288118 212.725895 
L 113.450486 155.429053 
L 113.53167 219.092211 
L 113.612854 155.429053 
L 113.694038 206.359579 
L 113.775222 199.993263 
L 113.856406 187.260632 
L 113.93759 142.696421 
L 114.099958 225.458526 
L 114.181142 193.626947 
L 114.34351 231.824842 
L 114.424693 161.795368 
L 114.505877 206.359579 
L 114.587061 142.696421 
L 114.668245 149.062737 
L 114.911797 231.824842 
L 114.992981 212.725895 
L 115.074165 149.062737 
L 115.155349 244.557474 
L 115.236533 136.330105 
L 115.317717 219.092211 
L 115.398901 142.696421 
L 115.480085 168.161684 
L 115.561268 212.725895 
L 115.886004 104.498526 
L 115.967188 168.161684 
L 116.048372 161.795368 
L 116.129556 199.993263 
L 116.21074 155.429053 
L 116.291924 168.161684 
L 116.373108 193.626947 
L 116.454292 168.161684 
L 116.61666 193.626947 
L 116.697844 123.597474 
L 116.860211 225.458526 
L 116.941395 129.963789 
L 117.022579 149.062737 
L 117.103763 219.092211 
L 117.184947 206.359579 
L 117.266131 219.092211 
L 117.428499 142.696421 
L 117.509683 180.894316 
L 117.672051 155.429053 
L 117.834419 238.191158 
L 117.915603 219.092211 
L 117.996786 142.696421 
L 118.07797 149.062737 
L 118.159154 225.458526 
L 118.240338 206.359579 
L 118.402706 187.260632 
L 118.48389 168.161684 
L 118.727442 206.359579 
L 118.808626 206.359579 
L 118.970994 199.993263 
L 119.052178 219.092211 
L 119.133362 123.597474 
L 119.214545 142.696421 
L 119.376913 199.993263 
L 119.458097 142.696421 
L 119.539281 231.824842 
L 119.701649 161.795368 
L 119.782833 187.260632 
L 119.864017 180.894316 
L 120.026385 180.894316 
L 120.107569 199.993263 
L 120.351121 174.528 
L 120.432304 180.894316 
L 120.513488 123.597474 
L 120.675856 212.725895 
L 120.75704 199.993263 
L 120.838224 136.330105 
L 120.919408 257.290105 
L 121.081776 129.963789 
L 121.16296 155.429053 
L 121.244144 219.092211 
L 121.487696 149.062737 
L 121.650063 219.092211 
L 121.812431 123.597474 
L 121.893615 174.528 
L 121.974799 168.161684 
L 122.055983 155.429053 
L 122.218351 219.092211 
L 122.380719 168.161684 
L 122.461903 174.528 
L 122.543087 263.656421 
L 122.624271 174.528 
L 122.705455 199.993263 
L 122.867822 110.864842 
L 122.949006 250.923789 
L 123.03019 155.429053 
L 123.111374 212.725895 
L 123.192558 161.795368 
L 123.273742 168.161684 
L 123.354926 174.528 
L 123.43611 168.161684 
L 123.517294 225.458526 
L 123.598478 168.161684 
L 123.679662 212.725895 
L 123.760846 117.231158 
L 123.84203 149.062737 
L 123.923214 212.725895 
L 124.085581 174.528 
L 124.166765 161.795368 
L 124.247949 244.557474 
L 124.491501 123.597474 
L 124.572685 244.557474 
L 124.653869 212.725895 
L 124.735053 104.498526 
L 124.897421 161.795368 
L 125.059789 98.132211 
L 125.222156 168.161684 
L 125.384524 174.528 
L 125.465708 219.092211 
L 125.628076 168.161684 
L 125.70926 85.399579 
L 125.790444 193.626947 
L 125.871628 174.528 
L 125.952812 187.260632 
L 126.033996 238.191158 
L 126.11518 161.795368 
L 126.358732 231.824842 
L 126.439915 174.528 
L 126.521099 180.894316 
L 126.602283 168.161684 
L 126.683467 180.894316 
L 126.764651 104.498526 
L 126.845835 168.161684 
L 126.927019 161.795368 
L 127.008203 142.696421 
L 127.089387 79.033263 
L 127.170571 212.725895 
L 127.251755 199.993263 
L 127.332939 180.894316 
L 127.495307 212.725895 
L 127.57649 174.528 
L 127.657674 180.894316 
L 127.738858 168.161684 
L 127.901226 110.864842 
L 128.063594 238.191158 
L 128.144778 225.458526 
L 128.225962 168.161684 
L 128.307146 174.528 
L 128.38833 149.062737 
L 128.469514 219.092211 
L 128.631882 161.795368 
L 128.713066 270.022737 
L 128.794249 104.498526 
L 128.875433 199.993263 
L 128.956617 85.399579 
L 129.200169 199.993263 
L 129.362537 180.894316 
L 129.443721 187.260632 
L 129.524905 155.429053 
L 129.606089 174.528 
L 129.687273 129.963789 
L 129.768457 142.696421 
L 129.849641 123.597474 
L 129.930825 187.260632 
L 130.012008 129.963789 
L 130.093192 168.161684 
L 130.174376 282.755368 
L 130.25556 149.062737 
L 130.336744 174.528 
L 130.417928 187.260632 
L 130.499112 168.161684 
L 130.580296 244.557474 
L 130.66148 129.963789 
L 130.742664 231.824842 
L 130.905032 142.696421 
L 130.986216 161.795368 
L 131.0674 168.161684 
L 131.148584 225.458526 
L 131.310951 161.795368 
L 131.392135 161.795368 
L 131.473319 110.864842 
L 131.554503 206.359579 
L 131.635687 155.429053 
L 131.716871 161.795368 
L 131.879239 199.993263 
L 131.960423 206.359579 
L 132.041607 129.963789 
L 132.122791 225.458526 
L 132.203975 193.626947 
L 132.285159 149.062737 
L 132.366342 174.528 
L 132.447526 136.330105 
L 132.52871 199.993263 
L 132.609894 180.894316 
L 132.691078 168.161684 
L 132.772262 136.330105 
L 132.93463 238.191158 
L 133.015814 104.498526 
L 133.096998 129.963789 
L 133.259366 199.993263 
L 133.34055 193.626947 
L 133.421734 129.963789 
L 133.502918 187.260632 
L 133.584101 142.696421 
L 133.665285 149.062737 
L 133.746469 231.824842 
L 133.827653 161.795368 
L 133.908837 206.359579 
L 133.990021 123.597474 
L 134.071205 129.963789 
L 134.152389 238.191158 
L 134.233573 180.894316 
L 134.314757 206.359579 
L 134.395941 155.429053 
L 134.477125 199.993263 
L 134.558309 136.330105 
L 134.639493 219.092211 
L 134.720677 149.062737 
L 134.80186 206.359579 
L 134.883044 187.260632 
L 135.045412 168.161684 
L 135.126596 231.824842 
L 135.370148 155.429053 
L 135.532516 231.824842 
L 135.776068 117.231158 
L 135.938436 168.161684 
L 136.019619 199.993263 
L 136.100803 149.062737 
L 136.425539 219.092211 
L 136.506723 174.528 
L 136.587907 225.458526 
L 136.831459 123.597474 
L 136.912643 142.696421 
L 136.993827 180.894316 
L 137.075011 155.429053 
L 137.156195 219.092211 
L 137.237378 129.963789 
L 137.48093 257.290105 
L 137.562114 136.330105 
L 137.643298 142.696421 
L 137.724482 206.359579 
L 137.805666 193.626947 
L 137.968034 117.231158 
L 138.211586 225.458526 
L 138.373953 212.725895 
L 138.455137 199.993263 
L 138.536321 142.696421 
L 138.779873 219.092211 
L 138.942241 149.062737 
L 139.023425 193.626947 
L 139.104609 136.330105 
L 139.266977 212.725895 
L 139.510529 98.132211 
L 139.591712 193.626947 
L 139.672896 168.161684 
L 139.75408 174.528 
L 139.835264 72.666947 
L 139.997632 136.330105 
L 140.078816 129.963789 
L 140.241184 187.260632 
L 140.322368 123.597474 
L 140.484736 206.359579 
L 140.647104 142.696421 
L 140.809471 219.092211 
L 140.971839 187.260632 
L 141.053023 244.557474 
L 141.296575 129.963789 
L 141.377759 72.666947 
L 141.458943 199.993263 
L 141.540127 168.161684 
L 141.621311 193.626947 
L 141.783679 129.963789 
L 141.864863 187.260632 
L 141.946047 142.696421 
L 142.02723 225.458526 
L 142.108414 168.161684 
L 142.189598 231.824842 
L 142.351966 129.963789 
L 142.43315 142.696421 
L 142.514334 199.993263 
L 142.676702 129.963789 
L 142.757886 129.963789 
L 142.83907 149.062737 
L 142.920254 110.864842 
L 143.001438 123.597474 
L 143.082622 199.993263 
L 143.163805 168.161684 
L 143.407357 219.092211 
L 143.569725 149.062737 
L 143.650909 193.626947 
L 143.813277 129.963789 
L 143.894461 142.696421 
L 143.975645 193.626947 
L 144.056829 123.597474 
L 144.219197 199.993263 
L 144.300381 155.429053 
L 144.381564 187.260632 
L 144.462748 129.963789 
L 144.543932 174.528 
L 144.625116 168.161684 
L 144.7063 155.429053 
L 144.787484 206.359579 
L 144.868668 155.429053 
L 145.031036 187.260632 
L 145.274588 142.696421 
L 145.355772 142.696421 
L 145.436956 225.458526 
L 145.51814 142.696421 
L 145.599323 155.429053 
L 145.680507 104.498526 
L 145.924059 212.725895 
L 146.005243 136.330105 
L 146.086427 142.696421 
L 146.167611 129.963789 
L 146.248795 180.894316 
L 146.329979 142.696421 
L 146.411163 174.528 
L 146.573531 155.429053 
L 146.654715 155.429053 
L 146.735899 168.161684 
L 146.817082 129.963789 
L 146.97945 168.161684 
L 147.060634 142.696421 
L 147.141818 187.260632 
L 147.223002 149.062737 
L 147.304186 199.993263 
L 147.38537 110.864842 
L 147.466554 225.458526 
L 147.628922 161.795368 
L 147.710106 161.795368 
L 147.79129 123.597474 
L 147.872474 193.626947 
L 147.953658 161.795368 
L 148.034841 174.528 
L 148.116025 110.864842 
L 148.278393 257.290105 
L 148.359577 212.725895 
L 148.603129 110.864842 
L 148.684313 136.330105 
L 148.765497 206.359579 
L 148.846681 136.330105 
L 148.927865 142.696421 
L 149.090233 206.359579 
L 149.171416 180.894316 
L 149.2526 219.092211 
L 149.333784 104.498526 
L 149.496152 225.458526 
L 149.577336 180.894316 
L 149.65852 187.260632 
L 149.739704 104.498526 
L 149.820888 187.260632 
L 149.902072 129.963789 
L 149.983256 238.191158 
L 150.06444 199.993263 
L 150.145624 193.626947 
L 150.226808 206.359579 
L 150.389175 104.498526 
L 150.470359 129.963789 
L 150.551543 149.062737 
L 150.632727 117.231158 
L 150.713911 168.161684 
L 150.795095 155.429053 
L 150.957463 117.231158 
L 151.201015 199.993263 
L 151.282199 161.795368 
L 151.363383 212.725895 
L 151.444567 149.062737 
L 151.525751 161.795368 
L 151.606934 187.260632 
L 151.688118 136.330105 
L 151.769302 206.359579 
L 151.850486 187.260632 
L 151.93167 193.626947 
L 152.012854 187.260632 
L 152.175222 129.963789 
L 152.418774 225.458526 
L 152.499958 104.498526 
L 152.662326 199.993263 
L 152.824693 187.260632 
L 153.068245 91.765895 
L 153.230613 212.725895 
L 153.311797 123.597474 
L 153.392981 136.330105 
L 153.474165 142.696421 
L 153.555349 212.725895 
L 153.636533 129.963789 
L 153.880085 187.260632 
L 154.123636 129.963789 
L 154.20482 187.260632 
L 154.286004 155.429053 
L 154.367188 206.359579 
L 154.529556 149.062737 
L 154.691924 212.725895 
L 154.773108 129.963789 
L 154.935476 187.260632 
L 155.01666 180.894316 
L 155.097844 142.696421 
L 155.179027 206.359579 
L 155.260211 142.696421 
L 155.422579 193.626947 
L 155.503763 136.330105 
L 155.584947 142.696421 
L 155.666131 174.528 
L 155.747315 66.300632 
L 155.909683 174.528 
L 155.990867 142.696421 
L 156.072051 212.725895 
L 156.153235 142.696421 
L 156.234419 155.429053 
L 156.396786 161.795368 
L 156.559154 123.597474 
L 156.721522 168.161684 
L 156.802706 155.429053 
L 156.965074 212.725895 
L 157.046258 129.963789 
L 157.127442 250.923789 
L 157.208626 129.963789 
L 157.28981 231.824842 
L 157.370994 129.963789 
L 157.452178 142.696421 
L 157.695729 199.993263 
L 157.776913 79.033263 
L 157.858097 149.062737 
L 157.939281 104.498526 
L 158.020465 199.993263 
L 158.101649 168.161684 
L 158.182833 180.894316 
L 158.345201 123.597474 
L 158.507569 180.894316 
L 158.588753 180.894316 
L 158.669937 168.161684 
L 158.751121 206.359579 
L 158.913488 161.795368 
L 158.994672 155.429053 
L 159.075856 129.963789 
L 159.15704 219.092211 
L 159.400592 66.300632 
L 159.481776 187.260632 
L 159.56296 136.330105 
L 159.644144 142.696421 
L 159.806512 187.260632 
L 159.968879 161.795368 
L 160.050063 193.626947 
L 160.212431 142.696421 
L 160.293615 155.429053 
L 160.374799 225.458526 
L 160.537167 142.696421 
L 160.699535 174.528 
L 160.780719 199.993263 
L 160.861903 129.963789 
L 160.943087 174.528 
L 161.024271 136.330105 
L 161.186638 225.458526 
L 161.349006 129.963789 
L 161.43019 104.498526 
L 161.592558 142.696421 
L 161.754926 168.161684 
L 161.83611 129.963789 
L 161.917294 199.993263 
L 161.998478 180.894316 
L 162.079662 161.795368 
L 162.160846 180.894316 
L 162.24203 129.963789 
L 162.404397 193.626947 
L 162.485581 180.894316 
L 162.566765 193.626947 
L 162.729133 149.062737 
L 162.810317 193.626947 
L 162.972685 104.498526 
L 163.053869 155.429053 
L 163.135053 117.231158 
L 163.216237 193.626947 
L 163.297421 142.696421 
L 163.378605 212.725895 
L 163.459789 187.260632 
L 163.540973 155.429053 
L 163.70334 168.161684 
L 163.784524 212.725895 
L 163.946892 161.795368 
L 164.10926 174.528 
L 164.190444 244.557474 
L 164.433996 85.399579 
L 164.51518 206.359579 
L 164.596364 142.696421 
L 164.677548 219.092211 
L 164.758732 193.626947 
L 164.839915 129.963789 
L 164.921099 168.161684 
L 165.002283 123.597474 
L 165.083467 212.725895 
L 165.164651 187.260632 
L 165.327019 136.330105 
L 165.408203 206.359579 
L 165.489387 110.864842 
L 165.570571 180.894316 
L 165.651755 161.795368 
L 165.814123 180.894316 
L 165.97649 142.696421 
L 166.057674 193.626947 
L 166.138858 66.300632 
L 166.301226 187.260632 
L 166.544778 110.864842 
L 166.625962 168.161684 
L 166.707146 123.597474 
L 166.78833 174.528 
L 166.869514 117.231158 
L 166.950698 174.528 
L 167.031882 59.934316 
L 167.194249 168.161684 
L 167.275433 161.795368 
L 167.518985 66.300632 
L 167.600169 212.725895 
L 167.762537 129.963789 
L 167.843721 142.696421 
L 167.924905 225.458526 
L 168.006089 129.963789 
L 168.087273 225.458526 
L 168.168457 104.498526 
L 168.330825 206.359579 
L 168.412008 72.666947 
L 168.493192 117.231158 
L 168.736744 161.795368 
L 168.817928 142.696421 
L 168.899112 180.894316 
L 168.980296 155.429053 
L 169.142664 168.161684 
L 169.223848 174.528 
L 169.386216 149.062737 
L 169.4674 155.429053 
L 169.548584 136.330105 
L 169.629767 149.062737 
L 169.710951 117.231158 
L 169.792135 199.993263 
L 169.873319 161.795368 
L 169.954503 206.359579 
L 170.035687 193.626947 
L 170.116871 136.330105 
L 170.198055 180.894316 
L 170.279239 123.597474 
L 170.360423 136.330105 
L 170.441607 110.864842 
L 170.603975 187.260632 
L 170.685159 174.528 
L 170.766342 225.458526 
L 170.847526 212.725895 
L 171.091078 149.062737 
L 171.172262 161.795368 
L 171.253446 104.498526 
L 171.496998 219.092211 
L 171.578182 110.864842 
L 171.659366 219.092211 
L 171.821734 110.864842 
L 171.902918 136.330105 
L 171.984101 104.498526 
L 172.227653 212.725895 
L 172.471205 155.429053 
L 172.633573 136.330105 
L 172.714757 187.260632 
L 172.795941 168.161684 
L 172.877125 225.458526 
L 172.958309 155.429053 
L 173.039493 193.626947 
L 173.120677 129.963789 
L 173.20186 142.696421 
L 173.364228 199.993263 
L 173.445412 244.557474 
L 173.770148 117.231158 
L 174.0137 174.528 
L 174.094884 174.528 
L 174.176068 168.161684 
L 174.257252 193.626947 
L 174.419619 129.963789 
L 174.500803 155.429053 
L 174.581987 129.963789 
L 174.663171 149.062737 
L 174.744355 206.359579 
L 174.825539 110.864842 
L 174.906723 225.458526 
L 175.069091 123.597474 
L 175.150275 155.429053 
L 175.231459 129.963789 
L 175.556195 231.824842 
L 175.637378 104.498526 
L 175.718562 117.231158 
L 175.88093 161.795368 
L 175.962114 142.696421 
L 176.043298 155.429053 
L 176.124482 199.993263 
L 176.205666 117.231158 
L 176.28685 129.963789 
L 176.368034 231.824842 
L 176.449218 199.993263 
L 176.530402 187.260632 
L 176.69277 123.597474 
L 176.773953 174.528 
L 176.936321 117.231158 
L 177.098689 231.824842 
L 177.179873 168.161684 
L 177.261057 212.725895 
L 177.342241 104.498526 
L 177.504609 180.894316 
L 177.585793 174.528 
L 177.666977 155.429053 
L 177.748161 180.894316 
L 177.829345 168.161684 
L 177.991712 129.963789 
L 178.072896 263.656421 
L 178.15408 117.231158 
L 178.316448 187.260632 
L 178.56 149.062737 
L 178.722368 225.458526 
L 178.884736 155.429053 
L 178.96592 142.696421 
L 179.047104 193.626947 
L 179.290655 117.231158 
L 179.371839 104.498526 
L 179.453023 180.894316 
L 179.534207 117.231158 
L 179.696575 231.824842 
L 179.858943 136.330105 
L 179.940127 136.330105 
L 180.102495 199.993263 
L 180.183679 123.597474 
L 180.264863 187.260632 
L 180.346047 174.528 
L 180.42723 206.359579 
L 180.589598 180.894316 
L 180.670782 117.231158 
L 180.83315 199.993263 
L 180.914334 295.488 
L 181.076702 129.963789 
L 181.157886 129.963789 
L 181.320254 206.359579 
L 181.401438 136.330105 
L 181.482622 142.696421 
L 181.726173 225.458526 
L 181.807357 161.795368 
L 181.888541 174.528 
L 181.969725 238.191158 
L 182.050909 231.824842 
L 182.294461 104.498526 
L 182.375645 187.260632 
L 182.456829 168.161684 
L 182.538013 168.161684 
L 182.619197 161.795368 
L 182.781564 187.260632 
L 182.862748 193.626947 
L 182.943932 180.894316 
L 183.025116 136.330105 
L 183.1063 206.359579 
L 183.268668 129.963789 
L 183.349852 193.626947 
L 183.431036 149.062737 
L 183.51222 174.528 
L 183.593404 161.795368 
L 183.674588 199.993263 
L 183.836956 142.696421 
L 183.91814 155.429053 
L 183.999323 142.696421 
L 184.161691 193.626947 
L 184.242875 155.429053 
L 184.324059 193.626947 
L 184.486427 155.429053 
L 184.567611 168.161684 
L 184.729979 206.359579 
L 184.811163 199.993263 
L 184.892347 174.528 
L 184.973531 187.260632 
L 185.054715 136.330105 
L 185.135899 187.260632 
L 185.298266 161.795368 
L 185.37945 225.458526 
L 185.460634 104.498526 
L 185.541818 168.161684 
L 185.623002 155.429053 
L 185.78537 180.894316 
L 185.866554 149.062737 
L 186.110106 206.359579 
L 186.19129 110.864842 
L 186.434841 199.993263 
L 186.597209 142.696421 
L 186.678393 155.429053 
L 186.840761 123.597474 
L 186.921945 212.725895 
L 187.003129 98.132211 
L 187.084313 212.725895 
L 187.327865 104.498526 
L 187.409049 212.725895 
L 187.490233 129.963789 
L 187.571416 168.161684 
L 187.6526 155.429053 
L 187.733784 123.597474 
L 188.05852 180.894316 
L 188.139704 168.161684 
L 188.220888 104.498526 
L 188.383256 199.993263 
L 188.46444 187.260632 
L 188.545624 149.062737 
L 188.626808 155.429053 
L 188.789175 187.260632 
L 188.870359 187.260632 
L 188.951543 193.626947 
L 189.113911 168.161684 
L 189.195095 168.161684 
L 189.276279 187.260632 
L 189.519831 123.597474 
L 189.682199 174.528 
L 189.763383 123.597474 
L 189.844567 180.894316 
L 189.925751 168.161684 
L 190.088118 161.795368 
L 190.169302 66.300632 
L 190.33167 149.062737 
L 190.412854 155.429053 
L 190.494038 225.458526 
L 190.656406 98.132211 
L 190.818774 174.528 
L 190.981142 149.062737 
L 191.224693 123.597474 
L 191.387061 193.626947 
L 191.468245 136.330105 
L 191.549429 174.528 
L 191.630613 142.696421 
L 191.711797 180.894316 
L 191.792981 110.864842 
L 191.955349 149.062737 
L 192.036533 123.597474 
L 192.198901 193.626947 
L 192.280085 180.894316 
L 192.361268 117.231158 
L 192.442452 136.330105 
L 192.60482 225.458526 
L 192.686004 193.626947 
L 192.767188 206.359579 
L 192.848372 149.062737 
L 192.929556 168.161684 
L 193.01074 117.231158 
L 193.173108 206.359579 
L 193.254292 187.260632 
L 193.335476 206.359579 
L 193.41666 136.330105 
L 193.497844 155.429053 
L 193.660211 206.359579 
L 193.741395 155.429053 
L 193.822579 161.795368 
L 193.903763 155.429053 
L 193.984947 91.765895 
L 194.147315 180.894316 
L 194.309683 91.765895 
L 194.390867 168.161684 
L 194.472051 129.963789 
L 194.634419 212.725895 
L 194.796786 136.330105 
L 194.87797 180.894316 
L 194.959154 168.161684 
L 195.121522 187.260632 
L 195.28389 149.062737 
L 195.365074 161.795368 
L 195.527442 123.597474 
L 195.608626 199.993263 
L 195.68981 161.795368 
L 195.770994 168.161684 
L 195.852178 206.359579 
L 195.933362 123.597474 
L 196.014545 199.993263 
L 196.095729 187.260632 
L 196.176913 161.795368 
L 196.258097 212.725895 
L 196.339281 199.993263 
L 196.420465 187.260632 
L 196.501649 91.765895 
L 196.582833 117.231158 
L 196.826385 180.894316 
L 196.907569 168.161684 
L 197.069937 238.191158 
L 197.232304 142.696421 
L 197.313488 174.528 
L 197.475856 110.864842 
L 197.55704 225.458526 
L 197.638224 193.626947 
L 197.719408 219.092211 
L 197.800592 187.260632 
L 197.881776 85.399579 
L 197.96296 212.725895 
L 198.044144 142.696421 
L 198.125328 168.161684 
L 198.206512 142.696421 
L 198.287696 161.795368 
L 198.368879 72.666947 
L 198.612431 225.458526 
L 198.693615 231.824842 
L 198.774799 161.795368 
L 198.855983 168.161684 
L 198.937167 219.092211 
L 199.018351 212.725895 
L 199.180719 199.993263 
L 199.261903 206.359579 
L 199.343087 250.923789 
L 199.586638 155.429053 
L 199.83019 199.993263 
L 200.073742 123.597474 
L 200.154926 187.260632 
L 200.23611 142.696421 
L 200.317294 193.626947 
L 200.398478 161.795368 
L 200.479662 168.161684 
L 200.560846 219.092211 
L 200.64203 161.795368 
L 200.723214 174.528 
L 200.804397 136.330105 
L 200.885581 149.062737 
L 201.047949 193.626947 
L 201.129133 168.161684 
L 201.210317 174.528 
L 201.372685 168.161684 
L 201.453869 174.528 
L 201.535053 149.062737 
L 201.616237 161.795368 
L 201.697421 238.191158 
L 201.778605 149.062737 
L 201.859789 180.894316 
L 201.940973 168.161684 
L 202.022156 136.330105 
L 202.10334 199.993263 
L 202.184524 142.696421 
L 202.265708 225.458526 
L 202.428076 123.597474 
L 202.50926 219.092211 
L 202.590444 187.260632 
L 202.671628 155.429053 
L 202.752812 168.161684 
L 202.833996 136.330105 
L 202.91518 199.993263 
L 203.077548 98.132211 
L 203.239915 161.795368 
L 203.321099 129.963789 
L 203.402283 149.062737 
L 203.483467 244.557474 
L 203.564651 168.161684 
L 203.645835 187.260632 
L 203.727019 161.795368 
L 203.808203 225.458526 
L 204.051755 136.330105 
L 204.132939 206.359579 
L 204.457674 110.864842 
L 204.701226 174.528 
L 204.78241 129.963789 
L 204.863594 142.696421 
L 204.944778 142.696421 
L 205.025962 212.725895 
L 205.107146 129.963789 
L 205.18833 155.429053 
L 205.269514 155.429053 
L 205.431882 161.795368 
L 205.513066 136.330105 
L 205.594249 155.429053 
L 205.675433 257.290105 
L 205.756617 168.161684 
L 205.837801 174.528 
L 205.918985 193.626947 
L 206.081353 117.231158 
L 206.162537 161.795368 
L 206.243721 117.231158 
L 206.324905 123.597474 
L 206.406089 199.993263 
L 206.487273 180.894316 
L 206.568457 199.993263 
L 206.730825 104.498526 
L 206.893192 206.359579 
L 206.974376 117.231158 
L 207.05556 136.330105 
L 207.136744 289.121684 
L 207.380296 91.765895 
L 207.46148 199.993263 
L 207.542664 168.161684 
L 207.623848 59.934316 
L 207.705032 161.795368 
L 207.786216 91.765895 
L 208.110951 250.923789 
L 208.273319 129.963789 
L 208.354503 187.260632 
L 208.516871 104.498526 
L 208.760423 206.359579 
L 208.922791 98.132211 
L 209.003975 149.062737 
L 209.085159 98.132211 
L 209.247526 199.993263 
L 209.32871 142.696421 
L 209.409894 155.429053 
L 209.491078 206.359579 
L 209.653446 129.963789 
L 209.73463 174.528 
L 209.815814 161.795368 
L 209.896998 149.062737 
L 210.059366 225.458526 
L 210.384101 123.597474 
L 210.465285 193.626947 
L 210.546469 110.864842 
L 210.627653 174.528 
L 210.708837 161.795368 
L 210.871205 136.330105 
L 210.952389 104.498526 
L 211.114757 199.993263 
L 211.277125 149.062737 
L 211.358309 155.429053 
L 211.439493 142.696421 
L 211.520677 155.429053 
L 211.60186 187.260632 
L 211.683044 79.033263 
L 211.764228 219.092211 
L 211.845412 142.696421 
L 211.926596 155.429053 
L 212.00778 212.725895 
L 212.088964 174.528 
L 212.170148 79.033263 
L 212.251332 161.795368 
L 212.332516 123.597474 
L 212.494884 212.725895 
L 212.576068 199.993263 
L 212.657252 149.062737 
L 212.819619 199.993263 
L 212.981987 161.795368 
L 213.063171 168.161684 
L 213.225539 212.725895 
L 213.306723 123.597474 
L 213.469091 206.359579 
L 213.631459 129.963789 
L 213.712643 199.993263 
L 213.793827 193.626947 
L 213.875011 199.993263 
L 213.956195 104.498526 
L 214.037378 187.260632 
L 214.118562 123.597474 
L 214.199746 199.993263 
L 214.362114 117.231158 
L 214.443298 250.923789 
L 214.605666 155.429053 
L 214.68685 168.161684 
L 214.768034 136.330105 
L 214.849218 142.696421 
L 214.930402 168.161684 
L 215.011586 123.597474 
L 215.173953 161.795368 
L 215.255137 117.231158 
L 215.417505 193.626947 
L 215.498689 123.597474 
L 215.579873 231.824842 
L 215.742241 91.765895 
L 215.904609 199.993263 
L 215.985793 193.626947 
L 216.066977 206.359579 
L 216.229345 129.963789 
L 216.310529 193.626947 
L 216.472896 110.864842 
L 216.55408 136.330105 
L 216.635264 238.191158 
L 216.716448 117.231158 
L 216.797632 238.191158 
L 216.878816 168.161684 
L 217.041184 212.725895 
L 217.122368 149.062737 
L 217.203552 168.161684 
L 217.284736 193.626947 
L 217.528288 117.231158 
L 217.609471 193.626947 
L 217.690655 161.795368 
L 217.771839 180.894316 
L 218.015391 129.963789 
L 218.177759 174.528 
L 218.340127 155.429053 
L 218.421311 168.161684 
L 218.502495 129.963789 
L 218.583679 142.696421 
L 218.664863 193.626947 
L 218.746047 123.597474 
L 218.82723 149.062737 
L 218.908414 129.963789 
L 219.070782 174.528 
L 219.151966 142.696421 
L 219.23315 174.528 
L 219.314334 142.696421 
L 219.395518 199.993263 
L 219.557886 174.528 
L 219.63907 161.795368 
L 219.720254 174.528 
L 219.801438 168.161684 
L 219.882622 180.894316 
L 219.963805 123.597474 
L 220.044989 174.528 
L 220.126173 98.132211 
L 220.369725 238.191158 
L 220.450909 136.330105 
L 220.532093 180.894316 
L 220.613277 168.161684 
L 220.694461 117.231158 
L 220.856829 174.528 
L 220.938013 168.161684 
L 221.100381 136.330105 
L 221.262748 168.161684 
L 221.343932 155.429053 
L 221.425116 206.359579 
L 221.5063 110.864842 
L 221.587484 123.597474 
L 221.668668 212.725895 
L 221.831036 142.696421 
L 221.91222 155.429053 
L 221.993404 136.330105 
L 222.074588 174.528 
L 222.236956 117.231158 
L 222.31814 161.795368 
L 222.480507 110.864842 
L 222.561691 180.894316 
L 222.642875 110.864842 
L 222.724059 225.458526 
L 222.805243 199.993263 
L 222.886427 187.260632 
L 222.967611 123.597474 
L 223.048795 174.528 
L 223.211163 117.231158 
L 223.292347 231.824842 
L 223.454715 142.696421 
L 223.535899 199.993263 
L 223.698266 142.696421 
L 223.860634 161.795368 
L 223.941818 161.795368 
L 224.023002 149.062737 
L 224.104186 168.161684 
L 224.18537 161.795368 
L 224.266554 161.795368 
L 224.347738 199.993263 
L 224.428922 187.260632 
L 224.510106 110.864842 
L 224.59129 206.359579 
L 224.753658 98.132211 
L 224.834841 117.231158 
L 224.916025 187.260632 
L 224.997209 155.429053 
L 225.078393 199.993263 
L 225.159577 155.429053 
L 225.240761 225.458526 
L 225.321945 149.062737 
L 225.403129 250.923789 
L 225.484313 161.795368 
L 225.565497 187.260632 
L 225.646681 174.528 
L 225.727865 180.894316 
L 225.809049 149.062737 
L 225.890233 193.626947 
L 226.133784 149.062737 
L 226.214968 193.626947 
L 226.377336 117.231158 
L 226.45852 161.795368 
L 226.702072 85.399579 
L 226.783256 187.260632 
L 226.945624 123.597474 
L 227.026808 168.161684 
L 227.107992 66.300632 
L 227.189175 187.260632 
L 227.270359 180.894316 
L 227.432727 161.795368 
L 227.513911 193.626947 
L 227.595095 110.864842 
L 227.757463 161.795368 
L 227.838647 123.597474 
L 227.919831 155.429053 
L 228.001015 142.696421 
L 228.082199 212.725895 
L 228.163383 117.231158 
L 228.244567 193.626947 
L 228.325751 142.696421 
L 228.406934 206.359579 
L 228.488118 142.696421 
L 228.569302 219.092211 
L 228.812854 79.033263 
L 228.894038 206.359579 
L 228.975222 91.765895 
L 229.13759 206.359579 
L 229.218774 187.260632 
L 229.299958 149.062737 
L 229.381142 244.557474 
L 229.624693 136.330105 
L 229.705877 136.330105 
L 229.787061 142.696421 
L 229.868245 219.092211 
L 230.030613 155.429053 
L 230.111797 225.458526 
L 230.192981 136.330105 
L 230.274165 174.528 
L 230.355349 129.963789 
L 230.436533 174.528 
L 230.517717 123.597474 
L 230.598901 276.389053 
L 230.761268 110.864842 
L 230.842452 219.092211 
L 230.923636 193.626947 
L 231.00482 155.429053 
L 231.167188 250.923789 
L 231.329556 168.161684 
L 231.41074 149.062737 
L 231.491924 212.725895 
L 231.573108 104.498526 
L 231.654292 136.330105 
L 231.735476 199.993263 
L 231.979027 136.330105 
L 232.060211 174.528 
L 232.141395 161.795368 
L 232.222579 193.626947 
L 232.303763 180.894316 
L 232.384947 104.498526 
L 232.466131 187.260632 
L 232.547315 142.696421 
L 232.790867 250.923789 
L 232.872051 123.597474 
L 232.953235 180.894316 
L 233.034419 91.765895 
L 233.27797 206.359579 
L 233.359154 79.033263 
L 233.440338 187.260632 
L 233.521522 117.231158 
L 233.602706 142.696421 
L 233.68389 168.161684 
L 233.765074 155.429053 
L 233.846258 117.231158 
L 233.927442 180.894316 
L 234.008626 123.597474 
L 234.252178 187.260632 
L 234.414545 136.330105 
L 234.495729 174.528 
L 234.576913 129.963789 
L 234.658097 161.795368 
L 234.739281 98.132211 
L 234.982833 250.923789 
L 235.145201 117.231158 
L 235.307569 142.696421 
L 235.469937 123.597474 
L 235.551121 155.429053 
L 235.632304 123.597474 
L 235.713488 168.161684 
L 235.794672 155.429053 
L 235.95704 142.696421 
L 236.038224 117.231158 
L 236.200592 250.923789 
L 236.36296 129.963789 
L 236.444144 180.894316 
L 236.525328 174.528 
L 236.606512 155.429053 
L 236.768879 187.260632 
L 236.850063 104.498526 
L 237.012431 161.795368 
L 237.093615 91.765895 
L 237.174799 212.725895 
L 237.337167 79.033263 
L 237.418351 91.765895 
L 237.499535 206.359579 
L 237.580719 117.231158 
L 237.824271 231.824842 
L 237.986638 117.231158 
L 238.067822 187.260632 
L 238.23019 91.765895 
L 238.311374 212.725895 
L 238.392558 168.161684 
L 238.473742 168.161684 
L 238.554926 149.062737 
L 238.63611 180.894316 
L 238.798478 149.062737 
L 238.960846 187.260632 
L 239.204397 98.132211 
L 239.285581 123.597474 
L 239.366765 199.993263 
L 239.447949 142.696421 
L 239.529133 231.824842 
L 239.691501 161.795368 
L 239.772685 219.092211 
L 239.853869 104.498526 
L 239.935053 193.626947 
L 240.097421 117.231158 
L 240.178605 199.993263 
L 240.340973 123.597474 
L 240.422156 174.528 
L 240.584524 129.963789 
L 240.665708 123.597474 
L 240.746892 193.626947 
L 240.828076 129.963789 
L 240.90926 174.528 
L 240.990444 123.597474 
L 241.071628 206.359579 
L 241.152812 193.626947 
L 241.31518 104.498526 
L 241.396364 129.963789 
L 241.639915 161.795368 
L 241.721099 104.498526 
L 241.802283 193.626947 
L 241.883467 136.330105 
L 242.045835 199.993263 
L 242.208203 117.231158 
L 242.370571 199.993263 
L 242.532939 161.795368 
L 242.614123 193.626947 
L 242.695307 155.429053 
L 242.77649 212.725895 
L 242.938858 129.963789 
L 243.020042 193.626947 
L 243.101226 123.597474 
L 243.18241 231.824842 
L 243.263594 129.963789 
L 243.344778 199.993263 
L 243.507146 168.161684 
L 243.58833 187.260632 
L 243.669514 149.062737 
L 243.750698 161.795368 
L 243.831882 168.161684 
L 243.994249 193.626947 
L 244.075433 180.894316 
L 244.156617 225.458526 
L 244.318985 117.231158 
L 244.400169 174.528 
L 244.481353 155.429053 
L 244.643721 199.993263 
L 244.724905 168.161684 
L 244.806089 212.725895 
L 244.887273 129.963789 
L 244.968457 206.359579 
L 245.049641 161.795368 
L 245.130825 199.993263 
L 245.212008 180.894316 
L 245.293192 199.993263 
L 245.45556 161.795368 
L 245.617928 155.429053 
L 245.780296 206.359579 
L 245.86148 174.528 
L 245.942664 180.894316 
L 246.023848 238.191158 
L 246.105032 142.696421 
L 246.2674 199.993263 
L 246.348584 136.330105 
L 246.429767 187.260632 
L 246.510951 168.161684 
L 246.592135 219.092211 
L 246.673319 129.963789 
L 246.835687 193.626947 
L 246.916871 104.498526 
L 247.079239 180.894316 
L 247.160423 168.161684 
L 247.241607 199.993263 
L 247.322791 110.864842 
L 247.403975 149.062737 
L 247.485159 117.231158 
L 247.566342 129.963789 
L 247.647526 123.597474 
L 247.809894 168.161684 
L 247.891078 149.062737 
L 247.972262 225.458526 
L 248.053446 142.696421 
L 248.13463 193.626947 
L 248.215814 104.498526 
L 248.296998 123.597474 
L 248.378182 79.033263 
L 248.459366 187.260632 
L 248.54055 149.062737 
L 248.621734 212.725895 
L 248.702918 117.231158 
L 248.784101 142.696421 
L 248.865285 149.062737 
L 248.946469 187.260632 
L 249.027653 142.696421 
L 249.108837 212.725895 
L 249.271205 91.765895 
L 249.433573 161.795368 
L 249.514757 129.963789 
L 249.595941 174.528 
L 249.758309 104.498526 
L 249.839493 129.963789 
L 249.920677 123.597474 
L 250.083044 168.161684 
L 250.164228 180.894316 
L 250.245412 117.231158 
L 250.326596 180.894316 
L 250.40778 161.795368 
L 250.488964 199.993263 
L 250.651332 136.330105 
L 250.732516 174.528 
L 250.894884 85.399579 
L 250.976068 174.528 
L 251.057252 155.429053 
L 251.138436 129.963789 
L 251.219619 174.528 
L 251.300803 142.696421 
L 251.381987 193.626947 
L 251.463171 168.161684 
L 251.544355 231.824842 
L 251.625539 212.725895 
L 251.787907 149.062737 
L 251.869091 149.062737 
L 251.950275 136.330105 
L 252.031459 174.528 
L 252.112643 98.132211 
L 252.193827 123.597474 
L 252.275011 129.963789 
L 252.356195 206.359579 
L 252.518562 85.399579 
L 252.68093 199.993263 
L 252.843298 142.696421 
L 252.924482 219.092211 
L 253.005666 104.498526 
L 253.168034 193.626947 
L 253.249218 187.260632 
L 253.330402 123.597474 
L 253.411586 155.429053 
L 253.573953 142.696421 
L 253.736321 187.260632 
L 253.817505 104.498526 
L 253.898689 161.795368 
L 253.979873 136.330105 
L 254.061057 161.795368 
L 254.142241 149.062737 
L 254.304609 199.993263 
L 254.385793 174.528 
L 254.466977 180.894316 
L 254.629345 250.923789 
L 254.710529 225.458526 
L 254.791712 123.597474 
L 254.872896 174.528 
L 254.95408 155.429053 
L 255.035264 168.161684 
L 255.116448 149.062737 
L 255.278816 174.528 
L 255.36 142.696421 
L 255.603552 193.626947 
L 255.76592 110.864842 
L 255.928288 155.429053 
L 256.009471 149.062737 
L 256.090655 168.161684 
L 256.171839 142.696421 
L 256.253023 149.062737 
L 256.334207 193.626947 
L 256.496575 104.498526 
L 256.577759 136.330105 
L 256.658943 129.963789 
L 256.740127 155.429053 
L 256.821311 219.092211 
L 256.983679 149.062737 
L 257.064863 180.894316 
L 257.22723 91.765895 
L 257.308414 219.092211 
L 257.389598 136.330105 
L 257.470782 199.993263 
L 257.551966 136.330105 
L 257.714334 187.260632 
L 257.795518 117.231158 
L 258.03907 212.725895 
L 258.201438 142.696421 
L 258.282622 149.062737 
L 258.444989 98.132211 
L 258.526173 155.429053 
L 258.607357 123.597474 
L 258.688541 180.894316 
L 258.769725 174.528 
L 258.850909 174.528 
L 258.932093 155.429053 
L 259.013277 219.092211 
L 259.175645 136.330105 
L 259.256829 136.330105 
L 259.419197 206.359579 
L 259.500381 206.359579 
L 259.581564 168.161684 
L 259.662748 212.725895 
L 259.825116 155.429053 
L 259.9063 187.260632 
L 259.987484 136.330105 
L 260.068668 212.725895 
L 260.149852 98.132211 
L 260.231036 180.894316 
L 260.31222 155.429053 
L 260.474588 155.429053 
L 260.555772 110.864842 
L 260.636956 168.161684 
L 260.71814 85.399579 
L 260.799323 129.963789 
L 260.880507 110.864842 
L 260.961691 187.260632 
L 261.124059 123.597474 
L 261.286427 161.795368 
L 261.367611 155.429053 
L 261.448795 104.498526 
L 261.529979 168.161684 
L 261.611163 161.795368 
L 261.773531 104.498526 
L 261.935899 174.528 
L 262.017082 193.626947 
L 262.098266 187.260632 
L 262.17945 149.062737 
L 262.423002 231.824842 
L 262.58537 161.795368 
L 262.666554 155.429053 
L 262.747738 180.894316 
L 262.828922 155.429053 
L 262.910106 79.033263 
L 262.99129 174.528 
L 263.072474 161.795368 
L 263.153658 155.429053 
L 263.234841 187.260632 
L 263.316025 174.528 
L 263.478393 142.696421 
L 263.559577 155.429053 
L 263.640761 187.260632 
L 263.721945 142.696421 
L 263.803129 149.062737 
L 263.884313 142.696421 
L 263.965497 110.864842 
L 264.127865 180.894316 
L 264.209049 193.626947 
L 264.290233 174.528 
L 264.371416 98.132211 
L 264.614968 174.528 
L 264.696152 110.864842 
L 264.777336 212.725895 
L 264.85852 98.132211 
L 265.102072 212.725895 
L 265.26444 155.429053 
L 265.345624 180.894316 
L 265.426808 149.062737 
L 265.589175 199.993263 
L 265.670359 161.795368 
L 265.751543 187.260632 
L 265.832727 180.894316 
L 265.913911 199.993263 
L 265.995095 123.597474 
L 266.076279 187.260632 
L 266.157463 180.894316 
L 266.238647 193.626947 
L 266.482199 142.696421 
L 266.563383 219.092211 
L 266.725751 161.795368 
L 266.806934 193.626947 
L 266.888118 91.765895 
L 266.969302 212.725895 
L 267.050486 136.330105 
L 267.13167 142.696421 
L 267.212854 98.132211 
L 267.294038 180.894316 
L 267.456406 136.330105 
L 267.618774 193.626947 
L 267.699958 219.092211 
L 267.862326 136.330105 
L 267.94351 244.557474 
L 268.024693 168.161684 
L 268.105877 174.528 
L 268.187061 199.993263 
L 268.268245 110.864842 
L 268.349429 142.696421 
L 268.430613 155.429053 
L 268.592981 136.330105 
L 268.674165 117.231158 
L 268.755349 180.894316 
L 268.917717 98.132211 
L 268.998901 117.231158 
L 269.080085 212.725895 
L 269.161268 142.696421 
L 269.242452 155.429053 
L 269.323636 187.260632 
L 269.40482 136.330105 
L 269.486004 149.062737 
L 269.567188 199.993263 
L 269.648372 129.963789 
L 269.729556 180.894316 
L 269.81074 168.161684 
L 269.973108 98.132211 
L 270.054292 199.993263 
L 270.135476 155.429053 
L 270.21666 193.626947 
L 270.297844 155.429053 
L 270.379027 180.894316 
L 270.460211 136.330105 
L 270.541395 155.429053 
L 270.622579 206.359579 
L 270.703763 117.231158 
L 270.784947 129.963789 
L 270.866131 149.062737 
L 271.028499 110.864842 
L 271.190867 199.993263 
L 271.353235 142.696421 
L 271.434419 193.626947 
L 271.515603 174.528 
L 271.596786 98.132211 
L 271.759154 193.626947 
L 271.840338 187.260632 
L 272.165074 104.498526 
L 272.246258 187.260632 
L 272.327442 136.330105 
L 272.408626 219.092211 
L 272.48981 136.330105 
L 272.570994 142.696421 
L 272.652178 212.725895 
L 272.733362 91.765895 
L 272.895729 231.824842 
L 272.976913 136.330105 
L 273.058097 168.161684 
L 273.139281 187.260632 
L 273.220465 123.597474 
L 273.301649 142.696421 
L 273.382833 149.062737 
L 273.464017 110.864842 
L 273.545201 187.260632 
L 273.626385 155.429053 
L 273.707569 168.161684 
L 273.788753 199.993263 
L 274.032304 136.330105 
L 274.113488 180.894316 
L 274.275856 155.429053 
L 274.35704 161.795368 
L 274.438224 180.894316 
L 274.600592 123.597474 
L 274.681776 123.597474 
L 274.844144 257.290105 
L 274.925328 149.062737 
L 275.006512 174.528 
L 275.087696 174.528 
L 275.168879 206.359579 
L 275.250063 180.894316 
L 275.331247 225.458526 
L 275.493615 161.795368 
L 275.574799 180.894316 
L 275.655983 168.161684 
L 275.737167 123.597474 
L 275.818351 219.092211 
L 275.980719 123.597474 
L 276.224271 187.260632 
L 276.305455 104.498526 
L 276.467822 180.894316 
L 276.549006 155.429053 
L 276.63019 206.359579 
L 276.954926 136.330105 
L 277.03611 142.696421 
L 277.198478 168.161684 
L 277.279662 149.062737 
L 277.360846 238.191158 
L 277.44203 136.330105 
L 277.523214 187.260632 
L 277.604397 174.528 
L 277.685581 161.795368 
L 277.766765 212.725895 
L 277.847949 123.597474 
L 277.929133 129.963789 
L 278.091501 193.626947 
L 278.253869 155.429053 
L 278.335053 199.993263 
L 278.416237 149.062737 
L 278.497421 193.626947 
L 278.578605 85.399579 
L 278.740973 174.528 
L 278.822156 110.864842 
L 278.984524 142.696421 
L 279.065708 53.568 
L 279.146892 149.062737 
L 279.228076 142.696421 
L 279.30926 129.963789 
L 279.471628 206.359579 
L 279.552812 155.429053 
L 279.633996 161.795368 
L 279.71518 244.557474 
L 279.796364 136.330105 
L 279.877548 155.429053 
L 279.958732 155.429053 
L 280.039915 123.597474 
L 280.121099 225.458526 
L 280.202283 129.963789 
L 280.283467 155.429053 
L 280.364651 136.330105 
L 280.527019 187.260632 
L 280.608203 123.597474 
L 280.770571 168.161684 
L 280.932939 136.330105 
L 281.014123 212.725895 
L 281.095307 149.062737 
L 281.17649 219.092211 
L 281.338858 187.260632 
L 281.501226 136.330105 
L 281.58241 142.696421 
L 281.663594 72.666947 
L 281.744778 91.765895 
L 281.825962 174.528 
L 281.907146 123.597474 
L 281.98833 149.062737 
L 282.069514 104.498526 
L 282.231882 219.092211 
L 282.313066 110.864842 
L 282.394249 212.725895 
L 282.637801 123.597474 
L 282.718985 123.597474 
L 282.800169 149.062737 
L 282.881353 123.597474 
L 282.962537 155.429053 
L 283.043721 110.864842 
L 283.206089 212.725895 
L 283.287273 161.795368 
L 283.368457 199.993263 
L 283.449641 129.963789 
L 283.530825 149.062737 
L 283.612008 168.161684 
L 283.693192 155.429053 
L 283.774376 199.993263 
L 283.85556 155.429053 
L 283.936744 193.626947 
L 284.099112 59.934316 
L 284.342664 225.458526 
L 284.505032 168.161684 
L 284.586216 168.161684 
L 284.6674 123.597474 
L 284.829767 149.062737 
L 284.910951 161.795368 
L 284.992135 155.429053 
L 285.073319 168.161684 
L 285.154503 231.824842 
L 285.235687 136.330105 
L 285.398055 238.191158 
L 285.560423 149.062737 
L 285.641607 238.191158 
L 285.722791 110.864842 
L 285.803975 193.626947 
L 285.885159 149.062737 
L 285.966342 212.725895 
L 286.12871 98.132211 
L 286.291078 250.923789 
L 286.372262 110.864842 
L 286.453446 161.795368 
L 286.53463 123.597474 
L 286.615814 199.993263 
L 286.696998 180.894316 
L 286.778182 98.132211 
L 286.859366 206.359579 
L 286.94055 98.132211 
L 287.021734 123.597474 
L 287.102918 129.963789 
L 287.184101 180.894316 
L 287.265285 168.161684 
L 287.346469 123.597474 
L 287.508837 161.795368 
L 287.590021 155.429053 
L 287.671205 231.824842 
L 287.752389 129.963789 
L 287.914757 168.161684 
L 287.995941 149.062737 
L 288.077125 180.894316 
L 288.158309 168.161684 
L 288.239493 212.725895 
L 288.320677 85.399579 
L 288.40186 149.062737 
L 288.483044 91.765895 
L 288.564228 206.359579 
L 288.726596 155.429053 
L 288.80778 136.330105 
L 288.888964 206.359579 
L 288.970148 85.399579 
L 289.051332 117.231158 
L 289.2137 174.528 
L 289.294884 98.132211 
L 289.457252 161.795368 
L 289.700803 79.033263 
L 289.944355 238.191158 
L 290.106723 155.429053 
L 290.187907 231.824842 
L 290.269091 136.330105 
L 290.350275 206.359579 
L 290.431459 142.696421 
L 290.512643 199.993263 
L 290.593827 149.062737 
L 290.675011 180.894316 
L 290.756195 142.696421 
L 290.837378 168.161684 
L 290.918562 149.062737 
L 290.999746 180.894316 
L 291.08093 136.330105 
L 291.162114 149.062737 
L 291.243298 155.429053 
L 291.324482 193.626947 
L 291.405666 129.963789 
L 291.48685 142.696421 
L 291.568034 187.260632 
L 291.649218 149.062737 
L 291.730402 161.795368 
L 291.89277 180.894316 
L 292.055137 123.597474 
L 292.136321 117.231158 
L 292.298689 174.528 
L 292.379873 168.161684 
L 292.461057 187.260632 
L 292.623425 110.864842 
L 292.704609 180.894316 
L 292.785793 174.528 
L 292.866977 136.330105 
L 292.948161 149.062737 
L 293.029345 142.696421 
L 293.110529 206.359579 
L 293.272896 104.498526 
L 293.435264 174.528 
L 293.597632 149.062737 
L 293.841184 180.894316 
L 293.922368 85.399579 
L 294.084736 212.725895 
L 294.16592 180.894316 
L 294.247104 91.765895 
L 294.328288 110.864842 
L 294.409471 123.597474 
L 294.490655 193.626947 
L 294.571839 180.894316 
L 294.653023 85.399579 
L 294.815391 206.359579 
L 294.896575 129.963789 
L 294.977759 155.429053 
L 295.058943 142.696421 
L 295.140127 91.765895 
L 295.383679 174.528 
L 295.546047 212.725895 
L 295.789598 110.864842 
L 295.870782 187.260632 
L 295.951966 110.864842 
L 296.03315 174.528 
L 296.114334 85.399579 
L 296.276702 174.528 
L 296.357886 129.963789 
L 296.43907 136.330105 
L 296.682622 193.626947 
L 296.763805 161.795368 
L 296.926173 219.092211 
L 297.088541 136.330105 
L 297.169725 123.597474 
L 297.250909 136.330105 
L 297.332093 187.260632 
L 297.413277 123.597474 
L 297.494461 136.330105 
L 297.575645 161.795368 
L 297.738013 98.132211 
L 297.900381 193.626947 
L 298.062748 117.231158 
L 298.143932 104.498526 
L 298.225116 149.062737 
L 298.3063 129.963789 
L 298.387484 257.290105 
L 298.468668 72.666947 
L 298.549852 238.191158 
L 298.631036 187.260632 
L 298.793404 136.330105 
L 299.11814 206.359579 
L 299.361691 91.765895 
L 299.442875 98.132211 
L 299.605243 257.290105 
L 299.686427 79.033263 
L 299.767611 117.231158 
L 299.848795 155.429053 
L 299.929979 250.923789 
L 300.011163 168.161684 
L 300.092347 206.359579 
L 300.254715 129.963789 
L 300.417082 206.359579 
L 300.498266 193.626947 
L 300.660634 149.062737 
L 300.741818 219.092211 
L 300.823002 174.528 
L 300.904186 180.894316 
L 300.98537 174.528 
L 301.066554 187.260632 
L 301.147738 129.963789 
L 301.39129 225.458526 
L 301.553658 91.765895 
L 301.716025 193.626947 
L 301.797209 180.894316 
L 301.959577 212.725895 
L 302.121945 142.696421 
L 302.203129 129.963789 
L 302.284313 79.033263 
L 302.446681 161.795368 
L 302.527865 117.231158 
L 302.609049 161.795368 
L 302.690233 149.062737 
L 302.771416 117.231158 
L 302.933784 231.824842 
L 303.014968 155.429053 
L 303.096152 199.993263 
L 303.177336 193.626947 
L 303.339704 98.132211 
L 303.502072 238.191158 
L 303.66444 180.894316 
L 303.745624 180.894316 
L 303.826808 155.429053 
L 303.907992 168.161684 
L 304.070359 123.597474 
L 304.151543 136.330105 
L 304.232727 110.864842 
L 304.313911 199.993263 
L 304.395095 174.528 
L 304.476279 149.062737 
L 304.557463 155.429053 
L 304.638647 187.260632 
L 304.719831 142.696421 
L 304.801015 199.993263 
L 304.963383 110.864842 
L 305.125751 168.161684 
L 305.206934 155.429053 
L 305.288118 174.528 
L 305.369302 142.696421 
L 305.53167 187.260632 
L 305.612854 149.062737 
L 305.775222 225.458526 
L 305.93759 142.696421 
L 306.018774 168.161684 
L 306.099958 136.330105 
L 306.181142 142.696421 
L 306.262326 136.330105 
L 306.424693 187.260632 
L 306.505877 161.795368 
L 306.587061 212.725895 
L 306.830613 98.132211 
L 306.992981 187.260632 
L 307.155349 142.696421 
L 307.236533 199.993263 
L 307.317717 142.696421 
L 307.398901 161.795368 
L 307.480085 142.696421 
L 307.561268 206.359579 
L 307.642452 98.132211 
L 307.80482 231.824842 
L 308.048372 142.696421 
L 308.129556 199.993263 
L 308.291924 142.696421 
L 308.373108 174.528 
L 308.454292 98.132211 
L 308.697844 193.626947 
L 308.779027 149.062737 
L 308.860211 174.528 
L 308.941395 168.161684 
L 309.022579 117.231158 
L 309.103763 187.260632 
L 309.184947 180.894316 
L 309.347315 199.993263 
L 309.428499 110.864842 
L 309.590867 206.359579 
L 309.753235 98.132211 
L 309.834419 193.626947 
L 309.915603 129.963789 
L 309.996786 168.161684 
L 310.07797 136.330105 
L 310.159154 149.062737 
L 310.240338 123.597474 
L 310.321522 161.795368 
L 310.402706 136.330105 
L 310.48389 199.993263 
L 310.646258 123.597474 
L 310.727442 199.993263 
L 310.808626 155.429053 
L 310.88981 193.626947 
L 310.970994 142.696421 
L 311.133362 212.725895 
L 311.295729 142.696421 
L 311.376913 149.062737 
L 311.539281 187.260632 
L 311.701649 123.597474 
L 311.864017 199.993263 
L 312.026385 168.161684 
L 312.188753 79.033263 
L 312.432304 180.894316 
L 312.594672 155.429053 
L 312.675856 180.894316 
L 312.75704 110.864842 
L 312.919408 168.161684 
L 313.000592 142.696421 
L 313.081776 231.824842 
L 313.16296 155.429053 
L 313.244144 212.725895 
L 313.325328 168.161684 
L 313.406512 174.528 
L 313.568879 193.626947 
L 313.650063 149.062737 
L 313.731247 238.191158 
L 313.974799 123.597474 
L 314.055983 219.092211 
L 314.137167 187.260632 
L 314.380719 117.231158 
L 314.461903 187.260632 
L 314.624271 123.597474 
L 314.705455 206.359579 
L 314.867822 149.062737 
L 314.949006 174.528 
L 315.03019 161.795368 
L 315.111374 180.894316 
L 315.192558 149.062737 
L 315.273742 199.993263 
L 315.43611 142.696421 
L 315.517294 187.260632 
L 315.598478 142.696421 
L 315.679662 155.429053 
L 315.84203 168.161684 
L 315.923214 199.993263 
L 316.004397 98.132211 
L 316.085581 187.260632 
L 316.166765 104.498526 
L 316.247949 187.260632 
L 316.329133 174.528 
L 316.491501 142.696421 
L 316.572685 187.260632 
L 316.653869 149.062737 
L 316.735053 161.795368 
L 316.816237 142.696421 
L 316.978605 193.626947 
L 317.059789 117.231158 
L 317.140973 168.161684 
L 317.222156 161.795368 
L 317.30334 174.528 
L 317.384524 149.062737 
L 317.465708 238.191158 
L 317.628076 91.765895 
L 317.871628 206.359579 
L 317.952812 187.260632 
L 318.033996 110.864842 
L 318.196364 149.062737 
L 318.277548 117.231158 
L 318.521099 168.161684 
L 318.683467 110.864842 
L 318.845835 180.894316 
L 318.927019 117.231158 
L 319.008203 168.161684 
L 319.089387 155.429053 
L 319.170571 187.260632 
L 319.251755 129.963789 
L 319.332939 219.092211 
L 319.414123 206.359579 
L 319.57649 98.132211 
L 319.657674 117.231158 
L 319.738858 206.359579 
L 319.820042 161.795368 
L 319.98241 250.923789 
L 320.063594 225.458526 
L 320.225962 142.696421 
L 320.38833 168.161684 
L 320.469514 168.161684 
L 320.631882 180.894316 
L 320.713066 168.161684 
L 320.794249 187.260632 
L 320.956617 110.864842 
L 321.037801 187.260632 
L 321.118985 149.062737 
L 321.200169 193.626947 
L 321.281353 180.894316 
L 321.362537 142.696421 
L 321.443721 155.429053 
L 321.606089 199.993263 
L 321.849641 161.795368 
L 321.930825 168.161684 
L 322.012008 238.191158 
L 322.174376 98.132211 
L 322.417928 244.557474 
L 322.499112 66.300632 
L 322.580296 129.963789 
L 322.742664 161.795368 
L 322.823848 104.498526 
L 322.905032 155.429053 
L 322.986216 104.498526 
L 323.148584 193.626947 
L 323.229767 180.894316 
L 323.310951 149.062737 
L 323.473319 180.894316 
L 323.635687 129.963789 
L 323.716871 142.696421 
L 323.798055 212.725895 
L 323.879239 187.260632 
L 323.960423 155.429053 
L 324.041607 174.528 
L 324.122791 168.161684 
L 324.203975 98.132211 
L 324.285159 174.528 
L 324.366342 129.963789 
L 324.447526 168.161684 
L 324.691078 79.033263 
L 324.93463 212.725895 
L 325.015814 244.557474 
L 325.096998 149.062737 
L 325.178182 174.528 
L 325.34055 136.330105 
L 325.421734 193.626947 
L 325.502918 136.330105 
L 325.584101 149.062737 
L 325.665285 161.795368 
L 325.827653 142.696421 
L 326.071205 123.597474 
L 326.233573 225.458526 
L 326.395941 104.498526 
L 326.477125 187.260632 
L 326.558309 142.696421 
L 326.639493 244.557474 
L 326.883044 104.498526 
L 326.964228 110.864842 
L 327.20778 180.894316 
L 327.288964 142.696421 
L 327.370148 193.626947 
L 327.451332 79.033263 
L 327.532516 206.359579 
L 327.6137 187.260632 
L 327.694884 187.260632 
L 327.776068 123.597474 
L 327.857252 199.993263 
L 327.938436 149.062737 
L 328.019619 161.795368 
L 328.100803 212.725895 
L 328.263171 110.864842 
L 328.344355 174.528 
L 328.425539 59.934316 
L 328.506723 193.626947 
L 328.587907 155.429053 
L 328.750275 161.795368 
L 328.831459 155.429053 
L 328.912643 225.458526 
L 328.993827 168.161684 
L 329.075011 219.092211 
L 329.237378 91.765895 
L 329.318562 174.528 
L 329.399746 161.795368 
L 329.48093 149.062737 
L 329.643298 199.993263 
L 329.724482 136.330105 
L 329.88685 174.528 
L 329.968034 149.062737 
L 330.049218 174.528 
L 330.211586 91.765895 
L 330.29277 206.359579 
L 330.373953 199.993263 
L 330.455137 174.528 
L 330.536321 110.864842 
L 330.698689 199.993263 
L 330.861057 110.864842 
L 330.942241 199.993263 
L 331.023425 168.161684 
L 331.104609 187.260632 
L 331.185793 155.429053 
L 331.266977 199.993263 
L 331.348161 149.062737 
L 331.510529 206.359579 
L 331.591712 180.894316 
L 331.672896 187.260632 
L 331.75408 212.725895 
L 331.997632 110.864842 
L 332.078816 180.894316 
L 332.16 129.963789 
L 332.241184 142.696421 
L 332.403552 155.429053 
L 332.484736 174.528 
L 332.56592 123.597474 
L 332.647104 180.894316 
L 332.728288 174.528 
L 332.809471 117.231158 
L 332.890655 180.894316 
L 333.053023 136.330105 
L 333.134207 225.458526 
L 333.215391 123.597474 
L 333.296575 231.824842 
L 333.458943 117.231158 
L 333.540127 136.330105 
L 333.621311 129.963789 
L 333.702495 161.795368 
L 333.783679 85.399579 
L 333.864863 225.458526 
L 333.946047 193.626947 
L 334.02723 219.092211 
L 334.189598 129.963789 
L 334.270782 161.795368 
L 334.351966 142.696421 
L 334.43315 199.993263 
L 334.514334 180.894316 
L 334.676702 85.399579 
L 334.83907 180.894316 
L 334.920254 110.864842 
L 335.001438 155.429053 
L 335.082622 142.696421 
L 335.163805 110.864842 
L 335.326173 187.260632 
L 335.407357 142.696421 
L 335.488541 225.458526 
L 335.569725 206.359579 
L 335.650909 123.597474 
L 335.732093 136.330105 
L 335.813277 161.795368 
L 335.975645 123.597474 
L 336.056829 155.429053 
L 336.138013 123.597474 
L 336.462748 187.260632 
L 336.543932 180.894316 
L 336.625116 212.725895 
L 336.787484 98.132211 
L 336.868668 123.597474 
L 336.949852 110.864842 
L 337.11222 174.528 
L 337.193404 104.498526 
L 337.274588 244.557474 
L 337.436956 129.963789 
L 337.51814 199.993263 
L 337.599323 72.666947 
L 337.842875 180.894316 
L 338.086427 104.498526 
L 338.248795 212.725895 
L 338.411163 149.062737 
L 338.492347 193.626947 
L 338.573531 136.330105 
L 338.654715 149.062737 
L 338.735899 199.993263 
L 338.817082 142.696421 
L 338.898266 199.993263 
L 339.060634 136.330105 
L 339.141818 155.429053 
L 339.223002 149.062737 
L 339.304186 199.993263 
L 339.466554 129.963789 
L 339.628922 199.993263 
L 339.79129 155.429053 
L 339.953658 219.092211 
L 340.034841 136.330105 
L 340.116025 244.557474 
L 340.197209 79.033263 
L 340.278393 180.894316 
L 340.359577 91.765895 
L 340.521945 212.725895 
L 340.603129 206.359579 
L 340.765497 199.993263 
L 340.846681 168.161684 
L 340.927865 231.824842 
L 341.009049 219.092211 
L 341.090233 199.993263 
L 341.171416 142.696421 
L 341.333784 187.260632 
L 341.414968 123.597474 
L 341.496152 129.963789 
L 341.577336 193.626947 
L 341.739704 155.429053 
L 341.820888 155.429053 
L 341.902072 110.864842 
L 341.983256 117.231158 
L 342.06444 206.359579 
L 342.226808 161.795368 
L 342.307992 187.260632 
L 342.389175 168.161684 
L 342.470359 206.359579 
L 342.632727 117.231158 
L 342.713911 123.597474 
L 343.038647 225.458526 
L 343.119831 117.231158 
L 343.201015 193.626947 
L 343.363383 85.399579 
L 343.444567 187.260632 
L 343.525751 149.062737 
L 343.606934 219.092211 
L 343.769302 149.062737 
L 343.93167 206.359579 
L 344.094038 142.696421 
L 344.256406 149.062737 
L 344.499958 212.725895 
L 344.662326 129.963789 
L 344.74351 199.993263 
L 344.824693 123.597474 
L 344.905877 161.795368 
L 344.987061 149.062737 
L 345.068245 136.330105 
L 345.149429 168.161684 
L 345.230613 129.963789 
L 345.311797 206.359579 
L 345.392981 136.330105 
L 345.474165 161.795368 
L 345.555349 142.696421 
L 345.636533 225.458526 
L 345.717717 161.795368 
L 345.798901 225.458526 
L 345.961268 149.062737 
L 346.042452 98.132211 
L 346.123636 149.062737 
L 346.20482 136.330105 
L 346.286004 168.161684 
L 346.448372 104.498526 
L 346.529556 174.528 
L 346.691924 123.597474 
L 346.773108 149.062737 
L 346.854292 142.696421 
L 346.935476 53.568 
L 347.097844 180.894316 
L 347.179027 180.894316 
L 347.260211 142.696421 
L 347.341395 174.528 
L 347.422579 155.429053 
L 347.503763 98.132211 
L 347.584947 104.498526 
L 347.666131 168.161684 
L 347.747315 142.696421 
L 347.828499 193.626947 
L 347.909683 187.260632 
L 347.990867 123.597474 
L 348.072051 231.824842 
L 348.234419 79.033263 
L 348.396786 206.359579 
L 348.47797 161.795368 
L 348.559154 250.923789 
L 348.640338 98.132211 
L 348.802706 219.092211 
L 348.965074 142.696421 
L 349.046258 110.864842 
L 349.127442 187.260632 
L 349.208626 104.498526 
L 349.28981 199.993263 
L 349.370994 136.330105 
L 349.452178 206.359579 
L 349.533362 199.993263 
L 349.614545 187.260632 
L 349.776913 117.231158 
L 349.858097 276.389053 
L 349.939281 168.161684 
L 350.020465 199.993263 
L 350.182833 136.330105 
L 350.264017 225.458526 
L 350.345201 161.795368 
L 350.426385 174.528 
L 350.588753 142.696421 
L 350.669937 212.725895 
L 350.832304 174.528 
L 350.913488 168.161684 
L 350.994672 110.864842 
L 351.15704 149.062737 
L 351.238224 129.963789 
L 351.400592 199.993263 
L 351.56296 161.795368 
L 351.644144 225.458526 
L 351.725328 149.062737 
L 351.806512 238.191158 
L 351.887696 155.429053 
L 351.968879 174.528 
L 352.050063 142.696421 
L 352.131247 212.725895 
L 352.212431 136.330105 
L 352.293615 168.161684 
L 352.537167 98.132211 
L 352.618351 244.557474 
L 352.780719 129.963789 
L 352.861903 244.557474 
L 352.943087 104.498526 
L 353.186638 225.458526 
L 353.267822 155.429053 
L 353.349006 168.161684 
L 353.43019 206.359579 
L 353.592558 123.597474 
L 353.998478 193.626947 
L 354.079662 161.795368 
L 354.160846 187.260632 
L 354.323214 161.795368 
L 354.404397 168.161684 
L 354.485581 225.458526 
L 354.647949 142.696421 
L 354.729133 187.260632 
L 354.810317 136.330105 
L 354.891501 212.725895 
L 354.972685 161.795368 
L 355.053869 168.161684 
L 355.135053 136.330105 
L 355.378605 199.993263 
L 355.540973 136.330105 
L 355.622156 225.458526 
L 355.784524 117.231158 
L 355.865708 161.795368 
L 355.946892 155.429053 
L 356.190444 91.765895 
L 356.433996 174.528 
L 356.51518 129.963789 
L 356.596364 142.696421 
L 356.677548 155.429053 
L 356.758732 193.626947 
L 356.839915 187.260632 
L 357.083467 129.963789 
L 357.245835 155.429053 
L 357.408203 231.824842 
L 357.489387 136.330105 
L 357.570571 142.696421 
L 357.651755 142.696421 
L 357.732939 110.864842 
L 357.97649 206.359579 
L 358.138858 149.062737 
L 358.301226 219.092211 
L 358.38241 161.795368 
L 358.463594 168.161684 
L 358.625962 123.597474 
L 358.78833 231.824842 
L 358.950698 155.429053 
L 359.031882 168.161684 
L 359.113066 123.597474 
L 359.275433 199.993263 
L 359.437801 155.429053 
L 359.518985 219.092211 
L 359.600169 168.161684 
L 359.762537 212.725895 
L 359.843721 168.161684 
L 359.924905 174.528 
L 360.006089 199.993263 
L 360.168457 161.795368 
L 360.249641 142.696421 
L 360.412008 231.824842 
L 360.493192 85.399579 
L 360.574376 142.696421 
L 360.65556 136.330105 
L 360.736744 149.062737 
L 360.817928 212.725895 
L 360.899112 180.894316 
L 360.980296 212.725895 
L 361.06148 129.963789 
L 361.142664 142.696421 
L 361.223848 231.824842 
L 361.305032 149.062737 
L 361.386216 212.725895 
L 361.4674 187.260632 
L 361.548584 219.092211 
L 361.710951 129.963789 
L 361.792135 117.231158 
L 361.954503 174.528 
L 362.035687 187.260632 
L 362.116871 161.795368 
L 362.198055 180.894316 
L 362.279239 174.528 
L 362.360423 136.330105 
L 362.522791 155.429053 
L 362.603975 142.696421 
L 362.685159 212.725895 
L 362.766342 149.062737 
L 362.847526 180.894316 
L 362.92871 142.696421 
L 363.009894 206.359579 
L 363.091078 187.260632 
L 363.172262 129.963789 
L 363.253446 168.161684 
L 363.33463 129.963789 
L 363.496998 168.161684 
L 363.578182 142.696421 
L 363.659366 199.993263 
L 363.74055 142.696421 
L 363.821734 161.795368 
L 363.984101 79.033263 
L 364.065285 161.795368 
L 364.146469 129.963789 
L 364.227653 155.429053 
L 364.308837 149.062737 
L 364.471205 187.260632 
L 364.552389 155.429053 
L 364.714757 231.824842 
L 364.877125 129.963789 
L 364.958309 110.864842 
L 365.20186 187.260632 
L 365.283044 91.765895 
L 365.364228 199.993263 
L 365.526596 142.696421 
L 365.60778 199.993263 
L 365.851332 117.231158 
L 366.0137 231.824842 
L 366.094884 244.557474 
L 366.176068 219.092211 
L 366.257252 142.696421 
L 366.338436 206.359579 
L 366.419619 129.963789 
L 366.500803 142.696421 
L 366.581987 212.725895 
L 366.663171 161.795368 
L 366.744355 174.528 
L 366.825539 142.696421 
L 366.906723 168.161684 
L 366.987907 155.429053 
L 367.069091 117.231158 
L 367.150275 129.963789 
L 367.231459 168.161684 
L 367.312643 123.597474 
L 367.393827 149.062737 
L 367.475011 129.963789 
L 367.556195 136.330105 
L 367.637378 174.528 
L 367.718562 161.795368 
L 367.799746 161.795368 
L 367.88093 85.399579 
L 367.962114 174.528 
L 368.043298 91.765895 
L 368.124482 199.993263 
L 368.28685 104.498526 
L 368.368034 168.161684 
L 368.449218 136.330105 
L 368.530402 219.092211 
L 368.69277 85.399579 
L 368.936321 206.359579 
L 369.017505 142.696421 
L 369.179873 206.359579 
L 369.261057 110.864842 
L 369.342241 117.231158 
L 369.585793 206.359579 
L 369.748161 98.132211 
L 369.910529 187.260632 
L 369.991712 136.330105 
L 370.072896 212.725895 
L 370.15408 187.260632 
L 370.235264 206.359579 
L 370.316448 187.260632 
L 370.397632 110.864842 
L 370.478816 174.528 
L 370.56 142.696421 
L 370.641184 231.824842 
L 370.803552 149.062737 
L 370.96592 168.161684 
L 371.047104 206.359579 
L 371.128288 142.696421 
L 371.371839 199.993263 
L 371.534207 123.597474 
L 371.615391 187.260632 
L 371.696575 168.161684 
L 371.777759 161.795368 
L 371.858943 142.696421 
L 371.940127 155.429053 
L 372.021311 136.330105 
L 372.102495 168.161684 
L 372.183679 123.597474 
L 372.264863 180.894316 
L 372.346047 149.062737 
L 372.508414 238.191158 
L 372.751966 104.498526 
L 372.83315 104.498526 
L 372.995518 212.725895 
L 373.076702 155.429053 
L 373.157886 187.260632 
L 373.23907 161.795368 
L 373.320254 168.161684 
L 373.401438 231.824842 
L 373.482622 149.062737 
L 373.563805 168.161684 
L 373.644989 168.161684 
L 373.807357 250.923789 
L 373.888541 174.528 
L 373.969725 212.725895 
L 374.050909 155.429053 
L 374.132093 231.824842 
L 374.213277 168.161684 
L 374.375645 206.359579 
L 374.456829 129.963789 
L 374.619197 180.894316 
L 374.781564 117.231158 
L 374.862748 238.191158 
L 374.943932 161.795368 
L 375.187484 257.290105 
L 375.268668 161.795368 
L 375.349852 193.626947 
L 375.431036 136.330105 
L 375.51222 187.260632 
L 375.674588 123.597474 
L 375.755772 85.399579 
L 375.91814 155.429053 
L 375.999323 149.062737 
L 376.080507 155.429053 
L 376.161691 193.626947 
L 376.242875 187.260632 
L 376.324059 161.795368 
L 376.405243 98.132211 
L 376.486427 212.725895 
L 376.567611 104.498526 
L 376.648795 199.993263 
L 376.729979 142.696421 
L 376.811163 161.795368 
L 376.973531 142.696421 
L 377.054715 199.993263 
L 377.217082 136.330105 
L 377.298266 117.231158 
L 377.541818 174.528 
L 377.623002 129.963789 
L 377.704186 193.626947 
L 377.78537 104.498526 
L 377.866554 129.963789 
L 378.028922 174.528 
L 378.110106 85.399579 
L 378.19129 225.458526 
L 378.353658 123.597474 
L 378.434841 199.993263 
L 378.597209 142.696421 
L 378.678393 155.429053 
L 378.921945 117.231158 
L 379.003129 142.696421 
L 379.084313 219.092211 
L 379.327865 129.963789 
L 379.409049 225.458526 
L 379.490233 129.963789 
L 379.571416 155.429053 
L 379.6526 174.528 
L 379.733784 123.597474 
L 379.814968 174.528 
L 379.896152 129.963789 
L 379.977336 250.923789 
L 380.05852 110.864842 
L 380.139704 142.696421 
L 380.220888 168.161684 
L 380.302072 136.330105 
L 380.383256 187.260632 
L 380.46444 155.429053 
L 380.626808 199.993263 
L 380.707992 155.429053 
L 380.789175 244.557474 
L 380.951543 91.765895 
L 381.032727 199.993263 
L 381.113911 117.231158 
L 381.195095 206.359579 
L 381.276279 129.963789 
L 381.357463 187.260632 
L 381.438647 136.330105 
L 381.519831 238.191158 
L 381.682199 149.062737 
L 381.763383 187.260632 
L 381.844567 110.864842 
L 382.088118 231.824842 
L 382.169302 244.557474 
L 382.33167 180.894316 
L 382.412854 199.993263 
L 382.494038 117.231158 
L 382.575222 123.597474 
L 382.818774 219.092211 
L 382.981142 98.132211 
L 383.14351 187.260632 
L 383.224693 187.260632 
L 383.305877 155.429053 
L 383.387061 168.161684 
L 383.468245 199.993263 
L 383.549429 193.626947 
L 383.630613 155.429053 
L 383.711797 174.528 
L 383.792981 161.795368 
L 383.874165 244.557474 
L 384.117717 110.864842 
L 384.198901 199.993263 
L 384.280085 110.864842 
L 384.361268 129.963789 
L 384.523636 174.528 
L 384.60482 155.429053 
L 384.686004 225.458526 
L 384.767188 212.725895 
L 384.848372 149.062737 
L 384.929556 161.795368 
L 385.01074 155.429053 
L 385.091924 136.330105 
L 385.173108 206.359579 
L 385.254292 199.993263 
L 385.41666 136.330105 
L 385.497844 174.528 
L 385.579027 161.795368 
L 385.660211 180.894316 
L 385.741395 149.062737 
L 385.822579 180.894316 
L 385.984947 149.062737 
L 386.066131 161.795368 
L 386.147315 142.696421 
L 386.228499 155.429053 
L 386.309683 123.597474 
L 386.472051 231.824842 
L 386.553235 136.330105 
L 386.634419 199.993263 
L 386.796786 104.498526 
L 386.87797 161.795368 
L 386.959154 142.696421 
L 387.040338 161.795368 
L 387.121522 123.597474 
L 387.202706 129.963789 
L 387.28389 168.161684 
L 387.446258 59.934316 
L 387.527442 161.795368 
L 387.608626 104.498526 
L 387.68981 123.597474 
L 387.770994 187.260632 
L 388.014545 117.231158 
L 388.095729 206.359579 
L 388.176913 187.260632 
L 388.258097 238.191158 
L 388.339281 231.824842 
L 388.501649 149.062737 
L 388.582833 231.824842 
L 388.664017 199.993263 
L 388.745201 72.666947 
L 388.826385 129.963789 
L 388.907569 117.231158 
L 389.151121 199.993263 
L 389.232304 168.161684 
L 389.313488 193.626947 
L 389.394672 59.934316 
L 389.55704 219.092211 
L 389.800592 104.498526 
L 389.881776 123.597474 
L 389.96296 225.458526 
L 390.044144 206.359579 
L 390.125328 206.359579 
L 390.287696 129.963789 
L 390.450063 199.993263 
L 390.531247 155.429053 
L 390.612431 199.993263 
L 390.693615 155.429053 
L 390.774799 168.161684 
L 390.855983 155.429053 
L 390.937167 104.498526 
L 391.018351 155.429053 
L 391.099535 123.597474 
L 391.261903 168.161684 
L 391.343087 149.062737 
L 391.424271 155.429053 
L 391.505455 142.696421 
L 391.586638 193.626947 
L 391.667822 155.429053 
L 391.749006 180.894316 
L 391.83019 149.062737 
L 391.911374 168.161684 
L 391.992558 123.597474 
L 392.073742 187.260632 
L 392.154926 104.498526 
L 392.23611 187.260632 
L 392.317294 91.765895 
L 392.398478 180.894316 
L 392.479662 79.033263 
L 392.560846 161.795368 
L 392.64203 129.963789 
L 392.804397 149.062737 
L 392.885581 129.963789 
L 392.966765 187.260632 
L 393.047949 136.330105 
L 393.129133 187.260632 
L 393.210317 142.696421 
L 393.291501 212.725895 
L 393.372685 193.626947 
L 393.453869 123.597474 
L 393.535053 136.330105 
L 393.616237 212.725895 
L 393.697421 123.597474 
L 393.778605 168.161684 
L 393.859789 155.429053 
L 393.940973 161.795368 
L 394.022156 142.696421 
L 394.184524 212.725895 
L 394.428076 142.696421 
L 394.671628 238.191158 
L 394.752812 168.161684 
L 394.833996 187.260632 
L 394.91518 193.626947 
L 394.996364 98.132211 
L 395.158732 149.062737 
L 395.239915 110.864842 
L 395.402283 225.458526 
L 395.483467 206.359579 
L 395.564651 149.062737 
L 395.645835 219.092211 
L 395.727019 59.934316 
L 395.889387 244.557474 
L 396.051755 161.795368 
L 396.132939 199.993263 
L 396.37649 142.696421 
L 396.457674 142.696421 
L 396.538858 136.330105 
L 396.701226 174.528 
L 396.78241 123.597474 
L 396.863594 155.429053 
L 397.025962 129.963789 
L 397.350698 206.359579 
L 397.513066 161.795368 
L 397.594249 155.429053 
L 397.675433 117.231158 
L 397.837801 180.894316 
L 397.918985 136.330105 
L 398.000169 180.894316 
L 398.081353 123.597474 
L 398.162537 219.092211 
L 398.243721 187.260632 
L 398.324905 187.260632 
L 398.487273 149.062737 
L 398.487273 149.062737 
" clip-path="url(#p64203c87fc)" style="fill: none; stroke: #1f77b4; stroke-width: 1.5; stroke-linecap: square"/>
   </g>
   <g id="patch_3">
    <path d="M 57.6 307.584 
L 57.6 41.472 
" style="fill: none; stroke: #000000; stroke-width: 0.8; stroke-linejoin: miter; stroke-linecap: square"/>
   </g>
   <g id="patch_4">
    <path d="M 414.72 307.584 
L 414.72 41.472 
" style="fill: none; stroke: #000000; stroke-width: 0.8; stroke-linejoin: miter; stroke-linecap: square"/>
   </g>
   <g id="patch_5">
    <path d="M 57.6 307.584 
L 414.72 307.584 
" style="fill: none; stroke: #000000; stroke-width: 0.8; stroke-linejoin: miter; stroke-linecap: square"/>
   </g>
   <g id="patch_6">
    <path d="M 57.6 41.472 
L 414.72 41.472 
" style="fill: none; stroke: #000000; stroke-width: 0.8; stroke-linejoin: miter; stroke-linecap: square"/>
   </g>
   <g id="text_20">
    <!-- Output firing rate -->
    <g transform="translate(183.793125 35.472) scale(0.12 -0.12)">
     <defs>
      <path id="DejaVuSans-4f" d="M 2522 4238 
Q 1834 4238 1429 3725 
Q 1025 3213 1025 2328 
Q 1025 1447 1429 934 
Q 1834 422 2522 422 
Q 3209 422 3611 934 
Q 4013 1447 4013 2328 
Q 4013 3213 3611 3725 
Q 3209 4238 2522 4238 
z
M 2522 4750 
Q 3503 4750 4090 4092 
Q 4678 3434 4678 2328 
Q 4678 1225 4090 567 
Q 3503 -91 2522 -91 
Q 1538 -91 948 565 
Q 359 1222 359 2328 
Q 359 3434 948 4092 
Q 1538 4750 2522 4750 
z
" transform="scale(0.015625)"/>
      <path id="DejaVuSans-75" d="M 544 1381 
L 544 3500 
L 1119 3500 
L 1119 1403 
Q 1119 906 1312 657 
Q 1506 409 1894 409 
Q 2359 409 2629 706 
Q 2900 1003 2900 1516 
L 2900 3500 
L 3475 3500 
L 3475 0 
L 2900 0 
L 2900 538 
Q 2691 219 2414 64 
Q 2138 -91 1772 -91 
Q 1169 -91 856 284 
Q 544 659 544 1381 
z
M 1991 3584 
L 1991 3584 
z
" transform="scale(0.015625)"/>
      <path id="DejaVuSans-70" d="M 1159 525 
L 1159 -1331 
L 581 -1331 
L 581 3500 
L 1159 3500 
L 1159 2969 
Q 1341 3281 1617 3432 
Q 1894 3584 2278 3584 
Q 2916 3584 3314 3078 
Q 3713 2572 3713 1747 
Q 3713 922 3314 415 
Q 2916 -91 2278 -91 
Q 1894 -91 1617 61 
Q 1341 213 1159 525 
z
M 3116 1747 
Q 3116 2381 2855 2742 
Q 2594 3103 2138 3103 
Q 1681 3103 1420 2742 
Q 1159 2381 1159 1747 
Q 1159 1113 1420 752 
Q 1681 391 2138 391 
Q 2594 391 2855 752 
Q 3116 1113 3116 1747 
z
" transform="scale(0.015625)"/>
      <path id="DejaVuSans-66" d="M 2375 4863 
L 2375 4384 
L 1825 4384 
Q 1516 4384 1395 4259 
Q 1275 4134 1275 3809 
L 1275 3500 
L 2222 3500 
L 2222 3053 
L 1275 3053 
L 1275 0 
L 697 0 
L 697 3053 
L 147 3053 
L 147 3500 
L 697 3500 
L 697 3744 
Q 697 4328 969 4595 
Q 1241 4863 1831 4863 
L 2375 4863 
z
" transform="scale(0.015625)"/>
     </defs>
     <use xlink:href="#DejaVuSans-4f"/>
     <use xlink:href="#DejaVuSans-75" x="78.710938"/>
     <use xlink:href="#DejaVuSans-74" x="142.089844"/>
     <use xlink:href="#DejaVuSans-70" x="181.298828"/>
     <use xlink:href="#DejaVuSans-75" x="244.775391"/>
     <use xlink:href="#DejaVuSans-74" x="308.154297"/>
     <use xlink:href="#DejaVuSans-20" x="347.363281"/>
     <use xlink:href="#DejaVuSans-66" x="379.150391"/>
     <use xlink:href="#DejaVuSans-69" x="414.355469"/>
     <use xlink:href="#DejaVuSans-72" x="442.138672"/>
     <use xlink:href="#DejaVuSans-69" x="483.251953"/>
     <use xlink:href="#DejaVuSans-6e" x="511.035156"/>
     <use xlink:href="#DejaVuSans-67" x="574.414062"/>
     <use xlink:href="#DejaVuSans-20" x="637.890625"/>
     <use xlink:href="#DejaVuSans-72" x="669.677734"/>
     <use xlink:href="#DejaVuSans-61" x="710.791016"/>
     <use xlink:href="#DejaVuSans-74" x="772.070312"/>
     <use xlink:href="#DejaVuSans-65" x="811.279297"/>
    </g>
   </g>
  </g>
 </g>
 <defs>
  <clipPath id="p64203c87fc">
   <rect x="57.6" y="41.472" width="357.12" height="266.112"/>
  </clipPath>
 </defs>
</svg>
