<?xml version="1.0" encoding="utf-8" standalone="no"?>
<!DOCTYPE svg PUBLIC "-//W3C//DTD SVG 1.1//EN"
  "http://www.w3.org/Graphics/SVG/1.1/DTD/svg11.dtd">
<svg xmlns:xlink="http://www.w3.org/1999/xlink" width="460.8pt" height="345.6pt" viewBox="0 0 460.8 345.6" xmlns="http://www.w3.org/2000/svg" version="1.1">
 <metadata>
  <rdf:RDF xmlns:dc="http://purl.org/dc/elements/1.1/" xmlns:cc="http://creativecommons.org/ns#" xmlns:rdf="http://www.w3.org/1999/02/22-rdf-syntax-ns#">
   <cc:Work>
    <dc:type rdf:resource="http://purl.org/dc/dcmitype/StillImage"/>
    <dc:date>2023-05-03T18:29:42.838296</dc:date>
    <dc:format>image/svg+xml</dc:format>
    <dc:creator>
     <cc:Agent>
      <dc:title>Matplotlib v3.6.2, https://matplotlib.org/</dc:title>
     </cc:Agent>
    </dc:creator>
   </cc:Work>
  </rdf:RDF>
 </metadata>
 <defs>
  <style type="text/css">*{stroke-linejoin: round; stroke-linecap: butt}</style>
 </defs>
 <g id="figure_1">
  <g id="patch_1">
   <path d="M 0 345.6 
L 460.8 345.6 
L 460.8 0 
L 0 0 
z
" style="fill: #ffffff"/>
  </g>
  <g id="axes_1">
   <g id="patch_2">
    <path d="M 57.6 307.584 
L 414.72 307.584 
L 414.72 41.472 
L 57.6 41.472 
z
" style="fill: #ffffff"/>
   </g>
   <g id="matplotlib.axis_1">
    <g id="xtick_1">
     <g id="line2d_1">
      <defs>
       <path id="m0cd42378f8" d="M 0 0 
L 0 3.5 
" style="stroke: #000000; stroke-width: 0.8"/>
      </defs>
      <g>
       <use xlink:href="#m0cd42378f8" x="73.832727" y="307.584" style="stroke: #000000; stroke-width: 0.8"/>
      </g>
     </g>
     <g id="text_1">
      <!-- 0 -->
      <g transform="translate(70.651477 322.182437) scale(0.1 -0.1)">
       <defs>
        <path id="DejaVuSans-30" d="M 2034 4250 
Q 1547 4250 1301 3770 
Q 1056 3291 1056 2328 
Q 1056 1369 1301 889 
Q 1547 409 2034 409 
Q 2525 409 2770 889 
Q 3016 1369 3016 2328 
Q 3016 3291 2770 3770 
Q 2525 4250 2034 4250 
z
M 2034 4750 
Q 2819 4750 3233 4129 
Q 3647 3509 3647 2328 
Q 3647 1150 3233 529 
Q 2819 -91 2034 -91 
Q 1250 -91 836 529 
Q 422 1150 422 2328 
Q 422 3509 836 4129 
Q 1250 4750 2034 4750 
z
" transform="scale(0.015625)"/>
       </defs>
       <use xlink:href="#DejaVuSans-30"/>
      </g>
     </g>
    </g>
    <g id="xtick_2">
     <g id="line2d_2">
      <g>
       <use xlink:href="#m0cd42378f8" x="114.434847" y="307.584" style="stroke: #000000; stroke-width: 0.8"/>
      </g>
     </g>
     <g id="text_2">
      <!-- 500 -->
      <g transform="translate(104.891097 322.182437) scale(0.1 -0.1)">
       <defs>
        <path id="DejaVuSans-35" d="M 691 4666 
L 3169 4666 
L 3169 4134 
L 1269 4134 
L 1269 2991 
Q 1406 3038 1543 3061 
Q 1681 3084 1819 3084 
Q 2600 3084 3056 2656 
Q 3513 2228 3513 1497 
Q 3513 744 3044 326 
Q 2575 -91 1722 -91 
Q 1428 -91 1123 -41 
Q 819 9 494 109 
L 494 744 
Q 775 591 1075 516 
Q 1375 441 1709 441 
Q 2250 441 2565 725 
Q 2881 1009 2881 1497 
Q 2881 1984 2565 2268 
Q 2250 2553 1709 2553 
Q 1456 2553 1204 2497 
Q 953 2441 691 2322 
L 691 4666 
z
" transform="scale(0.015625)"/>
       </defs>
       <use xlink:href="#DejaVuSans-35"/>
       <use xlink:href="#DejaVuSans-30" x="63.623047"/>
       <use xlink:href="#DejaVuSans-30" x="127.246094"/>
      </g>
     </g>
    </g>
    <g id="xtick_3">
     <g id="line2d_3">
      <g>
       <use xlink:href="#m0cd42378f8" x="155.036966" y="307.584" style="stroke: #000000; stroke-width: 0.8"/>
      </g>
     </g>
     <g id="text_3">
      <!-- 1000 -->
      <g transform="translate(142.311966 322.182437) scale(0.1 -0.1)">
       <defs>
        <path id="DejaVuSans-31" d="M 794 531 
L 1825 531 
L 1825 4091 
L 703 3866 
L 703 4441 
L 1819 4666 
L 2450 4666 
L 2450 531 
L 3481 531 
L 3481 0 
L 794 0 
L 794 531 
z
" transform="scale(0.015625)"/>
       </defs>
       <use xlink:href="#DejaVuSans-31"/>
       <use xlink:href="#DejaVuSans-30" x="63.623047"/>
       <use xlink:href="#DejaVuSans-30" x="127.246094"/>
       <use xlink:href="#DejaVuSans-30" x="190.869141"/>
      </g>
     </g>
    </g>
    <g id="xtick_4">
     <g id="line2d_4">
      <g>
       <use xlink:href="#m0cd42378f8" x="195.639085" y="307.584" style="stroke: #000000; stroke-width: 0.8"/>
      </g>
     </g>
     <g id="text_4">
      <!-- 1500 -->
      <g transform="translate(182.914085 322.182437) scale(0.1 -0.1)">
       <use xlink:href="#DejaVuSans-31"/>
       <use xlink:href="#DejaVuSans-35" x="63.623047"/>
       <use xlink:href="#DejaVuSans-30" x="127.246094"/>
       <use xlink:href="#DejaVuSans-30" x="190.869141"/>
      </g>
     </g>
    </g>
    <g id="xtick_5">
     <g id="line2d_5">
      <g>
       <use xlink:href="#m0cd42378f8" x="236.241204" y="307.584" style="stroke: #000000; stroke-width: 0.8"/>
      </g>
     </g>
     <g id="text_5">
      <!-- 2000 -->
      <g transform="translate(223.516204 322.182437) scale(0.1 -0.1)">
       <defs>
        <path id="DejaVuSans-32" d="M 1228 531 
L 3431 531 
L 3431 0 
L 469 0 
L 469 531 
Q 828 903 1448 1529 
Q 2069 2156 2228 2338 
Q 2531 2678 2651 2914 
Q 2772 3150 2772 3378 
Q 2772 3750 2511 3984 
Q 2250 4219 1831 4219 
Q 1534 4219 1204 4116 
Q 875 4013 500 3803 
L 500 4441 
Q 881 4594 1212 4672 
Q 1544 4750 1819 4750 
Q 2544 4750 2975 4387 
Q 3406 4025 3406 3419 
Q 3406 3131 3298 2873 
Q 3191 2616 2906 2266 
Q 2828 2175 2409 1742 
Q 1991 1309 1228 531 
z
" transform="scale(0.015625)"/>
       </defs>
       <use xlink:href="#DejaVuSans-32"/>
       <use xlink:href="#DejaVuSans-30" x="63.623047"/>
       <use xlink:href="#DejaVuSans-30" x="127.246094"/>
       <use xlink:href="#DejaVuSans-30" x="190.869141"/>
      </g>
     </g>
    </g>
    <g id="xtick_6">
     <g id="line2d_6">
      <g>
       <use xlink:href="#m0cd42378f8" x="276.843323" y="307.584" style="stroke: #000000; stroke-width: 0.8"/>
      </g>
     </g>
     <g id="text_6">
      <!-- 2500 -->
      <g transform="translate(264.118323 322.182437) scale(0.1 -0.1)">
       <use xlink:href="#DejaVuSans-32"/>
       <use xlink:href="#DejaVuSans-35" x="63.623047"/>
       <use xlink:href="#DejaVuSans-30" x="127.246094"/>
       <use xlink:href="#DejaVuSans-30" x="190.869141"/>
      </g>
     </g>
    </g>
    <g id="xtick_7">
     <g id="line2d_7">
      <g>
       <use xlink:href="#m0cd42378f8" x="317.445443" y="307.584" style="stroke: #000000; stroke-width: 0.8"/>
      </g>
     </g>
     <g id="text_7">
      <!-- 3000 -->
      <g transform="translate(304.720443 322.182437) scale(0.1 -0.1)">
       <defs>
        <path id="DejaVuSans-33" d="M 2597 2516 
Q 3050 2419 3304 2112 
Q 3559 1806 3559 1356 
Q 3559 666 3084 287 
Q 2609 -91 1734 -91 
Q 1441 -91 1130 -33 
Q 819 25 488 141 
L 488 750 
Q 750 597 1062 519 
Q 1375 441 1716 441 
Q 2309 441 2620 675 
Q 2931 909 2931 1356 
Q 2931 1769 2642 2001 
Q 2353 2234 1838 2234 
L 1294 2234 
L 1294 2753 
L 1863 2753 
Q 2328 2753 2575 2939 
Q 2822 3125 2822 3475 
Q 2822 3834 2567 4026 
Q 2313 4219 1838 4219 
Q 1578 4219 1281 4162 
Q 984 4106 628 3988 
L 628 4550 
Q 988 4650 1302 4700 
Q 1616 4750 1894 4750 
Q 2613 4750 3031 4423 
Q 3450 4097 3450 3541 
Q 3450 3153 3228 2886 
Q 3006 2619 2597 2516 
z
" transform="scale(0.015625)"/>
       </defs>
       <use xlink:href="#DejaVuSans-33"/>
       <use xlink:href="#DejaVuSans-30" x="63.623047"/>
       <use xlink:href="#DejaVuSans-30" x="127.246094"/>
       <use xlink:href="#DejaVuSans-30" x="190.869141"/>
      </g>
     </g>
    </g>
    <g id="xtick_8">
     <g id="line2d_8">
      <g>
       <use xlink:href="#m0cd42378f8" x="358.047562" y="307.584" style="stroke: #000000; stroke-width: 0.8"/>
      </g>
     </g>
     <g id="text_8">
      <!-- 3500 -->
      <g transform="translate(345.322562 322.182437) scale(0.1 -0.1)">
       <use xlink:href="#DejaVuSans-33"/>
       <use xlink:href="#DejaVuSans-35" x="63.623047"/>
       <use xlink:href="#DejaVuSans-30" x="127.246094"/>
       <use xlink:href="#DejaVuSans-30" x="190.869141"/>
      </g>
     </g>
    </g>
    <g id="xtick_9">
     <g id="line2d_9">
      <g>
       <use xlink:href="#m0cd42378f8" x="398.649681" y="307.584" style="stroke: #000000; stroke-width: 0.8"/>
      </g>
     </g>
     <g id="text_9">
      <!-- 4000 -->
      <g transform="translate(385.924681 322.182437) scale(0.1 -0.1)">
       <defs>
        <path id="DejaVuSans-34" d="M 2419 4116 
L 825 1625 
L 2419 1625 
L 2419 4116 
z
M 2253 4666 
L 3047 4666 
L 3047 1625 
L 3713 1625 
L 3713 1100 
L 3047 1100 
L 3047 0 
L 2419 0 
L 2419 1100 
L 313 1100 
L 313 1709 
L 2253 4666 
z
" transform="scale(0.015625)"/>
       </defs>
       <use xlink:href="#DejaVuSans-34"/>
       <use xlink:href="#DejaVuSans-30" x="63.623047"/>
       <use xlink:href="#DejaVuSans-30" x="127.246094"/>
       <use xlink:href="#DejaVuSans-30" x="190.869141"/>
      </g>
     </g>
    </g>
    <g id="text_10">
     <!-- Image shown -->
     <g transform="translate(202.820156 335.860562) scale(0.1 -0.1)">
      <defs>
       <path id="DejaVuSans-49" d="M 628 4666 
L 1259 4666 
L 1259 0 
L 628 0 
L 628 4666 
z
" transform="scale(0.015625)"/>
       <path id="DejaVuSans-6d" d="M 3328 2828 
Q 3544 3216 3844 3400 
Q 4144 3584 4550 3584 
Q 5097 3584 5394 3201 
Q 5691 2819 5691 2113 
L 5691 0 
L 5113 0 
L 5113 2094 
Q 5113 2597 4934 2840 
Q 4756 3084 4391 3084 
Q 3944 3084 3684 2787 
Q 3425 2491 3425 1978 
L 3425 0 
L 2847 0 
L 2847 2094 
Q 2847 2600 2669 2842 
Q 2491 3084 2119 3084 
Q 1678 3084 1418 2786 
Q 1159 2488 1159 1978 
L 1159 0 
L 581 0 
L 581 3500 
L 1159 3500 
L 1159 2956 
Q 1356 3278 1631 3431 
Q 1906 3584 2284 3584 
Q 2666 3584 2933 3390 
Q 3200 3197 3328 2828 
z
" transform="scale(0.015625)"/>
       <path id="DejaVuSans-61" d="M 2194 1759 
Q 1497 1759 1228 1600 
Q 959 1441 959 1056 
Q 959 750 1161 570 
Q 1363 391 1709 391 
Q 2188 391 2477 730 
Q 2766 1069 2766 1631 
L 2766 1759 
L 2194 1759 
z
M 3341 1997 
L 3341 0 
L 2766 0 
L 2766 531 
Q 2569 213 2275 61 
Q 1981 -91 1556 -91 
Q 1019 -91 701 211 
Q 384 513 384 1019 
Q 384 1609 779 1909 
Q 1175 2209 1959 2209 
L 2766 2209 
L 2766 2266 
Q 2766 2663 2505 2880 
Q 2244 3097 1772 3097 
Q 1472 3097 1187 3025 
Q 903 2953 641 2809 
L 641 3341 
Q 956 3463 1253 3523 
Q 1550 3584 1831 3584 
Q 2591 3584 2966 3190 
Q 3341 2797 3341 1997 
z
" transform="scale(0.015625)"/>
       <path id="DejaVuSans-67" d="M 2906 1791 
Q 2906 2416 2648 2759 
Q 2391 3103 1925 3103 
Q 1463 3103 1205 2759 
Q 947 2416 947 1791 
Q 947 1169 1205 825 
Q 1463 481 1925 481 
Q 2391 481 2648 825 
Q 2906 1169 2906 1791 
z
M 3481 434 
Q 3481 -459 3084 -895 
Q 2688 -1331 1869 -1331 
Q 1566 -1331 1297 -1286 
Q 1028 -1241 775 -1147 
L 775 -588 
Q 1028 -725 1275 -790 
Q 1522 -856 1778 -856 
Q 2344 -856 2625 -561 
Q 2906 -266 2906 331 
L 2906 616 
Q 2728 306 2450 153 
Q 2172 0 1784 0 
Q 1141 0 747 490 
Q 353 981 353 1791 
Q 353 2603 747 3093 
Q 1141 3584 1784 3584 
Q 2172 3584 2450 3431 
Q 2728 3278 2906 2969 
L 2906 3500 
L 3481 3500 
L 3481 434 
z
" transform="scale(0.015625)"/>
       <path id="DejaVuSans-65" d="M 3597 1894 
L 3597 1613 
L 953 1613 
Q 991 1019 1311 708 
Q 1631 397 2203 397 
Q 2534 397 2845 478 
Q 3156 559 3463 722 
L 3463 178 
Q 3153 47 2828 -22 
Q 2503 -91 2169 -91 
Q 1331 -91 842 396 
Q 353 884 353 1716 
Q 353 2575 817 3079 
Q 1281 3584 2069 3584 
Q 2775 3584 3186 3129 
Q 3597 2675 3597 1894 
z
M 3022 2063 
Q 3016 2534 2758 2815 
Q 2500 3097 2075 3097 
Q 1594 3097 1305 2825 
Q 1016 2553 972 2059 
L 3022 2063 
z
" transform="scale(0.015625)"/>
       <path id="DejaVuSans-20" transform="scale(0.015625)"/>
       <path id="DejaVuSans-73" d="M 2834 3397 
L 2834 2853 
Q 2591 2978 2328 3040 
Q 2066 3103 1784 3103 
Q 1356 3103 1142 2972 
Q 928 2841 928 2578 
Q 928 2378 1081 2264 
Q 1234 2150 1697 2047 
L 1894 2003 
Q 2506 1872 2764 1633 
Q 3022 1394 3022 966 
Q 3022 478 2636 193 
Q 2250 -91 1575 -91 
Q 1294 -91 989 -36 
Q 684 19 347 128 
L 347 722 
Q 666 556 975 473 
Q 1284 391 1588 391 
Q 1994 391 2212 530 
Q 2431 669 2431 922 
Q 2431 1156 2273 1281 
Q 2116 1406 1581 1522 
L 1381 1569 
Q 847 1681 609 1914 
Q 372 2147 372 2553 
Q 372 3047 722 3315 
Q 1072 3584 1716 3584 
Q 2034 3584 2315 3537 
Q 2597 3491 2834 3397 
z
" transform="scale(0.015625)"/>
       <path id="DejaVuSans-68" d="M 3513 2113 
L 3513 0 
L 2938 0 
L 2938 2094 
Q 2938 2591 2744 2837 
Q 2550 3084 2163 3084 
Q 1697 3084 1428 2787 
Q 1159 2491 1159 1978 
L 1159 0 
L 581 0 
L 581 4863 
L 1159 4863 
L 1159 2956 
Q 1366 3272 1645 3428 
Q 1925 3584 2291 3584 
Q 2894 3584 3203 3211 
Q 3513 2838 3513 2113 
z
" transform="scale(0.015625)"/>
       <path id="DejaVuSans-6f" d="M 1959 3097 
Q 1497 3097 1228 2736 
Q 959 2375 959 1747 
Q 959 1119 1226 758 
Q 1494 397 1959 397 
Q 2419 397 2687 759 
Q 2956 1122 2956 1747 
Q 2956 2369 2687 2733 
Q 2419 3097 1959 3097 
z
M 1959 3584 
Q 2709 3584 3137 3096 
Q 3566 2609 3566 1747 
Q 3566 888 3137 398 
Q 2709 -91 1959 -91 
Q 1206 -91 779 398 
Q 353 888 353 1747 
Q 353 2609 779 3096 
Q 1206 3584 1959 3584 
z
" transform="scale(0.015625)"/>
       <path id="DejaVuSans-77" d="M 269 3500 
L 844 3500 
L 1563 769 
L 2278 3500 
L 2956 3500 
L 3675 769 
L 4391 3500 
L 4966 3500 
L 4050 0 
L 3372 0 
L 2619 2869 
L 1863 0 
L 1184 0 
L 269 3500 
z
" transform="scale(0.015625)"/>
       <path id="DejaVuSans-6e" d="M 3513 2113 
L 3513 0 
L 2938 0 
L 2938 2094 
Q 2938 2591 2744 2837 
Q 2550 3084 2163 3084 
Q 1697 3084 1428 2787 
Q 1159 2491 1159 1978 
L 1159 0 
L 581 0 
L 581 3500 
L 1159 3500 
L 1159 2956 
Q 1366 3272 1645 3428 
Q 1925 3584 2291 3584 
Q 2894 3584 3203 3211 
Q 3513 2838 3513 2113 
z
" transform="scale(0.015625)"/>
      </defs>
      <use xlink:href="#DejaVuSans-49"/>
      <use xlink:href="#DejaVuSans-6d" x="29.492188"/>
      <use xlink:href="#DejaVuSans-61" x="126.904297"/>
      <use xlink:href="#DejaVuSans-67" x="188.183594"/>
      <use xlink:href="#DejaVuSans-65" x="251.660156"/>
      <use xlink:href="#DejaVuSans-20" x="313.183594"/>
      <use xlink:href="#DejaVuSans-73" x="344.970703"/>
      <use xlink:href="#DejaVuSans-68" x="397.070312"/>
      <use xlink:href="#DejaVuSans-6f" x="460.449219"/>
      <use xlink:href="#DejaVuSans-77" x="521.630859"/>
      <use xlink:href="#DejaVuSans-6e" x="603.417969"/>
     </g>
    </g>
   </g>
   <g id="matplotlib.axis_2">
    <g id="ytick_1">
     <g id="line2d_10">
      <defs>
       <path id="mf51a0b4ab6" d="M 0 0 
L -3.5 0 
" style="stroke: #000000; stroke-width: 0.8"/>
      </defs>
      <g>
       <use xlink:href="#mf51a0b4ab6" x="57.6" y="276.427636" style="stroke: #000000; stroke-width: 0.8"/>
      </g>
     </g>
     <g id="text_11">
      <!-- 0.2 -->
      <g transform="translate(34.696875 280.226855) scale(0.1 -0.1)">
       <defs>
        <path id="DejaVuSans-2e" d="M 684 794 
L 1344 794 
L 1344 0 
L 684 0 
L 684 794 
z
" transform="scale(0.015625)"/>
       </defs>
       <use xlink:href="#DejaVuSans-30"/>
       <use xlink:href="#DejaVuSans-2e" x="63.623047"/>
       <use xlink:href="#DejaVuSans-32" x="95.410156"/>
      </g>
     </g>
    </g>
    <g id="ytick_2">
     <g id="line2d_11">
      <g>
       <use xlink:href="#mf51a0b4ab6" x="57.6" y="220.712727" style="stroke: #000000; stroke-width: 0.8"/>
      </g>
     </g>
     <g id="text_12">
      <!-- 0.4 -->
      <g transform="translate(34.696875 224.511946) scale(0.1 -0.1)">
       <use xlink:href="#DejaVuSans-30"/>
       <use xlink:href="#DejaVuSans-2e" x="63.623047"/>
       <use xlink:href="#DejaVuSans-34" x="95.410156"/>
      </g>
     </g>
    </g>
    <g id="ytick_3">
     <g id="line2d_12">
      <g>
       <use xlink:href="#mf51a0b4ab6" x="57.6" y="164.997818" style="stroke: #000000; stroke-width: 0.8"/>
      </g>
     </g>
     <g id="text_13">
      <!-- 0.6 -->
      <g transform="translate(34.696875 168.797037) scale(0.1 -0.1)">
       <defs>
        <path id="DejaVuSans-36" d="M 2113 2584 
Q 1688 2584 1439 2293 
Q 1191 2003 1191 1497 
Q 1191 994 1439 701 
Q 1688 409 2113 409 
Q 2538 409 2786 701 
Q 3034 994 3034 1497 
Q 3034 2003 2786 2293 
Q 2538 2584 2113 2584 
z
M 3366 4563 
L 3366 3988 
Q 3128 4100 2886 4159 
Q 2644 4219 2406 4219 
Q 1781 4219 1451 3797 
Q 1122 3375 1075 2522 
Q 1259 2794 1537 2939 
Q 1816 3084 2150 3084 
Q 2853 3084 3261 2657 
Q 3669 2231 3669 1497 
Q 3669 778 3244 343 
Q 2819 -91 2113 -91 
Q 1303 -91 875 529 
Q 447 1150 447 2328 
Q 447 3434 972 4092 
Q 1497 4750 2381 4750 
Q 2619 4750 2861 4703 
Q 3103 4656 3366 4563 
z
" transform="scale(0.015625)"/>
       </defs>
       <use xlink:href="#DejaVuSans-30"/>
       <use xlink:href="#DejaVuSans-2e" x="63.623047"/>
       <use xlink:href="#DejaVuSans-36" x="95.410156"/>
      </g>
     </g>
    </g>
    <g id="ytick_4">
     <g id="line2d_13">
      <g>
       <use xlink:href="#mf51a0b4ab6" x="57.6" y="109.282909" style="stroke: #000000; stroke-width: 0.8"/>
      </g>
     </g>
     <g id="text_14">
      <!-- 0.8 -->
      <g transform="translate(34.696875 113.082128) scale(0.1 -0.1)">
       <defs>
        <path id="DejaVuSans-38" d="M 2034 2216 
Q 1584 2216 1326 1975 
Q 1069 1734 1069 1313 
Q 1069 891 1326 650 
Q 1584 409 2034 409 
Q 2484 409 2743 651 
Q 3003 894 3003 1313 
Q 3003 1734 2745 1975 
Q 2488 2216 2034 2216 
z
M 1403 2484 
Q 997 2584 770 2862 
Q 544 3141 544 3541 
Q 544 4100 942 4425 
Q 1341 4750 2034 4750 
Q 2731 4750 3128 4425 
Q 3525 4100 3525 3541 
Q 3525 3141 3298 2862 
Q 3072 2584 2669 2484 
Q 3125 2378 3379 2068 
Q 3634 1759 3634 1313 
Q 3634 634 3220 271 
Q 2806 -91 2034 -91 
Q 1263 -91 848 271 
Q 434 634 434 1313 
Q 434 1759 690 2068 
Q 947 2378 1403 2484 
z
M 1172 3481 
Q 1172 3119 1398 2916 
Q 1625 2713 2034 2713 
Q 2441 2713 2670 2916 
Q 2900 3119 2900 3481 
Q 2900 3844 2670 4047 
Q 2441 4250 2034 4250 
Q 1625 4250 1398 4047 
Q 1172 3844 1172 3481 
z
" transform="scale(0.015625)"/>
       </defs>
       <use xlink:href="#DejaVuSans-30"/>
       <use xlink:href="#DejaVuSans-2e" x="63.623047"/>
       <use xlink:href="#DejaVuSans-38" x="95.410156"/>
      </g>
     </g>
    </g>
    <g id="ytick_5">
     <g id="line2d_14">
      <g>
       <use xlink:href="#mf51a0b4ab6" x="57.6" y="53.568" style="stroke: #000000; stroke-width: 0.8"/>
      </g>
     </g>
     <g id="text_15">
      <!-- 1.0 -->
      <g transform="translate(34.696875 57.367219) scale(0.1 -0.1)">
       <use xlink:href="#DejaVuSans-31"/>
       <use xlink:href="#DejaVuSans-2e" x="63.623047"/>
       <use xlink:href="#DejaVuSans-30" x="95.410156"/>
      </g>
     </g>
    </g>
    <g id="text_16">
     <!-- Homogeneity of output spikes -->
     <g transform="translate(28.617187 249.723312) rotate(-90) scale(0.1 -0.1)">
      <defs>
       <path id="DejaVuSans-48" d="M 628 4666 
L 1259 4666 
L 1259 2753 
L 3553 2753 
L 3553 4666 
L 4184 4666 
L 4184 0 
L 3553 0 
L 3553 2222 
L 1259 2222 
L 1259 0 
L 628 0 
L 628 4666 
z
" transform="scale(0.015625)"/>
       <path id="DejaVuSans-69" d="M 603 3500 
L 1178 3500 
L 1178 0 
L 603 0 
L 603 3500 
z
M 603 4863 
L 1178 4863 
L 1178 4134 
L 603 4134 
L 603 4863 
z
" transform="scale(0.015625)"/>
       <path id="DejaVuSans-74" d="M 1172 4494 
L 1172 3500 
L 2356 3500 
L 2356 3053 
L 1172 3053 
L 1172 1153 
Q 1172 725 1289 603 
Q 1406 481 1766 481 
L 2356 481 
L 2356 0 
L 1766 0 
Q 1100 0 847 248 
Q 594 497 594 1153 
L 594 3053 
L 172 3053 
L 172 3500 
L 594 3500 
L 594 4494 
L 1172 4494 
z
" transform="scale(0.015625)"/>
       <path id="DejaVuSans-79" d="M 2059 -325 
Q 1816 -950 1584 -1140 
Q 1353 -1331 966 -1331 
L 506 -1331 
L 506 -850 
L 844 -850 
Q 1081 -850 1212 -737 
Q 1344 -625 1503 -206 
L 1606 56 
L 191 3500 
L 800 3500 
L 1894 763 
L 2988 3500 
L 3597 3500 
L 2059 -325 
z
" transform="scale(0.015625)"/>
       <path id="DejaVuSans-66" d="M 2375 4863 
L 2375 4384 
L 1825 4384 
Q 1516 4384 1395 4259 
Q 1275 4134 1275 3809 
L 1275 3500 
L 2222 3500 
L 2222 3053 
L 1275 3053 
L 1275 0 
L 697 0 
L 697 3053 
L 147 3053 
L 147 3500 
L 697 3500 
L 697 3744 
Q 697 4328 969 4595 
Q 1241 4863 1831 4863 
L 2375 4863 
z
" transform="scale(0.015625)"/>
       <path id="DejaVuSans-75" d="M 544 1381 
L 544 3500 
L 1119 3500 
L 1119 1403 
Q 1119 906 1312 657 
Q 1506 409 1894 409 
Q 2359 409 2629 706 
Q 2900 1003 2900 1516 
L 2900 3500 
L 3475 3500 
L 3475 0 
L 2900 0 
L 2900 538 
Q 2691 219 2414 64 
Q 2138 -91 1772 -91 
Q 1169 -91 856 284 
Q 544 659 544 1381 
z
M 1991 3584 
L 1991 3584 
z
" transform="scale(0.015625)"/>
       <path id="DejaVuSans-70" d="M 1159 525 
L 1159 -1331 
L 581 -1331 
L 581 3500 
L 1159 3500 
L 1159 2969 
Q 1341 3281 1617 3432 
Q 1894 3584 2278 3584 
Q 2916 3584 3314 3078 
Q 3713 2572 3713 1747 
Q 3713 922 3314 415 
Q 2916 -91 2278 -91 
Q 1894 -91 1617 61 
Q 1341 213 1159 525 
z
M 3116 1747 
Q 3116 2381 2855 2742 
Q 2594 3103 2138 3103 
Q 1681 3103 1420 2742 
Q 1159 2381 1159 1747 
Q 1159 1113 1420 752 
Q 1681 391 2138 391 
Q 2594 391 2855 752 
Q 3116 1113 3116 1747 
z
" transform="scale(0.015625)"/>
       <path id="DejaVuSans-6b" d="M 581 4863 
L 1159 4863 
L 1159 1991 
L 2875 3500 
L 3609 3500 
L 1753 1863 
L 3688 0 
L 2938 0 
L 1159 1709 
L 1159 0 
L 581 0 
L 581 4863 
z
" transform="scale(0.015625)"/>
      </defs>
      <use xlink:href="#DejaVuSans-48"/>
      <use xlink:href="#DejaVuSans-6f" x="75.195312"/>
      <use xlink:href="#DejaVuSans-6d" x="136.376953"/>
      <use xlink:href="#DejaVuSans-6f" x="233.789062"/>
      <use xlink:href="#DejaVuSans-67" x="294.970703"/>
      <use xlink:href="#DejaVuSans-65" x="358.447266"/>
      <use xlink:href="#DejaVuSans-6e" x="419.970703"/>
      <use xlink:href="#DejaVuSans-65" x="483.349609"/>
      <use xlink:href="#DejaVuSans-69" x="544.873047"/>
      <use xlink:href="#DejaVuSans-74" x="572.65625"/>
      <use xlink:href="#DejaVuSans-79" x="611.865234"/>
      <use xlink:href="#DejaVuSans-20" x="671.044922"/>
      <use xlink:href="#DejaVuSans-6f" x="702.832031"/>
      <use xlink:href="#DejaVuSans-66" x="764.013672"/>
      <use xlink:href="#DejaVuSans-20" x="799.21875"/>
      <use xlink:href="#DejaVuSans-6f" x="831.005859"/>
      <use xlink:href="#DejaVuSans-75" x="892.1875"/>
      <use xlink:href="#DejaVuSans-74" x="955.566406"/>
      <use xlink:href="#DejaVuSans-70" x="994.775391"/>
      <use xlink:href="#DejaVuSans-75" x="1058.251953"/>
      <use xlink:href="#DejaVuSans-74" x="1121.630859"/>
      <use xlink:href="#DejaVuSans-20" x="1160.839844"/>
      <use xlink:href="#DejaVuSans-73" x="1192.626953"/>
      <use xlink:href="#DejaVuSans-70" x="1244.726562"/>
      <use xlink:href="#DejaVuSans-69" x="1308.203125"/>
      <use xlink:href="#DejaVuSans-6b" x="1335.986328"/>
      <use xlink:href="#DejaVuSans-65" x="1390.271484"/>
      <use xlink:href="#DejaVuSans-73" x="1451.794922"/>
     </g>
    </g>
   </g>
   <g id="line2d_15">
    <path d="M 73.832727 284.386909 
L 73.995136 287.211167 
L 74.07634 277.975273 
L 74.319953 294.155107 
L 74.401157 273.495273 
L 74.482361 284.386909 
L 74.563565 264.38117 
L 74.64477 291.375539 
L 74.725974 290.356364 
L 74.807178 285.713455 
L 74.969587 291.175701 
L 75.050791 279.909818 
L 75.131995 285.713455 
L 75.456812 274.506433 
L 75.538016 290.356364 
L 75.619221 287.211167 
L 75.700425 280.826182 
L 75.781629 292.346182 
L 75.862833 271.204364 
L 75.944037 276.427636 
L 76.025242 278.224891 
L 76.106446 269.463273 
L 76.18765 287.211167 
L 76.268854 264.900414 
L 76.350059 285.713455 
L 76.512467 256.852128 
L 76.593671 270.237091 
L 76.674876 262.498909 
L 76.75608 282.618182 
L 76.837284 277.786537 
L 76.918488 282.141986 
L 77.080897 267.856112 
L 77.243305 289.284923 
L 77.32451 268.830149 
L 77.568122 293.71847 
L 77.649326 272.871366 
L 77.730531 288.157091 
L 77.811735 276.427636 
L 77.892939 293.451636 
L 78.055348 276.427636 
L 78.136552 286.968295 
L 78.380165 272.448 
L 78.461369 276.427636 
L 78.542573 289.934281 
L 78.704982 268.468364 
L 78.948594 285.713455 
L 79.029799 279.909818 
L 79.111003 292.346182 
L 79.192207 271.582862 
L 79.273411 287.823868 
L 79.354615 264.609322 
L 79.43582 286.968295 
L 79.517024 271.910211 
L 79.679432 286.793201 
L 79.760637 288.615273 
L 79.841841 286.793201 
L 79.923045 277.975273 
L 80.166658 287.823868 
L 80.247862 271.910211 
L 80.329066 277.975273 
L 80.410271 274.788963 
L 80.653883 295.488 
L 80.735088 287.823868 
L 80.816292 260.25234 
L 80.897496 288.157091 
L 80.9787 279.439253 
L 81.059904 288.615273 
L 81.222313 267.141818 
L 81.384721 285.713455 
L 81.465926 283.694798 
L 81.54713 239.284364 
L 81.628334 279.439253 
L 81.709538 279.080727 
L 81.790743 266.164364 
L 81.871947 291.175701 
L 81.953151 285.713455 
L 82.11556 266.595594 
L 82.196764 276.427636 
L 82.277968 274.788963 
L 82.359172 280.826182 
L 82.440377 276.427636 
L 82.602785 285.713455 
L 82.683989 288.157091 
L 82.765194 282.141986 
L 82.846398 285.713455 
L 83.09001 262.498909 
L 83.171215 284.386909 
L 83.252419 273.495273 
L 83.496032 291.375539 
L 83.577236 290.356364 
L 83.65844 284.386909 
L 83.739644 286.968295 
L 83.820849 280.826182 
L 83.902053 285.713455 
L 83.983257 264.38117 
L 84.145666 274.788963 
L 84.22687 270.237091 
L 84.308074 284.386909 
L 84.389278 259.919515 
L 84.470483 268.468364 
L 84.551687 283.694798 
L 84.632891 282.618182 
L 84.714095 284.112451 
L 84.795299 293.271679 
L 84.957708 272.448 
L 85.038912 292.346182 
L 85.120116 267.141818 
L 85.201321 274.788963 
L 85.282525 290.356364 
L 85.526138 260.25234 
L 85.688546 285.713455 
L 85.76975 282.982332 
L 85.932159 268.468364 
L 86.175772 280.826182 
L 86.256976 291.175701 
L 86.33818 273.836245 
L 86.500588 283.392 
L 86.581793 287.211167 
L 86.662997 252.549818 
L 86.744201 284.386909 
L 86.825405 281.492628 
L 86.90661 269.238616 
L 87.069018 283.392 
L 87.150222 284.112451 
L 87.393835 256.167669 
L 87.556244 286.793201 
L 87.637448 274.999049 
L 87.718652 289.284923 
L 87.799856 272.448 
L 87.962265 291.375539 
L 88.124673 256.167669 
L 88.205877 256.852128 
L 88.287082 286.793201 
L 88.368286 282.982332 
L 88.44949 278.570517 
L 88.530694 280.314723 
L 88.611899 272.448 
L 88.693103 281.492628 
L 88.774307 259.919515 
L 89.01792 289.284923 
L 89.099124 270.237091 
L 89.180328 284.386909 
L 89.261533 279.909818 
L 89.342737 239.284364 
L 89.505145 288.157091 
L 89.58635 284.581038 
L 89.667554 249.83643 
L 89.748758 262.498909 
L 89.829962 257.403033 
L 89.911166 293.451636 
L 89.992371 284.112451 
L 90.073575 265.815273 
L 90.154779 277.975273 
L 90.235983 269.463273 
L 90.398392 291.175701 
L 90.479596 283.392 
L 90.5608 258.833455 
L 90.642005 267.856112 
L 90.723209 268.830149 
L 90.804413 282.982332 
L 90.885617 276.427636 
L 90.966822 255.534545 
L 91.210434 279.909818 
L 91.291639 266.164364 
L 91.372843 270.992035 
L 91.69766 290.872242 
L 91.778864 264.38117 
L 91.860068 287.211167 
L 91.941272 243.814031 
L 92.022477 256.167669 
L 92.184885 282.141986 
L 92.266089 257.403033 
L 92.347294 262.498909 
L 92.428498 292.346182 
L 92.509702 266.164364 
L 92.590906 283.392 
L 92.753315 251.502545 
L 92.834519 291.175701 
L 92.915723 247.022545 
L 92.996928 264.609322 
L 93.078132 208.331636 
L 93.159336 290.356364 
L 93.24054 274.788963 
L 93.402949 253.793455 
L 93.484153 274.788963 
L 93.646561 250.208856 
L 93.727766 278.224891 
L 93.80897 269.463273 
L 93.971378 283.392 
L 94.052583 268.468364 
L 94.133787 269.463273 
L 94.214991 277.786537 
L 94.296195 203.047024 
L 94.458604 274.788963 
L 94.539808 255.671102 
L 94.621012 260.509091 
L 94.702217 280.826182 
L 94.783421 276.427636 
L 94.864625 280.826182 
L 94.945829 153.854836 
L 95.027034 253.793455 
L 95.108238 252.549818 
L 95.189442 280.826182 
L 95.270646 247.922334 
L 95.35185 248.570182 
L 95.433055 260.713175 
L 95.514259 230.842711 
L 95.595463 264.609322 
L 95.676667 239.284364 
L 95.839076 268.830149 
L 95.92028 230.842711 
L 96.082689 247.726017 
L 96.245097 256.167669 
L 96.326301 196.834909 
L 96.48871 270.992035 
L 96.569914 258.833455 
L 96.651118 273.050975 
L 96.813527 239.284364 
L 96.975935 268.830149 
L 97.057139 237.17395 
L 97.138344 239.284364 
L 97.300752 258.833455 
L 97.381956 256.695273 
L 97.463161 245.688376 
L 97.625569 265.815273 
L 97.706773 180.743336 
L 98.03159 283.392 
L 98.275203 149.628188 
L 98.356407 249.323086 
L 98.437612 200.186182 
L 98.60002 249.162894 
L 98.681224 209.841525 
L 98.762428 222.178909 
L 98.843633 242.015487 
L 98.924837 211.426909 
L 99.006041 217.079146 
L 99.087245 255.534545 
L 99.412062 196.094512 
L 99.655675 257.856 
L 99.736879 258.833455 
L 99.818084 210.712615 
L 99.899288 254.760727 
L 99.980492 251.502545 
L 100.061696 205.517752 
L 100.142901 220.712727 
L 100.224105 234.265002 
L 100.386513 185.890909 
L 100.467717 255.294395 
L 100.548922 236.631273 
L 100.630126 225.628749 
L 100.71133 156.200727 
L 100.873739 242.015487 
L 100.954943 222.178909 
L 101.036147 252.549818 
L 101.198556 192.855273 
L 101.442168 262.498909 
L 101.604577 192.855273 
L 101.685781 262.498909 
L 101.766985 162.280018 
L 101.929394 260.509091 
L 102.010598 158.974585 
L 102.173007 249.323086 
L 102.254211 232.651636 
L 102.335415 146.426182 
L 102.416619 166.503627 
L 102.497823 220.712727 
L 102.579028 217.43538 
L 102.741436 255.534545 
L 102.985049 184.661904 
L 103.066253 204.148835 
L 103.147457 175.86902 
L 103.309866 225.628749 
L 103.39107 210.266182 
L 103.472274 192.855273 
L 103.634683 249.83643 
L 103.715887 116.247273 
L 103.797091 222.008423 
L 103.878296 104.217917 
L 103.9595 196.619794 
L 104.040704 174.032668 
L 104.284317 258.402225 
L 104.365521 177.378909 
L 104.446725 192.855273 
L 104.527929 241.605818 
L 104.609134 241.30302 
L 104.771542 123.211636 
L 104.852746 167.530314 
L 104.933951 99.997091 
L 105.096359 244.171636 
L 105.258768 154.867835 
L 105.50238 237.01953 
L 105.583585 107.924009 
L 105.664789 262.498909 
L 105.908401 102.318545 
L 105.989606 234.965378 
L 106.152014 123.211636 
L 106.314423 218.180231 
L 106.476831 107.735273 
L 106.63924 202.804364 
L 106.801648 144.407526 
L 106.882852 168.840226 
L 106.964057 109.282909 
L 107.045261 116.247273 
L 107.126465 192.855273 
L 107.288874 121.513011 
L 107.370078 164.997818 
L 107.451282 82.891636 
L 107.694895 208.331636 
L 107.776099 189.458022 
L 107.938507 61.097042 
L 108.100916 204.967209 
L 108.18212 197.076099 
L 108.344529 77.276472 
L 108.425733 189.283804 
L 108.506937 161.199074 
L 108.588141 210.266182 
L 108.669346 123.211636 
L 108.831754 210.266182 
L 108.994163 227.677091 
L 109.075367 125.458205 
L 109.237775 192.855273 
L 109.400184 60.200727 
L 109.562592 189.090752 
L 109.643796 128.858418 
L 109.806205 177.378909 
L 109.887409 188.362135 
L 109.968613 154.164364 
L 110.049818 169.640727 
L 110.131022 144.640448 
L 110.212226 163.837091 
L 110.374635 90.711273 
L 110.455839 196.619794 
L 110.537043 168.840226 
L 110.618247 72.561719 
L 110.699452 184.661904 
L 110.780656 53.568 
L 110.86186 91.213209 
L 110.943064 83.684167 
L 111.024268 205.517752 
L 111.105473 96.425622 
L 111.186677 219.527304 
L 111.43029 66.230479 
L 111.511494 178.926545 
L 111.592698 158.033455 
L 111.673902 76.155125 
L 111.755107 168.275166 
L 111.998719 60.710937 
L 112.079924 164.997818 
L 112.161128 94.335007 
L 112.242332 98.499378 
L 112.485945 192.855273 
L 112.567149 172.957091 
L 112.648353 188.634446 
L 112.729558 182.663521 
L 112.810762 71.735905 
L 112.891966 94.335007 
L 112.97317 167.854993 
L 113.054374 64.080247 
L 113.135579 213.748364 
L 113.297987 74.461091 
L 113.379191 74.461091 
L 113.460396 160.081797 
L 113.5416 117.408 
L 113.704008 185.524364 
L 113.785213 125.458205 
L 113.947621 158.033455 
L 114.028825 148.691016 
L 114.11003 161.902545 
L 114.191234 200.593455 
L 114.353642 151.069091 
L 114.516051 175.86902 
L 114.759663 83.684167 
L 114.840868 85.405091 
L 115.08448 151.445543 
L 115.165685 104.884364 
L 115.409297 185.117091 
L 115.490502 104.217917 
L 115.571706 158.033455 
L 115.65291 149.079273 
L 115.734114 107.924009 
L 115.815319 189.616034 
L 115.977727 123.211636 
L 116.058931 167.530314 
L 116.22134 70.451306 
L 116.383748 101.598094 
L 116.546157 210.712615 
L 116.627361 90.222545 
L 116.708565 179.589818 
L 116.789769 92.438867 
L 116.870974 143.695059 
L 117.114586 97.095273 
L 117.195791 186.799304 
L 117.276995 137.140364 
L 117.358199 195.69787 
L 117.439403 82.891636 
L 117.601812 185.524364 
L 117.683016 59.89924 
L 117.76422 61.306182 
L 117.926629 169.074519 
L 118.007833 95.776264 
L 118.089037 169.640727 
L 118.170241 62.009653 
L 118.251446 106.629818 
L 118.33265 61.761369 
L 118.413854 189.283804 
L 118.495058 148.691016 
L 118.576263 124.831256 
L 118.657467 66.833455 
L 118.738671 192.855273 
L 118.819875 164.997818 
L 119.063488 53.568 
L 119.144692 189.458022 
L 119.225897 82.891636 
L 119.307101 98.742251 
L 119.388305 126.239621 
L 119.469509 110.419948 
L 119.631918 53.568 
L 119.713122 119.895273 
L 119.794326 72.780038 
L 119.87553 172.957091 
L 119.956735 170.862545 
L 120.037939 114.71851 
L 120.119143 123.211636 
L 120.281552 62.273455 
L 120.362756 146.426182 
L 120.44396 60.362501 
L 120.525164 139.283245 
L 120.687573 95.776264 
L 120.768777 163.531636 
L 120.849981 80.746004 
L 120.931186 104.884364 
L 121.01239 102.728214 
L 121.093594 187.696485 
L 121.174798 182.140867 
L 121.256003 172.957091 
L 121.337207 111.8743 
L 121.418411 185.890909 
L 121.58082 53.568 
L 121.743228 108.19046 
L 121.824432 62.009653 
L 121.905636 136.387459 
L 121.986841 76.782545 
L 122.068045 77.445818 
L 122.149249 185.524364 
L 122.311658 53.568 
L 122.392862 77.445818 
L 122.474066 53.568 
L 122.55527 60.898909 
L 122.636475 185.117091 
L 122.717679 53.568 
L 122.798883 142.205355 
L 122.880087 76.782545 
L 122.961292 110.711497 
L 123.042496 68.626084 
L 123.204904 149.079273 
L 123.286109 53.568 
L 123.367313 146.426182 
L 123.529721 60.362501 
L 123.610925 73.466182 
L 123.69213 65.679937 
L 123.773334 110.921583 
L 123.935742 64.492492 
L 124.016947 87.334612 
L 124.098151 179.375859 
L 124.260559 53.568 
L 124.341764 77.791874 
L 124.422968 170.1806 
L 124.585376 65.949091 
L 124.666581 192.855273 
L 124.747785 65.679937 
L 124.828989 71.349354 
L 124.910193 166.738909 
L 124.991398 53.568 
L 125.072602 115.473455 
L 125.153806 97.886678 
L 125.23501 53.568 
L 125.478623 94.335007 
L 125.559827 59.030246 
L 125.641031 89.282685 
L 125.722236 61.306182 
L 125.884644 114.127684 
L 125.965848 53.568 
L 126.047053 68.626084 
L 126.128257 67.496727 
L 126.209461 74.461091 
L 126.290665 62.273455 
L 126.37187 69.044364 
L 126.453074 139.283245 
L 126.534278 80.098909 
L 126.615482 83.684167 
L 126.696687 102.318545 
L 126.777891 164.997818 
L 126.940299 53.568 
L 127.021503 69.954738 
L 127.102708 91.555438 
L 127.183912 53.568 
L 127.265116 61.527273 
L 127.34632 66.524956 
L 127.427525 53.568 
L 127.508729 61.306182 
L 127.671137 187.051636 
L 127.752342 60.710937 
L 127.833546 75.560727 
L 127.91475 155.712 
L 127.995954 53.568 
L 128.077159 68.626084 
L 128.158363 74.461091 
L 128.239567 89.513103 
L 128.320771 131.309734 
L 128.401976 106.629818 
L 128.48318 137.140364 
L 128.645588 61.097042 
L 128.726792 71.349354 
L 128.807997 182.663521 
L 128.889201 53.568 
L 128.970405 60.898909 
L 129.051609 61.097042 
L 129.132814 188.634446 
L 129.295222 59.139491 
L 129.376426 119.114952 
L 129.457631 106.629818 
L 129.538835 67.496727 
L 129.620039 189.283804 
L 129.701243 60.898909 
L 129.782448 86.731636 
L 129.944856 60.200727 
L 130.107265 136.547652 
L 130.269673 53.568 
L 130.350877 53.568 
L 130.432081 67.496727 
L 130.513286 53.568 
L 130.59449 85.960389 
L 130.756898 53.568 
L 130.838103 60.362501 
L 131.000511 130.949818 
L 131.081715 59.253195 
L 131.16292 60.362501 
L 131.244124 61.097042 
L 131.325328 135.50169 
L 131.406532 61.761369 
L 131.487737 80.098909 
L 131.568941 53.568 
L 131.650145 87.540506 
L 131.731349 74.461091 
L 131.812554 131.309734 
L 131.893758 60.710937 
L 131.974962 121.513011 
L 132.056166 59.758545 
L 132.218575 183.569455 
L 132.299779 75.560727 
L 132.380983 89.513103 
L 132.462187 133.160727 
L 132.543392 53.568 
L 132.7058 109.282909 
L 132.787004 60.710937 
L 132.868209 109.282909 
L 132.949413 71.540551 
L 133.030617 121.329376 
L 133.27423 53.568 
L 133.436638 161.403308 
L 133.599047 83.684167 
L 133.680251 184.149818 
L 133.84266 53.568 
L 133.923864 70.978909 
L 134.086272 53.568 
L 134.167476 67.157002 
L 134.248681 150.745167 
L 134.329885 59.89924 
L 134.411089 86.731636 
L 134.573498 53.568 
L 134.735906 149.079273 
L 134.898315 53.568 
L 135.060723 67.157002 
L 135.141927 148.536595 
L 135.304336 60.898909 
L 135.38554 76.782545 
L 135.547949 166.324364 
L 135.629153 53.568 
L 135.710357 60.710937 
L 135.791561 66.524956 
L 135.872765 60.532364 
L 136.035174 69.044364 
L 136.116378 96.425622 
L 136.197582 53.568 
L 136.278787 170.862545 
L 136.359991 60.532364 
L 136.441195 169.640727 
L 136.522399 60.200727 
L 136.603604 63.174019 
L 136.684808 70.978909 
L 136.847216 53.568 
L 137.009625 66.524956 
L 137.090829 124.997371 
L 137.172033 61.097042 
L 137.253238 62.554276 
L 137.334442 70.978909 
L 137.415646 69.954738 
L 137.49685 60.898909 
L 137.578054 154.164364 
L 137.740463 63.174019 
L 137.821667 82.139748 
L 137.902871 69.954738 
L 137.984076 84.520727 
L 138.146484 59.623968 
L 138.227688 68.626084 
L 138.308893 104.217917 
L 138.471301 61.761369 
L 138.552505 75.560727 
L 138.63371 68.229818 
L 138.714914 189.458022 
L 138.796118 60.898909 
L 138.877322 64.282406 
L 138.958527 77.791874 
L 139.039731 170.1806 
L 139.120935 59.89924 
L 139.202139 148.691016 
L 139.283343 60.898909 
L 139.364548 67.853874 
L 139.445752 60.046478 
L 139.689365 90.222545 
L 139.770569 61.761369 
L 139.851773 185.890909 
L 139.932977 59.758545 
L 140.014182 78.148107 
L 140.095386 123.211636 
L 140.257794 53.568 
L 140.338999 62.009653 
L 140.420203 53.568 
L 140.582611 99.997091 
L 140.663816 158.807273 
L 140.826224 59.371636 
L 140.907428 53.568 
L 140.988632 67.853874 
L 141.069837 180.192793 
L 141.151041 179.589818 
L 141.232245 53.568 
L 141.313449 59.371636 
L 141.475858 82.139748 
L 141.638266 53.568 
L 141.719471 65.679937 
L 141.800675 53.568 
L 141.881879 65.949091 
L 141.963083 53.568 
L 142.206696 68.229818 
L 142.2879 68.626084 
L 142.450309 53.568 
L 142.531513 197.658282 
L 142.612717 53.568 
L 142.693922 67.496727 
L 142.775126 59.030246 
L 142.85633 68.626084 
L 142.937534 61.761369 
L 143.018738 160.081797 
L 143.181147 53.568 
L 143.262351 149.079273 
L 143.343555 53.568 
L 143.42476 88.389818 
L 143.505964 99.997091 
L 143.587168 128.307512 
L 143.668372 80.098909 
L 143.749577 102.318545 
L 143.830781 60.046478 
L 143.911985 163.531636 
L 143.993189 126.877091 
L 144.074394 53.568 
L 144.155598 99.997091 
L 144.236802 53.568 
L 144.318006 153.058909 
L 144.480415 59.495118 
L 144.561619 62.009653 
L 144.642823 170.862545 
L 144.724027 76.782545 
L 144.805232 189.283804 
L 144.886436 62.554276 
L 144.96764 67.496727 
L 145.130049 53.568 
L 145.211253 69.486545 
L 145.292457 119.546182 
L 145.373661 53.568 
L 145.454866 67.853874 
L 145.53607 72.139636 
L 145.617274 60.362501 
L 145.779683 170.1806 
L 145.942091 53.568 
L 146.023295 68.626084 
L 146.1045 123.211636 
L 146.266908 53.568 
L 146.348112 85.224198 
L 146.429316 53.568 
L 146.510521 60.046478 
L 146.591725 53.568 
L 146.754133 80.526827 
L 146.835338 53.568 
L 146.916542 80.526827 
L 146.997746 53.568 
L 147.07895 96.901818 
L 147.160155 53.568 
L 147.241359 78.892959 
L 147.322563 70.451306 
L 147.484972 53.568 
L 147.728584 86.731636 
L 147.809789 170.1806 
L 147.972197 60.898909 
L 148.053401 60.532364 
L 148.134605 70.623584 
L 148.21581 178.446245 
L 148.297014 61.527273 
L 148.378218 97.553455 
L 148.459422 119.895273 
L 148.621831 53.568 
L 148.703035 114.71851 
L 148.784239 110.711497 
L 148.946648 53.568 
L 149.109056 99.997091 
L 149.190261 60.532364 
L 149.271465 62.554276 
L 149.352669 67.496727 
L 149.433873 59.371636 
L 149.515078 105.395822 
L 149.596282 53.568 
L 149.677486 67.496727 
L 149.75869 70.623584 
L 149.921099 53.568 
L 150.083507 53.568 
L 150.164711 76.782545 
L 150.245916 53.568 
L 150.32712 68.626084 
L 150.408324 53.568 
L 150.489528 66.524956 
L 150.570733 60.200727 
L 150.651937 188.634446 
L 150.814345 59.495118 
L 150.89555 105.155879 
L 150.976754 53.568 
L 151.057958 90.711273 
L 151.139162 60.710937 
L 151.220367 67.496727 
L 151.382775 53.568 
L 151.463979 148.869818 
L 151.545184 53.568 
L 151.626388 102.015747 
L 151.788796 53.568 
L 151.951205 60.898909 
L 152.032409 142.47477 
L 152.113613 87.540506 
L 152.194817 99.997091 
L 152.276022 151.069091 
L 152.357226 62.009653 
L 152.43843 67.496727 
L 152.600839 66.230479 
L 152.682043 66.524956 
L 152.844451 53.568 
L 153.00686 73.951503 
L 153.088064 60.362501 
L 153.169268 159.691636 
L 153.331677 53.568 
L 153.494085 68.626084 
L 153.575289 166.324364 
L 153.737698 86.341476 
L 153.818902 192.855273 
L 153.900106 65.949091 
L 153.981311 66.833455 
L 154.062515 53.568 
L 154.306128 69.954738 
L 154.387332 60.710937 
L 154.468536 66.833455 
L 154.54974 95.354182 
L 154.630945 61.527273 
L 154.712149 133.160727 
L 154.874557 60.362501 
L 154.955762 78.330182 
L 155.036966 53.568 
L 155.11817 178.193455 
L 155.280578 53.568 
L 155.442987 94.335007 
L 155.605395 60.200727 
L 155.6866 67.496727 
L 155.767804 53.568 
L 155.849008 180.916364 
L 156.011417 61.097042 
L 156.092621 66.833455 
L 156.173825 88.389818 
L 156.255029 53.568 
L 156.336234 66.524956 
L 156.417438 64.710982 
L 156.498642 65.175273 
L 156.579846 69.044364 
L 156.661051 60.046478 
L 156.742255 61.306182 
L 156.823459 114.506182 
L 156.985867 53.568 
L 157.067072 60.898909 
L 157.148276 59.89924 
L 157.22948 88.389818 
L 157.310684 59.253195 
L 157.391889 73.951503 
L 157.473093 68.229818 
L 157.554297 170.862545 
L 157.716706 61.306182 
L 157.79791 61.761369 
L 157.960318 82.139748 
L 158.041523 83.684167 
L 158.122727 53.568 
L 158.285135 171.962182 
L 158.36634 106.629818 
L 158.447544 119.546182 
L 158.528748 119.114952 
L 158.691156 53.568 
L 158.772361 53.568 
L 159.015973 83.684167 
L 159.097178 60.362501 
L 159.178382 62.554276 
L 159.34079 53.568 
L 159.503199 65.679937 
L 159.584403 53.568 
L 159.665607 60.200727 
L 159.828016 53.568 
L 159.90922 53.568 
L 160.071629 59.623968 
L 160.234037 53.568 
L 160.315241 60.898909 
L 160.396445 60.046478 
L 160.558854 53.568 
L 160.640058 114.506182 
L 160.802467 53.568 
L 160.964875 84.520727 
L 161.127284 53.568 
L 161.208488 53.568 
L 161.289692 74.461091 
L 161.370896 72.139636 
L 161.452101 77.445818 
L 161.533305 61.527273 
L 161.695713 78.892959 
L 161.776918 53.568 
L 161.858122 60.362501 
L 162.02053 53.568 
L 162.101735 72.780038 
L 162.182939 60.532364 
L 162.264143 70.451306 
L 162.426551 53.568 
L 162.58896 60.362501 
L 162.751368 53.568 
L 162.832573 97.886678 
L 162.994981 53.568 
L 163.15739 174.032668 
L 163.319798 53.568 
L 163.401002 69.486545 
L 163.563411 172.957091 
L 163.725819 60.898909 
L 163.807024 66.230479 
L 163.888228 82.139748 
L 164.050636 53.568 
L 164.13184 86.731636 
L 164.375453 53.568 
L 164.456657 118.568727 
L 164.619066 61.306182 
L 164.70027 77.445818 
L 164.943883 53.568 
L 165.106291 66.833455 
L 165.187496 133.160727 
L 165.2687 53.568 
L 165.349904 99.997091 
L 165.431108 60.046478 
L 165.512313 70.451306 
L 165.593517 106.912062 
L 165.674721 64.282406 
L 165.755925 89.90381 
L 165.837129 153.434346 
L 165.999538 59.758545 
L 166.080742 67.157002 
L 166.161946 53.568 
L 166.405559 135.102013 
L 166.567968 53.568 
L 166.730376 74.461091 
L 166.81158 71.540551 
L 166.973989 53.568 
L 167.055193 67.853874 
L 167.136397 53.568 
L 167.217602 69.486545 
L 167.298806 59.371636 
L 167.38001 137.140364 
L 167.542418 61.097042 
L 167.623623 68.229818 
L 167.704827 141.538909 
L 167.786031 59.139491 
L 167.867235 62.853818 
L 167.94844 53.568 
L 168.029644 123.211636 
L 168.110848 53.568 
L 168.192052 62.273455 
L 168.273257 68.229818 
L 168.354461 66.524956 
L 168.435665 66.524956 
L 168.598074 53.568 
L 168.679278 76.782545 
L 168.760482 176.468535 
L 168.841686 53.568 
L 168.922891 66.524956 
L 169.085299 60.898909 
L 169.247707 113.262545 
L 169.328912 67.853874 
L 169.410116 70.451306 
L 169.49132 107.924009 
L 169.653729 53.568 
L 169.734933 74.996811 
L 169.816137 59.371636 
L 169.897341 78.892959 
L 170.05975 53.568 
L 170.140954 60.046478 
L 170.222158 95.057826 
L 170.303363 65.422236 
L 170.384567 183.964596 
L 170.465771 53.568 
L 170.546975 83.415273 
L 170.62818 53.568 
L 170.709384 69.954738 
L 170.790588 65.949091 
L 170.952996 59.371636 
L 171.034201 98.742251 
L 171.115405 53.568 
L 171.196609 73.951503 
L 171.277813 53.568 
L 171.359018 59.030246 
L 171.521426 93.364364 
L 171.683835 53.568 
L 171.765039 66.230479 
L 171.846243 71.349354 
L 172.008652 65.422236 
L 172.089856 136.547652 
L 172.17106 53.568 
L 172.252264 76.155125 
L 172.495877 53.568 
L 172.577081 53.568 
L 172.73949 80.526827 
L 172.901898 60.710937 
L 172.983102 59.89924 
L 173.064307 189.616034 
L 173.145511 60.532364 
L 173.226715 61.306182 
L 173.307919 93.364364 
L 173.389124 59.139491 
L 173.470328 62.273455 
L 173.551532 58.824123 
L 173.632736 80.098909 
L 173.713941 192.855273 
L 173.795145 60.200727 
L 173.876349 173.861554 
L 173.957553 65.422236 
L 174.038758 65.679937 
L 174.119962 53.568 
L 174.28237 69.486545 
L 174.444779 60.710937 
L 174.525983 77.445818 
L 174.607187 53.568 
L 174.688391 74.461091 
L 174.769596 60.200727 
L 174.8508 69.044364 
L 175.013208 53.568 
L 175.094413 67.853874 
L 175.175617 59.371636 
L 175.256821 189.283804 
L 175.338025 65.679937 
L 175.41923 114.71851 
L 175.500434 62.009653 
L 175.581638 123.211636 
L 175.744047 53.568 
L 175.825251 71.349354 
L 175.906455 53.568 
L 175.987659 61.097042 
L 176.068864 150.745167 
L 176.150068 53.568 
L 176.231272 60.898909 
L 176.312476 60.710937 
L 176.39368 60.200727 
L 176.474885 60.532364 
L 176.556089 67.157002 
L 176.637293 61.761369 
L 176.718497 170.389584 
L 176.880906 53.568 
L 176.96211 77.791874 
L 177.043314 60.898909 
L 177.124519 74.461091 
L 177.286927 53.568 
L 177.368131 53.568 
L 177.692948 78.892959 
L 177.774153 166.503627 
L 177.855357 72.139636 
L 177.936561 137.788211 
L 178.098969 53.568 
L 178.180174 109.282909 
L 178.342582 53.568 
L 178.423786 53.568 
L 178.504991 66.833455 
L 178.586195 196.252523 
L 178.748603 53.568 
L 178.829808 138.688 
L 178.992216 53.568 
L 179.07342 53.568 
L 179.154625 60.710937 
L 179.235829 189.891714 
L 179.317033 60.710937 
L 179.398237 85.960389 
L 179.479442 59.495118 
L 179.64185 197.348411 
L 179.804258 53.568 
L 179.885463 60.710937 
L 179.966667 60.532364 
L 180.047871 61.527273 
L 180.21028 85.960389 
L 180.372688 53.568 
L 180.453892 53.568 
L 180.535097 124.831256 
L 180.616301 62.853818 
L 180.697505 65.949091 
L 180.778709 62.273455 
L 180.859914 75.560727 
L 181.022322 61.306182 
L 181.103526 61.761369 
L 181.265935 73.951503 
L 181.347139 59.758545 
L 181.428343 67.496727 
L 181.509548 53.568 
L 181.590752 60.532364 
L 181.671956 144.104727 
L 181.75316 65.175273 
L 181.834364 85.405091 
L 181.915569 127.854545 
L 181.996773 60.710937 
L 182.077977 73.951503 
L 182.240386 91.803722 
L 182.32159 104.884364 
L 182.402794 60.362501 
L 182.483998 121.101223 
L 182.565203 53.568 
L 182.646407 75.560727 
L 182.727611 53.568 
L 182.808815 73.466182 
L 182.971224 53.568 
L 183.052428 136.387459 
L 183.214837 53.568 
L 183.296041 60.532364 
L 183.377245 96.901818 
L 183.458449 60.200727 
L 183.539653 148.869818 
L 183.702062 60.046478 
L 183.783266 60.532364 
L 183.86447 63.174019 
L 183.945675 140.622545 
L 184.026879 53.568 
L 184.108083 61.306182 
L 184.189287 61.761369 
L 184.270492 167.854993 
L 184.4329 61.761369 
L 184.514104 60.898909 
L 184.595309 70.623584 
L 184.676513 53.568 
L 184.757717 62.009653 
L 184.838921 60.710937 
L 184.920126 60.898909 
L 185.00133 53.568 
L 185.163738 61.527273 
L 185.244942 60.898909 
L 185.326147 80.098909 
L 185.407351 53.568 
L 185.488555 110.711497 
L 185.650964 53.568 
L 185.732168 79.481911 
L 185.813372 53.568 
L 185.894576 109.282909 
L 186.056985 53.568 
L 186.219393 180.192793 
L 186.381802 53.568 
L 186.625415 77.276472 
L 186.706619 177.378909 
L 186.787823 61.306182 
L 186.869027 119.895273 
L 186.950231 60.532364 
L 187.031436 60.898909 
L 187.11264 59.89924 
L 187.193844 62.273455 
L 187.275048 68.626084 
L 187.437457 53.568 
L 187.599865 69.044364 
L 187.762274 53.568 
L 187.843478 65.422236 
L 188.005887 188.052263 
L 188.087091 61.097042 
L 188.168295 164.997818 
L 188.330704 66.230479 
L 188.411908 70.978909 
L 188.493112 53.568 
L 188.574316 59.623968 
L 188.65552 59.623968 
L 188.736725 65.175273 
L 188.817929 53.568 
L 188.980337 60.362501 
L 189.061542 61.306182 
L 189.22395 53.568 
L 189.305154 67.853874 
L 189.386359 134.444481 
L 189.467563 59.89924 
L 189.548767 150.745167 
L 189.629971 53.568 
L 189.711176 61.306182 
L 189.873584 67.853874 
L 189.954788 65.949091 
L 190.035993 53.568 
L 190.117197 61.527273 
L 190.198401 53.568 
L 190.279605 80.098909 
L 190.360809 75.560727 
L 190.442014 66.524956 
L 190.523218 66.833455 
L 190.604422 79.684364 
L 190.685626 161.586701 
L 190.848035 53.568 
L 190.929239 186.222545 
L 191.010443 53.568 
L 191.091648 67.853874 
L 191.172852 61.527273 
L 191.254056 78.892959 
L 191.33526 53.568 
L 191.416465 59.623968 
L 191.497669 74.461091 
L 191.660077 53.568 
L 191.741282 180.192793 
L 191.90369 53.568 
L 191.984894 60.362501 
L 192.066099 53.568 
L 192.147303 62.853818 
L 192.228507 60.200727 
L 192.309711 53.568 
L 192.390915 67.157002 
L 192.47212 177.378909 
L 192.553324 89.282685 
L 192.634528 97.553455 
L 192.715732 53.568 
L 192.796937 68.229818 
L 192.878141 60.362501 
L 192.959345 68.626084 
L 193.040549 125.997382 
L 193.121754 60.362501 
L 193.202958 62.009653 
L 193.284162 59.139491 
L 193.365366 62.009653 
L 193.527775 98.742251 
L 193.608979 53.568 
L 193.690183 95.959779 
L 193.771388 59.371636 
L 193.852592 60.532364 
L 194.015 53.568 
L 194.177409 53.568 
L 194.258613 69.044364 
L 194.339817 53.568 
L 194.58343 121.329376 
L 194.745838 60.710937 
L 194.827043 76.782545 
L 194.989451 53.568 
L 195.070655 60.532364 
L 195.15186 83.684167 
L 195.233064 53.568 
L 195.314268 146.426182 
L 195.395472 53.568 
L 195.476677 61.761369 
L 195.557881 60.532364 
L 195.639085 102.318545 
L 195.801493 53.568 
L 195.882698 177.378909 
L 195.963902 69.044364 
L 196.045106 183.137556 
L 196.12631 66.833455 
L 196.207515 71.349354 
L 196.288719 75.853964 
L 196.369923 59.758545 
L 196.451127 66.230479 
L 196.532332 178.193455 
L 196.69474 59.030246 
L 196.775944 53.568 
L 196.857149 66.524956 
L 196.938353 155.485517 
L 197.019557 53.568 
L 197.100761 166.503627 
L 197.26317 53.568 
L 197.344374 73.951503 
L 197.425578 53.568 
L 197.587987 91.213209 
L 197.669191 76.155125 
L 197.750395 53.568 
L 197.831599 86.341476 
L 197.912804 53.568 
L 197.994008 169.074519 
L 198.075212 53.568 
L 198.156416 61.097042 
L 198.237621 107.735273 
L 198.318825 66.833455 
L 198.400029 95.354182 
L 198.562438 53.568 
L 198.643642 53.568 
L 198.724846 199.186512 
L 198.80605 60.200727 
L 198.887255 67.496727 
L 198.968459 86.341476 
L 199.049663 188.634446 
L 199.130867 53.568 
L 199.212071 98.499378 
L 199.293276 65.422236 
L 199.37448 70.623584 
L 199.455684 72.139636 
L 199.536888 176.659078 
L 199.699297 53.568 
L 199.780501 67.853874 
L 199.861705 65.949091 
L 199.94291 192.855273 
L 200.186522 53.568 
L 200.267727 60.200727 
L 200.348931 135.102013 
L 200.511339 53.568 
L 200.592544 53.568 
L 200.673748 60.200727 
L 200.754952 53.568 
L 200.91736 61.761369 
L 200.998565 61.761369 
L 201.079769 53.568 
L 201.160973 61.527273 
L 201.242177 53.568 
L 201.323382 73.466182 
L 201.404586 66.833455 
L 201.48579 59.89924 
L 201.566994 67.496727 
L 201.648199 53.568 
L 201.729403 68.626084 
L 201.810607 53.568 
L 201.973016 67.496727 
L 202.05422 61.761369 
L 202.135424 114.71851 
L 202.297833 53.568 
L 202.379037 53.568 
L 202.460241 60.710937 
L 202.541445 60.046478 
L 202.703854 53.568 
L 202.785058 133.160727 
L 202.947466 53.568 
L 203.109875 78.892959 
L 203.191079 58.925203 
L 203.272283 59.623968 
L 203.353488 53.568 
L 203.434692 89.282685 
L 203.515896 60.710937 
L 203.5971 197.076099 
L 203.678305 64.710982 
L 203.759509 75.560727 
L 203.840713 58.632992 
L 203.921917 61.097042 
L 204.003122 61.761369 
L 204.084326 65.949091 
L 204.16553 64.93839 
L 204.246734 61.097042 
L 204.327939 71.540551 
L 204.409143 53.568 
L 204.490347 65.679937 
L 204.652755 161.902545 
L 204.815164 53.568 
L 204.896368 59.495118 
L 204.977572 53.568 
L 205.058777 90.222545 
L 205.221185 66.833455 
L 205.302389 53.568 
L 205.383594 66.833455 
L 205.464798 120.183652 
L 205.546002 53.568 
L 205.627206 189.458022 
L 205.789615 53.568 
L 205.870819 64.492492 
L 205.952023 53.568 
L 206.033228 131.309734 
L 206.114432 53.568 
L 206.195636 69.044364 
L 206.358044 59.89924 
L 206.439249 53.568 
L 206.520453 60.046478 
L 206.601657 126.239621 
L 206.682861 65.175273 
L 206.84527 170.862545 
L 206.926474 109.282909 
L 207.007678 144.104727 
L 207.170087 79.684364 
L 207.332495 53.568 
L 207.4137 93.364364 
L 207.494904 69.954738 
L 207.576108 111.604364 
L 207.657312 65.422236 
L 207.738517 66.524956 
L 207.900925 53.568 
L 207.982129 146.426182 
L 208.063333 53.568 
L 208.144538 119.114952 
L 208.306946 60.532364 
L 208.38815 53.568 
L 208.469355 95.057826 
L 208.550559 53.568 
L 208.631763 62.554276 
L 208.712967 59.89924 
L 208.875376 53.568 
L 208.95658 126.877091 
L 209.118989 53.568 
L 209.362601 103.092364 
L 209.443806 69.486545 
L 209.606214 178.642286 
L 209.768622 60.532364 
L 209.849827 62.273455 
L 210.012235 166.183242 
L 210.093439 65.949091 
L 210.174644 161.902545 
L 210.255848 53.568 
L 210.337052 59.758545 
L 210.418256 76.782545 
L 210.499461 73.951503 
L 210.580665 68.626084 
L 210.743073 166.069259 
L 210.824278 53.568 
L 210.905482 59.89924 
L 210.986686 77.445818 
L 211.06789 53.568 
L 211.149095 60.200727 
L 211.230299 68.229818 
L 211.311503 98.742251 
L 211.473912 53.568 
L 211.555116 53.568 
L 211.63632 151.888428 
L 211.798728 53.568 
L 211.879933 53.568 
L 211.961137 105.800727 
L 212.042341 53.568 
L 212.123545 112.65957 
L 212.20475 91.555438 
L 212.285954 53.568 
L 212.367158 62.009653 
L 212.529567 53.568 
L 212.610771 53.568 
L 212.691975 149.628188 
L 212.854384 59.89924 
L 212.935588 62.554276 
L 213.016792 74.996811 
L 213.097996 65.679937 
L 213.179201 189.090752 
L 213.260405 59.253195 
L 213.341609 65.175273 
L 213.422813 53.568 
L 213.585222 120.425891 
L 213.666426 67.853874 
L 213.74763 97.886678 
L 213.910039 61.761369 
L 213.991243 132.295589 
L 214.153651 59.623968 
L 214.31606 53.568 
L 214.478468 67.157002 
L 214.559673 65.679937 
L 214.640877 53.568 
L 214.722081 98.917345 
L 214.803285 53.568 
L 214.88449 132.140308 
L 215.046898 60.362501 
L 215.128102 61.527273 
L 215.209306 65.175273 
L 215.371715 53.568 
L 215.452919 73.466182 
L 215.534123 61.306182 
L 215.615328 67.157002 
L 215.696532 53.568 
L 215.777736 69.954738 
L 215.85894 59.495118 
L 215.940145 69.486545 
L 216.021349 151.445543 
L 216.102553 72.561719 
L 216.264962 142.47477 
L 216.346166 61.097042 
L 216.42737 105.395822 
L 216.508574 53.568 
L 216.589779 73.466182 
L 216.670983 67.853874 
L 216.833391 59.623968 
L 216.914595 69.486545 
L 216.9958 66.230479 
L 217.077004 67.496727 
L 217.158208 66.833455 
L 217.239412 161.902545 
L 217.401821 53.568 
L 217.564229 109.282909 
L 217.645434 53.568 
L 217.726638 67.496727 
L 217.889046 53.568 
L 217.970251 85.224198 
L 218.051455 60.362501 
L 218.132659 151.069091 
L 218.295068 53.568 
L 218.376272 152.616727 
L 218.457476 59.623968 
L 218.53868 79.684364 
L 218.619884 59.495118 
L 218.701089 60.200727 
L 218.782293 64.282406 
L 218.863497 148.536595 
L 219.025906 53.568 
L 219.10711 53.568 
L 219.188314 65.949091 
L 219.269518 53.568 
L 219.350723 62.554276 
L 219.431927 113.262545 
L 219.513131 53.568 
L 219.594335 63.174019 
L 219.67554 53.568 
L 219.837948 90.711273 
L 220.000357 53.568 
L 220.243969 73.466182 
L 220.325173 53.568 
L 220.406378 62.273455 
L 220.487582 150.463494 
L 220.568786 67.853874 
L 220.64999 99.997091 
L 220.812399 53.568 
L 220.893603 67.157002 
L 220.974807 53.568 
L 221.056012 83.415273 
L 221.137216 53.568 
L 221.21842 82.139748 
L 221.299624 59.623968 
L 221.380829 61.306182 
L 221.462033 83.415273 
L 221.543237 61.761369 
L 221.624441 66.524956 
L 221.705646 53.568 
L 221.78685 59.371636 
L 221.868054 53.568 
L 221.949258 76.155125 
L 222.111667 53.568 
L 222.192871 60.362501 
L 222.355279 53.568 
L 222.436484 53.568 
L 222.598892 67.157002 
L 222.680096 53.568 
L 222.842505 94.335007 
L 222.923709 117.854434 
L 223.086118 53.568 
L 223.167322 53.568 
L 223.248526 93.364364 
L 223.410935 61.527273 
L 223.492139 60.710937 
L 223.573343 53.568 
L 223.654547 60.898909 
L 223.735752 84.520727 
L 223.816956 79.481911 
L 223.89816 68.626084 
L 223.979364 101.323636 
L 224.141773 59.495118 
L 224.222977 53.568 
L 224.304181 59.758545 
L 224.385385 53.568 
L 224.46659 65.949091 
L 224.547794 108.071715 
L 224.628998 53.568 
L 224.710202 78.330182 
L 224.791407 77.791874 
L 224.953815 53.568 
L 225.116224 73.003433 
L 225.197428 59.495118 
L 225.278632 60.898909 
L 225.441041 53.568 
L 225.603449 53.568 
L 225.684653 60.532364 
L 225.765857 82.891636 
L 225.847062 192.855273 
L 226.00947 59.623968 
L 226.171879 53.568 
L 226.253083 62.009653 
L 226.334287 53.568 
L 226.415491 66.833455 
L 226.496696 64.282406 
L 226.5779 130.949818 
L 226.659104 66.524956 
L 226.740308 166.183242 
L 226.902717 53.568 
L 226.983921 53.568 
L 227.065125 73.951503 
L 227.14633 53.568 
L 227.227534 60.362501 
L 227.308738 53.568 
L 227.389942 62.554276 
L 227.471146 53.568 
L 227.552351 67.496727 
L 227.714759 53.568 
L 227.795963 53.568 
L 227.877168 68.229818 
L 228.039576 53.568 
L 228.12078 89.90381 
L 228.283189 53.568 
L 228.364393 121.513011 
L 228.445597 53.568 
L 228.526802 80.746004 
L 228.608006 59.030246 
L 228.770414 160.712056 
L 228.851619 53.568 
L 228.932823 60.046478 
L 229.014027 71.735905 
L 229.095231 60.200727 
L 229.176435 98.742251 
L 229.338844 53.568 
L 229.420048 62.009653 
L 229.501252 87.540506 
L 229.663661 53.568 
L 229.744865 133.160727 
L 229.907274 53.568 
L 230.069682 53.568 
L 230.150886 58.925203 
L 230.232091 129.542876 
L 230.313295 53.568 
L 230.394499 59.371636 
L 230.475703 130.176 
L 230.638112 67.853874 
L 230.719316 109.282909 
L 230.881724 53.568 
L 230.962929 53.568 
L 231.044133 77.276472 
L 231.125337 62.554276 
L 231.206541 74.203152 
L 231.287746 60.046478 
L 231.36895 61.527273 
L 231.531358 71.735905 
L 231.693767 53.568 
L 231.774971 59.139491 
L 231.856175 53.568 
L 231.93738 136.387459 
L 232.099788 53.568 
L 232.262197 53.568 
L 232.424605 61.097042 
L 232.505809 53.568 
L 232.587014 80.746004 
L 232.668218 59.030246 
L 232.749422 72.561719 
L 232.91183 59.758545 
L 232.993035 73.951503 
L 233.074239 69.044364 
L 233.317852 53.568 
L 233.48026 73.466182 
L 233.642669 59.495118 
L 233.723873 77.791874 
L 233.805077 53.568 
L 233.886281 60.046478 
L 233.967486 53.568 
L 234.129894 144.407526 
L 234.292303 53.568 
L 234.373507 72.139636 
L 234.454711 62.009653 
L 234.535915 67.157002 
L 234.617119 116.47193 
L 234.779528 63.885576 
L 234.860732 69.044364 
L 235.023141 53.568 
L 235.104345 61.527273 
L 235.185549 114.506182 
L 235.347958 53.568 
L 235.429162 59.623968 
L 235.510366 53.568 
L 235.59157 65.422236 
L 235.672775 53.568 
L 235.916387 77.276472 
L 235.997592 53.568 
L 236.078796 68.229818 
L 236.241204 53.568 
L 236.322408 60.710937 
L 236.403613 53.568 
L 236.484817 102.728214 
L 236.647225 53.568 
L 236.809634 123.211636 
L 236.890838 109.282909 
L 237.053247 53.568 
L 237.134451 74.996811 
L 237.215655 53.568 
L 237.378064 78.148107 
L 237.459268 76.782545 
L 237.540472 66.524956 
L 237.621676 69.044364 
L 237.702881 60.200727 
L 237.784085 80.098909 
L 237.865289 61.761369 
L 237.946493 86.731636 
L 238.027697 53.568 
L 238.108902 74.996811 
L 238.190106 69.044364 
L 238.352514 53.568 
L 238.596127 53.568 
L 238.677331 177.378909 
L 238.758536 66.524956 
L 238.83974 121.329376 
L 238.920944 53.568 
L 239.002148 88.389818 
L 239.083353 53.568 
L 239.164557 163.309488 
L 239.326965 78.330182 
L 239.489374 58.925203 
L 239.570578 167.854993 
L 239.651782 53.568 
L 239.732986 174.032668 
L 239.895395 53.568 
L 239.976599 67.853874 
L 240.057803 59.89924 
L 240.139008 148.283345 
L 240.301416 53.568 
L 240.463825 168.631399 
L 240.545029 74.996811 
L 240.626233 110.549157 
L 240.788642 53.568 
L 240.869846 68.762975 
L 241.032254 53.568 
L 241.194663 67.157002 
L 241.438276 53.568 
L 241.51948 67.496727 
L 241.681888 53.568 
L 241.763092 95.354182 
L 241.925501 53.568 
L 242.006705 59.495118 
L 242.087909 53.568 
L 242.169114 71.735905 
L 242.250318 64.492492 
L 242.331522 90.222545 
L 242.412726 53.568 
L 242.575135 148.869818 
L 242.656339 53.568 
L 242.737543 59.030246 
L 242.818748 60.710937 
L 242.899952 65.949091 
L 242.981156 129.015273 
L 243.06236 53.568 
L 243.143565 77.276472 
L 243.224769 58.925203 
L 243.305973 59.758545 
L 243.387177 80.746004 
L 243.549586 53.568 
L 243.63079 72.561719 
L 243.711994 53.568 
L 243.874403 68.626084 
L 244.036811 53.568 
L 244.118015 109.282909 
L 244.280424 53.568 
L 244.361628 60.710937 
L 244.442832 60.046478 
L 244.524037 65.175273 
L 244.605241 53.568 
L 244.686445 60.532364 
L 244.767649 59.371636 
L 244.848854 181.712291 
L 245.011262 53.568 
L 245.17367 180.192793 
L 245.254875 97.553455 
L 245.336079 123.211636 
L 245.417283 60.200727 
L 245.498487 85.711217 
L 245.579692 53.568 
L 245.7421 164.997818 
L 245.823304 65.949091 
L 245.904509 116.247273 
L 246.066917 53.568 
L 246.31053 72.561719 
L 246.391734 69.954738 
L 246.472938 73.003433 
L 246.554143 60.532364 
L 246.635347 60.898909 
L 246.716551 184.661904 
L 246.797755 142.205355 
L 246.960164 53.568 
L 247.041368 60.362501 
L 247.122572 79.684364 
L 247.284981 53.568 
L 247.447389 53.568 
L 247.609798 61.761369 
L 247.691002 53.568 
L 247.772206 117.854434 
L 247.934615 59.758545 
L 248.015819 71.349354 
L 248.178227 121.513011 
L 248.259432 53.568 
L 248.340636 60.200727 
L 248.42184 177.378909 
L 248.584248 53.568 
L 248.827861 74.461091 
L 248.99027 53.568 
L 249.152678 61.097042 
L 249.233882 53.568 
L 249.396291 144.407526 
L 249.558699 60.532364 
L 249.639904 62.273455 
L 249.721108 61.306182 
L 249.802312 68.229818 
L 249.883516 101.323636 
L 249.964721 98.139927 
L 250.045925 112.215273 
L 250.127129 53.568 
L 250.208333 71.349354 
L 250.370742 53.568 
L 250.451946 172.11036 
L 250.53315 53.568 
L 250.614354 89.130708 
L 250.776763 62.853818 
L 250.857967 146.426182 
L 250.939171 53.568 
L 251.020376 67.496727 
L 251.10158 67.157002 
L 251.182784 65.679937 
L 251.263988 73.951503 
L 251.345193 60.200727 
L 251.426397 62.853818 
L 251.507601 66.230479 
L 251.588805 59.495118 
L 251.67001 181.56171 
L 251.751214 73.003433 
L 251.832418 192.855273 
L 251.994827 59.495118 
L 252.157235 53.568 
L 252.238439 53.568 
L 252.319643 82.139748 
L 252.482052 53.568 
L 252.563256 53.568 
L 252.725665 72.561719 
L 252.806869 59.89924 
L 252.888073 96.425622 
L 252.969277 53.568 
L 253.050482 60.898909 
L 253.131686 85.405091 
L 253.21289 53.568 
L 253.294094 82.891636 
L 253.537707 53.568 
L 253.618911 53.568 
L 253.700116 59.758545 
L 253.862524 53.568 
L 253.943728 53.568 
L 254.106137 73.466182 
L 254.268545 53.568 
L 254.349749 63.697983 
L 254.430954 91.213209 
L 254.512158 70.623584 
L 254.674566 170.1806 
L 254.755771 67.853874 
L 254.836975 139.283245 
L 254.918179 53.568 
L 254.999383 65.175273 
L 255.080588 65.422236 
L 255.161792 53.568 
L 255.242996 62.554276 
L 255.3242 53.568 
L 255.405405 130.949818 
L 255.567813 53.568 
L 255.730221 53.568 
L 255.811426 70.978909 
L 255.89263 59.623968 
L 255.973834 72.139636 
L 256.055038 53.568 
L 256.136243 66.833455 
L 256.217447 141.896514 
L 256.298651 58.925203 
L 256.379855 61.306182 
L 256.542264 69.044364 
L 256.704672 61.761369 
L 256.867081 85.224198 
L 257.029489 53.568 
L 257.110694 66.833455 
L 257.191898 60.046478 
L 257.273102 66.524956 
L 257.354306 59.495118 
L 257.43551 103.711418 
L 257.516715 59.495118 
L 257.597919 76.155125 
L 257.760327 53.568 
L 257.841532 110.921583 
L 258.00394 69.954738 
L 258.085144 166.324364 
L 258.166349 53.568 
L 258.247553 60.046478 
L 258.328757 53.568 
L 258.409961 127.308321 
L 258.491166 60.200727 
L 258.57237 69.044364 
L 258.653574 53.568 
L 258.734778 74.461091 
L 258.897187 53.568 
L 258.978391 70.451306 
L 259.059595 53.568 
L 259.140799 153.569119 
L 259.303208 53.568 
L 259.465616 81.993974 
L 259.546821 64.282406 
L 259.628025 109.282909 
L 259.709229 53.568 
L 259.790433 60.046478 
L 259.871638 53.568 
L 260.11525 68.229818 
L 260.196455 60.532364 
L 260.277659 64.492492 
L 260.440067 53.568 
L 260.521272 65.949091 
L 260.602476 53.568 
L 260.68368 79.684364 
L 260.764884 59.758545 
L 260.846088 65.422236 
L 260.927293 82.891636 
L 261.008497 53.568 
L 261.089701 116.880397 
L 261.333314 60.046478 
L 261.414518 69.954738 
L 261.495722 59.758545 
L 261.576927 86.731636 
L 261.739335 60.532364 
L 261.901744 71.735905 
L 261.982948 53.568 
L 262.064152 140.622545 
L 262.145356 59.623968 
L 262.226561 67.853874 
L 262.388969 60.898909 
L 262.470173 172.957091 
L 262.551378 53.568 
L 262.632582 96.901818 
L 262.713786 151.888428 
L 262.876194 64.710982 
L 262.957399 64.93839 
L 263.119807 53.568 
L 263.282216 82.891636 
L 263.36342 61.527273 
L 263.444624 192.855273 
L 263.525828 69.954738 
L 263.607033 75.560727 
L 263.769441 53.568 
L 263.850645 66.833455 
L 263.93185 53.568 
L 264.013054 68.626084 
L 264.094258 53.568 
L 264.337871 73.951503 
L 264.419075 53.568 
L 264.581483 82.139748 
L 264.662688 59.253195 
L 264.743892 124.831256 
L 264.9063 60.362501 
L 265.068709 68.626084 
L 265.149913 71.735905 
L 265.231117 119.546182 
L 265.312322 53.568 
L 265.393526 62.273455 
L 265.47473 53.568 
L 265.555934 60.898909 
L 265.637139 60.200727 
L 265.718343 60.710937 
L 265.799547 59.253195 
L 265.880751 61.527273 
L 265.961956 94.335007 
L 266.04316 88.389818 
L 266.124364 97.886678 
L 266.205568 181.56171 
L 266.367977 62.554276 
L 266.449181 60.710937 
L 266.530385 82.891636 
L 266.611589 59.139491 
L 266.692794 59.89924 
L 266.773998 53.568 
L 266.855202 61.306182 
L 266.936406 53.568 
L 267.017611 130.176 
L 267.180019 53.568 
L 267.342428 96.425622 
L 267.504836 58.726788 
L 267.58604 65.175273 
L 267.667245 98.917345 
L 267.748449 53.568 
L 267.829653 63.885576 
L 267.910857 69.954738 
L 268.073266 61.306182 
L 268.15447 60.362501 
L 268.235674 60.532364 
L 268.316878 53.568 
L 268.398083 68.229818 
L 268.479287 53.568 
L 268.7229 88.389818 
L 268.804104 184.661904 
L 268.966512 53.568 
L 269.047717 64.492492 
L 269.291329 53.568 
L 269.372534 53.568 
L 269.534942 68.229818 
L 269.616146 66.833455 
L 269.69735 53.568 
L 269.778555 78.330182 
L 269.940963 53.568 
L 270.022167 53.568 
L 270.184576 68.229818 
L 270.346984 59.253195 
L 270.428189 72.780038 
L 270.509393 65.949091 
L 270.590597 114.127684 
L 270.753006 53.568 
L 270.83421 62.853818 
L 270.915414 53.568 
L 270.996618 79.684364 
L 271.159027 53.568 
L 271.240231 70.282473 
L 271.321435 63.174019 
L 271.40264 96.901818 
L 271.565048 74.996811 
L 271.646252 95.776264 
L 271.808661 59.030246 
L 271.889865 66.833455 
L 271.971069 61.306182 
L 272.133478 68.229818 
L 272.295886 128.307512 
L 272.37709 60.710937 
L 272.458295 140.235636 
L 272.539499 61.097042 
L 272.620703 62.273455 
L 272.783112 53.568 
L 272.864316 53.568 
L 272.94552 65.949091 
L 273.026724 59.89924 
L 273.107929 144.104727 
L 273.270337 53.568 
L 273.351541 53.568 
L 273.432745 107.735273 
L 273.51395 53.568 
L 273.595154 187.283782 
L 273.676358 65.422236 
L 273.757562 77.445818 
L 273.838767 53.568 
L 273.919971 171.962182 
L 274.001175 53.568 
L 274.082379 66.524956 
L 274.244788 53.568 
L 274.407196 91.06842 
L 274.488401 73.003433 
L 274.569605 135.874116 
L 274.650809 53.568 
L 274.732013 109.282909 
L 274.813218 53.568 
L 274.894422 59.371636 
L 274.975626 60.362501 
L 275.05683 53.568 
L 275.138034 70.282473 
L 275.300443 53.568 
L 275.381647 67.496727 
L 275.544056 53.568 
L 275.62526 141.538909 
L 275.787668 53.568 
L 275.868873 61.527273 
L 275.950077 61.306182 
L 276.112485 53.568 
L 276.19369 146.426182 
L 276.274894 60.046478 
L 276.356098 68.229818 
L 276.437302 60.710937 
L 276.518507 61.097042 
L 276.599711 84.520727 
L 276.680915 83.684167 
L 276.843323 59.030246 
L 276.924528 60.710937 
L 277.005732 71.735905 
L 277.16814 53.568 
L 277.249345 53.568 
L 277.411753 181.56171 
L 277.574162 60.200727 
L 277.655366 110.419948 
L 277.73657 53.568 
L 277.817774 68.626084 
L 277.898979 73.951503 
L 278.142591 59.371636 
L 278.223796 116.247273 
L 278.305 60.898909 
L 278.386204 106.912062 
L 278.467408 69.044364 
L 278.548612 155.901506 
L 278.629817 53.568 
L 278.711021 60.898909 
L 278.792225 53.568 
L 278.954634 69.954738 
L 279.117042 61.097042 
L 279.198246 196.094512 
L 279.360655 53.568 
L 279.441859 76.782545 
L 279.604268 146.426182 
L 279.766676 67.496727 
L 279.84788 70.978909 
L 280.010289 132.140308 
L 280.172697 64.93839 
L 280.253901 119.895273 
L 280.335106 66.524956 
L 280.41631 70.282473 
L 280.497514 53.568 
L 280.578718 88.389818 
L 280.659923 53.568 
L 280.741127 69.954738 
L 280.822331 68.626084 
L 280.903535 137.140364 
L 280.98474 60.046478 
L 281.065944 86.731636 
L 281.147148 61.097042 
L 281.228352 65.175273 
L 281.309557 93.364364 
L 281.471965 53.568 
L 281.634374 74.996811 
L 281.715578 59.139491 
L 281.796782 76.782545 
L 281.959191 53.568 
L 282.040395 53.568 
L 282.121599 59.89924 
L 282.202803 53.568 
L 282.284007 90.222545 
L 282.446416 53.568 
L 282.608824 67.853874 
L 282.771233 53.568 
L 283.09605 53.568 
L 283.258458 93.364364 
L 283.339663 90.222545 
L 283.420867 59.89924 
L 283.502071 179.589818 
L 283.66448 53.568 
L 283.826888 93.364364 
L 283.908092 59.89924 
L 283.989296 117.854434 
L 284.070501 80.746004 
L 284.151705 189.283804 
L 284.314113 53.568 
L 284.476522 76.155125 
L 284.557726 53.568 
L 284.63893 163.309488 
L 284.720135 60.532364 
L 284.801339 61.097042 
L 284.963747 97.553455 
L 285.044952 53.568 
L 285.126156 66.833455 
L 285.20736 66.230479 
L 285.369769 53.568 
L 285.450973 61.761369 
L 285.532177 84.520727 
L 285.613381 59.495118 
L 285.694585 124.997371 
L 285.856994 53.568 
L 285.938198 62.853818 
L 286.019402 53.568 
L 286.100607 62.009653 
L 286.181811 53.568 
L 286.425424 70.451306 
L 286.587832 53.568 
L 286.831445 71.349354 
L 286.912649 68.626084 
L 286.993853 77.445818 
L 287.156262 53.568 
L 287.481079 119.895273 
L 287.643487 60.200727 
L 287.724691 71.735905 
L 287.805896 105.395822 
L 287.8871 63.885576 
L 287.968304 73.466182 
L 288.049508 120.425891 
L 288.130713 53.568 
L 288.211917 61.761369 
L 288.293121 78.148107 
L 288.536734 60.898909 
L 288.617938 158.807273 
L 288.699142 53.568 
L 288.780347 72.139636 
L 288.861551 91.213209 
L 288.942755 60.710937 
L 289.186368 141.538909 
L 289.348776 60.710937 
L 289.42998 60.710937 
L 289.592389 53.568 
L 289.673593 61.527273 
L 289.836002 53.568 
L 290.079614 53.568 
L 290.160819 78.892959 
L 290.242023 53.568 
L 290.323227 127.308321 
L 290.485636 53.568 
L 290.56684 53.568 
L 290.648044 72.561719 
L 290.729248 71.349354 
L 290.810452 78.892959 
L 290.891657 53.568 
L 290.972861 65.679937 
L 291.054065 53.568 
L 291.135269 60.046478 
L 291.216474 159.691636 
L 291.378882 53.568 
L 291.541291 53.568 
L 291.622495 161.403308 
L 291.784903 60.898909 
L 291.866108 115.473455 
L 291.947312 53.568 
L 292.028516 65.175273 
L 292.10972 67.496727 
L 292.272129 187.283782 
L 292.434537 64.93839 
L 292.515742 78.148107 
L 292.596946 176.659078 
L 292.840558 59.139491 
L 293.002967 53.568 
L 293.084171 158.69047 
L 293.165375 53.568 
L 293.24658 61.527273 
L 293.408988 77.445818 
L 293.571397 53.568 
L 293.652601 53.568 
L 293.733805 134.208 
L 293.896214 68.626084 
L 293.977418 60.200727 
L 294.058622 70.451306 
L 294.221031 53.568 
L 294.302235 59.89924 
L 294.383439 53.568 
L 294.464643 67.853874 
L 294.545847 53.568 
L 294.708256 181.56171 
L 294.78946 53.568 
L 294.870664 61.306182 
L 295.033073 53.568 
L 295.114277 53.568 
L 295.195481 134.045091 
L 295.276686 53.568 
L 295.35789 130.620534 
L 295.520298 53.568 
L 295.682707 66.833455 
L 295.845115 53.568 
L 296.088728 80.098909 
L 296.169932 67.496727 
L 296.251136 73.951503 
L 296.332341 53.568 
L 296.413545 119.114952 
L 296.494749 53.568 
L 296.575953 62.273455 
L 296.657158 65.949091 
L 296.738362 128.858418 
L 296.90077 61.306182 
L 297.063179 64.93839 
L 297.144383 72.561719 
L 297.225587 61.097042 
L 297.387996 74.461091 
L 297.631609 53.568 
L 297.712813 66.230479 
L 297.794017 62.009653 
L 297.875221 170.389584 
L 298.03763 59.623968 
L 298.118834 81.425455 
L 298.200038 53.568 
L 298.281242 60.362501 
L 298.362447 123.211636 
L 298.524855 53.568 
L 298.606059 68.229818 
L 298.687264 60.362501 
L 298.849672 100.984944 
L 299.012081 60.200727 
L 299.093285 81.993974 
L 299.174489 59.371636 
L 299.418102 80.098909 
L 299.661714 53.568 
L 299.742919 53.568 
L 299.986531 66.524956 
L 300.067736 68.626084 
L 300.14894 53.568 
L 300.311348 87.189066 
L 300.392553 80.526827 
L 300.473757 68.626084 
L 300.554961 70.282473 
L 300.636165 75.560727 
L 300.71737 66.833455 
L 300.798574 75.416984 
L 300.879778 59.495118 
L 301.042187 171.962182 
L 301.204595 53.568 
L 301.285799 94.335007 
L 301.448208 53.568 
L 301.529412 60.898909 
L 301.610616 196.834909 
L 301.69182 64.710982 
L 301.773025 67.157002 
L 301.854229 78.330182 
L 302.016637 53.568 
L 302.097842 61.097042 
L 302.179046 128.858418 
L 302.341454 69.954738 
L 302.422659 121.329376 
L 302.503863 59.758545 
L 302.585067 103.568559 
L 302.666271 53.568 
L 302.747476 65.422236 
L 302.82868 93.364364 
L 302.991088 59.253195 
L 303.072293 53.568 
L 303.234701 65.175273 
L 303.397109 53.568 
L 303.478314 151.888428 
L 303.559518 90.711273 
L 303.640722 186.524033 
L 303.721926 53.568 
L 303.803131 128.858418 
L 303.965539 53.568 
L 304.046743 68.626084 
L 304.127948 60.532364 
L 304.209152 80.526827 
L 304.37156 53.568 
L 304.452765 53.568 
L 304.533969 60.898909 
L 304.615173 95.057826 
L 304.777582 69.954738 
L 304.858786 65.422236 
L 304.93999 77.445818 
L 305.021194 65.422236 
L 305.102398 68.229818 
L 305.264807 104.884364 
L 305.346011 61.097042 
L 305.427215 166.324364 
L 305.589624 61.097042 
L 305.670828 53.568 
L 305.752032 68.229818 
L 305.833237 60.200727 
L 305.914441 80.746004 
L 305.995645 59.253195 
L 306.076849 73.003433 
L 306.239258 59.758545 
L 306.320462 73.003433 
L 306.482871 61.527273 
L 306.564075 67.496727 
L 306.645279 82.891636 
L 306.807687 53.568 
L 306.888892 60.362501 
L 306.970096 59.495118 
L 307.0513 53.568 
L 307.213709 84.520727 
L 307.294913 83.684167 
L 307.376117 66.833455 
L 307.457321 121.329376 
L 307.538526 60.710937 
L 307.61973 80.098909 
L 307.700934 106.271292 
L 307.863343 62.009653 
L 307.944547 62.009653 
L 308.025751 53.568 
L 308.106955 59.89924 
L 308.18816 53.568 
L 308.269364 59.623968 
L 308.350568 112.65957 
L 308.512976 61.097042 
L 308.594181 64.080247 
L 308.675385 60.046478 
L 308.756589 81.425455 
L 308.837793 72.139636 
L 308.918998 108.288 
L 309.081406 53.568 
L 309.16261 53.568 
L 309.243815 105.395822 
L 309.325019 61.097042 
L 309.406223 67.157002 
L 309.568632 53.568 
L 309.649836 61.527273 
L 309.73104 53.568 
L 309.812244 79.481911 
L 309.893449 53.568 
L 309.974653 152.229818 
L 310.137061 53.568 
L 310.29947 53.568 
L 310.461878 68.626084 
L 310.543082 60.362501 
L 310.624287 73.466182 
L 310.705491 60.046478 
L 310.867899 87.334612 
L 310.949104 61.761369 
L 311.030308 128.858418 
L 311.111512 61.306182 
L 311.192716 85.224198 
L 311.273921 98.742251 
L 311.355125 148.691016 
L 311.517533 53.568 
L 311.679942 53.568 
L 311.761146 82.139748 
L 311.84235 53.568 
L 311.923555 60.710937 
L 312.004759 67.496727 
L 312.085963 59.758545 
L 312.167167 156.200727 
L 312.248371 124.831256 
L 312.329576 62.009653 
L 312.41078 177.378909 
L 312.491984 53.568 
L 312.573188 156.519462 
L 312.654393 53.568 
L 312.735597 80.746004 
L 312.816801 82.139748 
L 312.898005 196.094512 
L 312.97921 189.76 
L 313.060414 60.532364 
L 313.141618 139.283245 
L 313.304027 69.486545 
L 313.466435 60.200727 
L 313.547639 159.691636 
L 313.710048 85.960389 
L 313.791252 128.307512 
L 313.872456 123.211636 
L 313.95366 77.445818 
L 314.034865 156.200727 
L 314.197273 53.568 
L 314.278477 65.949091 
L 314.359682 53.568 
L 314.52209 59.758545 
L 314.603294 53.568 
L 314.684499 60.200727 
L 314.765703 78.892959 
L 314.846907 195.950545 
L 314.928111 61.527273 
L 315.009316 67.496727 
L 315.09052 65.949091 
L 315.171724 72.139636 
L 315.252928 67.853874 
L 315.334133 89.282685 
L 315.415337 83.684167 
L 315.577745 53.568 
L 315.658949 178.926545 
L 315.740154 53.568 
L 315.821358 93.364364 
L 315.902562 53.568 
L 316.064971 89.513103 
L 316.227379 53.568 
L 316.308583 124.831256 
L 316.389788 61.306182 
L 316.470992 61.527273 
L 316.552196 53.568 
L 316.6334 60.532364 
L 316.795809 53.568 
L 316.877013 60.898909 
L 316.958217 185.117091 
L 317.039422 61.527273 
L 317.120626 135.874116 
L 317.20183 60.046478 
L 317.283034 62.273455 
L 317.364238 61.097042 
L 317.526647 53.568 
L 317.607851 60.710937 
L 317.689055 60.046478 
L 317.77026 61.527273 
L 317.851464 66.230479 
L 317.932668 53.568 
L 318.095077 76.155125 
L 318.176281 192.855273 
L 318.338689 53.568 
L 318.419894 76.782545 
L 318.582302 66.524956 
L 318.663506 85.960389 
L 318.744711 59.89924 
L 318.907119 199.186512 
L 318.988323 53.568 
L 319.069527 85.960389 
L 319.231936 60.898909 
L 319.31314 73.466182 
L 319.475549 53.568 
L 319.556753 166.503627 
L 319.719161 53.568 
L 319.800366 62.009653 
L 319.88157 53.568 
L 319.962774 62.273455 
L 320.043978 103.092364 
L 320.125183 98.499378 
L 320.287591 59.758545 
L 320.368795 104.217917 
L 320.612408 53.568 
L 320.693612 120.183652 
L 320.774816 109.282909 
L 320.856021 60.200727 
L 320.937225 61.097042 
L 321.018429 53.568 
L 321.099633 95.776264 
L 321.180838 53.568 
L 321.262042 59.495118 
L 321.343246 124.831256 
L 321.505655 53.568 
L 321.586859 60.200727 
L 321.668063 89.90381 
L 321.749267 58.726788 
L 321.830472 95.959779 
L 321.911676 60.532364 
L 321.99288 60.710937 
L 322.074084 164.997818 
L 322.155289 66.524956 
L 322.236493 67.853874 
L 322.317697 53.568 
L 322.56131 65.175273 
L 322.723718 53.568 
L 322.804922 109.282909 
L 322.967331 53.568 
L 323.048535 178.926545 
L 323.210944 53.568 
L 323.292148 113.800334 
L 323.373352 59.495118 
L 323.454556 69.954738 
L 323.535761 60.362501 
L 323.616965 88.389818 
L 323.779373 53.568 
L 323.860578 104.217917 
L 323.941782 53.568 
L 324.10419 139.793455 
L 324.185395 60.362501 
L 324.266599 61.306182 
L 324.347803 66.524956 
L 324.510211 53.568 
L 324.591416 60.200727 
L 324.67262 183.964596 
L 324.835028 53.568 
L 324.916233 60.710937 
L 324.997437 162.280018 
L 325.159845 67.157002 
L 325.24105 59.89924 
L 325.322254 76.155125 
L 325.403458 62.853818 
L 325.484662 66.524956 
L 325.565867 68.626084 
L 325.647071 53.568 
L 325.809479 65.949091 
L 325.890684 130.176 
L 325.971888 66.833455 
L 326.053092 71.540551 
L 326.134296 80.746004 
L 326.296705 53.568 
L 326.377909 93.364364 
L 326.459113 59.758545 
L 326.540317 160.712056 
L 326.621522 53.568 
L 326.702726 61.097042 
L 326.78393 53.568 
L 326.865134 59.495118 
L 326.946339 91.213209 
L 327.027543 61.527273 
L 327.108747 146.426182 
L 327.271156 53.568 
L 327.433564 76.155125 
L 327.514768 53.568 
L 327.595973 109.282909 
L 327.758381 53.568 
L 327.839585 65.175273 
L 327.920789 53.568 
L 328.001994 73.003433 
L 328.083198 151.888428 
L 328.245606 53.568 
L 328.326811 53.568 
L 328.408015 62.273455 
L 328.489219 181.712291 
L 328.570423 171.188364 
L 328.651628 53.568 
L 328.732832 59.371636 
L 328.89524 158.974585 
L 328.976445 60.532364 
L 329.057649 68.626084 
L 329.138853 80.87923 
L 329.220057 53.568 
L 329.301262 70.451306 
L 329.382466 67.157002 
L 329.46367 53.568 
L 329.544874 65.949091 
L 329.626078 61.306182 
L 329.707283 69.044364 
L 329.788487 96.425622 
L 329.869691 59.758545 
L 329.950895 60.362501 
L 330.113304 159.234207 
L 330.194508 171.188364 
L 330.275712 53.568 
L 330.356917 124.997371 
L 330.519325 71.349354 
L 330.600529 84.520727 
L 330.681734 66.524956 
L 330.762938 78.148107 
L 330.925346 53.568 
L 331.087755 64.282406 
L 331.168959 53.568 
L 331.250163 78.330182 
L 331.331368 150.463494 
L 331.412572 61.761369 
L 331.493776 137.788211 
L 331.57498 60.046478 
L 331.656184 61.527273 
L 331.737389 61.306182 
L 331.818593 59.758545 
L 331.899797 73.466182 
L 332.062206 53.568 
L 332.14341 170.1806 
L 332.224614 67.853874 
L 332.305818 97.095273 
L 332.468227 61.097042 
L 332.549431 59.758545 
L 332.630635 67.157002 
L 332.71184 61.527273 
L 332.793044 67.157002 
L 332.874248 148.869818 
L 332.955452 121.513011 
L 333.036657 53.568 
L 333.117861 61.527273 
L 333.280269 53.568 
L 333.523882 66.833455 
L 333.605086 141.12 
L 333.68629 53.568 
L 333.767495 61.097042 
L 333.848699 156.200727 
L 334.011107 53.568 
L 334.092312 148.691016 
L 334.25472 71.540551 
L 334.417129 53.568 
L 334.498333 113.262545 
L 334.579537 53.568 
L 334.660741 119.114952 
L 334.82315 53.568 
L 334.985558 65.679937 
L 335.066762 116.880397 
L 335.229171 53.568 
L 335.472784 68.626084 
L 335.635192 141.896514 
L 335.797601 53.568 
L 335.878805 53.568 
L 336.041213 78.892959 
L 336.203622 59.89924 
L 336.284826 61.761369 
L 336.36603 61.527273 
L 336.447235 154.164364 
L 336.528439 59.030246 
L 336.609643 65.175273 
L 336.690847 69.486545 
L 336.772051 66.524956 
L 336.853256 74.996811 
L 336.93446 136.387459 
L 337.015664 65.175273 
L 337.096868 69.954738 
L 337.178073 53.568 
L 337.259277 74.996811 
L 337.340481 53.568 
L 337.421685 180.192793 
L 337.584094 53.568 
L 337.665298 171.75114 
L 337.827707 59.371636 
L 337.908911 53.568 
L 338.152524 88.389818 
L 338.314932 53.568 
L 338.396136 60.362501 
L 338.47734 59.623968 
L 338.558545 53.568 
L 338.639749 68.229818 
L 338.802157 53.568 
L 338.883362 53.568 
L 339.04577 72.139636 
L 339.126974 170.862545 
L 339.289383 59.89924 
L 339.370587 53.568 
L 339.451791 68.229818 
L 339.532996 67.853874 
L 339.6142 53.568 
L 339.695404 67.496727 
L 339.776608 60.898909 
L 339.857813 141.538909 
L 339.939017 71.349354 
L 340.020221 146.426182 
L 340.182629 60.362501 
L 340.263834 59.758545 
L 340.345038 53.568 
L 340.426242 61.097042 
L 340.507446 59.623968 
L 340.588651 53.568 
L 340.669855 77.791874 
L 340.832263 53.568 
L 340.913468 69.954738 
L 340.994672 66.230479 
L 341.075876 68.626084 
L 341.238285 61.527273 
L 341.319489 53.568 
L 341.400693 67.157002 
L 341.481897 134.208 
L 341.644306 53.568 
L 341.806714 88.389818 
L 341.887919 59.89924 
L 341.969123 65.175273 
L 342.050327 86.996945 
L 342.131531 53.568 
L 342.212735 76.782545 
L 342.375144 53.568 
L 342.456348 67.496727 
L 342.537552 115.473455 
L 342.618757 58.925203 
L 342.699961 62.009653 
L 342.781165 60.532364 
L 342.862369 76.782545 
L 343.105982 58.632992 
L 343.187186 76.782545 
L 343.349595 53.568 
L 343.512003 53.568 
L 343.593208 76.782545 
L 343.674412 53.568 
L 343.755616 123.211636 
L 343.918024 53.568 
L 344.080433 53.568 
L 344.161637 96.425622 
L 344.324046 53.568 
L 344.40525 60.200727 
L 344.486454 59.89924 
L 344.567658 111.204113 
L 344.730067 53.568 
L 344.97368 89.130708 
L 345.136088 68.626084 
L 345.217292 67.853874 
L 345.298497 53.568 
L 345.379701 76.782545 
L 345.542109 53.568 
L 345.704518 65.679937 
L 345.785722 53.568 
L 345.866926 60.200727 
L 345.94813 53.568 
L 346.029335 76.782545 
L 346.110539 53.568 
L 346.191743 63.174019 
L 346.354152 53.568 
L 346.435356 112.65957 
L 346.51656 53.568 
L 346.597764 69.486545 
L 346.760173 59.89924 
L 346.841377 60.532364 
L 346.922581 84.520727 
L 347.08499 53.568 
L 347.409807 85.224198 
L 347.491011 83.684167 
L 347.572215 67.853874 
L 347.653419 167.061333 
L 347.815828 70.282473 
L 348.059441 53.568 
L 348.140645 53.568 
L 348.221849 176.468535 
L 348.303053 61.527273 
L 348.384258 69.044364 
L 348.465462 53.568 
L 348.546666 69.486545 
L 348.62787 69.044364 
L 348.790279 53.568 
L 348.952687 75.560727 
L 349.1963 64.282406 
L 349.277504 60.898909 
L 349.358708 74.996811 
L 349.439913 69.044364 
L 349.602321 53.568 
L 349.683525 63.174019 
L 349.76473 105.800727 
L 349.845934 62.273455 
L 349.927138 68.229818 
L 350.008342 53.568 
L 350.089547 68.626084 
L 350.333159 53.568 
L 350.414364 53.568 
L 350.495568 102.015747 
L 350.73918 53.568 
L 350.820385 62.009653 
L 350.901589 59.758545 
L 350.982793 123.211636 
L 351.145202 53.568 
L 351.226406 72.561719 
L 351.388814 53.568 
L 351.551223 70.978909 
L 351.632427 53.568 
L 351.713631 80.098909 
L 351.794836 69.486545 
L 351.87604 73.951503 
L 351.957244 53.568 
L 352.038448 62.273455 
L 352.119653 60.046478 
L 352.200857 60.710937 
L 352.282061 67.157002 
L 352.363265 60.710937 
L 352.44447 66.833455 
L 352.525674 60.898909 
L 352.606878 73.003433 
L 352.769286 53.568 
L 352.850491 66.524956 
L 352.931695 102.318545 
L 353.094103 53.568 
L 353.256512 53.568 
L 353.41892 73.003433 
L 353.500125 67.496727 
L 353.581329 119.546182 
L 353.662533 53.568 
L 353.743737 160.712056 
L 353.824942 62.009653 
L 353.906146 71.735905 
L 353.98735 53.568 
L 354.068554 60.532364 
L 354.149759 87.334612 
L 354.230963 60.532364 
L 354.312167 74.996811 
L 354.393371 53.568 
L 354.474575 73.466182 
L 354.636984 53.568 
L 354.718188 60.710937 
L 354.799392 119.546182 
L 354.961801 60.362501 
L 355.043005 71.349354 
L 355.124209 99.997091 
L 355.286618 60.710937 
L 355.367822 61.527273 
L 355.449026 53.568 
L 355.530231 133.160727 
L 355.611435 112.215273 
L 355.692639 65.175273 
L 355.773843 121.513011 
L 355.936252 65.175273 
L 356.017456 61.306182 
L 356.09866 65.175273 
L 356.261069 53.568 
L 356.342273 75.853964 
L 356.423477 67.853874 
L 356.504681 59.253195 
L 356.585886 61.097042 
L 356.66709 81.425455 
L 356.748294 53.568 
L 356.829498 60.710937 
L 356.991907 53.568 
L 357.073111 61.097042 
L 357.154315 53.568 
L 357.23552 73.003433 
L 357.316724 60.898909 
L 357.397928 90.222545 
L 357.560337 68.626084 
L 357.641541 70.451306 
L 357.722745 126.528 
L 357.803949 53.568 
L 357.885153 121.101223 
L 357.966358 53.568 
L 358.047562 109.282909 
L 358.20997 60.710937 
L 358.291175 62.009653 
L 358.372379 66.230479 
L 358.453583 60.898909 
L 358.615992 164.997818 
L 358.7784 59.89924 
L 358.940809 63.517091 
L 359.022013 74.996811 
L 359.184421 53.568 
L 359.265626 60.710937 
L 359.34683 176.659078 
L 359.428034 53.568 
L 359.509238 61.761369 
L 359.590442 69.486545 
L 359.671647 64.93839 
L 359.752851 67.853874 
L 359.834055 53.568 
L 359.915259 196.619794 
L 360.077668 60.362501 
L 360.240076 53.568 
L 360.321281 53.568 
L 360.483689 113.262545 
L 360.564893 60.710937 
L 360.646098 67.496727 
L 360.727302 53.568 
L 360.88971 76.155125 
L 361.052119 53.568 
L 361.133323 198.426764 
L 361.214527 61.306182 
L 361.295732 92.438867 
L 361.376936 53.568 
L 361.45814 59.623968 
L 361.539344 59.495118 
L 361.701753 53.568 
L 361.945365 112.215273 
L 362.02657 106.271292 
L 362.188978 53.568 
L 362.270182 67.496727 
L 362.351387 134.444481 
L 362.432591 53.568 
L 362.513795 178.642286 
L 362.676204 53.568 
L 362.757408 66.524956 
L 362.919816 170.862545 
L 363.001021 66.524956 
L 363.082225 152.229818 
L 363.244633 60.046478 
L 363.325837 53.568 
L 363.407042 102.015747 
L 363.56945 53.568 
L 363.650654 102.728214 
L 363.731859 53.568 
L 363.813063 68.626084 
L 363.894267 148.691016 
L 363.975471 60.046478 
L 364.056676 77.445818 
L 364.13788 75.560727 
L 364.219084 53.568 
L 364.300288 60.898909 
L 364.381493 59.139491 
L 364.462697 89.282685 
L 364.543901 53.568 
L 364.625105 171.426462 
L 364.70631 116.47193 
L 364.787514 116.641482 
L 364.868718 197.658282 
L 365.031126 53.568 
L 365.112331 110.921583 
L 365.193535 53.568 
L 365.274739 73.003433 
L 365.355943 116.247273 
L 365.437148 60.898909 
L 365.518352 184.661904 
L 365.599556 53.568 
L 365.68076 61.097042 
L 365.761965 53.568 
L 365.843169 74.461091 
L 366.005577 53.568 
L 366.086782 60.046478 
L 366.167986 151.888428 
L 366.24919 53.568 
L 366.330394 60.710937 
L 366.411599 63.174019 
L 366.492803 139.283245 
L 366.574007 53.568 
L 366.655211 81.425455 
L 366.736415 198.426764 
L 366.81762 60.532364 
L 366.898824 70.978909 
L 366.980028 53.568 
L 367.061232 117.242182 
L 367.223641 53.568 
L 367.386049 80.526827 
L 367.467254 67.496727 
L 367.548458 189.090752 
L 367.629662 53.568 
L 367.710866 59.758545 
L 367.792071 98.139927 
L 367.873275 53.568 
L 367.954479 60.898909 
L 368.035683 61.306182 
L 368.116888 66.833455 
L 368.198092 53.568 
L 368.279296 78.892959 
L 368.3605 61.306182 
L 368.522909 75.853964 
L 368.604113 121.329376 
L 368.766521 61.306182 
L 368.847726 189.283804 
L 369.010134 53.568 
L 369.091338 53.568 
L 369.172543 87.334612 
L 369.334951 53.568 
L 369.416155 132.140308 
L 369.659768 61.761369 
L 369.740972 108.071715 
L 369.822177 53.568 
L 369.903381 70.282473 
L 369.984585 69.486545 
L 370.065789 82.891636 
L 370.146993 53.568 
L 370.228198 67.157002 
L 370.309402 166.503627 
L 370.390606 53.568 
L 370.47181 65.949091 
L 370.553015 148.869818 
L 370.634219 53.568 
L 370.715423 72.139636 
L 370.796627 58.726788 
L 371.04024 73.003433 
L 371.121444 65.422236 
L 371.202649 78.892959 
L 371.283853 112.65957 
L 371.365057 53.568 
L 371.446261 101.129508 
L 371.60867 53.568 
L 371.689874 66.833455 
L 371.771078 60.532364 
L 371.852283 61.761369 
L 371.933487 72.561719 
L 372.014691 141.12 
L 372.177099 69.044364 
L 372.258304 83.684167 
L 372.339508 53.568 
L 372.420712 61.097042 
L 372.501916 177.378909 
L 372.664325 53.568 
L 372.745529 66.524956 
L 372.826733 59.758545 
L 372.907938 168.840226 
L 373.070346 53.568 
L 373.15155 53.568 
L 373.395163 69.044364 
L 373.476367 67.157002 
L 373.557572 53.568 
L 373.638776 71.735905 
L 373.71998 151.445543 
L 373.801184 53.568 
L 373.882388 60.898909 
L 373.963593 59.623968 
L 374.126001 68.229818 
L 374.207205 72.561719 
L 374.28841 53.568 
L 374.369614 67.157002 
L 374.532022 53.568 
L 374.775635 98.742251 
L 374.938044 60.200727 
L 375.019248 53.568 
L 375.181656 59.89924 
L 375.344065 60.710937 
L 375.506473 53.568 
L 375.587677 59.139491 
L 375.668882 53.568 
L 375.750086 170.389584 
L 375.912494 60.532364 
L 375.993699 53.568 
L 376.074903 77.276472 
L 376.156107 59.89924 
L 376.237311 70.978909 
L 376.318516 130.949818 
L 376.39972 60.532364 
L 376.480924 61.097042 
L 376.562128 60.362501 
L 376.643333 73.003433 
L 376.724537 60.898909 
L 376.805741 71.349354 
L 376.886945 61.097042 
L 377.049354 69.486545 
L 377.130558 123.211636 
L 377.211762 61.306182 
L 377.292966 76.782545 
L 377.374171 88.389818 
L 377.455375 53.568 
L 377.536579 59.89924 
L 377.617783 53.568 
L 377.698988 72.561719 
L 377.780192 66.524956 
L 377.9426 87.334612 
L 378.023805 53.568 
L 378.105009 60.898909 
L 378.186213 53.568 
L 378.267417 66.833455 
L 378.348622 58.925203 
L 378.429826 157.038545 
L 378.592234 62.273455 
L 378.673439 66.833455 
L 378.754643 53.568 
L 378.835847 93.364364 
L 378.917051 65.949091 
L 378.998255 68.626084 
L 379.07946 53.568 
L 379.160664 69.486545 
L 379.241868 53.568 
L 379.323072 60.898909 
L 379.404277 60.200727 
L 379.485481 87.540506 
L 379.566685 62.009653 
L 379.647889 65.679937 
L 379.729094 68.229818 
L 379.810298 53.568 
L 379.891502 103.568559 
L 379.972706 53.568 
L 380.053911 104.734753 
L 380.216319 59.253195 
L 380.297523 172.957091 
L 380.378728 53.568 
L 380.459932 67.157002 
L 380.541136 53.568 
L 380.62234 69.486545 
L 380.703544 59.758545 
L 380.784749 78.892959 
L 380.947157 53.568 
L 381.028361 113.262545 
L 381.109566 53.568 
L 381.19077 80.098909 
L 381.271974 169.640727 
L 381.434383 53.568 
L 381.515587 53.568 
L 381.596791 72.780038 
L 381.677995 168.631399 
L 381.7592 67.157002 
L 381.840404 77.445818 
L 382.002812 60.200727 
L 382.084017 60.532364 
L 382.165221 74.461091 
L 382.327629 53.568 
L 382.490038 78.892959 
L 382.571242 174.687368 
L 382.652446 91.555438 
L 382.73365 107.485654 
L 382.896059 66.524956 
L 382.977263 75.560727 
L 383.058467 53.568 
L 383.139672 60.710937 
L 383.30208 53.568 
L 383.464489 92.438867 
L 383.626897 53.568 
L 383.789306 69.954738 
L 383.87051 53.568 
L 383.951714 135.50169 
L 384.032918 65.422236 
L 384.114123 92.258909 
L 384.276531 60.898909 
L 384.357735 68.229818 
L 384.438939 116.47193 
L 384.520144 76.155125 
L 384.601348 106.271292 
L 384.763756 60.710937 
L 384.926165 53.568 
L 385.007369 109.282909 
L 385.169778 53.568 
L 385.250982 97.095273 
L 385.41339 53.568 
L 385.494595 73.951503 
L 385.575799 59.623968 
L 385.738207 66.524956 
L 385.819412 63.174019 
L 385.900616 79.684364 
L 386.144228 53.568 
L 386.225433 53.568 
L 386.306637 115.473455 
L 386.387841 60.046478 
L 386.469045 60.898909 
L 386.55025 53.568 
L 386.631454 66.230479 
L 386.712658 61.527273 
L 386.793862 95.776264 
L 387.037475 53.568 
L 387.118679 92.258909 
L 387.199884 53.568 
L 387.281088 59.495118 
L 387.443496 53.568 
L 387.524701 146.426182 
L 387.605905 60.898909 
L 387.687109 117.242182 
L 387.849517 59.89924 
L 387.930722 78.330182 
L 388.011926 156.200727 
L 388.174334 60.046478 
L 388.255539 123.211636 
L 388.336743 60.532364 
L 388.417947 101.129508 
L 388.580356 61.097042 
L 388.66156 185.524364 
L 388.823968 60.532364 
L 388.905173 60.710937 
L 388.986377 53.568 
L 389.067581 137.140364 
L 389.148785 131.309734 
L 389.311194 68.626084 
L 389.392398 75.853964 
L 389.473602 60.362501 
L 389.554806 72.139636 
L 389.717215 53.568 
L 389.879623 89.282685 
L 389.960828 60.046478 
L 390.042032 146.426182 
L 390.123236 65.679937 
L 390.20444 103.711418 
L 390.285645 53.568 
L 390.366849 73.003433 
L 390.448053 67.157002 
L 390.610462 53.568 
L 390.691666 60.710937 
L 390.854074 53.568 
L 390.935279 53.568 
L 391.016483 66.230479 
L 391.097687 53.568 
L 391.178891 61.306182 
L 391.260096 168.275166 
L 391.503708 60.532364 
L 391.584912 73.951503 
L 391.747321 62.554276 
L 391.909729 66.524956 
L 392.072138 59.758545 
L 392.153342 65.949091 
L 392.234546 61.761369 
L 392.315751 71.735905 
L 392.478159 130.176 
L 392.559363 89.513103 
L 392.640568 95.776264 
L 392.88418 53.568 
L 393.046589 53.568 
L 393.208997 68.626084 
L 393.371406 61.306182 
L 393.45261 65.949091 
L 393.533814 60.200727 
L 393.615018 135.50169 
L 393.696223 53.568 
L 393.777427 68.626084 
L 393.858631 61.097042 
L 393.939835 78.892959 
L 394.02104 60.532364 
L 394.102244 61.097042 
L 394.183448 97.553455 
L 394.264652 61.097042 
L 394.345857 70.451306 
L 394.427061 98.917345 
L 394.589469 60.046478 
L 394.670674 60.532364 
L 394.751878 137.984529 
L 394.914286 53.568 
L 394.99549 67.157002 
L 395.239103 53.568 
L 395.401512 67.157002 
L 395.482716 60.046478 
L 395.56392 67.853874 
L 395.645124 59.253195 
L 395.726329 110.711497 
L 395.807533 73.466182 
L 395.888737 171.426462 
L 396.051146 53.568 
L 396.13235 53.568 
L 396.294758 70.451306 
L 396.457167 53.568 
L 396.538371 80.098909 
L 396.619575 66.524956 
L 396.700779 99.997091 
L 396.781984 53.568 
L 396.863188 67.496727 
L 397.106801 53.568 
L 397.188005 154.164364 
L 397.269209 59.89924 
L 397.350413 189.76 
L 397.431618 59.758545 
L 397.512822 60.362501 
L 397.67523 53.568 
L 397.756435 74.996811 
L 397.837639 72.561719 
L 397.918843 192.855273 
L 398.081252 53.568 
L 398.24366 103.568559 
L 398.406068 53.568 
L 398.487273 53.568 
L 398.487273 53.568 
" clip-path="url(#p9047cb1b97)" style="fill: none; stroke: #1f77b4; stroke-width: 1.5; stroke-linecap: square"/>
   </g>
   <g id="patch_3">
    <path d="M 57.6 307.584 
L 57.6 41.472 
" style="fill: none; stroke: #000000; stroke-width: 0.8; stroke-linejoin: miter; stroke-linecap: square"/>
   </g>
   <g id="patch_4">
    <path d="M 414.72 307.584 
L 414.72 41.472 
" style="fill: none; stroke: #000000; stroke-width: 0.8; stroke-linejoin: miter; stroke-linecap: square"/>
   </g>
   <g id="patch_5">
    <path d="M 57.6 307.584 
L 414.72 307.584 
" style="fill: none; stroke: #000000; stroke-width: 0.8; stroke-linejoin: miter; stroke-linecap: square"/>
   </g>
   <g id="patch_6">
    <path d="M 57.6 41.472 
L 414.72 41.472 
" style="fill: none; stroke: #000000; stroke-width: 0.8; stroke-linejoin: miter; stroke-linecap: square"/>
   </g>
   <g id="text_17">
    <!-- Certainty of network -->
    <g transform="translate(174.447187 35.472) scale(0.12 -0.12)">
     <defs>
      <path id="DejaVuSans-43" d="M 4122 4306 
L 4122 3641 
Q 3803 3938 3442 4084 
Q 3081 4231 2675 4231 
Q 1875 4231 1450 3742 
Q 1025 3253 1025 2328 
Q 1025 1406 1450 917 
Q 1875 428 2675 428 
Q 3081 428 3442 575 
Q 3803 722 4122 1019 
L 4122 359 
Q 3791 134 3420 21 
Q 3050 -91 2638 -91 
Q 1578 -91 968 557 
Q 359 1206 359 2328 
Q 359 3453 968 4101 
Q 1578 4750 2638 4750 
Q 3056 4750 3426 4639 
Q 3797 4528 4122 4306 
z
" transform="scale(0.015625)"/>
      <path id="DejaVuSans-72" d="M 2631 2963 
Q 2534 3019 2420 3045 
Q 2306 3072 2169 3072 
Q 1681 3072 1420 2755 
Q 1159 2438 1159 1844 
L 1159 0 
L 581 0 
L 581 3500 
L 1159 3500 
L 1159 2956 
Q 1341 3275 1631 3429 
Q 1922 3584 2338 3584 
Q 2397 3584 2469 3576 
Q 2541 3569 2628 3553 
L 2631 2963 
z
" transform="scale(0.015625)"/>
     </defs>
     <use xlink:href="#DejaVuSans-43"/>
     <use xlink:href="#DejaVuSans-65" x="69.824219"/>
     <use xlink:href="#DejaVuSans-72" x="131.347656"/>
     <use xlink:href="#DejaVuSans-74" x="172.460938"/>
     <use xlink:href="#DejaVuSans-61" x="211.669922"/>
     <use xlink:href="#DejaVuSans-69" x="272.949219"/>
     <use xlink:href="#DejaVuSans-6e" x="300.732422"/>
     <use xlink:href="#DejaVuSans-74" x="364.111328"/>
     <use xlink:href="#DejaVuSans-79" x="403.320312"/>
     <use xlink:href="#DejaVuSans-20" x="462.5"/>
     <use xlink:href="#DejaVuSans-6f" x="494.287109"/>
     <use xlink:href="#DejaVuSans-66" x="555.46875"/>
     <use xlink:href="#DejaVuSans-20" x="590.673828"/>
     <use xlink:href="#DejaVuSans-6e" x="622.460938"/>
     <use xlink:href="#DejaVuSans-65" x="685.839844"/>
     <use xlink:href="#DejaVuSans-74" x="747.363281"/>
     <use xlink:href="#DejaVuSans-77" x="786.572266"/>
     <use xlink:href="#DejaVuSans-6f" x="868.359375"/>
     <use xlink:href="#DejaVuSans-72" x="929.541016"/>
     <use xlink:href="#DejaVuSans-6b" x="970.654297"/>
    </g>
   </g>
  </g>
 </g>
 <defs>
  <clipPath id="p9047cb1b97">
   <rect x="57.6" y="41.472" width="357.12" height="266.112"/>
  </clipPath>
 </defs>
</svg>
