<?xml version="1.0" encoding="utf-8" standalone="no"?>
<!DOCTYPE svg PUBLIC "-//W3C//DTD SVG 1.1//EN"
  "http://www.w3.org/Graphics/SVG/1.1/DTD/svg11.dtd">
<svg xmlns:xlink="http://www.w3.org/1999/xlink" width="460.8pt" height="345.6pt" viewBox="0 0 460.8 345.6" xmlns="http://www.w3.org/2000/svg" version="1.1">
 <metadata>
  <rdf:RDF xmlns:dc="http://purl.org/dc/elements/1.1/" xmlns:cc="http://creativecommons.org/ns#" xmlns:rdf="http://www.w3.org/1999/02/22-rdf-syntax-ns#">
   <cc:Work>
    <dc:type rdf:resource="http://purl.org/dc/dcmitype/StillImage"/>
    <dc:date>2023-05-03T18:29:42.461926</dc:date>
    <dc:format>image/svg+xml</dc:format>
    <dc:creator>
     <cc:Agent>
      <dc:title>Matplotlib v3.6.2, https://matplotlib.org/</dc:title>
     </cc:Agent>
    </dc:creator>
   </cc:Work>
  </rdf:RDF>
 </metadata>
 <defs>
  <style type="text/css">*{stroke-linejoin: round; stroke-linecap: butt}</style>
 </defs>
 <g id="figure_1">
  <g id="patch_1">
   <path d="M 0 345.6 
L 460.8 345.6 
L 460.8 0 
L 0 0 
z
" style="fill: #ffffff"/>
  </g>
  <g id="axes_1">
   <g id="patch_2">
    <path d="M 57.6 307.584 
L 414.72 307.584 
L 414.72 41.472 
L 57.6 41.472 
z
" style="fill: #ffffff"/>
   </g>
   <g id="matplotlib.axis_1">
    <g id="xtick_1">
     <g id="line2d_1">
      <defs>
       <path id="mbce2beb090" d="M 0 0 
L 0 3.5 
" style="stroke: #000000; stroke-width: 0.8"/>
      </defs>
      <g>
       <use xlink:href="#mbce2beb090" x="73.832727" y="307.584" style="stroke: #000000; stroke-width: 0.8"/>
      </g>
     </g>
     <g id="text_1">
      <!-- 0 -->
      <g transform="translate(70.651477 322.182437) scale(0.1 -0.1)">
       <defs>
        <path id="DejaVuSans-30" d="M 2034 4250 
Q 1547 4250 1301 3770 
Q 1056 3291 1056 2328 
Q 1056 1369 1301 889 
Q 1547 409 2034 409 
Q 2525 409 2770 889 
Q 3016 1369 3016 2328 
Q 3016 3291 2770 3770 
Q 2525 4250 2034 4250 
z
M 2034 4750 
Q 2819 4750 3233 4129 
Q 3647 3509 3647 2328 
Q 3647 1150 3233 529 
Q 2819 -91 2034 -91 
Q 1250 -91 836 529 
Q 422 1150 422 2328 
Q 422 3509 836 4129 
Q 1250 4750 2034 4750 
z
" transform="scale(0.015625)"/>
       </defs>
       <use xlink:href="#DejaVuSans-30"/>
      </g>
     </g>
    </g>
    <g id="xtick_2">
     <g id="line2d_2">
      <g>
       <use xlink:href="#mbce2beb090" x="114.434847" y="307.584" style="stroke: #000000; stroke-width: 0.8"/>
      </g>
     </g>
     <g id="text_2">
      <!-- 500 -->
      <g transform="translate(104.891097 322.182437) scale(0.1 -0.1)">
       <defs>
        <path id="DejaVuSans-35" d="M 691 4666 
L 3169 4666 
L 3169 4134 
L 1269 4134 
L 1269 2991 
Q 1406 3038 1543 3061 
Q 1681 3084 1819 3084 
Q 2600 3084 3056 2656 
Q 3513 2228 3513 1497 
Q 3513 744 3044 326 
Q 2575 -91 1722 -91 
Q 1428 -91 1123 -41 
Q 819 9 494 109 
L 494 744 
Q 775 591 1075 516 
Q 1375 441 1709 441 
Q 2250 441 2565 725 
Q 2881 1009 2881 1497 
Q 2881 1984 2565 2268 
Q 2250 2553 1709 2553 
Q 1456 2553 1204 2497 
Q 953 2441 691 2322 
L 691 4666 
z
" transform="scale(0.015625)"/>
       </defs>
       <use xlink:href="#DejaVuSans-35"/>
       <use xlink:href="#DejaVuSans-30" x="63.623047"/>
       <use xlink:href="#DejaVuSans-30" x="127.246094"/>
      </g>
     </g>
    </g>
    <g id="xtick_3">
     <g id="line2d_3">
      <g>
       <use xlink:href="#mbce2beb090" x="155.036966" y="307.584" style="stroke: #000000; stroke-width: 0.8"/>
      </g>
     </g>
     <g id="text_3">
      <!-- 1000 -->
      <g transform="translate(142.311966 322.182437) scale(0.1 -0.1)">
       <defs>
        <path id="DejaVuSans-31" d="M 794 531 
L 1825 531 
L 1825 4091 
L 703 3866 
L 703 4441 
L 1819 4666 
L 2450 4666 
L 2450 531 
L 3481 531 
L 3481 0 
L 794 0 
L 794 531 
z
" transform="scale(0.015625)"/>
       </defs>
       <use xlink:href="#DejaVuSans-31"/>
       <use xlink:href="#DejaVuSans-30" x="63.623047"/>
       <use xlink:href="#DejaVuSans-30" x="127.246094"/>
       <use xlink:href="#DejaVuSans-30" x="190.869141"/>
      </g>
     </g>
    </g>
    <g id="xtick_4">
     <g id="line2d_4">
      <g>
       <use xlink:href="#mbce2beb090" x="195.639085" y="307.584" style="stroke: #000000; stroke-width: 0.8"/>
      </g>
     </g>
     <g id="text_4">
      <!-- 1500 -->
      <g transform="translate(182.914085 322.182437) scale(0.1 -0.1)">
       <use xlink:href="#DejaVuSans-31"/>
       <use xlink:href="#DejaVuSans-35" x="63.623047"/>
       <use xlink:href="#DejaVuSans-30" x="127.246094"/>
       <use xlink:href="#DejaVuSans-30" x="190.869141"/>
      </g>
     </g>
    </g>
    <g id="xtick_5">
     <g id="line2d_5">
      <g>
       <use xlink:href="#mbce2beb090" x="236.241204" y="307.584" style="stroke: #000000; stroke-width: 0.8"/>
      </g>
     </g>
     <g id="text_5">
      <!-- 2000 -->
      <g transform="translate(223.516204 322.182437) scale(0.1 -0.1)">
       <defs>
        <path id="DejaVuSans-32" d="M 1228 531 
L 3431 531 
L 3431 0 
L 469 0 
L 469 531 
Q 828 903 1448 1529 
Q 2069 2156 2228 2338 
Q 2531 2678 2651 2914 
Q 2772 3150 2772 3378 
Q 2772 3750 2511 3984 
Q 2250 4219 1831 4219 
Q 1534 4219 1204 4116 
Q 875 4013 500 3803 
L 500 4441 
Q 881 4594 1212 4672 
Q 1544 4750 1819 4750 
Q 2544 4750 2975 4387 
Q 3406 4025 3406 3419 
Q 3406 3131 3298 2873 
Q 3191 2616 2906 2266 
Q 2828 2175 2409 1742 
Q 1991 1309 1228 531 
z
" transform="scale(0.015625)"/>
       </defs>
       <use xlink:href="#DejaVuSans-32"/>
       <use xlink:href="#DejaVuSans-30" x="63.623047"/>
       <use xlink:href="#DejaVuSans-30" x="127.246094"/>
       <use xlink:href="#DejaVuSans-30" x="190.869141"/>
      </g>
     </g>
    </g>
    <g id="xtick_6">
     <g id="line2d_6">
      <g>
       <use xlink:href="#mbce2beb090" x="276.843323" y="307.584" style="stroke: #000000; stroke-width: 0.8"/>
      </g>
     </g>
     <g id="text_6">
      <!-- 2500 -->
      <g transform="translate(264.118323 322.182437) scale(0.1 -0.1)">
       <use xlink:href="#DejaVuSans-32"/>
       <use xlink:href="#DejaVuSans-35" x="63.623047"/>
       <use xlink:href="#DejaVuSans-30" x="127.246094"/>
       <use xlink:href="#DejaVuSans-30" x="190.869141"/>
      </g>
     </g>
    </g>
    <g id="xtick_7">
     <g id="line2d_7">
      <g>
       <use xlink:href="#mbce2beb090" x="317.445443" y="307.584" style="stroke: #000000; stroke-width: 0.8"/>
      </g>
     </g>
     <g id="text_7">
      <!-- 3000 -->
      <g transform="translate(304.720443 322.182437) scale(0.1 -0.1)">
       <defs>
        <path id="DejaVuSans-33" d="M 2597 2516 
Q 3050 2419 3304 2112 
Q 3559 1806 3559 1356 
Q 3559 666 3084 287 
Q 2609 -91 1734 -91 
Q 1441 -91 1130 -33 
Q 819 25 488 141 
L 488 750 
Q 750 597 1062 519 
Q 1375 441 1716 441 
Q 2309 441 2620 675 
Q 2931 909 2931 1356 
Q 2931 1769 2642 2001 
Q 2353 2234 1838 2234 
L 1294 2234 
L 1294 2753 
L 1863 2753 
Q 2328 2753 2575 2939 
Q 2822 3125 2822 3475 
Q 2822 3834 2567 4026 
Q 2313 4219 1838 4219 
Q 1578 4219 1281 4162 
Q 984 4106 628 3988 
L 628 4550 
Q 988 4650 1302 4700 
Q 1616 4750 1894 4750 
Q 2613 4750 3031 4423 
Q 3450 4097 3450 3541 
Q 3450 3153 3228 2886 
Q 3006 2619 2597 2516 
z
" transform="scale(0.015625)"/>
       </defs>
       <use xlink:href="#DejaVuSans-33"/>
       <use xlink:href="#DejaVuSans-30" x="63.623047"/>
       <use xlink:href="#DejaVuSans-30" x="127.246094"/>
       <use xlink:href="#DejaVuSans-30" x="190.869141"/>
      </g>
     </g>
    </g>
    <g id="xtick_8">
     <g id="line2d_8">
      <g>
       <use xlink:href="#mbce2beb090" x="358.047562" y="307.584" style="stroke: #000000; stroke-width: 0.8"/>
      </g>
     </g>
     <g id="text_8">
      <!-- 3500 -->
      <g transform="translate(345.322562 322.182437) scale(0.1 -0.1)">
       <use xlink:href="#DejaVuSans-33"/>
       <use xlink:href="#DejaVuSans-35" x="63.623047"/>
       <use xlink:href="#DejaVuSans-30" x="127.246094"/>
       <use xlink:href="#DejaVuSans-30" x="190.869141"/>
      </g>
     </g>
    </g>
    <g id="xtick_9">
     <g id="line2d_9">
      <g>
       <use xlink:href="#mbce2beb090" x="398.649681" y="307.584" style="stroke: #000000; stroke-width: 0.8"/>
      </g>
     </g>
     <g id="text_9">
      <!-- 4000 -->
      <g transform="translate(385.924681 322.182437) scale(0.1 -0.1)">
       <defs>
        <path id="DejaVuSans-34" d="M 2419 4116 
L 825 1625 
L 2419 1625 
L 2419 4116 
z
M 2253 4666 
L 3047 4666 
L 3047 1625 
L 3713 1625 
L 3713 1100 
L 3047 1100 
L 3047 0 
L 2419 0 
L 2419 1100 
L 313 1100 
L 313 1709 
L 2253 4666 
z
" transform="scale(0.015625)"/>
       </defs>
       <use xlink:href="#DejaVuSans-34"/>
       <use xlink:href="#DejaVuSans-30" x="63.623047"/>
       <use xlink:href="#DejaVuSans-30" x="127.246094"/>
       <use xlink:href="#DejaVuSans-30" x="190.869141"/>
      </g>
     </g>
    </g>
    <g id="text_10">
     <!-- Image shown -->
     <g transform="translate(202.820156 335.860562) scale(0.1 -0.1)">
      <defs>
       <path id="DejaVuSans-49" d="M 628 4666 
L 1259 4666 
L 1259 0 
L 628 0 
L 628 4666 
z
" transform="scale(0.015625)"/>
       <path id="DejaVuSans-6d" d="M 3328 2828 
Q 3544 3216 3844 3400 
Q 4144 3584 4550 3584 
Q 5097 3584 5394 3201 
Q 5691 2819 5691 2113 
L 5691 0 
L 5113 0 
L 5113 2094 
Q 5113 2597 4934 2840 
Q 4756 3084 4391 3084 
Q 3944 3084 3684 2787 
Q 3425 2491 3425 1978 
L 3425 0 
L 2847 0 
L 2847 2094 
Q 2847 2600 2669 2842 
Q 2491 3084 2119 3084 
Q 1678 3084 1418 2786 
Q 1159 2488 1159 1978 
L 1159 0 
L 581 0 
L 581 3500 
L 1159 3500 
L 1159 2956 
Q 1356 3278 1631 3431 
Q 1906 3584 2284 3584 
Q 2666 3584 2933 3390 
Q 3200 3197 3328 2828 
z
" transform="scale(0.015625)"/>
       <path id="DejaVuSans-61" d="M 2194 1759 
Q 1497 1759 1228 1600 
Q 959 1441 959 1056 
Q 959 750 1161 570 
Q 1363 391 1709 391 
Q 2188 391 2477 730 
Q 2766 1069 2766 1631 
L 2766 1759 
L 2194 1759 
z
M 3341 1997 
L 3341 0 
L 2766 0 
L 2766 531 
Q 2569 213 2275 61 
Q 1981 -91 1556 -91 
Q 1019 -91 701 211 
Q 384 513 384 1019 
Q 384 1609 779 1909 
Q 1175 2209 1959 2209 
L 2766 2209 
L 2766 2266 
Q 2766 2663 2505 2880 
Q 2244 3097 1772 3097 
Q 1472 3097 1187 3025 
Q 903 2953 641 2809 
L 641 3341 
Q 956 3463 1253 3523 
Q 1550 3584 1831 3584 
Q 2591 3584 2966 3190 
Q 3341 2797 3341 1997 
z
" transform="scale(0.015625)"/>
       <path id="DejaVuSans-67" d="M 2906 1791 
Q 2906 2416 2648 2759 
Q 2391 3103 1925 3103 
Q 1463 3103 1205 2759 
Q 947 2416 947 1791 
Q 947 1169 1205 825 
Q 1463 481 1925 481 
Q 2391 481 2648 825 
Q 2906 1169 2906 1791 
z
M 3481 434 
Q 3481 -459 3084 -895 
Q 2688 -1331 1869 -1331 
Q 1566 -1331 1297 -1286 
Q 1028 -1241 775 -1147 
L 775 -588 
Q 1028 -725 1275 -790 
Q 1522 -856 1778 -856 
Q 2344 -856 2625 -561 
Q 2906 -266 2906 331 
L 2906 616 
Q 2728 306 2450 153 
Q 2172 0 1784 0 
Q 1141 0 747 490 
Q 353 981 353 1791 
Q 353 2603 747 3093 
Q 1141 3584 1784 3584 
Q 2172 3584 2450 3431 
Q 2728 3278 2906 2969 
L 2906 3500 
L 3481 3500 
L 3481 434 
z
" transform="scale(0.015625)"/>
       <path id="DejaVuSans-65" d="M 3597 1894 
L 3597 1613 
L 953 1613 
Q 991 1019 1311 708 
Q 1631 397 2203 397 
Q 2534 397 2845 478 
Q 3156 559 3463 722 
L 3463 178 
Q 3153 47 2828 -22 
Q 2503 -91 2169 -91 
Q 1331 -91 842 396 
Q 353 884 353 1716 
Q 353 2575 817 3079 
Q 1281 3584 2069 3584 
Q 2775 3584 3186 3129 
Q 3597 2675 3597 1894 
z
M 3022 2063 
Q 3016 2534 2758 2815 
Q 2500 3097 2075 3097 
Q 1594 3097 1305 2825 
Q 1016 2553 972 2059 
L 3022 2063 
z
" transform="scale(0.015625)"/>
       <path id="DejaVuSans-20" transform="scale(0.015625)"/>
       <path id="DejaVuSans-73" d="M 2834 3397 
L 2834 2853 
Q 2591 2978 2328 3040 
Q 2066 3103 1784 3103 
Q 1356 3103 1142 2972 
Q 928 2841 928 2578 
Q 928 2378 1081 2264 
Q 1234 2150 1697 2047 
L 1894 2003 
Q 2506 1872 2764 1633 
Q 3022 1394 3022 966 
Q 3022 478 2636 193 
Q 2250 -91 1575 -91 
Q 1294 -91 989 -36 
Q 684 19 347 128 
L 347 722 
Q 666 556 975 473 
Q 1284 391 1588 391 
Q 1994 391 2212 530 
Q 2431 669 2431 922 
Q 2431 1156 2273 1281 
Q 2116 1406 1581 1522 
L 1381 1569 
Q 847 1681 609 1914 
Q 372 2147 372 2553 
Q 372 3047 722 3315 
Q 1072 3584 1716 3584 
Q 2034 3584 2315 3537 
Q 2597 3491 2834 3397 
z
" transform="scale(0.015625)"/>
       <path id="DejaVuSans-68" d="M 3513 2113 
L 3513 0 
L 2938 0 
L 2938 2094 
Q 2938 2591 2744 2837 
Q 2550 3084 2163 3084 
Q 1697 3084 1428 2787 
Q 1159 2491 1159 1978 
L 1159 0 
L 581 0 
L 581 4863 
L 1159 4863 
L 1159 2956 
Q 1366 3272 1645 3428 
Q 1925 3584 2291 3584 
Q 2894 3584 3203 3211 
Q 3513 2838 3513 2113 
z
" transform="scale(0.015625)"/>
       <path id="DejaVuSans-6f" d="M 1959 3097 
Q 1497 3097 1228 2736 
Q 959 2375 959 1747 
Q 959 1119 1226 758 
Q 1494 397 1959 397 
Q 2419 397 2687 759 
Q 2956 1122 2956 1747 
Q 2956 2369 2687 2733 
Q 2419 3097 1959 3097 
z
M 1959 3584 
Q 2709 3584 3137 3096 
Q 3566 2609 3566 1747 
Q 3566 888 3137 398 
Q 2709 -91 1959 -91 
Q 1206 -91 779 398 
Q 353 888 353 1747 
Q 353 2609 779 3096 
Q 1206 3584 1959 3584 
z
" transform="scale(0.015625)"/>
       <path id="DejaVuSans-77" d="M 269 3500 
L 844 3500 
L 1563 769 
L 2278 3500 
L 2956 3500 
L 3675 769 
L 4391 3500 
L 4966 3500 
L 4050 0 
L 3372 0 
L 2619 2869 
L 1863 0 
L 1184 0 
L 269 3500 
z
" transform="scale(0.015625)"/>
       <path id="DejaVuSans-6e" d="M 3513 2113 
L 3513 0 
L 2938 0 
L 2938 2094 
Q 2938 2591 2744 2837 
Q 2550 3084 2163 3084 
Q 1697 3084 1428 2787 
Q 1159 2491 1159 1978 
L 1159 0 
L 581 0 
L 581 3500 
L 1159 3500 
L 1159 2956 
Q 1366 3272 1645 3428 
Q 1925 3584 2291 3584 
Q 2894 3584 3203 3211 
Q 3513 2838 3513 2113 
z
" transform="scale(0.015625)"/>
      </defs>
      <use xlink:href="#DejaVuSans-49"/>
      <use xlink:href="#DejaVuSans-6d" x="29.492188"/>
      <use xlink:href="#DejaVuSans-61" x="126.904297"/>
      <use xlink:href="#DejaVuSans-67" x="188.183594"/>
      <use xlink:href="#DejaVuSans-65" x="251.660156"/>
      <use xlink:href="#DejaVuSans-20" x="313.183594"/>
      <use xlink:href="#DejaVuSans-73" x="344.970703"/>
      <use xlink:href="#DejaVuSans-68" x="397.070312"/>
      <use xlink:href="#DejaVuSans-6f" x="460.449219"/>
      <use xlink:href="#DejaVuSans-77" x="521.630859"/>
      <use xlink:href="#DejaVuSans-6e" x="603.417969"/>
     </g>
    </g>
   </g>
   <g id="matplotlib.axis_2">
    <g id="ytick_1">
     <g id="line2d_10">
      <defs>
       <path id="md922ccb5d6" d="M 0 0 
L -3.5 0 
" style="stroke: #000000; stroke-width: 0.8"/>
      </defs>
      <g>
       <use xlink:href="#md922ccb5d6" x="57.6" y="268.608" style="stroke: #000000; stroke-width: 0.8"/>
      </g>
     </g>
     <g id="text_11">
      <!-- 2 -->
      <g transform="translate(44.2375 272.407219) scale(0.1 -0.1)">
       <use xlink:href="#DejaVuSans-32"/>
      </g>
     </g>
    </g>
    <g id="ytick_2">
     <g id="line2d_11">
      <g>
       <use xlink:href="#md922ccb5d6" x="57.6" y="214.848" style="stroke: #000000; stroke-width: 0.8"/>
      </g>
     </g>
     <g id="text_12">
      <!-- 4 -->
      <g transform="translate(44.2375 218.647219) scale(0.1 -0.1)">
       <use xlink:href="#DejaVuSans-34"/>
      </g>
     </g>
    </g>
    <g id="ytick_3">
     <g id="line2d_12">
      <g>
       <use xlink:href="#md922ccb5d6" x="57.6" y="161.088" style="stroke: #000000; stroke-width: 0.8"/>
      </g>
     </g>
     <g id="text_13">
      <!-- 6 -->
      <g transform="translate(44.2375 164.887219) scale(0.1 -0.1)">
       <defs>
        <path id="DejaVuSans-36" d="M 2113 2584 
Q 1688 2584 1439 2293 
Q 1191 2003 1191 1497 
Q 1191 994 1439 701 
Q 1688 409 2113 409 
Q 2538 409 2786 701 
Q 3034 994 3034 1497 
Q 3034 2003 2786 2293 
Q 2538 2584 2113 2584 
z
M 3366 4563 
L 3366 3988 
Q 3128 4100 2886 4159 
Q 2644 4219 2406 4219 
Q 1781 4219 1451 3797 
Q 1122 3375 1075 2522 
Q 1259 2794 1537 2939 
Q 1816 3084 2150 3084 
Q 2853 3084 3261 2657 
Q 3669 2231 3669 1497 
Q 3669 778 3244 343 
Q 2819 -91 2113 -91 
Q 1303 -91 875 529 
Q 447 1150 447 2328 
Q 447 3434 972 4092 
Q 1497 4750 2381 4750 
Q 2619 4750 2861 4703 
Q 3103 4656 3366 4563 
z
" transform="scale(0.015625)"/>
       </defs>
       <use xlink:href="#DejaVuSans-36"/>
      </g>
     </g>
    </g>
    <g id="ytick_4">
     <g id="line2d_13">
      <g>
       <use xlink:href="#md922ccb5d6" x="57.6" y="107.328" style="stroke: #000000; stroke-width: 0.8"/>
      </g>
     </g>
     <g id="text_14">
      <!-- 8 -->
      <g transform="translate(44.2375 111.127219) scale(0.1 -0.1)">
       <defs>
        <path id="DejaVuSans-38" d="M 2034 2216 
Q 1584 2216 1326 1975 
Q 1069 1734 1069 1313 
Q 1069 891 1326 650 
Q 1584 409 2034 409 
Q 2484 409 2743 651 
Q 3003 894 3003 1313 
Q 3003 1734 2745 1975 
Q 2488 2216 2034 2216 
z
M 1403 2484 
Q 997 2584 770 2862 
Q 544 3141 544 3541 
Q 544 4100 942 4425 
Q 1341 4750 2034 4750 
Q 2731 4750 3128 4425 
Q 3525 4100 3525 3541 
Q 3525 3141 3298 2862 
Q 3072 2584 2669 2484 
Q 3125 2378 3379 2068 
Q 3634 1759 3634 1313 
Q 3634 634 3220 271 
Q 2806 -91 2034 -91 
Q 1263 -91 848 271 
Q 434 634 434 1313 
Q 434 1759 690 2068 
Q 947 2378 1403 2484 
z
M 1172 3481 
Q 1172 3119 1398 2916 
Q 1625 2713 2034 2713 
Q 2441 2713 2670 2916 
Q 2900 3119 2900 3481 
Q 2900 3844 2670 4047 
Q 2441 4250 2034 4250 
Q 1625 4250 1398 4047 
Q 1172 3844 1172 3481 
z
" transform="scale(0.015625)"/>
       </defs>
       <use xlink:href="#DejaVuSans-38"/>
      </g>
     </g>
    </g>
    <g id="ytick_5">
     <g id="line2d_14">
      <g>
       <use xlink:href="#md922ccb5d6" x="57.6" y="53.568" style="stroke: #000000; stroke-width: 0.8"/>
      </g>
     </g>
     <g id="text_15">
      <!-- 10 -->
      <g transform="translate(37.875 57.367219) scale(0.1 -0.1)">
       <use xlink:href="#DejaVuSans-31"/>
       <use xlink:href="#DejaVuSans-30" x="63.623047"/>
      </g>
     </g>
    </g>
    <g id="text_16">
     <!-- Number of distinct output neurons spiking -->
     <g transform="translate(31.795312 280.250656) rotate(-90) scale(0.1 -0.1)">
      <defs>
       <path id="DejaVuSans-4e" d="M 628 4666 
L 1478 4666 
L 3547 763 
L 3547 4666 
L 4159 4666 
L 4159 0 
L 3309 0 
L 1241 3903 
L 1241 0 
L 628 0 
L 628 4666 
z
" transform="scale(0.015625)"/>
       <path id="DejaVuSans-75" d="M 544 1381 
L 544 3500 
L 1119 3500 
L 1119 1403 
Q 1119 906 1312 657 
Q 1506 409 1894 409 
Q 2359 409 2629 706 
Q 2900 1003 2900 1516 
L 2900 3500 
L 3475 3500 
L 3475 0 
L 2900 0 
L 2900 538 
Q 2691 219 2414 64 
Q 2138 -91 1772 -91 
Q 1169 -91 856 284 
Q 544 659 544 1381 
z
M 1991 3584 
L 1991 3584 
z
" transform="scale(0.015625)"/>
       <path id="DejaVuSans-62" d="M 3116 1747 
Q 3116 2381 2855 2742 
Q 2594 3103 2138 3103 
Q 1681 3103 1420 2742 
Q 1159 2381 1159 1747 
Q 1159 1113 1420 752 
Q 1681 391 2138 391 
Q 2594 391 2855 752 
Q 3116 1113 3116 1747 
z
M 1159 2969 
Q 1341 3281 1617 3432 
Q 1894 3584 2278 3584 
Q 2916 3584 3314 3078 
Q 3713 2572 3713 1747 
Q 3713 922 3314 415 
Q 2916 -91 2278 -91 
Q 1894 -91 1617 61 
Q 1341 213 1159 525 
L 1159 0 
L 581 0 
L 581 4863 
L 1159 4863 
L 1159 2969 
z
" transform="scale(0.015625)"/>
       <path id="DejaVuSans-72" d="M 2631 2963 
Q 2534 3019 2420 3045 
Q 2306 3072 2169 3072 
Q 1681 3072 1420 2755 
Q 1159 2438 1159 1844 
L 1159 0 
L 581 0 
L 581 3500 
L 1159 3500 
L 1159 2956 
Q 1341 3275 1631 3429 
Q 1922 3584 2338 3584 
Q 2397 3584 2469 3576 
Q 2541 3569 2628 3553 
L 2631 2963 
z
" transform="scale(0.015625)"/>
       <path id="DejaVuSans-66" d="M 2375 4863 
L 2375 4384 
L 1825 4384 
Q 1516 4384 1395 4259 
Q 1275 4134 1275 3809 
L 1275 3500 
L 2222 3500 
L 2222 3053 
L 1275 3053 
L 1275 0 
L 697 0 
L 697 3053 
L 147 3053 
L 147 3500 
L 697 3500 
L 697 3744 
Q 697 4328 969 4595 
Q 1241 4863 1831 4863 
L 2375 4863 
z
" transform="scale(0.015625)"/>
       <path id="DejaVuSans-64" d="M 2906 2969 
L 2906 4863 
L 3481 4863 
L 3481 0 
L 2906 0 
L 2906 525 
Q 2725 213 2448 61 
Q 2172 -91 1784 -91 
Q 1150 -91 751 415 
Q 353 922 353 1747 
Q 353 2572 751 3078 
Q 1150 3584 1784 3584 
Q 2172 3584 2448 3432 
Q 2725 3281 2906 2969 
z
M 947 1747 
Q 947 1113 1208 752 
Q 1469 391 1925 391 
Q 2381 391 2643 752 
Q 2906 1113 2906 1747 
Q 2906 2381 2643 2742 
Q 2381 3103 1925 3103 
Q 1469 3103 1208 2742 
Q 947 2381 947 1747 
z
" transform="scale(0.015625)"/>
       <path id="DejaVuSans-69" d="M 603 3500 
L 1178 3500 
L 1178 0 
L 603 0 
L 603 3500 
z
M 603 4863 
L 1178 4863 
L 1178 4134 
L 603 4134 
L 603 4863 
z
" transform="scale(0.015625)"/>
       <path id="DejaVuSans-74" d="M 1172 4494 
L 1172 3500 
L 2356 3500 
L 2356 3053 
L 1172 3053 
L 1172 1153 
Q 1172 725 1289 603 
Q 1406 481 1766 481 
L 2356 481 
L 2356 0 
L 1766 0 
Q 1100 0 847 248 
Q 594 497 594 1153 
L 594 3053 
L 172 3053 
L 172 3500 
L 594 3500 
L 594 4494 
L 1172 4494 
z
" transform="scale(0.015625)"/>
       <path id="DejaVuSans-63" d="M 3122 3366 
L 3122 2828 
Q 2878 2963 2633 3030 
Q 2388 3097 2138 3097 
Q 1578 3097 1268 2742 
Q 959 2388 959 1747 
Q 959 1106 1268 751 
Q 1578 397 2138 397 
Q 2388 397 2633 464 
Q 2878 531 3122 666 
L 3122 134 
Q 2881 22 2623 -34 
Q 2366 -91 2075 -91 
Q 1284 -91 818 406 
Q 353 903 353 1747 
Q 353 2603 823 3093 
Q 1294 3584 2113 3584 
Q 2378 3584 2631 3529 
Q 2884 3475 3122 3366 
z
" transform="scale(0.015625)"/>
       <path id="DejaVuSans-70" d="M 1159 525 
L 1159 -1331 
L 581 -1331 
L 581 3500 
L 1159 3500 
L 1159 2969 
Q 1341 3281 1617 3432 
Q 1894 3584 2278 3584 
Q 2916 3584 3314 3078 
Q 3713 2572 3713 1747 
Q 3713 922 3314 415 
Q 2916 -91 2278 -91 
Q 1894 -91 1617 61 
Q 1341 213 1159 525 
z
M 3116 1747 
Q 3116 2381 2855 2742 
Q 2594 3103 2138 3103 
Q 1681 3103 1420 2742 
Q 1159 2381 1159 1747 
Q 1159 1113 1420 752 
Q 1681 391 2138 391 
Q 2594 391 2855 752 
Q 3116 1113 3116 1747 
z
" transform="scale(0.015625)"/>
       <path id="DejaVuSans-6b" d="M 581 4863 
L 1159 4863 
L 1159 1991 
L 2875 3500 
L 3609 3500 
L 1753 1863 
L 3688 0 
L 2938 0 
L 1159 1709 
L 1159 0 
L 581 0 
L 581 4863 
z
" transform="scale(0.015625)"/>
      </defs>
      <use xlink:href="#DejaVuSans-4e"/>
      <use xlink:href="#DejaVuSans-75" x="74.804688"/>
      <use xlink:href="#DejaVuSans-6d" x="138.183594"/>
      <use xlink:href="#DejaVuSans-62" x="235.595703"/>
      <use xlink:href="#DejaVuSans-65" x="299.072266"/>
      <use xlink:href="#DejaVuSans-72" x="360.595703"/>
      <use xlink:href="#DejaVuSans-20" x="401.708984"/>
      <use xlink:href="#DejaVuSans-6f" x="433.496094"/>
      <use xlink:href="#DejaVuSans-66" x="494.677734"/>
      <use xlink:href="#DejaVuSans-20" x="529.882812"/>
      <use xlink:href="#DejaVuSans-64" x="561.669922"/>
      <use xlink:href="#DejaVuSans-69" x="625.146484"/>
      <use xlink:href="#DejaVuSans-73" x="652.929688"/>
      <use xlink:href="#DejaVuSans-74" x="705.029297"/>
      <use xlink:href="#DejaVuSans-69" x="744.238281"/>
      <use xlink:href="#DejaVuSans-6e" x="772.021484"/>
      <use xlink:href="#DejaVuSans-63" x="835.400391"/>
      <use xlink:href="#DejaVuSans-74" x="890.380859"/>
      <use xlink:href="#DejaVuSans-20" x="929.589844"/>
      <use xlink:href="#DejaVuSans-6f" x="961.376953"/>
      <use xlink:href="#DejaVuSans-75" x="1022.558594"/>
      <use xlink:href="#DejaVuSans-74" x="1085.9375"/>
      <use xlink:href="#DejaVuSans-70" x="1125.146484"/>
      <use xlink:href="#DejaVuSans-75" x="1188.623047"/>
      <use xlink:href="#DejaVuSans-74" x="1252.001953"/>
      <use xlink:href="#DejaVuSans-20" x="1291.210938"/>
      <use xlink:href="#DejaVuSans-6e" x="1322.998047"/>
      <use xlink:href="#DejaVuSans-65" x="1386.376953"/>
      <use xlink:href="#DejaVuSans-75" x="1447.900391"/>
      <use xlink:href="#DejaVuSans-72" x="1511.279297"/>
      <use xlink:href="#DejaVuSans-6f" x="1550.142578"/>
      <use xlink:href="#DejaVuSans-6e" x="1611.324219"/>
      <use xlink:href="#DejaVuSans-73" x="1674.703125"/>
      <use xlink:href="#DejaVuSans-20" x="1726.802734"/>
      <use xlink:href="#DejaVuSans-73" x="1758.589844"/>
      <use xlink:href="#DejaVuSans-70" x="1810.689453"/>
      <use xlink:href="#DejaVuSans-69" x="1874.166016"/>
      <use xlink:href="#DejaVuSans-6b" x="1901.949219"/>
      <use xlink:href="#DejaVuSans-69" x="1959.859375"/>
      <use xlink:href="#DejaVuSans-6e" x="1987.642578"/>
      <use xlink:href="#DejaVuSans-67" x="2051.021484"/>
     </g>
    </g>
   </g>
   <g id="line2d_15">
    <path d="M 73.832727 53.568 
L 74.157544 53.568 
L 74.238748 80.448 
L 74.401157 53.568 
L 74.482361 80.448 
L 74.64477 53.568 
L 74.725974 53.568 
L 74.888382 80.448 
L 75.050791 53.568 
L 75.375608 53.568 
L 75.456812 80.448 
L 75.619221 53.568 
L 76.18765 53.568 
L 76.350059 80.448 
L 76.512467 53.568 
L 77.32451 53.568 
L 77.405714 80.448 
L 77.568122 53.568 
L 77.974143 53.568 
L 78.055348 80.448 
L 78.136552 53.568 
L 78.217756 80.448 
L 78.380165 53.568 
L 78.948594 53.568 
L 79.029799 80.448 
L 79.192207 53.568 
L 79.273411 53.568 
L 79.354615 107.328 
L 79.43582 53.568 
L 79.517024 80.448 
L 79.679432 53.568 
L 79.760637 80.448 
L 79.923045 53.568 
L 81.222313 53.568 
L 81.384721 80.448 
L 81.465926 53.568 
L 81.54713 134.208 
L 81.709538 53.568 
L 82.440377 53.568 
L 82.521581 80.448 
L 82.683989 53.568 
L 82.765194 107.328 
L 82.927602 53.568 
L 83.008806 53.568 
L 83.09001 107.328 
L 83.171215 53.568 
L 83.333623 80.448 
L 83.496032 53.568 
L 83.983257 53.568 
L 84.064461 80.448 
L 84.145666 53.568 
L 84.22687 80.448 
L 84.389278 53.568 
L 84.714095 53.568 
L 84.876504 80.448 
L 85.038912 53.568 
L 85.201321 80.448 
L 85.363729 53.568 
L 85.688546 53.568 
L 85.76975 80.448 
L 85.932159 53.568 
L 86.013363 107.328 
L 86.175772 53.568 
L 86.662997 53.568 
L 86.744201 80.448 
L 86.825405 53.568 
L 86.90661 80.448 
L 87.069018 53.568 
L 87.150222 53.568 
L 87.312631 107.328 
L 87.393835 80.448 
L 87.475039 107.328 
L 87.556244 53.568 
L 87.637448 80.448 
L 87.718652 53.568 
L 87.799856 80.448 
L 87.881061 53.568 
L 87.962265 80.448 
L 88.124673 53.568 
L 88.611899 53.568 
L 88.774307 80.448 
L 88.855511 80.448 
L 89.01792 53.568 
L 89.099124 80.448 
L 89.180328 53.568 
L 89.261533 80.448 
L 89.423941 53.568 
L 89.58635 80.448 
L 89.667554 80.448 
L 89.748758 53.568 
L 89.829962 80.448 
L 89.992371 53.568 
L 90.317188 53.568 
L 90.398392 80.448 
L 90.479596 53.568 
L 90.642005 107.328 
L 90.804413 80.448 
L 90.885617 80.448 
L 90.966822 107.328 
L 91.210434 53.568 
L 91.778864 53.568 
L 92.022477 107.328 
L 92.184885 53.568 
L 92.347294 80.448 
L 92.428498 80.448 
L 92.509702 107.328 
L 92.590906 53.568 
L 92.753315 80.448 
L 92.834519 53.568 
L 93.078132 107.328 
L 93.321745 53.568 
L 93.484153 107.328 
L 93.565357 53.568 
L 93.646561 107.328 
L 93.80897 80.448 
L 93.890174 107.328 
L 93.971378 53.568 
L 94.052583 107.328 
L 94.214991 53.568 
L 94.296195 107.328 
L 94.458604 53.568 
L 94.539808 107.328 
L 94.783421 53.568 
L 94.864625 53.568 
L 94.945829 161.088 
L 95.108238 107.328 
L 95.189442 80.448 
L 95.270646 107.328 
L 95.433055 80.448 
L 95.514259 80.448 
L 95.676667 134.208 
L 95.839076 80.448 
L 96.001484 134.208 
L 96.082689 134.208 
L 96.163893 53.568 
L 96.245097 107.328 
L 96.326301 53.568 
L 96.569914 107.328 
L 96.732323 80.448 
L 96.813527 107.328 
L 96.894731 80.448 
L 96.975935 134.208 
L 97.138344 53.568 
L 97.219548 107.328 
L 97.300752 80.448 
L 97.381956 134.208 
L 97.463161 107.328 
L 97.544365 134.208 
L 97.625569 53.568 
L 97.706773 134.208 
L 97.787978 107.328 
L 97.950386 80.448 
L 98.275203 187.968 
L 98.356407 107.328 
L 98.437612 134.208 
L 98.60002 80.448 
L 98.924837 161.088 
L 99.087245 107.328 
L 99.412062 187.968 
L 99.574471 134.208 
L 99.655675 161.088 
L 99.736879 107.328 
L 99.899288 134.208 
L 99.980492 80.448 
L 100.142901 161.088 
L 100.224105 134.208 
L 100.386513 187.968 
L 100.548922 134.208 
L 100.630126 134.208 
L 100.792534 161.088 
L 100.954943 134.208 
L 101.036147 134.208 
L 101.117351 80.448 
L 101.360964 161.088 
L 101.442168 107.328 
L 101.604577 187.968 
L 101.685781 80.448 
L 101.766985 214.848 
L 101.84819 187.968 
L 101.929394 134.208 
L 102.010598 187.968 
L 102.173007 134.208 
L 102.254211 107.328 
L 102.416619 214.848 
L 102.497823 134.208 
L 102.579028 161.088 
L 102.82264 161.088 
L 102.985049 214.848 
L 103.066253 134.208 
L 103.147457 161.088 
L 103.228662 214.848 
L 103.39107 134.208 
L 103.472274 161.088 
L 103.553479 134.208 
L 103.634683 214.848 
L 103.715887 187.968 
L 103.797091 161.088 
L 103.878296 187.968 
L 103.9595 161.088 
L 104.040704 214.848 
L 104.203112 161.088 
L 104.284317 161.088 
L 104.365521 214.848 
L 104.527929 161.088 
L 104.609134 161.088 
L 104.771542 241.728 
L 104.852746 241.728 
L 105.096359 161.088 
L 105.258768 187.968 
L 105.50238 134.208 
L 105.583585 187.968 
L 105.745993 161.088 
L 105.908401 241.728 
L 105.989606 134.208 
L 106.152014 214.848 
L 106.233218 134.208 
L 106.395627 268.608 
L 106.63924 134.208 
L 106.882852 268.608 
L 106.964057 187.968 
L 107.045261 241.728 
L 107.288874 187.968 
L 107.370078 187.968 
L 107.532486 241.728 
L 107.61369 241.728 
L 107.694895 187.968 
L 107.857303 241.728 
L 107.938507 268.608 
L 108.18212 187.968 
L 108.344529 268.608 
L 108.425733 187.968 
L 108.506937 214.848 
L 108.588141 241.728 
L 108.75055 214.848 
L 108.831754 214.848 
L 108.912958 187.968 
L 109.156571 241.728 
L 109.237775 187.968 
L 109.400184 268.608 
L 109.481388 268.608 
L 109.562592 187.968 
L 109.725001 241.728 
L 109.806205 161.088 
L 109.968613 241.728 
L 110.131022 187.968 
L 110.29343 268.608 
L 110.374635 268.608 
L 110.455839 107.328 
L 110.618247 241.728 
L 110.699452 214.848 
L 110.780656 295.488 
L 110.86186 268.608 
L 110.943064 187.968 
L 111.024268 214.848 
L 111.186677 214.848 
L 111.267881 241.728 
L 111.349085 187.968 
L 111.511494 241.728 
L 111.592698 241.728 
L 111.673902 268.608 
L 111.836311 187.968 
L 111.998719 268.608 
L 112.079924 187.968 
L 112.242332 241.728 
L 112.485945 241.728 
L 112.567149 214.848 
L 112.648353 241.728 
L 112.729558 214.848 
L 112.810762 268.608 
L 112.97317 187.968 
L 113.054374 268.608 
L 113.135579 241.728 
L 113.216783 187.968 
L 113.379191 241.728 
L 113.460396 214.848 
L 113.5416 268.608 
L 113.704008 187.968 
L 113.866417 268.608 
L 114.191234 187.968 
L 114.434847 241.728 
L 114.516051 161.088 
L 114.678459 241.728 
L 114.759663 214.848 
L 114.840868 268.608 
L 115.003276 241.728 
L 115.165685 268.608 
L 115.246889 268.608 
L 115.409297 187.968 
L 115.490502 241.728 
L 115.65291 214.848 
L 115.734114 241.728 
L 115.815319 214.848 
L 115.977727 268.608 
L 116.058931 268.608 
L 116.140136 214.848 
L 116.302544 268.608 
L 116.383748 268.608 
L 116.546157 214.848 
L 116.627361 214.848 
L 116.870974 268.608 
L 116.952178 268.608 
L 117.033382 214.848 
L 117.276995 268.608 
L 117.439403 241.728 
L 117.520608 241.728 
L 117.683016 268.608 
L 117.76422 268.608 
L 117.926629 241.728 
L 118.089037 241.728 
L 118.170241 268.608 
L 118.251446 241.728 
L 118.33265 268.608 
L 118.495058 214.848 
L 118.657467 268.608 
L 118.90108 214.848 
L 119.063488 295.488 
L 119.225897 241.728 
L 119.307101 214.848 
L 119.388305 268.608 
L 119.469509 241.728 
L 119.631918 295.488 
L 119.713122 214.848 
L 119.794326 268.608 
L 119.956735 241.728 
L 120.119143 268.608 
L 120.200347 214.848 
L 120.281552 268.608 
L 120.362756 214.848 
L 120.44396 268.608 
L 120.606369 214.848 
L 120.768777 268.608 
L 120.849981 214.848 
L 121.01239 241.728 
L 121.174798 241.728 
L 121.256003 268.608 
L 121.337207 241.728 
L 121.58082 295.488 
L 121.743228 241.728 
L 121.824432 268.608 
L 121.905636 241.728 
L 121.986841 268.608 
L 122.068045 214.848 
L 122.311658 295.488 
L 122.392862 268.608 
L 122.474066 295.488 
L 122.636475 268.608 
L 122.717679 295.488 
L 122.961292 241.728 
L 123.042496 241.728 
L 123.286109 295.488 
L 123.448517 241.728 
L 123.610925 268.608 
L 123.773334 268.608 
L 123.935742 241.728 
L 124.016947 268.608 
L 124.098151 241.728 
L 124.260559 295.488 
L 124.422968 214.848 
L 124.504172 241.728 
L 124.666581 268.608 
L 124.828989 214.848 
L 124.991398 295.488 
L 125.153806 241.728 
L 125.23501 295.488 
L 125.478623 241.728 
L 125.641031 268.608 
L 125.722236 268.608 
L 125.80344 241.728 
L 125.965848 295.488 
L 126.128257 241.728 
L 126.290665 268.608 
L 126.37187 241.728 
L 126.534278 268.608 
L 126.615482 268.608 
L 126.777891 241.728 
L 126.859095 241.728 
L 126.940299 295.488 
L 127.102708 241.728 
L 127.183912 295.488 
L 127.34632 268.608 
L 127.427525 295.488 
L 127.671137 241.728 
L 127.752342 268.608 
L 127.833546 241.728 
L 127.995954 295.488 
L 128.077159 241.728 
L 128.158363 268.608 
L 128.320771 241.728 
L 128.564384 241.728 
L 128.645588 268.608 
L 128.807997 241.728 
L 128.889201 295.488 
L 129.132814 241.728 
L 129.295222 268.608 
L 129.376426 241.728 
L 129.457631 268.608 
L 129.620039 241.728 
L 129.782448 268.608 
L 129.863652 241.728 
L 129.944856 268.608 
L 130.107265 214.848 
L 130.269673 295.488 
L 130.350877 295.488 
L 130.432081 268.608 
L 130.513286 295.488 
L 130.59449 241.728 
L 130.756898 295.488 
L 131.000511 241.728 
L 131.16292 268.608 
L 131.244124 268.608 
L 131.325328 241.728 
L 131.406532 268.608 
L 131.487737 214.848 
L 131.568941 295.488 
L 131.650145 268.608 
L 131.812554 214.848 
L 131.893758 268.608 
L 131.974962 214.848 
L 132.137371 268.608 
L 132.218575 241.728 
L 132.380983 268.608 
L 132.462187 268.608 
L 132.543392 295.488 
L 132.7058 268.608 
L 132.787004 268.608 
L 132.868209 241.728 
L 132.949413 268.608 
L 133.111821 241.728 
L 133.193026 241.728 
L 133.27423 295.488 
L 133.355434 241.728 
L 133.436638 268.608 
L 133.517843 241.728 
L 133.680251 268.608 
L 133.761455 268.608 
L 133.84266 295.488 
L 133.923864 241.728 
L 134.086272 295.488 
L 134.248681 268.608 
L 134.329885 268.608 
L 134.411089 214.848 
L 134.573498 295.488 
L 134.735906 241.728 
L 134.898315 295.488 
L 135.141927 241.728 
L 135.223132 241.728 
L 135.38554 268.608 
L 135.466744 268.608 
L 135.547949 241.728 
L 135.629153 295.488 
L 135.791561 268.608 
L 136.035174 268.608 
L 136.116378 241.728 
L 136.197582 295.488 
L 136.278787 241.728 
L 136.441195 268.608 
L 136.766012 268.608 
L 136.847216 295.488 
L 137.009625 241.728 
L 137.172033 268.608 
L 137.49685 268.608 
L 137.659259 241.728 
L 137.821667 268.608 
L 137.902871 241.728 
L 138.06528 268.608 
L 138.308893 268.608 
L 138.390097 241.728 
L 138.552505 268.608 
L 138.63371 268.608 
L 138.714914 241.728 
L 138.877322 268.608 
L 138.958527 268.608 
L 139.039731 241.728 
L 139.202139 268.608 
L 139.445752 268.608 
L 139.526956 241.728 
L 139.60816 268.608 
L 139.689365 241.728 
L 139.851773 268.608 
L 139.932977 268.608 
L 140.095386 241.728 
L 140.257794 295.488 
L 140.338999 268.608 
L 140.420203 295.488 
L 140.663816 241.728 
L 140.907428 295.488 
L 140.988632 241.728 
L 141.069837 268.608 
L 141.151041 241.728 
L 141.232245 295.488 
L 141.394654 268.608 
L 141.475858 268.608 
L 141.638266 295.488 
L 141.719471 268.608 
L 141.800675 295.488 
L 141.881879 241.728 
L 141.963083 295.488 
L 142.125492 268.608 
L 142.2879 268.608 
L 142.450309 295.488 
L 142.531513 241.728 
L 142.612717 295.488 
L 142.775126 268.608 
L 143.099943 268.608 
L 143.181147 295.488 
L 143.262351 241.728 
L 143.343555 295.488 
L 143.42476 241.728 
L 143.505964 268.608 
L 143.749577 214.848 
L 143.911985 268.608 
L 143.993189 268.608 
L 144.074394 295.488 
L 144.155598 241.728 
L 144.236802 295.488 
L 144.399211 241.728 
L 144.561619 268.608 
L 144.96764 268.608 
L 145.130049 295.488 
L 145.292457 241.728 
L 145.373661 295.488 
L 145.53607 241.728 
L 145.617274 268.608 
L 145.779683 214.848 
L 145.942091 295.488 
L 146.1045 268.608 
L 146.185704 268.608 
L 146.266908 295.488 
L 146.348112 268.608 
L 146.429316 295.488 
L 146.510521 268.608 
L 146.591725 295.488 
L 146.754133 241.728 
L 146.835338 295.488 
L 146.916542 268.608 
L 146.997746 295.488 
L 147.07895 268.608 
L 147.160155 295.488 
L 147.322563 268.608 
L 147.484972 295.488 
L 147.64738 268.608 
L 147.728584 268.608 
L 147.809789 241.728 
L 147.972197 268.608 
L 148.053401 268.608 
L 148.21581 241.728 
L 148.378218 268.608 
L 148.459422 241.728 
L 148.621831 295.488 
L 148.865444 241.728 
L 148.946648 295.488 
L 149.027852 241.728 
L 149.190261 268.608 
L 149.515078 268.608 
L 149.596282 295.488 
L 149.75869 241.728 
L 150.002303 295.488 
L 150.083507 295.488 
L 150.164711 241.728 
L 150.245916 295.488 
L 150.32712 268.608 
L 150.408324 295.488 
L 150.651937 241.728 
L 150.814345 268.608 
L 150.89555 241.728 
L 150.976754 295.488 
L 151.057958 241.728 
L 151.139162 268.608 
L 151.220367 241.728 
L 151.382775 295.488 
L 151.463979 241.728 
L 151.545184 295.488 
L 151.626388 241.728 
L 151.788796 295.488 
L 152.032409 241.728 
L 152.194817 268.608 
L 152.276022 241.728 
L 152.43843 268.608 
L 152.763247 268.608 
L 152.844451 295.488 
L 153.00686 268.608 
L 153.088064 268.608 
L 153.169268 241.728 
L 153.331677 295.488 
L 153.494085 241.728 
L 153.575289 268.608 
L 153.656494 241.728 
L 153.737698 268.608 
L 153.900106 241.728 
L 154.062515 295.488 
L 154.306128 241.728 
L 154.468536 268.608 
L 154.630945 268.608 
L 154.793353 241.728 
L 155.036966 295.488 
L 155.11817 268.608 
L 155.280578 295.488 
L 155.361783 241.728 
L 155.524191 268.608 
L 155.6866 268.608 
L 155.767804 295.488 
L 155.849008 241.728 
L 156.011417 268.608 
L 156.173825 241.728 
L 156.255029 295.488 
L 156.336234 241.728 
L 156.498642 268.608 
L 156.742255 268.608 
L 156.904663 241.728 
L 156.985867 295.488 
L 157.148276 268.608 
L 157.473093 268.608 
L 157.635501 241.728 
L 157.79791 268.608 
L 157.879114 241.728 
L 158.122727 295.488 
L 158.203931 214.848 
L 158.36634 268.608 
L 158.447544 241.728 
L 158.691156 295.488 
L 158.772361 295.488 
L 159.015973 241.728 
L 159.259586 295.488 
L 159.34079 295.488 
L 159.503199 268.608 
L 159.584403 295.488 
L 159.665607 268.608 
L 159.828016 295.488 
L 159.90922 295.488 
L 160.071629 268.608 
L 160.234037 295.488 
L 160.396445 268.608 
L 160.558854 295.488 
L 160.721262 241.728 
L 160.802467 295.488 
L 160.964875 241.728 
L 161.127284 295.488 
L 161.208488 295.488 
L 161.370896 268.608 
L 161.533305 268.608 
L 161.614509 241.728 
L 161.776918 295.488 
L 161.858122 268.608 
L 162.02053 295.488 
L 162.101735 241.728 
L 162.345347 295.488 
L 162.426551 295.488 
L 162.58896 268.608 
L 162.751368 295.488 
L 162.913777 241.728 
L 162.994981 295.488 
L 163.15739 268.608 
L 163.238594 268.608 
L 163.319798 295.488 
L 163.482207 241.728 
L 163.563411 268.608 
L 163.644615 241.728 
L 163.725819 268.608 
L 163.888228 241.728 
L 164.050636 295.488 
L 164.213045 268.608 
L 164.294249 268.608 
L 164.375453 295.488 
L 164.456657 241.728 
L 164.619066 268.608 
L 164.70027 241.728 
L 164.943883 295.488 
L 165.187496 241.728 
L 165.2687 295.488 
L 165.431108 268.608 
L 165.593517 268.608 
L 165.755925 241.728 
L 165.837129 241.728 
L 165.999538 268.608 
L 166.080742 268.608 
L 166.161946 295.488 
L 166.324355 214.848 
L 166.486763 268.608 
L 166.567968 295.488 
L 166.730376 268.608 
L 166.81158 268.608 
L 166.973989 295.488 
L 167.055193 268.608 
L 167.136397 295.488 
L 167.298806 268.608 
L 167.867235 268.608 
L 167.94844 295.488 
L 168.029644 268.608 
L 168.110848 295.488 
L 168.273257 268.608 
L 168.354461 268.608 
L 168.435665 241.728 
L 168.598074 295.488 
L 168.760482 268.608 
L 168.841686 295.488 
L 169.004095 268.608 
L 169.085299 268.608 
L 169.247707 241.728 
L 169.328912 241.728 
L 169.410116 268.608 
L 169.49132 241.728 
L 169.653729 295.488 
L 169.816137 268.608 
L 169.978546 268.608 
L 170.05975 295.488 
L 170.303363 241.728 
L 170.465771 295.488 
L 170.546975 268.608 
L 170.62818 295.488 
L 170.790588 241.728 
L 170.952996 268.608 
L 171.034201 241.728 
L 171.115405 295.488 
L 171.196609 268.608 
L 171.277813 295.488 
L 171.521426 241.728 
L 171.683835 295.488 
L 171.846243 241.728 
L 172.008652 268.608 
L 172.089856 241.728 
L 172.17106 295.488 
L 172.252264 241.728 
L 172.495877 295.488 
L 172.577081 295.488 
L 172.73949 268.608 
L 172.983102 268.608 
L 173.064307 241.728 
L 173.226715 268.608 
L 173.795145 268.608 
L 173.957553 241.728 
L 174.119962 295.488 
L 174.363575 241.728 
L 174.444779 268.608 
L 174.525983 241.728 
L 174.607187 295.488 
L 174.8508 241.728 
L 175.013208 295.488 
L 175.094413 241.728 
L 175.256821 268.608 
L 175.338025 241.728 
L 175.500434 268.608 
L 175.662842 268.608 
L 175.744047 295.488 
L 175.825251 241.728 
L 175.906455 295.488 
L 176.068864 214.848 
L 176.150068 295.488 
L 176.231272 268.608 
L 176.637293 268.608 
L 176.718497 241.728 
L 176.880906 295.488 
L 177.043314 268.608 
L 177.205723 268.608 
L 177.368131 295.488 
L 177.53054 241.728 
L 177.692948 268.608 
L 177.936561 268.608 
L 178.017765 241.728 
L 178.098969 295.488 
L 178.180174 268.608 
L 178.342582 295.488 
L 178.423786 295.488 
L 178.586195 241.728 
L 178.748603 295.488 
L 178.829808 241.728 
L 179.07342 295.488 
L 179.235829 241.728 
L 179.398237 268.608 
L 179.560646 268.608 
L 179.64185 241.728 
L 179.804258 295.488 
L 179.966667 268.608 
L 180.047871 268.608 
L 180.21028 241.728 
L 180.453892 295.488 
L 180.616301 268.608 
L 181.184731 268.608 
L 181.265935 241.728 
L 181.347139 268.608 
L 181.428343 241.728 
L 181.509548 295.488 
L 181.671956 268.608 
L 181.75316 268.608 
L 181.915569 241.728 
L 182.077977 268.608 
L 182.240386 241.728 
L 182.32159 241.728 
L 182.402794 268.608 
L 182.483998 241.728 
L 182.565203 295.488 
L 182.646407 268.608 
L 182.727611 295.488 
L 182.808815 241.728 
L 182.971224 295.488 
L 183.052428 241.728 
L 183.214837 295.488 
L 183.377245 214.848 
L 183.539653 268.608 
L 183.620858 241.728 
L 183.783266 268.608 
L 183.86447 268.608 
L 183.945675 241.728 
L 184.026879 295.488 
L 184.270492 241.728 
L 184.4329 268.608 
L 184.514104 268.608 
L 184.595309 241.728 
L 184.676513 295.488 
L 184.838921 268.608 
L 184.920126 268.608 
L 185.00133 295.488 
L 185.163738 268.608 
L 185.326147 268.608 
L 185.407351 295.488 
L 185.488555 241.728 
L 185.650964 295.488 
L 185.732168 241.728 
L 185.813372 295.488 
L 185.975781 241.728 
L 186.056985 295.488 
L 186.219393 268.608 
L 186.300598 268.608 
L 186.381802 295.488 
L 186.463006 241.728 
L 186.54421 268.608 
L 186.706619 241.728 
L 186.787823 268.608 
L 186.869027 241.728 
L 187.031436 268.608 
L 187.275048 268.608 
L 187.437457 295.488 
L 187.599865 268.608 
L 187.68107 268.608 
L 187.762274 295.488 
L 187.924682 268.608 
L 188.411908 268.608 
L 188.493112 295.488 
L 188.65552 268.608 
L 188.736725 268.608 
L 188.817929 295.488 
L 188.980337 268.608 
L 189.061542 268.608 
L 189.22395 295.488 
L 189.386359 268.608 
L 189.467563 268.608 
L 189.548767 241.728 
L 189.629971 295.488 
L 189.79238 241.728 
L 190.035993 295.488 
L 190.117197 268.608 
L 190.198401 295.488 
L 190.360809 241.728 
L 190.442014 268.608 
L 190.523218 241.728 
L 190.604422 268.608 
L 190.685626 241.728 
L 190.848035 295.488 
L 190.929239 268.608 
L 191.010443 295.488 
L 191.254056 241.728 
L 191.33526 295.488 
L 191.497669 268.608 
L 191.578873 268.608 
L 191.660077 295.488 
L 191.741282 268.608 
L 191.90369 295.488 
L 191.984894 268.608 
L 192.066099 295.488 
L 192.228507 268.608 
L 192.309711 295.488 
L 192.553324 241.728 
L 192.715732 295.488 
L 192.878141 268.608 
L 193.365366 268.608 
L 193.446571 214.848 
L 193.608979 295.488 
L 193.690183 241.728 
L 193.933796 295.488 
L 194.177409 295.488 
L 194.258613 268.608 
L 194.339817 295.488 
L 194.58343 241.728 
L 194.745838 268.608 
L 194.827043 268.608 
L 194.989451 295.488 
L 195.15186 268.608 
L 195.233064 295.488 
L 195.314268 268.608 
L 195.395472 295.488 
L 195.639085 241.728 
L 195.801493 295.488 
L 195.882698 241.728 
L 196.045106 268.608 
L 196.207515 268.608 
L 196.288719 241.728 
L 196.451127 268.608 
L 196.532332 241.728 
L 196.775944 295.488 
L 196.938353 268.608 
L 197.019557 295.488 
L 197.181966 268.608 
L 197.26317 295.488 
L 197.344374 268.608 
L 197.425578 295.488 
L 197.587987 241.728 
L 197.669191 241.728 
L 197.750395 295.488 
L 197.831599 241.728 
L 197.912804 295.488 
L 197.994008 241.728 
L 198.075212 295.488 
L 198.237621 268.608 
L 198.400029 268.608 
L 198.481233 241.728 
L 198.643642 295.488 
L 198.724846 241.728 
L 198.887255 268.608 
L 198.968459 241.728 
L 199.130867 295.488 
L 199.293276 241.728 
L 199.455684 268.608 
L 199.536888 268.608 
L 199.699297 295.488 
L 199.861705 241.728 
L 200.024114 268.608 
L 200.105318 241.728 
L 200.186522 295.488 
L 200.348931 241.728 
L 200.511339 295.488 
L 200.592544 295.488 
L 200.673748 268.608 
L 200.754952 295.488 
L 200.91736 268.608 
L 200.998565 268.608 
L 201.079769 295.488 
L 201.160973 268.608 
L 201.242177 295.488 
L 201.323382 241.728 
L 201.48579 268.608 
L 201.566994 268.608 
L 201.648199 295.488 
L 201.729403 268.608 
L 201.810607 295.488 
L 201.973016 268.608 
L 202.135424 268.608 
L 202.297833 295.488 
L 202.379037 295.488 
L 202.541445 268.608 
L 202.703854 295.488 
L 202.785058 241.728 
L 202.947466 295.488 
L 203.028671 241.728 
L 203.191079 268.608 
L 203.272283 268.608 
L 203.353488 295.488 
L 203.5971 241.728 
L 203.678305 241.728 
L 203.840713 268.608 
L 204.084326 268.608 
L 204.16553 241.728 
L 204.246734 268.608 
L 204.327939 241.728 
L 204.409143 295.488 
L 204.571551 241.728 
L 204.815164 295.488 
L 204.896368 268.608 
L 204.977572 295.488 
L 205.139981 241.728 
L 205.302389 295.488 
L 205.464798 268.608 
L 205.546002 295.488 
L 205.627206 268.608 
L 205.789615 295.488 
L 205.870819 268.608 
L 205.952023 295.488 
L 206.033228 268.608 
L 206.114432 295.488 
L 206.27684 268.608 
L 206.358044 268.608 
L 206.439249 295.488 
L 206.682861 241.728 
L 206.764066 241.728 
L 206.84527 268.608 
L 206.926474 241.728 
L 207.088883 268.608 
L 207.170087 268.608 
L 207.332495 295.488 
L 207.4137 241.728 
L 207.576108 268.608 
L 207.657312 268.608 
L 207.738517 241.728 
L 207.900925 295.488 
L 207.982129 268.608 
L 208.063333 295.488 
L 208.225742 241.728 
L 208.38815 295.488 
L 208.469355 241.728 
L 208.550559 295.488 
L 208.712967 268.608 
L 208.875376 295.488 
L 208.95658 241.728 
L 209.118989 295.488 
L 209.362601 241.728 
L 209.52501 268.608 
L 209.849827 268.608 
L 209.931031 241.728 
L 210.093439 268.608 
L 210.174644 268.608 
L 210.255848 295.488 
L 210.499461 241.728 
L 210.661869 268.608 
L 210.743073 241.728 
L 210.824278 295.488 
L 210.986686 241.728 
L 211.06789 295.488 
L 211.311503 241.728 
L 211.473912 295.488 
L 211.555116 295.488 
L 211.63632 241.728 
L 211.879933 295.488 
L 211.961137 268.608 
L 212.042341 295.488 
L 212.20475 268.608 
L 212.285954 295.488 
L 212.367158 268.608 
L 212.529567 295.488 
L 212.610771 295.488 
L 212.773179 268.608 
L 213.341609 268.608 
L 213.422813 295.488 
L 213.585222 241.728 
L 213.828834 241.728 
L 213.910039 268.608 
L 213.991243 241.728 
L 214.234856 295.488 
L 214.31606 295.488 
L 214.478468 268.608 
L 214.559673 268.608 
L 214.640877 295.488 
L 214.722081 241.728 
L 214.803285 295.488 
L 214.965694 268.608 
L 215.290511 268.608 
L 215.371715 295.488 
L 215.534123 268.608 
L 215.615328 268.608 
L 215.696532 295.488 
L 215.777736 241.728 
L 215.85894 268.608 
L 215.940145 241.728 
L 216.102553 268.608 
L 216.42737 268.608 
L 216.508574 295.488 
L 216.589779 241.728 
L 216.752187 268.608 
L 216.9958 268.608 
L 217.158208 241.728 
L 217.401821 295.488 
L 217.564229 241.728 
L 217.645434 295.488 
L 217.726638 241.728 
L 217.889046 295.488 
L 217.970251 241.728 
L 218.213863 295.488 
L 218.295068 295.488 
L 218.376272 241.728 
L 218.53868 268.608 
L 218.782293 268.608 
L 218.863497 241.728 
L 219.10711 295.488 
L 219.188314 268.608 
L 219.269518 295.488 
L 219.431927 241.728 
L 219.513131 295.488 
L 219.594335 268.608 
L 219.67554 295.488 
L 219.919152 241.728 
L 220.000357 295.488 
L 220.162765 268.608 
L 220.243969 268.608 
L 220.325173 295.488 
L 220.568786 241.728 
L 220.64999 241.728 
L 220.812399 295.488 
L 220.893603 241.728 
L 220.974807 295.488 
L 221.056012 241.728 
L 221.137216 295.488 
L 221.21842 241.728 
L 221.380829 268.608 
L 221.462033 241.728 
L 221.705646 295.488 
L 221.78685 268.608 
L 221.868054 295.488 
L 221.949258 241.728 
L 222.111667 295.488 
L 222.192871 268.608 
L 222.355279 295.488 
L 222.436484 295.488 
L 222.598892 268.608 
L 222.680096 295.488 
L 222.842505 241.728 
L 222.923709 241.728 
L 223.167322 295.488 
L 223.248526 241.728 
L 223.410935 268.608 
L 223.492139 268.608 
L 223.573343 295.488 
L 223.816956 241.728 
L 223.979364 268.608 
L 224.141773 268.608 
L 224.222977 295.488 
L 224.304181 268.608 
L 224.385385 295.488 
L 224.46659 241.728 
L 224.628998 295.488 
L 224.791407 241.728 
L 224.953815 295.488 
L 225.116224 268.608 
L 225.278632 268.608 
L 225.441041 295.488 
L 225.603449 295.488 
L 225.847062 241.728 
L 226.090674 295.488 
L 226.171879 295.488 
L 226.253083 268.608 
L 226.334287 295.488 
L 226.415491 241.728 
L 226.496696 268.608 
L 226.740308 214.848 
L 226.902717 295.488 
L 226.983921 295.488 
L 227.065125 268.608 
L 227.14633 295.488 
L 227.227534 268.608 
L 227.308738 295.488 
L 227.389942 268.608 
L 227.471146 295.488 
L 227.552351 241.728 
L 227.714759 295.488 
L 227.795963 295.488 
L 227.877168 268.608 
L 228.039576 295.488 
L 228.12078 241.728 
L 228.283189 295.488 
L 228.364393 241.728 
L 228.445597 295.488 
L 228.68921 241.728 
L 228.851619 295.488 
L 229.014027 268.608 
L 229.095231 268.608 
L 229.176435 241.728 
L 229.338844 295.488 
L 229.501252 268.608 
L 229.582457 268.608 
L 229.663661 295.488 
L 229.826069 241.728 
L 229.988478 295.488 
L 230.069682 295.488 
L 230.232091 241.728 
L 230.313295 295.488 
L 230.556908 241.728 
L 230.638112 241.728 
L 230.881724 295.488 
L 230.962929 295.488 
L 231.206541 241.728 
L 231.36895 268.608 
L 231.450154 268.608 
L 231.531358 241.728 
L 231.693767 295.488 
L 231.774971 268.608 
L 231.856175 295.488 
L 232.018584 268.608 
L 232.180992 295.488 
L 232.262197 295.488 
L 232.424605 268.608 
L 232.505809 295.488 
L 232.749422 241.728 
L 232.91183 268.608 
L 233.074239 241.728 
L 233.317852 295.488 
L 233.48026 268.608 
L 233.642669 268.608 
L 233.723873 241.728 
L 233.805077 295.488 
L 233.886281 268.608 
L 233.967486 295.488 
L 234.04869 241.728 
L 234.292303 295.488 
L 234.373507 241.728 
L 234.454711 268.608 
L 234.535915 241.728 
L 234.617119 268.608 
L 234.698324 241.728 
L 234.779528 268.608 
L 234.860732 241.728 
L 235.023141 295.488 
L 235.185549 268.608 
L 235.347958 295.488 
L 235.429162 268.608 
L 235.510366 295.488 
L 235.59157 241.728 
L 235.672775 295.488 
L 235.916387 241.728 
L 235.997592 295.488 
L 236.078796 268.608 
L 236.241204 295.488 
L 236.322408 268.608 
L 236.403613 295.488 
L 236.484817 241.728 
L 236.647225 295.488 
L 236.809634 268.608 
L 236.972042 268.608 
L 237.053247 295.488 
L 237.134451 241.728 
L 237.215655 295.488 
L 237.378064 241.728 
L 237.540472 268.608 
L 237.865289 268.608 
L 237.946493 241.728 
L 238.027697 295.488 
L 238.190106 268.608 
L 238.352514 295.488 
L 238.596127 295.488 
L 238.83974 241.728 
L 238.920944 295.488 
L 239.002148 241.728 
L 239.083353 295.488 
L 239.245761 268.608 
L 239.489374 268.608 
L 239.570578 241.728 
L 239.651782 295.488 
L 239.732986 268.608 
L 239.895395 295.488 
L 240.057803 268.608 
L 240.139008 268.608 
L 240.301416 295.488 
L 240.463825 241.728 
L 240.626233 268.608 
L 240.707437 241.728 
L 240.788642 295.488 
L 240.869846 241.728 
L 241.032254 295.488 
L 241.194663 241.728 
L 241.438276 295.488 
L 241.51948 268.608 
L 241.681888 295.488 
L 241.844297 268.608 
L 241.925501 295.488 
L 242.006705 268.608 
L 242.087909 295.488 
L 242.250318 268.608 
L 242.331522 268.608 
L 242.412726 295.488 
L 242.575135 241.728 
L 242.656339 295.488 
L 242.818748 268.608 
L 242.899952 268.608 
L 242.981156 241.728 
L 243.06236 295.488 
L 243.143565 241.728 
L 243.305973 268.608 
L 243.387177 241.728 
L 243.549586 295.488 
L 243.63079 241.728 
L 243.711994 295.488 
L 243.874403 241.728 
L 244.036811 295.488 
L 244.118015 241.728 
L 244.280424 295.488 
L 244.442832 268.608 
L 244.524037 268.608 
L 244.605241 295.488 
L 244.848854 241.728 
L 245.011262 295.488 
L 245.092466 241.728 
L 245.254875 268.608 
L 245.498487 268.608 
L 245.579692 295.488 
L 245.7421 268.608 
L 245.985713 268.608 
L 246.066917 295.488 
L 246.31053 241.728 
L 246.391734 268.608 
L 246.472938 241.728 
L 246.635347 268.608 
L 246.797755 268.608 
L 246.960164 295.488 
L 247.122572 268.608 
L 247.284981 295.488 
L 247.447389 295.488 
L 247.609798 268.608 
L 247.691002 295.488 
L 247.772206 214.848 
L 247.934615 268.608 
L 248.097023 268.608 
L 248.178227 241.728 
L 248.259432 295.488 
L 248.42184 268.608 
L 248.503044 268.608 
L 248.584248 295.488 
L 248.746657 268.608 
L 248.909065 268.608 
L 248.99027 295.488 
L 249.152678 268.608 
L 249.233882 295.488 
L 249.396291 268.608 
L 249.802312 268.608 
L 249.964721 241.728 
L 250.045925 241.728 
L 250.127129 295.488 
L 250.289537 268.608 
L 250.370742 295.488 
L 250.451946 241.728 
L 250.53315 295.488 
L 250.695559 241.728 
L 250.939171 295.488 
L 251.10158 268.608 
L 251.182784 268.608 
L 251.263988 241.728 
L 251.426397 268.608 
L 251.751214 268.608 
L 251.832418 241.728 
L 252.076031 295.488 
L 252.238439 295.488 
L 252.400848 268.608 
L 252.563256 295.488 
L 252.725665 268.608 
L 252.888073 268.608 
L 252.969277 295.488 
L 253.131686 268.608 
L 253.21289 295.488 
L 253.294094 241.728 
L 253.537707 295.488 
L 253.618911 295.488 
L 253.700116 268.608 
L 253.862524 295.488 
L 253.943728 295.488 
L 254.106137 268.608 
L 254.268545 295.488 
L 254.430954 268.608 
L 254.512158 268.608 
L 254.674566 241.728 
L 254.918179 295.488 
L 255.080588 268.608 
L 255.161792 295.488 
L 255.242996 268.608 
L 255.3242 295.488 
L 255.486609 268.608 
L 255.649017 295.488 
L 255.730221 295.488 
L 255.89263 268.608 
L 255.973834 268.608 
L 256.055038 295.488 
L 256.217447 241.728 
L 256.379855 268.608 
L 256.46106 241.728 
L 256.623468 268.608 
L 256.948285 268.608 
L 257.029489 295.488 
L 257.273102 241.728 
L 257.354306 268.608 
L 257.43551 241.728 
L 257.516715 268.608 
L 257.597919 241.728 
L 257.760327 295.488 
L 257.922736 268.608 
L 258.085144 268.608 
L 258.166349 295.488 
L 258.247553 268.608 
L 258.328757 295.488 
L 258.491166 268.608 
L 258.57237 268.608 
L 258.653574 295.488 
L 258.734778 268.608 
L 258.897187 295.488 
L 258.978391 268.608 
L 259.059595 295.488 
L 259.140799 241.728 
L 259.303208 295.488 
L 259.465616 214.848 
L 259.546821 268.608 
L 259.628025 241.728 
L 259.709229 295.488 
L 259.790433 268.608 
L 259.871638 295.488 
L 260.034046 268.608 
L 260.358863 268.608 
L 260.440067 295.488 
L 260.521272 268.608 
L 260.602476 295.488 
L 260.68368 241.728 
L 260.846088 268.608 
L 260.927293 268.608 
L 261.008497 295.488 
L 261.170905 268.608 
L 261.820539 268.608 
L 261.901744 241.728 
L 261.982948 295.488 
L 262.064152 241.728 
L 262.226561 268.608 
L 262.388969 268.608 
L 262.470173 241.728 
L 262.551378 295.488 
L 262.713786 241.728 
L 262.79499 214.848 
L 262.957399 268.608 
L 263.038603 268.608 
L 263.119807 295.488 
L 263.282216 241.728 
L 263.444624 268.608 
L 263.607033 268.608 
L 263.769441 295.488 
L 263.850645 268.608 
L 263.93185 295.488 
L 264.013054 241.728 
L 264.094258 295.488 
L 264.256667 268.608 
L 264.337871 268.608 
L 264.419075 295.488 
L 264.581483 268.608 
L 264.662688 268.608 
L 264.825096 241.728 
L 264.987505 268.608 
L 265.231117 268.608 
L 265.312322 295.488 
L 265.393526 268.608 
L 265.47473 295.488 
L 265.637139 268.608 
L 266.124364 268.608 
L 266.205568 241.728 
L 266.367977 268.608 
L 266.692794 268.608 
L 266.773998 295.488 
L 266.855202 268.608 
L 266.936406 295.488 
L 267.098815 268.608 
L 267.180019 295.488 
L 267.342428 241.728 
L 267.504836 268.608 
L 267.58604 268.608 
L 267.667245 241.728 
L 267.748449 295.488 
L 267.910857 268.608 
L 268.235674 268.608 
L 268.316878 295.488 
L 268.398083 241.728 
L 268.479287 295.488 
L 268.560491 241.728 
L 268.641695 268.608 
L 268.7229 241.728 
L 268.966512 295.488 
L 269.128921 268.608 
L 269.210125 268.608 
L 269.372534 295.488 
L 269.534942 268.608 
L 269.616146 268.608 
L 269.69735 295.488 
L 269.778555 268.608 
L 269.940963 295.488 
L 270.022167 295.488 
L 270.184576 268.608 
L 270.509393 268.608 
L 270.590597 241.728 
L 270.753006 295.488 
L 270.83421 268.608 
L 270.915414 295.488 
L 271.077823 268.608 
L 271.159027 295.488 
L 271.321435 268.608 
L 271.40264 268.608 
L 271.565048 241.728 
L 271.727456 268.608 
L 271.971069 268.608 
L 272.052273 241.728 
L 272.133478 268.608 
L 272.295886 241.728 
L 272.458295 268.608 
L 272.620703 268.608 
L 272.783112 295.488 
L 272.864316 295.488 
L 273.026724 268.608 
L 273.189133 268.608 
L 273.351541 295.488 
L 273.432745 241.728 
L 273.51395 295.488 
L 273.595154 241.728 
L 273.676358 268.608 
L 273.757562 241.728 
L 273.838767 295.488 
L 273.919971 241.728 
L 274.001175 295.488 
L 274.163584 268.608 
L 274.244788 295.488 
L 274.407196 241.728 
L 274.569605 241.728 
L 274.650809 295.488 
L 274.732013 268.608 
L 274.813218 295.488 
L 274.975626 268.608 
L 275.05683 295.488 
L 275.219239 268.608 
L 275.300443 295.488 
L 275.381647 268.608 
L 275.544056 295.488 
L 275.62526 268.608 
L 275.787668 295.488 
L 275.950077 268.608 
L 276.112485 295.488 
L 276.274894 268.608 
L 276.599711 268.608 
L 276.762119 241.728 
L 276.924528 268.608 
L 277.005732 268.608 
L 277.16814 295.488 
L 277.249345 295.488 
L 277.411753 241.728 
L 277.574162 268.608 
L 277.655366 268.608 
L 277.73657 295.488 
L 277.898979 268.608 
L 278.142591 268.608 
L 278.223796 241.728 
L 278.305 268.608 
L 278.467408 241.728 
L 278.629817 295.488 
L 278.711021 268.608 
L 278.792225 295.488 
L 278.954634 268.608 
L 279.117042 268.608 
L 279.198246 241.728 
L 279.360655 295.488 
L 279.523063 241.728 
L 279.604268 268.608 
L 279.685472 214.848 
L 279.84788 268.608 
L 280.010289 241.728 
L 280.091493 268.608 
L 280.172697 241.728 
L 280.253901 268.608 
L 280.41631 241.728 
L 280.497514 295.488 
L 280.578718 268.608 
L 280.659923 295.488 
L 280.741127 241.728 
L 280.822331 268.608 
L 280.903535 241.728 
L 281.065944 268.608 
L 281.228352 268.608 
L 281.309557 214.848 
L 281.471965 295.488 
L 281.634374 241.728 
L 281.877986 295.488 
L 282.040395 295.488 
L 282.121599 268.608 
L 282.202803 295.488 
L 282.284007 241.728 
L 282.446416 295.488 
L 282.608824 268.608 
L 282.771233 295.488 
L 283.09605 295.488 
L 283.258458 241.728 
L 283.339663 241.728 
L 283.420867 268.608 
L 283.502071 241.728 
L 283.66448 295.488 
L 283.826888 268.608 
L 283.908092 268.608 
L 284.070501 214.848 
L 284.232909 295.488 
L 284.314113 295.488 
L 284.476522 268.608 
L 284.557726 295.488 
L 284.720135 268.608 
L 284.882543 268.608 
L 284.963747 241.728 
L 285.044952 295.488 
L 285.20736 241.728 
L 285.369769 295.488 
L 285.532177 241.728 
L 285.613381 268.608 
L 285.694585 241.728 
L 285.856994 295.488 
L 285.938198 268.608 
L 286.019402 295.488 
L 286.100607 268.608 
L 286.181811 295.488 
L 286.344219 268.608 
L 286.506628 268.608 
L 286.587832 295.488 
L 286.750241 268.608 
L 286.993853 268.608 
L 287.156262 295.488 
L 287.399874 241.728 
L 287.481079 241.728 
L 287.643487 268.608 
L 287.724691 241.728 
L 287.8871 268.608 
L 288.049508 241.728 
L 288.130713 295.488 
L 288.293121 268.608 
L 288.536734 268.608 
L 288.617938 241.728 
L 288.699142 295.488 
L 288.861551 241.728 
L 289.023959 268.608 
L 289.186368 241.728 
L 289.348776 268.608 
L 289.42998 268.608 
L 289.592389 295.488 
L 289.673593 268.608 
L 289.836002 295.488 
L 290.079614 295.488 
L 290.160819 268.608 
L 290.242023 295.488 
L 290.323227 268.608 
L 290.485636 295.488 
L 290.56684 295.488 
L 290.810452 241.728 
L 290.891657 295.488 
L 290.972861 268.608 
L 291.054065 295.488 
L 291.216474 241.728 
L 291.378882 295.488 
L 291.541291 295.488 
L 291.622495 241.728 
L 291.784903 268.608 
L 291.866108 241.728 
L 291.947312 295.488 
L 292.10972 268.608 
L 292.434537 268.608 
L 292.515742 241.728 
L 292.596946 268.608 
L 292.67815 241.728 
L 292.921763 295.488 
L 293.002967 295.488 
L 293.084171 241.728 
L 293.165375 295.488 
L 293.408988 241.728 
L 293.571397 295.488 
L 293.652601 295.488 
L 293.896214 241.728 
L 294.058622 268.608 
L 294.139826 268.608 
L 294.221031 295.488 
L 294.302235 268.608 
L 294.383439 295.488 
L 294.464643 268.608 
L 294.545847 295.488 
L 294.708256 241.728 
L 294.78946 295.488 
L 294.870664 268.608 
L 295.033073 295.488 
L 295.114277 295.488 
L 295.195481 268.608 
L 295.276686 295.488 
L 295.35789 241.728 
L 295.520298 295.488 
L 295.682707 268.608 
L 295.845115 295.488 
L 296.088728 241.728 
L 296.169932 268.608 
L 296.251136 241.728 
L 296.332341 295.488 
L 296.413545 268.608 
L 296.494749 295.488 
L 296.738362 241.728 
L 296.90077 268.608 
L 296.981975 268.608 
L 297.063179 241.728 
L 297.225587 268.608 
L 297.4692 268.608 
L 297.631609 295.488 
L 297.712813 241.728 
L 297.794017 268.608 
L 297.875221 241.728 
L 298.03763 268.608 
L 298.118834 241.728 
L 298.200038 295.488 
L 298.362447 241.728 
L 298.524855 295.488 
L 298.687264 268.608 
L 298.768468 268.608 
L 298.849672 241.728 
L 299.012081 268.608 
L 299.093285 241.728 
L 299.255693 268.608 
L 299.499306 268.608 
L 299.661714 295.488 
L 299.742919 295.488 
L 299.905327 268.608 
L 300.067736 268.608 
L 300.14894 295.488 
L 300.311348 268.608 
L 300.392553 268.608 
L 300.636165 214.848 
L 300.798574 268.608 
L 300.960982 268.608 
L 301.123391 241.728 
L 301.204595 295.488 
L 301.367004 268.608 
L 301.448208 295.488 
L 301.610616 241.728 
L 301.773025 268.608 
L 301.854229 241.728 
L 302.016637 295.488 
L 302.179046 268.608 
L 302.503863 268.608 
L 302.585067 241.728 
L 302.666271 295.488 
L 302.82868 268.608 
L 302.991088 268.608 
L 303.072293 295.488 
L 303.234701 268.608 
L 303.315905 268.608 
L 303.397109 295.488 
L 303.478314 241.728 
L 303.559518 268.608 
L 303.640722 241.728 
L 303.721926 295.488 
L 303.884335 268.608 
L 303.965539 295.488 
L 304.127948 268.608 
L 304.209152 268.608 
L 304.37156 295.488 
L 304.452765 295.488 
L 304.696377 241.728 
L 304.777582 241.728 
L 304.93999 268.608 
L 305.102398 268.608 
L 305.264807 241.728 
L 305.346011 268.608 
L 305.427215 241.728 
L 305.670828 295.488 
L 305.833237 268.608 
L 305.995645 268.608 
L 306.076849 241.728 
L 306.239258 268.608 
L 306.482871 268.608 
L 306.564075 241.728 
L 306.807687 295.488 
L 306.970096 268.608 
L 307.0513 295.488 
L 307.213709 268.608 
L 307.376117 268.608 
L 307.457321 241.728 
L 307.61973 268.608 
L 307.944547 268.608 
L 308.025751 295.488 
L 308.106955 268.608 
L 308.18816 295.488 
L 308.350568 241.728 
L 308.512976 268.608 
L 308.756589 268.608 
L 308.837793 241.728 
L 309.081406 295.488 
L 309.16261 295.488 
L 309.243815 241.728 
L 309.406223 268.608 
L 309.487427 268.608 
L 309.568632 295.488 
L 309.649836 268.608 
L 309.73104 295.488 
L 309.812244 241.728 
L 309.893449 295.488 
L 309.974653 241.728 
L 310.218265 295.488 
L 310.29947 295.488 
L 310.461878 268.608 
L 311.111512 268.608 
L 311.192716 241.728 
L 311.273921 268.608 
L 311.355125 241.728 
L 311.517533 295.488 
L 311.679942 295.488 
L 311.761146 268.608 
L 311.84235 295.488 
L 312.004759 268.608 
L 312.085963 268.608 
L 312.248371 241.728 
L 312.329576 268.608 
L 312.41078 241.728 
L 312.491984 295.488 
L 312.573188 268.608 
L 312.654393 295.488 
L 312.816801 241.728 
L 312.898005 241.728 
L 312.97921 214.848 
L 313.141618 268.608 
L 313.466435 268.608 
L 313.628844 241.728 
L 313.710048 241.728 
L 313.791252 268.608 
L 313.95366 241.728 
L 314.116069 241.728 
L 314.197273 295.488 
L 314.278477 268.608 
L 314.359682 295.488 
L 314.52209 268.608 
L 314.603294 295.488 
L 314.846907 241.728 
L 315.009316 268.608 
L 315.252928 268.608 
L 315.334133 241.728 
L 315.577745 295.488 
L 315.658949 268.608 
L 315.740154 295.488 
L 315.821358 241.728 
L 315.902562 295.488 
L 316.064971 268.608 
L 316.146175 268.608 
L 316.227379 295.488 
L 316.308583 241.728 
L 316.552196 295.488 
L 316.6334 268.608 
L 316.795809 295.488 
L 316.958217 268.608 
L 317.039422 268.608 
L 317.120626 241.728 
L 317.283034 268.608 
L 317.364238 268.608 
L 317.526647 295.488 
L 317.689055 268.608 
L 317.851464 268.608 
L 317.932668 295.488 
L 318.176281 241.728 
L 318.338689 295.488 
L 318.419894 241.728 
L 318.582302 268.608 
L 318.663506 241.728 
L 318.825915 268.608 
L 318.907119 241.728 
L 318.988323 295.488 
L 319.150732 268.608 
L 319.31314 268.608 
L 319.475549 295.488 
L 319.556753 268.608 
L 319.719161 295.488 
L 319.800366 268.608 
L 319.88157 295.488 
L 320.043978 268.608 
L 320.368795 268.608 
L 320.45 214.848 
L 320.612408 295.488 
L 320.693612 241.728 
L 320.856021 268.608 
L 320.937225 268.608 
L 321.018429 295.488 
L 321.099633 241.728 
L 321.180838 295.488 
L 321.42445 241.728 
L 321.505655 295.488 
L 321.668063 241.728 
L 321.749267 268.608 
L 321.830472 241.728 
L 321.99288 268.608 
L 322.236493 268.608 
L 322.317697 295.488 
L 322.56131 241.728 
L 322.723718 295.488 
L 322.886127 268.608 
L 322.967331 295.488 
L 323.048535 241.728 
L 323.210944 295.488 
L 323.373352 268.608 
L 323.698169 268.608 
L 323.779373 295.488 
L 323.860578 268.608 
L 323.941782 295.488 
L 324.10419 241.728 
L 324.266599 268.608 
L 324.347803 268.608 
L 324.510211 295.488 
L 324.67262 241.728 
L 324.835028 295.488 
L 324.997437 241.728 
L 325.078641 268.608 
L 325.159845 241.728 
L 325.322254 268.608 
L 325.565867 268.608 
L 325.647071 295.488 
L 325.890684 241.728 
L 326.053092 268.608 
L 326.134296 268.608 
L 326.296705 295.488 
L 326.459113 268.608 
L 326.540317 268.608 
L 326.621522 295.488 
L 326.702726 268.608 
L 326.78393 295.488 
L 326.946339 268.608 
L 327.027543 268.608 
L 327.108747 241.728 
L 327.271156 295.488 
L 327.433564 268.608 
L 327.514768 295.488 
L 327.595973 241.728 
L 327.758381 295.488 
L 327.839585 241.728 
L 327.920789 295.488 
L 328.083198 241.728 
L 328.326811 295.488 
L 328.570423 241.728 
L 328.651628 295.488 
L 328.814036 268.608 
L 329.057649 268.608 
L 329.138853 241.728 
L 329.220057 295.488 
L 329.382466 241.728 
L 329.46367 295.488 
L 329.626078 268.608 
L 329.950895 268.608 
L 330.0321 241.728 
L 330.275712 295.488 
L 330.519325 241.728 
L 330.600529 268.608 
L 330.762938 241.728 
L 330.925346 295.488 
L 331.087755 241.728 
L 331.168959 295.488 
L 331.331368 241.728 
L 331.412572 268.608 
L 331.493776 241.728 
L 331.656184 268.608 
L 331.899797 268.608 
L 332.062206 295.488 
L 332.14341 241.728 
L 332.305818 268.608 
L 332.549431 268.608 
L 332.630635 241.728 
L 332.793044 268.608 
L 332.955452 241.728 
L 333.036657 295.488 
L 333.117861 268.608 
L 333.280269 295.488 
L 333.442678 268.608 
L 333.605086 268.608 
L 333.68629 295.488 
L 333.848699 268.608 
L 334.011107 295.488 
L 334.173516 241.728 
L 334.417129 295.488 
L 334.498333 241.728 
L 334.579537 295.488 
L 334.741946 241.728 
L 334.82315 295.488 
L 335.066762 241.728 
L 335.229171 295.488 
L 335.391579 268.608 
L 335.716396 268.608 
L 335.878805 295.488 
L 335.960009 241.728 
L 336.122418 268.608 
L 336.36603 268.608 
L 336.447235 241.728 
L 336.609643 268.608 
L 336.772051 268.608 
L 336.93446 241.728 
L 337.015664 241.728 
L 337.178073 295.488 
L 337.259277 268.608 
L 337.340481 295.488 
L 337.421685 241.728 
L 337.584094 295.488 
L 337.746502 241.728 
L 337.908911 295.488 
L 338.071319 241.728 
L 338.152524 268.608 
L 338.233728 241.728 
L 338.314932 295.488 
L 338.47734 268.608 
L 338.558545 295.488 
L 338.639749 268.608 
L 338.802157 295.488 
L 338.883362 295.488 
L 339.04577 268.608 
L 339.289383 268.608 
L 339.370587 295.488 
L 339.532996 268.608 
L 339.6142 295.488 
L 339.695404 241.728 
L 339.776608 268.608 
L 339.939017 241.728 
L 340.101425 241.728 
L 340.345038 295.488 
L 340.507446 268.608 
L 340.588651 295.488 
L 340.751059 268.608 
L 340.832263 295.488 
L 341.075876 241.728 
L 341.319489 295.488 
L 341.481897 268.608 
L 341.563102 268.608 
L 341.644306 295.488 
L 341.72551 241.728 
L 341.887919 268.608 
L 341.969123 268.608 
L 342.050327 241.728 
L 342.131531 295.488 
L 342.212735 241.728 
L 342.375144 295.488 
L 342.537552 241.728 
L 342.699961 268.608 
L 342.781165 268.608 
L 342.862369 241.728 
L 343.024778 268.608 
L 343.105982 268.608 
L 343.187186 241.728 
L 343.349595 295.488 
L 343.512003 295.488 
L 343.593208 241.728 
L 343.674412 295.488 
L 343.755616 268.608 
L 343.918024 295.488 
L 344.080433 295.488 
L 344.242841 241.728 
L 344.324046 295.488 
L 344.486454 268.608 
L 344.648863 268.608 
L 344.730067 295.488 
L 344.892475 268.608 
L 345.217292 268.608 
L 345.298497 295.488 
L 345.379701 241.728 
L 345.542109 295.488 
L 345.704518 241.728 
L 345.785722 295.488 
L 345.866926 268.608 
L 345.94813 295.488 
L 346.029335 241.728 
L 346.110539 295.488 
L 346.191743 268.608 
L 346.354152 295.488 
L 346.435356 268.608 
L 346.51656 295.488 
L 346.678969 268.608 
L 346.922581 268.608 
L 347.08499 295.488 
L 347.247398 268.608 
L 347.328602 268.608 
L 347.491011 241.728 
L 347.572215 268.608 
L 347.653419 241.728 
L 347.815828 268.608 
L 347.978236 268.608 
L 348.140645 295.488 
L 348.221849 241.728 
L 348.465462 295.488 
L 348.62787 241.728 
L 348.790279 295.488 
L 349.033891 241.728 
L 349.1963 268.608 
L 349.277504 268.608 
L 349.358708 241.728 
L 349.602321 295.488 
L 349.76473 268.608 
L 349.927138 268.608 
L 350.008342 295.488 
L 350.170751 268.608 
L 350.333159 295.488 
L 350.414364 295.488 
L 350.576772 241.728 
L 350.73918 295.488 
L 350.982793 241.728 
L 351.145202 295.488 
L 351.226406 268.608 
L 351.388814 295.488 
L 351.551223 268.608 
L 351.632427 295.488 
L 351.794836 268.608 
L 351.87604 268.608 
L 351.957244 295.488 
L 352.119653 268.608 
L 352.363265 268.608 
L 352.44447 241.728 
L 352.525674 268.608 
L 352.606878 241.728 
L 352.769286 295.488 
L 353.012899 241.728 
L 353.175308 295.488 
L 353.256512 295.488 
L 353.500125 241.728 
L 353.581329 241.728 
L 353.662533 295.488 
L 353.743737 241.728 
L 353.824942 268.608 
L 353.906146 241.728 
L 353.98735 295.488 
L 354.149759 268.608 
L 354.230963 268.608 
L 354.312167 241.728 
L 354.393371 295.488 
L 354.474575 241.728 
L 354.636984 295.488 
L 354.799392 241.728 
L 354.961801 268.608 
L 355.043005 268.608 
L 355.124209 241.728 
L 355.286618 268.608 
L 355.367822 268.608 
L 355.449026 295.488 
L 355.611435 241.728 
L 355.692639 268.608 
L 355.773843 241.728 
L 355.936252 268.608 
L 356.179864 268.608 
L 356.261069 295.488 
L 356.342273 241.728 
L 356.504681 268.608 
L 356.585886 268.608 
L 356.66709 241.728 
L 356.748294 295.488 
L 356.829498 268.608 
L 356.991907 295.488 
L 357.073111 268.608 
L 357.154315 295.488 
L 357.397928 241.728 
L 357.479132 241.728 
L 357.641541 268.608 
L 357.722745 268.608 
L 357.803949 295.488 
L 357.885153 241.728 
L 357.966358 295.488 
L 358.128766 268.608 
L 358.291175 268.608 
L 358.372379 241.728 
L 358.534787 268.608 
L 358.697196 241.728 
L 358.859604 268.608 
L 359.103217 268.608 
L 359.184421 295.488 
L 359.34683 268.608 
L 359.428034 295.488 
L 359.590442 268.608 
L 359.752851 268.608 
L 359.834055 295.488 
L 359.915259 241.728 
L 360.158872 295.488 
L 360.321281 295.488 
L 360.483689 241.728 
L 360.727302 295.488 
L 360.808506 241.728 
L 361.052119 295.488 
L 361.133323 241.728 
L 361.376936 295.488 
L 361.539344 268.608 
L 361.701753 295.488 
L 361.864161 268.608 
L 361.945365 268.608 
L 362.02657 241.728 
L 362.188978 295.488 
L 362.351387 241.728 
L 362.432591 295.488 
L 362.594999 241.728 
L 362.676204 295.488 
L 362.838612 241.728 
L 362.919816 241.728 
L 363.082225 268.608 
L 363.244633 268.608 
L 363.325837 295.488 
L 363.407042 268.608 
L 363.56945 295.488 
L 363.650654 268.608 
L 363.731859 295.488 
L 363.894267 241.728 
L 364.056676 268.608 
L 364.13788 268.608 
L 364.219084 295.488 
L 364.381493 268.608 
L 364.462697 268.608 
L 364.543901 295.488 
L 364.625105 241.728 
L 364.70631 268.608 
L 364.787514 214.848 
L 365.031126 295.488 
L 365.112331 268.608 
L 365.193535 295.488 
L 365.355943 268.608 
L 365.518352 268.608 
L 365.599556 295.488 
L 365.68076 268.608 
L 365.761965 295.488 
L 365.924373 268.608 
L 366.005577 295.488 
L 366.167986 268.608 
L 366.24919 295.488 
L 366.492803 241.728 
L 366.574007 295.488 
L 366.736415 241.728 
L 366.980028 295.488 
L 367.061232 241.728 
L 367.223641 295.488 
L 367.467254 241.728 
L 367.548458 241.728 
L 367.629662 295.488 
L 367.792071 241.728 
L 367.873275 295.488 
L 368.035683 268.608 
L 368.116888 268.608 
L 368.198092 295.488 
L 368.441704 241.728 
L 368.604113 268.608 
L 368.766521 268.608 
L 368.847726 214.848 
L 369.091338 295.488 
L 369.253747 268.608 
L 369.334951 295.488 
L 369.49736 214.848 
L 369.659768 268.608 
L 369.740972 268.608 
L 369.822177 295.488 
L 369.903381 241.728 
L 370.146993 295.488 
L 370.309402 268.608 
L 370.390606 295.488 
L 370.553015 268.608 
L 370.634219 295.488 
L 370.796627 268.608 
L 370.959036 268.608 
L 371.04024 241.728 
L 371.121444 268.608 
L 371.202649 241.728 
L 371.365057 295.488 
L 371.527466 268.608 
L 371.60867 295.488 
L 371.771078 268.608 
L 372.177099 268.608 
L 372.258304 241.728 
L 372.339508 295.488 
L 372.583121 241.728 
L 372.664325 295.488 
L 372.826733 268.608 
L 372.989142 268.608 
L 373.15155 295.488 
L 373.395163 241.728 
L 373.476367 241.728 
L 373.557572 295.488 
L 373.71998 241.728 
L 373.801184 295.488 
L 373.963593 268.608 
L 374.207205 268.608 
L 374.28841 295.488 
L 374.450818 268.608 
L 374.532022 295.488 
L 374.775635 241.728 
L 375.019248 295.488 
L 375.181656 268.608 
L 375.344065 268.608 
L 375.506473 295.488 
L 375.587677 268.608 
L 375.668882 295.488 
L 375.750086 241.728 
L 375.993699 295.488 
L 376.156107 268.608 
L 376.237311 268.608 
L 376.318516 241.728 
L 376.480924 268.608 
L 376.886945 268.608 
L 377.049354 241.728 
L 377.211762 268.608 
L 377.374171 268.608 
L 377.455375 295.488 
L 377.536579 268.608 
L 377.617783 295.488 
L 377.780192 241.728 
L 377.9426 241.728 
L 378.023805 295.488 
L 378.105009 268.608 
L 378.186213 295.488 
L 378.429826 214.848 
L 378.754643 295.488 
L 378.917051 241.728 
L 379.07946 295.488 
L 379.160664 241.728 
L 379.241868 295.488 
L 379.485481 241.728 
L 379.647889 268.608 
L 379.729094 268.608 
L 379.810298 295.488 
L 379.891502 241.728 
L 379.972706 295.488 
L 380.135115 268.608 
L 380.297523 268.608 
L 380.378728 295.488 
L 380.459932 241.728 
L 380.541136 295.488 
L 380.703544 268.608 
L 380.784749 268.608 
L 380.947157 295.488 
L 381.028361 268.608 
L 381.109566 295.488 
L 381.271974 241.728 
L 381.515587 295.488 
L 381.596791 241.728 
L 381.7592 268.608 
L 382.246425 268.608 
L 382.327629 295.488 
L 382.571242 241.728 
L 382.652446 268.608 
L 382.814855 241.728 
L 382.977263 241.728 
L 383.058467 295.488 
L 383.139672 268.608 
L 383.30208 295.488 
L 383.383284 241.728 
L 383.626897 295.488 
L 383.708101 241.728 
L 383.87051 295.488 
L 384.114123 241.728 
L 384.276531 268.608 
L 384.357735 241.728 
L 384.520144 268.608 
L 384.601348 241.728 
L 384.844961 295.488 
L 384.926165 295.488 
L 385.088573 241.728 
L 385.169778 295.488 
L 385.250982 241.728 
L 385.41339 295.488 
L 385.575799 268.608 
L 385.98182 268.608 
L 386.144228 295.488 
L 386.225433 295.488 
L 386.306637 214.848 
L 386.469045 268.608 
L 386.55025 295.488 
L 386.631454 241.728 
L 386.712658 268.608 
L 386.793862 241.728 
L 387.037475 295.488 
L 387.118679 268.608 
L 387.199884 295.488 
L 387.281088 268.608 
L 387.443496 295.488 
L 387.605905 268.608 
L 387.849517 268.608 
L 387.930722 241.728 
L 388.011926 268.608 
L 388.09313 241.728 
L 388.174334 268.608 
L 388.255539 241.728 
L 388.336743 268.608 
L 388.417947 241.728 
L 388.580356 268.608 
L 388.905173 268.608 
L 388.986377 295.488 
L 389.148785 241.728 
L 389.311194 268.608 
L 389.392398 241.728 
L 389.636011 295.488 
L 389.717215 295.488 
L 389.879623 241.728 
L 390.042032 268.608 
L 390.123236 268.608 
L 390.20444 241.728 
L 390.285645 295.488 
L 390.448053 241.728 
L 390.610462 295.488 
L 390.691666 268.608 
L 390.854074 295.488 
L 390.935279 295.488 
L 391.016483 268.608 
L 391.097687 295.488 
L 391.260096 241.728 
L 391.3413 268.608 
L 391.422504 241.728 
L 391.584912 268.608 
L 391.747321 268.608 
L 391.909729 241.728 
L 392.072138 268.608 
L 392.153342 241.728 
L 392.234546 268.608 
L 392.396955 241.728 
L 392.721772 241.728 
L 392.88418 295.488 
L 393.046589 295.488 
L 393.208997 268.608 
L 393.533814 268.608 
L 393.615018 241.728 
L 393.696223 295.488 
L 393.777427 241.728 
L 393.858631 268.608 
L 393.939835 241.728 
L 394.102244 268.608 
L 394.183448 241.728 
L 394.345857 268.608 
L 394.427061 241.728 
L 394.589469 268.608 
L 394.833082 268.608 
L 394.914286 295.488 
L 395.076695 268.608 
L 395.157899 268.608 
L 395.239103 295.488 
L 395.401512 268.608 
L 395.726329 268.608 
L 395.888737 241.728 
L 396.13235 295.488 
L 396.294758 268.608 
L 396.457167 295.488 
L 396.700779 241.728 
L 396.781984 295.488 
L 396.944392 268.608 
L 397.106801 295.488 
L 397.269209 268.608 
L 397.512822 268.608 
L 397.67523 295.488 
L 397.837639 241.728 
L 397.918843 241.728 
L 398.081252 295.488 
L 398.24366 268.608 
L 398.406068 295.488 
L 398.487273 295.488 
L 398.487273 295.488 
" clip-path="url(#p0a6a3d64a2)" style="fill: none; stroke: #1f77b4; stroke-width: 1.5; stroke-linecap: square"/>
   </g>
   <g id="patch_3">
    <path d="M 57.6 307.584 
L 57.6 41.472 
" style="fill: none; stroke: #000000; stroke-width: 0.8; stroke-linejoin: miter; stroke-linecap: square"/>
   </g>
   <g id="patch_4">
    <path d="M 414.72 307.584 
L 414.72 41.472 
" style="fill: none; stroke: #000000; stroke-width: 0.8; stroke-linejoin: miter; stroke-linecap: square"/>
   </g>
   <g id="patch_5">
    <path d="M 57.6 307.584 
L 414.72 307.584 
" style="fill: none; stroke: #000000; stroke-width: 0.8; stroke-linejoin: miter; stroke-linecap: square"/>
   </g>
   <g id="patch_6">
    <path d="M 57.6 41.472 
L 414.72 41.472 
" style="fill: none; stroke: #000000; stroke-width: 0.8; stroke-linejoin: miter; stroke-linecap: square"/>
   </g>
   <g id="text_17">
    <!-- Training progress -->
    <g transform="translate(184.686563 35.472) scale(0.12 -0.12)">
     <defs>
      <path id="DejaVuSans-54" d="M -19 4666 
L 3928 4666 
L 3928 4134 
L 2272 4134 
L 2272 0 
L 1638 0 
L 1638 4134 
L -19 4134 
L -19 4666 
z
" transform="scale(0.015625)"/>
     </defs>
     <use xlink:href="#DejaVuSans-54"/>
     <use xlink:href="#DejaVuSans-72" x="46.333984"/>
     <use xlink:href="#DejaVuSans-61" x="87.447266"/>
     <use xlink:href="#DejaVuSans-69" x="148.726562"/>
     <use xlink:href="#DejaVuSans-6e" x="176.509766"/>
     <use xlink:href="#DejaVuSans-69" x="239.888672"/>
     <use xlink:href="#DejaVuSans-6e" x="267.671875"/>
     <use xlink:href="#DejaVuSans-67" x="331.050781"/>
     <use xlink:href="#DejaVuSans-20" x="394.527344"/>
     <use xlink:href="#DejaVuSans-70" x="426.314453"/>
     <use xlink:href="#DejaVuSans-72" x="489.791016"/>
     <use xlink:href="#DejaVuSans-6f" x="528.654297"/>
     <use xlink:href="#DejaVuSans-67" x="589.835938"/>
     <use xlink:href="#DejaVuSans-72" x="653.3125"/>
     <use xlink:href="#DejaVuSans-65" x="692.175781"/>
     <use xlink:href="#DejaVuSans-73" x="753.699219"/>
     <use xlink:href="#DejaVuSans-73" x="805.798828"/>
    </g>
   </g>
  </g>
 </g>
 <defs>
  <clipPath id="p0a6a3d64a2">
   <rect x="57.6" y="41.472" width="357.12" height="266.112"/>
  </clipPath>
 </defs>
</svg>
