<?xml version="1.0" encoding="utf-8" standalone="no"?>
<!DOCTYPE svg PUBLIC "-//W3C//DTD SVG 1.1//EN"
  "http://www.w3.org/Graphics/SVG/1.1/DTD/svg11.dtd">
<svg xmlns:xlink="http://www.w3.org/1999/xlink" width="460.8pt" height="345.6pt" viewBox="0 0 460.8 345.6" xmlns="http://www.w3.org/2000/svg" version="1.1">
 <metadata>
  <rdf:RDF xmlns:dc="http://purl.org/dc/elements/1.1/" xmlns:cc="http://creativecommons.org/ns#" xmlns:rdf="http://www.w3.org/1999/02/22-rdf-syntax-ns#">
   <cc:Work>
    <dc:type rdf:resource="http://purl.org/dc/dcmitype/StillImage"/>
    <dc:date>2023-05-03T18:29:50.524062</dc:date>
    <dc:format>image/svg+xml</dc:format>
    <dc:creator>
     <cc:Agent>
      <dc:title>Matplotlib v3.6.2, https://matplotlib.org/</dc:title>
     </cc:Agent>
    </dc:creator>
   </cc:Work>
  </rdf:RDF>
 </metadata>
 <defs>
  <style type="text/css">*{stroke-linejoin: round; stroke-linecap: butt}</style>
 </defs>
 <g id="figure_1">
  <g id="patch_1">
   <path d="M 0 345.6 
L 460.8 345.6 
L 460.8 0 
L 0 0 
z
" style="fill: #ffffff"/>
  </g>
  <g id="axes_1">
   <g id="patch_2">
    <path d="M 57.6 307.584 
L 414.72 307.584 
L 414.72 41.472 
L 57.6 41.472 
z
" style="fill: #ffffff"/>
   </g>
   <g id="matplotlib.axis_1">
    <g id="xtick_1">
     <g id="line2d_1">
      <defs>
       <path id="m9a03aa857e" d="M 0 0 
L 0 3.5 
" style="stroke: #000000; stroke-width: 0.8"/>
      </defs>
      <g>
       <use xlink:href="#m9a03aa857e" x="73.832727" y="307.584" style="stroke: #000000; stroke-width: 0.8"/>
      </g>
     </g>
     <g id="text_1">
      <!-- 0 -->
      <g transform="translate(70.651477 322.182437) scale(0.1 -0.1)">
       <defs>
        <path id="DejaVuSans-30" d="M 2034 4250 
Q 1547 4250 1301 3770 
Q 1056 3291 1056 2328 
Q 1056 1369 1301 889 
Q 1547 409 2034 409 
Q 2525 409 2770 889 
Q 3016 1369 3016 2328 
Q 3016 3291 2770 3770 
Q 2525 4250 2034 4250 
z
M 2034 4750 
Q 2819 4750 3233 4129 
Q 3647 3509 3647 2328 
Q 3647 1150 3233 529 
Q 2819 -91 2034 -91 
Q 1250 -91 836 529 
Q 422 1150 422 2328 
Q 422 3509 836 4129 
Q 1250 4750 2034 4750 
z
" transform="scale(0.015625)"/>
       </defs>
       <use xlink:href="#DejaVuSans-30"/>
      </g>
     </g>
    </g>
    <g id="xtick_2">
     <g id="line2d_2">
      <g>
       <use xlink:href="#m9a03aa857e" x="114.434847" y="307.584" style="stroke: #000000; stroke-width: 0.8"/>
      </g>
     </g>
     <g id="text_2">
      <!-- 500 -->
      <g transform="translate(104.891097 322.182437) scale(0.1 -0.1)">
       <defs>
        <path id="DejaVuSans-35" d="M 691 4666 
L 3169 4666 
L 3169 4134 
L 1269 4134 
L 1269 2991 
Q 1406 3038 1543 3061 
Q 1681 3084 1819 3084 
Q 2600 3084 3056 2656 
Q 3513 2228 3513 1497 
Q 3513 744 3044 326 
Q 2575 -91 1722 -91 
Q 1428 -91 1123 -41 
Q 819 9 494 109 
L 494 744 
Q 775 591 1075 516 
Q 1375 441 1709 441 
Q 2250 441 2565 725 
Q 2881 1009 2881 1497 
Q 2881 1984 2565 2268 
Q 2250 2553 1709 2553 
Q 1456 2553 1204 2497 
Q 953 2441 691 2322 
L 691 4666 
z
" transform="scale(0.015625)"/>
       </defs>
       <use xlink:href="#DejaVuSans-35"/>
       <use xlink:href="#DejaVuSans-30" x="63.623047"/>
       <use xlink:href="#DejaVuSans-30" x="127.246094"/>
      </g>
     </g>
    </g>
    <g id="xtick_3">
     <g id="line2d_3">
      <g>
       <use xlink:href="#m9a03aa857e" x="155.036966" y="307.584" style="stroke: #000000; stroke-width: 0.8"/>
      </g>
     </g>
     <g id="text_3">
      <!-- 1000 -->
      <g transform="translate(142.311966 322.182437) scale(0.1 -0.1)">
       <defs>
        <path id="DejaVuSans-31" d="M 794 531 
L 1825 531 
L 1825 4091 
L 703 3866 
L 703 4441 
L 1819 4666 
L 2450 4666 
L 2450 531 
L 3481 531 
L 3481 0 
L 794 0 
L 794 531 
z
" transform="scale(0.015625)"/>
       </defs>
       <use xlink:href="#DejaVuSans-31"/>
       <use xlink:href="#DejaVuSans-30" x="63.623047"/>
       <use xlink:href="#DejaVuSans-30" x="127.246094"/>
       <use xlink:href="#DejaVuSans-30" x="190.869141"/>
      </g>
     </g>
    </g>
    <g id="xtick_4">
     <g id="line2d_4">
      <g>
       <use xlink:href="#m9a03aa857e" x="195.639085" y="307.584" style="stroke: #000000; stroke-width: 0.8"/>
      </g>
     </g>
     <g id="text_4">
      <!-- 1500 -->
      <g transform="translate(182.914085 322.182437) scale(0.1 -0.1)">
       <use xlink:href="#DejaVuSans-31"/>
       <use xlink:href="#DejaVuSans-35" x="63.623047"/>
       <use xlink:href="#DejaVuSans-30" x="127.246094"/>
       <use xlink:href="#DejaVuSans-30" x="190.869141"/>
      </g>
     </g>
    </g>
    <g id="xtick_5">
     <g id="line2d_5">
      <g>
       <use xlink:href="#m9a03aa857e" x="236.241204" y="307.584" style="stroke: #000000; stroke-width: 0.8"/>
      </g>
     </g>
     <g id="text_5">
      <!-- 2000 -->
      <g transform="translate(223.516204 322.182437) scale(0.1 -0.1)">
       <defs>
        <path id="DejaVuSans-32" d="M 1228 531 
L 3431 531 
L 3431 0 
L 469 0 
L 469 531 
Q 828 903 1448 1529 
Q 2069 2156 2228 2338 
Q 2531 2678 2651 2914 
Q 2772 3150 2772 3378 
Q 2772 3750 2511 3984 
Q 2250 4219 1831 4219 
Q 1534 4219 1204 4116 
Q 875 4013 500 3803 
L 500 4441 
Q 881 4594 1212 4672 
Q 1544 4750 1819 4750 
Q 2544 4750 2975 4387 
Q 3406 4025 3406 3419 
Q 3406 3131 3298 2873 
Q 3191 2616 2906 2266 
Q 2828 2175 2409 1742 
Q 1991 1309 1228 531 
z
" transform="scale(0.015625)"/>
       </defs>
       <use xlink:href="#DejaVuSans-32"/>
       <use xlink:href="#DejaVuSans-30" x="63.623047"/>
       <use xlink:href="#DejaVuSans-30" x="127.246094"/>
       <use xlink:href="#DejaVuSans-30" x="190.869141"/>
      </g>
     </g>
    </g>
    <g id="xtick_6">
     <g id="line2d_6">
      <g>
       <use xlink:href="#m9a03aa857e" x="276.843323" y="307.584" style="stroke: #000000; stroke-width: 0.8"/>
      </g>
     </g>
     <g id="text_6">
      <!-- 2500 -->
      <g transform="translate(264.118323 322.182437) scale(0.1 -0.1)">
       <use xlink:href="#DejaVuSans-32"/>
       <use xlink:href="#DejaVuSans-35" x="63.623047"/>
       <use xlink:href="#DejaVuSans-30" x="127.246094"/>
       <use xlink:href="#DejaVuSans-30" x="190.869141"/>
      </g>
     </g>
    </g>
    <g id="xtick_7">
     <g id="line2d_7">
      <g>
       <use xlink:href="#m9a03aa857e" x="317.445443" y="307.584" style="stroke: #000000; stroke-width: 0.8"/>
      </g>
     </g>
     <g id="text_7">
      <!-- 3000 -->
      <g transform="translate(304.720443 322.182437) scale(0.1 -0.1)">
       <defs>
        <path id="DejaVuSans-33" d="M 2597 2516 
Q 3050 2419 3304 2112 
Q 3559 1806 3559 1356 
Q 3559 666 3084 287 
Q 2609 -91 1734 -91 
Q 1441 -91 1130 -33 
Q 819 25 488 141 
L 488 750 
Q 750 597 1062 519 
Q 1375 441 1716 441 
Q 2309 441 2620 675 
Q 2931 909 2931 1356 
Q 2931 1769 2642 2001 
Q 2353 2234 1838 2234 
L 1294 2234 
L 1294 2753 
L 1863 2753 
Q 2328 2753 2575 2939 
Q 2822 3125 2822 3475 
Q 2822 3834 2567 4026 
Q 2313 4219 1838 4219 
Q 1578 4219 1281 4162 
Q 984 4106 628 3988 
L 628 4550 
Q 988 4650 1302 4700 
Q 1616 4750 1894 4750 
Q 2613 4750 3031 4423 
Q 3450 4097 3450 3541 
Q 3450 3153 3228 2886 
Q 3006 2619 2597 2516 
z
" transform="scale(0.015625)"/>
       </defs>
       <use xlink:href="#DejaVuSans-33"/>
       <use xlink:href="#DejaVuSans-30" x="63.623047"/>
       <use xlink:href="#DejaVuSans-30" x="127.246094"/>
       <use xlink:href="#DejaVuSans-30" x="190.869141"/>
      </g>
     </g>
    </g>
    <g id="xtick_8">
     <g id="line2d_8">
      <g>
       <use xlink:href="#m9a03aa857e" x="358.047562" y="307.584" style="stroke: #000000; stroke-width: 0.8"/>
      </g>
     </g>
     <g id="text_8">
      <!-- 3500 -->
      <g transform="translate(345.322562 322.182437) scale(0.1 -0.1)">
       <use xlink:href="#DejaVuSans-33"/>
       <use xlink:href="#DejaVuSans-35" x="63.623047"/>
       <use xlink:href="#DejaVuSans-30" x="127.246094"/>
       <use xlink:href="#DejaVuSans-30" x="190.869141"/>
      </g>
     </g>
    </g>
    <g id="xtick_9">
     <g id="line2d_9">
      <g>
       <use xlink:href="#m9a03aa857e" x="398.649681" y="307.584" style="stroke: #000000; stroke-width: 0.8"/>
      </g>
     </g>
     <g id="text_9">
      <!-- 4000 -->
      <g transform="translate(385.924681 322.182437) scale(0.1 -0.1)">
       <defs>
        <path id="DejaVuSans-34" d="M 2419 4116 
L 825 1625 
L 2419 1625 
L 2419 4116 
z
M 2253 4666 
L 3047 4666 
L 3047 1625 
L 3713 1625 
L 3713 1100 
L 3047 1100 
L 3047 0 
L 2419 0 
L 2419 1100 
L 313 1100 
L 313 1709 
L 2253 4666 
z
" transform="scale(0.015625)"/>
       </defs>
       <use xlink:href="#DejaVuSans-34"/>
       <use xlink:href="#DejaVuSans-30" x="63.623047"/>
       <use xlink:href="#DejaVuSans-30" x="127.246094"/>
       <use xlink:href="#DejaVuSans-30" x="190.869141"/>
      </g>
     </g>
    </g>
    <g id="text_10">
     <!-- Image shown -->
     <g transform="translate(202.820156 335.860562) scale(0.1 -0.1)">
      <defs>
       <path id="DejaVuSans-49" d="M 628 4666 
L 1259 4666 
L 1259 0 
L 628 0 
L 628 4666 
z
" transform="scale(0.015625)"/>
       <path id="DejaVuSans-6d" d="M 3328 2828 
Q 3544 3216 3844 3400 
Q 4144 3584 4550 3584 
Q 5097 3584 5394 3201 
Q 5691 2819 5691 2113 
L 5691 0 
L 5113 0 
L 5113 2094 
Q 5113 2597 4934 2840 
Q 4756 3084 4391 3084 
Q 3944 3084 3684 2787 
Q 3425 2491 3425 1978 
L 3425 0 
L 2847 0 
L 2847 2094 
Q 2847 2600 2669 2842 
Q 2491 3084 2119 3084 
Q 1678 3084 1418 2786 
Q 1159 2488 1159 1978 
L 1159 0 
L 581 0 
L 581 3500 
L 1159 3500 
L 1159 2956 
Q 1356 3278 1631 3431 
Q 1906 3584 2284 3584 
Q 2666 3584 2933 3390 
Q 3200 3197 3328 2828 
z
" transform="scale(0.015625)"/>
       <path id="DejaVuSans-61" d="M 2194 1759 
Q 1497 1759 1228 1600 
Q 959 1441 959 1056 
Q 959 750 1161 570 
Q 1363 391 1709 391 
Q 2188 391 2477 730 
Q 2766 1069 2766 1631 
L 2766 1759 
L 2194 1759 
z
M 3341 1997 
L 3341 0 
L 2766 0 
L 2766 531 
Q 2569 213 2275 61 
Q 1981 -91 1556 -91 
Q 1019 -91 701 211 
Q 384 513 384 1019 
Q 384 1609 779 1909 
Q 1175 2209 1959 2209 
L 2766 2209 
L 2766 2266 
Q 2766 2663 2505 2880 
Q 2244 3097 1772 3097 
Q 1472 3097 1187 3025 
Q 903 2953 641 2809 
L 641 3341 
Q 956 3463 1253 3523 
Q 1550 3584 1831 3584 
Q 2591 3584 2966 3190 
Q 3341 2797 3341 1997 
z
" transform="scale(0.015625)"/>
       <path id="DejaVuSans-67" d="M 2906 1791 
Q 2906 2416 2648 2759 
Q 2391 3103 1925 3103 
Q 1463 3103 1205 2759 
Q 947 2416 947 1791 
Q 947 1169 1205 825 
Q 1463 481 1925 481 
Q 2391 481 2648 825 
Q 2906 1169 2906 1791 
z
M 3481 434 
Q 3481 -459 3084 -895 
Q 2688 -1331 1869 -1331 
Q 1566 -1331 1297 -1286 
Q 1028 -1241 775 -1147 
L 775 -588 
Q 1028 -725 1275 -790 
Q 1522 -856 1778 -856 
Q 2344 -856 2625 -561 
Q 2906 -266 2906 331 
L 2906 616 
Q 2728 306 2450 153 
Q 2172 0 1784 0 
Q 1141 0 747 490 
Q 353 981 353 1791 
Q 353 2603 747 3093 
Q 1141 3584 1784 3584 
Q 2172 3584 2450 3431 
Q 2728 3278 2906 2969 
L 2906 3500 
L 3481 3500 
L 3481 434 
z
" transform="scale(0.015625)"/>
       <path id="DejaVuSans-65" d="M 3597 1894 
L 3597 1613 
L 953 1613 
Q 991 1019 1311 708 
Q 1631 397 2203 397 
Q 2534 397 2845 478 
Q 3156 559 3463 722 
L 3463 178 
Q 3153 47 2828 -22 
Q 2503 -91 2169 -91 
Q 1331 -91 842 396 
Q 353 884 353 1716 
Q 353 2575 817 3079 
Q 1281 3584 2069 3584 
Q 2775 3584 3186 3129 
Q 3597 2675 3597 1894 
z
M 3022 2063 
Q 3016 2534 2758 2815 
Q 2500 3097 2075 3097 
Q 1594 3097 1305 2825 
Q 1016 2553 972 2059 
L 3022 2063 
z
" transform="scale(0.015625)"/>
       <path id="DejaVuSans-20" transform="scale(0.015625)"/>
       <path id="DejaVuSans-73" d="M 2834 3397 
L 2834 2853 
Q 2591 2978 2328 3040 
Q 2066 3103 1784 3103 
Q 1356 3103 1142 2972 
Q 928 2841 928 2578 
Q 928 2378 1081 2264 
Q 1234 2150 1697 2047 
L 1894 2003 
Q 2506 1872 2764 1633 
Q 3022 1394 3022 966 
Q 3022 478 2636 193 
Q 2250 -91 1575 -91 
Q 1294 -91 989 -36 
Q 684 19 347 128 
L 347 722 
Q 666 556 975 473 
Q 1284 391 1588 391 
Q 1994 391 2212 530 
Q 2431 669 2431 922 
Q 2431 1156 2273 1281 
Q 2116 1406 1581 1522 
L 1381 1569 
Q 847 1681 609 1914 
Q 372 2147 372 2553 
Q 372 3047 722 3315 
Q 1072 3584 1716 3584 
Q 2034 3584 2315 3537 
Q 2597 3491 2834 3397 
z
" transform="scale(0.015625)"/>
       <path id="DejaVuSans-68" d="M 3513 2113 
L 3513 0 
L 2938 0 
L 2938 2094 
Q 2938 2591 2744 2837 
Q 2550 3084 2163 3084 
Q 1697 3084 1428 2787 
Q 1159 2491 1159 1978 
L 1159 0 
L 581 0 
L 581 4863 
L 1159 4863 
L 1159 2956 
Q 1366 3272 1645 3428 
Q 1925 3584 2291 3584 
Q 2894 3584 3203 3211 
Q 3513 2838 3513 2113 
z
" transform="scale(0.015625)"/>
       <path id="DejaVuSans-6f" d="M 1959 3097 
Q 1497 3097 1228 2736 
Q 959 2375 959 1747 
Q 959 1119 1226 758 
Q 1494 397 1959 397 
Q 2419 397 2687 759 
Q 2956 1122 2956 1747 
Q 2956 2369 2687 2733 
Q 2419 3097 1959 3097 
z
M 1959 3584 
Q 2709 3584 3137 3096 
Q 3566 2609 3566 1747 
Q 3566 888 3137 398 
Q 2709 -91 1959 -91 
Q 1206 -91 779 398 
Q 353 888 353 1747 
Q 353 2609 779 3096 
Q 1206 3584 1959 3584 
z
" transform="scale(0.015625)"/>
       <path id="DejaVuSans-77" d="M 269 3500 
L 844 3500 
L 1563 769 
L 2278 3500 
L 2956 3500 
L 3675 769 
L 4391 3500 
L 4966 3500 
L 4050 0 
L 3372 0 
L 2619 2869 
L 1863 0 
L 1184 0 
L 269 3500 
z
" transform="scale(0.015625)"/>
       <path id="DejaVuSans-6e" d="M 3513 2113 
L 3513 0 
L 2938 0 
L 2938 2094 
Q 2938 2591 2744 2837 
Q 2550 3084 2163 3084 
Q 1697 3084 1428 2787 
Q 1159 2491 1159 1978 
L 1159 0 
L 581 0 
L 581 3500 
L 1159 3500 
L 1159 2956 
Q 1366 3272 1645 3428 
Q 1925 3584 2291 3584 
Q 2894 3584 3203 3211 
Q 3513 2838 3513 2113 
z
" transform="scale(0.015625)"/>
      </defs>
      <use xlink:href="#DejaVuSans-49"/>
      <use xlink:href="#DejaVuSans-6d" x="29.492188"/>
      <use xlink:href="#DejaVuSans-61" x="126.904297"/>
      <use xlink:href="#DejaVuSans-67" x="188.183594"/>
      <use xlink:href="#DejaVuSans-65" x="251.660156"/>
      <use xlink:href="#DejaVuSans-20" x="313.183594"/>
      <use xlink:href="#DejaVuSans-73" x="344.970703"/>
      <use xlink:href="#DejaVuSans-68" x="397.070312"/>
      <use xlink:href="#DejaVuSans-6f" x="460.449219"/>
      <use xlink:href="#DejaVuSans-77" x="521.630859"/>
      <use xlink:href="#DejaVuSans-6e" x="603.417969"/>
     </g>
    </g>
   </g>
   <g id="matplotlib.axis_2">
    <g id="ytick_1">
     <g id="line2d_10">
      <defs>
       <path id="m83ffd2fafe" d="M 0 0 
L -3.5 0 
" style="stroke: #000000; stroke-width: 0.8"/>
      </defs>
      <g>
       <use xlink:href="#m83ffd2fafe" x="57.6" y="268.608" style="stroke: #000000; stroke-width: 0.8"/>
      </g>
     </g>
     <g id="text_11">
      <!-- 2 -->
      <g transform="translate(44.2375 272.407219) scale(0.1 -0.1)">
       <use xlink:href="#DejaVuSans-32"/>
      </g>
     </g>
    </g>
    <g id="ytick_2">
     <g id="line2d_11">
      <g>
       <use xlink:href="#m83ffd2fafe" x="57.6" y="214.848" style="stroke: #000000; stroke-width: 0.8"/>
      </g>
     </g>
     <g id="text_12">
      <!-- 4 -->
      <g transform="translate(44.2375 218.647219) scale(0.1 -0.1)">
       <use xlink:href="#DejaVuSans-34"/>
      </g>
     </g>
    </g>
    <g id="ytick_3">
     <g id="line2d_12">
      <g>
       <use xlink:href="#m83ffd2fafe" x="57.6" y="161.088" style="stroke: #000000; stroke-width: 0.8"/>
      </g>
     </g>
     <g id="text_13">
      <!-- 6 -->
      <g transform="translate(44.2375 164.887219) scale(0.1 -0.1)">
       <defs>
        <path id="DejaVuSans-36" d="M 2113 2584 
Q 1688 2584 1439 2293 
Q 1191 2003 1191 1497 
Q 1191 994 1439 701 
Q 1688 409 2113 409 
Q 2538 409 2786 701 
Q 3034 994 3034 1497 
Q 3034 2003 2786 2293 
Q 2538 2584 2113 2584 
z
M 3366 4563 
L 3366 3988 
Q 3128 4100 2886 4159 
Q 2644 4219 2406 4219 
Q 1781 4219 1451 3797 
Q 1122 3375 1075 2522 
Q 1259 2794 1537 2939 
Q 1816 3084 2150 3084 
Q 2853 3084 3261 2657 
Q 3669 2231 3669 1497 
Q 3669 778 3244 343 
Q 2819 -91 2113 -91 
Q 1303 -91 875 529 
Q 447 1150 447 2328 
Q 447 3434 972 4092 
Q 1497 4750 2381 4750 
Q 2619 4750 2861 4703 
Q 3103 4656 3366 4563 
z
" transform="scale(0.015625)"/>
       </defs>
       <use xlink:href="#DejaVuSans-36"/>
      </g>
     </g>
    </g>
    <g id="ytick_4">
     <g id="line2d_13">
      <g>
       <use xlink:href="#m83ffd2fafe" x="57.6" y="107.328" style="stroke: #000000; stroke-width: 0.8"/>
      </g>
     </g>
     <g id="text_14">
      <!-- 8 -->
      <g transform="translate(44.2375 111.127219) scale(0.1 -0.1)">
       <defs>
        <path id="DejaVuSans-38" d="M 2034 2216 
Q 1584 2216 1326 1975 
Q 1069 1734 1069 1313 
Q 1069 891 1326 650 
Q 1584 409 2034 409 
Q 2484 409 2743 651 
Q 3003 894 3003 1313 
Q 3003 1734 2745 1975 
Q 2488 2216 2034 2216 
z
M 1403 2484 
Q 997 2584 770 2862 
Q 544 3141 544 3541 
Q 544 4100 942 4425 
Q 1341 4750 2034 4750 
Q 2731 4750 3128 4425 
Q 3525 4100 3525 3541 
Q 3525 3141 3298 2862 
Q 3072 2584 2669 2484 
Q 3125 2378 3379 2068 
Q 3634 1759 3634 1313 
Q 3634 634 3220 271 
Q 2806 -91 2034 -91 
Q 1263 -91 848 271 
Q 434 634 434 1313 
Q 434 1759 690 2068 
Q 947 2378 1403 2484 
z
M 1172 3481 
Q 1172 3119 1398 2916 
Q 1625 2713 2034 2713 
Q 2441 2713 2670 2916 
Q 2900 3119 2900 3481 
Q 2900 3844 2670 4047 
Q 2441 4250 2034 4250 
Q 1625 4250 1398 4047 
Q 1172 3844 1172 3481 
z
" transform="scale(0.015625)"/>
       </defs>
       <use xlink:href="#DejaVuSans-38"/>
      </g>
     </g>
    </g>
    <g id="ytick_5">
     <g id="line2d_14">
      <g>
       <use xlink:href="#m83ffd2fafe" x="57.6" y="53.568" style="stroke: #000000; stroke-width: 0.8"/>
      </g>
     </g>
     <g id="text_15">
      <!-- 10 -->
      <g transform="translate(37.875 57.367219) scale(0.1 -0.1)">
       <use xlink:href="#DejaVuSans-31"/>
       <use xlink:href="#DejaVuSans-30" x="63.623047"/>
      </g>
     </g>
    </g>
    <g id="text_16">
     <!-- Number of distinct output neurons spiking -->
     <g transform="translate(31.795312 280.250656) rotate(-90) scale(0.1 -0.1)">
      <defs>
       <path id="DejaVuSans-4e" d="M 628 4666 
L 1478 4666 
L 3547 763 
L 3547 4666 
L 4159 4666 
L 4159 0 
L 3309 0 
L 1241 3903 
L 1241 0 
L 628 0 
L 628 4666 
z
" transform="scale(0.015625)"/>
       <path id="DejaVuSans-75" d="M 544 1381 
L 544 3500 
L 1119 3500 
L 1119 1403 
Q 1119 906 1312 657 
Q 1506 409 1894 409 
Q 2359 409 2629 706 
Q 2900 1003 2900 1516 
L 2900 3500 
L 3475 3500 
L 3475 0 
L 2900 0 
L 2900 538 
Q 2691 219 2414 64 
Q 2138 -91 1772 -91 
Q 1169 -91 856 284 
Q 544 659 544 1381 
z
M 1991 3584 
L 1991 3584 
z
" transform="scale(0.015625)"/>
       <path id="DejaVuSans-62" d="M 3116 1747 
Q 3116 2381 2855 2742 
Q 2594 3103 2138 3103 
Q 1681 3103 1420 2742 
Q 1159 2381 1159 1747 
Q 1159 1113 1420 752 
Q 1681 391 2138 391 
Q 2594 391 2855 752 
Q 3116 1113 3116 1747 
z
M 1159 2969 
Q 1341 3281 1617 3432 
Q 1894 3584 2278 3584 
Q 2916 3584 3314 3078 
Q 3713 2572 3713 1747 
Q 3713 922 3314 415 
Q 2916 -91 2278 -91 
Q 1894 -91 1617 61 
Q 1341 213 1159 525 
L 1159 0 
L 581 0 
L 581 4863 
L 1159 4863 
L 1159 2969 
z
" transform="scale(0.015625)"/>
       <path id="DejaVuSans-72" d="M 2631 2963 
Q 2534 3019 2420 3045 
Q 2306 3072 2169 3072 
Q 1681 3072 1420 2755 
Q 1159 2438 1159 1844 
L 1159 0 
L 581 0 
L 581 3500 
L 1159 3500 
L 1159 2956 
Q 1341 3275 1631 3429 
Q 1922 3584 2338 3584 
Q 2397 3584 2469 3576 
Q 2541 3569 2628 3553 
L 2631 2963 
z
" transform="scale(0.015625)"/>
       <path id="DejaVuSans-66" d="M 2375 4863 
L 2375 4384 
L 1825 4384 
Q 1516 4384 1395 4259 
Q 1275 4134 1275 3809 
L 1275 3500 
L 2222 3500 
L 2222 3053 
L 1275 3053 
L 1275 0 
L 697 0 
L 697 3053 
L 147 3053 
L 147 3500 
L 697 3500 
L 697 3744 
Q 697 4328 969 4595 
Q 1241 4863 1831 4863 
L 2375 4863 
z
" transform="scale(0.015625)"/>
       <path id="DejaVuSans-64" d="M 2906 2969 
L 2906 4863 
L 3481 4863 
L 3481 0 
L 2906 0 
L 2906 525 
Q 2725 213 2448 61 
Q 2172 -91 1784 -91 
Q 1150 -91 751 415 
Q 353 922 353 1747 
Q 353 2572 751 3078 
Q 1150 3584 1784 3584 
Q 2172 3584 2448 3432 
Q 2725 3281 2906 2969 
z
M 947 1747 
Q 947 1113 1208 752 
Q 1469 391 1925 391 
Q 2381 391 2643 752 
Q 2906 1113 2906 1747 
Q 2906 2381 2643 2742 
Q 2381 3103 1925 3103 
Q 1469 3103 1208 2742 
Q 947 2381 947 1747 
z
" transform="scale(0.015625)"/>
       <path id="DejaVuSans-69" d="M 603 3500 
L 1178 3500 
L 1178 0 
L 603 0 
L 603 3500 
z
M 603 4863 
L 1178 4863 
L 1178 4134 
L 603 4134 
L 603 4863 
z
" transform="scale(0.015625)"/>
       <path id="DejaVuSans-74" d="M 1172 4494 
L 1172 3500 
L 2356 3500 
L 2356 3053 
L 1172 3053 
L 1172 1153 
Q 1172 725 1289 603 
Q 1406 481 1766 481 
L 2356 481 
L 2356 0 
L 1766 0 
Q 1100 0 847 248 
Q 594 497 594 1153 
L 594 3053 
L 172 3053 
L 172 3500 
L 594 3500 
L 594 4494 
L 1172 4494 
z
" transform="scale(0.015625)"/>
       <path id="DejaVuSans-63" d="M 3122 3366 
L 3122 2828 
Q 2878 2963 2633 3030 
Q 2388 3097 2138 3097 
Q 1578 3097 1268 2742 
Q 959 2388 959 1747 
Q 959 1106 1268 751 
Q 1578 397 2138 397 
Q 2388 397 2633 464 
Q 2878 531 3122 666 
L 3122 134 
Q 2881 22 2623 -34 
Q 2366 -91 2075 -91 
Q 1284 -91 818 406 
Q 353 903 353 1747 
Q 353 2603 823 3093 
Q 1294 3584 2113 3584 
Q 2378 3584 2631 3529 
Q 2884 3475 3122 3366 
z
" transform="scale(0.015625)"/>
       <path id="DejaVuSans-70" d="M 1159 525 
L 1159 -1331 
L 581 -1331 
L 581 3500 
L 1159 3500 
L 1159 2969 
Q 1341 3281 1617 3432 
Q 1894 3584 2278 3584 
Q 2916 3584 3314 3078 
Q 3713 2572 3713 1747 
Q 3713 922 3314 415 
Q 2916 -91 2278 -91 
Q 1894 -91 1617 61 
Q 1341 213 1159 525 
z
M 3116 1747 
Q 3116 2381 2855 2742 
Q 2594 3103 2138 3103 
Q 1681 3103 1420 2742 
Q 1159 2381 1159 1747 
Q 1159 1113 1420 752 
Q 1681 391 2138 391 
Q 2594 391 2855 752 
Q 3116 1113 3116 1747 
z
" transform="scale(0.015625)"/>
       <path id="DejaVuSans-6b" d="M 581 4863 
L 1159 4863 
L 1159 1991 
L 2875 3500 
L 3609 3500 
L 1753 1863 
L 3688 0 
L 2938 0 
L 1159 1709 
L 1159 0 
L 581 0 
L 581 4863 
z
" transform="scale(0.015625)"/>
      </defs>
      <use xlink:href="#DejaVuSans-4e"/>
      <use xlink:href="#DejaVuSans-75" x="74.804688"/>
      <use xlink:href="#DejaVuSans-6d" x="138.183594"/>
      <use xlink:href="#DejaVuSans-62" x="235.595703"/>
      <use xlink:href="#DejaVuSans-65" x="299.072266"/>
      <use xlink:href="#DejaVuSans-72" x="360.595703"/>
      <use xlink:href="#DejaVuSans-20" x="401.708984"/>
      <use xlink:href="#DejaVuSans-6f" x="433.496094"/>
      <use xlink:href="#DejaVuSans-66" x="494.677734"/>
      <use xlink:href="#DejaVuSans-20" x="529.882812"/>
      <use xlink:href="#DejaVuSans-64" x="561.669922"/>
      <use xlink:href="#DejaVuSans-69" x="625.146484"/>
      <use xlink:href="#DejaVuSans-73" x="652.929688"/>
      <use xlink:href="#DejaVuSans-74" x="705.029297"/>
      <use xlink:href="#DejaVuSans-69" x="744.238281"/>
      <use xlink:href="#DejaVuSans-6e" x="772.021484"/>
      <use xlink:href="#DejaVuSans-63" x="835.400391"/>
      <use xlink:href="#DejaVuSans-74" x="890.380859"/>
      <use xlink:href="#DejaVuSans-20" x="929.589844"/>
      <use xlink:href="#DejaVuSans-6f" x="961.376953"/>
      <use xlink:href="#DejaVuSans-75" x="1022.558594"/>
      <use xlink:href="#DejaVuSans-74" x="1085.9375"/>
      <use xlink:href="#DejaVuSans-70" x="1125.146484"/>
      <use xlink:href="#DejaVuSans-75" x="1188.623047"/>
      <use xlink:href="#DejaVuSans-74" x="1252.001953"/>
      <use xlink:href="#DejaVuSans-20" x="1291.210938"/>
      <use xlink:href="#DejaVuSans-6e" x="1322.998047"/>
      <use xlink:href="#DejaVuSans-65" x="1386.376953"/>
      <use xlink:href="#DejaVuSans-75" x="1447.900391"/>
      <use xlink:href="#DejaVuSans-72" x="1511.279297"/>
      <use xlink:href="#DejaVuSans-6f" x="1550.142578"/>
      <use xlink:href="#DejaVuSans-6e" x="1611.324219"/>
      <use xlink:href="#DejaVuSans-73" x="1674.703125"/>
      <use xlink:href="#DejaVuSans-20" x="1726.802734"/>
      <use xlink:href="#DejaVuSans-73" x="1758.589844"/>
      <use xlink:href="#DejaVuSans-70" x="1810.689453"/>
      <use xlink:href="#DejaVuSans-69" x="1874.166016"/>
      <use xlink:href="#DejaVuSans-6b" x="1901.949219"/>
      <use xlink:href="#DejaVuSans-69" x="1959.859375"/>
      <use xlink:href="#DejaVuSans-6e" x="1987.642578"/>
      <use xlink:href="#DejaVuSans-67" x="2051.021484"/>
     </g>
    </g>
   </g>
   <g id="line2d_15">
    <path d="M 73.832727 53.568 
L 74.807178 53.568 
L 74.888382 80.448 
L 75.050791 53.568 
L 75.862833 53.568 
L 75.944037 80.448 
L 76.106446 53.568 
L 76.674876 53.568 
L 76.837284 80.448 
L 76.999693 53.568 
L 79.354615 53.568 
L 79.43582 80.448 
L 79.598228 53.568 
L 79.679432 53.568 
L 79.841841 80.448 
L 80.004249 53.568 
L 80.166658 53.568 
L 80.329066 80.448 
L 80.491475 53.568 
L 81.222313 53.568 
L 81.303517 80.448 
L 81.465926 53.568 
L 81.790743 53.568 
L 81.871947 80.448 
L 82.034355 53.568 
L 82.196764 80.448 
L 82.359172 53.568 
L 82.846398 53.568 
L 82.927602 80.448 
L 83.09001 53.568 
L 83.983257 53.568 
L 84.064461 80.448 
L 84.22687 53.568 
L 84.308074 53.568 
L 84.389278 134.208 
L 84.470483 53.568 
L 84.551687 80.448 
L 84.714095 80.448 
L 84.876504 53.568 
L 85.282525 53.568 
L 85.363729 80.448 
L 85.526138 53.568 
L 86.175772 53.568 
L 86.256976 80.448 
L 86.419384 53.568 
L 87.069018 53.568 
L 87.150222 80.448 
L 87.312631 53.568 
L 87.393835 80.448 
L 87.556244 53.568 
L 87.962265 53.568 
L 88.043469 80.448 
L 88.205877 53.568 
L 88.530694 53.568 
L 88.611899 80.448 
L 88.774307 53.568 
L 88.855511 80.448 
L 89.01792 53.568 
L 89.180328 53.568 
L 89.261533 80.448 
L 89.423941 53.568 
L 89.992371 53.568 
L 90.073575 80.448 
L 90.235983 53.568 
L 90.398392 53.568 
L 90.479596 80.448 
L 90.642005 53.568 
L 91.12923 53.568 
L 91.210434 80.448 
L 91.372843 53.568 
L 92.022477 53.568 
L 92.103681 80.448 
L 92.266089 53.568 
L 93.24054 53.568 
L 93.321745 80.448 
L 93.402949 53.568 
L 93.484153 80.448 
L 93.646561 53.568 
L 93.727766 53.568 
L 93.80897 80.448 
L 93.971378 53.568 
L 94.621012 53.568 
L 94.702217 80.448 
L 94.864625 53.568 
L 95.108238 53.568 
L 95.270646 80.448 
L 95.433055 53.568 
L 95.595463 53.568 
L 95.676667 80.448 
L 95.839076 53.568 
L 95.92028 53.568 
L 96.001484 80.448 
L 96.082689 53.568 
L 96.163893 80.448 
L 96.326301 53.568 
L 96.651118 53.568 
L 96.732323 80.448 
L 96.894731 53.568 
L 98.03159 53.568 
L 98.112795 107.328 
L 98.356407 53.568 
L 99.087245 53.568 
L 99.16845 80.448 
L 99.330858 53.568 
L 99.412062 53.568 
L 99.493267 80.448 
L 99.574471 53.568 
L 99.736879 80.448 
L 99.899288 53.568 
L 99.980492 80.448 
L 100.142901 53.568 
L 100.548922 53.568 
L 100.71133 80.448 
L 100.873739 53.568 
L 101.766985 53.568 
L 101.84819 80.448 
L 102.010598 53.568 
L 102.091802 53.568 
L 102.173007 80.448 
L 102.335415 53.568 
L 103.715887 53.568 
L 103.878296 107.328 
L 104.040704 53.568 
L 104.609134 53.568 
L 104.690338 80.448 
L 104.852746 53.568 
L 104.933951 53.568 
L 105.015155 80.448 
L 105.177563 53.568 
L 105.258768 53.568 
L 105.339972 80.448 
L 105.50238 53.568 
L 106.07081 53.568 
L 106.152014 80.448 
L 106.314423 53.568 
L 106.558035 53.568 
L 106.63924 80.448 
L 106.801648 53.568 
L 106.882852 53.568 
L 107.045261 80.448 
L 107.126465 53.568 
L 107.207669 80.448 
L 107.288874 53.568 
L 107.370078 107.328 
L 107.532486 53.568 
L 108.425733 53.568 
L 108.506937 80.448 
L 108.669346 53.568 
L 109.075367 53.568 
L 109.156571 80.448 
L 109.237775 53.568 
L 109.318979 80.448 
L 109.481388 53.568 
L 109.562592 53.568 
L 109.643796 80.448 
L 109.806205 53.568 
L 109.968613 107.328 
L 110.131022 53.568 
L 110.29343 53.568 
L 110.374635 80.448 
L 110.537043 53.568 
L 110.86186 53.568 
L 110.943064 80.448 
L 111.024268 53.568 
L 111.105473 80.448 
L 111.267881 53.568 
L 111.43029 53.568 
L 111.511494 80.448 
L 111.673902 53.568 
L 111.998719 53.568 
L 112.079924 80.448 
L 112.242332 53.568 
L 112.485945 53.568 
L 112.567149 80.448 
L 112.729558 53.568 
L 113.216783 53.568 
L 113.379191 80.448 
L 113.5416 53.568 
L 114.597255 53.568 
L 114.678459 80.448 
L 114.759663 53.568 
L 114.840868 80.448 
L 115.003276 53.568 
L 115.246889 53.568 
L 115.409297 80.448 
L 115.571706 53.568 
L 115.65291 80.448 
L 115.815319 53.568 
L 115.896523 80.448 
L 116.058931 53.568 
L 116.140136 53.568 
L 116.22134 80.448 
L 116.383748 53.568 
L 117.114586 53.568 
L 117.276995 80.448 
L 117.358199 80.448 
L 117.439403 53.568 
L 117.601812 80.448 
L 117.76422 53.568 
L 118.576263 53.568 
L 118.657467 80.448 
L 118.819875 53.568 
L 119.144692 53.568 
L 119.225897 80.448 
L 119.388305 53.568 
L 119.713122 53.568 
L 119.87553 80.448 
L 120.037939 53.568 
L 121.418411 53.568 
L 121.499615 80.448 
L 121.662024 53.568 
L 121.743228 80.448 
L 121.905636 53.568 
L 121.986841 53.568 
L 122.068045 80.448 
L 122.230453 53.568 
L 122.311658 80.448 
L 122.474066 53.568 
L 122.880087 53.568 
L 122.961292 107.328 
L 123.1237 53.568 
L 123.610925 53.568 
L 123.69213 107.328 
L 123.935742 53.568 
L 124.016947 53.568 
L 124.098151 80.448 
L 124.179355 53.568 
L 124.260559 80.448 
L 124.422968 53.568 
L 124.666581 53.568 
L 124.747785 80.448 
L 124.910193 53.568 
L 124.991398 80.448 
L 125.153806 53.568 
L 125.641031 53.568 
L 125.722236 80.448 
L 125.884644 53.568 
L 126.047053 53.568 
L 126.128257 107.328 
L 126.290665 53.568 
L 127.183912 53.568 
L 127.265116 80.448 
L 127.427525 53.568 
L 128.645588 53.568 
L 128.726792 80.448 
L 128.889201 53.568 
L 129.132814 53.568 
L 129.214018 80.448 
L 129.376426 53.568 
L 129.782448 53.568 
L 129.863652 80.448 
L 130.02606 53.568 
L 130.188469 53.568 
L 130.350877 80.448 
L 130.513286 53.568 
L 131.000511 53.568 
L 131.081715 80.448 
L 131.244124 53.568 
L 132.543392 53.568 
L 132.624596 80.448 
L 132.787004 53.568 
L 133.680251 53.568 
L 133.761455 80.448 
L 133.84266 53.568 
L 133.923864 80.448 
L 134.086272 53.568 
L 134.654702 53.568 
L 134.735906 80.448 
L 134.81711 53.568 
L 134.898315 107.328 
L 135.060723 53.568 
L 135.466744 53.568 
L 135.629153 80.448 
L 135.791561 53.568 
L 135.872765 80.448 
L 135.95397 53.568 
L 136.035174 80.448 
L 136.197582 53.568 
L 136.278787 107.328 
L 136.441195 53.568 
L 136.522399 80.448 
L 136.684808 53.568 
L 137.659259 53.568 
L 137.821667 80.448 
L 137.984076 53.568 
L 138.06528 53.568 
L 138.146484 80.448 
L 138.227688 53.568 
L 138.308893 80.448 
L 138.390097 53.568 
L 138.471301 80.448 
L 138.63371 53.568 
L 139.202139 53.568 
L 139.364548 80.448 
L 139.526956 53.568 
L 139.689365 53.568 
L 139.770569 80.448 
L 139.932977 53.568 
L 140.582611 53.568 
L 140.74502 80.448 
L 140.907428 80.448 
L 141.069837 53.568 
L 141.151041 53.568 
L 141.313449 80.448 
L 141.394654 53.568 
L 141.475858 80.448 
L 141.638266 53.568 
L 142.125492 53.568 
L 142.206696 80.448 
L 142.369105 53.568 
L 143.587168 53.568 
L 143.668372 80.448 
L 143.830781 53.568 
L 144.074394 53.568 
L 144.155598 80.448 
L 144.318006 53.568 
L 144.561619 53.568 
L 144.724027 80.448 
L 144.886436 53.568 
L 144.96764 53.568 
L 145.048844 80.448 
L 145.211253 53.568 
L 145.292457 53.568 
L 145.454866 80.448 
L 145.617274 53.568 
L 146.510521 53.568 
L 146.591725 80.448 
L 146.754133 53.568 
L 147.322563 53.568 
L 147.403767 80.448 
L 147.566176 53.568 
L 148.378218 53.568 
L 148.540627 134.208 
L 148.703035 53.568 
L 148.865444 107.328 
L 149.027852 53.568 
L 149.109056 53.568 
L 149.190261 80.448 
L 149.271465 53.568 
L 149.352669 80.448 
L 149.515078 53.568 
L 150.489528 53.568 
L 150.570733 80.448 
L 150.733141 53.568 
L 150.814345 53.568 
L 150.89555 80.448 
L 151.057958 53.568 
L 151.382775 53.568 
L 151.463979 80.448 
L 151.626388 53.568 
L 151.707592 53.568 
L 151.87 80.448 
L 152.032409 53.568 
L 152.194817 53.568 
L 152.276022 80.448 
L 152.43843 53.568 
L 152.519634 80.448 
L 152.682043 53.568 
L 152.763247 80.448 
L 152.925656 53.568 
L 153.169268 53.568 
L 153.250473 80.448 
L 153.412881 53.568 
L 154.224923 53.568 
L 154.387332 80.448 
L 154.54974 53.568 
L 154.874557 53.568 
L 154.955762 80.448 
L 155.11817 53.568 
L 155.605395 53.568 
L 155.6866 80.448 
L 155.767804 53.568 
L 155.849008 80.448 
L 156.011417 53.568 
L 156.661051 53.568 
L 156.742255 80.448 
L 156.823459 53.568 
L 156.904663 80.448 
L 157.067072 53.568 
L 157.148276 53.568 
L 157.22948 80.448 
L 157.391889 53.568 
L 157.473093 53.568 
L 157.554297 80.448 
L 157.716706 53.568 
L 158.041523 53.568 
L 158.122727 80.448 
L 158.285135 53.568 
L 159.097178 53.568 
L 159.178382 80.448 
L 159.34079 53.568 
L 159.421995 80.448 
L 159.584403 53.568 
L 159.665607 53.568 
L 159.746812 80.448 
L 159.90922 53.568 
L 160.315241 53.568 
L 160.47765 80.448 
L 160.640058 53.568 
L 161.452101 53.568 
L 161.533305 80.448 
L 161.695713 53.568 
L 162.02053 53.568 
L 162.101735 80.448 
L 162.264143 53.568 
L 162.345347 80.448 
L 162.507756 53.568 
L 163.319798 53.568 
L 163.401002 80.448 
L 163.563411 53.568 
L 164.13184 53.568 
L 164.294249 80.448 
L 164.375453 80.448 
L 164.537862 53.568 
L 164.619066 53.568 
L 164.70027 80.448 
L 164.862679 53.568 
L 165.187496 53.568 
L 165.2687 80.448 
L 165.431108 53.568 
L 165.512313 53.568 
L 165.674721 80.448 
L 165.837129 53.568 
L 166.243151 53.568 
L 166.324355 80.448 
L 166.486763 53.568 
L 166.649172 53.568 
L 166.730376 107.328 
L 166.81158 53.568 
L 166.973989 80.448 
L 167.136397 53.568 
L 167.623623 53.568 
L 167.704827 80.448 
L 167.867235 53.568 
L 168.029644 53.568 
L 168.110848 80.448 
L 168.273257 53.568 
L 168.760482 53.568 
L 168.841686 107.328 
L 169.004095 53.568 
L 171.359018 53.568 
L 171.440222 80.448 
L 171.60263 53.568 
L 172.008652 53.568 
L 172.089856 80.448 
L 172.17106 53.568 
L 172.252264 80.448 
L 172.414673 53.568 
L 172.495877 53.568 
L 172.577081 80.448 
L 172.73949 53.568 
L 173.226715 53.568 
L 173.307919 80.448 
L 173.389124 53.568 
L 173.551532 80.448 
L 173.713941 53.568 
L 173.876349 53.568 
L 173.957553 80.448 
L 174.119962 53.568 
L 174.201166 80.448 
L 174.363575 53.568 
L 174.444779 80.448 
L 174.607187 53.568 
L 174.769596 53.568 
L 174.8508 80.448 
L 174.932004 53.568 
L 175.013208 80.448 
L 175.094413 53.568 
L 175.175617 80.448 
L 175.338025 53.568 
L 175.41923 80.448 
L 175.581638 53.568 
L 176.068864 53.568 
L 176.150068 80.448 
L 176.312476 53.568 
L 177.286927 53.568 
L 177.368131 80.448 
L 177.53054 53.568 
L 177.692948 80.448 
L 177.855357 53.568 
L 177.936561 53.568 
L 178.017765 107.328 
L 178.098969 53.568 
L 178.261378 80.448 
L 178.423786 53.568 
L 179.154625 53.568 
L 179.317033 80.448 
L 179.479442 53.568 
L 179.64185 53.568 
L 179.723054 80.448 
L 179.885463 53.568 
L 180.453892 53.568 
L 180.535097 80.448 
L 180.697505 53.568 
L 180.778709 80.448 
L 180.941118 53.568 
L 181.671956 53.568 
L 181.75316 80.448 
L 181.915569 53.568 
L 182.077977 53.568 
L 182.240386 80.448 
L 182.32159 80.448 
L 182.483998 53.568 
L 182.89002 53.568 
L 182.971224 80.448 
L 183.133632 53.568 
L 183.702062 53.568 
L 183.783266 80.448 
L 183.945675 53.568 
L 184.189287 53.568 
L 184.270492 80.448 
L 184.4329 53.568 
L 184.676513 53.568 
L 184.838921 80.448 
L 184.920126 53.568 
L 185.00133 80.448 
L 185.082534 53.568 
L 185.163738 80.448 
L 185.326147 53.568 
L 185.569759 53.568 
L 185.650964 80.448 
L 185.813372 53.568 
L 185.894576 80.448 
L 185.975781 53.568 
L 186.056985 107.328 
L 186.219393 53.568 
L 186.381802 53.568 
L 186.463006 80.448 
L 186.625415 53.568 
L 186.706619 53.568 
L 186.869027 80.448 
L 186.950231 80.448 
L 187.11264 53.568 
L 187.275048 53.568 
L 187.356253 80.448 
L 187.518661 53.568 
L 187.68107 80.448 
L 187.843478 53.568 
L 188.087091 53.568 
L 188.168295 80.448 
L 188.330704 53.568 
L 188.980337 53.568 
L 189.061542 80.448 
L 189.22395 53.568 
L 189.305154 53.568 
L 189.386359 107.328 
L 189.548767 53.568 
L 189.711176 53.568 
L 189.79238 80.448 
L 189.954788 53.568 
L 191.33526 53.568 
L 191.497669 80.448 
L 191.578873 53.568 
L 191.660077 80.448 
L 191.822486 53.568 
L 192.147303 53.568 
L 192.228507 80.448 
L 192.390915 53.568 
L 192.47212 80.448 
L 192.553324 53.568 
L 192.634528 80.448 
L 192.796937 53.568 
L 193.040549 53.568 
L 193.121754 80.448 
L 193.284162 53.568 
L 193.933796 53.568 
L 194.015 80.448 
L 194.177409 53.568 
L 194.339817 80.448 
L 194.502226 53.568 
L 194.745838 53.568 
L 194.827043 80.448 
L 194.908247 53.568 
L 194.989451 80.448 
L 195.070655 53.568 
L 195.15186 80.448 
L 195.314268 53.568 
L 195.557881 53.568 
L 195.639085 80.448 
L 195.801493 53.568 
L 195.882698 53.568 
L 195.963902 80.448 
L 196.045106 53.568 
L 196.207515 80.448 
L 196.369923 53.568 
L 196.613536 53.568 
L 196.69474 80.448 
L 196.857149 53.568 
L 196.938353 53.568 
L 197.019557 107.328 
L 197.181966 53.568 
L 197.506782 53.568 
L 197.587987 80.448 
L 197.750395 53.568 
L 197.831599 53.568 
L 197.994008 80.448 
L 198.156416 53.568 
L 198.237621 107.328 
L 198.318825 53.568 
L 198.481233 107.328 
L 198.643642 53.568 
L 198.968459 53.568 
L 199.049663 80.448 
L 199.130867 53.568 
L 199.212071 80.448 
L 199.293276 53.568 
L 199.37448 107.328 
L 199.618093 53.568 
L 199.699297 53.568 
L 199.780501 107.328 
L 199.861705 53.568 
L 200.105318 107.328 
L 200.186522 53.568 
L 200.267727 80.448 
L 200.430135 53.568 
L 200.511339 80.448 
L 200.673748 53.568 
L 200.754952 107.328 
L 200.91736 53.568 
L 201.079769 53.568 
L 201.160973 80.448 
L 201.323382 53.568 
L 201.404586 80.448 
L 201.566994 53.568 
L 201.729403 53.568 
L 201.891811 80.448 
L 202.05422 80.448 
L 202.216628 53.568 
L 202.297833 80.448 
L 202.460241 53.568 
L 202.541445 53.568 
L 202.62265 80.448 
L 202.785058 53.568 
L 202.947466 80.448 
L 203.028671 80.448 
L 203.109875 134.208 
L 203.272283 53.568 
L 203.434692 53.568 
L 203.5971 134.208 
L 203.678305 53.568 
L 203.759509 80.448 
L 203.921917 53.568 
L 204.003122 80.448 
L 204.084326 53.568 
L 204.246734 107.328 
L 204.409143 53.568 
L 204.490347 134.208 
L 204.652755 53.568 
L 204.73396 80.448 
L 204.815164 53.568 
L 204.896368 107.328 
L 205.058777 53.568 
L 205.139981 80.448 
L 205.221185 53.568 
L 205.302389 80.448 
L 205.464798 53.568 
L 205.627206 107.328 
L 205.708411 53.568 
L 205.789615 80.448 
L 205.870819 53.568 
L 205.952023 107.328 
L 206.114432 53.568 
L 206.195636 53.568 
L 206.27684 80.448 
L 206.358044 53.568 
L 206.439249 107.328 
L 206.520453 80.448 
L 206.601657 107.328 
L 206.84527 53.568 
L 206.926474 53.568 
L 207.088883 80.448 
L 207.170087 53.568 
L 207.332495 80.448 
L 207.494904 53.568 
L 207.657312 107.328 
L 207.738517 53.568 
L 207.819721 107.328 
L 207.900925 53.568 
L 207.982129 80.448 
L 208.144538 53.568 
L 208.306946 53.568 
L 208.469355 134.208 
L 208.631763 53.568 
L 208.712967 80.448 
L 208.794172 53.568 
L 208.875376 107.328 
L 208.95658 80.448 
L 209.118989 107.328 
L 209.200193 107.328 
L 209.362601 80.448 
L 209.443806 80.448 
L 209.52501 161.088 
L 209.687418 53.568 
L 209.849827 107.328 
L 210.012235 80.448 
L 210.093439 80.448 
L 210.255848 107.328 
L 210.418256 53.568 
L 210.499461 134.208 
L 210.580665 107.328 
L 210.824278 53.568 
L 210.905482 53.568 
L 211.06789 107.328 
L 211.311503 107.328 
L 211.473912 80.448 
L 211.63632 80.448 
L 211.879933 161.088 
L 212.042341 80.448 
L 212.20475 107.328 
L 212.285954 80.448 
L 212.448362 134.208 
L 212.610771 80.448 
L 212.691975 80.448 
L 212.935588 161.088 
L 213.097996 53.568 
L 213.179201 161.088 
L 213.260405 80.448 
L 213.341609 134.208 
L 213.422813 80.448 
L 213.504017 134.208 
L 213.585222 107.328 
L 213.74763 134.208 
L 213.828834 134.208 
L 213.910039 161.088 
L 214.072447 107.328 
L 214.153651 80.448 
L 214.397264 214.848 
L 214.478468 107.328 
L 214.559673 134.208 
L 214.640877 161.088 
L 214.803285 107.328 
L 214.88449 107.328 
L 214.965694 161.088 
L 215.128102 107.328 
L 215.209306 107.328 
L 215.290511 161.088 
L 215.452919 134.208 
L 215.534123 134.208 
L 215.615328 161.088 
L 215.777736 80.448 
L 215.85894 134.208 
L 216.102553 53.568 
L 216.264962 187.968 
L 216.589779 80.448 
L 216.670983 134.208 
L 216.752187 107.328 
L 216.914595 187.968 
L 216.9958 134.208 
L 217.239412 187.968 
L 217.320617 107.328 
L 217.401821 241.728 
L 217.564229 161.088 
L 217.645434 214.848 
L 217.726638 80.448 
L 217.807842 134.208 
L 217.889046 107.328 
L 218.051455 134.208 
L 218.132659 134.208 
L 218.213863 107.328 
L 218.376272 161.088 
L 218.457476 134.208 
L 218.53868 214.848 
L 218.619884 187.968 
L 218.863497 107.328 
L 219.188314 187.968 
L 219.269518 187.968 
L 219.350723 134.208 
L 219.431927 187.968 
L 219.513131 80.448 
L 219.67554 214.848 
L 219.756744 134.208 
L 219.837948 161.088 
L 219.919152 134.208 
L 220.000357 187.968 
L 220.081561 134.208 
L 220.243969 161.088 
L 220.406378 161.088 
L 220.64999 214.848 
L 220.731195 187.968 
L 220.812399 214.848 
L 221.137216 134.208 
L 221.299624 187.968 
L 221.380829 161.088 
L 221.462033 214.848 
L 221.543237 161.088 
L 221.624441 214.848 
L 221.705646 134.208 
L 221.868054 187.968 
L 221.949258 107.328 
L 222.030463 187.968 
L 222.111667 161.088 
L 222.274075 187.968 
L 222.355279 161.088 
L 222.436484 241.728 
L 222.517688 134.208 
L 222.598892 214.848 
L 222.680096 161.088 
L 222.761301 241.728 
L 222.842505 214.848 
L 222.923709 241.728 
L 223.086118 134.208 
L 223.32973 187.968 
L 223.410935 161.088 
L 223.573343 241.728 
L 223.735752 161.088 
L 223.816956 161.088 
L 223.979364 214.848 
L 224.060568 161.088 
L 224.141773 241.728 
L 224.222977 161.088 
L 224.304181 214.848 
L 224.385385 134.208 
L 224.46659 161.088 
L 224.628998 241.728 
L 224.791407 214.848 
L 224.953815 214.848 
L 225.116224 161.088 
L 225.359836 268.608 
L 225.522245 214.848 
L 225.603449 187.968 
L 225.684653 241.728 
L 225.765857 214.848 
L 225.847062 241.728 
L 225.928266 214.848 
L 226.00947 241.728 
L 226.090674 187.968 
L 226.171879 268.608 
L 226.334287 187.968 
L 226.5779 241.728 
L 226.659104 161.088 
L 226.821513 214.848 
L 227.227534 214.848 
L 227.308738 241.728 
L 227.471146 214.848 
L 227.714759 214.848 
L 227.795963 187.968 
L 227.877168 241.728 
L 227.958372 214.848 
L 228.12078 295.488 
L 228.201985 214.848 
L 228.283189 241.728 
L 228.364393 187.968 
L 228.445597 241.728 
L 228.526802 214.848 
L 228.608006 268.608 
L 228.68921 241.728 
L 228.770414 268.608 
L 228.851619 241.728 
L 228.932823 268.608 
L 229.014027 214.848 
L 229.095231 241.728 
L 229.338844 161.088 
L 229.501252 241.728 
L 229.582457 241.728 
L 229.663661 214.848 
L 229.826069 268.608 
L 229.907274 241.728 
L 230.069682 268.608 
L 230.232091 187.968 
L 230.313295 241.728 
L 230.394499 214.848 
L 230.475703 241.728 
L 230.556908 187.968 
L 230.881724 268.608 
L 230.962929 187.968 
L 231.125337 268.608 
L 231.206541 214.848 
L 231.287746 241.728 
L 231.450154 214.848 
L 231.612563 241.728 
L 231.693767 214.848 
L 231.856175 241.728 
L 231.93738 214.848 
L 232.018584 268.608 
L 232.099788 214.848 
L 232.180992 241.728 
L 232.262197 214.848 
L 232.343401 241.728 
L 232.424605 161.088 
L 232.587014 268.608 
L 232.668218 268.608 
L 232.830626 214.848 
L 233.074239 268.608 
L 233.155443 268.608 
L 233.317852 241.728 
L 233.399056 241.728 
L 233.561464 187.968 
L 233.723873 268.608 
L 233.805077 268.608 
L 233.886281 241.728 
L 233.967486 268.608 
L 234.04869 214.848 
L 234.211098 295.488 
L 234.373507 214.848 
L 234.454711 241.728 
L 234.617119 241.728 
L 234.779528 295.488 
L 234.860732 241.728 
L 235.023141 268.608 
L 235.185549 214.848 
L 235.266753 214.848 
L 235.347958 241.728 
L 235.429162 214.848 
L 235.59157 241.728 
L 235.672775 214.848 
L 235.753979 241.728 
L 235.835183 214.848 
L 235.916387 268.608 
L 236.16 214.848 
L 236.322408 241.728 
L 236.403613 241.728 
L 236.484817 214.848 
L 236.566021 268.608 
L 236.647225 214.848 
L 236.809634 268.608 
L 236.890838 241.728 
L 237.053247 268.608 
L 237.215655 214.848 
L 237.378064 241.728 
L 237.540472 241.728 
L 237.621676 295.488 
L 237.702881 214.848 
L 237.784085 241.728 
L 237.946493 268.608 
L 238.352514 268.608 
L 238.514923 214.848 
L 238.596127 295.488 
L 238.677331 268.608 
L 238.758536 214.848 
L 238.920944 268.608 
L 239.002148 268.608 
L 239.083353 241.728 
L 239.164557 268.608 
L 239.326965 214.848 
L 239.489374 268.608 
L 239.570578 268.608 
L 239.651782 295.488 
L 239.814191 241.728 
L 239.895395 241.728 
L 239.976599 214.848 
L 240.139008 268.608 
L 240.220212 241.728 
L 240.38262 268.608 
L 240.545029 241.728 
L 240.626233 241.728 
L 240.707437 295.488 
L 240.869846 268.608 
L 241.032254 268.608 
L 241.113459 241.728 
L 241.194663 268.608 
L 241.357071 214.848 
L 241.438276 268.608 
L 241.600684 241.728 
L 241.763092 241.728 
L 241.844297 268.608 
L 241.925501 241.728 
L 242.006705 295.488 
L 242.169114 268.608 
L 242.250318 268.608 
L 242.331522 241.728 
L 242.412726 268.608 
L 242.575135 241.728 
L 242.737543 268.608 
L 242.899952 268.608 
L 242.981156 241.728 
L 243.06236 295.488 
L 243.305973 241.728 
L 243.549586 295.488 
L 243.63079 241.728 
L 243.793198 268.608 
L 244.036811 268.608 
L 244.118015 241.728 
L 244.19922 295.488 
L 244.442832 241.728 
L 244.605241 241.728 
L 244.686445 295.488 
L 244.848854 241.728 
L 244.930058 268.608 
L 245.011262 214.848 
L 245.17367 268.608 
L 245.254875 268.608 
L 245.417283 241.728 
L 245.498487 295.488 
L 245.579692 214.848 
L 245.660896 241.728 
L 245.823304 268.608 
L 245.904509 268.608 
L 245.985713 295.488 
L 246.066917 241.728 
L 246.31053 295.488 
L 246.472938 241.728 
L 246.635347 268.608 
L 246.797755 241.728 
L 246.878959 241.728 
L 247.122572 295.488 
L 247.203776 241.728 
L 247.284981 295.488 
L 247.366185 268.608 
L 247.447389 295.488 
L 247.609798 214.848 
L 247.772206 268.608 
L 247.85341 241.728 
L 248.015819 268.608 
L 248.097023 241.728 
L 248.178227 268.608 
L 248.259432 241.728 
L 248.42184 295.488 
L 248.584248 214.848 
L 248.665453 268.608 
L 248.827861 241.728 
L 248.99027 268.608 
L 249.152678 268.608 
L 249.233882 241.728 
L 249.477495 295.488 
L 249.639904 241.728 
L 249.721108 295.488 
L 249.964721 214.848 
L 250.127129 295.488 
L 250.208333 241.728 
L 250.289537 295.488 
L 250.370742 268.608 
L 250.451946 295.488 
L 250.53315 241.728 
L 250.695559 268.608 
L 250.776763 268.608 
L 250.939171 241.728 
L 251.10158 268.608 
L 251.345193 268.608 
L 251.588805 214.848 
L 251.751214 268.608 
L 251.832418 241.728 
L 251.994827 268.608 
L 252.157235 268.608 
L 252.238439 241.728 
L 252.319643 295.488 
L 252.482052 268.608 
L 252.563256 295.488 
L 252.725665 268.608 
L 252.806869 295.488 
L 253.050482 241.728 
L 253.294094 295.488 
L 253.456503 241.728 
L 253.618911 268.608 
L 253.700116 214.848 
L 253.862524 268.608 
L 254.106137 214.848 
L 254.268545 268.608 
L 254.593362 268.608 
L 254.674566 241.728 
L 254.836975 295.488 
L 254.999383 268.608 
L 255.080588 268.608 
L 255.161792 241.728 
L 255.242996 268.608 
L 255.405405 241.728 
L 255.649017 295.488 
L 255.811426 241.728 
L 255.973834 295.488 
L 256.136243 268.608 
L 256.217447 268.608 
L 256.298651 241.728 
L 256.379855 295.488 
L 256.46106 241.728 
L 256.623468 268.608 
L 256.785877 268.608 
L 256.867081 241.728 
L 256.948285 268.608 
L 257.110694 241.728 
L 257.273102 268.608 
L 257.354306 268.608 
L 257.43551 241.728 
L 257.516715 295.488 
L 257.679123 268.608 
L 257.760327 295.488 
L 257.922736 268.608 
L 258.00394 268.608 
L 258.085144 214.848 
L 258.247553 268.608 
L 258.328757 268.608 
L 258.409961 241.728 
L 258.57237 268.608 
L 258.734778 268.608 
L 258.897187 241.728 
L 258.978391 268.608 
L 259.059595 241.728 
L 259.140799 268.608 
L 259.303208 214.848 
L 259.465616 268.608 
L 259.709229 268.608 
L 259.871638 241.728 
L 260.034046 295.488 
L 260.196455 268.608 
L 260.277659 295.488 
L 260.440067 268.608 
L 260.521272 268.608 
L 260.602476 295.488 
L 260.68368 241.728 
L 260.846088 268.608 
L 260.927293 268.608 
L 261.008497 241.728 
L 261.170905 268.608 
L 261.25211 268.608 
L 261.414518 295.488 
L 261.495722 241.728 
L 261.576927 295.488 
L 261.739335 241.728 
L 261.820539 241.728 
L 261.901744 268.608 
L 261.982948 241.728 
L 262.145356 295.488 
L 262.307765 241.728 
L 262.388969 268.608 
L 262.470173 214.848 
L 262.632582 268.608 
L 262.713786 295.488 
L 262.79499 241.728 
L 263.038603 295.488 
L 263.119807 241.728 
L 263.36342 295.488 
L 263.444624 241.728 
L 263.525828 295.488 
L 263.688237 241.728 
L 263.850645 268.608 
L 264.013054 241.728 
L 264.094258 295.488 
L 264.256667 268.608 
L 264.337871 268.608 
L 264.419075 241.728 
L 264.500279 295.488 
L 264.581483 268.608 
L 264.662688 295.488 
L 264.743892 268.608 
L 264.825096 295.488 
L 264.987505 241.728 
L 265.231117 295.488 
L 265.393526 268.608 
L 265.47473 268.608 
L 265.555934 295.488 
L 265.718343 214.848 
L 265.880751 295.488 
L 265.961956 241.728 
L 266.124364 268.608 
L 266.286772 268.608 
L 266.367977 295.488 
L 266.449181 268.608 
L 266.611589 295.488 
L 266.773998 295.488 
L 266.855202 241.728 
L 267.017611 295.488 
L 267.098815 268.608 
L 267.261223 295.488 
L 267.423632 268.608 
L 267.504836 268.608 
L 267.667245 295.488 
L 267.829653 268.608 
L 268.073266 268.608 
L 268.235674 241.728 
L 268.398083 295.488 
L 268.641695 241.728 
L 268.7229 241.728 
L 268.966512 295.488 
L 269.128921 268.608 
L 269.210125 295.488 
L 269.372534 241.728 
L 269.453738 295.488 
L 269.534942 241.728 
L 269.616146 268.608 
L 269.69735 214.848 
L 269.859759 295.488 
L 269.940963 268.608 
L 270.103372 268.608 
L 270.184576 295.488 
L 270.346984 241.728 
L 270.428189 268.608 
L 270.509393 241.728 
L 270.671801 268.608 
L 271.077823 268.608 
L 271.159027 295.488 
L 271.240231 241.728 
L 271.321435 268.608 
L 271.483844 241.728 
L 271.565048 241.728 
L 271.646252 295.488 
L 271.808661 241.728 
L 271.889865 295.488 
L 271.971069 268.608 
L 272.052273 295.488 
L 272.214682 268.608 
L 272.539499 268.608 
L 272.620703 295.488 
L 272.783112 241.728 
L 272.94552 295.488 
L 273.107929 241.728 
L 273.189133 241.728 
L 273.270337 268.608 
L 273.432745 241.728 
L 273.595154 268.608 
L 273.757562 268.608 
L 273.838767 295.488 
L 273.919971 241.728 
L 274.082379 295.488 
L 274.163584 295.488 
L 274.244788 241.728 
L 274.488401 295.488 
L 274.569605 241.728 
L 274.650809 295.488 
L 274.813218 214.848 
L 274.894422 268.608 
L 274.975626 241.728 
L 275.05683 268.608 
L 275.219239 241.728 
L 275.300443 241.728 
L 275.544056 295.488 
L 275.787668 241.728 
L 276.031281 295.488 
L 276.19369 241.728 
L 276.437302 295.488 
L 276.599711 268.608 
L 276.924528 268.608 
L 277.005732 295.488 
L 277.086936 241.728 
L 277.16814 295.488 
L 277.330549 241.728 
L 277.411753 295.488 
L 277.492957 268.608 
L 277.574162 295.488 
L 277.73657 268.608 
L 277.898979 268.608 
L 277.980183 241.728 
L 278.142591 268.608 
L 278.223796 241.728 
L 278.467408 295.488 
L 278.711021 214.848 
L 278.873429 268.608 
L 278.954634 295.488 
L 279.035838 241.728 
L 279.117042 295.488 
L 279.198246 268.608 
L 279.279451 295.488 
L 279.441859 268.608 
L 279.685472 268.608 
L 279.84788 214.848 
L 280.010289 295.488 
L 280.091493 241.728 
L 280.172697 295.488 
L 280.335106 268.608 
L 280.41631 295.488 
L 280.659923 241.728 
L 280.741127 241.728 
L 280.903535 268.608 
L 280.98474 241.728 
L 281.147148 268.608 
L 281.228352 241.728 
L 281.309557 295.488 
L 281.471965 241.728 
L 281.553169 295.488 
L 281.634374 268.608 
L 281.715578 295.488 
L 281.877986 268.608 
L 282.040395 295.488 
L 282.202803 268.608 
L 282.284007 268.608 
L 282.365212 241.728 
L 282.608824 295.488 
L 282.771233 268.608 
L 282.852437 295.488 
L 283.014846 241.728 
L 283.09605 295.488 
L 283.177254 268.608 
L 283.258458 295.488 
L 283.420867 268.608 
L 283.502071 268.608 
L 283.583275 295.488 
L 283.745684 268.608 
L 283.826888 268.608 
L 283.908092 241.728 
L 284.151705 295.488 
L 284.232909 295.488 
L 284.395318 268.608 
L 284.557726 268.608 
L 284.63893 295.488 
L 284.801339 241.728 
L 285.044952 295.488 
L 285.20736 241.728 
L 285.369769 268.608 
L 285.450973 241.728 
L 285.613381 295.488 
L 285.694585 241.728 
L 285.77579 268.608 
L 285.856994 241.728 
L 286.019402 268.608 
L 286.100607 268.608 
L 286.263015 295.488 
L 286.425424 268.608 
L 286.506628 295.488 
L 286.669036 268.608 
L 286.993853 268.608 
L 287.075058 295.488 
L 287.31867 241.728 
L 287.399874 268.608 
L 287.481079 241.728 
L 287.562283 295.488 
L 287.805896 241.728 
L 287.968304 268.608 
L 288.049508 268.608 
L 288.130713 295.488 
L 288.293121 241.728 
L 288.45553 295.488 
L 288.536734 295.488 
L 288.780347 214.848 
L 288.942755 268.608 
L 289.023959 268.608 
L 289.105163 241.728 
L 289.267572 295.488 
L 289.42998 241.728 
L 289.592389 295.488 
L 289.673593 295.488 
L 289.917206 241.728 
L 289.99841 268.608 
L 290.079614 241.728 
L 290.242023 268.608 
L 290.323227 268.608 
L 290.404431 241.728 
L 290.56684 295.488 
L 290.648044 241.728 
L 290.810452 295.488 
L 290.972861 268.608 
L 291.054065 268.608 
L 291.135269 295.488 
L 291.297678 268.608 
L 291.460086 268.608 
L 291.541291 295.488 
L 291.703699 268.608 
L 291.784903 268.608 
L 291.866108 295.488 
L 292.028516 214.848 
L 292.190925 268.608 
L 292.272129 268.608 
L 292.353333 295.488 
L 292.434537 241.728 
L 292.67815 295.488 
L 292.759354 241.728 
L 292.840558 295.488 
L 293.002967 241.728 
L 293.084171 295.488 
L 293.165375 268.608 
L 293.24658 295.488 
L 293.408988 241.728 
L 293.490192 295.488 
L 293.571397 241.728 
L 293.652601 295.488 
L 293.733805 241.728 
L 293.896214 295.488 
L 293.977418 268.608 
L 294.139826 295.488 
L 294.221031 268.608 
L 294.302235 295.488 
L 294.464643 268.608 
L 294.627052 268.608 
L 294.78946 241.728 
L 294.870664 268.608 
L 295.033073 241.728 
L 295.114277 268.608 
L 295.195481 241.728 
L 295.276686 268.608 
L 295.439094 241.728 
L 295.601503 295.488 
L 295.763911 268.608 
L 296.007524 268.608 
L 296.088728 295.488 
L 296.251136 268.608 
L 296.332341 268.608 
L 296.494749 295.488 
L 296.657158 268.608 
L 296.819566 295.488 
L 296.981975 268.608 
L 297.063179 268.608 
L 297.144383 295.488 
L 297.306792 241.728 
L 297.387996 295.488 
L 297.550404 241.728 
L 297.631609 268.608 
L 297.712813 241.728 
L 297.794017 268.608 
L 297.956425 241.728 
L 298.03763 295.488 
L 298.200038 268.608 
L 298.443651 268.608 
L 298.524855 295.488 
L 298.687264 268.608 
L 298.768468 295.488 
L 298.849672 241.728 
L 298.930876 268.608 
L 299.012081 241.728 
L 299.093285 295.488 
L 299.255693 241.728 
L 299.418102 268.608 
L 299.499306 268.608 
L 299.58051 241.728 
L 299.661714 295.488 
L 299.742919 268.608 
L 299.905327 295.488 
L 299.986531 295.488 
L 300.14894 268.608 
L 300.230144 268.608 
L 300.311348 241.728 
L 300.473757 295.488 
L 300.554961 268.608 
L 300.71737 295.488 
L 300.879778 241.728 
L 301.042187 295.488 
L 301.285799 241.728 
L 301.529412 295.488 
L 301.610616 295.488 
L 301.854229 241.728 
L 301.935433 268.608 
L 302.016637 241.728 
L 302.179046 295.488 
L 302.26025 268.608 
L 302.341454 295.488 
L 302.503863 241.728 
L 302.585067 295.488 
L 302.666271 241.728 
L 302.747476 295.488 
L 302.909884 241.728 
L 303.072293 268.608 
L 303.234701 268.608 
L 303.315905 295.488 
L 303.397109 241.728 
L 303.478314 295.488 
L 303.640722 268.608 
L 303.721926 295.488 
L 303.803131 268.608 
L 303.965539 295.488 
L 304.046743 268.608 
L 304.209152 295.488 
L 304.290356 214.848 
L 304.452765 268.608 
L 304.615173 268.608 
L 304.696377 241.728 
L 304.858786 268.608 
L 304.93999 241.728 
L 305.021194 268.608 
L 305.102398 241.728 
L 305.346011 295.488 
L 305.427215 295.488 
L 305.589624 268.608 
L 305.914441 268.608 
L 305.995645 295.488 
L 306.158054 241.728 
L 306.320462 295.488 
L 306.482871 268.608 
L 306.564075 295.488 
L 306.807687 241.728 
L 306.970096 268.608 
L 307.0513 241.728 
L 307.132504 268.608 
L 307.213709 241.728 
L 307.294913 295.488 
L 307.376117 268.608 
L 307.457321 295.488 
L 307.538526 241.728 
L 307.61973 295.488 
L 307.782138 268.608 
L 307.944547 268.608 
L 308.025751 241.728 
L 308.106955 268.608 
L 308.18816 241.728 
L 308.350568 268.608 
L 308.431772 241.728 
L 308.512976 295.488 
L 308.594181 268.608 
L 308.675385 295.488 
L 308.756589 241.728 
L 308.918998 268.608 
L 309.000202 241.728 
L 309.081406 268.608 
L 309.16261 241.728 
L 309.325019 268.608 
L 309.406223 241.728 
L 309.568632 268.608 
L 309.649836 214.848 
L 309.73104 295.488 
L 309.812244 268.608 
L 309.893449 241.728 
L 310.055857 268.608 
L 310.137061 241.728 
L 310.218265 268.608 
L 310.29947 241.728 
L 310.461878 268.608 
L 310.624287 268.608 
L 310.705491 295.488 
L 310.867899 268.608 
L 311.030308 268.608 
L 311.111512 295.488 
L 311.273921 241.728 
L 311.436329 295.488 
L 311.517533 241.728 
L 311.598738 295.488 
L 311.761146 241.728 
L 311.84235 268.608 
L 311.923555 241.728 
L 312.085963 268.608 
L 312.167167 241.728 
L 312.329576 295.488 
L 312.491984 241.728 
L 312.654393 268.608 
L 312.735597 268.608 
L 312.816801 295.488 
L 312.97921 241.728 
L 313.060414 295.488 
L 313.222822 268.608 
L 313.304027 268.608 
L 313.385231 241.728 
L 313.547639 268.608 
L 313.710048 268.608 
L 313.791252 295.488 
L 313.95366 268.608 
L 314.034865 295.488 
L 314.197273 241.728 
L 314.359682 295.488 
L 314.440886 241.728 
L 314.684499 295.488 
L 314.765703 241.728 
L 315.009316 295.488 
L 315.09052 241.728 
L 315.334133 295.488 
L 315.415337 241.728 
L 315.577745 295.488 
L 315.740154 268.608 
L 315.902562 268.608 
L 315.983766 295.488 
L 316.064971 268.608 
L 316.146175 295.488 
L 316.389788 241.728 
L 316.552196 268.608 
L 316.6334 268.608 
L 316.795809 295.488 
L 316.877013 295.488 
L 316.958217 241.728 
L 317.120626 268.608 
L 317.20183 268.608 
L 317.283034 295.488 
L 317.364238 241.728 
L 317.526647 295.488 
L 317.607851 295.488 
L 317.689055 241.728 
L 317.851464 268.608 
L 318.095077 268.608 
L 318.257485 295.488 
L 318.338689 295.488 
L 318.419894 268.608 
L 318.501098 295.488 
L 318.663506 268.608 
L 318.744711 295.488 
L 318.907119 268.608 
L 319.069527 295.488 
L 319.231936 241.728 
L 319.394344 295.488 
L 319.637957 241.728 
L 319.800366 268.608 
L 320.043978 268.608 
L 320.206387 295.488 
L 320.287591 268.608 
L 320.368795 295.488 
L 320.531204 241.728 
L 320.693612 268.608 
L 320.774816 268.608 
L 320.856021 241.728 
L 321.018429 295.488 
L 321.180838 241.728 
L 321.262042 295.488 
L 321.343246 268.608 
L 321.42445 295.488 
L 321.586859 268.608 
L 321.668063 295.488 
L 321.749267 268.608 
L 321.830472 295.488 
L 321.99288 241.728 
L 322.155289 268.608 
L 322.236493 241.728 
L 322.317697 295.488 
L 322.398901 241.728 
L 322.56131 268.608 
L 322.642514 241.728 
L 322.804922 295.488 
L 322.967331 241.728 
L 323.048535 268.608 
L 323.129739 241.728 
L 323.292148 295.488 
L 323.373352 268.608 
L 323.535761 295.488 
L 323.698169 268.608 
L 323.941782 268.608 
L 324.022986 295.488 
L 324.185395 241.728 
L 324.347803 295.488 
L 324.429007 268.608 
L 324.510211 295.488 
L 324.591416 241.728 
L 324.835028 295.488 
L 324.997437 241.728 
L 325.078641 268.608 
L 325.159845 241.728 
L 325.24105 295.488 
L 325.484662 241.728 
L 325.647071 268.608 
L 325.728275 268.608 
L 325.809479 295.488 
L 325.971888 268.608 
L 326.053092 268.608 
L 326.134296 241.728 
L 326.2155 295.488 
L 326.459113 241.728 
L 326.540317 268.608 
L 326.621522 241.728 
L 326.702726 268.608 
L 326.78393 241.728 
L 326.946339 268.608 
L 327.027543 268.608 
L 327.108747 295.488 
L 327.189951 241.728 
L 327.433564 295.488 
L 327.514768 295.488 
L 327.677177 268.608 
L 327.758381 268.608 
L 327.839585 241.728 
L 327.920789 295.488 
L 328.083198 214.848 
L 328.245606 295.488 
L 328.326811 241.728 
L 328.408015 295.488 
L 328.489219 268.608 
L 328.570423 295.488 
L 328.651628 241.728 
L 328.732832 295.488 
L 328.89524 268.608 
L 329.220057 268.608 
L 329.301262 295.488 
L 329.382466 241.728 
L 329.626078 295.488 
L 329.707283 268.608 
L 329.788487 295.488 
L 329.950895 268.608 
L 330.0321 295.488 
L 330.113304 241.728 
L 330.275712 268.608 
L 330.356917 268.608 
L 330.438121 241.728 
L 330.519325 268.608 
L 330.681734 241.728 
L 330.762938 241.728 
L 331.006551 295.488 
L 331.087755 295.488 
L 331.331368 241.728 
L 331.493776 268.608 
L 331.57498 268.608 
L 331.656184 295.488 
L 331.737389 241.728 
L 331.818593 268.608 
L 331.899797 241.728 
L 332.062206 268.608 
L 332.305818 268.608 
L 332.387023 241.728 
L 332.549431 268.608 
L 332.71184 268.608 
L 332.793044 295.488 
L 332.874248 241.728 
L 333.036657 268.608 
L 333.361473 268.608 
L 333.523882 295.488 
L 333.767495 214.848 
L 333.848699 295.488 
L 333.929903 268.608 
L 334.011107 295.488 
L 334.092312 241.728 
L 334.173516 295.488 
L 334.25472 241.728 
L 334.417129 268.608 
L 334.498333 268.608 
L 334.579537 241.728 
L 334.660741 295.488 
L 334.741946 268.608 
L 334.82315 295.488 
L 334.985558 268.608 
L 335.066762 268.608 
L 335.229171 295.488 
L 335.310375 295.488 
L 335.472784 241.728 
L 335.553988 295.488 
L 335.797601 241.728 
L 335.878805 295.488 
L 336.041213 241.728 
L 336.122418 241.728 
L 336.284826 295.488 
L 336.447235 268.608 
L 336.528439 295.488 
L 336.609643 268.608 
L 336.690847 295.488 
L 336.853256 241.728 
L 336.93446 268.608 
L 337.015664 241.728 
L 337.096868 295.488 
L 337.259277 268.608 
L 337.340481 295.488 
L 337.421685 241.728 
L 337.665298 295.488 
L 337.827707 241.728 
L 337.990115 295.488 
L 338.233728 241.728 
L 338.396136 295.488 
L 338.558545 241.728 
L 338.720953 295.488 
L 338.883362 268.608 
L 338.964566 295.488 
L 339.04577 268.608 
L 339.126974 295.488 
L 339.289383 268.608 
L 339.370587 295.488 
L 339.451791 241.728 
L 339.6142 268.608 
L 339.695404 268.608 
L 339.776608 295.488 
L 339.857813 268.608 
L 339.939017 295.488 
L 340.020221 241.728 
L 340.263834 295.488 
L 340.426242 241.728 
L 340.507446 295.488 
L 340.751059 241.728 
L 340.913468 295.488 
L 341.15708 241.728 
L 341.238285 268.608 
L 341.319489 241.728 
L 341.563102 295.488 
L 341.644306 295.488 
L 341.72551 241.728 
L 341.806714 295.488 
L 342.050327 241.728 
L 342.131531 241.728 
L 342.375144 295.488 
L 342.537552 268.608 
L 342.781165 268.608 
L 342.862369 241.728 
L 342.943574 295.488 
L 343.105982 268.608 
L 343.268391 268.608 
L 343.349595 241.728 
L 343.512003 268.608 
L 343.593208 241.728 
L 343.755616 295.488 
L 343.918024 268.608 
L 343.999229 268.608 
L 344.080433 241.728 
L 344.161637 268.608 
L 344.324046 241.728 
L 344.40525 241.728 
L 344.567658 268.608 
L 344.648863 241.728 
L 344.811271 268.608 
L 344.892475 268.608 
L 344.97368 295.488 
L 345.054884 241.728 
L 345.136088 295.488 
L 345.298497 268.608 
L 345.379701 295.488 
L 345.542109 268.608 
L 345.704518 268.608 
L 345.866926 241.728 
L 345.94813 295.488 
L 346.110539 268.608 
L 346.272947 268.608 
L 346.354152 295.488 
L 346.435356 241.728 
L 346.597764 295.488 
L 346.678969 268.608 
L 346.841377 295.488 
L 347.003786 268.608 
L 347.08499 268.608 
L 347.166194 295.488 
L 347.247398 268.608 
L 347.328602 295.488 
L 347.572215 241.728 
L 347.653419 268.608 
L 347.734624 241.728 
L 347.815828 268.608 
L 347.978236 241.728 
L 348.059441 295.488 
L 348.140645 268.608 
L 348.221849 295.488 
L 348.384258 268.608 
L 348.465462 295.488 
L 348.709075 241.728 
L 348.790279 295.488 
L 348.871483 268.608 
L 348.952687 295.488 
L 349.115096 268.608 
L 349.1963 268.608 
L 349.277504 241.728 
L 349.439913 295.488 
L 349.602321 268.608 
L 349.683525 268.608 
L 349.76473 295.488 
L 349.927138 268.608 
L 350.170751 268.608 
L 350.251955 295.488 
L 350.414364 268.608 
L 350.495568 268.608 
L 350.657976 241.728 
L 350.820385 268.608 
L 351.063997 268.608 
L 351.226406 241.728 
L 351.470019 295.488 
L 351.632427 241.728 
L 351.713631 268.608 
L 351.794836 241.728 
L 351.957244 268.608 
L 352.200857 268.608 
L 352.363265 295.488 
L 352.525674 268.608 
L 352.606878 268.608 
L 352.688082 241.728 
L 352.769286 268.608 
L 352.850491 241.728 
L 353.094103 295.488 
L 353.175308 295.488 
L 353.256512 268.608 
L 353.337716 295.488 
L 353.581329 214.848 
L 353.743737 295.488 
L 353.98735 241.728 
L 354.068554 268.608 
L 354.230963 241.728 
L 354.393371 295.488 
L 354.474575 241.728 
L 354.636984 295.488 
L 354.799392 241.728 
L 354.961801 295.488 
L 355.124209 268.608 
L 355.205414 268.608 
L 355.286618 295.488 
L 355.530231 241.728 
L 355.773843 295.488 
L 355.855048 268.608 
L 355.936252 295.488 
L 356.017456 268.608 
L 356.09866 295.488 
L 356.261069 241.728 
L 356.423477 268.608 
L 356.66709 268.608 
L 356.829498 295.488 
L 356.991907 268.608 
L 357.154315 268.608 
L 357.23552 241.728 
L 357.397928 295.488 
L 357.479132 241.728 
L 357.560337 268.608 
L 357.641541 241.728 
L 357.803949 295.488 
L 357.885153 268.608 
L 357.966358 295.488 
L 358.128766 268.608 
L 358.20997 268.608 
L 358.291175 295.488 
L 358.453583 268.608 
L 358.534787 268.608 
L 358.615992 295.488 
L 358.697196 241.728 
L 358.859604 295.488 
L 359.022013 241.728 
L 359.103217 295.488 
L 359.265626 241.728 
L 359.428034 295.488 
L 359.590442 214.848 
L 359.752851 268.608 
L 359.834055 268.608 
L 359.996464 295.488 
L 360.077668 295.488 
L 360.158872 241.728 
L 360.321281 295.488 
L 360.402485 268.608 
L 360.483689 295.488 
L 360.646098 268.608 
L 360.808506 268.608 
L 360.88971 241.728 
L 361.052119 295.488 
L 361.133323 268.608 
L 361.295732 295.488 
L 361.45814 268.608 
L 361.782957 268.608 
L 361.864161 295.488 
L 361.945365 241.728 
L 362.02657 295.488 
L 362.188978 241.728 
L 362.351387 295.488 
L 362.513795 268.608 
L 362.594999 295.488 
L 362.757408 268.608 
L 362.838612 295.488 
L 363.082225 241.728 
L 363.244633 295.488 
L 363.325837 268.608 
L 363.407042 295.488 
L 363.488246 268.608 
L 363.650654 295.488 
L 363.731859 268.608 
L 363.813063 295.488 
L 363.975471 268.608 
L 364.13788 268.608 
L 364.219084 241.728 
L 364.381493 295.488 
L 364.543901 268.608 
L 365.031126 268.608 
L 365.112331 241.728 
L 365.355943 295.488 
L 365.437148 241.728 
L 365.518352 268.608 
L 365.68076 241.728 
L 365.843169 295.488 
L 365.924373 268.608 
L 366.086782 295.488 
L 366.24919 268.608 
L 366.411599 295.488 
L 366.492803 295.488 
L 366.574007 241.728 
L 366.736415 268.608 
L 366.81762 268.608 
L 366.898824 241.728 
L 367.061232 268.608 
L 367.142437 268.608 
L 367.223641 241.728 
L 367.304845 268.608 
L 367.386049 241.728 
L 367.629662 295.488 
L 367.792071 241.728 
L 367.873275 268.608 
L 367.954479 241.728 
L 368.198092 295.488 
L 368.279296 268.608 
L 368.3605 295.488 
L 368.441704 268.608 
L 368.522909 295.488 
L 368.604113 268.608 
L 368.766521 295.488 
L 368.847726 268.608 
L 368.92893 295.488 
L 369.091338 268.608 
L 369.172543 295.488 
L 369.334951 268.608 
L 369.49736 268.608 
L 369.659768 295.488 
L 369.822177 268.608 
L 369.903381 295.488 
L 370.146993 241.728 
L 370.309402 268.608 
L 370.47181 268.608 
L 370.553015 295.488 
L 370.634219 241.728 
L 370.796627 295.488 
L 370.959036 268.608 
L 371.04024 268.608 
L 371.202649 241.728 
L 371.446261 295.488 
L 371.60867 241.728 
L 371.689874 295.488 
L 371.771078 268.608 
L 371.933487 295.488 
L 372.095895 268.608 
L 372.177099 268.608 
L 372.258304 241.728 
L 372.420712 295.488 
L 372.583121 241.728 
L 372.664325 268.608 
L 372.745529 241.728 
L 372.826733 295.488 
L 372.989142 241.728 
L 373.15155 268.608 
L 373.313959 268.608 
L 373.395163 295.488 
L 373.557572 268.608 
L 373.638776 295.488 
L 373.801184 268.608 
L 373.963593 268.608 
L 374.044797 295.488 
L 374.126001 268.608 
L 374.28841 295.488 
L 374.450818 241.728 
L 374.532022 268.608 
L 374.613227 241.728 
L 374.694431 268.608 
L 374.775635 241.728 
L 374.938044 295.488 
L 375.100452 241.728 
L 375.181656 241.728 
L 375.344065 295.488 
L 375.587677 241.728 
L 375.668882 295.488 
L 375.750086 241.728 
L 375.912494 295.488 
L 376.074903 268.608 
L 376.318516 268.608 
L 376.39972 241.728 
L 376.562128 295.488 
L 376.724537 268.608 
L 376.805741 295.488 
L 376.96815 241.728 
L 377.049354 295.488 
L 377.130558 241.728 
L 377.374171 295.488 
L 377.536579 241.728 
L 377.617783 241.728 
L 377.698988 295.488 
L 377.861396 268.608 
L 378.186213 268.608 
L 378.267417 295.488 
L 378.429826 268.608 
L 378.754643 268.608 
L 378.835847 241.728 
L 378.998255 295.488 
L 379.241868 241.728 
L 379.404277 268.608 
L 379.647889 268.608 
L 379.810298 295.488 
L 379.891502 241.728 
L 380.053911 268.608 
L 380.135115 241.728 
L 380.216319 295.488 
L 380.297523 241.728 
L 380.378728 295.488 
L 380.541136 268.608 
L 380.62234 268.608 
L 380.703544 295.488 
L 380.784749 241.728 
L 380.947157 295.488 
L 381.19077 241.728 
L 381.353178 268.608 
L 381.7592 268.608 
L 381.840404 241.728 
L 381.921608 295.488 
L 382.002812 241.728 
L 382.165221 295.488 
L 382.327629 268.608 
L 382.490038 268.608 
L 382.571242 241.728 
L 382.652446 295.488 
L 382.814855 268.608 
L 382.896059 295.488 
L 382.977263 241.728 
L 383.220876 295.488 
L 383.30208 268.608 
L 383.383284 295.488 
L 383.464489 268.608 
L 383.545693 295.488 
L 383.708101 268.608 
L 383.87051 268.608 
L 384.032918 295.488 
L 384.114123 268.608 
L 384.195327 295.488 
L 384.357735 268.608 
L 384.438939 295.488 
L 384.520144 241.728 
L 384.763756 295.488 
L 384.844961 241.728 
L 384.926165 295.488 
L 385.007369 268.608 
L 385.088573 295.488 
L 385.250982 268.608 
L 385.332186 295.488 
L 385.494595 268.608 
L 385.819412 268.608 
L 385.900616 295.488 
L 385.98182 268.608 
L 386.144228 295.488 
L 386.306637 268.608 
L 386.469045 295.488 
L 386.631454 241.728 
L 386.793862 268.608 
L 386.875067 268.608 
L 387.037475 295.488 
L 387.118679 295.488 
L 387.281088 241.728 
L 387.362292 295.488 
L 387.524701 268.608 
L 387.605905 268.608 
L 387.687109 241.728 
L 387.768313 295.488 
L 387.849517 241.728 
L 388.011926 295.488 
L 388.174334 241.728 
L 388.417947 295.488 
L 388.66156 241.728 
L 388.905173 295.488 
L 388.986377 241.728 
L 389.148785 268.608 
L 389.22999 241.728 
L 389.392398 268.608 
L 389.554806 241.728 
L 389.717215 295.488 
L 389.798419 268.608 
L 389.879623 295.488 
L 390.042032 241.728 
L 390.20444 268.608 
L 390.529257 268.608 
L 390.691666 295.488 
L 390.77287 241.728 
L 390.854074 295.488 
L 390.935279 241.728 
L 391.016483 295.488 
L 391.260096 241.728 
L 391.3413 268.608 
L 391.422504 241.728 
L 391.584912 295.488 
L 391.666117 241.728 
L 391.828525 268.608 
L 392.072138 214.848 
L 392.234546 268.608 
L 392.315751 241.728 
L 392.478159 295.488 
L 392.721772 241.728 
L 392.88418 295.488 
L 392.965385 295.488 
L 393.127793 268.608 
L 393.208997 295.488 
L 393.45261 241.728 
L 393.533814 268.608 
L 393.615018 214.848 
L 393.777427 295.488 
L 393.858631 241.728 
L 393.939835 295.488 
L 394.102244 241.728 
L 394.264652 268.608 
L 394.345857 241.728 
L 394.589469 295.488 
L 394.833082 241.728 
L 394.914286 241.728 
L 394.99549 268.608 
L 395.076695 241.728 
L 395.157899 295.488 
L 395.320307 268.608 
L 395.401512 295.488 
L 395.482716 268.608 
L 395.56392 295.488 
L 395.807533 241.728 
L 395.888737 295.488 
L 395.969941 268.608 
L 396.051146 295.488 
L 396.13235 241.728 
L 396.213554 295.488 
L 396.457167 214.848 
L 396.538371 295.488 
L 396.619575 241.728 
L 396.781984 295.488 
L 396.944392 268.608 
L 397.106801 268.608 
L 397.188005 241.728 
L 397.269209 295.488 
L 397.431618 268.608 
L 397.837639 268.608 
L 397.918843 295.488 
L 398.081252 268.608 
L 398.24366 268.608 
L 398.324864 241.728 
L 398.487273 295.488 
L 398.487273 295.488 
" clip-path="url(#p75f0fbe283)" style="fill: none; stroke: #1f77b4; stroke-width: 1.5; stroke-linecap: square"/>
   </g>
   <g id="patch_3">
    <path d="M 57.6 307.584 
L 57.6 41.472 
" style="fill: none; stroke: #000000; stroke-width: 0.8; stroke-linejoin: miter; stroke-linecap: square"/>
   </g>
   <g id="patch_4">
    <path d="M 414.72 307.584 
L 414.72 41.472 
" style="fill: none; stroke: #000000; stroke-width: 0.8; stroke-linejoin: miter; stroke-linecap: square"/>
   </g>
   <g id="patch_5">
    <path d="M 57.6 307.584 
L 414.72 307.584 
" style="fill: none; stroke: #000000; stroke-width: 0.8; stroke-linejoin: miter; stroke-linecap: square"/>
   </g>
   <g id="patch_6">
    <path d="M 57.6 41.472 
L 414.72 41.472 
" style="fill: none; stroke: #000000; stroke-width: 0.8; stroke-linejoin: miter; stroke-linecap: square"/>
   </g>
   <g id="text_17">
    <!-- Training progress -->
    <g transform="translate(184.686563 35.472) scale(0.12 -0.12)">
     <defs>
      <path id="DejaVuSans-54" d="M -19 4666 
L 3928 4666 
L 3928 4134 
L 2272 4134 
L 2272 0 
L 1638 0 
L 1638 4134 
L -19 4134 
L -19 4666 
z
" transform="scale(0.015625)"/>
     </defs>
     <use xlink:href="#DejaVuSans-54"/>
     <use xlink:href="#DejaVuSans-72" x="46.333984"/>
     <use xlink:href="#DejaVuSans-61" x="87.447266"/>
     <use xlink:href="#DejaVuSans-69" x="148.726562"/>
     <use xlink:href="#DejaVuSans-6e" x="176.509766"/>
     <use xlink:href="#DejaVuSans-69" x="239.888672"/>
     <use xlink:href="#DejaVuSans-6e" x="267.671875"/>
     <use xlink:href="#DejaVuSans-67" x="331.050781"/>
     <use xlink:href="#DejaVuSans-20" x="394.527344"/>
     <use xlink:href="#DejaVuSans-70" x="426.314453"/>
     <use xlink:href="#DejaVuSans-72" x="489.791016"/>
     <use xlink:href="#DejaVuSans-6f" x="528.654297"/>
     <use xlink:href="#DejaVuSans-67" x="589.835938"/>
     <use xlink:href="#DejaVuSans-72" x="653.3125"/>
     <use xlink:href="#DejaVuSans-65" x="692.175781"/>
     <use xlink:href="#DejaVuSans-73" x="753.699219"/>
     <use xlink:href="#DejaVuSans-73" x="805.798828"/>
    </g>
   </g>
  </g>
 </g>
 <defs>
  <clipPath id="p75f0fbe283">
   <rect x="57.6" y="41.472" width="357.12" height="266.112"/>
  </clipPath>
 </defs>
</svg>
