<?xml version="1.0" encoding="utf-8" standalone="no"?>
<!DOCTYPE svg PUBLIC "-//W3C//DTD SVG 1.1//EN"
  "http://www.w3.org/Graphics/SVG/1.1/DTD/svg11.dtd">
<svg xmlns:xlink="http://www.w3.org/1999/xlink" width="460.8pt" height="345.6pt" viewBox="0 0 460.8 345.6" xmlns="http://www.w3.org/2000/svg" version="1.1">
 <metadata>
  <rdf:RDF xmlns:dc="http://purl.org/dc/elements/1.1/" xmlns:cc="http://creativecommons.org/ns#" xmlns:rdf="http://www.w3.org/1999/02/22-rdf-syntax-ns#">
   <cc:Work>
    <dc:type rdf:resource="http://purl.org/dc/dcmitype/StillImage"/>
    <dc:date>2023-05-03T18:33:51.578221</dc:date>
    <dc:format>image/svg+xml</dc:format>
    <dc:creator>
     <cc:Agent>
      <dc:title>Matplotlib v3.6.2, https://matplotlib.org/</dc:title>
     </cc:Agent>
    </dc:creator>
   </cc:Work>
  </rdf:RDF>
 </metadata>
 <defs>
  <style type="text/css">*{stroke-linejoin: round; stroke-linecap: butt}</style>
 </defs>
 <g id="figure_1">
  <g id="patch_1">
   <path d="M 0 345.6 
L 460.8 345.6 
L 460.8 0 
L 0 0 
z
" style="fill: #ffffff"/>
  </g>
  <g id="axes_1">
   <g id="patch_2">
    <path d="M 57.6 307.584 
L 414.72 307.584 
L 414.72 41.472 
L 57.6 41.472 
z
" style="fill: #ffffff"/>
   </g>
   <g id="matplotlib.axis_1">
    <g id="xtick_1">
     <g id="line2d_1">
      <defs>
       <path id="m93b9c54a50" d="M 0 0 
L 0 3.5 
" style="stroke: #000000; stroke-width: 0.8"/>
      </defs>
      <g>
       <use xlink:href="#m93b9c54a50" x="73.832727" y="307.584" style="stroke: #000000; stroke-width: 0.8"/>
      </g>
     </g>
     <g id="text_1">
      <!-- 0 -->
      <g transform="translate(70.651477 322.182437) scale(0.1 -0.1)">
       <defs>
        <path id="DejaVuSans-30" d="M 2034 4250 
Q 1547 4250 1301 3770 
Q 1056 3291 1056 2328 
Q 1056 1369 1301 889 
Q 1547 409 2034 409 
Q 2525 409 2770 889 
Q 3016 1369 3016 2328 
Q 3016 3291 2770 3770 
Q 2525 4250 2034 4250 
z
M 2034 4750 
Q 2819 4750 3233 4129 
Q 3647 3509 3647 2328 
Q 3647 1150 3233 529 
Q 2819 -91 2034 -91 
Q 1250 -91 836 529 
Q 422 1150 422 2328 
Q 422 3509 836 4129 
Q 1250 4750 2034 4750 
z
" transform="scale(0.015625)"/>
       </defs>
       <use xlink:href="#DejaVuSans-30"/>
      </g>
     </g>
    </g>
    <g id="xtick_2">
     <g id="line2d_2">
      <g>
       <use xlink:href="#m93b9c54a50" x="114.424693" y="307.584" style="stroke: #000000; stroke-width: 0.8"/>
      </g>
     </g>
     <g id="text_2">
      <!-- 500 -->
      <g transform="translate(104.880943 322.182437) scale(0.1 -0.1)">
       <defs>
        <path id="DejaVuSans-35" d="M 691 4666 
L 3169 4666 
L 3169 4134 
L 1269 4134 
L 1269 2991 
Q 1406 3038 1543 3061 
Q 1681 3084 1819 3084 
Q 2600 3084 3056 2656 
Q 3513 2228 3513 1497 
Q 3513 744 3044 326 
Q 2575 -91 1722 -91 
Q 1428 -91 1123 -41 
Q 819 9 494 109 
L 494 744 
Q 775 591 1075 516 
Q 1375 441 1709 441 
Q 2250 441 2565 725 
Q 2881 1009 2881 1497 
Q 2881 1984 2565 2268 
Q 2250 2553 1709 2553 
Q 1456 2553 1204 2497 
Q 953 2441 691 2322 
L 691 4666 
z
" transform="scale(0.015625)"/>
       </defs>
       <use xlink:href="#DejaVuSans-35"/>
       <use xlink:href="#DejaVuSans-30" x="63.623047"/>
       <use xlink:href="#DejaVuSans-30" x="127.246094"/>
      </g>
     </g>
    </g>
    <g id="xtick_3">
     <g id="line2d_3">
      <g>
       <use xlink:href="#m93b9c54a50" x="155.01666" y="307.584" style="stroke: #000000; stroke-width: 0.8"/>
      </g>
     </g>
     <g id="text_3">
      <!-- 1000 -->
      <g transform="translate(142.29166 322.182437) scale(0.1 -0.1)">
       <defs>
        <path id="DejaVuSans-31" d="M 794 531 
L 1825 531 
L 1825 4091 
L 703 3866 
L 703 4441 
L 1819 4666 
L 2450 4666 
L 2450 531 
L 3481 531 
L 3481 0 
L 794 0 
L 794 531 
z
" transform="scale(0.015625)"/>
       </defs>
       <use xlink:href="#DejaVuSans-31"/>
       <use xlink:href="#DejaVuSans-30" x="63.623047"/>
       <use xlink:href="#DejaVuSans-30" x="127.246094"/>
       <use xlink:href="#DejaVuSans-30" x="190.869141"/>
      </g>
     </g>
    </g>
    <g id="xtick_4">
     <g id="line2d_4">
      <g>
       <use xlink:href="#m93b9c54a50" x="195.608626" y="307.584" style="stroke: #000000; stroke-width: 0.8"/>
      </g>
     </g>
     <g id="text_4">
      <!-- 1500 -->
      <g transform="translate(182.883626 322.182437) scale(0.1 -0.1)">
       <use xlink:href="#DejaVuSans-31"/>
       <use xlink:href="#DejaVuSans-35" x="63.623047"/>
       <use xlink:href="#DejaVuSans-30" x="127.246094"/>
       <use xlink:href="#DejaVuSans-30" x="190.869141"/>
      </g>
     </g>
    </g>
    <g id="xtick_5">
     <g id="line2d_5">
      <g>
       <use xlink:href="#m93b9c54a50" x="236.200592" y="307.584" style="stroke: #000000; stroke-width: 0.8"/>
      </g>
     </g>
     <g id="text_5">
      <!-- 2000 -->
      <g transform="translate(223.475592 322.182437) scale(0.1 -0.1)">
       <defs>
        <path id="DejaVuSans-32" d="M 1228 531 
L 3431 531 
L 3431 0 
L 469 0 
L 469 531 
Q 828 903 1448 1529 
Q 2069 2156 2228 2338 
Q 2531 2678 2651 2914 
Q 2772 3150 2772 3378 
Q 2772 3750 2511 3984 
Q 2250 4219 1831 4219 
Q 1534 4219 1204 4116 
Q 875 4013 500 3803 
L 500 4441 
Q 881 4594 1212 4672 
Q 1544 4750 1819 4750 
Q 2544 4750 2975 4387 
Q 3406 4025 3406 3419 
Q 3406 3131 3298 2873 
Q 3191 2616 2906 2266 
Q 2828 2175 2409 1742 
Q 1991 1309 1228 531 
z
" transform="scale(0.015625)"/>
       </defs>
       <use xlink:href="#DejaVuSans-32"/>
       <use xlink:href="#DejaVuSans-30" x="63.623047"/>
       <use xlink:href="#DejaVuSans-30" x="127.246094"/>
       <use xlink:href="#DejaVuSans-30" x="190.869141"/>
      </g>
     </g>
    </g>
    <g id="xtick_6">
     <g id="line2d_6">
      <g>
       <use xlink:href="#m93b9c54a50" x="276.792558" y="307.584" style="stroke: #000000; stroke-width: 0.8"/>
      </g>
     </g>
     <g id="text_6">
      <!-- 2500 -->
      <g transform="translate(264.067558 322.182437) scale(0.1 -0.1)">
       <use xlink:href="#DejaVuSans-32"/>
       <use xlink:href="#DejaVuSans-35" x="63.623047"/>
       <use xlink:href="#DejaVuSans-30" x="127.246094"/>
       <use xlink:href="#DejaVuSans-30" x="190.869141"/>
      </g>
     </g>
    </g>
    <g id="xtick_7">
     <g id="line2d_7">
      <g>
       <use xlink:href="#m93b9c54a50" x="317.384524" y="307.584" style="stroke: #000000; stroke-width: 0.8"/>
      </g>
     </g>
     <g id="text_7">
      <!-- 3000 -->
      <g transform="translate(304.659524 322.182437) scale(0.1 -0.1)">
       <defs>
        <path id="DejaVuSans-33" d="M 2597 2516 
Q 3050 2419 3304 2112 
Q 3559 1806 3559 1356 
Q 3559 666 3084 287 
Q 2609 -91 1734 -91 
Q 1441 -91 1130 -33 
Q 819 25 488 141 
L 488 750 
Q 750 597 1062 519 
Q 1375 441 1716 441 
Q 2309 441 2620 675 
Q 2931 909 2931 1356 
Q 2931 1769 2642 2001 
Q 2353 2234 1838 2234 
L 1294 2234 
L 1294 2753 
L 1863 2753 
Q 2328 2753 2575 2939 
Q 2822 3125 2822 3475 
Q 2822 3834 2567 4026 
Q 2313 4219 1838 4219 
Q 1578 4219 1281 4162 
Q 984 4106 628 3988 
L 628 4550 
Q 988 4650 1302 4700 
Q 1616 4750 1894 4750 
Q 2613 4750 3031 4423 
Q 3450 4097 3450 3541 
Q 3450 3153 3228 2886 
Q 3006 2619 2597 2516 
z
" transform="scale(0.015625)"/>
       </defs>
       <use xlink:href="#DejaVuSans-33"/>
       <use xlink:href="#DejaVuSans-30" x="63.623047"/>
       <use xlink:href="#DejaVuSans-30" x="127.246094"/>
       <use xlink:href="#DejaVuSans-30" x="190.869141"/>
      </g>
     </g>
    </g>
    <g id="xtick_8">
     <g id="line2d_8">
      <g>
       <use xlink:href="#m93b9c54a50" x="357.97649" y="307.584" style="stroke: #000000; stroke-width: 0.8"/>
      </g>
     </g>
     <g id="text_8">
      <!-- 3500 -->
      <g transform="translate(345.25149 322.182437) scale(0.1 -0.1)">
       <use xlink:href="#DejaVuSans-33"/>
       <use xlink:href="#DejaVuSans-35" x="63.623047"/>
       <use xlink:href="#DejaVuSans-30" x="127.246094"/>
       <use xlink:href="#DejaVuSans-30" x="190.869141"/>
      </g>
     </g>
    </g>
    <g id="xtick_9">
     <g id="line2d_9">
      <g>
       <use xlink:href="#m93b9c54a50" x="398.568457" y="307.584" style="stroke: #000000; stroke-width: 0.8"/>
      </g>
     </g>
     <g id="text_9">
      <!-- 4000 -->
      <g transform="translate(385.843457 322.182437) scale(0.1 -0.1)">
       <defs>
        <path id="DejaVuSans-34" d="M 2419 4116 
L 825 1625 
L 2419 1625 
L 2419 4116 
z
M 2253 4666 
L 3047 4666 
L 3047 1625 
L 3713 1625 
L 3713 1100 
L 3047 1100 
L 3047 0 
L 2419 0 
L 2419 1100 
L 313 1100 
L 313 1709 
L 2253 4666 
z
" transform="scale(0.015625)"/>
       </defs>
       <use xlink:href="#DejaVuSans-34"/>
       <use xlink:href="#DejaVuSans-30" x="63.623047"/>
       <use xlink:href="#DejaVuSans-30" x="127.246094"/>
       <use xlink:href="#DejaVuSans-30" x="190.869141"/>
      </g>
     </g>
    </g>
    <g id="text_10">
     <!-- Image shown -->
     <g transform="translate(202.820156 335.860562) scale(0.1 -0.1)">
      <defs>
       <path id="DejaVuSans-49" d="M 628 4666 
L 1259 4666 
L 1259 0 
L 628 0 
L 628 4666 
z
" transform="scale(0.015625)"/>
       <path id="DejaVuSans-6d" d="M 3328 2828 
Q 3544 3216 3844 3400 
Q 4144 3584 4550 3584 
Q 5097 3584 5394 3201 
Q 5691 2819 5691 2113 
L 5691 0 
L 5113 0 
L 5113 2094 
Q 5113 2597 4934 2840 
Q 4756 3084 4391 3084 
Q 3944 3084 3684 2787 
Q 3425 2491 3425 1978 
L 3425 0 
L 2847 0 
L 2847 2094 
Q 2847 2600 2669 2842 
Q 2491 3084 2119 3084 
Q 1678 3084 1418 2786 
Q 1159 2488 1159 1978 
L 1159 0 
L 581 0 
L 581 3500 
L 1159 3500 
L 1159 2956 
Q 1356 3278 1631 3431 
Q 1906 3584 2284 3584 
Q 2666 3584 2933 3390 
Q 3200 3197 3328 2828 
z
" transform="scale(0.015625)"/>
       <path id="DejaVuSans-61" d="M 2194 1759 
Q 1497 1759 1228 1600 
Q 959 1441 959 1056 
Q 959 750 1161 570 
Q 1363 391 1709 391 
Q 2188 391 2477 730 
Q 2766 1069 2766 1631 
L 2766 1759 
L 2194 1759 
z
M 3341 1997 
L 3341 0 
L 2766 0 
L 2766 531 
Q 2569 213 2275 61 
Q 1981 -91 1556 -91 
Q 1019 -91 701 211 
Q 384 513 384 1019 
Q 384 1609 779 1909 
Q 1175 2209 1959 2209 
L 2766 2209 
L 2766 2266 
Q 2766 2663 2505 2880 
Q 2244 3097 1772 3097 
Q 1472 3097 1187 3025 
Q 903 2953 641 2809 
L 641 3341 
Q 956 3463 1253 3523 
Q 1550 3584 1831 3584 
Q 2591 3584 2966 3190 
Q 3341 2797 3341 1997 
z
" transform="scale(0.015625)"/>
       <path id="DejaVuSans-67" d="M 2906 1791 
Q 2906 2416 2648 2759 
Q 2391 3103 1925 3103 
Q 1463 3103 1205 2759 
Q 947 2416 947 1791 
Q 947 1169 1205 825 
Q 1463 481 1925 481 
Q 2391 481 2648 825 
Q 2906 1169 2906 1791 
z
M 3481 434 
Q 3481 -459 3084 -895 
Q 2688 -1331 1869 -1331 
Q 1566 -1331 1297 -1286 
Q 1028 -1241 775 -1147 
L 775 -588 
Q 1028 -725 1275 -790 
Q 1522 -856 1778 -856 
Q 2344 -856 2625 -561 
Q 2906 -266 2906 331 
L 2906 616 
Q 2728 306 2450 153 
Q 2172 0 1784 0 
Q 1141 0 747 490 
Q 353 981 353 1791 
Q 353 2603 747 3093 
Q 1141 3584 1784 3584 
Q 2172 3584 2450 3431 
Q 2728 3278 2906 2969 
L 2906 3500 
L 3481 3500 
L 3481 434 
z
" transform="scale(0.015625)"/>
       <path id="DejaVuSans-65" d="M 3597 1894 
L 3597 1613 
L 953 1613 
Q 991 1019 1311 708 
Q 1631 397 2203 397 
Q 2534 397 2845 478 
Q 3156 559 3463 722 
L 3463 178 
Q 3153 47 2828 -22 
Q 2503 -91 2169 -91 
Q 1331 -91 842 396 
Q 353 884 353 1716 
Q 353 2575 817 3079 
Q 1281 3584 2069 3584 
Q 2775 3584 3186 3129 
Q 3597 2675 3597 1894 
z
M 3022 2063 
Q 3016 2534 2758 2815 
Q 2500 3097 2075 3097 
Q 1594 3097 1305 2825 
Q 1016 2553 972 2059 
L 3022 2063 
z
" transform="scale(0.015625)"/>
       <path id="DejaVuSans-20" transform="scale(0.015625)"/>
       <path id="DejaVuSans-73" d="M 2834 3397 
L 2834 2853 
Q 2591 2978 2328 3040 
Q 2066 3103 1784 3103 
Q 1356 3103 1142 2972 
Q 928 2841 928 2578 
Q 928 2378 1081 2264 
Q 1234 2150 1697 2047 
L 1894 2003 
Q 2506 1872 2764 1633 
Q 3022 1394 3022 966 
Q 3022 478 2636 193 
Q 2250 -91 1575 -91 
Q 1294 -91 989 -36 
Q 684 19 347 128 
L 347 722 
Q 666 556 975 473 
Q 1284 391 1588 391 
Q 1994 391 2212 530 
Q 2431 669 2431 922 
Q 2431 1156 2273 1281 
Q 2116 1406 1581 1522 
L 1381 1569 
Q 847 1681 609 1914 
Q 372 2147 372 2553 
Q 372 3047 722 3315 
Q 1072 3584 1716 3584 
Q 2034 3584 2315 3537 
Q 2597 3491 2834 3397 
z
" transform="scale(0.015625)"/>
       <path id="DejaVuSans-68" d="M 3513 2113 
L 3513 0 
L 2938 0 
L 2938 2094 
Q 2938 2591 2744 2837 
Q 2550 3084 2163 3084 
Q 1697 3084 1428 2787 
Q 1159 2491 1159 1978 
L 1159 0 
L 581 0 
L 581 4863 
L 1159 4863 
L 1159 2956 
Q 1366 3272 1645 3428 
Q 1925 3584 2291 3584 
Q 2894 3584 3203 3211 
Q 3513 2838 3513 2113 
z
" transform="scale(0.015625)"/>
       <path id="DejaVuSans-6f" d="M 1959 3097 
Q 1497 3097 1228 2736 
Q 959 2375 959 1747 
Q 959 1119 1226 758 
Q 1494 397 1959 397 
Q 2419 397 2687 759 
Q 2956 1122 2956 1747 
Q 2956 2369 2687 2733 
Q 2419 3097 1959 3097 
z
M 1959 3584 
Q 2709 3584 3137 3096 
Q 3566 2609 3566 1747 
Q 3566 888 3137 398 
Q 2709 -91 1959 -91 
Q 1206 -91 779 398 
Q 353 888 353 1747 
Q 353 2609 779 3096 
Q 1206 3584 1959 3584 
z
" transform="scale(0.015625)"/>
       <path id="DejaVuSans-77" d="M 269 3500 
L 844 3500 
L 1563 769 
L 2278 3500 
L 2956 3500 
L 3675 769 
L 4391 3500 
L 4966 3500 
L 4050 0 
L 3372 0 
L 2619 2869 
L 1863 0 
L 1184 0 
L 269 3500 
z
" transform="scale(0.015625)"/>
       <path id="DejaVuSans-6e" d="M 3513 2113 
L 3513 0 
L 2938 0 
L 2938 2094 
Q 2938 2591 2744 2837 
Q 2550 3084 2163 3084 
Q 1697 3084 1428 2787 
Q 1159 2491 1159 1978 
L 1159 0 
L 581 0 
L 581 3500 
L 1159 3500 
L 1159 2956 
Q 1366 3272 1645 3428 
Q 1925 3584 2291 3584 
Q 2894 3584 3203 3211 
Q 3513 2838 3513 2113 
z
" transform="scale(0.015625)"/>
      </defs>
      <use xlink:href="#DejaVuSans-49"/>
      <use xlink:href="#DejaVuSans-6d" x="29.492188"/>
      <use xlink:href="#DejaVuSans-61" x="126.904297"/>
      <use xlink:href="#DejaVuSans-67" x="188.183594"/>
      <use xlink:href="#DejaVuSans-65" x="251.660156"/>
      <use xlink:href="#DejaVuSans-20" x="313.183594"/>
      <use xlink:href="#DejaVuSans-73" x="344.970703"/>
      <use xlink:href="#DejaVuSans-68" x="397.070312"/>
      <use xlink:href="#DejaVuSans-6f" x="460.449219"/>
      <use xlink:href="#DejaVuSans-77" x="521.630859"/>
      <use xlink:href="#DejaVuSans-6e" x="603.417969"/>
     </g>
    </g>
   </g>
   <g id="matplotlib.axis_2">
    <g id="ytick_1">
     <g id="line2d_10">
      <defs>
       <path id="mf6152b9713" d="M 0 0 
L -3.5 0 
" style="stroke: #000000; stroke-width: 0.8"/>
      </defs>
      <g>
       <use xlink:href="#mf6152b9713" x="57.6" y="283.968" style="stroke: #000000; stroke-width: 0.8"/>
      </g>
     </g>
     <g id="text_11">
      <!-- 100 -->
      <g transform="translate(31.5125 287.767219) scale(0.1 -0.1)">
       <use xlink:href="#DejaVuSans-31"/>
       <use xlink:href="#DejaVuSans-30" x="63.623047"/>
       <use xlink:href="#DejaVuSans-30" x="127.246094"/>
      </g>
     </g>
    </g>
    <g id="ytick_2">
     <g id="line2d_11">
      <g>
       <use xlink:href="#mf6152b9713" x="57.6" y="226.368" style="stroke: #000000; stroke-width: 0.8"/>
      </g>
     </g>
     <g id="text_12">
      <!-- 150 -->
      <g transform="translate(31.5125 230.167219) scale(0.1 -0.1)">
       <use xlink:href="#DejaVuSans-31"/>
       <use xlink:href="#DejaVuSans-35" x="63.623047"/>
       <use xlink:href="#DejaVuSans-30" x="127.246094"/>
      </g>
     </g>
    </g>
    <g id="ytick_3">
     <g id="line2d_12">
      <g>
       <use xlink:href="#mf6152b9713" x="57.6" y="168.768" style="stroke: #000000; stroke-width: 0.8"/>
      </g>
     </g>
     <g id="text_13">
      <!-- 200 -->
      <g transform="translate(31.5125 172.567219) scale(0.1 -0.1)">
       <use xlink:href="#DejaVuSans-32"/>
       <use xlink:href="#DejaVuSans-30" x="63.623047"/>
       <use xlink:href="#DejaVuSans-30" x="127.246094"/>
      </g>
     </g>
    </g>
    <g id="ytick_4">
     <g id="line2d_13">
      <g>
       <use xlink:href="#mf6152b9713" x="57.6" y="111.168" style="stroke: #000000; stroke-width: 0.8"/>
      </g>
     </g>
     <g id="text_14">
      <!-- 250 -->
      <g transform="translate(31.5125 114.967219) scale(0.1 -0.1)">
       <use xlink:href="#DejaVuSans-32"/>
       <use xlink:href="#DejaVuSans-35" x="63.623047"/>
       <use xlink:href="#DejaVuSans-30" x="127.246094"/>
      </g>
     </g>
    </g>
    <g id="ytick_5">
     <g id="line2d_14">
      <g>
       <use xlink:href="#mf6152b9713" x="57.6" y="53.568" style="stroke: #000000; stroke-width: 0.8"/>
      </g>
     </g>
     <g id="text_15">
      <!-- 300 -->
      <g transform="translate(31.5125 57.367219) scale(0.1 -0.1)">
       <use xlink:href="#DejaVuSans-33"/>
       <use xlink:href="#DejaVuSans-30" x="63.623047"/>
       <use xlink:href="#DejaVuSans-30" x="127.246094"/>
      </g>
     </g>
    </g>
    <g id="text_16">
     <!-- Firing rate [Hz] -->
     <g transform="translate(25.432812 211.838156) rotate(-90) scale(0.1 -0.1)">
      <defs>
       <path id="DejaVuSans-46" d="M 628 4666 
L 3309 4666 
L 3309 4134 
L 1259 4134 
L 1259 2759 
L 3109 2759 
L 3109 2228 
L 1259 2228 
L 1259 0 
L 628 0 
L 628 4666 
z
" transform="scale(0.015625)"/>
       <path id="DejaVuSans-69" d="M 603 3500 
L 1178 3500 
L 1178 0 
L 603 0 
L 603 3500 
z
M 603 4863 
L 1178 4863 
L 1178 4134 
L 603 4134 
L 603 4863 
z
" transform="scale(0.015625)"/>
       <path id="DejaVuSans-72" d="M 2631 2963 
Q 2534 3019 2420 3045 
Q 2306 3072 2169 3072 
Q 1681 3072 1420 2755 
Q 1159 2438 1159 1844 
L 1159 0 
L 581 0 
L 581 3500 
L 1159 3500 
L 1159 2956 
Q 1341 3275 1631 3429 
Q 1922 3584 2338 3584 
Q 2397 3584 2469 3576 
Q 2541 3569 2628 3553 
L 2631 2963 
z
" transform="scale(0.015625)"/>
       <path id="DejaVuSans-74" d="M 1172 4494 
L 1172 3500 
L 2356 3500 
L 2356 3053 
L 1172 3053 
L 1172 1153 
Q 1172 725 1289 603 
Q 1406 481 1766 481 
L 2356 481 
L 2356 0 
L 1766 0 
Q 1100 0 847 248 
Q 594 497 594 1153 
L 594 3053 
L 172 3053 
L 172 3500 
L 594 3500 
L 594 4494 
L 1172 4494 
z
" transform="scale(0.015625)"/>
       <path id="DejaVuSans-5b" d="M 550 4863 
L 1875 4863 
L 1875 4416 
L 1125 4416 
L 1125 -397 
L 1875 -397 
L 1875 -844 
L 550 -844 
L 550 4863 
z
" transform="scale(0.015625)"/>
       <path id="DejaVuSans-48" d="M 628 4666 
L 1259 4666 
L 1259 2753 
L 3553 2753 
L 3553 4666 
L 4184 4666 
L 4184 0 
L 3553 0 
L 3553 2222 
L 1259 2222 
L 1259 0 
L 628 0 
L 628 4666 
z
" transform="scale(0.015625)"/>
       <path id="DejaVuSans-7a" d="M 353 3500 
L 3084 3500 
L 3084 2975 
L 922 459 
L 3084 459 
L 3084 0 
L 275 0 
L 275 525 
L 2438 3041 
L 353 3041 
L 353 3500 
z
" transform="scale(0.015625)"/>
       <path id="DejaVuSans-5d" d="M 1947 4863 
L 1947 -844 
L 622 -844 
L 622 -397 
L 1369 -397 
L 1369 4416 
L 622 4416 
L 622 4863 
L 1947 4863 
z
" transform="scale(0.015625)"/>
      </defs>
      <use xlink:href="#DejaVuSans-46"/>
      <use xlink:href="#DejaVuSans-69" x="50.269531"/>
      <use xlink:href="#DejaVuSans-72" x="78.052734"/>
      <use xlink:href="#DejaVuSans-69" x="119.166016"/>
      <use xlink:href="#DejaVuSans-6e" x="146.949219"/>
      <use xlink:href="#DejaVuSans-67" x="210.328125"/>
      <use xlink:href="#DejaVuSans-20" x="273.804688"/>
      <use xlink:href="#DejaVuSans-72" x="305.591797"/>
      <use xlink:href="#DejaVuSans-61" x="346.705078"/>
      <use xlink:href="#DejaVuSans-74" x="407.984375"/>
      <use xlink:href="#DejaVuSans-65" x="447.193359"/>
      <use xlink:href="#DejaVuSans-20" x="508.716797"/>
      <use xlink:href="#DejaVuSans-5b" x="540.503906"/>
      <use xlink:href="#DejaVuSans-48" x="579.517578"/>
      <use xlink:href="#DejaVuSans-7a" x="654.712891"/>
      <use xlink:href="#DejaVuSans-5d" x="707.203125"/>
     </g>
    </g>
   </g>
   <g id="line2d_15">
    <path d="M 73.832727 163.008 
L 73.913911 151.488 
L 74.076279 197.568 
L 74.157463 128.448 
L 74.238647 186.048 
L 74.319831 174.528 
L 74.401015 139.968 
L 74.725751 226.368 
L 74.888118 168.768 
L 74.969302 209.088 
L 75.050486 197.568 
L 75.13167 232.128 
L 75.212854 214.848 
L 75.294038 226.368 
L 75.53759 191.808 
L 75.618774 232.128 
L 75.699958 168.768 
L 75.781142 191.808 
L 75.862326 145.728 
L 75.94351 237.888 
L 76.105877 174.528 
L 76.268245 237.888 
L 76.430613 134.208 
L 76.511797 209.088 
L 76.592981 203.328 
L 76.755349 163.008 
L 76.836533 203.328 
L 76.917717 197.568 
L 76.998901 174.528 
L 77.080085 191.808 
L 77.161268 151.488 
L 77.242452 180.288 
L 77.323636 139.968 
L 77.40482 226.368 
L 77.648372 122.688 
L 77.729556 145.728 
L 77.81074 209.088 
L 77.891924 186.048 
L 77.973108 186.048 
L 78.054292 243.648 
L 78.135476 197.568 
L 78.21666 220.608 
L 78.297844 163.008 
L 78.379027 174.528 
L 78.541395 180.288 
L 78.622579 220.608 
L 78.703763 209.088 
L 78.947315 180.288 
L 79.028499 168.768 
L 79.190867 226.368 
L 79.272051 214.848 
L 79.353235 220.608 
L 79.434419 174.528 
L 79.515603 203.328 
L 79.67797 145.728 
L 79.840338 186.048 
L 79.921522 180.288 
L 80.002706 76.608 
L 80.165074 214.848 
L 80.246258 139.968 
L 80.327442 151.488 
L 80.408626 226.368 
L 80.48981 174.528 
L 80.570994 232.128 
L 80.652178 186.048 
L 80.814545 220.608 
L 80.976913 157.248 
L 81.058097 203.328 
L 81.139281 122.688 
L 81.301649 243.648 
L 81.464017 111.168 
L 81.545201 214.848 
L 81.626385 116.928 
L 81.707569 157.248 
L 81.788753 128.448 
L 81.869937 197.568 
L 81.951121 186.048 
L 82.113488 243.648 
L 82.275856 163.008 
L 82.35704 220.608 
L 82.438224 203.328 
L 82.600592 214.848 
L 82.681776 209.088 
L 82.76296 168.768 
L 82.844144 220.608 
L 82.925328 209.088 
L 83.006512 226.368 
L 83.087696 174.528 
L 83.168879 232.128 
L 83.250063 157.248 
L 83.331247 197.568 
L 83.412431 191.808 
L 83.493615 180.288 
L 83.574799 203.328 
L 83.737167 168.768 
L 83.818351 174.528 
L 83.899535 209.088 
L 83.980719 186.048 
L 84.143087 220.608 
L 84.224271 186.048 
L 84.305455 191.808 
L 84.386638 255.168 
L 84.467822 174.528 
L 84.549006 197.568 
L 84.63019 209.088 
L 84.711374 203.328 
L 84.792558 186.048 
L 84.873742 122.688 
L 84.954926 191.808 
L 85.03611 168.768 
L 85.198478 237.888 
L 85.279662 203.328 
L 85.360846 232.128 
L 85.44203 168.768 
L 85.523214 180.288 
L 85.604397 191.808 
L 85.685581 220.608 
L 85.766765 174.528 
L 85.847949 232.128 
L 86.010317 145.728 
L 86.091501 209.088 
L 86.172685 186.048 
L 86.497421 145.728 
L 86.659789 232.128 
L 86.740973 163.008 
L 86.822156 226.368 
L 86.90334 209.088 
L 86.984524 209.088 
L 87.146892 191.808 
L 87.228076 197.568 
L 87.30926 214.848 
L 87.390444 272.448 
L 87.633996 145.728 
L 87.796364 243.648 
L 87.877548 232.128 
L 87.958732 163.008 
L 88.039915 232.128 
L 88.121099 174.528 
L 88.283467 220.608 
L 88.364651 191.808 
L 88.445835 232.128 
L 88.527019 203.328 
L 88.608203 226.368 
L 88.689387 139.968 
L 88.770571 186.048 
L 88.851755 180.288 
L 88.932939 163.008 
L 89.014123 243.648 
L 89.095307 116.928 
L 89.17649 203.328 
L 89.257674 163.008 
L 89.420042 197.568 
L 89.501226 191.808 
L 89.58241 151.488 
L 89.663594 209.088 
L 89.744778 186.048 
L 89.825962 197.568 
L 89.907146 174.528 
L 90.069514 203.328 
L 90.150698 163.008 
L 90.231882 237.888 
L 90.394249 111.168 
L 90.475433 243.648 
L 90.556617 128.448 
L 90.718985 209.088 
L 90.800169 134.208 
L 90.881353 226.368 
L 90.962537 197.568 
L 91.124905 226.368 
L 91.368457 122.688 
L 91.530825 237.888 
L 91.612008 145.728 
L 91.693192 203.328 
L 91.774376 163.008 
L 91.936744 186.048 
L 92.017928 122.688 
L 92.180296 214.848 
L 92.505032 134.208 
L 92.748584 226.368 
L 92.829767 191.808 
L 92.910951 209.088 
L 92.992135 163.008 
L 93.316871 220.608 
L 93.398055 105.408 
L 93.479239 186.048 
L 93.560423 163.008 
L 93.641607 180.288 
L 93.803975 237.888 
L 93.885159 226.368 
L 93.966342 180.288 
L 94.047526 214.848 
L 94.12871 180.288 
L 94.209894 191.808 
L 94.453446 157.248 
L 94.53463 174.528 
L 94.615814 163.008 
L 94.696998 226.368 
L 94.778182 197.568 
L 94.94055 243.648 
L 95.102918 168.768 
L 95.265285 209.088 
L 95.346469 145.728 
L 95.427653 168.768 
L 95.508837 174.528 
L 95.590021 163.008 
L 95.671205 191.808 
L 95.833573 128.448 
L 95.995941 255.168 
L 96.077125 232.128 
L 96.158309 180.288 
L 96.239493 197.568 
L 96.320677 214.848 
L 96.40186 157.248 
L 96.645412 232.128 
L 96.80778 243.648 
L 96.970148 157.248 
L 97.132516 191.808 
L 97.2137 145.728 
L 97.376068 243.648 
L 97.457252 186.048 
L 97.538436 220.608 
L 97.619619 168.768 
L 97.700803 174.528 
L 97.781987 180.288 
L 97.863171 122.688 
L 98.025539 209.088 
L 98.106723 249.408 
L 98.187907 197.568 
L 98.269091 214.848 
L 98.431459 197.568 
L 98.512643 145.728 
L 98.593827 157.248 
L 98.756195 209.088 
L 98.837378 203.328 
L 98.918562 139.968 
L 98.999746 209.088 
L 99.08093 168.768 
L 99.243298 249.408 
L 99.324482 151.488 
L 99.405666 260.928 
L 99.48685 209.088 
L 99.568034 232.128 
L 99.730402 220.608 
L 99.811586 134.208 
L 99.973953 272.448 
L 100.217505 163.008 
L 100.298689 220.608 
L 100.379873 186.048 
L 100.461057 197.568 
L 100.542241 203.328 
L 100.623425 249.408 
L 100.785793 174.528 
L 100.948161 243.648 
L 101.110529 174.528 
L 101.191712 214.848 
L 101.272896 145.728 
L 101.516448 243.648 
L 101.597632 174.528 
L 101.678816 180.288 
L 101.76 180.288 
L 101.841184 191.808 
L 101.922368 151.488 
L 102.003552 209.088 
L 102.084736 186.048 
L 102.16592 255.168 
L 102.247104 151.488 
L 102.328288 157.248 
L 102.409471 168.768 
L 102.490655 232.128 
L 102.571839 214.848 
L 102.653023 139.968 
L 102.815391 203.328 
L 102.896575 145.728 
L 102.977759 214.848 
L 103.058943 197.568 
L 103.140127 197.568 
L 103.221311 157.248 
L 103.302495 226.368 
L 103.383679 128.448 
L 103.464863 220.608 
L 103.546047 145.728 
L 103.62723 220.608 
L 103.708414 180.288 
L 103.789598 191.808 
L 103.870782 191.808 
L 103.951966 128.448 
L 104.03315 139.968 
L 104.195518 220.608 
L 104.276702 186.048 
L 104.357886 191.808 
L 104.43907 180.288 
L 104.520254 151.488 
L 104.601438 180.288 
L 104.682622 168.768 
L 104.763805 220.608 
L 104.926173 145.728 
L 105.088541 243.648 
L 105.169725 163.008 
L 105.250909 174.528 
L 105.332093 191.808 
L 105.494461 134.208 
L 105.575645 191.808 
L 105.656829 128.448 
L 105.738013 180.288 
L 105.819197 168.768 
L 105.981564 151.488 
L 106.062748 214.848 
L 106.143932 203.328 
L 106.225116 180.288 
L 106.3063 243.648 
L 106.387484 157.248 
L 106.631036 255.168 
L 106.71222 168.768 
L 106.793404 237.888 
L 106.874588 197.568 
L 106.955772 226.368 
L 107.11814 191.808 
L 107.280507 191.808 
L 107.361691 226.368 
L 107.442875 157.248 
L 107.605243 220.608 
L 107.686427 145.728 
L 107.767611 157.248 
L 107.848795 209.088 
L 107.929979 180.288 
L 108.011163 203.328 
L 108.092347 174.528 
L 108.173531 197.568 
L 108.335899 174.528 
L 108.498266 209.088 
L 108.741818 151.488 
L 108.823002 243.648 
L 108.904186 226.368 
L 108.98537 191.808 
L 109.066554 209.088 
L 109.228922 191.808 
L 109.310106 255.168 
L 109.39129 191.808 
L 109.472474 232.128 
L 109.553658 220.608 
L 109.634841 226.368 
L 109.797209 168.768 
L 109.878393 191.808 
L 109.959577 272.448 
L 110.203129 163.008 
L 110.284313 163.008 
L 110.365497 237.888 
L 110.446681 151.488 
L 110.609049 226.368 
L 110.690233 174.528 
L 110.771416 180.288 
L 110.933784 191.808 
L 111.014968 145.728 
L 111.096152 214.848 
L 111.25852 168.768 
L 111.339704 174.528 
L 111.420888 139.968 
L 111.583256 226.368 
L 111.745624 134.208 
L 111.826808 209.088 
L 111.907992 139.968 
L 112.070359 237.888 
L 112.232727 157.248 
L 112.313911 174.528 
L 112.476279 174.528 
L 112.557463 243.648 
L 112.719831 174.528 
L 112.882199 220.608 
L 113.044567 209.088 
L 113.125751 168.768 
L 113.288118 226.368 
L 113.369302 168.768 
L 113.450486 197.568 
L 113.53167 145.728 
L 113.694038 232.128 
L 113.775222 157.248 
L 113.856406 174.528 
L 114.018774 186.048 
L 114.099958 145.728 
L 114.181142 197.568 
L 114.262326 163.008 
L 114.424693 243.648 
L 114.505877 232.128 
L 114.587061 151.488 
L 114.749429 214.848 
L 114.830613 168.768 
L 114.911797 180.288 
L 114.992981 191.808 
L 115.074165 186.048 
L 115.155349 168.768 
L 115.236533 180.288 
L 115.480085 237.888 
L 115.561268 243.648 
L 115.642452 226.368 
L 115.80482 174.528 
L 115.886004 226.368 
L 115.967188 174.528 
L 116.048372 191.808 
L 116.129556 220.608 
L 116.21074 186.048 
L 116.291924 203.328 
L 116.373108 151.488 
L 116.454292 203.328 
L 116.535476 191.808 
L 116.779027 168.768 
L 117.022579 209.088 
L 117.103763 105.408 
L 117.266131 266.688 
L 117.347315 197.568 
L 117.428499 209.088 
L 117.509683 168.768 
L 117.672051 237.888 
L 117.834419 134.208 
L 117.996786 232.128 
L 118.240338 163.008 
L 118.321522 203.328 
L 118.402706 134.208 
L 118.48389 145.728 
L 118.565074 145.728 
L 118.646258 237.888 
L 118.727442 128.448 
L 118.808626 214.848 
L 118.88981 186.048 
L 118.970994 186.048 
L 119.052178 249.408 
L 119.133362 174.528 
L 119.214545 220.608 
L 119.295729 157.248 
L 119.376913 191.808 
L 119.539281 163.008 
L 119.864017 232.128 
L 119.945201 157.248 
L 120.026385 174.528 
L 120.107569 174.528 
L 120.269937 157.248 
L 120.432304 226.368 
L 120.513488 168.768 
L 120.594672 209.088 
L 120.75704 163.008 
L 120.838224 214.848 
L 120.919408 209.088 
L 121.000592 163.008 
L 121.081776 214.848 
L 121.16296 197.568 
L 121.244144 134.208 
L 121.487696 249.408 
L 121.568879 122.688 
L 121.650063 145.728 
L 121.731247 151.488 
L 121.812431 203.328 
L 121.893615 134.208 
L 122.055983 226.368 
L 122.137167 237.888 
L 122.218351 174.528 
L 122.299535 186.048 
L 122.380719 174.528 
L 122.461903 139.968 
L 122.624271 209.088 
L 122.705455 197.568 
L 122.786638 226.368 
L 122.867822 151.488 
L 122.949006 226.368 
L 123.111374 151.488 
L 123.192558 249.408 
L 123.354926 174.528 
L 123.43611 226.368 
L 123.517294 163.008 
L 123.679662 232.128 
L 123.760846 214.848 
L 123.84203 163.008 
L 123.923214 174.528 
L 124.004397 226.368 
L 124.085581 186.048 
L 124.247949 220.608 
L 124.491501 145.728 
L 124.653869 197.568 
L 124.816237 139.968 
L 124.978605 272.448 
L 125.140973 168.768 
L 125.30334 214.848 
L 125.384524 209.088 
L 125.465708 209.088 
L 125.546892 197.568 
L 125.70926 203.328 
L 125.790444 180.288 
L 125.871628 186.048 
L 126.033996 232.128 
L 126.11518 197.568 
L 126.196364 232.128 
L 126.277548 157.248 
L 126.358732 174.528 
L 126.439915 180.288 
L 126.521099 197.568 
L 126.602283 163.008 
L 126.683467 191.808 
L 126.764651 88.128 
L 126.845835 237.888 
L 126.927019 157.248 
L 127.008203 163.008 
L 127.089387 145.728 
L 127.251755 226.368 
L 127.414123 163.008 
L 127.495307 197.568 
L 127.657674 163.008 
L 127.738858 180.288 
L 127.820042 168.768 
L 127.901226 128.448 
L 128.144778 186.048 
L 128.225962 168.768 
L 128.38833 203.328 
L 128.469514 186.048 
L 128.550698 237.888 
L 128.631882 220.608 
L 128.713066 180.288 
L 128.794249 209.088 
L 128.875433 186.048 
L 128.956617 105.408 
L 129.037801 214.848 
L 129.118985 209.088 
L 129.200169 232.128 
L 129.281353 145.728 
L 129.362537 197.568 
L 129.524905 145.728 
L 129.606089 168.768 
L 129.687273 151.488 
L 129.768457 163.008 
L 129.849641 249.408 
L 130.012008 122.688 
L 130.25556 243.648 
L 130.417928 180.288 
L 130.499112 203.328 
L 130.580296 191.808 
L 130.66148 128.448 
L 130.742664 226.368 
L 130.905032 145.728 
L 130.986216 128.448 
L 131.148584 209.088 
L 131.310951 157.248 
L 131.473319 197.568 
L 131.554503 191.808 
L 131.635687 168.768 
L 131.716871 174.528 
L 131.798055 168.768 
L 131.879239 232.128 
L 131.960423 220.608 
L 132.122791 209.088 
L 132.285159 174.528 
L 132.366342 174.528 
L 132.447526 139.968 
L 132.609894 237.888 
L 132.772262 139.968 
L 132.853446 272.448 
L 133.096998 168.768 
L 133.259366 203.328 
L 133.34055 203.328 
L 133.584101 134.208 
L 133.665285 151.488 
L 133.746469 243.648 
L 133.827653 232.128 
L 134.071205 163.008 
L 134.152389 203.328 
L 134.233573 163.008 
L 134.395941 197.568 
L 134.477125 186.048 
L 134.558309 214.848 
L 134.639493 209.088 
L 134.720677 186.048 
L 134.80186 197.568 
L 134.964228 249.408 
L 135.126596 163.008 
L 135.370148 232.128 
L 135.451332 197.568 
L 135.532516 209.088 
L 135.6137 203.328 
L 135.694884 151.488 
L 135.776068 168.768 
L 135.857252 209.088 
L 136.019619 191.808 
L 136.100803 197.568 
L 136.181987 168.768 
L 136.263171 214.848 
L 136.344355 203.328 
L 136.425539 151.488 
L 136.506723 214.848 
L 136.587907 180.288 
L 136.669091 186.048 
L 136.750275 232.128 
L 136.831459 220.608 
L 136.912643 209.088 
L 136.993827 151.488 
L 137.156195 232.128 
L 137.318562 145.728 
L 137.399746 151.488 
L 137.562114 220.608 
L 137.643298 151.488 
L 137.724482 197.568 
L 137.805666 186.048 
L 137.88685 191.808 
L 137.968034 249.408 
L 138.049218 203.328 
L 138.130402 232.128 
L 138.211586 139.968 
L 138.373953 278.208 
L 138.536321 214.848 
L 138.779873 157.248 
L 139.023425 214.848 
L 139.104609 151.488 
L 139.266977 214.848 
L 139.348161 151.488 
L 139.429345 209.088 
L 139.510529 174.528 
L 139.591712 226.368 
L 139.672896 157.248 
L 139.75408 237.888 
L 139.835264 214.848 
L 139.997632 168.768 
L 140.241184 232.128 
L 140.322368 214.848 
L 140.56592 105.408 
L 140.647104 272.448 
L 140.728288 214.848 
L 140.809471 209.088 
L 140.890655 226.368 
L 140.971839 93.888 
L 141.134207 232.128 
L 141.215391 168.768 
L 141.377759 209.088 
L 141.540127 163.008 
L 141.621311 168.768 
L 141.702495 122.688 
L 141.783679 186.048 
L 141.864863 128.448 
L 141.946047 209.088 
L 142.02723 174.528 
L 142.189598 232.128 
L 142.514334 157.248 
L 142.595518 163.008 
L 142.757886 197.568 
L 142.83907 168.768 
L 143.001438 203.328 
L 143.082622 111.168 
L 143.163805 203.328 
L 143.244989 174.528 
L 143.326173 214.848 
L 143.488541 174.528 
L 143.650909 237.888 
L 143.732093 168.768 
L 143.813277 232.128 
L 143.894461 214.848 
L 144.056829 157.248 
L 144.138013 220.608 
L 144.219197 180.288 
L 144.300381 191.808 
L 144.543932 134.208 
L 144.7063 226.368 
L 144.787484 168.768 
L 144.868668 174.528 
L 144.949852 145.728 
L 145.193404 203.328 
L 145.274588 180.288 
L 145.355772 249.408 
L 145.436956 157.248 
L 145.51814 174.528 
L 145.599323 220.608 
L 145.761691 151.488 
L 145.842875 191.808 
L 145.924059 180.288 
L 146.086427 203.328 
L 146.167611 186.048 
L 146.248795 191.808 
L 146.329979 226.368 
L 146.492347 163.008 
L 146.654715 197.568 
L 146.735899 191.808 
L 146.817082 197.568 
L 146.898266 128.448 
L 147.141818 226.368 
L 147.304186 186.048 
L 147.466554 214.848 
L 147.547738 203.328 
L 147.628922 105.408 
L 147.79129 163.008 
L 147.872474 134.208 
L 147.953658 203.328 
L 148.197209 145.728 
L 148.278393 163.008 
L 148.359577 220.608 
L 148.440761 180.288 
L 148.603129 237.888 
L 148.765497 197.568 
L 148.846681 255.168 
L 148.927865 197.568 
L 149.009049 232.128 
L 149.090233 203.328 
L 149.171416 220.608 
L 149.2526 180.288 
L 149.333784 214.848 
L 149.496152 163.008 
L 149.577336 174.528 
L 149.65852 174.528 
L 149.739704 145.728 
L 149.902072 197.568 
L 149.983256 186.048 
L 150.145624 209.088 
L 150.226808 186.048 
L 150.307992 226.368 
L 150.389175 157.248 
L 150.470359 180.288 
L 150.551543 197.568 
L 150.632727 186.048 
L 150.713911 220.608 
L 150.795095 168.768 
L 150.876279 283.968 
L 150.957463 168.768 
L 151.038647 237.888 
L 151.119831 180.288 
L 151.201015 209.088 
L 151.363383 82.368 
L 151.444567 174.528 
L 151.525751 168.768 
L 151.606934 203.328 
L 151.688118 134.208 
L 151.769302 232.128 
L 151.850486 203.328 
L 151.93167 145.728 
L 152.012854 214.848 
L 152.094038 197.568 
L 152.175222 191.808 
L 152.33759 226.368 
L 152.418774 168.768 
L 152.499958 209.088 
L 152.581142 203.328 
L 152.662326 186.048 
L 152.74351 226.368 
L 153.068245 122.688 
L 153.149429 203.328 
L 153.230613 186.048 
L 153.392981 237.888 
L 153.474165 191.808 
L 153.555349 197.568 
L 153.636533 180.288 
L 153.717717 203.328 
L 153.798901 180.288 
L 153.880085 191.808 
L 153.961268 139.968 
L 154.042452 249.408 
L 154.20482 191.808 
L 154.367188 260.928 
L 154.529556 186.048 
L 154.61074 186.048 
L 154.691924 174.528 
L 154.773108 145.728 
L 154.935476 232.128 
L 155.01666 226.368 
L 155.097844 249.408 
L 155.179027 93.888 
L 155.260211 209.088 
L 155.341395 116.928 
L 155.422579 174.528 
L 155.503763 134.208 
L 155.666131 220.608 
L 155.747315 186.048 
L 155.909683 232.128 
L 155.990867 157.248 
L 156.072051 203.328 
L 156.153235 191.808 
L 156.234419 186.048 
L 156.315603 243.648 
L 156.47797 209.088 
L 156.559154 134.208 
L 156.640338 191.808 
L 156.721522 163.008 
L 156.88389 209.088 
L 156.965074 203.328 
L 157.046258 168.768 
L 157.127442 232.128 
L 157.28981 168.768 
L 157.370994 174.528 
L 157.533362 209.088 
L 157.614545 214.848 
L 157.939281 134.208 
L 158.020465 157.248 
L 158.101649 111.168 
L 158.264017 220.608 
L 158.426385 151.488 
L 158.507569 209.088 
L 158.588753 139.968 
L 158.751121 186.048 
L 158.832304 209.088 
L 158.994672 180.288 
L 159.075856 191.808 
L 159.15704 186.048 
L 159.238224 168.768 
L 159.481776 220.608 
L 159.644144 128.448 
L 159.725328 243.648 
L 159.887696 186.048 
L 160.050063 237.888 
L 160.293615 180.288 
L 160.374799 249.408 
L 160.455983 197.568 
L 160.537167 243.648 
L 160.618351 174.528 
L 160.699535 180.288 
L 160.780719 168.768 
L 160.861903 180.288 
L 160.943087 226.368 
L 161.024271 220.608 
L 161.186638 157.248 
L 161.267822 163.008 
L 161.43019 220.608 
L 161.511374 191.808 
L 161.592558 220.608 
L 161.673742 157.248 
L 161.83611 209.088 
L 161.917294 168.768 
L 161.998478 180.288 
L 162.079662 214.848 
L 162.160846 128.448 
L 162.323214 214.848 
L 162.485581 157.248 
L 162.566765 226.368 
L 162.729133 157.248 
L 163.135053 220.608 
L 163.216237 186.048 
L 163.297421 203.328 
L 163.378605 260.928 
L 163.622156 180.288 
L 163.70334 139.968 
L 163.784524 209.088 
L 163.865708 180.288 
L 163.946892 203.328 
L 164.028076 191.808 
L 164.10926 134.208 
L 164.190444 220.608 
L 164.271628 203.328 
L 164.352812 232.128 
L 164.51518 163.008 
L 164.758732 226.368 
L 164.839915 226.368 
L 164.921099 163.008 
L 165.002283 168.768 
L 165.083467 214.848 
L 165.164651 168.768 
L 165.245835 174.528 
L 165.327019 157.248 
L 165.408203 191.808 
L 165.489387 157.248 
L 165.570571 232.128 
L 165.651755 168.768 
L 165.732939 180.288 
L 165.814123 139.968 
L 165.97649 203.328 
L 166.057674 145.728 
L 166.138858 151.488 
L 166.220042 157.248 
L 166.301226 203.328 
L 166.38241 197.568 
L 166.463594 134.208 
L 166.544778 237.888 
L 166.625962 226.368 
L 166.707146 249.408 
L 166.869514 139.968 
L 167.031882 232.128 
L 167.113066 197.568 
L 167.275433 243.648 
L 167.356617 168.768 
L 167.437801 203.328 
L 167.518985 197.568 
L 167.600169 180.288 
L 167.681353 214.848 
L 167.762537 134.208 
L 167.924905 203.328 
L 168.006089 191.808 
L 168.087273 197.568 
L 168.168457 214.848 
L 168.249641 174.528 
L 168.330825 180.288 
L 168.493192 163.008 
L 168.65556 237.888 
L 168.736744 145.728 
L 168.817928 203.328 
L 168.899112 168.768 
L 168.980296 203.328 
L 169.06148 163.008 
L 169.142664 168.768 
L 169.223848 174.528 
L 169.305032 191.808 
L 169.386216 163.008 
L 169.629767 255.168 
L 169.792135 151.488 
L 169.873319 186.048 
L 169.954503 163.008 
L 170.198055 203.328 
L 170.279239 203.328 
L 170.360423 157.248 
L 170.441607 163.008 
L 170.522791 168.768 
L 170.603975 237.888 
L 170.685159 134.208 
L 170.766342 186.048 
L 170.92871 163.008 
L 171.091078 191.808 
L 171.172262 139.968 
L 171.33463 232.128 
L 171.415814 226.368 
L 171.578182 209.088 
L 171.659366 214.848 
L 171.74055 139.968 
L 171.902918 220.608 
L 171.984101 174.528 
L 172.065285 186.048 
L 172.227653 232.128 
L 172.308837 151.488 
L 172.390021 255.168 
L 172.471205 122.688 
L 172.552389 232.128 
L 172.633573 209.088 
L 172.795941 174.528 
L 172.877125 180.288 
L 172.958309 168.768 
L 173.039493 174.528 
L 173.120677 220.608 
L 173.20186 163.008 
L 173.364228 226.368 
L 173.526596 191.808 
L 173.60778 180.288 
L 173.770148 186.048 
L 173.851332 249.408 
L 174.0137 163.008 
L 174.094884 168.768 
L 174.176068 191.808 
L 174.338436 151.488 
L 174.500803 214.848 
L 174.581987 145.728 
L 174.744355 214.848 
L 174.825539 220.608 
L 174.906723 163.008 
L 174.987907 220.608 
L 175.231459 128.448 
L 175.312643 220.608 
L 175.393827 145.728 
L 175.475011 174.528 
L 175.556195 151.488 
L 175.637378 209.088 
L 175.718562 180.288 
L 175.799746 105.408 
L 175.962114 203.328 
L 176.043298 105.408 
L 176.124482 249.408 
L 176.28685 163.008 
L 176.368034 232.128 
L 176.449218 209.088 
L 176.69277 163.008 
L 176.773953 168.768 
L 176.855137 226.368 
L 176.936321 197.568 
L 177.017505 105.408 
L 177.098689 226.368 
L 177.179873 128.448 
L 177.261057 180.288 
L 177.342241 174.528 
L 177.423425 157.248 
L 177.666977 243.648 
L 177.748161 174.528 
L 177.829345 191.808 
L 177.910529 191.808 
L 177.991712 243.648 
L 178.072896 145.728 
L 178.235264 243.648 
L 178.397632 151.488 
L 178.56 203.328 
L 178.722368 145.728 
L 178.884736 209.088 
L 178.96592 168.768 
L 179.047104 237.888 
L 179.128288 191.808 
L 179.209471 203.328 
L 179.290655 168.768 
L 179.453023 214.848 
L 179.534207 116.928 
L 179.696575 226.368 
L 179.777759 209.088 
L 179.940127 145.728 
L 180.102495 174.528 
L 180.183679 157.248 
L 180.346047 197.568 
L 180.508414 243.648 
L 180.589598 232.128 
L 180.670782 168.768 
L 180.751966 174.528 
L 180.83315 197.568 
L 180.914334 180.288 
L 180.995518 226.368 
L 181.076702 180.288 
L 181.157886 278.208 
L 181.23907 163.008 
L 181.320254 191.808 
L 181.482622 220.608 
L 181.644989 186.048 
L 181.726173 203.328 
L 181.807357 180.288 
L 181.888541 197.568 
L 181.969725 145.728 
L 182.050909 220.608 
L 182.132093 209.088 
L 182.213277 260.928 
L 182.294461 232.128 
L 182.375645 163.008 
L 182.456829 186.048 
L 182.619197 186.048 
L 182.700381 249.408 
L 182.781564 128.448 
L 182.862748 214.848 
L 182.943932 168.768 
L 183.025116 186.048 
L 183.1063 145.728 
L 183.187484 203.328 
L 183.268668 93.888 
L 183.431036 214.848 
L 183.593404 151.488 
L 183.755772 226.368 
L 183.836956 243.648 
L 183.999323 139.968 
L 184.080507 237.888 
L 184.161691 197.568 
L 184.324059 220.608 
L 184.405243 168.768 
L 184.486427 220.608 
L 184.567611 180.288 
L 184.648795 260.928 
L 184.729979 174.528 
L 184.973531 266.688 
L 185.054715 145.728 
L 185.135899 197.568 
L 185.37945 116.928 
L 185.623002 283.968 
L 185.78537 111.168 
L 185.866554 174.528 
L 185.947738 145.728 
L 186.028922 191.808 
L 186.110106 186.048 
L 186.19129 186.048 
L 186.272474 174.528 
L 186.353658 191.808 
L 186.434841 237.888 
L 186.516025 168.768 
L 186.597209 209.088 
L 186.678393 168.768 
L 186.840761 226.368 
L 186.921945 226.368 
L 187.003129 186.048 
L 187.084313 226.368 
L 187.246681 134.208 
L 187.409049 203.328 
L 187.490233 197.568 
L 187.571416 180.288 
L 187.6526 249.408 
L 187.814968 174.528 
L 187.977336 180.288 
L 188.05852 174.528 
L 188.220888 232.128 
L 188.302072 163.008 
L 188.383256 186.048 
L 188.46444 145.728 
L 188.545624 209.088 
L 188.626808 191.808 
L 188.789175 180.288 
L 188.870359 111.168 
L 189.113911 220.608 
L 189.195095 105.408 
L 189.357463 249.408 
L 189.438647 145.728 
L 189.519831 197.568 
L 189.601015 186.048 
L 189.682199 203.328 
L 189.763383 272.448 
L 190.006934 139.968 
L 190.169302 226.368 
L 190.250486 163.008 
L 190.33167 203.328 
L 190.412854 191.808 
L 190.494038 226.368 
L 190.656406 186.048 
L 190.73759 180.288 
L 190.899958 139.968 
L 190.981142 243.648 
L 191.14351 186.048 
L 191.387061 203.328 
L 191.630613 180.288 
L 191.792981 134.208 
L 192.036533 249.408 
L 192.280085 122.688 
L 192.442452 197.568 
L 192.60482 203.328 
L 192.767188 122.688 
L 192.848372 151.488 
L 193.091924 214.848 
L 193.173108 214.848 
L 193.254292 203.328 
L 193.335476 232.128 
L 193.497844 197.568 
L 193.579027 209.088 
L 193.660211 197.568 
L 193.822579 134.208 
L 193.903763 209.088 
L 194.066131 134.208 
L 194.228499 255.168 
L 194.309683 209.088 
L 194.390867 243.648 
L 194.553235 174.528 
L 194.634419 180.288 
L 194.715603 145.728 
L 194.959154 243.648 
L 195.202706 122.688 
L 195.28389 220.608 
L 195.365074 186.048 
L 195.446258 214.848 
L 195.527442 157.248 
L 195.608626 197.568 
L 195.68981 111.168 
L 195.770994 203.328 
L 195.852178 168.768 
L 195.933362 220.608 
L 196.014545 203.328 
L 196.095729 232.128 
L 196.258097 174.528 
L 196.339281 186.048 
L 196.420465 174.528 
L 196.501649 180.288 
L 196.582833 116.928 
L 196.664017 191.808 
L 196.745201 139.968 
L 196.826385 186.048 
L 196.907569 116.928 
L 196.988753 243.648 
L 197.069937 197.568 
L 197.232304 128.448 
L 197.475856 249.408 
L 197.719408 145.728 
L 197.800592 168.768 
L 197.96296 232.128 
L 198.044144 174.528 
L 198.125328 186.048 
L 198.206512 220.608 
L 198.368879 191.808 
L 198.450063 191.808 
L 198.612431 220.608 
L 198.774799 145.728 
L 198.855983 151.488 
L 199.018351 226.368 
L 199.180719 197.568 
L 199.261903 139.968 
L 199.343087 260.928 
L 199.424271 209.088 
L 199.505455 220.608 
L 199.586638 226.368 
L 199.83019 180.288 
L 200.073742 237.888 
L 200.154926 186.048 
L 200.23611 243.648 
L 200.398478 145.728 
L 200.479662 168.768 
L 200.64203 145.728 
L 200.723214 186.048 
L 200.885581 128.448 
L 201.047949 186.048 
L 201.129133 151.488 
L 201.372685 266.688 
L 201.453869 139.968 
L 201.535053 157.248 
L 201.616237 197.568 
L 201.697421 186.048 
L 201.778605 209.088 
L 201.859789 163.008 
L 201.940973 220.608 
L 202.022156 203.328 
L 202.10334 157.248 
L 202.265708 220.608 
L 202.428076 174.528 
L 202.590444 266.688 
L 202.752812 191.808 
L 202.91518 220.608 
L 202.996364 214.848 
L 203.077548 266.688 
L 203.158732 99.648 
L 203.321099 197.568 
L 203.402283 180.288 
L 203.483467 255.168 
L 203.564651 249.408 
L 203.808203 105.408 
L 203.889387 243.648 
L 204.051755 168.768 
L 204.132939 180.288 
L 204.214123 134.208 
L 204.457674 191.808 
L 204.701226 128.448 
L 204.863594 214.848 
L 205.025962 139.968 
L 205.107146 209.088 
L 205.18833 174.528 
L 205.269514 226.368 
L 205.513066 93.888 
L 205.594249 191.808 
L 205.675433 151.488 
L 205.756617 243.648 
L 205.837801 174.528 
L 205.918985 191.808 
L 206.000169 168.768 
L 206.162537 243.648 
L 206.324905 180.288 
L 206.406089 226.368 
L 206.487273 203.328 
L 206.568457 116.928 
L 206.730825 163.008 
L 206.812008 122.688 
L 206.893192 151.488 
L 206.974376 255.168 
L 207.136744 180.288 
L 207.217928 214.848 
L 207.299112 174.528 
L 207.46148 226.368 
L 207.542664 209.088 
L 207.623848 157.248 
L 207.705032 168.768 
L 207.786216 232.128 
L 207.8674 139.968 
L 207.948584 197.568 
L 208.110951 157.248 
L 208.192135 209.088 
L 208.273319 134.208 
L 208.516871 226.368 
L 208.598055 220.608 
L 208.760423 151.488 
L 208.841607 237.888 
L 208.922791 214.848 
L 209.003975 128.448 
L 209.085159 134.208 
L 209.247526 232.128 
L 209.32871 168.768 
L 209.491078 214.848 
L 209.653446 186.048 
L 209.73463 168.768 
L 209.815814 232.128 
L 209.978182 157.248 
L 210.221734 220.608 
L 210.384101 151.488 
L 210.546469 180.288 
L 210.627653 157.248 
L 210.708837 203.328 
L 210.790021 157.248 
L 210.871205 168.768 
L 210.952389 145.728 
L 211.033573 191.808 
L 211.114757 186.048 
L 211.277125 266.688 
L 211.439493 151.488 
L 211.520677 197.568 
L 211.60186 191.808 
L 211.683044 174.528 
L 211.764228 180.288 
L 211.845412 180.288 
L 211.926596 186.048 
L 212.00778 134.208 
L 212.170148 209.088 
L 212.251332 209.088 
L 212.332516 174.528 
L 212.4137 203.328 
L 212.819619 99.648 
L 212.900803 203.328 
L 212.981987 168.768 
L 213.063171 139.968 
L 213.144355 174.528 
L 213.225539 139.968 
L 213.306723 180.288 
L 213.387907 122.688 
L 213.469091 203.328 
L 213.550275 191.808 
L 213.712643 237.888 
L 213.793827 209.088 
L 213.875011 226.368 
L 214.118562 157.248 
L 214.199746 237.888 
L 214.28093 157.248 
L 214.362114 180.288 
L 214.443298 203.328 
L 214.524482 128.448 
L 214.68685 186.048 
L 214.768034 174.528 
L 214.930402 226.368 
L 215.011586 145.728 
L 215.09277 232.128 
L 215.173953 180.288 
L 215.336321 232.128 
L 215.417505 174.528 
L 215.661057 226.368 
L 215.904609 128.448 
L 215.985793 220.608 
L 216.229345 139.968 
L 216.391712 186.048 
L 216.472896 180.288 
L 216.716448 111.168 
L 216.797632 197.568 
L 216.878816 191.808 
L 216.96 197.568 
L 217.041184 151.488 
L 217.122368 237.888 
L 217.284736 151.488 
L 217.36592 209.088 
L 217.447104 203.328 
L 217.690655 145.728 
L 217.771839 186.048 
L 217.853023 163.008 
L 217.934207 295.488 
L 218.096575 174.528 
L 218.177759 168.768 
L 218.258943 174.528 
L 218.340127 203.328 
L 218.502495 168.768 
L 218.664863 209.088 
L 218.746047 134.208 
L 218.82723 220.608 
L 218.908414 180.288 
L 218.989598 186.048 
L 219.070782 232.128 
L 219.151966 186.048 
L 219.23315 203.328 
L 219.395518 180.288 
L 219.476702 226.368 
L 219.557886 157.248 
L 219.720254 203.328 
L 219.801438 186.048 
L 219.882622 139.968 
L 219.963805 145.728 
L 220.044989 134.208 
L 220.207357 180.288 
L 220.369725 197.568 
L 220.450909 209.088 
L 220.613277 145.728 
L 220.856829 214.848 
L 220.938013 168.768 
L 221.100381 226.368 
L 221.262748 157.248 
L 221.343932 203.328 
L 221.5063 122.688 
L 221.587484 191.808 
L 221.668668 174.528 
L 221.749852 151.488 
L 222.074588 237.888 
L 222.155772 197.568 
L 222.236956 272.448 
L 222.31814 243.648 
L 222.480507 111.168 
L 222.724059 191.808 
L 222.805243 180.288 
L 223.048795 237.888 
L 223.129979 139.968 
L 223.211163 191.808 
L 223.292347 134.208 
L 223.454715 203.328 
L 223.535899 145.728 
L 223.617082 191.808 
L 223.698266 128.448 
L 223.860634 197.568 
L 223.941818 174.528 
L 224.023002 214.848 
L 224.18537 145.728 
L 224.266554 243.648 
L 224.347738 111.168 
L 224.510106 214.848 
L 224.59129 197.568 
L 224.672474 214.848 
L 224.753658 134.208 
L 224.916025 197.568 
L 224.997209 134.208 
L 225.078393 151.488 
L 225.159577 151.488 
L 225.321945 209.088 
L 225.403129 157.248 
L 225.565497 209.088 
L 225.727865 163.008 
L 225.809049 168.768 
L 225.890233 226.368 
L 225.971416 145.728 
L 226.133784 260.928 
L 226.377336 157.248 
L 226.539704 191.808 
L 226.620888 163.008 
L 226.702072 203.328 
L 226.783256 174.528 
L 226.86444 180.288 
L 226.945624 220.608 
L 227.026808 151.488 
L 227.189175 203.328 
L 227.270359 163.008 
L 227.351543 168.768 
L 227.432727 157.248 
L 227.513911 197.568 
L 227.595095 157.248 
L 227.676279 174.528 
L 227.757463 168.768 
L 227.838647 168.768 
L 227.919831 180.288 
L 228.001015 168.768 
L 228.163383 186.048 
L 228.244567 145.728 
L 228.325751 191.808 
L 228.406934 174.528 
L 228.488118 220.608 
L 228.569302 174.528 
L 228.650486 209.088 
L 228.73167 157.248 
L 228.812854 203.328 
L 228.975222 168.768 
L 229.056406 191.808 
L 229.13759 168.768 
L 229.218774 226.368 
L 229.381142 128.448 
L 229.462326 197.568 
L 229.54351 168.768 
L 229.705877 232.128 
L 229.868245 116.928 
L 229.949429 197.568 
L 230.030613 134.208 
L 230.111797 191.808 
L 230.192981 145.728 
L 230.274165 203.328 
L 230.355349 163.008 
L 230.436533 180.288 
L 230.598901 128.448 
L 230.761268 226.368 
L 230.923636 151.488 
L 231.086004 226.368 
L 231.167188 203.328 
L 231.248372 145.728 
L 231.329556 157.248 
L 231.41074 191.808 
L 231.491924 174.528 
L 231.573108 180.288 
L 231.654292 180.288 
L 231.81666 226.368 
L 232.060211 139.968 
L 232.141395 180.288 
L 232.222579 174.528 
L 232.303763 105.408 
L 232.466131 180.288 
L 232.547315 145.728 
L 232.628499 266.688 
L 232.790867 151.488 
L 232.872051 163.008 
L 233.115603 209.088 
L 233.196786 105.408 
L 233.27797 122.688 
L 233.359154 186.048 
L 233.440338 157.248 
L 233.68389 232.128 
L 233.846258 145.728 
L 233.927442 191.808 
L 234.008626 139.968 
L 234.08981 191.808 
L 234.170994 174.528 
L 234.252178 203.328 
L 234.414545 116.928 
L 234.495729 186.048 
L 234.576913 134.208 
L 234.739281 232.128 
L 234.820465 191.808 
L 234.982833 209.088 
L 235.064017 139.968 
L 235.145201 145.728 
L 235.226385 191.808 
L 235.307569 157.248 
L 235.388753 186.048 
L 235.469937 180.288 
L 235.551121 145.728 
L 235.632304 151.488 
L 235.713488 139.968 
L 235.875856 226.368 
L 235.95704 203.328 
L 236.038224 209.088 
L 236.119408 174.528 
L 236.200592 65.088 
L 236.36296 180.288 
L 236.525328 226.368 
L 236.606512 168.768 
L 236.687696 214.848 
L 236.768879 191.808 
L 236.850063 209.088 
L 236.931247 122.688 
L 237.012431 203.328 
L 237.093615 186.048 
L 237.174799 197.568 
L 237.255983 157.248 
L 237.337167 191.808 
L 237.418351 145.728 
L 237.580719 226.368 
L 237.743087 168.768 
L 237.824271 180.288 
L 237.905455 111.168 
L 237.986638 191.808 
L 238.067822 168.768 
L 238.149006 139.968 
L 238.23019 203.328 
L 238.311374 139.968 
L 238.473742 232.128 
L 238.554926 151.488 
L 238.63611 226.368 
L 238.717294 134.208 
L 238.798478 186.048 
L 238.879662 111.168 
L 238.960846 168.768 
L 239.04203 157.248 
L 239.123214 186.048 
L 239.204397 180.288 
L 239.285581 186.048 
L 239.447949 145.728 
L 239.529133 168.768 
L 239.610317 139.968 
L 239.691501 203.328 
L 239.935053 134.208 
L 240.016237 139.968 
L 240.097421 186.048 
L 240.178605 163.008 
L 240.259789 99.648 
L 240.340973 209.088 
L 240.422156 145.728 
L 240.50334 157.248 
L 240.584524 209.088 
L 240.828076 157.248 
L 240.90926 232.128 
L 241.071628 191.808 
L 241.31518 151.488 
L 241.396364 186.048 
L 241.477548 168.768 
L 241.558732 220.608 
L 241.639915 174.528 
L 241.721099 197.568 
L 241.802283 191.808 
L 241.883467 203.328 
L 241.964651 168.768 
L 242.127019 197.568 
L 242.208203 99.648 
L 242.289387 226.368 
L 242.370571 191.808 
L 242.451755 191.808 
L 242.614123 243.648 
L 242.695307 214.848 
L 242.77649 116.928 
L 242.938858 209.088 
L 243.020042 111.168 
L 243.101226 237.888 
L 243.263594 139.968 
L 243.507146 209.088 
L 243.669514 111.168 
L 243.750698 232.128 
L 243.831882 116.928 
L 243.913066 128.448 
L 243.994249 180.288 
L 244.075433 174.528 
L 244.156617 145.728 
L 244.237801 186.048 
L 244.400169 145.728 
L 244.481353 220.608 
L 244.562537 157.248 
L 244.643721 186.048 
L 244.724905 134.208 
L 244.806089 174.528 
L 244.887273 163.008 
L 244.968457 168.768 
L 245.130825 243.648 
L 245.293192 105.408 
L 245.374376 157.248 
L 245.536744 168.768 
L 245.617928 151.488 
L 245.86148 243.648 
L 246.023848 151.488 
L 246.105032 157.248 
L 246.186216 134.208 
L 246.2674 220.608 
L 246.348584 168.768 
L 246.510951 197.568 
L 246.592135 116.928 
L 246.754503 220.608 
L 246.835687 116.928 
L 246.916871 209.088 
L 246.998055 116.928 
L 247.160423 186.048 
L 247.241607 134.208 
L 247.322791 243.648 
L 247.485159 116.928 
L 247.647526 174.528 
L 247.809894 145.728 
L 247.891078 226.368 
L 247.972262 186.048 
L 248.053446 197.568 
L 248.13463 197.568 
L 248.215814 157.248 
L 248.296998 226.368 
L 248.378182 151.488 
L 248.459366 203.328 
L 248.54055 186.048 
L 248.621734 128.448 
L 248.784101 209.088 
L 248.946469 145.728 
L 249.108837 180.288 
L 249.352389 157.248 
L 249.433573 151.488 
L 249.514757 209.088 
L 249.595941 151.488 
L 249.677125 163.008 
L 249.758309 180.288 
L 249.839493 163.008 
L 249.920677 197.568 
L 250.083044 128.448 
L 250.164228 145.728 
L 250.245412 214.848 
L 250.326596 145.728 
L 250.40778 232.128 
L 250.488964 180.288 
L 250.570148 226.368 
L 250.732516 134.208 
L 250.894884 209.088 
L 250.976068 128.448 
L 251.057252 168.768 
L 251.138436 163.008 
L 251.219619 128.448 
L 251.300803 139.968 
L 251.381987 203.328 
L 251.544355 116.928 
L 251.706723 249.408 
L 251.787907 139.968 
L 251.869091 151.488 
L 251.950275 145.728 
L 252.031459 209.088 
L 252.112643 197.568 
L 252.193827 186.048 
L 252.275011 134.208 
L 252.356195 163.008 
L 252.437378 145.728 
L 252.518562 249.408 
L 252.599746 214.848 
L 252.762114 128.448 
L 252.843298 128.448 
L 253.005666 209.088 
L 253.168034 168.768 
L 253.249218 220.608 
L 253.411586 139.968 
L 253.49277 255.168 
L 253.655137 139.968 
L 253.817505 232.128 
L 253.898689 134.208 
L 254.061057 214.848 
L 254.142241 197.568 
L 254.223425 214.848 
L 254.304609 191.808 
L 254.385793 122.688 
L 254.466977 197.568 
L 254.548161 186.048 
L 254.629345 209.088 
L 254.791712 197.568 
L 254.872896 134.208 
L 255.035264 214.848 
L 255.116448 168.768 
L 255.197632 191.808 
L 255.278816 180.288 
L 255.36 186.048 
L 255.522368 209.088 
L 255.76592 168.768 
L 255.928288 220.608 
L 256.009471 209.088 
L 256.090655 111.168 
L 256.253023 209.088 
L 256.415391 134.208 
L 256.496575 214.848 
L 256.577759 145.728 
L 256.740127 226.368 
L 256.902495 157.248 
L 256.983679 191.808 
L 257.064863 163.008 
L 257.146047 191.808 
L 257.22723 145.728 
L 257.308414 186.048 
L 257.389598 180.288 
L 257.470782 197.568 
L 257.551966 116.928 
L 257.63315 203.328 
L 257.714334 180.288 
L 257.795518 186.048 
L 257.876702 145.728 
L 258.03907 214.848 
L 258.120254 203.328 
L 258.282622 128.448 
L 258.526173 232.128 
L 258.607357 180.288 
L 258.688541 203.328 
L 258.769725 186.048 
L 258.850909 128.448 
L 258.932093 134.208 
L 259.094461 203.328 
L 259.175645 163.008 
L 259.256829 197.568 
L 259.419197 157.248 
L 259.500381 203.328 
L 259.581564 174.528 
L 259.662748 186.048 
L 259.743932 122.688 
L 259.825116 145.728 
L 259.9063 134.208 
L 260.068668 232.128 
L 260.149852 157.248 
L 260.231036 191.808 
L 260.31222 128.448 
L 260.555772 214.848 
L 260.636956 214.848 
L 260.71814 139.968 
L 260.799323 174.528 
L 260.880507 134.208 
L 260.961691 139.968 
L 261.124059 163.008 
L 261.205243 134.208 
L 261.367611 163.008 
L 261.448795 139.968 
L 261.692347 191.808 
L 261.773531 243.648 
L 261.854715 151.488 
L 261.935899 168.768 
L 262.017082 111.168 
L 262.17945 191.808 
L 262.341818 139.968 
L 262.423002 191.808 
L 262.504186 174.528 
L 262.58537 139.968 
L 262.666554 197.568 
L 262.747738 186.048 
L 262.828922 134.208 
L 262.910106 180.288 
L 262.99129 139.968 
L 263.072474 186.048 
L 263.153658 168.768 
L 263.234841 214.848 
L 263.316025 163.008 
L 263.397209 249.408 
L 263.559577 157.248 
L 263.640761 168.768 
L 263.721945 151.488 
L 263.803129 209.088 
L 263.884313 203.328 
L 263.965497 139.968 
L 264.046681 157.248 
L 264.127865 157.248 
L 264.209049 145.728 
L 264.290233 88.128 
L 264.371416 93.888 
L 264.533784 151.488 
L 264.696152 111.168 
L 264.777336 186.048 
L 264.85852 157.248 
L 264.939704 168.768 
L 265.020888 151.488 
L 265.102072 191.808 
L 265.26444 134.208 
L 265.345624 214.848 
L 265.426808 186.048 
L 265.507992 163.008 
L 265.589175 220.608 
L 265.670359 139.968 
L 265.832727 226.368 
L 265.995095 163.008 
L 266.076279 168.768 
L 266.157463 191.808 
L 266.238647 134.208 
L 266.319831 220.608 
L 266.401015 197.568 
L 266.563383 180.288 
L 266.644567 243.648 
L 266.725751 145.728 
L 266.806934 186.048 
L 266.888118 174.528 
L 267.050486 139.968 
L 267.13167 186.048 
L 267.212854 122.688 
L 267.294038 174.528 
L 267.375222 139.968 
L 267.456406 232.128 
L 267.618774 134.208 
L 267.781142 186.048 
L 267.94351 122.688 
L 268.024693 128.448 
L 268.105877 203.328 
L 268.187061 151.488 
L 268.268245 191.808 
L 268.349429 139.968 
L 268.430613 186.048 
L 268.592981 151.488 
L 268.755349 151.488 
L 268.917717 220.608 
L 268.998901 111.168 
L 269.080085 174.528 
L 269.161268 168.768 
L 269.242452 168.768 
L 269.323636 174.528 
L 269.40482 226.368 
L 269.567188 116.928 
L 269.648372 157.248 
L 269.729556 145.728 
L 269.891924 122.688 
L 270.135476 203.328 
L 270.21666 163.008 
L 270.297844 237.888 
L 270.460211 151.488 
L 270.622579 203.328 
L 270.703763 128.448 
L 270.784947 186.048 
L 270.947315 128.448 
L 271.028499 197.568 
L 271.190867 157.248 
L 271.272051 157.248 
L 271.353235 163.008 
L 271.434419 226.368 
L 271.596786 151.488 
L 271.67797 220.608 
L 271.921522 139.968 
L 272.002706 186.048 
L 272.08389 180.288 
L 272.165074 174.528 
L 272.327442 105.408 
L 272.48981 197.568 
L 272.570994 163.008 
L 272.652178 174.528 
L 272.733362 186.048 
L 272.814545 157.248 
L 272.895729 191.808 
L 272.976913 180.288 
L 273.058097 111.168 
L 273.139281 232.128 
L 273.220465 111.168 
L 273.301649 134.208 
L 273.464017 197.568 
L 273.545201 197.568 
L 273.626385 214.848 
L 273.707569 168.768 
L 273.788753 191.808 
L 273.869937 174.528 
L 273.951121 191.808 
L 274.113488 151.488 
L 274.194672 174.528 
L 274.35704 145.728 
L 274.438224 197.568 
L 274.519408 122.688 
L 274.681776 191.808 
L 274.76296 151.488 
L 274.844144 168.768 
L 274.925328 232.128 
L 275.006512 139.968 
L 275.087696 209.088 
L 275.168879 203.328 
L 275.250063 226.368 
L 275.331247 191.808 
L 275.412431 197.568 
L 275.493615 197.568 
L 275.737167 174.528 
L 275.818351 134.208 
L 275.899535 151.488 
L 276.061903 220.608 
L 276.143087 226.368 
L 276.224271 122.688 
L 276.305455 180.288 
L 276.386638 157.248 
L 276.467822 220.608 
L 276.549006 174.528 
L 276.63019 203.328 
L 276.711374 122.688 
L 276.792558 163.008 
L 276.873742 128.448 
L 277.198478 220.608 
L 277.279662 168.768 
L 277.360846 220.608 
L 277.44203 186.048 
L 277.523214 232.128 
L 277.604397 220.608 
L 277.685581 76.608 
L 277.847949 168.768 
L 277.929133 203.328 
L 278.010317 163.008 
L 278.091501 168.768 
L 278.253869 134.208 
L 278.416237 232.128 
L 278.497421 145.728 
L 278.578605 237.888 
L 278.740973 105.408 
L 278.822156 168.768 
L 278.984524 139.968 
L 279.146892 180.288 
L 279.228076 191.808 
L 279.30926 180.288 
L 279.390444 151.488 
L 279.471628 163.008 
L 279.633996 134.208 
L 279.71518 232.128 
L 279.796364 122.688 
L 279.877548 180.288 
L 280.039915 139.968 
L 280.121099 157.248 
L 280.202283 122.688 
L 280.364651 163.008 
L 280.527019 151.488 
L 280.608203 163.008 
L 280.689387 209.088 
L 280.932939 157.248 
L 281.014123 99.648 
L 281.17649 151.488 
L 281.257674 151.488 
L 281.338858 134.208 
L 281.420042 168.768 
L 281.501226 157.248 
L 281.744778 105.408 
L 281.825962 209.088 
L 281.98833 122.688 
L 282.069514 203.328 
L 282.150698 82.368 
L 282.231882 214.848 
L 282.313066 203.328 
L 282.394249 191.808 
L 282.475433 76.608 
L 282.556617 186.048 
L 282.637801 157.248 
L 282.718985 157.248 
L 282.800169 197.568 
L 282.881353 139.968 
L 283.043721 203.328 
L 283.124905 197.568 
L 283.287273 180.288 
L 283.449641 191.808 
L 283.530825 134.208 
L 283.612008 203.328 
L 283.693192 157.248 
L 283.774376 168.768 
L 283.85556 139.968 
L 284.017928 232.128 
L 284.099112 197.568 
L 284.180296 163.008 
L 284.26148 209.088 
L 284.342664 139.968 
L 284.505032 232.128 
L 284.586216 134.208 
L 284.6674 151.488 
L 284.748584 157.248 
L 284.829767 145.728 
L 284.910951 232.128 
L 284.992135 139.968 
L 285.073319 191.808 
L 285.154503 105.408 
L 285.398055 197.568 
L 285.479239 134.208 
L 285.560423 243.648 
L 285.722791 139.968 
L 285.803975 128.448 
L 285.885159 197.568 
L 285.966342 186.048 
L 286.12871 134.208 
L 286.209894 151.488 
L 286.291078 145.728 
L 286.372262 191.808 
L 286.453446 186.048 
L 286.53463 65.088 
L 286.696998 220.608 
L 286.94055 134.208 
L 287.021734 203.328 
L 287.102918 122.688 
L 287.346469 186.048 
L 287.427653 163.008 
L 287.508837 168.768 
L 287.671205 191.808 
L 287.752389 151.488 
L 287.833573 168.768 
L 287.914757 134.208 
L 287.995941 139.968 
L 288.077125 174.528 
L 288.158309 134.208 
L 288.239493 209.088 
L 288.320677 151.488 
L 288.40186 203.328 
L 288.564228 111.168 
L 288.80778 203.328 
L 288.888964 186.048 
L 288.970148 116.928 
L 289.051332 214.848 
L 289.2137 145.728 
L 289.457252 145.728 
L 289.619619 237.888 
L 289.863171 180.288 
L 289.944355 186.048 
L 290.187907 139.968 
L 290.269091 151.488 
L 290.350275 186.048 
L 290.431459 151.488 
L 290.512643 163.008 
L 290.593827 203.328 
L 290.675011 157.248 
L 290.756195 232.128 
L 290.837378 226.368 
L 291.08093 145.728 
L 291.162114 237.888 
L 291.243298 163.008 
L 291.324482 226.368 
L 291.405666 203.328 
L 291.48685 139.968 
L 291.568034 145.728 
L 291.649218 157.248 
L 291.811586 203.328 
L 291.89277 139.968 
L 291.973953 157.248 
L 292.055137 220.608 
L 292.217505 128.448 
L 292.298689 209.088 
L 292.379873 76.608 
L 292.461057 197.568 
L 292.542241 122.688 
L 292.704609 174.528 
L 292.785793 180.288 
L 292.866977 214.848 
L 293.029345 134.208 
L 293.110529 203.328 
L 293.191712 197.568 
L 293.272896 139.968 
L 293.435264 191.808 
L 293.516448 151.488 
L 293.597632 220.608 
L 293.76 151.488 
L 293.841184 163.008 
L 293.922368 134.208 
L 294.084736 180.288 
L 294.16592 197.568 
L 294.328288 134.208 
L 294.490655 122.688 
L 294.653023 226.368 
L 294.734207 168.768 
L 294.815391 209.088 
L 294.896575 197.568 
L 295.058943 168.768 
L 295.140127 186.048 
L 295.383679 53.568 
L 295.546047 197.568 
L 295.62723 157.248 
L 295.789598 209.088 
L 295.870782 203.328 
L 295.951966 174.528 
L 296.03315 191.808 
L 296.114334 116.928 
L 296.276702 168.768 
L 296.43907 134.208 
L 296.601438 232.128 
L 296.763805 122.688 
L 296.844989 163.008 
L 296.926173 139.968 
L 297.007357 174.528 
L 297.088541 134.208 
L 297.169725 186.048 
L 297.250909 180.288 
L 297.332093 180.288 
L 297.413277 163.008 
L 297.494461 186.048 
L 297.656829 145.728 
L 297.738013 174.528 
L 297.819197 168.768 
L 297.900381 157.248 
L 298.062748 203.328 
L 298.225116 145.728 
L 298.3063 151.488 
L 298.387484 191.808 
L 298.468668 163.008 
L 298.549852 174.528 
L 298.631036 134.208 
L 298.71222 145.728 
L 298.793404 197.568 
L 298.874588 116.928 
L 299.036956 203.328 
L 299.11814 145.728 
L 299.199323 174.528 
L 299.280507 151.488 
L 299.442875 220.608 
L 299.524059 209.088 
L 299.605243 232.128 
L 299.686427 76.608 
L 299.848795 197.568 
L 299.929979 197.568 
L 300.011163 220.608 
L 300.173531 128.448 
L 300.335899 209.088 
L 300.417082 145.728 
L 300.498266 191.808 
L 300.660634 122.688 
L 300.823002 139.968 
L 300.904186 214.848 
L 300.98537 203.328 
L 301.228922 145.728 
L 301.310106 99.648 
L 301.472474 203.328 
L 301.553658 139.968 
L 301.634841 174.528 
L 301.716025 145.728 
L 301.878393 209.088 
L 301.959577 105.408 
L 302.040761 214.848 
L 302.121945 209.088 
L 302.284313 128.448 
L 302.365497 209.088 
L 302.446681 174.528 
L 302.527865 197.568 
L 302.609049 186.048 
L 302.690233 151.488 
L 302.8526 168.768 
L 302.933784 243.648 
L 303.096152 128.448 
L 303.177336 157.248 
L 303.25852 214.848 
L 303.339704 139.968 
L 303.583256 232.128 
L 303.66444 122.688 
L 303.745624 186.048 
L 303.826808 145.728 
L 303.907992 186.048 
L 303.989175 151.488 
L 304.151543 232.128 
L 304.476279 99.648 
L 304.557463 214.848 
L 304.638647 139.968 
L 304.719831 168.768 
L 304.801015 151.488 
L 304.882199 180.288 
L 304.963383 128.448 
L 305.044567 214.848 
L 305.125751 203.328 
L 305.206934 151.488 
L 305.288118 174.528 
L 305.369302 134.208 
L 305.450486 174.528 
L 305.53167 157.248 
L 305.612854 174.528 
L 305.694038 157.248 
L 305.856406 186.048 
L 305.93759 174.528 
L 306.018774 214.848 
L 306.099958 157.248 
L 306.181142 226.368 
L 306.262326 151.488 
L 306.34351 203.328 
L 306.424693 197.568 
L 306.505877 214.848 
L 306.668245 168.768 
L 306.749429 180.288 
L 306.830613 157.248 
L 306.992981 180.288 
L 307.074165 134.208 
L 307.236533 168.768 
L 307.317717 186.048 
L 307.398901 174.528 
L 307.480085 186.048 
L 307.561268 220.608 
L 307.642452 82.368 
L 307.723636 134.208 
L 307.80482 105.408 
L 307.886004 116.928 
L 308.048372 220.608 
L 308.129556 174.528 
L 308.21074 157.248 
L 308.291924 105.408 
L 308.61666 180.288 
L 308.697844 105.408 
L 308.860211 214.848 
L 309.103763 116.928 
L 309.266131 209.088 
L 309.347315 157.248 
L 309.428499 163.008 
L 309.509683 145.728 
L 309.590867 203.328 
L 309.672051 180.288 
L 309.753235 197.568 
L 309.834419 134.208 
L 309.915603 203.328 
L 309.996786 174.528 
L 310.07797 186.048 
L 310.159154 151.488 
L 310.240338 168.768 
L 310.402706 157.248 
L 310.48389 191.808 
L 310.565074 128.448 
L 310.646258 209.088 
L 310.727442 174.528 
L 310.808626 197.568 
L 310.88981 191.808 
L 311.052178 163.008 
L 311.133362 99.648 
L 311.295729 191.808 
L 311.458097 139.968 
L 311.539281 163.008 
L 311.620465 237.888 
L 311.782833 139.968 
L 311.864017 157.248 
L 311.945201 145.728 
L 312.026385 186.048 
L 312.188753 151.488 
L 312.269937 203.328 
L 312.351121 139.968 
L 312.432304 186.048 
L 312.513488 139.968 
L 312.594672 157.248 
L 312.675856 145.728 
L 312.75704 197.568 
L 312.838224 139.968 
L 313.081776 203.328 
L 313.244144 145.728 
L 313.325328 186.048 
L 313.406512 151.488 
L 313.650063 209.088 
L 313.731247 191.808 
L 313.893615 203.328 
L 313.974799 145.728 
L 314.137167 214.848 
L 314.299535 157.248 
L 314.380719 203.328 
L 314.461903 197.568 
L 314.543087 209.088 
L 314.624271 168.768 
L 314.786638 226.368 
L 314.867822 145.728 
L 314.949006 168.768 
L 315.03019 157.248 
L 315.111374 128.448 
L 315.192558 214.848 
L 315.354926 116.928 
L 315.43611 203.328 
L 315.598478 139.968 
L 315.679662 139.968 
L 315.760846 157.248 
L 315.84203 116.928 
L 315.923214 180.288 
L 316.004397 168.768 
L 316.085581 151.488 
L 316.166765 220.608 
L 316.329133 111.168 
L 316.410317 139.968 
L 316.491501 99.648 
L 316.653869 122.688 
L 316.735053 116.928 
L 316.897421 220.608 
L 316.978605 180.288 
L 317.059789 232.128 
L 317.30334 134.208 
L 317.384524 163.008 
L 317.465708 237.888 
L 317.546892 134.208 
L 317.628076 163.008 
L 317.70926 168.768 
L 317.790444 134.208 
L 317.871628 191.808 
L 317.952812 139.968 
L 318.11518 220.608 
L 318.196364 105.408 
L 318.277548 174.528 
L 318.358732 157.248 
L 318.439915 157.248 
L 318.602283 168.768 
L 318.683467 99.648 
L 318.764651 168.768 
L 318.845835 122.688 
L 318.927019 134.208 
L 319.008203 128.448 
L 319.089387 151.488 
L 319.170571 122.688 
L 319.332939 180.288 
L 319.414123 116.928 
L 319.57649 157.248 
L 319.657674 174.528 
L 319.820042 163.008 
L 319.901226 111.168 
L 320.063594 163.008 
L 320.144778 145.728 
L 320.307146 197.568 
L 320.38833 70.848 
L 320.469514 197.568 
L 320.550698 168.768 
L 320.631882 99.648 
L 320.713066 168.768 
L 320.794249 163.008 
L 320.875433 209.088 
L 320.956617 168.768 
L 321.037801 220.608 
L 321.118985 174.528 
L 321.200169 209.088 
L 321.281353 76.608 
L 321.362537 122.688 
L 321.524905 203.328 
L 321.606089 203.328 
L 321.768457 191.808 
L 321.849641 191.808 
L 321.930825 197.568 
L 322.012008 186.048 
L 322.093192 220.608 
L 322.25556 139.968 
L 322.336744 168.768 
L 322.417928 134.208 
L 322.499112 186.048 
L 322.580296 128.448 
L 322.66148 157.248 
L 322.742664 134.208 
L 322.905032 220.608 
L 322.986216 214.848 
L 323.0674 157.248 
L 323.148584 197.568 
L 323.310951 128.448 
L 323.473319 139.968 
L 323.554503 116.928 
L 323.798055 226.368 
L 323.879239 128.448 
L 323.960423 197.568 
L 324.122791 128.448 
L 324.366342 197.568 
L 324.52871 168.768 
L 324.609894 168.768 
L 324.691078 191.808 
L 324.772262 122.688 
L 324.853446 203.328 
L 324.93463 197.568 
L 325.015814 203.328 
L 325.178182 151.488 
L 325.259366 249.408 
L 325.421734 128.448 
L 325.502918 163.008 
L 325.584101 249.408 
L 325.665285 168.768 
L 325.746469 174.528 
L 325.827653 226.368 
L 326.071205 128.448 
L 326.152389 214.848 
L 326.233573 157.248 
L 326.314757 226.368 
L 326.395941 168.768 
L 326.477125 174.528 
L 326.558309 151.488 
L 326.639493 191.808 
L 326.720677 168.768 
L 326.80186 93.888 
L 326.964228 197.568 
L 327.126596 151.488 
L 327.20778 197.568 
L 327.288964 122.688 
L 327.370148 220.608 
L 327.451332 163.008 
L 327.532516 180.288 
L 327.6137 134.208 
L 327.694884 163.008 
L 327.776068 157.248 
L 327.857252 168.768 
L 328.019619 203.328 
L 328.100803 111.168 
L 328.181987 139.968 
L 328.344355 111.168 
L 328.506723 174.528 
L 328.587907 168.768 
L 328.669091 99.648 
L 328.750275 186.048 
L 328.831459 157.248 
L 328.993827 191.808 
L 329.075011 139.968 
L 329.156195 226.368 
L 329.318562 128.448 
L 329.399746 168.768 
L 329.48093 157.248 
L 329.562114 191.808 
L 329.643298 186.048 
L 329.724482 111.168 
L 329.968034 197.568 
L 330.211586 157.248 
L 330.29277 214.848 
L 330.455137 139.968 
L 330.536321 180.288 
L 330.617505 139.968 
L 330.698689 174.528 
L 330.861057 134.208 
L 331.104609 209.088 
L 331.348161 128.448 
L 331.591712 255.168 
L 331.75408 139.968 
L 331.835264 220.608 
L 331.916448 163.008 
L 331.997632 203.328 
L 332.16 139.968 
L 332.241184 122.688 
L 332.484736 209.088 
L 332.56592 191.808 
L 332.647104 220.608 
L 332.809471 116.928 
L 332.890655 122.688 
L 333.053023 197.568 
L 333.134207 180.288 
L 333.215391 214.848 
L 333.458943 93.888 
L 333.621311 191.808 
L 333.864863 122.688 
L 333.946047 203.328 
L 334.108414 99.648 
L 334.189598 128.448 
L 334.270782 186.048 
L 334.351966 134.208 
L 334.43315 180.288 
L 334.514334 151.488 
L 334.676702 186.048 
L 334.757886 168.768 
L 334.83907 226.368 
L 335.001438 157.248 
L 335.082622 116.928 
L 335.163805 209.088 
L 335.244989 191.808 
L 335.326173 128.448 
L 335.488541 174.528 
L 335.569725 139.968 
L 335.650909 151.488 
L 335.732093 157.248 
L 335.813277 145.728 
L 335.894461 168.768 
L 335.975645 134.208 
L 336.138013 186.048 
L 336.219197 139.968 
L 336.300381 151.488 
L 336.381564 128.448 
L 336.462748 168.768 
L 336.543932 151.488 
L 336.7063 168.768 
L 336.868668 82.368 
L 337.031036 180.288 
L 337.11222 168.768 
L 337.193404 237.888 
L 337.274588 134.208 
L 337.355772 180.288 
L 337.436956 157.248 
L 337.51814 197.568 
L 337.599323 145.728 
L 337.761691 180.288 
L 337.842875 180.288 
L 337.924059 226.368 
L 338.167611 139.968 
L 338.248795 145.728 
L 338.329979 134.208 
L 338.411163 99.648 
L 338.654715 209.088 
L 338.817082 145.728 
L 338.898266 163.008 
L 338.97945 151.488 
L 339.060634 174.528 
L 339.223002 145.728 
L 339.304186 145.728 
L 339.38537 163.008 
L 339.466554 128.448 
L 339.547738 226.368 
L 339.79129 116.928 
L 339.953658 197.568 
L 340.116025 116.928 
L 340.197209 209.088 
L 340.278393 191.808 
L 340.359577 203.328 
L 340.521945 139.968 
L 340.684313 174.528 
L 340.765497 122.688 
L 341.009049 226.368 
L 341.090233 214.848 
L 341.171416 151.488 
L 341.2526 186.048 
L 341.333784 116.928 
L 341.414968 163.008 
L 341.577336 88.128 
L 341.739704 226.368 
L 341.820888 163.008 
L 341.902072 174.528 
L 342.06444 122.688 
L 342.145624 128.448 
L 342.307992 209.088 
L 342.551543 139.968 
L 342.795095 220.608 
L 342.876279 186.048 
L 342.957463 232.128 
L 343.119831 145.728 
L 343.201015 197.568 
L 343.282199 168.768 
L 343.363383 174.528 
L 343.444567 168.768 
L 343.525751 180.288 
L 343.606934 214.848 
L 343.688118 197.568 
L 343.769302 134.208 
L 344.012854 214.848 
L 344.094038 145.728 
L 344.175222 197.568 
L 344.256406 116.928 
L 344.418774 174.528 
L 344.499958 168.768 
L 344.581142 209.088 
L 344.824693 180.288 
L 344.905877 180.288 
L 344.987061 203.328 
L 345.068245 186.048 
L 345.149429 93.888 
L 345.230613 186.048 
L 345.311797 134.208 
L 345.392981 145.728 
L 345.474165 157.248 
L 345.555349 134.208 
L 345.636533 139.968 
L 345.717717 180.288 
L 345.798901 151.488 
L 345.880085 191.808 
L 345.961268 139.968 
L 346.042452 180.288 
L 346.123636 163.008 
L 346.20482 209.088 
L 346.286004 174.528 
L 346.367188 186.048 
L 346.529556 151.488 
L 346.691924 203.328 
L 346.854292 116.928 
L 346.935476 139.968 
L 347.01666 237.888 
L 347.179027 122.688 
L 347.260211 174.528 
L 347.341395 168.768 
L 347.422579 186.048 
L 347.584947 105.408 
L 347.666131 214.848 
L 347.747315 186.048 
L 347.828499 226.368 
L 347.909683 168.768 
L 347.990867 232.128 
L 348.153235 111.168 
L 348.315603 220.608 
L 348.559154 122.688 
L 348.640338 226.368 
L 348.721522 214.848 
L 348.802706 186.048 
L 348.88389 197.568 
L 349.046258 139.968 
L 349.127442 272.448 
L 349.208626 93.888 
L 349.370994 203.328 
L 349.452178 191.808 
L 349.614545 151.488 
L 349.695729 180.288 
L 349.776913 122.688 
L 349.858097 214.848 
L 349.939281 180.288 
L 350.020465 203.328 
L 350.101649 105.408 
L 350.182833 128.448 
L 350.345201 186.048 
L 350.426385 174.528 
L 350.588753 243.648 
L 350.669937 139.968 
L 350.751121 163.008 
L 350.832304 145.728 
L 350.913488 203.328 
L 350.994672 191.808 
L 351.075856 237.888 
L 351.15704 226.368 
L 351.319408 163.008 
L 351.400592 191.808 
L 351.481776 93.888 
L 351.644144 203.328 
L 351.806512 151.488 
L 351.887696 237.888 
L 352.131247 145.728 
L 352.293615 203.328 
L 352.374799 186.048 
L 352.455983 197.568 
L 352.537167 151.488 
L 352.618351 237.888 
L 352.780719 76.608 
L 352.861903 255.168 
L 352.943087 203.328 
L 353.024271 151.488 
L 353.105455 186.048 
L 353.186638 174.528 
L 353.267822 157.248 
L 353.43019 220.608 
L 353.592558 163.008 
L 353.754926 237.888 
L 353.917294 163.008 
L 353.998478 157.248 
L 354.079662 163.008 
L 354.160846 134.208 
L 354.323214 226.368 
L 354.404397 226.368 
L 354.485581 163.008 
L 354.566765 220.608 
L 354.810317 168.768 
L 354.891501 151.488 
L 354.972685 191.808 
L 355.053869 134.208 
L 355.135053 197.568 
L 355.297421 134.208 
L 355.622156 214.848 
L 355.70334 163.008 
L 355.784524 226.368 
L 355.946892 151.488 
L 356.10926 197.568 
L 356.190444 174.528 
L 356.433996 197.568 
L 356.51518 191.808 
L 356.596364 209.088 
L 356.677548 197.568 
L 356.758732 157.248 
L 356.839915 186.048 
L 356.921099 134.208 
L 357.002283 145.728 
L 357.083467 209.088 
L 357.164651 180.288 
L 357.245835 203.328 
L 357.327019 180.288 
L 357.408203 203.328 
L 357.489387 134.208 
L 357.570571 186.048 
L 357.651755 157.248 
L 357.732939 232.128 
L 357.895307 145.728 
L 357.97649 168.768 
L 358.138858 128.448 
L 358.220042 186.048 
L 358.301226 168.768 
L 358.38241 191.808 
L 358.544778 111.168 
L 358.707146 180.288 
L 358.78833 174.528 
L 358.869514 111.168 
L 359.113066 180.288 
L 359.194249 168.768 
L 359.275433 249.408 
L 359.437801 157.248 
L 359.518985 180.288 
L 359.600169 237.888 
L 359.681353 134.208 
L 359.762537 151.488 
L 359.843721 232.128 
L 360.006089 128.448 
L 360.087273 157.248 
L 360.168457 249.408 
L 360.249641 139.968 
L 360.412008 209.088 
L 360.493192 186.048 
L 360.574376 272.448 
L 360.736744 157.248 
L 360.980296 191.808 
L 361.06148 186.048 
L 361.142664 197.568 
L 361.223848 151.488 
L 361.305032 157.248 
L 361.548584 197.568 
L 361.629767 88.128 
L 361.710951 249.408 
L 361.792135 88.128 
L 361.873319 197.568 
L 361.954503 151.488 
L 362.035687 180.288 
L 362.116871 111.168 
L 362.279239 191.808 
L 362.603975 157.248 
L 362.685159 226.368 
L 362.766342 163.008 
L 362.847526 186.048 
L 362.92871 186.048 
L 363.009894 220.608 
L 363.091078 214.848 
L 363.253446 157.248 
L 363.415814 191.808 
L 363.578182 145.728 
L 363.74055 214.848 
L 363.821734 157.248 
L 363.984101 220.608 
L 364.065285 174.528 
L 364.146469 186.048 
L 364.227653 186.048 
L 364.390021 145.728 
L 364.471205 157.248 
L 364.552389 197.568 
L 364.714757 134.208 
L 364.877125 168.768 
L 364.958309 139.968 
L 365.120677 214.848 
L 365.283044 151.488 
L 365.364228 168.768 
L 365.445412 157.248 
L 365.526596 163.008 
L 365.60778 134.208 
L 365.770148 151.488 
L 365.851332 186.048 
L 365.932516 174.528 
L 366.0137 203.328 
L 366.176068 145.728 
L 366.257252 151.488 
L 366.419619 180.288 
L 366.500803 111.168 
L 366.663171 197.568 
L 366.744355 180.288 
L 366.825539 168.768 
L 366.906723 174.528 
L 367.069091 88.128 
L 367.231459 168.768 
L 367.312643 163.008 
L 367.393827 209.088 
L 367.475011 116.928 
L 367.637378 191.808 
L 367.799746 111.168 
L 367.88093 209.088 
L 367.962114 191.808 
L 368.043298 151.488 
L 368.124482 174.528 
L 368.205666 116.928 
L 368.28685 157.248 
L 368.368034 111.168 
L 368.449218 174.528 
L 368.530402 168.768 
L 368.69277 203.328 
L 368.855137 168.768 
L 368.936321 157.248 
L 369.017505 128.448 
L 369.179873 203.328 
L 369.342241 174.528 
L 369.423425 168.768 
L 369.504609 145.728 
L 369.666977 168.768 
L 369.748161 122.688 
L 369.829345 186.048 
L 369.910529 163.008 
L 369.991712 174.528 
L 370.072896 163.008 
L 370.15408 226.368 
L 370.316448 174.528 
L 370.397632 163.008 
L 370.56 203.328 
L 370.641184 203.328 
L 370.722368 191.808 
L 370.803552 209.088 
L 370.884736 168.768 
L 370.96592 197.568 
L 371.128288 134.208 
L 371.209471 180.288 
L 371.290655 174.528 
L 371.371839 168.768 
L 371.453023 145.728 
L 371.534207 168.768 
L 371.696575 134.208 
L 371.940127 209.088 
L 372.021311 168.768 
L 372.102495 214.848 
L 372.183679 203.328 
L 372.264863 134.208 
L 372.346047 168.768 
L 372.42723 145.728 
L 372.508414 186.048 
L 372.589598 157.248 
L 372.751966 209.088 
L 372.83315 157.248 
L 372.995518 232.128 
L 373.157886 174.528 
L 373.23907 197.568 
L 373.320254 163.008 
L 373.482622 197.568 
L 373.563805 163.008 
L 373.644989 186.048 
L 373.726173 122.688 
L 373.807357 145.728 
L 373.888541 122.688 
L 374.132093 180.288 
L 374.213277 157.248 
L 374.294461 197.568 
L 374.375645 191.808 
L 374.456829 209.088 
L 374.619197 116.928 
L 374.700381 191.808 
L 374.862748 139.968 
L 374.943932 209.088 
L 375.025116 174.528 
L 375.1063 197.568 
L 375.268668 180.288 
L 375.349852 255.168 
L 375.51222 139.968 
L 375.674588 220.608 
L 375.836956 168.768 
L 375.91814 186.048 
L 375.999323 116.928 
L 376.080507 163.008 
L 376.161691 134.208 
L 376.242875 220.608 
L 376.324059 151.488 
L 376.405243 168.768 
L 376.486427 163.008 
L 376.648795 197.568 
L 376.811163 163.008 
L 376.892347 209.088 
L 377.054715 122.688 
L 377.217082 209.088 
L 377.298266 209.088 
L 377.37945 128.448 
L 377.460634 145.728 
L 377.623002 226.368 
L 377.704186 168.768 
L 377.78537 180.288 
L 377.866554 180.288 
L 378.028922 151.488 
L 378.110106 186.048 
L 378.19129 168.768 
L 378.353658 203.328 
L 378.516025 134.208 
L 378.597209 180.288 
L 378.678393 168.768 
L 378.759577 168.768 
L 378.840761 157.248 
L 378.921945 180.288 
L 379.003129 134.208 
L 379.246681 197.568 
L 379.327865 197.568 
L 379.409049 111.168 
L 379.571416 186.048 
L 379.6526 145.728 
L 379.814968 203.328 
L 379.896152 134.208 
L 379.977336 168.768 
L 380.05852 134.208 
L 380.139704 139.968 
L 380.220888 122.688 
L 380.383256 151.488 
L 380.46444 157.248 
L 380.545624 145.728 
L 380.626808 180.288 
L 380.707992 168.768 
L 380.789175 139.968 
L 380.870359 168.768 
L 380.951543 139.968 
L 381.032727 163.008 
L 381.113911 116.928 
L 381.276279 174.528 
L 381.438647 122.688 
L 381.519831 232.128 
L 381.601015 145.728 
L 381.682199 163.008 
L 381.763383 151.488 
L 382.006934 197.568 
L 382.088118 163.008 
L 382.250486 214.848 
L 382.412854 145.728 
L 382.494038 145.728 
L 382.575222 237.888 
L 382.656406 145.728 
L 382.73759 186.048 
L 382.818774 145.728 
L 383.062326 214.848 
L 383.305877 134.208 
L 383.387061 157.248 
L 383.468245 214.848 
L 383.630613 168.768 
L 383.711797 168.768 
L 383.874165 180.288 
L 383.955349 145.728 
L 384.036533 220.608 
L 384.198901 139.968 
L 384.280085 168.768 
L 384.442452 139.968 
L 384.523636 186.048 
L 384.60482 163.008 
L 384.686004 93.888 
L 384.767188 197.568 
L 384.848372 186.048 
L 384.929556 128.448 
L 385.01074 145.728 
L 385.091924 139.968 
L 385.173108 186.048 
L 385.41666 122.688 
L 385.497844 209.088 
L 385.660211 157.248 
L 385.741395 157.248 
L 385.822579 186.048 
L 385.903763 145.728 
L 386.147315 203.328 
L 386.228499 214.848 
L 386.309683 209.088 
L 386.553235 151.488 
L 386.634419 203.328 
L 386.87797 111.168 
L 386.959154 203.328 
L 387.040338 116.928 
L 387.121522 186.048 
L 387.202706 180.288 
L 387.28389 163.008 
L 387.365074 82.368 
L 387.446258 191.808 
L 387.527442 105.408 
L 387.68981 191.808 
L 387.852178 157.248 
L 387.933362 203.328 
L 388.014545 180.288 
L 388.095729 209.088 
L 388.339281 128.448 
L 388.501649 186.048 
L 388.582833 116.928 
L 388.664017 214.848 
L 388.826385 157.248 
L 388.907569 145.728 
L 389.069937 214.848 
L 389.151121 214.848 
L 389.232304 220.608 
L 389.475856 99.648 
L 389.55704 180.288 
L 389.638224 151.488 
L 389.719408 145.728 
L 389.800592 214.848 
L 389.96296 105.408 
L 390.044144 191.808 
L 390.125328 174.528 
L 390.206512 186.048 
L 390.287696 145.728 
L 390.368879 151.488 
L 390.450063 151.488 
L 390.531247 203.328 
L 390.612431 186.048 
L 390.774799 203.328 
L 390.855983 191.808 
L 390.937167 163.008 
L 391.018351 197.568 
L 391.099535 134.208 
L 391.180719 139.968 
L 391.261903 163.008 
L 391.343087 151.488 
L 391.424271 163.008 
L 391.505455 214.848 
L 391.667822 163.008 
L 392.073742 191.808 
L 392.23611 157.248 
L 392.317294 157.248 
L 392.398478 134.208 
L 392.479662 145.728 
L 392.64203 203.328 
L 392.804397 139.968 
L 392.966765 209.088 
L 393.047949 134.208 
L 393.210317 186.048 
L 393.291501 145.728 
L 393.453869 260.928 
L 393.535053 243.648 
L 393.616237 168.768 
L 393.697421 186.048 
L 393.778605 191.808 
L 393.859789 174.528 
L 393.940973 122.688 
L 394.10334 180.288 
L 394.184524 139.968 
L 394.265708 186.048 
L 394.346892 157.248 
L 394.428076 163.008 
L 394.50926 203.328 
L 394.590444 163.008 
L 394.752812 203.328 
L 394.91518 151.488 
L 394.996364 145.728 
L 395.158732 197.568 
L 395.239915 186.048 
L 395.321099 139.968 
L 395.402283 174.528 
L 395.483467 151.488 
L 395.564651 186.048 
L 395.645835 180.288 
L 395.808203 145.728 
L 395.889387 168.768 
L 395.970571 128.448 
L 396.051755 197.568 
L 396.132939 111.168 
L 396.214123 174.528 
L 396.295307 151.488 
L 396.37649 203.328 
L 396.457674 191.808 
L 396.538858 145.728 
L 396.620042 197.568 
L 396.701226 174.528 
L 396.78241 203.328 
L 396.863594 191.808 
L 396.944778 151.488 
L 397.025962 220.608 
L 397.107146 168.768 
L 397.18833 186.048 
L 397.431882 116.928 
L 397.594249 232.128 
L 397.675433 168.768 
L 397.756617 191.808 
L 397.837801 134.208 
L 397.918985 186.048 
L 398.000169 180.288 
L 398.162537 139.968 
L 398.243721 139.968 
L 398.324905 214.848 
L 398.406089 174.528 
L 398.487273 180.288 
" clip-path="url(#p32a71861d2)" style="fill: none; stroke: #1f77b4; stroke-width: 1.5; stroke-linecap: square"/>
   </g>
   <g id="patch_3">
    <path d="M 57.6 307.584 
L 57.6 41.472 
" style="fill: none; stroke: #000000; stroke-width: 0.8; stroke-linejoin: miter; stroke-linecap: square"/>
   </g>
   <g id="patch_4">
    <path d="M 414.72 307.584 
L 414.72 41.472 
" style="fill: none; stroke: #000000; stroke-width: 0.8; stroke-linejoin: miter; stroke-linecap: square"/>
   </g>
   <g id="patch_5">
    <path d="M 57.6 307.584 
L 414.72 307.584 
" style="fill: none; stroke: #000000; stroke-width: 0.8; stroke-linejoin: miter; stroke-linecap: square"/>
   </g>
   <g id="patch_6">
    <path d="M 57.6 41.472 
L 414.72 41.472 
" style="fill: none; stroke: #000000; stroke-width: 0.8; stroke-linejoin: miter; stroke-linecap: square"/>
   </g>
   <g id="text_17">
    <!-- Output firing rate -->
    <g transform="translate(183.793125 35.472) scale(0.12 -0.12)">
     <defs>
      <path id="DejaVuSans-4f" d="M 2522 4238 
Q 1834 4238 1429 3725 
Q 1025 3213 1025 2328 
Q 1025 1447 1429 934 
Q 1834 422 2522 422 
Q 3209 422 3611 934 
Q 4013 1447 4013 2328 
Q 4013 3213 3611 3725 
Q 3209 4238 2522 4238 
z
M 2522 4750 
Q 3503 4750 4090 4092 
Q 4678 3434 4678 2328 
Q 4678 1225 4090 567 
Q 3503 -91 2522 -91 
Q 1538 -91 948 565 
Q 359 1222 359 2328 
Q 359 3434 948 4092 
Q 1538 4750 2522 4750 
z
" transform="scale(0.015625)"/>
      <path id="DejaVuSans-75" d="M 544 1381 
L 544 3500 
L 1119 3500 
L 1119 1403 
Q 1119 906 1312 657 
Q 1506 409 1894 409 
Q 2359 409 2629 706 
Q 2900 1003 2900 1516 
L 2900 3500 
L 3475 3500 
L 3475 0 
L 2900 0 
L 2900 538 
Q 2691 219 2414 64 
Q 2138 -91 1772 -91 
Q 1169 -91 856 284 
Q 544 659 544 1381 
z
M 1991 3584 
L 1991 3584 
z
" transform="scale(0.015625)"/>
      <path id="DejaVuSans-70" d="M 1159 525 
L 1159 -1331 
L 581 -1331 
L 581 3500 
L 1159 3500 
L 1159 2969 
Q 1341 3281 1617 3432 
Q 1894 3584 2278 3584 
Q 2916 3584 3314 3078 
Q 3713 2572 3713 1747 
Q 3713 922 3314 415 
Q 2916 -91 2278 -91 
Q 1894 -91 1617 61 
Q 1341 213 1159 525 
z
M 3116 1747 
Q 3116 2381 2855 2742 
Q 2594 3103 2138 3103 
Q 1681 3103 1420 2742 
Q 1159 2381 1159 1747 
Q 1159 1113 1420 752 
Q 1681 391 2138 391 
Q 2594 391 2855 752 
Q 3116 1113 3116 1747 
z
" transform="scale(0.015625)"/>
      <path id="DejaVuSans-66" d="M 2375 4863 
L 2375 4384 
L 1825 4384 
Q 1516 4384 1395 4259 
Q 1275 4134 1275 3809 
L 1275 3500 
L 2222 3500 
L 2222 3053 
L 1275 3053 
L 1275 0 
L 697 0 
L 697 3053 
L 147 3053 
L 147 3500 
L 697 3500 
L 697 3744 
Q 697 4328 969 4595 
Q 1241 4863 1831 4863 
L 2375 4863 
z
" transform="scale(0.015625)"/>
     </defs>
     <use xlink:href="#DejaVuSans-4f"/>
     <use xlink:href="#DejaVuSans-75" x="78.710938"/>
     <use xlink:href="#DejaVuSans-74" x="142.089844"/>
     <use xlink:href="#DejaVuSans-70" x="181.298828"/>
     <use xlink:href="#DejaVuSans-75" x="244.775391"/>
     <use xlink:href="#DejaVuSans-74" x="308.154297"/>
     <use xlink:href="#DejaVuSans-20" x="347.363281"/>
     <use xlink:href="#DejaVuSans-66" x="379.150391"/>
     <use xlink:href="#DejaVuSans-69" x="414.355469"/>
     <use xlink:href="#DejaVuSans-72" x="442.138672"/>
     <use xlink:href="#DejaVuSans-69" x="483.251953"/>
     <use xlink:href="#DejaVuSans-6e" x="511.035156"/>
     <use xlink:href="#DejaVuSans-67" x="574.414062"/>
     <use xlink:href="#DejaVuSans-20" x="637.890625"/>
     <use xlink:href="#DejaVuSans-72" x="669.677734"/>
     <use xlink:href="#DejaVuSans-61" x="710.791016"/>
     <use xlink:href="#DejaVuSans-74" x="772.070312"/>
     <use xlink:href="#DejaVuSans-65" x="811.279297"/>
    </g>
   </g>
  </g>
 </g>
 <defs>
  <clipPath id="p32a71861d2">
   <rect x="57.6" y="41.472" width="357.12" height="266.112"/>
  </clipPath>
 </defs>
</svg>
